%TF.GenerationSoftware,KiCad,Pcbnew,5.1.10-88a1d61d58~88~ubuntu21.04.1*%
%TF.CreationDate,2021-06-04T00:34:01+02:00*%
%TF.ProjectId,southpaw75-ansi-iso-plate,736f7574-6870-4617-9737-352d616e7369,rev?*%
%TF.SameCoordinates,Original*%
%TF.FileFunction,Soldermask,Bot*%
%TF.FilePolarity,Negative*%
%FSLAX46Y46*%
G04 Gerber Fmt 4.6, Leading zero omitted, Abs format (unit mm)*
G04 Created by KiCad (PCBNEW 5.1.10-88a1d61d58~88~ubuntu21.04.1) date 2021-06-04 00:34:01*
%MOMM*%
%LPD*%
G01*
G04 APERTURE LIST*
%TA.AperFunction,Profile*%
%ADD10C,0.196850*%
%TD*%
%TA.AperFunction,Profile*%
%ADD11C,0.200000*%
%TD*%
%TA.AperFunction,Profile*%
%ADD12C,0.050000*%
%TD*%
%ADD13C,0.010000*%
G04 APERTURE END LIST*
D10*
X109716639Y-135756997D02*
X109716639Y-136356400D01*
X108916000Y-136356400D02*
X108916000Y-149156885D01*
X108916000Y-136356400D02*
X109716639Y-136356400D01*
X109716639Y-149756266D02*
X109716639Y-149156885D01*
X109716639Y-149156885D02*
X108916000Y-149156885D01*
X128478591Y-135756997D02*
X109716639Y-135756997D01*
X128478591Y-135756997D02*
X128478591Y-136356400D01*
X129277873Y-136356400D02*
X128478591Y-136356400D01*
X129277873Y-149156885D02*
X129277873Y-136356400D01*
X128478591Y-149156885D02*
X129277873Y-149156885D01*
X128478591Y-149756266D02*
X128478591Y-149156885D01*
X128478591Y-149756266D02*
X109716639Y-149756266D01*
X145142157Y-168806474D02*
X145142157Y-168207093D01*
X141736364Y-154807205D02*
X145142157Y-154807205D01*
X134536366Y-153806816D02*
X134536366Y-154807205D01*
X141736364Y-153806816D02*
X134536366Y-153806816D01*
X141736364Y-154807205D02*
X141736364Y-153806816D01*
X134536366Y-169806777D02*
X134536366Y-168806474D01*
X141736364Y-169806777D02*
X134536366Y-169806777D01*
X117836299Y-168806474D02*
X134536366Y-168806474D01*
X109711639Y-155406500D02*
X109711639Y-154807205D01*
X109711639Y-168207093D02*
X108911000Y-168207093D01*
X145942947Y-155406500D02*
X145142157Y-155406500D01*
X117836299Y-154807205D02*
X134536366Y-154807205D01*
X109711639Y-168806474D02*
X110836310Y-168806474D01*
X145942947Y-168207093D02*
X145142157Y-168207093D01*
X145142157Y-154807205D02*
X145142157Y-155406500D01*
X145942947Y-155406500D02*
X145942947Y-168207093D01*
X141736364Y-168806474D02*
X141736364Y-169806777D01*
X110836310Y-154807205D02*
X109711639Y-154807205D01*
X117836299Y-169806777D02*
X110836310Y-169806777D01*
X117836299Y-168806474D02*
X117836299Y-169806777D01*
X110836310Y-153806816D02*
X110836310Y-154807205D01*
X117836299Y-153806816D02*
X110836310Y-153806816D01*
X117836299Y-154807205D02*
X117836299Y-153806816D01*
X110836310Y-169806777D02*
X110836310Y-168806474D01*
X109711639Y-168207093D02*
X109711639Y-168806474D01*
X109711639Y-155406500D02*
X108911000Y-155406500D01*
X108911000Y-155406500D02*
X108911000Y-168207093D01*
X141736364Y-168806474D02*
X145142157Y-168806474D01*
X356060480Y-168806474D02*
X372660446Y-168806474D01*
X388028900Y-168806474D02*
X379860423Y-168806474D01*
X347832005Y-154807205D02*
X348860482Y-154807205D01*
X347031000Y-155406500D02*
X347031000Y-168207093D01*
X356060480Y-153806816D02*
X356060480Y-154807205D01*
X348860482Y-153806816D02*
X356060480Y-153806816D01*
X348860482Y-154807205D02*
X348860482Y-153806816D01*
X356060480Y-169806777D02*
X356060480Y-168806474D01*
X348860482Y-169806777D02*
X356060480Y-169806777D01*
X379860423Y-153806816D02*
X372660446Y-153806816D01*
X379860423Y-154807205D02*
X379860423Y-153806816D01*
X347832005Y-155406500D02*
X347031000Y-155406500D01*
X388829905Y-168207028D02*
X388829905Y-155406457D01*
X388028900Y-168207028D02*
X388829905Y-168207028D01*
X388028900Y-154807162D02*
X388028900Y-154807205D01*
X388028900Y-168207028D02*
X388028900Y-168806431D01*
X379860423Y-154807205D02*
X388028900Y-154807162D01*
X347832005Y-155406500D02*
X347832005Y-154807205D01*
X347832005Y-168207093D02*
X347832005Y-168806474D01*
X388028900Y-155406457D02*
X388028900Y-154807162D01*
X348860482Y-168806474D02*
X348860482Y-169806777D01*
X372660446Y-169806777D02*
X372660446Y-168806474D01*
X379860423Y-169806777D02*
X372660446Y-169806777D01*
X379860423Y-168806474D02*
X379860423Y-169806777D01*
X372660446Y-153806816D02*
X372660446Y-154807205D01*
X347031000Y-168207093D02*
X347832005Y-168207093D01*
X372660446Y-154807205D02*
X356060480Y-154807205D01*
X348860482Y-168806474D02*
X347832005Y-168806474D01*
X388028900Y-155406457D02*
X388829905Y-155406457D01*
X385647932Y-126232017D02*
X385046936Y-126232017D01*
X385047841Y-141031643D02*
X384622437Y-141031643D01*
X353605680Y-134756651D02*
X360805657Y-134756651D01*
X353605680Y-135756997D02*
X353605680Y-134756651D01*
X371647953Y-135756997D02*
X371647953Y-130706304D01*
X360805657Y-134756651D02*
X360805657Y-135756997D01*
X360805657Y-149756266D02*
X376122413Y-149756266D01*
X376921415Y-149156282D02*
X376122413Y-149156282D01*
X371647953Y-135756997D02*
X360805657Y-135756997D01*
X386689921Y-117731670D02*
X384176944Y-117731670D01*
X385046936Y-125432627D02*
X384176944Y-125432627D01*
X384622437Y-141531569D02*
X385047841Y-141531569D01*
X369266966Y-130706304D02*
X371647953Y-130706304D01*
X383266945Y-117306438D02*
X384176944Y-117306438D01*
X384176944Y-124931668D02*
X384176944Y-125432627D01*
X353605680Y-149756266D02*
X350217004Y-149756266D01*
X384176944Y-124931668D02*
X386689921Y-124931668D01*
X385047841Y-141031643D02*
X385047841Y-140231285D01*
X377422460Y-150756978D02*
X384622437Y-150756978D01*
X384176944Y-117731670D02*
X384176944Y-117306438D01*
X369266966Y-117306438D02*
X369266966Y-116707036D01*
X350217004Y-135756997D02*
X353605680Y-135756997D01*
X350217004Y-149156885D02*
X350217004Y-149756266D01*
X376921415Y-148731567D02*
X376921415Y-149156282D01*
X377422460Y-148731567D02*
X376921415Y-148731567D01*
X384622437Y-141531569D02*
X384622437Y-141031643D01*
X386689921Y-124931668D02*
X386689921Y-117731670D01*
X385046936Y-125432627D02*
X385046936Y-126232017D01*
X385647932Y-140231285D02*
X385047841Y-140231285D01*
X386689921Y-148731567D02*
X386689921Y-141531569D01*
X368465962Y-117306438D02*
X368465962Y-130106923D01*
X350217004Y-136356400D02*
X349416000Y-136356400D01*
X368465962Y-117306438D02*
X369266966Y-117306438D01*
X353605680Y-149756266D02*
X353605680Y-150756612D01*
X376122413Y-149156282D02*
X376122413Y-149756266D01*
X369266966Y-116707036D02*
X383266945Y-116707036D01*
X350217004Y-136356400D02*
X350217004Y-135756997D01*
X383266945Y-116707036D02*
X383266945Y-117306438D01*
X377422460Y-148731567D02*
X377422460Y-149756266D01*
X377422460Y-149756266D02*
X377422460Y-150756978D01*
X386689921Y-141531569D02*
X385047841Y-141531569D01*
X349416000Y-136356400D02*
X349416000Y-149156885D01*
X385647932Y-126232017D02*
X385647932Y-140231285D01*
X384622437Y-150756978D02*
X384622437Y-148731567D01*
X349416000Y-149156885D02*
X350217004Y-149156885D01*
X353605680Y-150756612D02*
X360805657Y-150756612D01*
X360805657Y-150756612D02*
X360805657Y-149756266D01*
X384622437Y-148731567D02*
X386689921Y-148731567D01*
X369266966Y-130106923D02*
X368465962Y-130106923D01*
X369266966Y-130706304D02*
X369266966Y-130106923D01*
D11*
X147522000Y-187855860D02*
X147522000Y-187256420D01*
X133521000Y-187855860D02*
X147522000Y-187855860D01*
X133521000Y-187256420D02*
X133521000Y-187855860D01*
X132722000Y-187256420D02*
X133521000Y-187256420D01*
X132722000Y-174455800D02*
X132722000Y-187256420D01*
X133521000Y-174455800D02*
X132722000Y-174455800D01*
X133521000Y-173856400D02*
X133521000Y-174455800D01*
X171334000Y-173856400D02*
X157335000Y-173856400D01*
X171334000Y-174455800D02*
X171334000Y-173856400D01*
X172135000Y-174455800D02*
X171334000Y-174455800D01*
X172135000Y-187256420D02*
X172135000Y-174455800D01*
X171334000Y-187256420D02*
X172135000Y-187256420D01*
X171334000Y-187855860D02*
X171334000Y-187256420D01*
X157335000Y-187855860D02*
X171334000Y-187855860D01*
X157335000Y-187256420D02*
X157335000Y-187855860D01*
X156534000Y-187256420D02*
X157335000Y-187256420D01*
X156534000Y-174455800D02*
X156534000Y-187256420D01*
X157335000Y-174455800D02*
X156534000Y-174455800D01*
X157335000Y-173856400D02*
X157335000Y-174455800D01*
X314209000Y-173856400D02*
X300210000Y-173856400D01*
X314209000Y-174455800D02*
X314209000Y-173856400D01*
X315010000Y-174455800D02*
X314209000Y-174455800D01*
X315010000Y-187256420D02*
X315010000Y-174455800D01*
X314209000Y-187256420D02*
X315010000Y-187256420D01*
X314209000Y-187855860D02*
X314209000Y-187256420D01*
X300210000Y-187855860D02*
X314209000Y-187855860D01*
X300210000Y-187256420D02*
X300210000Y-187855860D01*
X299409000Y-187256420D02*
X300210000Y-187256420D01*
X299409000Y-174455800D02*
X299409000Y-187256420D01*
X300210000Y-174455800D02*
X299409000Y-174455800D01*
X300210000Y-173856400D02*
X300210000Y-174455800D01*
X338022000Y-173856400D02*
X324021000Y-173856400D01*
X338022000Y-174455800D02*
X338022000Y-173856400D01*
X338821000Y-174455800D02*
X338022000Y-174455800D01*
X338821000Y-187256420D02*
X338821000Y-174455800D01*
X338022000Y-187256420D02*
X338821000Y-187256420D01*
X338022000Y-187855860D02*
X338022000Y-187256420D01*
X324021000Y-187855860D02*
X338022000Y-187855860D01*
X324021000Y-187256420D02*
X324021000Y-187855860D01*
X323222000Y-187256420D02*
X324021000Y-187256420D01*
X323222000Y-174455800D02*
X323222000Y-187256420D01*
X324021000Y-174455800D02*
X323222000Y-174455800D01*
X324021000Y-173856400D02*
X324021000Y-174455800D01*
X361834000Y-173856400D02*
X347835000Y-173856400D01*
X361834000Y-174455800D02*
X361834000Y-173856400D01*
X362635000Y-174455800D02*
X361834000Y-174455800D01*
X362635000Y-187256420D02*
X362635000Y-174455800D01*
X361834000Y-187256420D02*
X362635000Y-187256420D01*
X361834000Y-187855860D02*
X361834000Y-187256420D01*
X347835000Y-187855860D02*
X361834000Y-187855860D01*
X347835000Y-187256420D02*
X347835000Y-187855860D01*
X347034000Y-187256420D02*
X347835000Y-187256420D01*
X347034000Y-174455800D02*
X347034000Y-187256420D01*
X347835000Y-174455800D02*
X347034000Y-174455800D01*
X347835000Y-173856400D02*
X347835000Y-174455800D01*
X385647000Y-173856400D02*
X371646000Y-173856400D01*
X385647000Y-174455800D02*
X385647000Y-173856400D01*
X386448000Y-174455800D02*
X385647000Y-174455800D01*
X386448000Y-187256420D02*
X386448000Y-174455800D01*
X385647000Y-187256420D02*
X386448000Y-187256420D01*
X385647000Y-187855860D02*
X385647000Y-187256420D01*
X371646000Y-187855860D02*
X385647000Y-187855860D01*
X371646000Y-187256420D02*
X371646000Y-187855860D01*
X370847000Y-187256420D02*
X371646000Y-187256420D01*
X370847000Y-174455800D02*
X370847000Y-187256420D01*
X371646000Y-174455800D02*
X370847000Y-174455800D01*
X371646000Y-173856400D02*
X371646000Y-174455800D01*
X54653100Y-173856400D02*
X40653700Y-173856400D01*
X54653100Y-174455800D02*
X54653100Y-173856400D01*
X55453800Y-174455800D02*
X54653100Y-174455800D01*
X55453800Y-178556900D02*
X55453800Y-174455800D01*
X56178600Y-178556900D02*
X55453800Y-178556900D01*
X56178600Y-175326700D02*
X56178600Y-178556900D01*
X57903900Y-175326700D02*
X56178600Y-175326700D01*
X57903900Y-174404800D02*
X57903900Y-175326700D01*
X61203000Y-174404800D02*
X57903900Y-174404800D01*
X61203000Y-175326700D02*
X61203000Y-174404800D01*
X62928300Y-175326700D02*
X61203000Y-175326700D01*
X62928300Y-178556900D02*
X62928300Y-175326700D01*
X63753700Y-178556900D02*
X62928300Y-178556900D01*
X63753700Y-181355660D02*
X63753700Y-178556900D01*
X62928300Y-181355660D02*
X63753700Y-181355660D01*
X62928300Y-187625730D02*
X62928300Y-181355660D01*
X61203000Y-187625730D02*
X62928300Y-187625730D01*
X61203000Y-188606890D02*
X61203000Y-187625730D01*
X100809000Y-119681400D02*
X100809000Y-117956300D01*
X101728400Y-119681400D02*
X100809000Y-119681400D01*
X101728400Y-122980600D02*
X101728400Y-119681400D01*
X100809000Y-122980600D02*
X101728400Y-122980600D01*
X100809000Y-124706001D02*
X100809000Y-122980600D01*
X97579000Y-124706001D02*
X100809000Y-124706001D01*
X97579000Y-125430600D02*
X97579000Y-124706001D01*
X101678600Y-125430600D02*
X97579000Y-125430600D01*
X101678600Y-126231400D02*
X101678600Y-125430600D01*
X102278000Y-126231400D02*
X101678600Y-126231400D01*
X102278000Y-140230700D02*
X102278000Y-126231400D01*
X101678600Y-140230700D02*
X102278000Y-140230700D01*
X101678600Y-141031500D02*
X101678600Y-140230700D01*
X97579000Y-141031500D02*
X101678600Y-141031500D01*
X97579000Y-141756500D02*
X97579000Y-141031500D01*
X100809000Y-141756500D02*
X97579000Y-141756500D01*
X100809000Y-143481600D02*
X100809000Y-141756500D01*
X101728400Y-143481600D02*
X100809000Y-143481600D01*
X101728400Y-146780800D02*
X101728400Y-143481600D01*
X100809000Y-146780800D02*
X101728400Y-146780800D01*
X100809000Y-148505800D02*
X100809000Y-146780800D01*
X97579000Y-148505800D02*
X100809000Y-148505800D01*
X97579000Y-149331300D02*
X97579000Y-148505800D01*
X94778999Y-149331300D02*
X97579000Y-149331300D01*
X94778999Y-148505800D02*
X94778999Y-149331300D01*
X88508700Y-148505800D02*
X94778999Y-148505800D01*
X88508700Y-146780800D02*
X88508700Y-148505800D01*
X87529100Y-146780800D02*
X88508700Y-146780800D01*
X87529100Y-143481600D02*
X87529100Y-146780800D01*
X88508700Y-143481600D02*
X87529100Y-143481600D01*
X88508700Y-141756500D02*
X88508700Y-143481600D01*
X92979100Y-141756500D02*
X88508700Y-141756500D01*
X92979100Y-141031500D02*
X92979100Y-141756500D01*
X88878100Y-141031500D02*
X92979100Y-141031500D01*
X88878100Y-140230700D02*
X88878100Y-141031500D01*
X88278700Y-140230700D02*
X88878100Y-140230700D01*
X88278700Y-126231400D02*
X88278700Y-140230700D01*
X88878100Y-126231400D02*
X88278700Y-126231400D01*
X88878100Y-125430600D02*
X88878100Y-126231400D01*
X92979100Y-125430600D02*
X88878100Y-125430600D01*
X92979100Y-124706001D02*
X92979100Y-125430600D01*
X88508700Y-124706001D02*
X92979100Y-124706001D01*
X88508700Y-122980600D02*
X88508700Y-124706001D01*
X87529100Y-122980600D02*
X88508700Y-122980600D01*
X87529100Y-119681400D02*
X87529100Y-122980600D01*
X88508700Y-119681400D02*
X87529100Y-119681400D01*
X88508700Y-117956300D02*
X88508700Y-119681400D01*
X94778999Y-117956300D02*
X88508700Y-117956300D01*
X94778999Y-117130800D02*
X94778999Y-117956300D01*
X45128200Y-135756400D02*
X31128650Y-135756400D01*
X45128200Y-136355800D02*
X45128200Y-135756400D01*
X45928800Y-136355800D02*
X45128200Y-136355800D01*
X45928800Y-149156400D02*
X45928800Y-136355800D01*
X45128200Y-149156400D02*
X45928800Y-149156400D01*
X45128200Y-149755700D02*
X45128200Y-149156400D01*
X31128650Y-149755700D02*
X45128200Y-149755700D01*
X31128650Y-149156400D02*
X31128650Y-149755700D01*
X30328010Y-149156400D02*
X31128650Y-149156400D01*
X30328010Y-136355800D02*
X30328010Y-149156400D01*
X31128650Y-136355800D02*
X30328010Y-136355800D01*
X31128650Y-135756400D02*
X31128650Y-136355800D01*
X64178000Y-135756400D02*
X50178700Y-135756400D01*
X64178000Y-136355800D02*
X64178000Y-135756400D01*
X64978800Y-136355800D02*
X64178000Y-136355800D01*
X64978800Y-149156400D02*
X64978800Y-136355800D01*
X64178000Y-149156400D02*
X64978800Y-149156400D01*
X64178000Y-149755700D02*
X64178000Y-149156400D01*
X50178700Y-149755700D02*
X64178000Y-149755700D01*
X50178700Y-149156400D02*
X50178700Y-149755700D01*
X49378000Y-149156400D02*
X50178700Y-149156400D01*
X49378000Y-136355800D02*
X49378000Y-149156400D01*
X50178700Y-136355800D02*
X49378000Y-136355800D01*
X50178700Y-135756400D02*
X50178700Y-136355800D01*
X83228000Y-135756400D02*
X69228700Y-135756400D01*
X83228000Y-136355800D02*
X83228000Y-135756400D01*
X84028800Y-136355800D02*
X83228000Y-136355800D01*
X84028800Y-149156400D02*
X84028800Y-136355800D01*
X83228000Y-149156400D02*
X84028800Y-149156400D01*
X83228000Y-149755700D02*
X83228000Y-149156400D01*
X69228700Y-149755700D02*
X83228000Y-149755700D01*
X69228700Y-149156400D02*
X69228700Y-149755700D01*
X68427900Y-149156400D02*
X69228700Y-149156400D01*
X68427900Y-136355800D02*
X68427900Y-149156400D01*
X69228700Y-136355800D02*
X68427900Y-136355800D01*
X69228700Y-135756400D02*
X69228700Y-136355800D01*
X154666000Y-135756400D02*
X140666000Y-135756400D01*
X154666000Y-136355800D02*
X154666000Y-135756400D01*
X155465000Y-136355800D02*
X154666000Y-136355800D01*
X155465000Y-149156400D02*
X155465000Y-136355800D01*
X154666000Y-149156400D02*
X155465000Y-149156400D01*
X154666000Y-149755700D02*
X154666000Y-149156400D01*
X140666000Y-149755700D02*
X154666000Y-149755700D01*
X140666000Y-149156400D02*
X140666000Y-149755700D01*
X139865000Y-149156400D02*
X140666000Y-149156400D01*
X139865000Y-136355800D02*
X139865000Y-149156400D01*
X140666000Y-136355800D02*
X139865000Y-136355800D01*
X140666000Y-135756400D02*
X140666000Y-136355800D01*
X173716000Y-135756400D02*
X159716000Y-135756400D01*
X173716000Y-136355800D02*
X173716000Y-135756400D01*
X174515000Y-136355800D02*
X173716000Y-136355800D01*
X174515000Y-149156400D02*
X174515000Y-136355800D01*
X173716000Y-149156400D02*
X174515000Y-149156400D01*
X173716000Y-149755700D02*
X173716000Y-149156400D01*
X159716000Y-149755700D02*
X173716000Y-149755700D01*
X159716000Y-149156400D02*
X159716000Y-149755700D01*
X158915000Y-149156400D02*
X159716000Y-149156400D01*
X158915000Y-136355800D02*
X158915000Y-149156400D01*
X159716000Y-136355800D02*
X158915000Y-136355800D01*
X159716000Y-135756400D02*
X159716000Y-136355800D01*
X192766000Y-135756400D02*
X178766000Y-135756400D01*
X192766000Y-136355800D02*
X192766000Y-135756400D01*
X193565000Y-136355800D02*
X192766000Y-136355800D01*
X193565000Y-149156400D02*
X193565000Y-136355800D01*
X192766000Y-149156400D02*
X193565000Y-149156400D01*
X192766000Y-149755700D02*
X192766000Y-149156400D01*
X178766000Y-149755700D02*
X192766000Y-149755700D01*
X178766000Y-149156400D02*
X178766000Y-149755700D01*
X177965000Y-149156400D02*
X178766000Y-149156400D01*
X177965000Y-136355800D02*
X177965000Y-149156400D01*
X178766000Y-136355800D02*
X177965000Y-136355800D01*
X178766000Y-135756400D02*
X178766000Y-136355800D01*
X211816000Y-135756400D02*
X197816000Y-135756400D01*
X211816000Y-136355800D02*
X211816000Y-135756400D01*
X212615000Y-136355800D02*
X211816000Y-136355800D01*
X212615000Y-149156400D02*
X212615000Y-136355800D01*
X211816000Y-149156400D02*
X212615000Y-149156400D01*
X211816000Y-149755700D02*
X211816000Y-149156400D01*
X197816000Y-149755700D02*
X211816000Y-149755700D01*
X197816000Y-149156400D02*
X197816000Y-149755700D01*
X197015000Y-149156400D02*
X197816000Y-149156400D01*
X197015000Y-136355800D02*
X197015000Y-149156400D01*
X197816000Y-136355800D02*
X197015000Y-136355800D01*
X197816000Y-135756400D02*
X197816000Y-136355800D01*
X230866000Y-135756400D02*
X216866000Y-135756400D01*
X230866000Y-136355800D02*
X230866000Y-135756400D01*
X231665000Y-136355800D02*
X230866000Y-136355800D01*
X231665000Y-149156400D02*
X231665000Y-136355800D01*
X230866000Y-149156400D02*
X231665000Y-149156400D01*
X230866000Y-149755700D02*
X230866000Y-149156400D01*
X216866000Y-149755700D02*
X230866000Y-149755700D01*
X216866000Y-149156400D02*
X216866000Y-149755700D01*
X216065000Y-149156400D02*
X216866000Y-149156400D01*
X216065000Y-136355800D02*
X216065000Y-149156400D01*
X216866000Y-136355800D02*
X216065000Y-136355800D01*
X216866000Y-135756400D02*
X216866000Y-136355800D01*
X249916000Y-135756400D02*
X235916000Y-135756400D01*
X249916000Y-136355800D02*
X249916000Y-135756400D01*
X250715000Y-136355800D02*
X249916000Y-136355800D01*
X250715000Y-149156400D02*
X250715000Y-136355800D01*
X249916000Y-149156400D02*
X250715000Y-149156400D01*
X249916000Y-149755700D02*
X249916000Y-149156400D01*
X235916000Y-149755700D02*
X249916000Y-149755700D01*
X235916000Y-149156400D02*
X235916000Y-149755700D01*
X235115000Y-149156400D02*
X235916000Y-149156400D01*
X235115000Y-136355800D02*
X235115000Y-149156400D01*
X235916000Y-136355800D02*
X235115000Y-136355800D01*
X235916000Y-135756400D02*
X235916000Y-136355800D01*
X268966000Y-135756400D02*
X254966000Y-135756400D01*
X268966000Y-136355800D02*
X268966000Y-135756400D01*
X269765000Y-136355800D02*
X268966000Y-136355800D01*
X269765000Y-149156400D02*
X269765000Y-136355800D01*
X268966000Y-149156400D02*
X269765000Y-149156400D01*
X268966000Y-149755700D02*
X268966000Y-149156400D01*
X254966000Y-149755700D02*
X268966000Y-149755700D01*
X254966000Y-149156400D02*
X254966000Y-149755700D01*
X254165000Y-149156400D02*
X254966000Y-149156400D01*
X254165000Y-136355800D02*
X254165000Y-149156400D01*
X254966000Y-136355800D02*
X254165000Y-136355800D01*
X254966000Y-135756400D02*
X254966000Y-136355800D01*
X288016000Y-135756400D02*
X274016000Y-135756400D01*
X288016000Y-136355800D02*
X288016000Y-135756400D01*
X288814999Y-136355800D02*
X288016000Y-136355800D01*
X288814999Y-149156400D02*
X288814999Y-136355800D01*
X288016000Y-149156400D02*
X288814999Y-149156400D01*
X288016000Y-149755700D02*
X288016000Y-149156400D01*
X274016000Y-149755700D02*
X288016000Y-149755700D01*
X274016000Y-149156400D02*
X274016000Y-149755700D01*
X273215000Y-149156400D02*
X274016000Y-149156400D01*
X273215000Y-136355800D02*
X273215000Y-149156400D01*
X274016000Y-136355800D02*
X273215000Y-136355800D01*
X274016000Y-135756400D02*
X274016000Y-136355800D01*
X307066000Y-135756400D02*
X293066000Y-135756400D01*
X307066000Y-136355800D02*
X307066000Y-135756400D01*
X307865000Y-136355800D02*
X307066000Y-136355800D01*
X307865000Y-149156400D02*
X307865000Y-136355800D01*
X307066000Y-149156400D02*
X307865000Y-149156400D01*
X307066000Y-149755700D02*
X307066000Y-149156400D01*
X293066000Y-149755700D02*
X307066000Y-149755700D01*
X293066000Y-149156400D02*
X293066000Y-149755700D01*
X292264999Y-149156400D02*
X293066000Y-149156400D01*
X292264999Y-136355800D02*
X292264999Y-149156400D01*
X293066000Y-136355800D02*
X292264999Y-136355800D01*
X293066000Y-135756400D02*
X293066000Y-136355800D01*
X326116000Y-135756400D02*
X312116000Y-135756400D01*
X326116000Y-136355800D02*
X326116000Y-135756400D01*
X326915000Y-136355800D02*
X326116000Y-136355800D01*
X326915000Y-149156400D02*
X326915000Y-136355800D01*
X326116000Y-149156400D02*
X326915000Y-149156400D01*
X326116000Y-149755700D02*
X326116000Y-149156400D01*
X312116000Y-149755700D02*
X326116000Y-149755700D01*
X312116000Y-149156400D02*
X312116000Y-149755700D01*
X311315000Y-149156400D02*
X312116000Y-149156400D01*
X311315000Y-136355800D02*
X311315000Y-149156400D01*
X312116000Y-136355800D02*
X311315000Y-136355800D01*
X312116000Y-135756400D02*
X312116000Y-136355800D01*
X345166000Y-135756400D02*
X331166000Y-135756400D01*
X345166000Y-136355800D02*
X345166000Y-135756400D01*
X345965000Y-136355800D02*
X345166000Y-136355800D01*
X345965000Y-149156400D02*
X345965000Y-136355800D01*
X345166000Y-149156400D02*
X345965000Y-149156400D01*
X345166000Y-149755700D02*
X345166000Y-149156400D01*
X331166000Y-149755700D02*
X345166000Y-149755700D01*
X331166000Y-149156400D02*
X331166000Y-149755700D01*
X330365000Y-149156400D02*
X331166000Y-149156400D01*
X330365000Y-136355800D02*
X330365000Y-149156400D01*
X331166000Y-136355800D02*
X330365000Y-136355800D01*
X331166000Y-135756400D02*
X331166000Y-136355800D01*
X311828000Y-111056400D02*
X312629000Y-111056400D01*
X311828000Y-111655700D02*
X311828000Y-111056400D01*
X297829000Y-111655700D02*
X311828000Y-111655700D01*
X297829000Y-111056400D02*
X297829000Y-111655700D01*
X297028000Y-111056400D02*
X297829000Y-111056400D01*
X297028000Y-98255800D02*
X297028000Y-111056400D01*
X297829000Y-98255800D02*
X297028000Y-98255800D01*
X297829000Y-97656400D02*
X297829000Y-98255800D01*
X330878000Y-97656400D02*
X316879000Y-97656400D01*
X330878000Y-98255800D02*
X330878000Y-97656400D01*
X331679000Y-98255800D02*
X330878000Y-98255800D01*
X331679000Y-111056400D02*
X331679000Y-98255800D01*
X330878000Y-111056400D02*
X331679000Y-111056400D01*
X330878000Y-111655700D02*
X330878000Y-111056400D01*
X316879000Y-111655700D02*
X330878000Y-111655700D01*
X316879000Y-111056400D02*
X316879000Y-111655700D01*
X316078000Y-111056400D02*
X316879000Y-111056400D01*
X316078000Y-98255800D02*
X316078000Y-111056400D01*
X316879000Y-98255800D02*
X316078000Y-98255800D01*
X316879000Y-97656400D02*
X316879000Y-98255800D01*
X349928000Y-97656400D02*
X335929000Y-97656400D01*
X349928000Y-98255800D02*
X349928000Y-97656400D01*
X350729000Y-98255800D02*
X349928000Y-98255800D01*
X350729000Y-111056400D02*
X350729000Y-98255800D01*
X349928000Y-111056400D02*
X350729000Y-111056400D01*
X349928000Y-111655700D02*
X349928000Y-111056400D01*
X335929000Y-111655700D02*
X349928000Y-111655700D01*
X335929000Y-111056400D02*
X335929000Y-111655700D01*
X335128000Y-111056400D02*
X335929000Y-111056400D01*
X335128000Y-98255800D02*
X335128000Y-111056400D01*
X335929000Y-98255800D02*
X335128000Y-98255800D01*
X335929000Y-97656400D02*
X335929000Y-98255800D01*
X378503000Y-97656400D02*
X364504000Y-97656400D01*
X378503000Y-98255800D02*
X378503000Y-97656400D01*
X379304000Y-98255800D02*
X378503000Y-98255800D01*
X379304000Y-102356900D02*
X379304000Y-98255800D01*
X380029000Y-102356900D02*
X379304000Y-102356900D01*
X380029000Y-99126800D02*
X380029000Y-102356900D01*
X381752000Y-99126800D02*
X380029000Y-99126800D01*
X381752000Y-98204700D02*
X381752000Y-99126800D01*
X385054000Y-98204700D02*
X381752000Y-98204700D01*
X385054000Y-99126800D02*
X385054000Y-98204700D01*
X386780000Y-99126800D02*
X385054000Y-99126800D01*
X386780000Y-102356900D02*
X386780000Y-99126800D01*
X387605000Y-102356900D02*
X386780000Y-102356900D01*
X387605000Y-105155800D02*
X387605000Y-102356900D01*
X386780000Y-105155800D02*
X387605000Y-105155800D01*
X386780000Y-111425700D02*
X386780000Y-105155800D01*
X385054000Y-111425700D02*
X386780000Y-111425700D01*
X385054000Y-112406800D02*
X385054000Y-111425700D01*
X381752000Y-112406800D02*
X385054000Y-112406800D01*
X381752000Y-111425700D02*
X381752000Y-112406800D01*
X380029000Y-111425700D02*
X381752000Y-111425700D01*
X380029000Y-106956700D02*
X380029000Y-111425700D01*
X379304000Y-106956700D02*
X380029000Y-106956700D01*
X379304000Y-111056400D02*
X379304000Y-106956700D01*
X378503000Y-111056400D02*
X379304000Y-111056400D01*
X378503000Y-111655700D02*
X378503000Y-111056400D01*
X364504000Y-111655700D02*
X378503000Y-111655700D01*
X364504000Y-111056400D02*
X364504000Y-111655700D01*
X363703000Y-111056400D02*
X364504000Y-111056400D01*
X363703000Y-106956700D02*
X363703000Y-111056400D01*
X362978000Y-106956700D02*
X363703000Y-106956700D01*
X362978000Y-111425700D02*
X362978000Y-106956700D01*
X361253000Y-111425700D02*
X362978000Y-111425700D01*
X361253000Y-112406800D02*
X361253000Y-111425700D01*
X357954000Y-112406800D02*
X361253000Y-112406800D01*
X357954000Y-111425700D02*
X357954000Y-112406800D01*
X356229000Y-111425700D02*
X357954000Y-111425700D01*
X356229000Y-105155800D02*
X356229000Y-111425700D01*
X355403000Y-105155800D02*
X356229000Y-105155800D01*
X355403000Y-102356900D02*
X355403000Y-105155800D01*
X356229000Y-102356900D02*
X355403000Y-102356900D01*
X356229000Y-99126800D02*
X356229000Y-102356900D01*
X357954000Y-99126800D02*
X356229000Y-99126800D01*
X357954000Y-98204700D02*
X357954000Y-99126800D01*
X361253000Y-98204700D02*
X357954000Y-98204700D01*
X361253000Y-99126800D02*
X361253000Y-98204700D01*
X362978000Y-99126800D02*
X361253000Y-99126800D01*
X362978000Y-102356900D02*
X362978000Y-99126800D01*
X363703000Y-102356900D02*
X362978000Y-102356900D01*
X363703000Y-98255800D02*
X363703000Y-102356900D01*
X364504000Y-98255800D02*
X363703000Y-98255800D01*
X364504000Y-97656400D02*
X364504000Y-98255800D01*
X45128200Y-116706400D02*
X31128650Y-116706400D01*
X45128200Y-117305800D02*
X45128200Y-116706400D01*
X45928800Y-117305800D02*
X45128200Y-117305800D01*
X45928800Y-130106400D02*
X45928800Y-117305800D01*
X45128200Y-130106400D02*
X45928800Y-130106400D01*
X45128200Y-130705700D02*
X45128200Y-130106400D01*
X31128650Y-130705700D02*
X45128200Y-130705700D01*
X31128650Y-130106400D02*
X31128650Y-130705700D01*
X30328010Y-130106400D02*
X31128650Y-130106400D01*
X30328010Y-117305800D02*
X30328010Y-130106400D01*
X31128650Y-117305800D02*
X30328010Y-117305800D01*
X31128650Y-116706400D02*
X31128650Y-117305800D01*
X64178000Y-116706400D02*
X50178700Y-116706400D01*
X64178000Y-117305800D02*
X64178000Y-116706400D01*
X64978800Y-117305800D02*
X64178000Y-117305800D01*
X64978800Y-130106400D02*
X64978800Y-117305800D01*
X64178000Y-130106400D02*
X64978800Y-130106400D01*
X64178000Y-130705700D02*
X64178000Y-130106400D01*
X50178700Y-130705700D02*
X64178000Y-130705700D01*
X50178700Y-130106400D02*
X50178700Y-130705700D01*
X49378000Y-130106400D02*
X50178700Y-130106400D01*
X49378000Y-117305800D02*
X49378000Y-130106400D01*
X50178700Y-117305800D02*
X49378000Y-117305800D01*
X50178700Y-116706400D02*
X50178700Y-117305800D01*
X83228000Y-116706400D02*
X69228700Y-116706400D01*
X83228000Y-117305800D02*
X83228000Y-116706400D01*
X84028800Y-117305800D02*
X83228000Y-117305800D01*
X84028800Y-130106400D02*
X84028800Y-117305800D01*
X83228000Y-130106400D02*
X84028800Y-130106400D01*
X83228000Y-130705700D02*
X83228000Y-130106400D01*
X69228700Y-130705700D02*
X83228000Y-130705700D01*
X69228700Y-130106400D02*
X69228700Y-130705700D01*
X68427900Y-130106400D02*
X69228700Y-130106400D01*
X68427900Y-117305800D02*
X68427900Y-130106400D01*
X69228700Y-117305800D02*
X68427900Y-117305800D01*
X69228700Y-116706400D02*
X69228700Y-117305800D01*
X126090500Y-116706400D02*
X112091200Y-116706400D01*
X126090500Y-117305800D02*
X126090500Y-116706400D01*
X126889900Y-117305800D02*
X126090500Y-117305800D01*
X126889900Y-130106400D02*
X126889900Y-117305800D01*
X126090500Y-130106400D02*
X126889900Y-130106400D01*
X126090500Y-130705700D02*
X126090500Y-130106400D01*
X112091200Y-130705700D02*
X126090500Y-130705700D01*
X112091200Y-130106400D02*
X112091200Y-130705700D01*
X111290400Y-130106400D02*
X112091200Y-130106400D01*
X111290400Y-117305800D02*
X111290400Y-130106400D01*
X112091200Y-117305800D02*
X111290400Y-117305800D01*
X112091200Y-116706400D02*
X112091200Y-117305800D01*
X149903000Y-116706400D02*
X135904000Y-116706400D01*
X149903000Y-117305800D02*
X149903000Y-116706400D01*
X150704000Y-117305800D02*
X149903000Y-117305800D01*
X150704000Y-130106400D02*
X150704000Y-117305800D01*
X149903000Y-130106400D02*
X150704000Y-130106400D01*
X149903000Y-130705700D02*
X149903000Y-130106400D01*
X135904000Y-130705700D02*
X149903000Y-130705700D01*
X135904000Y-130106400D02*
X135904000Y-130705700D01*
X135103000Y-130106400D02*
X135904000Y-130106400D01*
X135103000Y-117305800D02*
X135103000Y-130106400D01*
X135904000Y-117305800D02*
X135103000Y-117305800D01*
X135904000Y-116706400D02*
X135904000Y-117305800D01*
X168953000Y-116706400D02*
X154954000Y-116706400D01*
X168953000Y-117305800D02*
X168953000Y-116706400D01*
X169754000Y-117305800D02*
X168953000Y-117305800D01*
X45128200Y-154806500D02*
X31128650Y-154806500D01*
X45128200Y-155405800D02*
X45128200Y-154806500D01*
X45928800Y-155405800D02*
X45128200Y-155405800D01*
X45928800Y-168206400D02*
X45928800Y-155405800D01*
X45128200Y-168206400D02*
X45928800Y-168206400D01*
X45128200Y-168805900D02*
X45128200Y-168206400D01*
X31128650Y-168805900D02*
X45128200Y-168805900D01*
X31128650Y-168206400D02*
X31128650Y-168805900D01*
X30328010Y-168206400D02*
X31128650Y-168206400D01*
X30328010Y-155405800D02*
X30328010Y-168206400D01*
X31128650Y-155405800D02*
X30328010Y-155405800D01*
X31128650Y-154806500D02*
X31128650Y-155405800D01*
X64178000Y-154806500D02*
X50178700Y-154806500D01*
X64178000Y-155405800D02*
X64178000Y-154806500D01*
X64978800Y-155405800D02*
X64178000Y-155405800D01*
X64978800Y-168206400D02*
X64978800Y-155405800D01*
X64178000Y-168206400D02*
X64978800Y-168206400D01*
X64178000Y-168805900D02*
X64178000Y-168206400D01*
X50178700Y-168805900D02*
X64178000Y-168805900D01*
X50178700Y-168206400D02*
X50178700Y-168805900D01*
X49378000Y-168206400D02*
X50178700Y-168206400D01*
X49378000Y-155405800D02*
X49378000Y-168206400D01*
X50178700Y-155405800D02*
X49378000Y-155405800D01*
X50178700Y-154806500D02*
X50178700Y-155405800D01*
X83228000Y-154806500D02*
X69228700Y-154806500D01*
X83228000Y-155405800D02*
X83228000Y-154806500D01*
X84028800Y-155405800D02*
X83228000Y-155405800D01*
X84028800Y-168206400D02*
X84028800Y-155405800D01*
X83228000Y-168206400D02*
X84028800Y-168206400D01*
X83228000Y-168805900D02*
X83228000Y-168206400D01*
X69228700Y-168805900D02*
X83228000Y-168805900D01*
X69228700Y-168206400D02*
X69228700Y-168805900D01*
X68427900Y-168206400D02*
X69228700Y-168206400D01*
X68427900Y-155405800D02*
X68427900Y-168206400D01*
X69228700Y-155405800D02*
X68427900Y-155405800D01*
X69228700Y-154806500D02*
X69228700Y-155405800D01*
X164191000Y-154806500D02*
X150191000Y-154806500D01*
X164191000Y-155405800D02*
X164191000Y-154806500D01*
X164990000Y-155405800D02*
X164191000Y-155405800D01*
X164990000Y-168206400D02*
X164990000Y-155405800D01*
X164191000Y-168206400D02*
X164990000Y-168206400D01*
X164191000Y-168805900D02*
X164191000Y-168206400D01*
X150191000Y-168805900D02*
X164191000Y-168805900D01*
X150191000Y-168206400D02*
X150191000Y-168805900D01*
X149390000Y-168206400D02*
X150191000Y-168206400D01*
X149390000Y-155405800D02*
X149390000Y-168206400D01*
X150191000Y-155405800D02*
X149390000Y-155405800D01*
X150191000Y-154806500D02*
X150191000Y-155405800D01*
X183241000Y-154806500D02*
X169241000Y-154806500D01*
X183241000Y-155405800D02*
X183241000Y-154806500D01*
X184040000Y-155405800D02*
X183241000Y-155405800D01*
X184040000Y-168206400D02*
X184040000Y-155405800D01*
X183241000Y-168206400D02*
X184040000Y-168206400D01*
X183241000Y-168805900D02*
X183241000Y-168206400D01*
X169241000Y-168805900D02*
X183241000Y-168805900D01*
X169241000Y-168206400D02*
X169241000Y-168805900D01*
X168440000Y-168206400D02*
X169241000Y-168206400D01*
X168440000Y-155405800D02*
X168440000Y-168206400D01*
X169241000Y-155405800D02*
X168440000Y-155405800D01*
X169241000Y-154806500D02*
X169241000Y-155405800D01*
X202291000Y-154806500D02*
X188291000Y-154806500D01*
X202291000Y-155405800D02*
X202291000Y-154806500D01*
X203090000Y-155405800D02*
X202291000Y-155405800D01*
X203090000Y-168206400D02*
X203090000Y-155405800D01*
X202291000Y-168206400D02*
X203090000Y-168206400D01*
X202291000Y-168805900D02*
X202291000Y-168206400D01*
X188291000Y-168805900D02*
X202291000Y-168805900D01*
X188291000Y-168206400D02*
X188291000Y-168805900D01*
X187490000Y-168206400D02*
X188291000Y-168206400D01*
X187490000Y-155405800D02*
X187490000Y-168206400D01*
X188291000Y-155405800D02*
X187490000Y-155405800D01*
X188291000Y-154806500D02*
X188291000Y-155405800D01*
X221341000Y-154806500D02*
X207341000Y-154806500D01*
X221341000Y-155405800D02*
X221341000Y-154806500D01*
X222140000Y-155405800D02*
X221341000Y-155405800D01*
X222140000Y-168206400D02*
X222140000Y-155405800D01*
X221341000Y-168206400D02*
X222140000Y-168206400D01*
X221341000Y-168805900D02*
X221341000Y-168206400D01*
X207341000Y-168805900D02*
X221341000Y-168805900D01*
X207341000Y-168206400D02*
X207341000Y-168805900D01*
X206540000Y-168206400D02*
X207341000Y-168206400D01*
X206540000Y-155405800D02*
X206540000Y-168206400D01*
X207341000Y-155405800D02*
X206540000Y-155405800D01*
X207341000Y-154806500D02*
X207341000Y-155405800D01*
X240391000Y-154806500D02*
X226391000Y-154806500D01*
X240391000Y-155405800D02*
X240391000Y-154806500D01*
X241190000Y-155405800D02*
X240391000Y-155405800D01*
X241190000Y-168206400D02*
X241190000Y-155405800D01*
X240391000Y-168206400D02*
X241190000Y-168206400D01*
X240391000Y-168805900D02*
X240391000Y-168206400D01*
X226391000Y-168805900D02*
X240391000Y-168805900D01*
X226391000Y-168206400D02*
X226391000Y-168805900D01*
X225590000Y-168206400D02*
X226391000Y-168206400D01*
X225590000Y-155405800D02*
X225590000Y-168206400D01*
X226391000Y-155405800D02*
X225590000Y-155405800D01*
X226391000Y-154806500D02*
X226391000Y-155405800D01*
X259441000Y-154806500D02*
X245441000Y-154806500D01*
X259441000Y-155405800D02*
X259441000Y-154806500D01*
X260240000Y-155405800D02*
X259441000Y-155405800D01*
X260240000Y-168206400D02*
X260240000Y-155405800D01*
X259441000Y-168206400D02*
X260240000Y-168206400D01*
X259441000Y-168805900D02*
X259441000Y-168206400D01*
X245441000Y-168805900D02*
X259441000Y-168805900D01*
X245441000Y-168206400D02*
X245441000Y-168805900D01*
X244640000Y-168206400D02*
X245441000Y-168206400D01*
X244640000Y-155405800D02*
X244640000Y-168206400D01*
X245441000Y-155405800D02*
X244640000Y-155405800D01*
X245441000Y-154806500D02*
X245441000Y-155405800D01*
X278491000Y-154806500D02*
X264491000Y-154806500D01*
X278491000Y-155405800D02*
X278491000Y-154806500D01*
X279290000Y-155405800D02*
X278491000Y-155405800D01*
X279290000Y-168206400D02*
X279290000Y-155405800D01*
X278491000Y-168206400D02*
X279290000Y-168206400D01*
X228771000Y-174455800D02*
X227972000Y-174455800D01*
X83228000Y-97656400D02*
X69228700Y-97656400D01*
X83228000Y-98255800D02*
X83228000Y-97656400D01*
X84028800Y-98255800D02*
X83228000Y-98255800D01*
X84028800Y-111056400D02*
X84028800Y-98255800D01*
X83228000Y-111056400D02*
X84028800Y-111056400D01*
X83228000Y-111655700D02*
X83228000Y-111056400D01*
X69228700Y-111655700D02*
X83228000Y-111655700D01*
X69228700Y-111056400D02*
X69228700Y-111655700D01*
X68427900Y-111056400D02*
X69228700Y-111056400D01*
X68427900Y-98255800D02*
X68427900Y-111056400D01*
X69228700Y-98255800D02*
X68427900Y-98255800D01*
X69228700Y-97656400D02*
X69228700Y-98255800D01*
X102278000Y-97656400D02*
X88278700Y-97656400D01*
X102278000Y-98255800D02*
X102278000Y-97656400D01*
X103078800Y-98255800D02*
X102278000Y-98255800D01*
X103078800Y-111056400D02*
X103078800Y-98255800D01*
X102278000Y-111056400D02*
X103078800Y-111056400D01*
X102278000Y-111655700D02*
X102278000Y-111056400D01*
X88278700Y-111655700D02*
X102278000Y-111655700D01*
X88278700Y-111056400D02*
X88278700Y-111655700D01*
X87477900Y-111056400D02*
X88278700Y-111056400D01*
X87477900Y-98255800D02*
X87477900Y-111056400D01*
X88278700Y-98255800D02*
X87477900Y-98255800D01*
X88278700Y-97656400D02*
X88278700Y-98255800D01*
X121328000Y-97656400D02*
X107328700Y-97656400D01*
X121328000Y-98255800D02*
X121328000Y-97656400D01*
X122127400Y-98255800D02*
X121328000Y-98255800D01*
X122127400Y-111056400D02*
X122127400Y-98255800D01*
X121328000Y-111056400D02*
X122127400Y-111056400D01*
X121328000Y-111655700D02*
X121328000Y-111056400D01*
X107328700Y-111655700D02*
X121328000Y-111655700D01*
X107328700Y-111056400D02*
X107328700Y-111655700D01*
X106527900Y-111056400D02*
X107328700Y-111056400D01*
X106527900Y-98255800D02*
X106527900Y-111056400D01*
X107328700Y-98255800D02*
X106527900Y-98255800D01*
X107328700Y-97656400D02*
X107328700Y-98255800D01*
X140378000Y-97656400D02*
X126377300Y-97656400D01*
X140378000Y-98255800D02*
X140378000Y-97656400D01*
X141177000Y-98255800D02*
X140378000Y-98255800D01*
X141177000Y-111056400D02*
X141177000Y-98255800D01*
X140378000Y-111056400D02*
X141177000Y-111056400D01*
X140378000Y-111655700D02*
X140378000Y-111056400D01*
X126377300Y-111655700D02*
X140378000Y-111655700D01*
X126377300Y-111056400D02*
X126377300Y-111655700D01*
X125577900Y-111056400D02*
X126377300Y-111056400D01*
X125577900Y-98255800D02*
X125577900Y-111056400D01*
X126377300Y-98255800D02*
X125577900Y-98255800D01*
X126377300Y-97656400D02*
X126377300Y-98255800D01*
X159428000Y-97656400D02*
X145427000Y-97656400D01*
X159428000Y-98255800D02*
X159428000Y-97656400D01*
X160229000Y-98255800D02*
X159428000Y-98255800D01*
X160229000Y-111056400D02*
X160229000Y-98255800D01*
X159428000Y-111056400D02*
X160229000Y-111056400D01*
X159428000Y-111655700D02*
X159428000Y-111056400D01*
X145427000Y-111655700D02*
X159428000Y-111655700D01*
X145427000Y-111056400D02*
X145427000Y-111655700D01*
X144628000Y-111056400D02*
X145427000Y-111056400D01*
X144628000Y-98255800D02*
X144628000Y-111056400D01*
X145427000Y-98255800D02*
X144628000Y-98255800D01*
X145427000Y-97656400D02*
X145427000Y-98255800D01*
X178478000Y-97656400D02*
X164479000Y-97656400D01*
X178478000Y-98255800D02*
X178478000Y-97656400D01*
X179279000Y-98255800D02*
X178478000Y-98255800D01*
X179279000Y-111056400D02*
X179279000Y-98255800D01*
X178478000Y-111056400D02*
X179279000Y-111056400D01*
X178478000Y-111655700D02*
X178478000Y-111056400D01*
X164479000Y-111655700D02*
X178478000Y-111655700D01*
X164479000Y-111056400D02*
X164479000Y-111655700D01*
X163678000Y-111056400D02*
X164479000Y-111056400D01*
X163678000Y-98255800D02*
X163678000Y-111056400D01*
X164479000Y-98255800D02*
X163678000Y-98255800D01*
X164479000Y-97656400D02*
X164479000Y-98255800D01*
X197528000Y-97656400D02*
X183529000Y-97656400D01*
X197528000Y-98255800D02*
X197528000Y-97656400D01*
X198329000Y-98255800D02*
X197528000Y-98255800D01*
X198329000Y-111056400D02*
X198329000Y-98255800D01*
X197528000Y-111056400D02*
X198329000Y-111056400D01*
X197528000Y-111655700D02*
X197528000Y-111056400D01*
X183529000Y-111655700D02*
X197528000Y-111655700D01*
X183529000Y-111056400D02*
X183529000Y-111655700D01*
X182728000Y-111056400D02*
X183529000Y-111056400D01*
X182728000Y-98255800D02*
X182728000Y-111056400D01*
X183529000Y-98255800D02*
X182728000Y-98255800D01*
X183529000Y-97656400D02*
X183529000Y-98255800D01*
X216578000Y-97656400D02*
X202579000Y-97656400D01*
X216578000Y-98255800D02*
X216578000Y-97656400D01*
X217379000Y-98255800D02*
X216578000Y-98255800D01*
X217379000Y-111056400D02*
X217379000Y-98255800D01*
X216578000Y-111056400D02*
X217379000Y-111056400D01*
X216578000Y-111655700D02*
X216578000Y-111056400D01*
X202579000Y-111655700D02*
X216578000Y-111655700D01*
X202579000Y-111056400D02*
X202579000Y-111655700D01*
X201778000Y-111056400D02*
X202579000Y-111056400D01*
X201778000Y-98255800D02*
X201778000Y-111056400D01*
X202579000Y-98255800D02*
X201778000Y-98255800D01*
X202579000Y-97656400D02*
X202579000Y-98255800D01*
X235628000Y-97656400D02*
X221629000Y-97656400D01*
X235628000Y-98255800D02*
X235628000Y-97656400D01*
X236429000Y-98255800D02*
X235628000Y-98255800D01*
X236429000Y-111056400D02*
X236429000Y-98255800D01*
X235628000Y-111056400D02*
X236429000Y-111056400D01*
X235628000Y-111655700D02*
X235628000Y-111056400D01*
X221629000Y-111655700D02*
X235628000Y-111655700D01*
X221629000Y-111056400D02*
X221629000Y-111655700D01*
X220828000Y-111056400D02*
X221629000Y-111056400D01*
X220828000Y-98255800D02*
X220828000Y-111056400D01*
X221629000Y-98255800D02*
X220828000Y-98255800D01*
X221629000Y-97656400D02*
X221629000Y-98255800D01*
X254678000Y-97656400D02*
X240679000Y-97656400D01*
X254678000Y-98255800D02*
X254678000Y-97656400D01*
X255479000Y-98255800D02*
X254678000Y-98255800D01*
X255479000Y-111056400D02*
X255479000Y-98255800D01*
X254678000Y-111056400D02*
X255479000Y-111056400D01*
X254678000Y-111655700D02*
X254678000Y-111056400D01*
X240679000Y-111655700D02*
X254678000Y-111655700D01*
X240679000Y-111056400D02*
X240679000Y-111655700D01*
X239878000Y-111056400D02*
X240679000Y-111056400D01*
X239878000Y-98255800D02*
X239878000Y-111056400D01*
X240679000Y-98255800D02*
X239878000Y-98255800D01*
X240679000Y-97656400D02*
X240679000Y-98255800D01*
X273728000Y-97656400D02*
X259729000Y-97656400D01*
X273728000Y-98255800D02*
X273728000Y-97656400D01*
X274529000Y-98255800D02*
X273728000Y-98255800D01*
X274529000Y-111056400D02*
X274529000Y-98255800D01*
X273728000Y-111056400D02*
X274529000Y-111056400D01*
X273728000Y-111655700D02*
X273728000Y-111056400D01*
X259729000Y-111655700D02*
X273728000Y-111655700D01*
X259729000Y-111056400D02*
X259729000Y-111655700D01*
X258928000Y-111056400D02*
X259729000Y-111056400D01*
X258928000Y-98255800D02*
X258928000Y-111056400D01*
X259729000Y-98255800D02*
X258928000Y-98255800D01*
X259729000Y-97656400D02*
X259729000Y-98255800D01*
X292778000Y-97656400D02*
X278779000Y-97656400D01*
X292778000Y-98255800D02*
X292778000Y-97656400D01*
X293579000Y-98255800D02*
X292778000Y-98255800D01*
X293579000Y-111056400D02*
X293579000Y-98255800D01*
X292778000Y-111056400D02*
X293579000Y-111056400D01*
X292778000Y-111655700D02*
X292778000Y-111056400D01*
X278779000Y-111655700D02*
X292778000Y-111655700D01*
X278779000Y-111056400D02*
X278779000Y-111655700D01*
X277978000Y-111056400D02*
X278779000Y-111056400D01*
X277978000Y-98255800D02*
X277978000Y-111056400D01*
X278779000Y-98255800D02*
X277978000Y-98255800D01*
X278779000Y-97656400D02*
X278779000Y-98255800D01*
X311828000Y-97656400D02*
X297829000Y-97656400D01*
X311828000Y-98255800D02*
X311828000Y-97656400D01*
X312629000Y-98255800D02*
X311828000Y-98255800D01*
X312629000Y-111056400D02*
X312629000Y-98255800D01*
X57903900Y-188606890D02*
X61203000Y-188606890D01*
X57903900Y-187625730D02*
X57903900Y-188606890D01*
X56178600Y-187625730D02*
X57903900Y-187625730D01*
X56178600Y-183155390D02*
X56178600Y-187625730D01*
X55453800Y-183155390D02*
X56178600Y-183155390D01*
X55453800Y-187256420D02*
X55453800Y-183155390D01*
X54653100Y-187256420D02*
X55453800Y-187256420D01*
X54653100Y-187855860D02*
X54653100Y-187256420D01*
X40653700Y-187855860D02*
X54653100Y-187855860D01*
X40653700Y-187256420D02*
X40653700Y-187855860D01*
X39853000Y-187256420D02*
X40653700Y-187256420D01*
X39853000Y-183155390D02*
X39853000Y-187256420D01*
X39128200Y-183155390D02*
X39853000Y-183155390D01*
X39128200Y-187625730D02*
X39128200Y-183155390D01*
X37402850Y-187625730D02*
X39128200Y-187625730D01*
X37402850Y-188606890D02*
X37402850Y-187625730D01*
X34103840Y-188606890D02*
X37402850Y-188606890D01*
X34103840Y-187625730D02*
X34103840Y-188606890D01*
X32378550Y-187625730D02*
X34103840Y-187625730D01*
X32378550Y-181355660D02*
X32378550Y-187625730D01*
X31553090Y-181355660D02*
X32378550Y-181355660D01*
X31553090Y-178556900D02*
X31553090Y-181355660D01*
X32378550Y-178556900D02*
X31553090Y-178556900D01*
X32378550Y-175326700D02*
X32378550Y-178556900D01*
X34103840Y-175326700D02*
X32378550Y-175326700D01*
X34103840Y-174404800D02*
X34103840Y-175326700D01*
X37402850Y-174404800D02*
X34103840Y-174404800D01*
X37402850Y-175326700D02*
X37402850Y-174404800D01*
X39128200Y-175326700D02*
X37402850Y-175326700D01*
X39128200Y-178556900D02*
X39128200Y-175326700D01*
X39853000Y-178556900D02*
X39128200Y-178556900D01*
X39853000Y-174455800D02*
X39853000Y-178556900D01*
X40653700Y-174455800D02*
X39853000Y-174455800D01*
X40653700Y-173856400D02*
X40653700Y-174455800D01*
X242772000Y-173856400D02*
X228771000Y-173856400D01*
X242772000Y-174455800D02*
X242772000Y-173856400D01*
X243571000Y-174455800D02*
X242772000Y-174455800D01*
X243571000Y-178556900D02*
X243571000Y-174455800D01*
X282396000Y-178556900D02*
X243571000Y-178556900D01*
X282396000Y-175326700D02*
X282396000Y-178556900D01*
X284120000Y-175326700D02*
X282396000Y-175326700D01*
X284120000Y-174404800D02*
X284120000Y-175326700D01*
X287422000Y-174404800D02*
X284120000Y-174404800D01*
X287422000Y-175326700D02*
X287422000Y-174404800D01*
X289146999Y-175326700D02*
X287422000Y-175326700D01*
X289146999Y-178556900D02*
X289146999Y-175326700D01*
X289971000Y-178556900D02*
X289146999Y-178556900D01*
X289971000Y-181355660D02*
X289971000Y-178556900D01*
X289146999Y-181355660D02*
X289971000Y-181355660D01*
X289146999Y-187625730D02*
X289146999Y-181355660D01*
X287422000Y-187625730D02*
X289146999Y-187625730D01*
X287422000Y-188606890D02*
X287422000Y-187625730D01*
X284120000Y-188606890D02*
X287422000Y-188606890D01*
X284120000Y-187625730D02*
X284120000Y-188606890D01*
X282396000Y-187625730D02*
X284120000Y-187625730D01*
X282396000Y-183155390D02*
X282396000Y-187625730D01*
X243571000Y-183155390D02*
X282396000Y-183155390D01*
X243571000Y-187256420D02*
X243571000Y-183155390D01*
X242772000Y-187256420D02*
X243571000Y-187256420D01*
X242772000Y-187855860D02*
X242772000Y-187256420D01*
X228771000Y-187855860D02*
X242772000Y-187855860D01*
X228771000Y-187256420D02*
X228771000Y-187855860D01*
X227972000Y-187256420D02*
X228771000Y-187256420D01*
X227972000Y-183155390D02*
X227972000Y-187256420D01*
X169754000Y-130106400D02*
X169754000Y-117305800D01*
X168953000Y-130106400D02*
X169754000Y-130106400D01*
X168953000Y-130705700D02*
X168953000Y-130106400D01*
X154954000Y-130705700D02*
X168953000Y-130705700D01*
X154954000Y-130106400D02*
X154954000Y-130705700D01*
X154153000Y-130106400D02*
X154954000Y-130106400D01*
X154153000Y-117305800D02*
X154153000Y-130106400D01*
X154954000Y-117305800D02*
X154153000Y-117305800D01*
X154954000Y-116706400D02*
X154954000Y-117305800D01*
X188003000Y-116706400D02*
X174004000Y-116706400D01*
X188003000Y-117305800D02*
X188003000Y-116706400D01*
X188804000Y-117305800D02*
X188003000Y-117305800D01*
X188804000Y-130106400D02*
X188804000Y-117305800D01*
X188003000Y-130106400D02*
X188804000Y-130106400D01*
X188003000Y-130705700D02*
X188003000Y-130106400D01*
X174004000Y-130705700D02*
X188003000Y-130705700D01*
X174004000Y-130106400D02*
X174004000Y-130705700D01*
X173203000Y-130106400D02*
X174004000Y-130106400D01*
X173203000Y-117305800D02*
X173203000Y-130106400D01*
X174004000Y-117305800D02*
X173203000Y-117305800D01*
X174004000Y-116706400D02*
X174004000Y-117305800D01*
X207053000Y-116706400D02*
X193054000Y-116706400D01*
X207053000Y-117305800D02*
X207053000Y-116706400D01*
X207854000Y-117305800D02*
X207053000Y-117305800D01*
X207854000Y-130106400D02*
X207854000Y-117305800D01*
X207053000Y-130106400D02*
X207854000Y-130106400D01*
X207053000Y-130705700D02*
X207053000Y-130106400D01*
X193054000Y-130705700D02*
X207053000Y-130705700D01*
X193054000Y-130106400D02*
X193054000Y-130705700D01*
X192253000Y-130106400D02*
X193054000Y-130106400D01*
X192253000Y-117305800D02*
X192253000Y-130106400D01*
X193054000Y-117305800D02*
X192253000Y-117305800D01*
X193054000Y-116706400D02*
X193054000Y-117305800D01*
X226103000Y-116706400D02*
X212104000Y-116706400D01*
X226103000Y-117305800D02*
X226103000Y-116706400D01*
X226904000Y-117305800D02*
X226103000Y-117305800D01*
X226904000Y-130106400D02*
X226904000Y-117305800D01*
X226103000Y-130106400D02*
X226904000Y-130106400D01*
X226103000Y-130705700D02*
X226103000Y-130106400D01*
X212104000Y-130705700D02*
X226103000Y-130705700D01*
X212104000Y-130106400D02*
X212104000Y-130705700D01*
X211303000Y-130106400D02*
X212104000Y-130106400D01*
X211303000Y-117305800D02*
X211303000Y-130106400D01*
X212104000Y-117305800D02*
X211303000Y-117305800D01*
X212104000Y-116706400D02*
X212104000Y-117305800D01*
X245153000Y-116706400D02*
X231154000Y-116706400D01*
X245153000Y-117305800D02*
X245153000Y-116706400D01*
X245954000Y-117305800D02*
X245153000Y-117305800D01*
X245954000Y-130106400D02*
X245954000Y-117305800D01*
X245153000Y-130106400D02*
X245954000Y-130106400D01*
X245153000Y-130705700D02*
X245153000Y-130106400D01*
X231154000Y-130705700D02*
X245153000Y-130705700D01*
X231154000Y-130106400D02*
X231154000Y-130705700D01*
X230353000Y-130106400D02*
X231154000Y-130106400D01*
X230353000Y-117305800D02*
X230353000Y-130106400D01*
X231154000Y-117305800D02*
X230353000Y-117305800D01*
X231154000Y-116706400D02*
X231154000Y-117305800D01*
X264203000Y-116706400D02*
X250204000Y-116706400D01*
X264203000Y-117305800D02*
X264203000Y-116706400D01*
X265004000Y-117305800D02*
X264203000Y-117305800D01*
X265004000Y-130106400D02*
X265004000Y-117305800D01*
X264203000Y-130106400D02*
X265004000Y-130106400D01*
X264203000Y-130705700D02*
X264203000Y-130106400D01*
X250204000Y-130705700D02*
X264203000Y-130705700D01*
X250204000Y-130106400D02*
X250204000Y-130705700D01*
X249403000Y-130106400D02*
X250204000Y-130106400D01*
X249403000Y-117305800D02*
X249403000Y-130106400D01*
X250204000Y-117305800D02*
X249403000Y-117305800D01*
X250204000Y-116706400D02*
X250204000Y-117305800D01*
X283253000Y-116706400D02*
X269254000Y-116706400D01*
X283253000Y-117305800D02*
X283253000Y-116706400D01*
X284054000Y-117305800D02*
X283253000Y-117305800D01*
X284054000Y-130106400D02*
X284054000Y-117305800D01*
X283253000Y-130106400D02*
X284054000Y-130106400D01*
X283253000Y-130705700D02*
X283253000Y-130106400D01*
X269254000Y-130705700D02*
X283253000Y-130705700D01*
X269254000Y-130106400D02*
X269254000Y-130705700D01*
X268453000Y-130106400D02*
X269254000Y-130106400D01*
X268453000Y-117305800D02*
X268453000Y-130106400D01*
X269254000Y-117305800D02*
X268453000Y-117305800D01*
X269254000Y-116706400D02*
X269254000Y-117305800D01*
X302303000Y-116706400D02*
X288304000Y-116706400D01*
X302303000Y-117305800D02*
X302303000Y-116706400D01*
X303104000Y-117305800D02*
X302303000Y-117305800D01*
X303104000Y-130106400D02*
X303104000Y-117305800D01*
X302303000Y-130106400D02*
X303104000Y-130106400D01*
X302303000Y-130705700D02*
X302303000Y-130106400D01*
X288304000Y-130705700D02*
X302303000Y-130705700D01*
X288304000Y-130106400D02*
X288304000Y-130705700D01*
X287503000Y-130106400D02*
X288304000Y-130106400D01*
X287503000Y-117305800D02*
X287503000Y-130106400D01*
X288304000Y-117305800D02*
X287503000Y-117305800D01*
X288304000Y-116706400D02*
X288304000Y-117305800D01*
X321353000Y-116706400D02*
X307354000Y-116706400D01*
X321353000Y-117305800D02*
X321353000Y-116706400D01*
X322154000Y-117305800D02*
X321353000Y-117305800D01*
X322154000Y-130106400D02*
X322154000Y-117305800D01*
X321353000Y-130106400D02*
X322154000Y-130106400D01*
X321353000Y-130705700D02*
X321353000Y-130106400D01*
X307354000Y-130705700D02*
X321353000Y-130705700D01*
X307354000Y-130106400D02*
X307354000Y-130705700D01*
X306553000Y-130106400D02*
X307354000Y-130106400D01*
X306553000Y-117305800D02*
X306553000Y-130106400D01*
X307354000Y-117305800D02*
X306553000Y-117305800D01*
X307354000Y-116706400D02*
X307354000Y-117305800D01*
X340403000Y-116706400D02*
X326404000Y-116706400D01*
X340403000Y-117305800D02*
X340403000Y-116706400D01*
X341204000Y-117305800D02*
X340403000Y-117305800D01*
X341204000Y-130106400D02*
X341204000Y-117305800D01*
X340403000Y-130106400D02*
X341204000Y-130106400D01*
X340403000Y-130705700D02*
X340403000Y-130106400D01*
X326404000Y-130705700D02*
X340403000Y-130705700D01*
X326404000Y-130106400D02*
X326404000Y-130705700D01*
X325603000Y-130106400D02*
X326404000Y-130106400D01*
X325603000Y-117305800D02*
X325603000Y-130106400D01*
X326404000Y-117305800D02*
X325603000Y-117305800D01*
X326404000Y-116706400D02*
X326404000Y-117305800D01*
X359453000Y-116706400D02*
X345454000Y-116706400D01*
X359453000Y-117305800D02*
X359453000Y-116706400D01*
X360254000Y-117305800D02*
X359453000Y-117305800D01*
X360254000Y-130106400D02*
X360254000Y-117305800D01*
X359453000Y-130106400D02*
X360254000Y-130106400D01*
X359453000Y-130705700D02*
X359453000Y-130106400D01*
X345454000Y-130705700D02*
X359453000Y-130705700D01*
X345454000Y-130106400D02*
X345454000Y-130705700D01*
X344653000Y-130106400D02*
X345454000Y-130106400D01*
X344653000Y-117305800D02*
X344653000Y-130106400D01*
X345454000Y-117305800D02*
X344653000Y-117305800D01*
X345454000Y-116706400D02*
X345454000Y-117305800D01*
X97579000Y-117130800D02*
X94778999Y-117130800D01*
X97579000Y-117956300D02*
X97579000Y-117130800D01*
X100809000Y-117956300D02*
X97579000Y-117956300D01*
X45128200Y-97656400D02*
X31128650Y-97656400D01*
X45128200Y-98255800D02*
X45128200Y-97656400D01*
X45928800Y-98255800D02*
X45128200Y-98255800D01*
X45928800Y-111056400D02*
X45928800Y-98255800D01*
X45128200Y-111056400D02*
X45928800Y-111056400D01*
X45128200Y-111655700D02*
X45128200Y-111056400D01*
X31128650Y-111655700D02*
X45128200Y-111655700D01*
X31128650Y-111056400D02*
X31128650Y-111655700D01*
X30328010Y-111056400D02*
X31128650Y-111056400D01*
X30328010Y-98255800D02*
X30328010Y-111056400D01*
X31128650Y-98255800D02*
X30328010Y-98255800D01*
X31128650Y-97656400D02*
X31128650Y-98255800D01*
X64178000Y-97656400D02*
X50178700Y-97656400D01*
X64178000Y-98255800D02*
X64178000Y-97656400D01*
X64978800Y-98255800D02*
X64178000Y-98255800D01*
X64978800Y-111056400D02*
X64978800Y-98255800D01*
X64178000Y-111056400D02*
X64978800Y-111056400D01*
X64178000Y-111655700D02*
X64178000Y-111056400D01*
X50178700Y-111655700D02*
X64178000Y-111655700D01*
X50178700Y-111056400D02*
X50178700Y-111655700D01*
X49378000Y-111056400D02*
X50178700Y-111056400D01*
X49378000Y-98255800D02*
X49378000Y-111056400D01*
X50178700Y-98255800D02*
X49378000Y-98255800D01*
X50178700Y-97656400D02*
X50178700Y-98255800D01*
X182396000Y-178556900D02*
X181572000Y-178556900D01*
X182396000Y-175326700D02*
X182396000Y-178556900D01*
X184121000Y-175326700D02*
X182396000Y-175326700D01*
X184121000Y-174404800D02*
X184121000Y-175326700D01*
X187422000Y-174404800D02*
X184121000Y-174404800D01*
X187422000Y-175326700D02*
X187422000Y-174404800D01*
X189147000Y-175326700D02*
X187422000Y-175326700D01*
X189147000Y-178556900D02*
X189147000Y-175326700D01*
X227972000Y-178556900D02*
X189147000Y-178556900D01*
X189147000Y-183155390D02*
X227972000Y-183155390D01*
X189147000Y-187625730D02*
X189147000Y-183155390D01*
X187422000Y-187625730D02*
X189147000Y-187625730D01*
X187422000Y-188606890D02*
X187422000Y-187625730D01*
X184121000Y-188606890D02*
X187422000Y-188606890D01*
X184121000Y-187625730D02*
X184121000Y-188606890D01*
X182396000Y-187625730D02*
X184121000Y-187625730D01*
X182396000Y-181355660D02*
X182396000Y-187625730D01*
X181572000Y-181355660D02*
X182396000Y-181355660D01*
X181572000Y-178556900D02*
X181572000Y-181355660D01*
X228771000Y-173856400D02*
X228771000Y-174455800D01*
X97579000Y-155230800D02*
X94778999Y-155230800D01*
X97579000Y-156056200D02*
X97579000Y-155230800D01*
X100809000Y-156056200D02*
X97579000Y-156056200D01*
X100809000Y-157781600D02*
X100809000Y-156056200D01*
X101728400Y-157781600D02*
X100809000Y-157781600D01*
X101728400Y-161080600D02*
X101728400Y-157781600D01*
X100809000Y-161080600D02*
X101728400Y-161080600D01*
X100809000Y-162805900D02*
X100809000Y-161080600D01*
X97579000Y-162805900D02*
X100809000Y-162805900D01*
X97579000Y-163530700D02*
X97579000Y-162805900D01*
X101678600Y-163530700D02*
X97579000Y-163530700D01*
X101678600Y-164331400D02*
X101678600Y-163530700D01*
X102278000Y-164331400D02*
X101678600Y-164331400D01*
X102278000Y-178330900D02*
X102278000Y-164331400D01*
X101678600Y-178330900D02*
X102278000Y-178330900D01*
X101678600Y-179131500D02*
X101678600Y-178330900D01*
X97579000Y-179131500D02*
X101678600Y-179131500D01*
X97579000Y-179856400D02*
X97579000Y-179131500D01*
X100809000Y-179856400D02*
X97579000Y-179856400D01*
X100809000Y-181581650D02*
X100809000Y-179856400D01*
X101728400Y-181581650D02*
X100809000Y-181581650D01*
X101728400Y-184880690D02*
X101728400Y-181581650D01*
X100809000Y-184880690D02*
X101728400Y-184880690D01*
X100809000Y-186605980D02*
X100809000Y-184880690D01*
X97579000Y-186605980D02*
X100809000Y-186605980D01*
X97579000Y-187431430D02*
X97579000Y-186605980D01*
X94778999Y-187431430D02*
X97579000Y-187431430D01*
X94778999Y-186605980D02*
X94778999Y-187431430D01*
X88508700Y-186605980D02*
X94778999Y-186605980D01*
X88508700Y-184880690D02*
X88508700Y-186605980D01*
X87529100Y-184880690D02*
X88508700Y-184880690D01*
X87529100Y-181581650D02*
X87529100Y-184880690D01*
X88508700Y-181581650D02*
X87529100Y-181581650D01*
X88508700Y-179856400D02*
X88508700Y-181581650D01*
X92979100Y-179856400D02*
X88508700Y-179856400D01*
X92979100Y-179131500D02*
X92979100Y-179856400D01*
X88878100Y-179131500D02*
X92979100Y-179131500D01*
X88878100Y-178330900D02*
X88878100Y-179131500D01*
X88278700Y-178330900D02*
X88878100Y-178330900D01*
X88278700Y-164331400D02*
X88278700Y-178330900D01*
X88878100Y-164331400D02*
X88278700Y-164331400D01*
X88878100Y-163530700D02*
X88878100Y-164331400D01*
X92979100Y-163530700D02*
X88878100Y-163530700D01*
X92979100Y-162805900D02*
X92979100Y-163530700D01*
X88508700Y-162805900D02*
X92979100Y-162805900D01*
X88508700Y-161080600D02*
X88508700Y-162805900D01*
X87529100Y-161080600D02*
X88508700Y-161080600D01*
X87529100Y-157781600D02*
X87529100Y-161080600D01*
X88508700Y-157781600D02*
X87529100Y-157781600D01*
X88508700Y-156056200D02*
X88508700Y-157781600D01*
X94778999Y-156056200D02*
X88508700Y-156056200D01*
X94778999Y-155230800D02*
X94778999Y-156056200D01*
X83228000Y-173856400D02*
X69228700Y-173856400D01*
X83228000Y-174455800D02*
X83228000Y-173856400D01*
X84028800Y-174455800D02*
X83228000Y-174455800D01*
X84028800Y-187256420D02*
X84028800Y-174455800D01*
X83228000Y-187256420D02*
X84028800Y-187256420D01*
X83228000Y-187855860D02*
X83228000Y-187256420D01*
X69228700Y-187855860D02*
X83228000Y-187855860D01*
X69228700Y-187256420D02*
X69228700Y-187855860D01*
X68427900Y-187256420D02*
X69228700Y-187256420D01*
X68427900Y-174455800D02*
X68427900Y-187256420D01*
X69228700Y-174455800D02*
X68427900Y-174455800D01*
X69228700Y-173856400D02*
X69228700Y-174455800D01*
X123709300Y-173856400D02*
X109710000Y-173856400D01*
X123709300Y-174455800D02*
X123709300Y-173856400D01*
X124510100Y-174455800D02*
X123709300Y-174455800D01*
X124510100Y-187256420D02*
X124510100Y-174455800D01*
X123709300Y-187256420D02*
X124510100Y-187256420D01*
X123709300Y-187855860D02*
X123709300Y-187256420D01*
X109710000Y-187855860D02*
X123709300Y-187855860D01*
X109710000Y-187256420D02*
X109710000Y-187855860D01*
X108909200Y-187256420D02*
X109710000Y-187256420D01*
X108909200Y-174455800D02*
X108909200Y-187256420D01*
X109710000Y-174455800D02*
X108909200Y-174455800D01*
X109710000Y-173856400D02*
X109710000Y-174455800D01*
X147522000Y-173856400D02*
X133521000Y-173856400D01*
X147522000Y-174455800D02*
X147522000Y-173856400D01*
X148321000Y-174455800D02*
X147522000Y-174455800D01*
X148321000Y-187256420D02*
X148321000Y-174455800D01*
X147522000Y-187256420D02*
X148321000Y-187256420D01*
X227972000Y-174455800D02*
X227972000Y-178556900D01*
X278491000Y-168805900D02*
X278491000Y-168206400D01*
X264491000Y-168805900D02*
X278491000Y-168805900D01*
X264491000Y-168206400D02*
X264491000Y-168805900D01*
X263690000Y-168206400D02*
X264491000Y-168206400D01*
X263690000Y-155405800D02*
X263690000Y-168206400D01*
X264491000Y-155405800D02*
X263690000Y-155405800D01*
X264491000Y-154806500D02*
X264491000Y-155405800D01*
X297541000Y-154806500D02*
X283541000Y-154806500D01*
X297541000Y-155405800D02*
X297541000Y-154806500D01*
X298340000Y-155405800D02*
X297541000Y-155405800D01*
X298340000Y-168206400D02*
X298340000Y-155405800D01*
X297541000Y-168206400D02*
X298340000Y-168206400D01*
X297541000Y-168805900D02*
X297541000Y-168206400D01*
X283541000Y-168805900D02*
X297541000Y-168805900D01*
X283541000Y-168206400D02*
X283541000Y-168805900D01*
X282740000Y-168206400D02*
X283541000Y-168206400D01*
X282740000Y-155405800D02*
X282740000Y-168206400D01*
X283541000Y-155405800D02*
X282740000Y-155405800D01*
X283541000Y-154806500D02*
X283541000Y-155405800D01*
X316591000Y-154806500D02*
X302591000Y-154806500D01*
X316591000Y-155405800D02*
X316591000Y-154806500D01*
X317390000Y-155405800D02*
X316591000Y-155405800D01*
X317390000Y-168206400D02*
X317390000Y-155405800D01*
X316591000Y-168206400D02*
X317390000Y-168206400D01*
X316591000Y-168805900D02*
X316591000Y-168206400D01*
X302591000Y-168805900D02*
X316591000Y-168805900D01*
X302591000Y-168206400D02*
X302591000Y-168805900D01*
X301790000Y-168206400D02*
X302591000Y-168206400D01*
X301790000Y-155405800D02*
X301790000Y-168206400D01*
X302591000Y-155405800D02*
X301790000Y-155405800D01*
X302591000Y-154806500D02*
X302591000Y-155405800D01*
X335641000Y-154806500D02*
X321641000Y-154806500D01*
X335641000Y-155405800D02*
X335641000Y-154806500D01*
X336440000Y-155405800D02*
X335641000Y-155405800D01*
X336440000Y-168206400D02*
X336440000Y-155405800D01*
X335641000Y-168206400D02*
X336440000Y-168206400D01*
X335641000Y-168805900D02*
X335641000Y-168206400D01*
X321641000Y-168805900D02*
X335641000Y-168805900D01*
X321641000Y-168206400D02*
X321641000Y-168805900D01*
X320840000Y-168206400D02*
X321641000Y-168206400D01*
X320840000Y-155405800D02*
X320840000Y-168206400D01*
X321641000Y-155405800D02*
X320840000Y-155405800D01*
X321641000Y-154806500D02*
X321641000Y-155405800D01*
D12*
X302679000Y-193477000D02*
G75*
G03*
X302679000Y-193477000I-950000J0D01*
G01*
X210529000Y-193477000D02*
G75*
G03*
X210529000Y-193477000I-950000J0D01*
G01*
X118379000Y-193477000D02*
G75*
G03*
X118379000Y-193477000I-950000J0D01*
G01*
X302679000Y-91827000D02*
G75*
G03*
X302679000Y-91827000I-950000J0D01*
G01*
X118379000Y-91827000D02*
G75*
G03*
X118379000Y-91827000I-950000J0D01*
G01*
X210529000Y-91827000D02*
G75*
G03*
X210529000Y-91827000I-950000J0D01*
G01*
X26229000Y-193477000D02*
G75*
G03*
X26229000Y-193477000I-950000J0D01*
G01*
X26229000Y-91827000D02*
G75*
G03*
X26229000Y-91827000I-950000J0D01*
G01*
X394829000Y-91827000D02*
G75*
G03*
X394829000Y-91827000I-950000J0D01*
G01*
X394829000Y-193477000D02*
G75*
G03*
X394829000Y-193477000I-950000J0D01*
G01*
X397716500Y-90408250D02*
X397716500Y-195183250D01*
X21479000Y-195183250D02*
X21479000Y-90408250D01*
X392954000Y-88027000D02*
X395335250Y-88027000D01*
X385810250Y-88027000D02*
X392954000Y-88027000D01*
X395335250Y-88027000D02*
G75*
G02*
X397716500Y-90408250I0J-2381250D01*
G01*
X397716500Y-195183250D02*
G75*
G02*
X395335250Y-197564500I-2381250J0D01*
G01*
X23860250Y-197564500D02*
G75*
G02*
X21479000Y-195183250I0J2381250D01*
G01*
X21479000Y-90408250D02*
G75*
G02*
X23860250Y-88027000I2381250J0D01*
G01*
X395335250Y-197564500D02*
X23860250Y-197564500D01*
X23860250Y-88027000D02*
X385810250Y-88027000D01*
D13*
G36*
X360293874Y-192626162D02*
G01*
X360226140Y-192782304D01*
X360248680Y-192949843D01*
X360255542Y-192970207D01*
X360311054Y-193097003D01*
X360415900Y-193307735D01*
X360559779Y-193583823D01*
X360732390Y-193906687D01*
X360923431Y-194257745D01*
X361122603Y-194618417D01*
X361319603Y-194970122D01*
X361504131Y-195294280D01*
X361665886Y-195572309D01*
X361794568Y-195785628D01*
X361879874Y-195915658D01*
X361904804Y-195945125D01*
X362094442Y-196019171D01*
X362308947Y-195983046D01*
X362412121Y-195925649D01*
X362531073Y-195771850D01*
X362552729Y-195655774D01*
X362523094Y-195548108D01*
X362440759Y-195349585D01*
X362315071Y-195080162D01*
X362155374Y-194759793D01*
X361971015Y-194408435D01*
X361952196Y-194373500D01*
X361352184Y-193262250D01*
X362021551Y-193230500D01*
X362330730Y-193212625D01*
X362537997Y-193190543D01*
X362668436Y-193159135D01*
X362747131Y-193113278D01*
X362780834Y-193075488D01*
X362863639Y-192889998D01*
X362827887Y-192703287D01*
X362771900Y-192609629D01*
X362731741Y-192559316D01*
X362679721Y-192522644D01*
X362596964Y-192497458D01*
X362464596Y-192481605D01*
X362263740Y-192472930D01*
X361975521Y-192469281D01*
X361581064Y-192468502D01*
X361535114Y-192468500D01*
X360397178Y-192468500D01*
X360293874Y-192626162D01*
G37*
X360293874Y-192626162D02*
X360226140Y-192782304D01*
X360248680Y-192949843D01*
X360255542Y-192970207D01*
X360311054Y-193097003D01*
X360415900Y-193307735D01*
X360559779Y-193583823D01*
X360732390Y-193906687D01*
X360923431Y-194257745D01*
X361122603Y-194618417D01*
X361319603Y-194970122D01*
X361504131Y-195294280D01*
X361665886Y-195572309D01*
X361794568Y-195785628D01*
X361879874Y-195915658D01*
X361904804Y-195945125D01*
X362094442Y-196019171D01*
X362308947Y-195983046D01*
X362412121Y-195925649D01*
X362531073Y-195771850D01*
X362552729Y-195655774D01*
X362523094Y-195548108D01*
X362440759Y-195349585D01*
X362315071Y-195080162D01*
X362155374Y-194759793D01*
X361971015Y-194408435D01*
X361952196Y-194373500D01*
X361352184Y-193262250D01*
X362021551Y-193230500D01*
X362330730Y-193212625D01*
X362537997Y-193190543D01*
X362668436Y-193159135D01*
X362747131Y-193113278D01*
X362780834Y-193075488D01*
X362863639Y-192889998D01*
X362827887Y-192703287D01*
X362771900Y-192609629D01*
X362731741Y-192559316D01*
X362679721Y-192522644D01*
X362596964Y-192497458D01*
X362464596Y-192481605D01*
X362263740Y-192472930D01*
X361975521Y-192469281D01*
X361581064Y-192468502D01*
X361535114Y-192468500D01*
X360397178Y-192468500D01*
X360293874Y-192626162D01*
G36*
X370571740Y-192499758D02*
G01*
X370395107Y-192537219D01*
X370252358Y-192607407D01*
X370130286Y-192697643D01*
X369813878Y-193014187D01*
X369621906Y-193354217D01*
X369569751Y-193549478D01*
X369561329Y-193959582D01*
X369667967Y-194349229D01*
X369878828Y-194692675D01*
X370158299Y-194947593D01*
X370286850Y-195025025D01*
X370419466Y-195071912D01*
X370593186Y-195095592D01*
X370845050Y-195103403D01*
X370946473Y-195103750D01*
X371506750Y-195103750D01*
X371506750Y-195409549D01*
X371524289Y-195682572D01*
X371585931Y-195852216D01*
X371705220Y-195938370D01*
X371882209Y-195961000D01*
X372060346Y-195938784D01*
X372187391Y-195883992D01*
X372201295Y-195870516D01*
X372229529Y-195789927D01*
X372248679Y-195620910D01*
X372259157Y-195353617D01*
X372261372Y-194978197D01*
X372256695Y-194543047D01*
X372244897Y-193802000D01*
X371472114Y-193802000D01*
X371450969Y-194005726D01*
X371369949Y-194149566D01*
X371295391Y-194221489D01*
X371063486Y-194351367D01*
X370820813Y-194369177D01*
X370597799Y-194275546D01*
X370519468Y-194205477D01*
X370405615Y-194009903D01*
X370363677Y-193777727D01*
X370399046Y-193561638D01*
X370445145Y-193478997D01*
X370648035Y-193305869D01*
X370889118Y-193239347D01*
X371135717Y-193283139D01*
X371295391Y-193382510D01*
X371417976Y-193519957D01*
X371466966Y-193684726D01*
X371472114Y-193802000D01*
X372244897Y-193802000D01*
X372237000Y-193306062D01*
X372037076Y-193030292D01*
X371774705Y-192743230D01*
X371472752Y-192564511D01*
X371109713Y-192484353D01*
X370828786Y-192480563D01*
X370571740Y-192499758D01*
G37*
X370571740Y-192499758D02*
X370395107Y-192537219D01*
X370252358Y-192607407D01*
X370130286Y-192697643D01*
X369813878Y-193014187D01*
X369621906Y-193354217D01*
X369569751Y-193549478D01*
X369561329Y-193959582D01*
X369667967Y-194349229D01*
X369878828Y-194692675D01*
X370158299Y-194947593D01*
X370286850Y-195025025D01*
X370419466Y-195071912D01*
X370593186Y-195095592D01*
X370845050Y-195103403D01*
X370946473Y-195103750D01*
X371506750Y-195103750D01*
X371506750Y-195409549D01*
X371524289Y-195682572D01*
X371585931Y-195852216D01*
X371705220Y-195938370D01*
X371882209Y-195961000D01*
X372060346Y-195938784D01*
X372187391Y-195883992D01*
X372201295Y-195870516D01*
X372229529Y-195789927D01*
X372248679Y-195620910D01*
X372259157Y-195353617D01*
X372261372Y-194978197D01*
X372256695Y-194543047D01*
X372244897Y-193802000D01*
X371472114Y-193802000D01*
X371450969Y-194005726D01*
X371369949Y-194149566D01*
X371295391Y-194221489D01*
X371063486Y-194351367D01*
X370820813Y-194369177D01*
X370597799Y-194275546D01*
X370519468Y-194205477D01*
X370405615Y-194009903D01*
X370363677Y-193777727D01*
X370399046Y-193561638D01*
X370445145Y-193478997D01*
X370648035Y-193305869D01*
X370889118Y-193239347D01*
X371135717Y-193283139D01*
X371295391Y-193382510D01*
X371417976Y-193519957D01*
X371466966Y-193684726D01*
X371472114Y-193802000D01*
X372244897Y-193802000D01*
X372237000Y-193306062D01*
X372037076Y-193030292D01*
X371774705Y-192743230D01*
X371472752Y-192564511D01*
X371109713Y-192484353D01*
X370828786Y-192480563D01*
X370571740Y-192499758D01*
G36*
X358859217Y-192405000D02*
G01*
X358506253Y-192406910D01*
X358258048Y-192414425D01*
X358092396Y-192430223D01*
X357987088Y-192456979D01*
X357919919Y-192497371D01*
X357895842Y-192521125D01*
X357804565Y-192701883D01*
X357809686Y-192900456D01*
X357906876Y-193061908D01*
X357997283Y-193115449D01*
X358141759Y-193148121D01*
X358366645Y-193163886D01*
X358605376Y-193166999D01*
X358878997Y-193168205D01*
X359049829Y-193176221D01*
X359142082Y-193197647D01*
X359179967Y-193239084D01*
X359187693Y-193307129D01*
X359187750Y-193325750D01*
X359180205Y-193412090D01*
X359138156Y-193459623D01*
X359032483Y-193479896D01*
X358834066Y-193484456D01*
X358787433Y-193484500D01*
X358528875Y-193496347D01*
X358334388Y-193542810D01*
X358142359Y-193640272D01*
X358098084Y-193667798D01*
X357819645Y-193912763D01*
X357635255Y-194218410D01*
X357544915Y-194560078D01*
X357548624Y-194913105D01*
X357646382Y-195252828D01*
X357838190Y-195554585D01*
X358098084Y-195777701D01*
X358302022Y-195889684D01*
X358494882Y-195944086D01*
X358741595Y-195958309D01*
X358771558Y-195958193D01*
X359144488Y-195919237D01*
X359386439Y-195833619D01*
X359605942Y-195684379D01*
X359791587Y-195498612D01*
X359914966Y-195309458D01*
X359949750Y-195176507D01*
X359902327Y-194955071D01*
X359776382Y-194813846D01*
X359596401Y-194758756D01*
X359386869Y-194795727D01*
X359172274Y-194930685D01*
X359124250Y-194976750D01*
X358943041Y-195135841D01*
X358791625Y-195189316D01*
X358637359Y-195142152D01*
X358529564Y-195067391D01*
X358395815Y-194907362D01*
X358362250Y-194722749D01*
X358397455Y-194520516D01*
X358511258Y-194379062D01*
X358715938Y-194291555D01*
X359023776Y-194251163D01*
X359218222Y-194246499D01*
X359501731Y-194241538D01*
X359700563Y-194213913D01*
X359829723Y-194144511D01*
X359904216Y-194014221D01*
X359939046Y-193803929D01*
X359949219Y-193494524D01*
X359949750Y-193314716D01*
X359948386Y-192984917D01*
X359932512Y-192746297D01*
X359884458Y-192584114D01*
X359786553Y-192483628D01*
X359621125Y-192430099D01*
X359370505Y-192408784D01*
X359017020Y-192404943D01*
X358859217Y-192405000D01*
G37*
X358859217Y-192405000D02*
X358506253Y-192406910D01*
X358258048Y-192414425D01*
X358092396Y-192430223D01*
X357987088Y-192456979D01*
X357919919Y-192497371D01*
X357895842Y-192521125D01*
X357804565Y-192701883D01*
X357809686Y-192900456D01*
X357906876Y-193061908D01*
X357997283Y-193115449D01*
X358141759Y-193148121D01*
X358366645Y-193163886D01*
X358605376Y-193166999D01*
X358878997Y-193168205D01*
X359049829Y-193176221D01*
X359142082Y-193197647D01*
X359179967Y-193239084D01*
X359187693Y-193307129D01*
X359187750Y-193325750D01*
X359180205Y-193412090D01*
X359138156Y-193459623D01*
X359032483Y-193479896D01*
X358834066Y-193484456D01*
X358787433Y-193484500D01*
X358528875Y-193496347D01*
X358334388Y-193542810D01*
X358142359Y-193640272D01*
X358098084Y-193667798D01*
X357819645Y-193912763D01*
X357635255Y-194218410D01*
X357544915Y-194560078D01*
X357548624Y-194913105D01*
X357646382Y-195252828D01*
X357838190Y-195554585D01*
X358098084Y-195777701D01*
X358302022Y-195889684D01*
X358494882Y-195944086D01*
X358741595Y-195958309D01*
X358771558Y-195958193D01*
X359144488Y-195919237D01*
X359386439Y-195833619D01*
X359605942Y-195684379D01*
X359791587Y-195498612D01*
X359914966Y-195309458D01*
X359949750Y-195176507D01*
X359902327Y-194955071D01*
X359776382Y-194813846D01*
X359596401Y-194758756D01*
X359386869Y-194795727D01*
X359172274Y-194930685D01*
X359124250Y-194976750D01*
X358943041Y-195135841D01*
X358791625Y-195189316D01*
X358637359Y-195142152D01*
X358529564Y-195067391D01*
X358395815Y-194907362D01*
X358362250Y-194722749D01*
X358397455Y-194520516D01*
X358511258Y-194379062D01*
X358715938Y-194291555D01*
X359023776Y-194251163D01*
X359218222Y-194246499D01*
X359501731Y-194241538D01*
X359700563Y-194213913D01*
X359829723Y-194144511D01*
X359904216Y-194014221D01*
X359939046Y-193803929D01*
X359949219Y-193494524D01*
X359949750Y-193314716D01*
X359948386Y-192984917D01*
X359932512Y-192746297D01*
X359884458Y-192584114D01*
X359786553Y-192483628D01*
X359621125Y-192430099D01*
X359370505Y-192408784D01*
X359017020Y-192404943D01*
X358859217Y-192405000D01*
G36*
X385177105Y-192493474D02*
G01*
X384901495Y-192567769D01*
X384855096Y-192589320D01*
X384530066Y-192819123D01*
X384297970Y-193113142D01*
X384158860Y-193449804D01*
X384112790Y-193807537D01*
X384159814Y-194164770D01*
X384299985Y-194499930D01*
X384533357Y-194791445D01*
X384849084Y-195012241D01*
X385154282Y-195110775D01*
X385508333Y-195138417D01*
X385858519Y-195096048D01*
X386141602Y-194990625D01*
X386321024Y-194863085D01*
X386461995Y-194718521D01*
X386489548Y-194677079D01*
X386547096Y-194550606D01*
X386534018Y-194451518D01*
X386453326Y-194328785D01*
X386277590Y-194170382D01*
X386081158Y-194137173D01*
X385867361Y-194229643D01*
X385851676Y-194240950D01*
X385603276Y-194359213D01*
X385357055Y-194352407D01*
X385126569Y-194221478D01*
X385090866Y-194187884D01*
X384936523Y-193965592D01*
X384908639Y-193738397D01*
X385007214Y-193513104D01*
X385090866Y-193416115D01*
X385244086Y-193285456D01*
X385389326Y-193223409D01*
X385544103Y-193235722D01*
X385725936Y-193328141D01*
X385952344Y-193506413D01*
X386240843Y-193776285D01*
X386267125Y-193802000D01*
X386521641Y-194046632D01*
X386708812Y-194212137D01*
X386847693Y-194312466D01*
X386957343Y-194361571D01*
X387047786Y-194373500D01*
X387266472Y-194323901D01*
X387404134Y-194185294D01*
X387445250Y-194002585D01*
X387422766Y-193904869D01*
X387347028Y-193779023D01*
X387205611Y-193609161D01*
X386986089Y-193379395D01*
X386857875Y-193251596D01*
X386617655Y-193022094D01*
X386390270Y-192818315D01*
X386200432Y-192661555D01*
X386072852Y-192573114D01*
X386067279Y-192570225D01*
X385814192Y-192493848D01*
X385499402Y-192468548D01*
X385177105Y-192493474D01*
G37*
X385177105Y-192493474D02*
X384901495Y-192567769D01*
X384855096Y-192589320D01*
X384530066Y-192819123D01*
X384297970Y-193113142D01*
X384158860Y-193449804D01*
X384112790Y-193807537D01*
X384159814Y-194164770D01*
X384299985Y-194499930D01*
X384533357Y-194791445D01*
X384849084Y-195012241D01*
X385154282Y-195110775D01*
X385508333Y-195138417D01*
X385858519Y-195096048D01*
X386141602Y-194990625D01*
X386321024Y-194863085D01*
X386461995Y-194718521D01*
X386489548Y-194677079D01*
X386547096Y-194550606D01*
X386534018Y-194451518D01*
X386453326Y-194328785D01*
X386277590Y-194170382D01*
X386081158Y-194137173D01*
X385867361Y-194229643D01*
X385851676Y-194240950D01*
X385603276Y-194359213D01*
X385357055Y-194352407D01*
X385126569Y-194221478D01*
X385090866Y-194187884D01*
X384936523Y-193965592D01*
X384908639Y-193738397D01*
X385007214Y-193513104D01*
X385090866Y-193416115D01*
X385244086Y-193285456D01*
X385389326Y-193223409D01*
X385544103Y-193235722D01*
X385725936Y-193328141D01*
X385952344Y-193506413D01*
X386240843Y-193776285D01*
X386267125Y-193802000D01*
X386521641Y-194046632D01*
X386708812Y-194212137D01*
X386847693Y-194312466D01*
X386957343Y-194361571D01*
X387047786Y-194373500D01*
X387266472Y-194323901D01*
X387404134Y-194185294D01*
X387445250Y-194002585D01*
X387422766Y-193904869D01*
X387347028Y-193779023D01*
X387205611Y-193609161D01*
X386986089Y-193379395D01*
X386857875Y-193251596D01*
X386617655Y-193022094D01*
X386390270Y-192818315D01*
X386200432Y-192661555D01*
X386072852Y-192573114D01*
X386067279Y-192570225D01*
X385814192Y-192493848D01*
X385499402Y-192468548D01*
X385177105Y-192493474D01*
G36*
X382102969Y-192524425D02*
G01*
X381799418Y-192644076D01*
X381721987Y-192692671D01*
X381427997Y-192964073D01*
X381245805Y-193289505D01*
X381171162Y-193678121D01*
X381171664Y-193878638D01*
X381247477Y-194300614D01*
X381420645Y-194644652D01*
X381682987Y-194902988D01*
X382026318Y-195067853D01*
X382442458Y-195131484D01*
X382492250Y-195131969D01*
X382742183Y-195118150D01*
X382968713Y-195083788D01*
X383095500Y-195046569D01*
X383270470Y-194942728D01*
X383447166Y-194799465D01*
X383466522Y-194780500D01*
X383710383Y-194453577D01*
X383843016Y-194093326D01*
X383862837Y-193798985D01*
X383063750Y-193798985D01*
X383010721Y-194051758D01*
X382870439Y-194238845D01*
X382671110Y-194347453D01*
X382440942Y-194364790D01*
X382208144Y-194278065D01*
X382132110Y-194221489D01*
X382009525Y-194084042D01*
X381960535Y-193919273D01*
X381955387Y-193802000D01*
X382006968Y-193544357D01*
X382144195Y-193358452D01*
X382340789Y-193256002D01*
X382570476Y-193248724D01*
X382806978Y-193348334D01*
X382868378Y-193394894D01*
X383007331Y-193544101D01*
X383059883Y-193710877D01*
X383063750Y-193798985D01*
X383862837Y-193798985D01*
X383868126Y-193720452D01*
X383789417Y-193355661D01*
X383610594Y-193019656D01*
X383335361Y-192733142D01*
X383069976Y-192564238D01*
X382785564Y-192479997D01*
X382447456Y-192468229D01*
X382102969Y-192524425D01*
G37*
X382102969Y-192524425D02*
X381799418Y-192644076D01*
X381721987Y-192692671D01*
X381427997Y-192964073D01*
X381245805Y-193289505D01*
X381171162Y-193678121D01*
X381171664Y-193878638D01*
X381247477Y-194300614D01*
X381420645Y-194644652D01*
X381682987Y-194902988D01*
X382026318Y-195067853D01*
X382442458Y-195131484D01*
X382492250Y-195131969D01*
X382742183Y-195118150D01*
X382968713Y-195083788D01*
X383095500Y-195046569D01*
X383270470Y-194942728D01*
X383447166Y-194799465D01*
X383466522Y-194780500D01*
X383710383Y-194453577D01*
X383843016Y-194093326D01*
X383862837Y-193798985D01*
X383063750Y-193798985D01*
X383010721Y-194051758D01*
X382870439Y-194238845D01*
X382671110Y-194347453D01*
X382440942Y-194364790D01*
X382208144Y-194278065D01*
X382132110Y-194221489D01*
X382009525Y-194084042D01*
X381960535Y-193919273D01*
X381955387Y-193802000D01*
X382006968Y-193544357D01*
X382144195Y-193358452D01*
X382340789Y-193256002D01*
X382570476Y-193248724D01*
X382806978Y-193348334D01*
X382868378Y-193394894D01*
X383007331Y-193544101D01*
X383059883Y-193710877D01*
X383063750Y-193798985D01*
X383862837Y-193798985D01*
X383868126Y-193720452D01*
X383789417Y-193355661D01*
X383610594Y-193019656D01*
X383335361Y-192733142D01*
X383069976Y-192564238D01*
X382785564Y-192479997D01*
X382447456Y-192468229D01*
X382102969Y-192524425D01*
G36*
X380288515Y-192500472D02*
G01*
X380220926Y-192547875D01*
X380191841Y-192641525D01*
X380164226Y-192831599D01*
X380141767Y-193087539D01*
X380130914Y-193294000D01*
X380108738Y-193660868D01*
X380069831Y-193923321D01*
X380006423Y-194103624D01*
X379910748Y-194224045D01*
X379778060Y-194305481D01*
X379515242Y-194369625D01*
X379274713Y-194309335D01*
X379146289Y-194220353D01*
X379068898Y-194147690D01*
X379016527Y-194070253D01*
X378982762Y-193961373D01*
X378961193Y-193794378D01*
X378945406Y-193542596D01*
X378936373Y-193347228D01*
X378919269Y-193051993D01*
X378897186Y-192800404D01*
X378873155Y-192621537D01*
X378853128Y-192547874D01*
X378748791Y-192486970D01*
X378581132Y-192471326D01*
X378404737Y-192499020D01*
X378274195Y-192568127D01*
X378274036Y-192568285D01*
X378229146Y-192639370D01*
X378199405Y-192760694D01*
X378182212Y-192954353D01*
X378174963Y-193242447D01*
X378174250Y-193415548D01*
X378177029Y-193749257D01*
X378188341Y-193987069D01*
X378212650Y-194160022D01*
X378254420Y-194299153D01*
X378318115Y-194435500D01*
X378322001Y-194442887D01*
X378469270Y-194654307D01*
X378664089Y-194853622D01*
X378738752Y-194912218D01*
X378909977Y-195018551D01*
X379077870Y-195080130D01*
X379292507Y-195111410D01*
X379464127Y-195121631D01*
X379774235Y-195121574D01*
X379993840Y-195086615D01*
X380111000Y-195039272D01*
X380447500Y-194796835D01*
X380707407Y-194483552D01*
X380784363Y-194341750D01*
X380845796Y-194143061D01*
X380887806Y-193875075D01*
X380910318Y-193569084D01*
X380913256Y-193256379D01*
X380896545Y-192968252D01*
X380860110Y-192735996D01*
X380803875Y-192590901D01*
X380788625Y-192573591D01*
X380638840Y-192496380D01*
X380453316Y-192471155D01*
X380288515Y-192500472D01*
G37*
X380288515Y-192500472D02*
X380220926Y-192547875D01*
X380191841Y-192641525D01*
X380164226Y-192831599D01*
X380141767Y-193087539D01*
X380130914Y-193294000D01*
X380108738Y-193660868D01*
X380069831Y-193923321D01*
X380006423Y-194103624D01*
X379910748Y-194224045D01*
X379778060Y-194305481D01*
X379515242Y-194369625D01*
X379274713Y-194309335D01*
X379146289Y-194220353D01*
X379068898Y-194147690D01*
X379016527Y-194070253D01*
X378982762Y-193961373D01*
X378961193Y-193794378D01*
X378945406Y-193542596D01*
X378936373Y-193347228D01*
X378919269Y-193051993D01*
X378897186Y-192800404D01*
X378873155Y-192621537D01*
X378853128Y-192547874D01*
X378748791Y-192486970D01*
X378581132Y-192471326D01*
X378404737Y-192499020D01*
X378274195Y-192568127D01*
X378274036Y-192568285D01*
X378229146Y-192639370D01*
X378199405Y-192760694D01*
X378182212Y-192954353D01*
X378174963Y-193242447D01*
X378174250Y-193415548D01*
X378177029Y-193749257D01*
X378188341Y-193987069D01*
X378212650Y-194160022D01*
X378254420Y-194299153D01*
X378318115Y-194435500D01*
X378322001Y-194442887D01*
X378469270Y-194654307D01*
X378664089Y-194853622D01*
X378738752Y-194912218D01*
X378909977Y-195018551D01*
X379077870Y-195080130D01*
X379292507Y-195111410D01*
X379464127Y-195121631D01*
X379774235Y-195121574D01*
X379993840Y-195086615D01*
X380111000Y-195039272D01*
X380447500Y-194796835D01*
X380707407Y-194483552D01*
X380784363Y-194341750D01*
X380845796Y-194143061D01*
X380887806Y-193875075D01*
X380910318Y-193569084D01*
X380913256Y-193256379D01*
X380896545Y-192968252D01*
X380860110Y-192735996D01*
X380803875Y-192590901D01*
X380788625Y-192573591D01*
X380638840Y-192496380D01*
X380453316Y-192471155D01*
X380288515Y-192500472D01*
G36*
X377303981Y-191660445D02*
G01*
X377174019Y-191716246D01*
X377170951Y-191719199D01*
X377125657Y-191824584D01*
X377098363Y-192004040D01*
X377094750Y-192100199D01*
X377094750Y-192405000D01*
X376533092Y-192405000D01*
X376199617Y-192417028D01*
X375973619Y-192459130D01*
X375837335Y-192540328D01*
X375772997Y-192669646D01*
X375761250Y-192797033D01*
X375788090Y-192956564D01*
X375879668Y-193065429D01*
X376052568Y-193131379D01*
X376323379Y-193162167D01*
X376552819Y-193167000D01*
X377112138Y-193167000D01*
X377077894Y-193593603D01*
X377051862Y-193834592D01*
X377010549Y-193991319D01*
X376937526Y-194106517D01*
X376845949Y-194196853D01*
X376635808Y-194334473D01*
X376419724Y-194361984D01*
X376170888Y-194280630D01*
X376080880Y-194232334D01*
X375838099Y-194141473D01*
X375629554Y-194157683D01*
X375474522Y-194276503D01*
X375418479Y-194385585D01*
X375404144Y-194587833D01*
X375495474Y-194768910D01*
X375671919Y-194921728D01*
X375912926Y-195039197D01*
X376197944Y-195114228D01*
X376506422Y-195139731D01*
X376817808Y-195108618D01*
X377111551Y-195013798D01*
X377164138Y-194987749D01*
X377375136Y-194840753D01*
X377574639Y-194645904D01*
X377634500Y-194569756D01*
X377825000Y-194299512D01*
X377844695Y-193061739D01*
X377849517Y-192581187D01*
X377846451Y-192217564D01*
X377835087Y-191961022D01*
X377815013Y-191801711D01*
X377789295Y-191733483D01*
X377670516Y-191670424D01*
X377489112Y-191645624D01*
X377303981Y-191660445D01*
G37*
X377303981Y-191660445D02*
X377174019Y-191716246D01*
X377170951Y-191719199D01*
X377125657Y-191824584D01*
X377098363Y-192004040D01*
X377094750Y-192100199D01*
X377094750Y-192405000D01*
X376533092Y-192405000D01*
X376199617Y-192417028D01*
X375973619Y-192459130D01*
X375837335Y-192540328D01*
X375772997Y-192669646D01*
X375761250Y-192797033D01*
X375788090Y-192956564D01*
X375879668Y-193065429D01*
X376052568Y-193131379D01*
X376323379Y-193162167D01*
X376552819Y-193167000D01*
X377112138Y-193167000D01*
X377077894Y-193593603D01*
X377051862Y-193834592D01*
X377010549Y-193991319D01*
X376937526Y-194106517D01*
X376845949Y-194196853D01*
X376635808Y-194334473D01*
X376419724Y-194361984D01*
X376170888Y-194280630D01*
X376080880Y-194232334D01*
X375838099Y-194141473D01*
X375629554Y-194157683D01*
X375474522Y-194276503D01*
X375418479Y-194385585D01*
X375404144Y-194587833D01*
X375495474Y-194768910D01*
X375671919Y-194921728D01*
X375912926Y-195039197D01*
X376197944Y-195114228D01*
X376506422Y-195139731D01*
X376817808Y-195108618D01*
X377111551Y-195013798D01*
X377164138Y-194987749D01*
X377375136Y-194840753D01*
X377574639Y-194645904D01*
X377634500Y-194569756D01*
X377825000Y-194299512D01*
X377844695Y-193061739D01*
X377849517Y-192581187D01*
X377846451Y-192217564D01*
X377835087Y-191961022D01*
X377815013Y-191801711D01*
X377789295Y-191733483D01*
X377670516Y-191670424D01*
X377489112Y-191645624D01*
X377303981Y-191660445D01*
G36*
X374604826Y-191704707D02*
G01*
X374532842Y-191759125D01*
X374454188Y-191928794D01*
X374427750Y-192189825D01*
X374427750Y-192504401D01*
X373989049Y-192479612D01*
X373612323Y-192480893D01*
X373318504Y-192541486D01*
X373072536Y-192673650D01*
X372850170Y-192877843D01*
X372686170Y-193081339D01*
X372573583Y-193293893D01*
X372503941Y-193545211D01*
X372468780Y-193864996D01*
X372459605Y-194248245D01*
X372469556Y-194608787D01*
X372505197Y-194860660D01*
X372574468Y-195020952D01*
X372685312Y-195106748D01*
X372845671Y-195135134D01*
X372872000Y-195135500D01*
X373036446Y-195115211D01*
X373152194Y-195042918D01*
X373226912Y-194901477D01*
X373268264Y-194673747D01*
X373283917Y-194342583D01*
X373284750Y-194212501D01*
X373286478Y-193919792D01*
X373295991Y-193724479D01*
X373319788Y-193596963D01*
X373364364Y-193507646D01*
X373436217Y-193426930D01*
X373462850Y-193401130D01*
X373688857Y-193258973D01*
X373929861Y-193239805D01*
X374167595Y-193344050D01*
X374217712Y-193383646D01*
X374294246Y-193455280D01*
X374346308Y-193531393D01*
X374380064Y-193638178D01*
X374401684Y-193801828D01*
X374417334Y-194048539D01*
X374427628Y-194275101D01*
X374445875Y-194619862D01*
X374472230Y-194857512D01*
X374516558Y-195007928D01*
X374588723Y-195090986D01*
X374698589Y-195126563D01*
X374854141Y-195134527D01*
X375043569Y-195094978D01*
X375124016Y-195012674D01*
X375146719Y-194907815D01*
X375164806Y-194701007D01*
X375178344Y-194413574D01*
X375187402Y-194066840D01*
X375192047Y-193682129D01*
X375192346Y-193280766D01*
X375188368Y-192884074D01*
X375180180Y-192513378D01*
X375167851Y-192190003D01*
X375151447Y-191935272D01*
X375131037Y-191770509D01*
X375113550Y-191719199D01*
X374971988Y-191654087D01*
X374782264Y-191650641D01*
X374604826Y-191704707D01*
G37*
X374604826Y-191704707D02*
X374532842Y-191759125D01*
X374454188Y-191928794D01*
X374427750Y-192189825D01*
X374427750Y-192504401D01*
X373989049Y-192479612D01*
X373612323Y-192480893D01*
X373318504Y-192541486D01*
X373072536Y-192673650D01*
X372850170Y-192877843D01*
X372686170Y-193081339D01*
X372573583Y-193293893D01*
X372503941Y-193545211D01*
X372468780Y-193864996D01*
X372459605Y-194248245D01*
X372469556Y-194608787D01*
X372505197Y-194860660D01*
X372574468Y-195020952D01*
X372685312Y-195106748D01*
X372845671Y-195135134D01*
X372872000Y-195135500D01*
X373036446Y-195115211D01*
X373152194Y-195042918D01*
X373226912Y-194901477D01*
X373268264Y-194673747D01*
X373283917Y-194342583D01*
X373284750Y-194212501D01*
X373286478Y-193919792D01*
X373295991Y-193724479D01*
X373319788Y-193596963D01*
X373364364Y-193507646D01*
X373436217Y-193426930D01*
X373462850Y-193401130D01*
X373688857Y-193258973D01*
X373929861Y-193239805D01*
X374167595Y-193344050D01*
X374217712Y-193383646D01*
X374294246Y-193455280D01*
X374346308Y-193531393D01*
X374380064Y-193638178D01*
X374401684Y-193801828D01*
X374417334Y-194048539D01*
X374427628Y-194275101D01*
X374445875Y-194619862D01*
X374472230Y-194857512D01*
X374516558Y-195007928D01*
X374588723Y-195090986D01*
X374698589Y-195126563D01*
X374854141Y-195134527D01*
X375043569Y-195094978D01*
X375124016Y-195012674D01*
X375146719Y-194907815D01*
X375164806Y-194701007D01*
X375178344Y-194413574D01*
X375187402Y-194066840D01*
X375192047Y-193682129D01*
X375192346Y-193280766D01*
X375188368Y-192884074D01*
X375180180Y-192513378D01*
X375167851Y-192190003D01*
X375151447Y-191935272D01*
X375131037Y-191770509D01*
X375113550Y-191719199D01*
X374971988Y-191654087D01*
X374782264Y-191650641D01*
X374604826Y-191704707D01*
G36*
X367743781Y-192477740D02*
G01*
X367562942Y-192516913D01*
X367389942Y-192603194D01*
X367279725Y-192674875D01*
X367062698Y-192842933D01*
X366906439Y-193023739D01*
X366800813Y-193242361D01*
X366735684Y-193523863D01*
X366700916Y-193893315D01*
X366691434Y-194129848D01*
X366685443Y-194510025D01*
X366696877Y-194781456D01*
X366732260Y-194961929D01*
X366798113Y-195069227D01*
X366900960Y-195121138D01*
X367047323Y-195135446D01*
X367060237Y-195135500D01*
X367228127Y-195121196D01*
X367334763Y-195085703D01*
X367346001Y-195074426D01*
X367434308Y-195046002D01*
X367544382Y-195074426D01*
X367766633Y-195121252D01*
X368050583Y-195131906D01*
X368340102Y-195108624D01*
X368579063Y-195053642D01*
X368632978Y-195031065D01*
X368933290Y-194819387D01*
X369177899Y-194524176D01*
X369344372Y-194180893D01*
X369410274Y-193824996D01*
X369410337Y-193819581D01*
X368585732Y-193819581D01*
X368533901Y-194027664D01*
X368414472Y-194205164D01*
X368244508Y-194330517D01*
X368041074Y-194382163D01*
X367821234Y-194338540D01*
X367719631Y-194280779D01*
X367549784Y-194094271D01*
X367472985Y-193859970D01*
X367502702Y-193620491D01*
X367507298Y-193608970D01*
X367655722Y-193385412D01*
X367858976Y-193257398D01*
X368088457Y-193231555D01*
X368315562Y-193314508D01*
X368418341Y-193397909D01*
X368552900Y-193602475D01*
X368585732Y-193819581D01*
X369410337Y-193819581D01*
X369410542Y-193802000D01*
X369356009Y-193466210D01*
X369208019Y-193132585D01*
X368989991Y-192837343D01*
X368725342Y-192616701D01*
X368603665Y-192554042D01*
X368428840Y-192507940D01*
X368187206Y-192476883D01*
X367991716Y-192468500D01*
X367743781Y-192477740D01*
G37*
X367743781Y-192477740D02*
X367562942Y-192516913D01*
X367389942Y-192603194D01*
X367279725Y-192674875D01*
X367062698Y-192842933D01*
X366906439Y-193023739D01*
X366800813Y-193242361D01*
X366735684Y-193523863D01*
X366700916Y-193893315D01*
X366691434Y-194129848D01*
X366685443Y-194510025D01*
X366696877Y-194781456D01*
X366732260Y-194961929D01*
X366798113Y-195069227D01*
X366900960Y-195121138D01*
X367047323Y-195135446D01*
X367060237Y-195135500D01*
X367228127Y-195121196D01*
X367334763Y-195085703D01*
X367346001Y-195074426D01*
X367434308Y-195046002D01*
X367544382Y-195074426D01*
X367766633Y-195121252D01*
X368050583Y-195131906D01*
X368340102Y-195108624D01*
X368579063Y-195053642D01*
X368632978Y-195031065D01*
X368933290Y-194819387D01*
X369177899Y-194524176D01*
X369344372Y-194180893D01*
X369410274Y-193824996D01*
X369410337Y-193819581D01*
X368585732Y-193819581D01*
X368533901Y-194027664D01*
X368414472Y-194205164D01*
X368244508Y-194330517D01*
X368041074Y-194382163D01*
X367821234Y-194338540D01*
X367719631Y-194280779D01*
X367549784Y-194094271D01*
X367472985Y-193859970D01*
X367502702Y-193620491D01*
X367507298Y-193608970D01*
X367655722Y-193385412D01*
X367858976Y-193257398D01*
X368088457Y-193231555D01*
X368315562Y-193314508D01*
X368418341Y-193397909D01*
X368552900Y-193602475D01*
X368585732Y-193819581D01*
X369410337Y-193819581D01*
X369410542Y-193802000D01*
X369356009Y-193466210D01*
X369208019Y-193132585D01*
X368989991Y-192837343D01*
X368725342Y-192616701D01*
X368603665Y-192554042D01*
X368428840Y-192507940D01*
X368187206Y-192476883D01*
X367991716Y-192468500D01*
X367743781Y-192477740D01*
G36*
X365832280Y-192475536D02*
G01*
X365689056Y-192534187D01*
X365677451Y-192544699D01*
X365639619Y-192648718D01*
X365614736Y-192873543D01*
X365602603Y-193221439D01*
X365601250Y-193425924D01*
X365596473Y-193803781D01*
X365578710Y-194071015D01*
X365542817Y-194243763D01*
X365483648Y-194338162D01*
X365396058Y-194370346D01*
X365302676Y-194362259D01*
X365243903Y-194331831D01*
X365204654Y-194250802D01*
X365178191Y-194094140D01*
X365157775Y-193836818D01*
X365156750Y-193820176D01*
X365134664Y-193571124D01*
X365104089Y-193370094D01*
X365070681Y-193251649D01*
X365061500Y-193237904D01*
X364880864Y-193141806D01*
X364671884Y-193144442D01*
X364517736Y-193220820D01*
X364436658Y-193302425D01*
X364385391Y-193408968D01*
X364353867Y-193574045D01*
X364332022Y-193831252D01*
X364331250Y-193843249D01*
X364310229Y-194100067D01*
X364282750Y-194255356D01*
X364241652Y-194334587D01*
X364185325Y-194362265D01*
X364071455Y-194368038D01*
X363990100Y-194324434D01*
X363936112Y-194215316D01*
X363904348Y-194024548D01*
X363889662Y-193735993D01*
X363886750Y-193425924D01*
X363883511Y-193057929D01*
X363869150Y-192798203D01*
X363836698Y-192628086D01*
X363779191Y-192528914D01*
X363689662Y-192482026D01*
X363561142Y-192468760D01*
X363529336Y-192468500D01*
X363380665Y-192478511D01*
X363273376Y-192520235D01*
X363200832Y-192611204D01*
X363156400Y-192768952D01*
X363133444Y-193011013D01*
X363125329Y-193354919D01*
X363124750Y-193537651D01*
X363131369Y-193966779D01*
X363155740Y-194291554D01*
X363204636Y-194534148D01*
X363284830Y-194716733D01*
X363403096Y-194861482D01*
X363566207Y-194990565D01*
X363569218Y-194992625D01*
X363777927Y-195084252D01*
X364041722Y-195132387D01*
X364311703Y-195134519D01*
X364538971Y-195088139D01*
X364620423Y-195046594D01*
X364735156Y-194990071D01*
X364838167Y-195025076D01*
X364868938Y-195046594D01*
X365041923Y-195113253D01*
X365285701Y-195136544D01*
X365552351Y-195118216D01*
X365793950Y-195060018D01*
X365903456Y-195008843D01*
X366072350Y-194890641D01*
X366194812Y-194758537D01*
X366277972Y-194590545D01*
X366328956Y-194364679D01*
X366354894Y-194058952D01*
X366362915Y-193651378D01*
X366363013Y-193591450D01*
X366358483Y-193259703D01*
X366345893Y-192966866D01*
X366327023Y-192740104D01*
X366303652Y-192606580D01*
X366297516Y-192591325D01*
X366190836Y-192508190D01*
X366017649Y-192468232D01*
X365832280Y-192475536D01*
G37*
X365832280Y-192475536D02*
X365689056Y-192534187D01*
X365677451Y-192544699D01*
X365639619Y-192648718D01*
X365614736Y-192873543D01*
X365602603Y-193221439D01*
X365601250Y-193425924D01*
X365596473Y-193803781D01*
X365578710Y-194071015D01*
X365542817Y-194243763D01*
X365483648Y-194338162D01*
X365396058Y-194370346D01*
X365302676Y-194362259D01*
X365243903Y-194331831D01*
X365204654Y-194250802D01*
X365178191Y-194094140D01*
X365157775Y-193836818D01*
X365156750Y-193820176D01*
X365134664Y-193571124D01*
X365104089Y-193370094D01*
X365070681Y-193251649D01*
X365061500Y-193237904D01*
X364880864Y-193141806D01*
X364671884Y-193144442D01*
X364517736Y-193220820D01*
X364436658Y-193302425D01*
X364385391Y-193408968D01*
X364353867Y-193574045D01*
X364332022Y-193831252D01*
X364331250Y-193843249D01*
X364310229Y-194100067D01*
X364282750Y-194255356D01*
X364241652Y-194334587D01*
X364185325Y-194362265D01*
X364071455Y-194368038D01*
X363990100Y-194324434D01*
X363936112Y-194215316D01*
X363904348Y-194024548D01*
X363889662Y-193735993D01*
X363886750Y-193425924D01*
X363883511Y-193057929D01*
X363869150Y-192798203D01*
X363836698Y-192628086D01*
X363779191Y-192528914D01*
X363689662Y-192482026D01*
X363561142Y-192468760D01*
X363529336Y-192468500D01*
X363380665Y-192478511D01*
X363273376Y-192520235D01*
X363200832Y-192611204D01*
X363156400Y-192768952D01*
X363133444Y-193011013D01*
X363125329Y-193354919D01*
X363124750Y-193537651D01*
X363131369Y-193966779D01*
X363155740Y-194291554D01*
X363204636Y-194534148D01*
X363284830Y-194716733D01*
X363403096Y-194861482D01*
X363566207Y-194990565D01*
X363569218Y-194992625D01*
X363777927Y-195084252D01*
X364041722Y-195132387D01*
X364311703Y-195134519D01*
X364538971Y-195088139D01*
X364620423Y-195046594D01*
X364735156Y-194990071D01*
X364838167Y-195025076D01*
X364868938Y-195046594D01*
X365041923Y-195113253D01*
X365285701Y-195136544D01*
X365552351Y-195118216D01*
X365793950Y-195060018D01*
X365903456Y-195008843D01*
X366072350Y-194890641D01*
X366194812Y-194758537D01*
X366277972Y-194590545D01*
X366328956Y-194364679D01*
X366354894Y-194058952D01*
X366362915Y-193651378D01*
X366363013Y-193591450D01*
X366358483Y-193259703D01*
X366345893Y-192966866D01*
X366327023Y-192740104D01*
X366303652Y-192606580D01*
X366297516Y-192591325D01*
X366190836Y-192508190D01*
X366017649Y-192468232D01*
X365832280Y-192475536D01*
M02*
