%TF.GenerationSoftware,KiCad,Pcbnew,6.0.10-86aedd382b~118~ubuntu22.10.1*%
%TF.CreationDate,2023-02-06T19:01:29+01:00*%
%TF.ProjectId,southpaw75-ansi-iso-plate,736f7574-6870-4617-9737-352d616e7369,rev?*%
%TF.SameCoordinates,Original*%
%TF.FileFunction,Profile,NP*%
%FSLAX46Y46*%
G04 Gerber Fmt 4.6, Leading zero omitted, Abs format (unit mm)*
G04 Created by KiCad (PCBNEW 6.0.10-86aedd382b~118~ubuntu22.10.1) date 2023-02-06 19:01:29*
%MOMM*%
%LPD*%
G01*
G04 APERTURE LIST*
%TA.AperFunction,Profile*%
%ADD10C,0.050000*%
%TD*%
%TA.AperFunction,Profile*%
%ADD11C,0.200000*%
%TD*%
G04 APERTURE END LIST*
D10*
X385810250Y-88027000D02*
X392954000Y-88027000D01*
X392954000Y-88027000D02*
X395335250Y-88027000D01*
X21479000Y-195183250D02*
X21479000Y-90408250D01*
X397716500Y-90408250D02*
X397716500Y-195183250D01*
D11*
X82220006Y-187850007D02*
G75*
G03*
X83220007Y-186850007I94J999907D01*
G01*
X350202760Y-148751340D02*
G75*
G03*
X351202692Y-149751340I999940J-60D01*
G01*
X55377050Y-186850007D02*
G75*
G03*
X54511025Y-187350000I50J-1000093D01*
G01*
X240382571Y-167800038D02*
X240382571Y-155800031D01*
X253670078Y-97650000D02*
X241670072Y-97650000D01*
X141657518Y-149750028D02*
X153657524Y-149750028D01*
X182263790Y-172850041D02*
X182263790Y-185850048D01*
X83220000Y-174850001D02*
G75*
G03*
X82220006Y-173850000I-1000000J1D01*
G01*
X297820092Y-110650007D02*
G75*
G03*
X298820103Y-111650008I1000008J7D01*
G01*
X107319992Y-110650007D02*
G75*
G03*
X108320000Y-111650008I1000008J7D01*
G01*
X315582612Y-154800031D02*
X303582605Y-154800031D01*
X229763815Y-187850049D02*
X253670078Y-187850049D01*
X346445128Y-173850127D02*
G75*
G03*
X345445127Y-174850042I72J-1000073D01*
G01*
X370252691Y-116701391D02*
G75*
G03*
X369252691Y-117701340I-91J-999909D01*
G01*
X182232540Y-154800031D02*
X170232533Y-154800031D01*
X283532662Y-167800038D02*
G75*
G03*
X284532595Y-168800038I999938J-62D01*
G01*
X287007596Y-149750096D02*
G75*
G03*
X288007596Y-148750028I-96J1000096D01*
G01*
X269245087Y-117700011D02*
X269245087Y-129700017D01*
X307057579Y-136750021D02*
G75*
G03*
X306057607Y-135750021I-999979J21D01*
G01*
X164182469Y-155800031D02*
G75*
G03*
X163182530Y-154800031I-999969J31D01*
G01*
X150182461Y-167800038D02*
G75*
G03*
X151182523Y-168800039I1000039J38D01*
G01*
X231145082Y-129700017D02*
G75*
G03*
X232145067Y-130700018I1000018J17D01*
G01*
X354970113Y-110650001D02*
G75*
G03*
X355513630Y-111539724I999987J1D01*
G01*
X225095063Y-130700064D02*
G75*
G03*
X226095064Y-129700017I-63J1000064D01*
G01*
X326107617Y-148750028D02*
X326107617Y-136750021D01*
X317870113Y-97650012D02*
G75*
G03*
X316870112Y-98650001I87J-1000088D01*
G01*
X159420027Y-110650007D02*
X159420027Y-98650001D01*
X358445135Y-130700036D02*
G75*
G03*
X359445136Y-129700017I65J999936D01*
G01*
X347821397Y-167800038D02*
G75*
G03*
X348370894Y-168802970I1189903J-62D01*
G01*
X183520041Y-98650001D02*
X183520041Y-110650007D01*
X183519993Y-110650007D02*
G75*
G03*
X184520041Y-111650007I1000007J7D01*
G01*
X239382571Y-154800031D02*
X227382564Y-154800031D01*
X87269999Y-179712999D02*
G75*
G03*
X86269999Y-180712974I1J-1000001D01*
G01*
X300760726Y-173952343D02*
G75*
G03*
X300201353Y-174850042I440574J-897657D01*
G01*
X151182523Y-168800039D02*
X163182530Y-168800039D01*
X269245083Y-129700017D02*
G75*
G03*
X270245087Y-130700017I1000017J17D01*
G01*
X350202692Y-136751340D02*
X350202692Y-148751340D01*
X177470037Y-97650000D02*
X165470031Y-97650000D01*
X254670079Y-110650007D02*
X254670079Y-98650001D01*
X145140461Y-155775939D02*
G75*
G03*
X144140392Y-154775939I-1000061J-61D01*
G01*
X82220006Y-97650000D02*
X70220000Y-97650000D01*
X337013873Y-187850074D02*
G75*
G03*
X338013874Y-186850048I-73J1000074D01*
G01*
X197807471Y-148750028D02*
G75*
G03*
X198807549Y-149750029I1000029J28D01*
G01*
X385133929Y-140092342D02*
G75*
G03*
X385633942Y-139226340I-499829J865942D01*
G01*
D10*
X21479000Y-195183250D02*
G75*
G03*
X23860250Y-197564500I2381250J0D01*
G01*
D11*
X87269999Y-141612974D02*
X87269999Y-141612974D01*
X87269999Y-117736999D02*
G75*
G03*
X86269999Y-118736974I1J-1000001D01*
G01*
X289295098Y-116699997D02*
G75*
G03*
X288295097Y-117700011I102J-1000103D01*
G01*
X102269986Y-165274974D02*
G75*
G03*
X101770000Y-164408949I-999886J74D01*
G01*
X273720099Y-98650001D02*
G75*
G03*
X272720089Y-97650001I-999999J1D01*
G01*
X126082489Y-117700011D02*
G75*
G03*
X125082509Y-116700011I-999989J11D01*
G01*
X169232562Y-167800038D02*
G75*
G03*
X170232533Y-168800038I999938J-62D01*
G01*
X358445135Y-116700010D02*
X346445128Y-116700010D01*
X346445128Y-130700018D02*
X358445135Y-130700018D01*
X321632561Y-167800038D02*
G75*
G03*
X322632616Y-168800039I1000039J38D01*
G01*
X192757579Y-136750021D02*
G75*
G03*
X191757545Y-135750021I-999979J21D01*
G01*
X82220006Y-130700007D02*
G75*
G03*
X83220007Y-129700007I94J999907D01*
G01*
X245432562Y-167800038D02*
G75*
G03*
X246432574Y-168800038I1000038J38D01*
G01*
X133513763Y-174850042D02*
X133513763Y-186850048D01*
X100269999Y-148612999D02*
G75*
G03*
X101269999Y-147612974I1J999999D01*
G01*
X87269999Y-155836974D02*
X100269999Y-155836974D01*
X298820103Y-97650002D02*
G75*
G03*
X297820102Y-98650001I97J-1000098D01*
G01*
X373289341Y-155800032D02*
X372083443Y-155800031D01*
X101270006Y-111650007D02*
G75*
G03*
X102270007Y-110650007I94J999907D01*
G01*
X108320000Y-97649999D02*
G75*
G03*
X107319999Y-98650001I100J-1000101D01*
G01*
X50169999Y-117700001D02*
X50169999Y-129700007D01*
X89270000Y-111650008D02*
X101270006Y-111650008D01*
X172707535Y-173850041D02*
X158326277Y-173850041D01*
X213095056Y-130700018D02*
X225095063Y-130700018D01*
X384638899Y-173850041D02*
X370257641Y-173850041D01*
X300760756Y-173952406D02*
G75*
G03*
X301320105Y-173054658I-440856J897806D01*
G01*
X265482585Y-154800085D02*
G75*
G03*
X264482585Y-155800031I-85J-999915D01*
G01*
X101270026Y-118736974D02*
G75*
G03*
X100269999Y-117736974I-1000026J-26D01*
G01*
D10*
X302679000Y-91827000D02*
G75*
G03*
X302679000Y-91827000I-950000J0D01*
G01*
D11*
X383153566Y-117267166D02*
G75*
G03*
X382252691Y-116701341I-900866J-434234D01*
G01*
X70220000Y-149750008D02*
X82220006Y-149750008D01*
X146420020Y-97650019D02*
G75*
G03*
X145420019Y-98650001I80J-1000081D01*
G01*
X278770092Y-98650001D02*
X278770092Y-110650007D01*
X248907576Y-149750076D02*
G75*
G03*
X249907576Y-148750028I-76J1000076D01*
G01*
X369257641Y-174850042D02*
X369257641Y-186850048D01*
X83220007Y-186850007D02*
X83220007Y-174850001D01*
D10*
X26229000Y-91827000D02*
G75*
G03*
X26229000Y-91827000I-950000J0D01*
G01*
D11*
X127370010Y-97650009D02*
G75*
G03*
X126370009Y-98650001I90J-1000091D01*
G01*
X51170000Y-149750008D02*
X63170006Y-149750008D01*
X39912949Y-186850000D02*
X33207000Y-186849999D01*
X216857572Y-148750028D02*
G75*
G03*
X217857559Y-149750028I1000028J28D01*
G01*
X201282550Y-154800031D02*
X189282544Y-154800031D01*
X134513764Y-173850063D02*
G75*
G03*
X133513763Y-174850042I-64J-999937D01*
G01*
X32120000Y-97649999D02*
G75*
G03*
X31119999Y-98650001I100J-1000101D01*
G01*
X207045089Y-117700011D02*
G75*
G03*
X206045053Y-116700011I-999989J11D01*
G01*
X141657518Y-135750018D02*
G75*
G03*
X140657518Y-136750021I82J-1000082D01*
G01*
X321345090Y-117700011D02*
G75*
G03*
X320345114Y-116700010I-999990J11D01*
G01*
X62083000Y-186850000D02*
G75*
G03*
X63083000Y-185849999I0J1000000D01*
G01*
X260720082Y-111650008D02*
X272720089Y-111650008D01*
X56083000Y-172849999D02*
X56083000Y-172849999D01*
X307320107Y-171850040D02*
X302320105Y-171850040D01*
X139370017Y-111650018D02*
G75*
G03*
X140370018Y-110650007I83J999918D01*
G01*
X82220006Y-116700000D02*
X70220000Y-116700000D01*
X387476641Y-111539751D02*
G75*
G03*
X386933130Y-112429453I456359J-889649D01*
G01*
X306057607Y-135750021D02*
X294057600Y-135750021D01*
D10*
X302679000Y-193477000D02*
G75*
G03*
X302679000Y-193477000I-950000J0D01*
G01*
D11*
X337013873Y-173850041D02*
X322632616Y-173850041D01*
X306057607Y-149750107D02*
G75*
G03*
X307057607Y-148750028I93J999907D01*
G01*
X244145073Y-116700010D02*
X232145067Y-116700010D01*
X360826386Y-173850041D02*
X346445128Y-173850041D01*
X154945025Y-117700011D02*
X154945025Y-129700017D01*
X322632616Y-154800116D02*
G75*
G03*
X321632616Y-155800031I84J-1000084D01*
G01*
X384633942Y-118788340D02*
X384633942Y-125494289D01*
X231145066Y-117700011D02*
X231145066Y-129700017D01*
X32120000Y-130700008D02*
X44120006Y-130700008D01*
X321632551Y-186850048D02*
G75*
G03*
X322632616Y-187850049I1000049J48D01*
G01*
X148895022Y-116700010D02*
X136895015Y-116700010D01*
X70220000Y-111650008D02*
X82220006Y-111650008D01*
X53645000Y-187850000D02*
X41645000Y-187850000D01*
X112082483Y-129700017D02*
G75*
G03*
X113082502Y-130700017I1000017J17D01*
G01*
X388020112Y-98650001D02*
G75*
G03*
X387015145Y-97650000I-1000012J1D01*
G01*
X174995036Y-130700018D02*
X186995042Y-130700018D01*
X157326276Y-174850042D02*
X157326276Y-186850048D01*
X101270000Y-125442924D02*
X101269999Y-118736974D01*
X70220000Y-97649999D02*
G75*
G03*
X69219999Y-98650001I100J-1000101D01*
G01*
X226382564Y-155800031D02*
X226382564Y-167800038D01*
X64170007Y-129700007D02*
X64170007Y-117700001D01*
X193045083Y-129700017D02*
G75*
G03*
X194045046Y-130700017I1000017J17D01*
G01*
X361826359Y-174850042D02*
G75*
G03*
X360826386Y-173850041I-999959J42D01*
G01*
X353670942Y-150751340D02*
X353670942Y-150751340D01*
X267957586Y-149750086D02*
G75*
G03*
X268957586Y-148750028I-86J1000086D01*
G01*
X370257641Y-173850040D02*
G75*
G03*
X369257640Y-174850042I-41J-999960D01*
G01*
X102269986Y-127174974D02*
G75*
G03*
X101770000Y-126308949I-999886J74D01*
G01*
X69219992Y-129700007D02*
G75*
G03*
X70220000Y-130700008I1000008J7D01*
G01*
X88270026Y-125736974D02*
G75*
G03*
X87269999Y-124736974I-1000026J-26D01*
G01*
X101770011Y-140041019D02*
G75*
G03*
X102270000Y-139174974I-500011J866019D01*
G01*
X86270026Y-161836974D02*
G75*
G03*
X87269999Y-162836974I999974J-26D01*
G01*
X302582605Y-155800031D02*
X302582605Y-167800038D01*
X313201361Y-173850041D02*
X309320108Y-173850041D01*
X222620062Y-97650061D02*
G75*
G03*
X221620061Y-98650001I-62J-999939D01*
G01*
X187995043Y-129700017D02*
X187995043Y-117700011D01*
X221332561Y-167800038D02*
X221332561Y-155800031D01*
X40779013Y-187349978D02*
G75*
G03*
X39912949Y-186850000I-866013J-500022D01*
G01*
X87269999Y-162836974D02*
X87269999Y-162836974D01*
X212094983Y-129700017D02*
G75*
G03*
X213095056Y-130700017I1000017J17D01*
G01*
X383634392Y-151750042D02*
G75*
G03*
X384633942Y-150751340I808J998742D01*
G01*
X86269999Y-156836974D02*
X86269999Y-161836974D01*
X384633931Y-125494289D02*
G75*
G03*
X385133942Y-126360314I999969J-11D01*
G01*
X173994982Y-129700017D02*
G75*
G03*
X174995036Y-130700018I1000018J17D01*
G01*
X208332554Y-168800039D02*
X220332560Y-168800039D01*
X202282551Y-167800038D02*
X202282551Y-155800031D01*
X258432581Y-168800082D02*
G75*
G03*
X259432582Y-167800038I-81J1000082D01*
G01*
X288263847Y-186850047D02*
G75*
G03*
X289263847Y-185850048I-47J1000047D01*
G01*
X110796160Y-169775940D02*
G75*
G03*
X111796141Y-170775940I999940J-60D01*
G01*
X69219999Y-155800001D02*
X69219999Y-167800007D01*
X347821385Y-155800031D02*
X347821385Y-167800038D01*
X83220007Y-129700007D02*
X83220007Y-117700001D01*
X70220000Y-130700008D02*
X82220006Y-130700008D01*
D10*
X395335250Y-197564500D02*
G75*
G03*
X397716500Y-195183250I-50J2381300D01*
G01*
D11*
X194045046Y-130700018D02*
X206045053Y-130700018D01*
X278482570Y-155800031D02*
G75*
G03*
X277482591Y-154800030I-999970J31D01*
G01*
X88270026Y-163836974D02*
G75*
G03*
X87269999Y-162836974I-1000026J-26D01*
G01*
X273720089Y-110650007D02*
X273720089Y-98650001D01*
X87269999Y-155836999D02*
G75*
G03*
X86269999Y-156836974I1J-1000001D01*
G01*
X255957580Y-149750028D02*
X267957586Y-149750028D01*
X264195084Y-129700017D02*
X264195084Y-117700011D01*
X89270000Y-97649999D02*
G75*
G03*
X88269999Y-98650001I100J-1000101D01*
G01*
X270245087Y-130700018D02*
X282245094Y-130700018D01*
X207332553Y-155800031D02*
X207332553Y-167800038D01*
X345445128Y-117700011D02*
X345445128Y-129700017D01*
X291770099Y-111650000D02*
G75*
G03*
X292770100Y-110650007I101J999900D01*
G01*
X51170000Y-116699999D02*
G75*
G03*
X50169999Y-117700001I100J-1000101D01*
G01*
X268957587Y-148750028D02*
X268957587Y-136750021D01*
X82220006Y-135750000D02*
X70220000Y-135750000D01*
X102270000Y-165274974D02*
X102270000Y-177274974D01*
X240669992Y-110650007D02*
G75*
G03*
X241670072Y-111650008I1000008J7D01*
G01*
X246432574Y-154800074D02*
G75*
G03*
X245432574Y-155800031I-74J-999926D01*
G01*
X165470031Y-97649930D02*
G75*
G03*
X164470030Y-98650001I169J-1000170D01*
G01*
X356057141Y-112429447D02*
G75*
G03*
X355513630Y-111539724I-1000241J-153D01*
G01*
X83220007Y-167800007D02*
X83220007Y-155800001D01*
X386933130Y-112429453D02*
X386933151Y-112650008D01*
X206045053Y-130700054D02*
G75*
G03*
X207045054Y-129700017I-53J1000054D01*
G01*
X38207000Y-171849999D02*
X33207000Y-171849999D01*
X110796112Y-169555386D02*
G75*
G03*
X110252642Y-168665663I-1000212J-114D01*
G01*
X101270000Y-179007025D02*
X101269999Y-185712974D01*
X63170006Y-111650007D02*
G75*
G03*
X64170007Y-110650007I94J999907D01*
G01*
X359445136Y-129700017D02*
X359445136Y-117700011D01*
X44120006Y-149750007D02*
G75*
G03*
X45120007Y-148750007I94J999907D01*
G01*
X178757472Y-148750028D02*
G75*
G03*
X179757538Y-149750028I1000028J28D01*
G01*
X320345114Y-116700010D02*
X308345108Y-116700010D01*
X226094989Y-117700011D02*
G75*
G03*
X225095063Y-116700011I-999989J11D01*
G01*
X371217446Y-155300014D02*
G75*
G03*
X372083443Y-155800032I866054J500014D01*
G01*
X264482584Y-155800031D02*
X264482584Y-167800038D01*
X348913361Y-169800039D02*
G75*
G03*
X349913380Y-170800039I1000039J39D01*
G01*
X70220000Y-116699999D02*
G75*
G03*
X69219999Y-117700001I100J-1000101D01*
G01*
X40778975Y-187350000D02*
G75*
G03*
X41645000Y-187850000I866025J500000D01*
G01*
X172707535Y-135750021D02*
X160707528Y-135750021D01*
D10*
X23860250Y-88027000D02*
G75*
G03*
X21479000Y-90408250I0J-2381250D01*
G01*
D11*
X372789462Y-169800039D02*
G75*
G03*
X371789392Y-168800038I-1000062J-61D01*
G01*
X32120000Y-154799999D02*
G75*
G03*
X31119999Y-155800001I100J-1000101D01*
G01*
X87269999Y-124736974D02*
X87269999Y-124736974D01*
X87269999Y-179712974D02*
X87269999Y-179712974D01*
D10*
X394829000Y-91827000D02*
G75*
G03*
X394829000Y-91827000I-950000J0D01*
G01*
D11*
X380789398Y-168800038D02*
X387021398Y-168800039D01*
X86269999Y-180712974D02*
X86269999Y-185712974D01*
X345157628Y-148750028D02*
X345157628Y-136750021D01*
X345445083Y-129700017D02*
G75*
G03*
X346445128Y-130700017I1000017J17D01*
G01*
X167945032Y-130700033D02*
G75*
G03*
X168945033Y-129700017I68J999933D01*
G01*
X32120000Y-168800008D02*
X44120006Y-168800008D01*
X184520041Y-97650040D02*
G75*
G03*
X183520040Y-98650001I-41J-999960D01*
G01*
X144140392Y-168775992D02*
G75*
G03*
X145140392Y-167775940I-92J1000092D01*
G01*
X361675887Y-149750028D02*
X376551895Y-149750028D01*
X70220000Y-173849999D02*
G75*
G03*
X69219999Y-174850001I100J-1000101D01*
G01*
X321632615Y-174850042D02*
X321632615Y-186850048D01*
X160707528Y-149750028D02*
X172707535Y-149750028D01*
X55083000Y-173850000D02*
X40207000Y-173850000D01*
X192757545Y-148750028D02*
X192757545Y-136750021D01*
X321345115Y-129700017D02*
X321345115Y-117700011D01*
X158420027Y-97650000D02*
X146420020Y-97650000D01*
X236907569Y-135750069D02*
G75*
G03*
X235907569Y-136750021I-69J-999931D01*
G01*
X45120007Y-129700007D02*
X45120007Y-117700001D01*
X125082509Y-130700010D02*
G75*
G03*
X126082510Y-129700017I91J999910D01*
G01*
X203570051Y-111650008D02*
X215570058Y-111650008D01*
D10*
X210529000Y-91827000D02*
G75*
G03*
X210529000Y-91827000I-950000J0D01*
G01*
D11*
X338013874Y-186850048D02*
X338013874Y-174850042D01*
X302320105Y-171850104D02*
G75*
G03*
X301320104Y-172850041I-105J-999896D01*
G01*
X198807549Y-135750049D02*
G75*
G03*
X197807549Y-136750021I-49J-999951D01*
G01*
X245432574Y-155800031D02*
X245432574Y-167800038D01*
X86269999Y-142612974D02*
X86269999Y-147612974D01*
X263195084Y-116700010D02*
X251195077Y-116700010D01*
X63170006Y-149750007D02*
G75*
G03*
X64170007Y-148750007I94J999907D01*
G01*
X183263790Y-171850089D02*
G75*
G03*
X182263789Y-172850041I-90J-999911D01*
G01*
X191757545Y-149750045D02*
G75*
G03*
X192757545Y-148750028I-45J1000045D01*
G01*
X63170006Y-116700000D02*
X51170000Y-116700000D01*
X336920123Y-97650022D02*
G75*
G03*
X335920122Y-98650001I77J-1000078D01*
G01*
X101270016Y-163542924D02*
G75*
G03*
X101770000Y-164408949I999884J-76D01*
G01*
X360826386Y-187850087D02*
G75*
G03*
X361826387Y-186850048I-86J1000087D01*
G01*
X288295097Y-117700011D02*
X288295097Y-129700017D01*
X282263844Y-172850041D02*
X282263844Y-185850048D01*
X31119992Y-129700007D02*
G75*
G03*
X32120000Y-130700008I1000008J7D01*
G01*
X145140392Y-155775939D02*
X145140392Y-167775940D01*
X153657524Y-135750021D02*
X141657518Y-135750021D01*
X289263860Y-172850041D02*
G75*
G03*
X288263847Y-171850040I-999960J41D01*
G01*
X32120000Y-149750008D02*
X44120006Y-149750008D01*
X359675886Y-151750086D02*
G75*
G03*
X360675886Y-150750029I-86J1000086D01*
G01*
X118796142Y-168775939D02*
X133672142Y-168775939D01*
X240382569Y-155800031D02*
G75*
G03*
X239382571Y-154800031I-999969J31D01*
G01*
X125082509Y-187850010D02*
G75*
G03*
X126082510Y-186850048I-9J1000010D01*
G01*
X384638899Y-187850100D02*
G75*
G03*
X385638900Y-186850048I-99J1000100D01*
G01*
X225095063Y-116700010D02*
X213095056Y-116700010D01*
X125082509Y-173850041D02*
X110701251Y-173850041D01*
X268957580Y-136750021D02*
G75*
G03*
X267957586Y-135750020I-999980J21D01*
G01*
X357057134Y-113650009D02*
X362057137Y-113650009D01*
X55377050Y-186850000D02*
X62083000Y-186849999D01*
X307345082Y-129700017D02*
G75*
G03*
X308345108Y-130700018I1000018J17D01*
G01*
X186995042Y-130700043D02*
G75*
G03*
X187995043Y-129700017I58J999943D01*
G01*
X109709142Y-155775939D02*
X109709142Y-167775940D01*
X70220000Y-187850008D02*
X82220006Y-187850008D01*
X301320104Y-172850041D02*
X301320104Y-173054658D01*
X44120006Y-168800007D02*
G75*
G03*
X45120007Y-167800007I94J999907D01*
G01*
X235907572Y-148750028D02*
G75*
G03*
X236907569Y-149750028I1000028J28D01*
G01*
X173707535Y-186850048D02*
X173707535Y-174850042D01*
X177470037Y-111649938D02*
G75*
G03*
X178470038Y-110650007I163J999838D01*
G01*
X344157627Y-149750027D02*
G75*
G03*
X345157627Y-148750028I73J999927D01*
G01*
X140370017Y-110650007D02*
X140370017Y-98650001D01*
X303582605Y-154800105D02*
G75*
G03*
X302582605Y-155800031I95J-1000095D01*
G01*
X326107579Y-136750021D02*
G75*
G03*
X325107617Y-135750021I-999979J21D01*
G01*
X307057607Y-148750028D02*
X307057607Y-136750021D01*
X127463760Y-135750021D02*
X110701251Y-135750021D01*
X134672142Y-169775940D02*
X134672142Y-169775940D01*
X196520048Y-97650000D02*
X184520041Y-97650000D01*
X110709142Y-154775940D02*
X144140392Y-154775940D01*
X44120006Y-97650000D02*
X32120000Y-97650000D01*
X134672160Y-169775940D02*
G75*
G03*
X135672142Y-170775940I999940J-60D01*
G01*
X101770011Y-178141019D02*
G75*
G03*
X102270000Y-177274974I-500011J866019D01*
G01*
X44120006Y-116700000D02*
X32120000Y-116700000D01*
X282245094Y-116700010D02*
X270245087Y-116700010D01*
X259432569Y-155800031D02*
G75*
G03*
X258432581Y-154800031I-999969J31D01*
G01*
X373789393Y-170800040D02*
X378789396Y-170800040D01*
X82220006Y-111650007D02*
G75*
G03*
X83220007Y-110650007I94J999907D01*
G01*
X380789398Y-168800097D02*
G75*
G03*
X379789397Y-169800039I-98J-999903D01*
G01*
X44120006Y-111650007D02*
G75*
G03*
X45120007Y-110650007I94J999907D01*
G01*
X168944990Y-117700011D02*
G75*
G03*
X167945032Y-116700010I-999990J11D01*
G01*
X292770099Y-110650007D02*
X292770099Y-98650001D01*
X250195083Y-129700017D02*
G75*
G03*
X251195077Y-130700017I1000017J17D01*
G01*
X335920123Y-98650001D02*
X335920123Y-110650007D01*
X44120006Y-130700007D02*
G75*
G03*
X45120007Y-129700007I94J999907D01*
G01*
D10*
X210529000Y-193477000D02*
G75*
G03*
X210529000Y-193477000I-950000J0D01*
G01*
D11*
X128463761Y-148750028D02*
X128463761Y-136750021D01*
X229857566Y-149750066D02*
G75*
G03*
X230857566Y-148750028I-66J1000066D01*
G01*
X154944982Y-129700017D02*
G75*
G03*
X155945026Y-130700018I1000018J17D01*
G01*
X301295104Y-130700005D02*
G75*
G03*
X302295105Y-129700017I96J999905D01*
G01*
X149895089Y-117700011D02*
G75*
G03*
X148895022Y-116700011I-1000089J-89D01*
G01*
X179757538Y-135750038D02*
G75*
G03*
X178757538Y-136750021I62J-1000062D01*
G01*
X51170000Y-154799999D02*
G75*
G03*
X50169999Y-155800001I100J-1000101D01*
G01*
X207332561Y-167800038D02*
G75*
G03*
X208332554Y-168800039I1000039J38D01*
G01*
X88270000Y-163836974D02*
X88270000Y-178712974D01*
X335920193Y-110650007D02*
G75*
G03*
X336920123Y-111650007I999907J-93D01*
G01*
X353670960Y-150751340D02*
G75*
G03*
X352670942Y-149751340I-999960J40D01*
G01*
X149894958Y-174850042D02*
G75*
G03*
X148895022Y-173850042I-999958J42D01*
G01*
X292770099Y-98650001D02*
G75*
G03*
X291770099Y-97650001I-999999J1D01*
G01*
X216570058Y-110650007D02*
X216570058Y-98650001D01*
X173707479Y-136750021D02*
G75*
G03*
X172707535Y-135750021I-999979J21D01*
G01*
X217857559Y-149750028D02*
X229857566Y-149750028D01*
X120320006Y-97650000D02*
X108320000Y-97650000D01*
X109701251Y-174850042D02*
X109701251Y-186850048D01*
X310820109Y-97650000D02*
X298820103Y-97650000D01*
X51170000Y-135749999D02*
G75*
G03*
X50169999Y-136750001I100J-1000101D01*
G01*
X316582612Y-167800038D02*
X316582612Y-155800031D01*
X339395125Y-130700026D02*
G75*
G03*
X340395126Y-129700017I75J999926D01*
G01*
X182263752Y-185850048D02*
G75*
G03*
X183263790Y-186850048I1000048J48D01*
G01*
X206045053Y-116700010D02*
X194045046Y-116700010D01*
X64170007Y-148750007D02*
X64170007Y-136750001D01*
X53645000Y-187849950D02*
G75*
G03*
X54511025Y-187350000I0J1000050D01*
G01*
X303582605Y-168800039D02*
X315582612Y-168800039D01*
X370633942Y-130701340D02*
X370252691Y-130701340D01*
X191757545Y-135750021D02*
X179757538Y-135750021D01*
X364057138Y-111650008D02*
X378933146Y-111650008D01*
X69219999Y-136750001D02*
X69219999Y-148750007D01*
X63083001Y-172849999D02*
G75*
G03*
X62083000Y-171849999I-1000001J-1D01*
G01*
X344157627Y-135750021D02*
X332157621Y-135750021D01*
X248907576Y-135750021D02*
X236907569Y-135750021D01*
X163182530Y-168800031D02*
G75*
G03*
X164182531Y-167800038I70J999931D01*
G01*
X45120007Y-148750007D02*
X45120007Y-136750001D01*
X39207001Y-172849999D02*
G75*
G03*
X38207000Y-171849999I-1000001J-1D01*
G01*
X354913383Y-170800084D02*
G75*
G03*
X355913384Y-169800039I-83J1000084D01*
G01*
X101270026Y-156836974D02*
G75*
G03*
X100269999Y-155836974I-1000026J-26D01*
G01*
X158420027Y-111650028D02*
G75*
G03*
X159420028Y-110650007I73J999928D01*
G01*
X314201358Y-174850042D02*
G75*
G03*
X313201361Y-173850042I-999958J42D01*
G01*
X228763752Y-186850048D02*
G75*
G03*
X229763815Y-187850048I1000048J48D01*
G01*
X69219999Y-98650001D02*
X69219999Y-110650007D01*
X293057600Y-136750021D02*
X293057600Y-148750028D01*
X297820102Y-98650001D02*
X297820102Y-110650007D01*
X45120007Y-110650007D02*
X45120007Y-98650001D01*
X51170000Y-97649999D02*
G75*
G03*
X50169999Y-98650001I100J-1000101D01*
G01*
X32207000Y-172849999D02*
X32207000Y-185849999D01*
X308345108Y-116700007D02*
G75*
G03*
X307345107Y-117700011I92J-1000093D01*
G01*
X187994990Y-117700011D02*
G75*
G03*
X186995042Y-116700010I-999990J11D01*
G01*
X235620069Y-110650007D02*
X235620069Y-98650001D01*
X312107610Y-136750021D02*
X312107610Y-148750028D01*
X151182523Y-154800023D02*
G75*
G03*
X150182523Y-155800031I77J-1000077D01*
G01*
X101769989Y-140040981D02*
G75*
G03*
X101270000Y-140907025I500011J-866019D01*
G01*
X298820103Y-111650008D02*
X310820109Y-111650008D01*
X44120006Y-154800000D02*
X32120000Y-154800000D01*
X378789396Y-170800097D02*
G75*
G03*
X379789397Y-169800039I-96J1000097D01*
G01*
X258432581Y-154800031D02*
X246432574Y-154800031D01*
X283263844Y-171850043D02*
G75*
G03*
X282263843Y-172850041I-44J-999957D01*
G01*
X259720082Y-98650001D02*
X259720082Y-110650007D01*
X246432574Y-168800039D02*
X258432581Y-168800039D01*
X338013859Y-174850042D02*
G75*
G03*
X337013873Y-173850041I-999959J42D01*
G01*
X172707535Y-149750035D02*
G75*
G03*
X173707535Y-148750028I65J999935D01*
G01*
X64170000Y-155800001D02*
G75*
G03*
X63170006Y-154800000I-1000000J1D01*
G01*
X31119999Y-155800001D02*
X31119999Y-167800007D01*
X55083000Y-173850000D02*
G75*
G03*
X56083000Y-172849999I0J1000000D01*
G01*
X302295090Y-117700011D02*
G75*
G03*
X301295104Y-116700010I-999990J11D01*
G01*
X140672142Y-170775942D02*
G75*
G03*
X141672142Y-169775940I-42J1000042D01*
G01*
X300201352Y-186850048D02*
G75*
G03*
X301201354Y-187850048I1000048J48D01*
G01*
X335632623Y-167800038D02*
X335632623Y-155800031D01*
X164470030Y-98650001D02*
X164470030Y-110650007D01*
X135672142Y-170775939D02*
X140672142Y-170775939D01*
X226095063Y-129700017D02*
X226095063Y-117700011D01*
X322632616Y-168800039D02*
X334632622Y-168800039D01*
X211807556Y-148750028D02*
X211807556Y-136750021D01*
X83220000Y-98650001D02*
G75*
G03*
X82220006Y-97650000I-1000000J1D01*
G01*
X32120000Y-135749999D02*
G75*
G03*
X31119999Y-136750001I100J-1000101D01*
G01*
X63170006Y-97650000D02*
X51170000Y-97650000D01*
X51170000Y-111650008D02*
X63170006Y-111650008D01*
X157326251Y-186850048D02*
G75*
G03*
X158326277Y-187850049I1000049J48D01*
G01*
X228763815Y-174850042D02*
X228763815Y-186850048D01*
X167945032Y-116700010D02*
X155945026Y-116700010D01*
X259720093Y-110650007D02*
G75*
G03*
X260720082Y-111650007I1000007J7D01*
G01*
X370633942Y-135751342D02*
G75*
G03*
X371633942Y-134751340I-42J1000042D01*
G01*
X277482591Y-168800092D02*
G75*
G03*
X278482592Y-167800038I-91J1000092D01*
G01*
X184520041Y-111650008D02*
X196520048Y-111650008D01*
X377551871Y-150750029D02*
G75*
G03*
X376551895Y-149750029I-999971J29D01*
G01*
X308345108Y-130700018D02*
X320345114Y-130700018D01*
X277482591Y-154800031D02*
X265482585Y-154800031D01*
X51170000Y-168800008D02*
X63170006Y-168800008D01*
X197519999Y-98650001D02*
G75*
G03*
X196520048Y-97650001I-999799J201D01*
G01*
X215570058Y-111650059D02*
G75*
G03*
X216570059Y-110650007I-58J1000059D01*
G01*
X221620061Y-98650001D02*
X221620061Y-110650007D01*
X370252691Y-116701340D02*
X382252692Y-116701340D01*
X288007597Y-148750028D02*
X288007597Y-136750021D01*
X385633942Y-127226340D02*
X385633942Y-139226340D01*
X140657517Y-136750021D02*
X140657517Y-148750028D01*
X278770093Y-110650007D02*
G75*
G03*
X279770092Y-111650007I1000007J7D01*
G01*
X322632616Y-173850115D02*
G75*
G03*
X321632615Y-174850042I84J-1000085D01*
G01*
X109701252Y-186850048D02*
G75*
G03*
X110701251Y-187850048I1000048J48D01*
G01*
X188282561Y-167800038D02*
G75*
G03*
X189282544Y-168800039I1000039J38D01*
G01*
X211807480Y-136750021D02*
G75*
G03*
X210807555Y-135750020I-999980J21D01*
G01*
X331157620Y-136750021D02*
X331157620Y-148750028D01*
X226382562Y-167800038D02*
G75*
G03*
X227382564Y-168800038I1000038J38D01*
G01*
X112082502Y-117700011D02*
X112082502Y-129700017D01*
X348821386Y-154800086D02*
G75*
G03*
X347821386Y-155800031I-86J-999914D01*
G01*
X320345114Y-130700015D02*
G75*
G03*
X321345115Y-129700017I86J999915D01*
G01*
X288263847Y-171850040D02*
X283263844Y-171850040D01*
X169232533Y-155800031D02*
X169232533Y-167800038D01*
X202570051Y-98650001D02*
X202570051Y-110650007D01*
X297532669Y-155800031D02*
G75*
G03*
X296532602Y-154800031I-1000069J-69D01*
G01*
X316870113Y-98650001D02*
X316870113Y-110650007D01*
X387021398Y-168800099D02*
G75*
G03*
X388021399Y-167800038I-98J1000099D01*
G01*
X107319999Y-98650001D02*
X107319999Y-110650007D01*
X82220006Y-149750007D02*
G75*
G03*
X83220007Y-148750007I94J999907D01*
G01*
X183232569Y-155800031D02*
G75*
G03*
X182232540Y-154800031I-1000069J-69D01*
G01*
X110701251Y-187850049D02*
X125082509Y-187850049D01*
X317870113Y-111650008D02*
X329870120Y-111650008D01*
X121320007Y-110650007D02*
X121320007Y-98650001D01*
X349913380Y-170800040D02*
X354913383Y-170800040D01*
X178470038Y-110650007D02*
X178470038Y-98650001D01*
X126370010Y-98650001D02*
X126370010Y-110650007D01*
X31119999Y-136750001D02*
X31119999Y-148750007D01*
X149895022Y-129700017D02*
X149895022Y-117700011D01*
X110701251Y-149750028D02*
X127463760Y-149750028D01*
X297532602Y-167800038D02*
X297532602Y-155800031D01*
X210807555Y-149750055D02*
G75*
G03*
X211807555Y-148750028I-55J1000055D01*
G01*
X222620062Y-111650008D02*
X234620068Y-111650008D01*
X83220007Y-110650007D02*
X83220007Y-98650001D01*
X170232533Y-168800039D02*
X182232540Y-168800039D01*
X345157580Y-136750021D02*
G75*
G03*
X344157627Y-135750020I-999980J21D01*
G01*
X385633959Y-127226340D02*
G75*
G03*
X385133942Y-126360315I-1000259J-160D01*
G01*
X220332560Y-154800031D02*
X208332554Y-154800031D01*
X230857566Y-148750028D02*
X230857566Y-136750021D01*
X378551896Y-151750029D02*
X383634392Y-151750029D01*
X387015145Y-97650000D02*
X355965139Y-97650000D01*
X310820109Y-111650010D02*
G75*
G03*
X311820110Y-110650007I91J999910D01*
G01*
X354670942Y-151751340D02*
X359675886Y-151750029D01*
X126369993Y-110650007D02*
G75*
G03*
X127370010Y-111650007I1000007J7D01*
G01*
X109701172Y-148750028D02*
G75*
G03*
X110701251Y-149750028I1000128J128D01*
G01*
X316582569Y-155800031D02*
G75*
G03*
X315582612Y-154800031I-999969J31D01*
G01*
X101270016Y-125442924D02*
G75*
G03*
X101770000Y-126308949I999884J-76D01*
G01*
X267957586Y-135750021D02*
X255957580Y-135750021D01*
X133513751Y-186850048D02*
G75*
G03*
X134513764Y-187850049I1000049J48D01*
G01*
X229763815Y-173850114D02*
G75*
G03*
X228763814Y-174850042I85J-1000086D01*
G01*
X32120000Y-111650008D02*
X44120006Y-111650008D01*
X63170006Y-168800007D02*
G75*
G03*
X64170007Y-167800007I94J999907D01*
G01*
X168945033Y-129700017D02*
X168945033Y-117700011D01*
X296532602Y-154800031D02*
X284532595Y-154800031D01*
D10*
X395335250Y-197564500D02*
X23860250Y-197564500D01*
D11*
X39207000Y-172849999D02*
G75*
G03*
X40207000Y-173850000I1000000J-1D01*
G01*
X356913384Y-168800039D02*
X371789392Y-168800039D01*
X50169999Y-136750001D02*
X50169999Y-148750007D01*
X127463760Y-149750060D02*
G75*
G03*
X128463760Y-148750028I-60J1000060D01*
G01*
X83220000Y-155800001D02*
G75*
G03*
X82220006Y-154800000I-1000000J1D01*
G01*
X64170000Y-136750001D02*
G75*
G03*
X63170006Y-135750000I-1000000J1D01*
G01*
X196520048Y-111650049D02*
G75*
G03*
X197520049Y-110650007I-48J1000049D01*
G01*
X311820110Y-110650007D02*
X311820110Y-98650001D01*
X249907579Y-136750021D02*
G75*
G03*
X248907576Y-135750021I-999979J21D01*
G01*
X289263848Y-185850048D02*
X289263848Y-172850041D01*
X110701251Y-173850050D02*
G75*
G03*
X109701250Y-174850042I-51J-999950D01*
G01*
X64170007Y-167800007D02*
X64170007Y-155800001D01*
X135895015Y-117700011D02*
X135895015Y-129700017D01*
X369252760Y-129701340D02*
G75*
G03*
X370252691Y-130701340I999940J-60D01*
G01*
X194020046Y-185850048D02*
X194020046Y-172850041D01*
X322632616Y-187850049D02*
X337013873Y-187850049D01*
X388020130Y-110650007D02*
X388020130Y-98650001D01*
X351202692Y-149751340D02*
X352670942Y-149751340D01*
X174995036Y-116700035D02*
G75*
G03*
X173995035Y-117700011I64J-1000065D01*
G01*
X159707528Y-136750021D02*
X159707528Y-148750028D01*
X340395189Y-117700011D02*
G75*
G03*
X339395125Y-116700011I-1000089J-89D01*
G01*
X148895022Y-173850041D02*
X134513764Y-173850041D01*
X127370010Y-111650008D02*
X139370017Y-111650008D01*
X254670059Y-174850042D02*
G75*
G03*
X253670078Y-173850041I-999959J42D01*
G01*
X87269999Y-148612974D02*
X100269999Y-148612974D01*
X263195084Y-130700085D02*
G75*
G03*
X264195085Y-129700017I-84J1000085D01*
G01*
X274007571Y-148750028D02*
G75*
G03*
X275007590Y-149750029I1000029J28D01*
G01*
X245145074Y-129700017D02*
X245145074Y-117700011D01*
X207045053Y-129700017D02*
X207045053Y-117700011D01*
X385133925Y-140092335D02*
G75*
G03*
X384633942Y-140958390I500275J-866165D01*
G01*
X348913370Y-169800039D02*
G75*
G03*
X348370894Y-168802970I-1187470J39D01*
G01*
X255957580Y-135750080D02*
G75*
G03*
X254957580Y-136750021I-80J-999920D01*
G01*
X69219992Y-186850007D02*
G75*
G03*
X70220000Y-187850008I1000008J7D01*
G01*
X63083000Y-172849999D02*
X63083000Y-185849999D01*
X88269999Y-98650001D02*
X88269999Y-110650007D01*
X302582562Y-167800038D02*
G75*
G03*
X303582605Y-168800038I1000038J38D01*
G01*
X313107610Y-149750028D02*
X325107617Y-149750028D01*
X126082509Y-186850048D02*
X126082509Y-174850042D01*
X315582612Y-168800113D02*
G75*
G03*
X316582613Y-167800038I88J999913D01*
G01*
X379933192Y-112650008D02*
G75*
G03*
X380933147Y-113650008I1000008J8D01*
G01*
X57083000Y-171850000D02*
G75*
G03*
X56083000Y-172849999I0J-1000000D01*
G01*
X210807555Y-135750021D02*
X198807549Y-135750021D01*
X134672160Y-169775940D02*
G75*
G03*
X133672142Y-168775940I-999960J40D01*
G01*
X371633960Y-131701340D02*
G75*
G03*
X370633942Y-130701340I-999960J40D01*
G01*
X83220007Y-148750007D02*
X83220007Y-136750001D01*
X217857559Y-135750059D02*
G75*
G03*
X216857559Y-136750021I-59J-999941D01*
G01*
X170232533Y-154800033D02*
G75*
G03*
X169232533Y-155800031I67J-1000067D01*
G01*
X173707535Y-148750028D02*
X173707535Y-136750021D01*
X32120000Y-116699999D02*
G75*
G03*
X31119999Y-117700001I100J-1000101D01*
G01*
X173995035Y-117700011D02*
X173995035Y-129700017D01*
X86269999Y-118736974D02*
X86269999Y-123736974D01*
X203570051Y-97650050D02*
G75*
G03*
X202570050Y-98650001I-51J-999950D01*
G01*
X82220006Y-154800000D02*
X70220000Y-154800000D01*
X272720089Y-97650000D02*
X260720082Y-97650000D01*
X372789461Y-169800039D02*
G75*
G03*
X373789393Y-170800039I999939J-61D01*
G01*
X50169992Y-129700007D02*
G75*
G03*
X51170000Y-130700008I1000008J7D01*
G01*
X334632622Y-168800123D02*
G75*
G03*
X335632623Y-167800038I78J999923D01*
G01*
X69219992Y-148750007D02*
G75*
G03*
X70220000Y-149750008I1000008J7D01*
G01*
X145419993Y-110650007D02*
G75*
G03*
X146420020Y-111650007I1000007J7D01*
G01*
X388021370Y-155800031D02*
G75*
G03*
X387021398Y-154800030I-999970J31D01*
G01*
X259432581Y-167800038D02*
X259432581Y-155800031D01*
X113082502Y-130700018D02*
X125082509Y-130700018D01*
X154657480Y-136750021D02*
G75*
G03*
X153657524Y-135750020I-999980J21D01*
G01*
X220332560Y-168800061D02*
G75*
G03*
X221332561Y-167800038I-60J1000061D01*
G01*
X134513764Y-187850049D02*
X148895022Y-187850049D01*
X64170000Y-98650001D02*
G75*
G03*
X63170006Y-97650000I-1000000J1D01*
G01*
X197520048Y-110650007D02*
X197520048Y-98650001D01*
X346445128Y-187850049D02*
X360826386Y-187850049D01*
X229857566Y-135750021D02*
X217857559Y-135750021D01*
X193020046Y-171850040D02*
X183263790Y-171850040D01*
X253670078Y-173850041D02*
X229763815Y-173850041D01*
X173707558Y-174850042D02*
G75*
G03*
X172707535Y-173850042I-1000058J-58D01*
G01*
X164182530Y-167800038D02*
X164182530Y-155800031D01*
X254670079Y-186850048D02*
X254670079Y-174850042D01*
X87269999Y-141613000D02*
G75*
G03*
X88270000Y-140612974I1J1000000D01*
G01*
X254957571Y-148750028D02*
G75*
G03*
X255957580Y-149750029I1000029J28D01*
G01*
X283532595Y-155800031D02*
X283532595Y-167800038D01*
X159419999Y-98650001D02*
G75*
G03*
X158420027Y-97650001I-999999J1D01*
G01*
X155945026Y-116700025D02*
G75*
G03*
X154945025Y-117700011I74J-1000075D01*
G01*
X164470092Y-110650007D02*
G75*
G03*
X165470031Y-111650008I999908J-93D01*
G01*
X353670960Y-150751340D02*
G75*
G03*
X354670942Y-151751340I999940J-60D01*
G01*
X345445152Y-186850048D02*
G75*
G03*
X346445128Y-187850048I999948J-52D01*
G01*
X301295104Y-116700010D02*
X289295098Y-116700010D01*
X110701251Y-135749951D02*
G75*
G03*
X109701251Y-136750021I49J-1000049D01*
G01*
X236907569Y-149750028D02*
X248907576Y-149750028D01*
X383153522Y-117267187D02*
G75*
G03*
X383844154Y-117810684I900778J434087D01*
G01*
X216570099Y-98650001D02*
G75*
G03*
X215570058Y-97650001I-999999J1D01*
G01*
X369252691Y-117701340D02*
X369252691Y-129701340D01*
X102270007Y-110650007D02*
X102270007Y-98650001D01*
X86270026Y-123736974D02*
G75*
G03*
X87269999Y-124736974I999974J-26D01*
G01*
X121320000Y-98650001D02*
G75*
G03*
X120320006Y-97650000I-1000000J1D01*
G01*
X253670078Y-187850079D02*
G75*
G03*
X254670079Y-186850048I-78J1000079D01*
G01*
X354970130Y-98650001D02*
X354970130Y-110650001D01*
X70220000Y-154799999D02*
G75*
G03*
X69219999Y-155800001I100J-1000101D01*
G01*
X384633942Y-150751340D02*
X384633942Y-140958390D01*
X270245087Y-116700086D02*
G75*
G03*
X269245086Y-117700011I113J-1000114D01*
G01*
X212095056Y-117700011D02*
X212095056Y-129700017D01*
X69219999Y-117700001D02*
X69219999Y-129700007D01*
X250195077Y-117700011D02*
X250195077Y-129700017D01*
X159707472Y-148750028D02*
G75*
G03*
X160707528Y-149750028I1000028J28D01*
G01*
X330870099Y-98650001D02*
G75*
G03*
X329870120Y-97650001I-999999J1D01*
G01*
X345445128Y-174850042D02*
X345445128Y-186850048D01*
X283263844Y-186850048D02*
X288263847Y-186850048D01*
X265482585Y-168800039D02*
X277482591Y-168800039D01*
X234620068Y-97650000D02*
X222620062Y-97650000D01*
X294057600Y-149750028D02*
X306057607Y-149750028D01*
X160707528Y-135750028D02*
G75*
G03*
X159707528Y-136750021I72J-1000072D01*
G01*
X284532595Y-154800095D02*
G75*
G03*
X283532595Y-155800031I-95J-999905D01*
G01*
X82220006Y-168800007D02*
G75*
G03*
X83220007Y-167800007I94J999907D01*
G01*
X45120000Y-136750001D02*
G75*
G03*
X44120006Y-135750000I-1000000J1D01*
G01*
X340395125Y-129700017D02*
X340395125Y-117700011D01*
X158326277Y-187850049D02*
X172707535Y-187850049D01*
X327395118Y-130700018D02*
X339395125Y-130700018D01*
X348920130Y-111650031D02*
G75*
G03*
X349920131Y-110650007I70J999931D01*
G01*
X163182530Y-154800031D02*
X151182523Y-154800031D01*
X300201354Y-174850042D02*
X300201354Y-186850048D01*
X126082458Y-174850042D02*
G75*
G03*
X125082509Y-173850042I-999958J42D01*
G01*
X165470031Y-111650008D02*
X177470037Y-111650008D01*
X364057138Y-111649938D02*
G75*
G03*
X363057138Y-112650008I162J-1000162D01*
G01*
X230857579Y-136750021D02*
G75*
G03*
X229857566Y-135750021I-999979J21D01*
G01*
X379933193Y-112650008D02*
G75*
G03*
X378933146Y-111650007I-999993J8D01*
G01*
D10*
X397716500Y-90408250D02*
G75*
G03*
X395335250Y-88027000I-2381300J-50D01*
G01*
D11*
X313201361Y-187850062D02*
G75*
G03*
X314201362Y-186850048I-61J1000062D01*
G01*
X125082509Y-116700010D02*
X113082502Y-116700010D01*
X332157621Y-149750028D02*
X344157627Y-149750028D01*
X101769989Y-178140981D02*
G75*
G03*
X101270000Y-179007025I500011J-866019D01*
G01*
D10*
X394829000Y-193477000D02*
G75*
G03*
X394829000Y-193477000I-950000J0D01*
G01*
D11*
X289295098Y-130700018D02*
X301295104Y-130700018D01*
X86270026Y-185712974D02*
G75*
G03*
X87269999Y-186712974I999974J-26D01*
G01*
X385933150Y-113650051D02*
G75*
G03*
X386933151Y-112650008I-50J1000051D01*
G01*
X150182522Y-155800031D02*
X150182522Y-167800038D01*
X69219992Y-110650007D02*
G75*
G03*
X70220000Y-111650008I1000008J7D01*
G01*
X283245089Y-117700011D02*
G75*
G03*
X282245094Y-116700011I-999989J11D01*
G01*
X110709142Y-154775942D02*
G75*
G03*
X109709142Y-155775939I58J-1000058D01*
G01*
X325107617Y-135750021D02*
X313107610Y-135750021D01*
X221620092Y-110650007D02*
G75*
G03*
X222620062Y-111650008I1000008J7D01*
G01*
X116796142Y-170775942D02*
G75*
G03*
X117796142Y-169775940I-42J1000042D01*
G01*
X349920130Y-110650007D02*
X349920130Y-98650001D01*
X88270000Y-125736974D02*
X88270000Y-140612974D01*
X346445128Y-116700027D02*
G75*
G03*
X345445127Y-117700011I72J-1000073D01*
G01*
X194020059Y-172850041D02*
G75*
G03*
X193020046Y-171850041I-999959J41D01*
G01*
X282245094Y-130700095D02*
G75*
G03*
X283245095Y-129700017I106J999895D01*
G01*
X361826387Y-186850048D02*
X361826387Y-174850042D01*
X189282544Y-168800039D02*
X201282550Y-168800039D01*
X102270000Y-98650001D02*
G75*
G03*
X101270006Y-97650000I-1000000J1D01*
G01*
X87269999Y-186712974D02*
X100269999Y-186712974D01*
X100269999Y-186712999D02*
G75*
G03*
X101269999Y-185712974I1J999999D01*
G01*
X83220000Y-117700001D02*
G75*
G03*
X82220006Y-116700000I-1000000J1D01*
G01*
X349920199Y-98650001D02*
G75*
G03*
X348920130Y-97650001I-1000099J-99D01*
G01*
X197807548Y-136750021D02*
X197807548Y-148750028D01*
X294057600Y-135750100D02*
G75*
G03*
X293057600Y-136750021I100J-1000100D01*
G01*
X283245094Y-129700017D02*
X283245094Y-117700011D01*
X331157571Y-148750028D02*
G75*
G03*
X332157621Y-149750029I1000029J28D01*
G01*
X240670071Y-98650001D02*
X240670071Y-110650007D01*
X384633949Y-118788340D02*
G75*
G03*
X383844155Y-117810684I-999949J40D01*
G01*
X288007580Y-136750021D02*
G75*
G03*
X287007596Y-135750020I-999980J21D01*
G01*
X208332554Y-154800054D02*
G75*
G03*
X207332554Y-155800031I-54J-999946D01*
G01*
D10*
X118379000Y-91827000D02*
G75*
G03*
X118379000Y-91827000I-950000J0D01*
G01*
D11*
X330870120Y-110650007D02*
X330870120Y-98650001D01*
X282263852Y-185850048D02*
G75*
G03*
X283263844Y-186850048I1000048J48D01*
G01*
X62083000Y-171849999D02*
X57083000Y-171849999D01*
X111796141Y-170775939D02*
X116796142Y-170775939D01*
X102270000Y-127174974D02*
X102270000Y-139174974D01*
X126082509Y-129700017D02*
X126082509Y-117700011D01*
X182232540Y-168800041D02*
G75*
G03*
X183232541Y-167800038I60J999941D01*
G01*
X373289341Y-155800028D02*
G75*
G03*
X374155367Y-155300031I159J999728D01*
G01*
X193020046Y-186850046D02*
G75*
G03*
X194020046Y-185850048I-46J1000046D01*
G01*
X83220000Y-136750001D02*
G75*
G03*
X82220006Y-135750000I-1000000J1D01*
G01*
X279770092Y-111650008D02*
X291770099Y-111650008D01*
X128463780Y-136750021D02*
G75*
G03*
X127463760Y-135750020I-999980J21D01*
G01*
X356913384Y-168800084D02*
G75*
G03*
X355913384Y-169800039I-84J-999916D01*
G01*
X336920123Y-111650008D02*
X348920130Y-111650008D01*
X120320006Y-111650007D02*
G75*
G03*
X121320007Y-110650007I94J999907D01*
G01*
X183263790Y-186850048D02*
X193020046Y-186850048D01*
X64170007Y-110650007D02*
X64170007Y-98650001D01*
X355965139Y-97650043D02*
G75*
G03*
X354970130Y-98650001I5061J-1000057D01*
G01*
X194045046Y-116700045D02*
G75*
G03*
X193045045Y-117700011I-46J-999955D01*
G01*
X179757538Y-149750028D02*
X191757545Y-149750028D01*
X377551870Y-150750029D02*
G75*
G03*
X378551896Y-151750030I1000030J29D01*
G01*
X241670072Y-97650071D02*
G75*
G03*
X240670071Y-98650001I128J-1000129D01*
G01*
X327395118Y-116700017D02*
G75*
G03*
X326395117Y-117700011I82J-1000083D01*
G01*
X109709193Y-167775940D02*
G75*
G03*
X110252642Y-168665663I1000107J40D01*
G01*
X264195089Y-117700011D02*
G75*
G03*
X263195084Y-116700011I-999989J11D01*
G01*
X254670000Y-98650001D02*
G75*
G03*
X253670078Y-97650000I-1000000J1D01*
G01*
X178757538Y-136750021D02*
X178757538Y-148750028D01*
X202570093Y-110650007D02*
G75*
G03*
X203570051Y-111650007I1000007J7D01*
G01*
X153657524Y-149750024D02*
G75*
G03*
X154657524Y-148750028I76J999924D01*
G01*
X117796142Y-169775940D02*
X117796142Y-169775940D01*
X293057572Y-148750028D02*
G75*
G03*
X294057600Y-149750028I1000028J28D01*
G01*
X216857559Y-136750021D02*
X216857559Y-148750028D01*
X202282570Y-155800031D02*
G75*
G03*
X201282550Y-154800030I-999970J31D01*
G01*
X302295105Y-129700017D02*
X302295105Y-117700011D01*
X308320059Y-172850041D02*
G75*
G03*
X309320108Y-173850041I1000041J41D01*
G01*
X172707535Y-187850036D02*
G75*
G03*
X173707536Y-186850048I65J999936D01*
G01*
X241670072Y-111650008D02*
X253670078Y-111650008D01*
X50169992Y-167800007D02*
G75*
G03*
X51170000Y-168800008I1000008J7D01*
G01*
X148895022Y-187850123D02*
G75*
G03*
X149895023Y-186850048I78J999923D01*
G01*
X275007590Y-149750028D02*
X287007596Y-149750028D01*
X31119999Y-117700001D02*
X31119999Y-129700007D01*
X148895022Y-130700023D02*
G75*
G03*
X149895023Y-129700017I78J999923D01*
G01*
X308320060Y-172850041D02*
G75*
G03*
X307320107Y-171850040I-999960J41D01*
G01*
X232145067Y-130700018D02*
X244145073Y-130700018D01*
X232145067Y-116700066D02*
G75*
G03*
X231145066Y-117700011I-67J-999934D01*
G01*
X31119992Y-110650007D02*
G75*
G03*
X32120000Y-111650008I1000008J7D01*
G01*
X178470000Y-98650001D02*
G75*
G03*
X177470037Y-97650000I-1000000J1D01*
G01*
X275007590Y-135750090D02*
G75*
G03*
X274007590Y-136750021I-90J-999910D01*
G01*
X388021399Y-167800038D02*
X388021399Y-155800031D01*
X64170000Y-117700001D02*
G75*
G03*
X63170006Y-116700000I-1000000J1D01*
G01*
X149895022Y-186850048D02*
X149895022Y-174850042D01*
X136895015Y-130700018D02*
X148895022Y-130700018D01*
X145420020Y-98650001D02*
X145420020Y-110650007D01*
X213095056Y-116700055D02*
G75*
G03*
X212095055Y-117700011I-56J-999945D01*
G01*
X249907576Y-148750028D02*
X249907576Y-136750021D01*
D10*
X118379000Y-193477000D02*
G75*
G03*
X118379000Y-193477000I-950000J0D01*
G01*
D11*
X70220000Y-135749999D02*
G75*
G03*
X69219999Y-136750001I100J-1000101D01*
G01*
X296532602Y-168800103D02*
G75*
G03*
X297532603Y-167800038I-102J1000103D01*
G01*
X239382571Y-168800072D02*
G75*
G03*
X240382572Y-167800038I-71J1000072D01*
G01*
X311820100Y-98650001D02*
G75*
G03*
X310820109Y-97650000I-1000000J1D01*
G01*
X32207001Y-185849999D02*
G75*
G03*
X33207000Y-186849999I999999J-1D01*
G01*
X272720089Y-111650090D02*
G75*
G03*
X273720090Y-110650007I111J999890D01*
G01*
X227382564Y-168800039D02*
X239382571Y-168800039D01*
X45120000Y-117700001D02*
G75*
G03*
X44120006Y-116700000I-1000000J1D01*
G01*
X369257652Y-186850048D02*
G75*
G03*
X370257641Y-187850048I999748J-252D01*
G01*
X329870120Y-111650021D02*
G75*
G03*
X330870121Y-110650007I80J999921D01*
G01*
X193045046Y-117700011D02*
X193045046Y-129700017D01*
X371633942Y-134751340D02*
X371633942Y-131701340D01*
X284532595Y-168800039D02*
X296532602Y-168800039D01*
X118796142Y-168775942D02*
G75*
G03*
X117796142Y-169775940I58J-1000058D01*
G01*
X244145073Y-130700074D02*
G75*
G03*
X245145074Y-129700017I-73J1000074D01*
G01*
X50169992Y-110650007D02*
G75*
G03*
X51170000Y-111650008I1000008J7D01*
G01*
X189282544Y-154800044D02*
G75*
G03*
X188282544Y-155800031I-44J-999956D01*
G01*
X110796141Y-169775940D02*
X110796141Y-169555386D01*
X188282543Y-155800031D02*
X188282543Y-167800038D01*
X44120006Y-135750000D02*
X32120000Y-135750000D01*
X339395125Y-116700010D02*
X327395118Y-116700010D01*
X139370017Y-97650000D02*
X127370010Y-97650000D01*
X312107572Y-148750028D02*
G75*
G03*
X313107610Y-149750028I1000028J28D01*
G01*
X387021398Y-154800031D02*
X375021392Y-154800031D01*
X356057130Y-112429447D02*
X356057134Y-112650008D01*
X45120000Y-155800001D02*
G75*
G03*
X44120006Y-154800000I-1000000J1D01*
G01*
X326395183Y-129700017D02*
G75*
G03*
X327395118Y-130700017I999917J-83D01*
G01*
X380933147Y-113650009D02*
X385933150Y-113650009D01*
X39207000Y-172849999D02*
X39207000Y-172849999D01*
X146420020Y-111650008D02*
X158420027Y-111650008D01*
X31119992Y-167800007D02*
G75*
G03*
X32120000Y-168800008I1000008J7D01*
G01*
X87269999Y-117736974D02*
X100269999Y-117736974D01*
X385638859Y-174850042D02*
G75*
G03*
X384638899Y-173850041I-999959J42D01*
G01*
X371217411Y-155300035D02*
G75*
G03*
X370351391Y-154800030I-866011J-499965D01*
G01*
X335632570Y-155800031D02*
G75*
G03*
X334632622Y-154800030I-999970J31D01*
G01*
X142672142Y-168775942D02*
G75*
G03*
X141672142Y-169775940I58J-1000058D01*
G01*
X235907569Y-136750021D02*
X235907569Y-148750028D01*
X140369999Y-98650001D02*
G75*
G03*
X139370017Y-97650001I-999999J1D01*
G01*
X356057092Y-112650008D02*
G75*
G03*
X357057134Y-113650008I1000008J8D01*
G01*
D10*
X26229000Y-193477000D02*
G75*
G03*
X26229000Y-193477000I-950000J0D01*
G01*
D11*
X321632615Y-155800031D02*
X321632615Y-167800038D01*
X370351391Y-154800031D02*
X348821386Y-154800031D01*
X245145090Y-117700011D02*
G75*
G03*
X244145073Y-116700010I-999990J11D01*
G01*
X301201354Y-187850049D02*
X313201361Y-187850049D01*
X264482561Y-167800038D02*
G75*
G03*
X265482585Y-168800039I1000039J38D01*
G01*
X307345107Y-117700011D02*
X307345107Y-129700017D01*
X227382564Y-154800064D02*
G75*
G03*
X226382564Y-155800031I-64J-999936D01*
G01*
X51170000Y-130700008D02*
X63170006Y-130700008D01*
X385638900Y-186850048D02*
X385638900Y-174850042D01*
X69219992Y-167800007D02*
G75*
G03*
X70220000Y-168800008I1000008J7D01*
G01*
X158326277Y-173850076D02*
G75*
G03*
X157326276Y-174850042I-77J-999924D01*
G01*
X70220000Y-168800008D02*
X82220006Y-168800008D01*
X235620100Y-98650001D02*
G75*
G03*
X234620068Y-97650000I-1000000J1D01*
G01*
X351202692Y-135751340D02*
X370633942Y-135751340D01*
X251195077Y-130700018D02*
X263195084Y-130700018D01*
X316870093Y-110650007D02*
G75*
G03*
X317870113Y-111650007I1000007J7D01*
G01*
X274007589Y-136750021D02*
X274007589Y-148750028D01*
X86270026Y-147612974D02*
G75*
G03*
X87269999Y-148612974I999974J-26D01*
G01*
X279770092Y-97649991D02*
G75*
G03*
X278770091Y-98650001I108J-1000109D01*
G01*
X155945026Y-130700018D02*
X167945032Y-130700018D01*
X140657471Y-148750028D02*
G75*
G03*
X141657518Y-149750029I1000029J28D01*
G01*
X45120000Y-98650001D02*
G75*
G03*
X44120006Y-97650000I-1000000J1D01*
G01*
X329870120Y-97650000D02*
X317870113Y-97650000D01*
X370257641Y-187850049D02*
X384638899Y-187850049D01*
X87269999Y-141612999D02*
G75*
G03*
X86269999Y-142612974I1J-1000001D01*
G01*
X288295082Y-129700017D02*
G75*
G03*
X289295098Y-130700018I1000018J17D01*
G01*
X88269992Y-110650007D02*
G75*
G03*
X89270000Y-111650008I1000008J7D01*
G01*
X108320000Y-111650008D02*
X120320006Y-111650008D01*
X142672142Y-168775939D02*
X144140392Y-168775939D01*
X141672142Y-169775940D02*
X141672142Y-169775940D01*
X215570058Y-97650000D02*
X203570051Y-97650000D01*
X186995042Y-116700010D02*
X174995036Y-116700010D01*
X254957579Y-136750021D02*
X254957579Y-148750028D01*
X287007596Y-135750021D02*
X275007590Y-135750021D01*
X45120007Y-167800007D02*
X45120007Y-155800001D01*
X325107617Y-149750017D02*
G75*
G03*
X326107617Y-148750028I83J999917D01*
G01*
X50169992Y-148750007D02*
G75*
G03*
X51170000Y-149750008I1000008J7D01*
G01*
X387476626Y-111539722D02*
G75*
G03*
X388020130Y-110650007I-456326J889622D01*
G01*
X201282550Y-168800051D02*
G75*
G03*
X202282551Y-167800038I-50J1000051D01*
G01*
X362057137Y-113650038D02*
G75*
G03*
X363057138Y-112650008I63J999938D01*
G01*
X113082502Y-116700001D02*
G75*
G03*
X112082501Y-117700011I98J-1000099D01*
G01*
D10*
X23860250Y-88027000D02*
X385810250Y-88027000D01*
D11*
X101270000Y-140907025D02*
X101269999Y-147612974D01*
X334632622Y-154800031D02*
X322632616Y-154800031D01*
X278482592Y-167800038D02*
X278482592Y-155800031D01*
X375021392Y-154800022D02*
G75*
G03*
X374155367Y-155300031I108J-1000178D01*
G01*
X183232540Y-167800038D02*
X183232540Y-155800031D01*
X33207000Y-171850000D02*
G75*
G03*
X32207000Y-172849999I0J-1000000D01*
G01*
X198807549Y-149750028D02*
X210807555Y-149750028D01*
X50169999Y-98650001D02*
X50169999Y-110650007D01*
X101270006Y-97650000D02*
X89270000Y-97650000D01*
X260720082Y-97650081D02*
G75*
G03*
X259720081Y-98650001I118J-1000119D01*
G01*
X63170006Y-130700007D02*
G75*
G03*
X64170007Y-129700007I94J999907D01*
G01*
X50169999Y-155800001D02*
X50169999Y-167800007D01*
X87269999Y-179713000D02*
G75*
G03*
X88270000Y-178712974I1J1000000D01*
G01*
X69219999Y-174850001D02*
X69219999Y-186850007D01*
X63170006Y-154800000D02*
X51170000Y-154800000D01*
X109701251Y-136750021D02*
X109701251Y-148750028D01*
X31119999Y-98650001D02*
X31119999Y-110650007D01*
X326395118Y-117700011D02*
X326395118Y-129700017D01*
X291770099Y-97650000D02*
X279770092Y-97650000D01*
X101270000Y-163542924D02*
X101269999Y-156836974D01*
X63170006Y-135750000D02*
X51170000Y-135750000D01*
X251195077Y-116700076D02*
G75*
G03*
X250195076Y-117700011I-77J-999924D01*
G01*
X221332570Y-155800031D02*
G75*
G03*
X220332560Y-154800030I-999970J31D01*
G01*
X313107610Y-135750010D02*
G75*
G03*
X312107610Y-136750021I90J-1000090D01*
G01*
X234620068Y-111650069D02*
G75*
G03*
X235620069Y-110650007I-68J1000069D01*
G01*
X361675887Y-149750086D02*
G75*
G03*
X360675886Y-150750029I-87J-999914D01*
G01*
X359445090Y-117700011D02*
G75*
G03*
X358445135Y-116700010I-999990J11D01*
G01*
X82220006Y-173850000D02*
X70220000Y-173850000D01*
X332157621Y-135750021D02*
G75*
G03*
X331157621Y-136750021I79J-1000079D01*
G01*
X314201361Y-186850048D02*
X314201361Y-174850042D01*
X348920130Y-97650000D02*
X336920123Y-97650000D01*
X31119992Y-148750007D02*
G75*
G03*
X32120000Y-149750008I1000008J7D01*
G01*
X136895015Y-116700014D02*
G75*
G03*
X135895014Y-117700011I85J-1000086D01*
G01*
X135895083Y-129700017D02*
G75*
G03*
X136895015Y-130700017I999917J-83D01*
G01*
X154657525Y-148750028D02*
X154657525Y-136750021D01*
X351202692Y-135751392D02*
G75*
G03*
X350202692Y-136751340I-92J-999908D01*
G01*
X253670078Y-111650079D02*
G75*
G03*
X254670079Y-110650007I122J999879D01*
G01*
M02*
