  0
SECTION
  2
HEADER
  9
$ANGBASE
  50
0.0
  9
$ANGDIR
  70
1
  9
$MEASUREMENT
  70
1
  0
ENDSEC
  0
SECTION
  2
TABLES
  0
TABLE
  2
LTYPE
  70
4
  0
LTYPE
  5
40F
  2
CONTINUOUS
  70
0
  3
Solid line
  72
65
  73
0
  40
0.0
  0
LTYPE
  5
410
  2
DASHDOT
 70
0
  3
Dash Dot ____ _ ____ _
 72
65
 73
4
 40
2.0
 49
1.25
 49
-0.25
 49
0.25
 49
-0.25
  0
LTYPE
  5
411
  2
DASHED
 70
0
  3
Dashed __ __ __ __ __
 72
65
 73
2
 40
0.75
 49
0.5
 49
-0.25
  0
LTYPE
  5
43B
  2
DOTTED
 70
0
  3
Dotted .  .  .  .
 72
65
 73
2
 40
0.2
 49
0.0
 49
-0.2
  0
ENDTAB
  0
TABLE
  2
STYLE
  70
4
  0
STYLE
  2
KICAD
  70
0
  40
0
  41
1
  42
1
  50
0
  71
0
  3
isocp.shx
  0
STYLE
  2
KICADB
  70
0
  40
0
  41
1
  42
1
  50
0
  71
0
  3
isocp.shx
  0
STYLE
  2
KICADI
  70
0
  40
0
  41
1
  42
1
  50
15
  71
0
  3
isocp.shx
  0
STYLE
  2
KICADBI
  70
0
  40
0
  41
1
  42
1
  50
15
  71
0
  3
isocp.shx
  0
ENDTAB
  0
TABLE
  2
LAYER
  70
1
  0
LAYER
  2
BLACK
  70
0
  62
7
  6
CONTINUOUS
  0
ENDTAB
  0
ENDSEC
  0
SECTION
  2
ENTITIES
0
LINE
8
BLACK
6
CONTINUOUS
10
385.81
20
-88.027
11
392.954
21
-88.027
0
LINE
8
BLACK
6
CONTINUOUS
10
392.954
20
-88.027
11
395.335
21
-88.027
0
LINE
8
BLACK
6
CONTINUOUS
10
21.479
20
-195.183
11
21.479
21
-90.4082
0
LINE
8
BLACK
6
CONTINUOUS
10
397.716
20
-90.4082
11
397.716
21
-195.183
0
ARC
8
BLACK
10
82.2201
20
-186.85
40
0.999907
50
-90.0054
51
0.005329
0
ARC
8
BLACK
10
351.203
20
-148.751
40
0.99994
50
-180.003
51
-90.0005
0
ARC
8
BLACK
10
55.3771
20
-187.85
40
1.00009
50
90.0029
51
149.996
0
LINE
8
BLACK
6
CONTINUOUS
10
240.383
20
-167.8
11
240.383
21
-155.8
0
LINE
8
BLACK
6
CONTINUOUS
10
253.67
20
-97.65
11
241.67
21
-97.65
0
LINE
8
BLACK
6
CONTINUOUS
10
141.658
20
-149.75
11
153.658
21
-149.75
0
LINE
8
BLACK
6
CONTINUOUS
10
182.264
20
-172.85
11
182.264
21
-185.85
0
ARC
8
BLACK
10
82.22
20
-174.85
40
1
50
-5.72954e-05
51
89.9997
0
ARC
8
BLACK
10
298.82
20
-110.65
40
1.00001
50
-180
51
-89.9998
0
ARC
8
BLACK
10
108.32
20
-110.65
40
1.00001
50
-180
51
-90
0
LINE
8
BLACK
6
CONTINUOUS
10
315.583
20
-154.8
11
303.583
21
-154.8
0
LINE
8
BLACK
6
CONTINUOUS
10
229.764
20
-187.85
11
253.67
21
-187.85
0
ARC
8
BLACK
10
346.445
20
-174.85
40
1.00007
50
90.0041
51
179.991
0
ARC
8
BLACK
10
370.253
20
-117.701
40
0.999909
50
-270.005
51
-179.998
0
LINE
8
BLACK
6
CONTINUOUS
10
182.233
20
-154.8
11
170.233
21
-154.8
0
ARC
8
BLACK
10
284.533
20
-167.8
40
0.999938
50
-180.004
51
-90.0003
0
ARC
8
BLACK
10
287.007
20
-148.75
40
1.0001
50
-89.9945
51
-0.00160413
0
LINE
8
BLACK
6
CONTINUOUS
10
269.245
20
-117.7
11
269.245
21
-129.7
0
ARC
8
BLACK
10
306.058
20
-136.75
40
0.999979
50
-0.0012032
51
89.9996
0
ARC
8
BLACK
10
163.183
20
-155.8
40
0.999969
50
-0.00177612
51
89.9983
0
ARC
8
BLACK
10
151.183
20
-167.8
40
1.00004
50
-179.998
51
-89.9987
0
ARC
8
BLACK
10
232.145
20
-129.7
40
1.00002
50
-179.999
51
-90.0019
0
ARC
8
BLACK
10
355.97
20
-110.65
40
0.999987
50
-180
51
-117.16
0
ARC
8
BLACK
10
225.095
20
-129.7
40
1.00006
50
-89.9964
51
-0.000973966
0
LINE
8
BLACK
6
CONTINUOUS
10
326.108
20
-148.75
11
326.108
21
-136.75
0
ARC
8
BLACK
10
317.87
20
-98.6501
40
1.00009
50
90.005
51
179.994
0
LINE
8
BLACK
6
CONTINUOUS
10
159.42
20
-110.65
11
159.42
21
-98.65
0
ARC
8
BLACK
10
358.445
20
-129.7
40
0.999936
50
-90.0037
51
0.00475585
0
ARC
8
BLACK
10
349.011
20
-167.8
40
1.1899
50
-180.003
51
-122.561
0
LINE
8
BLACK
6
CONTINUOUS
10
183.52
20
-98.65
11
183.52
21
-110.65
0
ARC
8
BLACK
10
184.52
20
-110.65
40
1.00001
50
-180
51
-89.9977
0
LINE
8
BLACK
6
CONTINUOUS
10
239.383
20
-154.8
11
227.383
21
-154.8
0
ARC
8
BLACK
10
87.27
20
-180.713
40
1
50
90.0001
51
179.999
0
ARC
8
BLACK
10
301.201
20
-174.85
40
0.999947
50
-243.858
51
-179.998
0
LINE
8
BLACK
6
CONTINUOUS
10
151.183
20
-168.8
11
163.183
21
-168.8
0
ARC
8
BLACK
10
270.245
20
-129.7
40
1.00002
50
-179.999
51
-90.0007
0
LINE
8
BLACK
6
CONTINUOUS
10
350.203
20
-136.751
11
350.203
21
-148.751
0
LINE
8
BLACK
6
CONTINUOUS
10
177.47
20
-97.65
11
165.47
21
-97.65
0
LINE
8
BLACK
6
CONTINUOUS
10
254.67
20
-110.65
11
254.67
21
-98.65
0
ARC
8
BLACK
10
144.14
20
-155.776
40
1.00006
50
0.00349507
51
90.0005
0
LINE
8
BLACK
6
CONTINUOUS
10
82.22
20
-97.65
11
70.22
21
-97.65
0
ARC
8
BLACK
10
337.014
20
-186.85
40
1.00007
50
-89.9958
51
-0.00274999
0
ARC
8
BLACK
10
198.808
20
-148.75
40
1.00003
50
-179.998
51
-89.9972
0
ARC
8
BLACK
10
384.634
20
-139.226
40
0.999842
50
-60.0061
51
0.00343829
0
ARC
8
BLACK
10
23.8603
20
-195.183
40
2.38125
50
-180
51
-90
0
ARC
8
BLACK
10
87.27
20
-118.737
40
1
50
90.0001
51
179.999
0
ARC
8
BLACK
10
289.295
20
-117.7
40
1.0001
50
90.0058
51
179.995
0
ARC
8
BLACK
10
101.27
20
-165.275
40
0.999886
50
-0.00424031
51
60.0028
0
ARC
8
BLACK
10
272.72
20
-98.65
40
0.999999
50
-5.72964e-05
51
90.0006
0
ARC
8
BLACK
10
125.082
20
-117.7
40
0.999989
50
-0.000630248
51
89.9995
0
ARC
8
BLACK
10
170.232
20
-167.8
40
0.999938
50
-180.004
51
-89.9981
0
LINE
8
BLACK
6
CONTINUOUS
10
358.445
20
-116.7
11
346.445
21
-116.7
0
LINE
8
BLACK
6
CONTINUOUS
10
346.445
20
-130.7
11
358.445
21
-130.7
0
ARC
8
BLACK
10
322.633
20
-167.8
40
1.00004
50
-179.998
51
-89.9991
0
ARC
8
BLACK
10
191.758
20
-136.75
40
0.999979
50
-0.00120328
51
90.0032
0
ARC
8
BLACK
10
82.2201
20
-129.7
40
0.999907
50
-90.0054
51
0.005329
0
ARC
8
BLACK
10
246.433
20
-167.8
40
1.00004
50
-179.998
51
-90.0015
0
LINE
8
BLACK
6
CONTINUOUS
10
133.514
20
-174.85
11
133.514
21
-186.85
0
ARC
8
BLACK
10
100.27
20
-147.613
40
0.999999
50
-90.0001
51
0.00148969
0
LINE
8
BLACK
6
CONTINUOUS
10
87.27
20
-155.837
11
100.27
21
-155.837
0
ARC
8
BLACK
10
298.82
20
-98.6501
40
1.0001
50
90.0056
51
179.994
0
LINE
8
BLACK
6
CONTINUOUS
10
373.289
20
-155.8
11
372.083
21
-155.8
0
ARC
8
BLACK
10
101.27
20
-110.65
40
0.999907
50
-90.0054
51
0.005329
0
ARC
8
BLACK
10
108.32
20
-98.6501
40
1.0001
50
90.0057
51
179.994
0
LINE
8
BLACK
6
CONTINUOUS
10
50.17
20
-117.7
11
50.17
21
-129.7
0
LINE
8
BLACK
6
CONTINUOUS
10
89.27
20
-111.65
11
101.27
21
-111.65
0
LINE
8
BLACK
6
CONTINUOUS
10
172.708
20
-173.85
11
158.326
21
-173.85
0
LINE
8
BLACK
6
CONTINUOUS
10
213.095
20
-130.7
11
225.095
21
-130.7
0
LINE
8
BLACK
6
CONTINUOUS
10
384.639
20
-173.85
11
370.258
21
-173.85
0
ARC
8
BLACK
10
300.32
20
-173.055
40
1.00021
50
-63.8472
51
-0.00332247
0
ARC
8
BLACK
10
265.483
20
-155.8
40
0.999915
50
-270.005
51
-179.998
0
ARC
8
BLACK
10
100.27
20
-118.737
40
1.00003
50
0.00148969
51
90.0001
0
CIRCLE
8
BLACK
10
301.729
20
-91.827
40
0.95
0
ARC
8
BLACK
10
382.253
20
-117.701
40
1.00006
50
25.7349
51
90.0005
0
LINE
8
BLACK
6
CONTINUOUS
10
70.22
20
-149.75
11
82.22
21
-149.75
0
ARC
8
BLACK
10
146.42
20
-98.6501
40
1.00008
50
90.0046
51
179.994
0
LINE
8
BLACK
6
CONTINUOUS
10
278.77
20
-98.65
11
278.77
21
-110.65
0
ARC
8
BLACK
10
248.907
20
-148.75
40
1.00008
50
-89.9956
51
-0.00160416
0
LINE
8
BLACK
6
CONTINUOUS
10
369.258
20
-174.85
11
369.258
21
-186.85
0
LINE
8
BLACK
6
CONTINUOUS
10
83.22
20
-186.85
11
83.22
21
-174.85
0
CIRCLE
8
BLACK
10
25.279
20
-91.827
40
0.95
0
ARC
8
BLACK
10
127.37
20
-98.6501
40
1.00009
50
90.0052
51
179.994
0
LINE
8
BLACK
6
CONTINUOUS
10
51.17
20
-149.75
11
63.17
21
-149.75
0
LINE
8
BLACK
6
CONTINUOUS
10
39.9129
20
-186.85
11
33.207
21
-186.85
0
ARC
8
BLACK
10
217.858
20
-148.75
40
1.00003
50
-179.998
51
-90.0023
0
LINE
8
BLACK
6
CONTINUOUS
10
201.283
20
-154.8
11
189.283
21
-154.8
0
ARC
8
BLACK
10
134.514
20
-174.85
40
0.999937
50
-270.004
51
-179.998
0
ARC
8
BLACK
10
32.1201
20
-98.6501
40
1.0001
50
90.0057
51
179.994
0
ARC
8
BLACK
10
206.045
20
-117.7
40
0.999989
50
-0.000630283
51
90.0027
0
ARC
8
BLACK
10
141.658
20
-136.75
40
1.00008
50
90.0047
51
179.995
0
ARC
8
BLACK
10
320.345
20
-117.7
40
0.99999
50
-0.000630244
51
89.9992
0
ARC
8
BLACK
10
62.083
20
-185.85
40
1
50
-90
51
5.72958e-05
0
LINE
8
BLACK
6
CONTINUOUS
10
260.72
20
-111.65
11
272.72
21
-111.65
0
LINE
8
BLACK
6
CONTINUOUS
10
307.32
20
-171.85
11
302.32
21
-171.85
0
ARC
8
BLACK
10
139.37
20
-110.65
40
0.999918
50
-90.0048
51
0.00532894
0
LINE
8
BLACK
6
CONTINUOUS
10
82.22
20
-116.7
11
70.22
21
-116.7
0
ARC
8
BLACK
10
387.933
20
-112.429
40
0.99987
50
-242.844
51
-179.997
0
LINE
8
BLACK
6
CONTINUOUS
10
306.058
20
-135.75
11
294.058
21
-135.75
0
CIRCLE
8
BLACK
10
301.729
20
-193.477
40
0.95
0
LINE
8
BLACK
6
CONTINUOUS
10
337.014
20
-173.85
11
322.633
21
-173.85
0
ARC
8
BLACK
10
306.058
20
-148.75
40
0.999907
50
-90.0053
51
0.00985579
0
LINE
8
BLACK
6
CONTINUOUS
10
244.145
20
-116.7
11
232.145
21
-116.7
0
LINE
8
BLACK
6
CONTINUOUS
10
360.826
20
-173.85
11
346.445
21
-173.85
0
LINE
8
BLACK
6
CONTINUOUS
10
154.945
20
-117.7
11
154.945
21
-129.7
0
ARC
8
BLACK
10
322.633
20
-155.8
40
1.00008
50
90.0048
51
179.99
0
LINE
8
BLACK
6
CONTINUOUS
10
384.634
20
-118.788
11
384.634
21
-125.494
0
LINE
8
BLACK
6
CONTINUOUS
10
231.145
20
-117.7
11
231.145
21
-129.7
0
LINE
8
BLACK
6
CONTINUOUS
10
32.12
20
-130.7
11
44.12
21
-130.7
0
ARC
8
BLACK
10
322.633
20
-186.85
40
1.00005
50
-179.997
51
-89.9991
0
LINE
8
BLACK
6
CONTINUOUS
10
148.895
20
-116.7
11
136.895
21
-116.7
0
LINE
8
BLACK
6
CONTINUOUS
10
70.22
20
-111.65
11
82.22
21
-111.65
0
LINE
8
BLACK
6
CONTINUOUS
10
53.645
20
-187.85
11
41.645
21
-187.85
0
ARC
8
BLACK
10
113.082
20
-129.7
40
1.00002
50
-179.999
51
-89.9999
0
ARC
8
BLACK
10
387.02
20
-98.65
40
1.00001
50
-5.72941e-05
51
90.2839
0
LINE
8
BLACK
6
CONTINUOUS
10
174.995
20
-130.7
11
186.995
21
-130.7
0
LINE
8
BLACK
6
CONTINUOUS
10
157.326
20
-174.85
11
157.326
21
-186.85
0
LINE
8
BLACK
6
CONTINUOUS
10
101.27
20
-125.443
11
101.27
21
-118.737
0
ARC
8
BLACK
10
70.2201
20
-98.6501
40
1.0001
50
90.0057
51
179.994
0
LINE
8
BLACK
6
CONTINUOUS
10
226.383
20
-155.8
11
226.383
21
-167.8
0
LINE
8
BLACK
6
CONTINUOUS
10
64.17
20
-129.7
11
64.17
21
-117.7
0
ARC
8
BLACK
10
194.045
20
-129.7
40
1.00002
50
-179.999
51
-90.0031
0
ARC
8
BLACK
10
360.826
20
-174.85
40
0.999959
50
-0.00240645
51
90.0008
0
ARC
8
BLACK
10
267.957
20
-148.75
40
1.00009
50
-89.9951
51
-0.00160414
0
ARC
8
BLACK
10
370.258
20
-174.85
40
0.99996
50
-270.002
51
-179.998
0
ARC
8
BLACK
10
101.27
20
-127.175
40
0.999886
50
-0.00424031
51
60.0028
0
ARC
8
BLACK
10
70.22
20
-129.7
40
1.00001
50
-180
51
-90
0
ARC
8
BLACK
10
87.27
20
-125.737
40
1.00003
50
0.00148969
51
90.0001
0
ARC
8
BLACK
10
101.27
20
-139.175
40
1
50
-59.9992
51
0.00148969
0
ARC
8
BLACK
10
87.27
20
-161.837
40
0.999974
50
-180.001
51
-90.0001
0
LINE
8
BLACK
6
CONTINUOUS
10
302.583
20
-155.8
11
302.583
21
-167.8
0
LINE
8
BLACK
6
CONTINUOUS
10
313.201
20
-173.85
11
309.32
21
-173.85
0
ARC
8
BLACK
10
222.62
20
-98.65
40
0.999939
50
-270.004
51
-180
0
LINE
8
BLACK
6
CONTINUOUS
10
187.995
20
-129.7
11
187.995
21
-117.7
0
LINE
8
BLACK
6
CONTINUOUS
10
221.333
20
-167.8
11
221.333
21
-155.8
0
ARC
8
BLACK
10
39.913
20
-187.85
40
1
50
30.0015
51
90.0029
0
ARC
8
BLACK
10
213.095
20
-129.7
40
1.00002
50
-179.999
51
-89.9968
0
ARC
8
BLACK
10
383.635
20
-150.751
40
0.998742
50
-90.0464
51
-0.00229472
0
LINE
8
BLACK
6
CONTINUOUS
10
86.27
20
-156.837
11
86.27
21
-161.837
0
ARC
8
BLACK
10
385.634
20
-125.494
40
0.999969
50
-180.001
51
-119.998
0
ARC
8
BLACK
10
174.995
20
-129.7
40
1.00002
50
-179.999
51
-89.9979
0
LINE
8
BLACK
6
CONTINUOUS
10
208.333
20
-168.8
11
220.333
21
-168.8
0
LINE
8
BLACK
6
CONTINUOUS
10
202.283
20
-167.8
11
202.283
21
-155.8
0
ARC
8
BLACK
10
258.433
20
-167.8
40
1.00008
50
-89.9954
51
-0.00217706
0
ARC
8
BLACK
10
288.264
20
-185.85
40
1.00005
50
-89.9973
51
-0.00275007
0
ARC
8
BLACK
10
111.796
20
-169.776
40
0.99994
50
-180.003
51
-89.9977
0
LINE
8
BLACK
6
CONTINUOUS
10
69.22
20
-155.8
11
69.22
21
-167.8
0
LINE
8
BLACK
6
CONTINUOUS
10
347.821
20
-155.8
11
347.821
21
-167.8
0
LINE
8
BLACK
6
CONTINUOUS
10
83.22
20
-129.7
11
83.22
21
-117.7
0
LINE
8
BLACK
6
CONTINUOUS
10
70.22
20
-130.7
11
82.22
21
-130.7
0
ARC
8
BLACK
10
395.335
20
-195.183
40
2.3813
50
-89.9988
51
-0.00120304
0
LINE
8
BLACK
6
CONTINUOUS
10
194.045
20
-130.7
11
206.045
21
-130.7
0
ARC
8
BLACK
10
277.483
20
-155.8
40
0.99997
50
-0.00177618
51
90.0005
0
ARC
8
BLACK
10
87.27
20
-163.837
40
1.00003
50
0.00148969
51
90.0001
0
LINE
8
BLACK
6
CONTINUOUS
10
273.72
20
-110.65
11
273.72
21
-98.65
0
ARC
8
BLACK
10
87.27
20
-156.837
40
1
50
90.0001
51
179.999
0
LINE
8
BLACK
6
CONTINUOUS
10
255.958
20
-149.75
11
267.958
21
-149.75
0
LINE
8
BLACK
6
CONTINUOUS
10
264.195
20
-129.7
11
264.195
21
-117.7
0
ARC
8
BLACK
10
89.2701
20
-98.6501
40
1.0001
50
90.0057
51
179.994
0
LINE
8
BLACK
6
CONTINUOUS
10
270.245
20
-130.7
11
282.245
21
-130.7
0
LINE
8
BLACK
6
CONTINUOUS
10
207.333
20
-155.8
11
207.333
21
-167.8
0
LINE
8
BLACK
6
CONTINUOUS
10
345.445
20
-117.7
11
345.445
21
-129.7
0
ARC
8
BLACK
10
291.77
20
-110.65
40
0.9999
50
-90.0058
51
0.00532904
0
ARC
8
BLACK
10
51.1701
20
-117.7
40
1.0001
50
90.0057
51
179.994
0
LINE
8
BLACK
6
CONTINUOUS
10
268.958
20
-148.75
11
268.958
21
-136.75
0
LINE
8
BLACK
6
CONTINUOUS
10
82.22
20
-135.75
11
70.22
21
-135.75
0
LINE
8
BLACK
6
CONTINUOUS
10
102.27
20
-165.275
11
102.27
21
-177.275
0
ARC
8
BLACK
10
241.67
20
-110.65
40
1.00001
50
-180
51
-89.9959
0
ARC
8
BLACK
10
246.432
20
-155.8
40
0.999926
50
-270.004
51
-179.998
0
ARC
8
BLACK
10
165.47
20
-98.6501
40
1.00017
50
90.0097
51
179.994
0
ARC
8
BLACK
10
355.057
20
-112.43
40
1.00024
50
0.00876424
51
62.8308
0
LINE
8
BLACK
6
CONTINUOUS
10
83.22
20
-167.8
11
83.22
21
-155.8
0
LINE
8
BLACK
6
CONTINUOUS
10
386.933
20
-112.429
11
386.933
21
-112.65
0
ARC
8
BLACK
10
206.045
20
-129.7
40
1.00005
50
-89.997
51
-0.000973976
0
LINE
8
BLACK
6
CONTINUOUS
10
38.207
20
-171.85
11
33.207
21
-171.85
0
ARC
8
BLACK
10
109.796
20
-169.555
40
1.00021
50
0.00653014
51
62.8291
0
LINE
8
BLACK
6
CONTINUOUS
10
101.27
20
-179.007
11
101.27
21
-185.713
0
ARC
8
BLACK
10
63.1701
20
-110.65
40
0.999907
50
-90.0054
51
0.005329
0
LINE
8
BLACK
6
CONTINUOUS
10
359.445
20
-129.7
11
359.445
21
-117.7
0
ARC
8
BLACK
10
44.1201
20
-148.75
40
0.999907
50
-90.0054
51
0.005329
0
ARC
8
BLACK
10
179.757
20
-148.75
40
1.00003
50
-179.998
51
-89.9978
0
LINE
8
BLACK
6
CONTINUOUS
10
320.345
20
-116.7
11
308.345
21
-116.7
0
ARC
8
BLACK
10
225.095
20
-117.7
40
0.999989
50
-0.000630214
51
89.9964
0
ARC
8
BLACK
10
372.083
20
-154.8
40
1.00003
50
-150
51
-90.0033
0
LINE
8
BLACK
6
CONTINUOUS
10
264.483
20
-155.8
11
264.483
21
-167.8
0
ARC
8
BLACK
10
349.913
20
-169.8
40
1.00004
50
-179.998
51
-90.0011
0
ARC
8
BLACK
10
70.2201
20
-117.7
40
1.0001
50
90.0057
51
179.994
0
ARC
8
BLACK
10
41.645
20
-186.85
40
1
50
-150
51
-90
0
LINE
8
BLACK
6
CONTINUOUS
10
172.708
20
-135.75
11
160.708
21
-135.75
0
ARC
8
BLACK
10
23.8603
20
-90.4082
40
2.38125
50
90
51
180
0
ARC
8
BLACK
10
371.789
20
-169.8
40
1.00006
50
0.00349507
51
90.0005
0
ARC
8
BLACK
10
32.1201
20
-155.8
40
1.0001
50
90.0057
51
179.994
0
CIRCLE
8
BLACK
10
393.879
20
-91.827
40
0.95
0
LINE
8
BLACK
6
CONTINUOUS
10
380.789
20
-168.8
11
387.021
21
-168.8
0
LINE
8
BLACK
6
CONTINUOUS
10
86.27
20
-180.713
11
86.27
21
-185.713
0
LINE
8
BLACK
6
CONTINUOUS
10
345.158
20
-148.75
11
345.158
21
-136.75
0
ARC
8
BLACK
10
346.445
20
-129.7
40
1.00002
50
-179.999
51
-89.9984
0
ARC
8
BLACK
10
167.945
20
-129.7
40
0.999933
50
-90.0039
51
0.00475587
0
LINE
8
BLACK
6
CONTINUOUS
10
32.12
20
-168.8
11
44.12
21
-168.8
0
ARC
8
BLACK
10
184.52
20
-98.65
40
0.99996
50
-270.002
51
-180
0
ARC
8
BLACK
10
144.14
20
-167.776
40
1.00009
50
-89.9947
51
-0.00229162
0
LINE
8
BLACK
6
CONTINUOUS
10
361.676
20
-149.75
11
376.552
21
-149.75
0
ARC
8
BLACK
10
70.2201
20
-174.85
40
1.0001
50
90.0057
51
179.994
0
LINE
8
BLACK
6
CONTINUOUS
10
321.633
20
-174.85
11
321.633
21
-186.85
0
LINE
8
BLACK
6
CONTINUOUS
10
160.708
20
-149.75
11
172.708
21
-149.75
0
LINE
8
BLACK
6
CONTINUOUS
10
55.083
20
-173.85
11
40.207
21
-173.85
0
LINE
8
BLACK
6
CONTINUOUS
10
192.758
20
-148.75
11
192.758
21
-136.75
0
LINE
8
BLACK
6
CONTINUOUS
10
321.345
20
-129.7
11
321.345
21
-117.7
0
LINE
8
BLACK
6
CONTINUOUS
10
158.42
20
-97.65
11
146.42
21
-97.65
0
ARC
8
BLACK
10
236.907
20
-136.75
40
0.999931
50
-270.004
51
-179.999
0
LINE
8
BLACK
6
CONTINUOUS
10
45.12
20
-129.7
11
45.12
21
-117.7
0
ARC
8
BLACK
10
125.083
20
-129.7
40
0.99991
50
-90.0052
51
0.00475598
0
LINE
8
BLACK
6
CONTINUOUS
10
203.57
20
-111.65
11
215.57
21
-111.65
0
CIRCLE
8
BLACK
10
209.579
20
-91.827
40
0.95
0
LINE
8
BLACK
6
CONTINUOUS
10
338.014
20
-186.85
11
338.014
21
-174.85
0
ARC
8
BLACK
10
302.32
20
-172.85
40
0.999896
50
-270.006
51
-179.998
0
ARC
8
BLACK
10
198.808
20
-136.75
40
0.999951
50
-270.003
51
-179.999
0
LINE
8
BLACK
6
CONTINUOUS
10
245.433
20
-155.8
11
245.433
21
-167.8
0
LINE
8
BLACK
6
CONTINUOUS
10
86.27
20
-142.613
11
86.27
21
-147.613
0
LINE
8
BLACK
6
CONTINUOUS
10
263.195
20
-116.7
11
251.195
21
-116.7
0
ARC
8
BLACK
10
63.1701
20
-148.75
40
0.999907
50
-90.0054
51
0.005329
0
ARC
8
BLACK
10
183.264
20
-172.85
40
0.999911
50
-270.005
51
-179.998
0
ARC
8
BLACK
10
191.757
20
-148.75
40
1.00004
50
-89.9974
51
-0.00160421
0
LINE
8
BLACK
6
CONTINUOUS
10
63.17
20
-116.7
11
51.17
21
-116.7
0
ARC
8
BLACK
10
336.92
20
-98.6501
40
1.00008
50
90.0044
51
179.994
0
ARC
8
BLACK
10
102.27
20
-163.543
40
0.999884
50
-180.004
51
-119.997
0
ARC
8
BLACK
10
360.826
20
-186.85
40
1.00009
50
-89.9951
51
-0.00274996
0
LINE
8
BLACK
6
CONTINUOUS
10
288.295
20
-117.7
11
288.295
21
-129.7
0
LINE
8
BLACK
6
CONTINUOUS
10
282.264
20
-172.85
11
282.264
21
-185.85
0
ARC
8
BLACK
10
32.12
20
-129.7
40
1.00001
50
-180
51
-90
0
LINE
8
BLACK
6
CONTINUOUS
10
145.14
20
-155.776
11
145.14
21
-167.776
0
LINE
8
BLACK
6
CONTINUOUS
10
153.658
20
-135.75
11
141.658
21
-135.75
0
ARC
8
BLACK
10
288.264
20
-172.85
40
0.99996
50
-0.00234925
51
90.003
0
LINE
8
BLACK
6
CONTINUOUS
10
32.12
20
-149.75
11
44.12
21
-149.75
0
ARC
8
BLACK
10
359.676
20
-150.75
40
1.00009
50
-89.9951
51
-0.00166143
0
LINE
8
BLACK
6
CONTINUOUS
10
118.796
20
-168.776
11
133.672
21
-168.776
0
ARC
8
BLACK
10
239.383
20
-155.8
40
0.999969
50
-0.00177622
51
90.0017
0
ARC
8
BLACK
10
125.082
20
-186.85
40
1.00001
50
-89.9995
51
-0.00275017
0
ARC
8
BLACK
10
384.639
20
-186.85
40
1.0001
50
-89.9943
51
-0.00274992
0
LINE
8
BLACK
6
CONTINUOUS
10
225.095
20
-116.7
11
213.095
21
-116.7
0
LINE
8
BLACK
6
CONTINUOUS
10
125.083
20
-173.85
11
110.701
21
-173.85
0
ARC
8
BLACK
10
267.958
20
-136.75
40
0.99998
50
-0.00120323
51
90.0008
0
LINE
8
BLACK
6
CONTINUOUS
10
357.057
20
-113.65
11
362.057
21
-113.65
0
LINE
8
BLACK
6
CONTINUOUS
10
55.377
20
-186.85
11
62.083
21
-186.85
0
ARC
8
BLACK
10
308.345
20
-129.7
40
1.00002
50
-179.999
51
-89.9995
0
ARC
8
BLACK
10
186.995
20
-129.7
40
0.999943
50
-90.0033
51
0.00475582
0
LINE
8
BLACK
6
CONTINUOUS
10
109.709
20
-155.776
11
109.709
21
-167.776
0
LINE
8
BLACK
6
CONTINUOUS
10
70.22
20
-187.85
11
82.22
21
-187.85
0
LINE
8
BLACK
6
CONTINUOUS
10
301.32
20
-172.85
11
301.32
21
-173.055
0
ARC
8
BLACK
10
44.1201
20
-167.8
40
0.999907
50
-90.0054
51
0.005329
0
ARC
8
BLACK
10
236.908
20
-148.75
40
1.00003
50
-179.998
51
-90.0018
0
LINE
8
BLACK
6
CONTINUOUS
10
173.708
20
-186.85
11
173.708
21
-174.85
0
ARC
8
BLACK
10
177.47
20
-110.65
40
0.999838
50
-90.0093
51
0.00532937
0
ARC
8
BLACK
10
344.158
20
-148.75
40
0.999927
50
-90.0042
51
0.0041256
0
LINE
8
BLACK
6
CONTINUOUS
10
140.37
20
-110.65
11
140.37
21
-98.65
0
ARC
8
BLACK
10
303.583
20
-155.8
40
1.00009
50
90.0054
51
179.99
0
ARC
8
BLACK
10
325.108
20
-136.75
40
0.999979
50
-0.00120319
51
89.999
0
LINE
8
BLACK
6
CONTINUOUS
10
307.058
20
-148.75
11
307.058
21
-136.75
0
LINE
8
BLACK
6
CONTINUOUS
10
127.464
20
-135.75
11
110.701
21
-135.75
0
LINE
8
BLACK
6
CONTINUOUS
10
196.52
20
-97.65
11
184.52
21
-97.65
0
LINE
8
BLACK
6
CONTINUOUS
10
110.709
20
-154.776
11
144.14
21
-154.776
0
LINE
8
BLACK
6
CONTINUOUS
10
44.12
20
-97.65
11
32.12
21
-97.65
0
ARC
8
BLACK
10
135.672
20
-169.776
40
0.99994
50
-180.003
51
-89.9976
0
ARC
8
BLACK
10
101.27
20
-177.275
40
1
50
-59.9992
51
0.00148969
0
LINE
8
BLACK
6
CONTINUOUS
10
44.12
20
-116.7
11
32.12
21
-116.7
0
LINE
8
BLACK
6
CONTINUOUS
10
282.245
20
-116.7
11
270.245
21
-116.7
0
ARC
8
BLACK
10
258.433
20
-155.8
40
0.999969
50
-0.0017762
51
90.0011
0
LINE
8
BLACK
6
CONTINUOUS
10
373.789
20
-170.8
11
378.789
21
-170.8
0
ARC
8
BLACK
10
82.2201
20
-110.65
40
0.999907
50
-90.0054
51
0.005329
0
ARC
8
BLACK
10
380.789
20
-169.8
40
0.999903
50
-270.006
51
-179.998
0
ARC
8
BLACK
10
44.1201
20
-110.65
40
0.999907
50
-90.0054
51
0.005329
0
ARC
8
BLACK
10
167.945
20
-117.7
40
0.99999
50
-0.000630233
51
89.9982
0
LINE
8
BLACK
6
CONTINUOUS
10
292.77
20
-110.65
11
292.77
21
-98.65
0
ARC
8
BLACK
10
251.195
20
-129.7
40
1.00002
50
-179.999
51
-90.0013
0
LINE
8
BLACK
6
CONTINUOUS
10
335.92
20
-98.65
11
335.92
21
-110.65
0
ARC
8
BLACK
10
44.1201
20
-129.7
40
0.999907
50
-90.0054
51
0.005329
0
CIRCLE
8
BLACK
10
209.579
20
-193.477
40
0.95
0
LINE
8
BLACK
6
CONTINUOUS
10
128.464
20
-148.75
11
128.464
21
-136.75
0
ARC
8
BLACK
10
229.857
20
-148.75
40
1.00007
50
-89.9962
51
-0.00160418
0
ARC
8
BLACK
10
155.945
20
-129.7
40
1.00002
50
-179.999
51
-89.9985
0
ARC
8
BLACK
10
301.295
20
-129.7
40
0.999905
50
-90.0055
51
0.004756
0
ARC
8
BLACK
10
148.895
20
-117.7
40
1.00009
50
0.00509921
51
89.9987
0
ARC
8
BLACK
10
179.758
20
-136.75
40
1.00006
50
90.0036
51
179.995
0
ARC
8
BLACK
10
51.1701
20
-155.8
40
1.0001
50
90.0057
51
179.994
0
ARC
8
BLACK
10
208.333
20
-167.8
40
1.00004
50
-179.998
51
-90.0026
0
LINE
8
BLACK
6
CONTINUOUS
10
88.27
20
-163.837
11
88.27
21
-178.713
0
ARC
8
BLACK
10
336.92
20
-110.65
40
0.999907
50
-180.005
51
-89.9987
0
ARC
8
BLACK
10
352.671
20
-150.751
40
0.99996
50
-0.00229196
51
90.0033
0
ARC
8
BLACK
10
148.895
20
-174.85
40
0.999958
50
-0.00240637
51
89.9987
0
ARC
8
BLACK
10
291.77
20
-98.65
40
0.999999
50
-5.72958e-05
51
90.0001
0
LINE
8
BLACK
6
CONTINUOUS
10
216.57
20
-110.65
11
216.57
21
-98.65
0
ARC
8
BLACK
10
172.707
20
-136.75
40
0.999979
50
-0.00120317
51
89.998
0
LINE
8
BLACK
6
CONTINUOUS
10
217.858
20
-149.75
11
229.858
21
-149.75
0
LINE
8
BLACK
6
CONTINUOUS
10
120.32
20
-97.65
11
108.32
21
-97.65
0
LINE
8
BLACK
6
CONTINUOUS
10
109.701
20
-174.85
11
109.701
21
-186.85
0
LINE
8
BLACK
6
CONTINUOUS
10
310.82
20
-97.65
11
298.82
21
-97.65
0
ARC
8
BLACK
10
51.1701
20
-136.75
40
1.0001
50
90.0057
51
179.994
0
LINE
8
BLACK
6
CONTINUOUS
10
316.583
20
-167.8
11
316.583
21
-155.8
0
ARC
8
BLACK
10
339.395
20
-129.7
40
0.999926
50
-90.0043
51
0.0047559
0
ARC
8
BLACK
10
183.264
20
-185.85
40
1.00005
50
-179.997
51
-90.0006
0
LINE
8
BLACK
6
CONTINUOUS
10
206.045
20
-116.7
11
194.045
21
-116.7
0
LINE
8
BLACK
6
CONTINUOUS
10
64.17
20
-148.75
11
64.17
21
-136.75
0
ARC
8
BLACK
10
53.645
20
-186.85
40
1.00005
50
-90
51
-30.005
0
LINE
8
BLACK
6
CONTINUOUS
10
303.583
20
-168.8
11
315.583
21
-168.8
0
LINE
8
BLACK
6
CONTINUOUS
10
370.634
20
-130.701
11
370.253
21
-130.701
0
LINE
8
BLACK
6
CONTINUOUS
10
191.758
20
-135.75
11
179.758
21
-135.75
0
LINE
8
BLACK
6
CONTINUOUS
10
364.057
20
-111.65
11
378.933
21
-111.65
0
LINE
8
BLACK
6
CONTINUOUS
10
69.22
20
-136.75
11
69.22
21
-148.75
0
ARC
8
BLACK
10
62.083
20
-172.85
40
1
50
5.72958e-05
51
90
0
LINE
8
BLACK
6
CONTINUOUS
10
344.158
20
-135.75
11
332.158
21
-135.75
0
LINE
8
BLACK
6
CONTINUOUS
10
248.908
20
-135.75
11
236.908
21
-135.75
0
ARC
8
BLACK
10
163.183
20
-167.8
40
0.999931
50
-90.004
51
0.00355258
0
LINE
8
BLACK
6
CONTINUOUS
10
45.12
20
-148.75
11
45.12
21
-136.75
0
ARC
8
BLACK
10
38.207
20
-172.85
40
1
50
5.72958e-05
51
90
0
ARC
8
BLACK
10
354.913
20
-169.8
40
1.00008
50
-89.9952
51
-0.00223435
0
ARC
8
BLACK
10
100.27
20
-156.837
40
1.00003
50
0.00148969
51
90.0001
0
ARC
8
BLACK
10
158.42
20
-110.65
40
0.999928
50
-90.0042
51
0.00532889
0
ARC
8
BLACK
10
313.201
20
-174.85
40
0.999958
50
-0.00240652
51
90.0022
0
ARC
8
BLACK
10
229.764
20
-186.85
40
1.00005
50
-179.997
51
-89.9991
0
LINE
8
BLACK
6
CONTINUOUS
10
69.22
20
-98.65
11
69.22
21
-110.65
0
LINE
8
BLACK
6
CONTINUOUS
10
293.058
20
-136.75
11
293.058
21
-148.75
0
LINE
8
BLACK
6
CONTINUOUS
10
297.82
20
-98.65
11
297.82
21
-110.65
0
LINE
8
BLACK
6
CONTINUOUS
10
45.12
20
-110.65
11
45.12
21
-98.65
0
ARC
8
BLACK
10
51.1701
20
-98.6501
40
1.0001
50
90.0057
51
179.994
0
LINE
8
BLACK
6
CONTINUOUS
10
32.207
20
-172.85
11
32.207
21
-185.85
0
ARC
8
BLACK
10
308.345
20
-117.7
40
1.00009
50
90.0053
51
179.995
0
ARC
8
BLACK
10
186.995
20
-117.7
40
0.99999
50
-0.000630226
51
89.9976
0
LINE
8
BLACK
6
CONTINUOUS
10
235.62
20
-110.65
11
235.62
21
-98.65
0
LINE
8
BLACK
6
CONTINUOUS
10
312.108
20
-136.75
11
312.108
21
-148.75
0
ARC
8
BLACK
10
151.183
20
-155.8
40
1.00008
50
90.0044
51
179.996
0
ARC
8
BLACK
10
102.27
20
-140.907
40
1
50
-239.999
51
-179.999
0
LINE
8
BLACK
6
CONTINUOUS
10
298.82
20
-111.65
11
310.82
21
-111.65
0
LINE
8
BLACK
6
CONTINUOUS
10
44.12
20
-154.8
11
32.12
21
-154.8
0
ARC
8
BLACK
10
378.789
20
-169.8
40
1.0001
50
-89.9945
51
-0.00223432
0
LINE
8
BLACK
6
CONTINUOUS
10
258.433
20
-154.8
11
246.433
21
-154.8
0
ARC
8
BLACK
10
283.264
20
-172.85
40
0.999957
50
-270.003
51
-179.998
0
LINE
8
BLACK
6
CONTINUOUS
10
259.72
20
-98.65
11
259.72
21
-110.65
0
LINE
8
BLACK
6
CONTINUOUS
10
246.433
20
-168.8
11
258.433
21
-168.8
0
ARC
8
BLACK
10
337.014
20
-174.85
40
0.999959
50
-0.00240649
51
90.0015
0
ARC
8
BLACK
10
172.708
20
-148.75
40
0.999935
50
-90.0037
51
0.00412556
0
ARC
8
BLACK
10
63.17
20
-155.8
40
1
50
-5.72954e-05
51
89.9997
0
LINE
8
BLACK
6
CONTINUOUS
10
31.12
20
-155.8
11
31.12
21
-167.8
0
ARC
8
BLACK
10
55.083
20
-172.85
40
1
50
-90
51
5.72958e-05
0
ARC
8
BLACK
10
301.295
20
-117.7
40
0.99999
50
-0.00063025
51
89.9998
0
ARC
8
BLACK
10
140.672
20
-169.776
40
1.00004
50
-89.9976
51
-0.00229173
0
ARC
8
BLACK
10
301.201
20
-186.85
40
1.00005
50
-179.997
51
-90.0026
0
LINE
8
BLACK
6
CONTINUOUS
10
335.633
20
-167.8
11
335.633
21
-155.8
0
LINE
8
BLACK
6
CONTINUOUS
10
164.47
20
-98.65
11
164.47
21
-110.65
0
LINE
8
BLACK
6
CONTINUOUS
10
135.672
20
-170.776
11
140.672
21
-170.776
0
LINE
8
BLACK
6
CONTINUOUS
10
226.095
20
-129.7
11
226.095
21
-117.7
0
LINE
8
BLACK
6
CONTINUOUS
10
322.633
20
-168.8
11
334.633
21
-168.8
0
LINE
8
BLACK
6
CONTINUOUS
10
211.808
20
-148.75
11
211.808
21
-136.75
0
ARC
8
BLACK
10
82.22
20
-98.65
40
1
50
-5.72954e-05
51
89.9997
0
ARC
8
BLACK
10
32.1201
20
-136.75
40
1.0001
50
90.0057
51
179.994
0
LINE
8
BLACK
6
CONTINUOUS
10
63.17
20
-97.65
11
51.17
21
-97.65
0
LINE
8
BLACK
6
CONTINUOUS
10
51.17
20
-111.65
11
63.17
21
-111.65
0
ARC
8
BLACK
10
158.326
20
-186.85
40
1.00005
50
-179.997
51
-90.0013
0
LINE
8
BLACK
6
CONTINUOUS
10
228.764
20
-174.85
11
228.764
21
-186.85
0
LINE
8
BLACK
6
CONTINUOUS
10
167.945
20
-116.7
11
155.945
21
-116.7
0
ARC
8
BLACK
10
260.72
20
-110.65
40
1.00001
50
-180
51
-90.001
0
ARC
8
BLACK
10
370.634
20
-134.751
40
1.00004
50
-89.9976
51
-0.00229173
0
ARC
8
BLACK
10
277.482
20
-167.8
40
1.00009
50
-89.9948
51
-0.00217704
0
LINE
8
BLACK
6
CONTINUOUS
10
184.52
20
-111.65
11
196.52
21
-111.65
0
ARC
8
BLACK
10
376.552
20
-150.75
40
0.999971
50
-0.00166159
51
90.0003
0
LINE
8
BLACK
6
CONTINUOUS
10
308.345
20
-130.7
11
320.345
21
-130.7
0
LINE
8
BLACK
6
CONTINUOUS
10
277.483
20
-154.8
11
265.483
21
-154.8
0
LINE
8
BLACK
6
CONTINUOUS
10
51.17
20
-168.8
11
63.17
21
-168.8
0
ARC
8
BLACK
10
196.52
20
-98.6498
40
0.999799
50
-0.0115182
51
90.0087
0
ARC
8
BLACK
10
215.57
20
-110.65
40
1.00006
50
-89.9967
51
-0.000401047
0
LINE
8
BLACK
6
CONTINUOUS
10
221.62
20
-98.65
11
221.62
21
-110.65
0
LINE
8
BLACK
6
CONTINUOUS
10
370.253
20
-116.701
11
382.253
21
-116.701
0
LINE
8
BLACK
6
CONTINUOUS
10
288.008
20
-148.75
11
288.008
21
-136.75
0
LINE
8
BLACK
6
CONTINUOUS
10
385.634
20
-127.226
11
385.634
21
-139.226
0
LINE
8
BLACK
6
CONTINUOUS
10
140.658
20
-136.75
11
140.658
21
-148.75
0
ARC
8
BLACK
10
279.77
20
-110.65
40
1.00001
50
-180
51
-90.0005
0
ARC
8
BLACK
10
322.633
20
-174.85
40
1.00008
50
90.0048
51
179.991
0
ARC
8
BLACK
10
110.701
20
-186.85
40
1.00005
50
-179.997
51
-90.0028
0
ARC
8
BLACK
10
189.283
20
-167.8
40
1.00004
50
-179.998
51
-90.0032
0
ARC
8
BLACK
10
210.808
20
-136.75
40
0.99998
50
-0.00120314
51
89.9968
0
LINE
8
BLACK
6
CONTINUOUS
10
331.158
20
-136.75
11
331.158
21
-148.75
0
ARC
8
BLACK
10
227.383
20
-167.8
40
1.00004
50
-179.998
51
-90.0021
0
LINE
8
BLACK
6
CONTINUOUS
10
112.083
20
-117.7
11
112.083
21
-129.7
0
ARC
8
BLACK
10
348.821
20
-155.8
40
0.999914
50
-270.005
51
-179.998
0
ARC
8
BLACK
10
320.345
20
-129.7
40
0.999915
50
-90.0049
51
0.00475595
0
LINE
8
BLACK
6
CONTINUOUS
10
288.264
20
-171.85
11
283.264
21
-171.85
0
LINE
8
BLACK
6
CONTINUOUS
10
169.233
20
-155.8
11
169.233
21
-167.8
0
LINE
8
BLACK
6
CONTINUOUS
10
202.57
20
-98.65
11
202.57
21
-110.65
0
ARC
8
BLACK
10
296.533
20
-155.8
40
1.00007
50
0.0039534
51
89.9999
0
LINE
8
BLACK
6
CONTINUOUS
10
316.87
20
-98.65
11
316.87
21
-110.65
0
ARC
8
BLACK
10
387.021
20
-167.8
40
1.0001
50
-89.9944
51
-0.00217702
0
LINE
8
BLACK
6
CONTINUOUS
10
107.32
20
-98.65
11
107.32
21
-110.65
0
ARC
8
BLACK
10
82.2201
20
-148.75
40
0.999907
50
-90.0054
51
0.005329
0
ARC
8
BLACK
10
182.232
20
-155.8
40
1.00007
50
0.00395325
51
89.9977
0
LINE
8
BLACK
6
CONTINUOUS
10
110.701
20
-187.85
11
125.083
21
-187.85
0
LINE
8
BLACK
6
CONTINUOUS
10
317.87
20
-111.65
11
329.87
21
-111.65
0
LINE
8
BLACK
6
CONTINUOUS
10
121.32
20
-110.65
11
121.32
21
-98.65
0
LINE
8
BLACK
6
CONTINUOUS
10
349.913
20
-170.8
11
354.913
21
-170.8
0
LINE
8
BLACK
6
CONTINUOUS
10
178.47
20
-110.65
11
178.47
21
-98.65
0
LINE
8
BLACK
6
CONTINUOUS
10
126.37
20
-98.65
11
126.37
21
-110.65
0
LINE
8
BLACK
6
CONTINUOUS
10
31.12
20
-136.75
11
31.12
21
-148.75
0
LINE
8
BLACK
6
CONTINUOUS
10
149.895
20
-129.7
11
149.895
21
-117.7
0
LINE
8
BLACK
6
CONTINUOUS
10
110.701
20
-149.75
11
127.464
21
-149.75
0
LINE
8
BLACK
6
CONTINUOUS
10
297.533
20
-167.8
11
297.533
21
-155.8
0
ARC
8
BLACK
10
210.808
20
-148.75
40
1.00005
50
-89.9968
51
-0.00160419
0
LINE
8
BLACK
6
CONTINUOUS
10
222.62
20
-111.65
11
234.62
21
-111.65
0
LINE
8
BLACK
6
CONTINUOUS
10
83.22
20
-110.65
11
83.22
21
-98.65
0
LINE
8
BLACK
6
CONTINUOUS
10
170.233
20
-168.8
11
182.233
21
-168.8
0
ARC
8
BLACK
10
344.158
20
-136.75
40
0.99998
50
-0.00120318
51
89.9985
0
ARC
8
BLACK
10
384.634
20
-127.226
40
1.00026
50
0.00916511
51
59.9926
0
LINE
8
BLACK
6
CONTINUOUS
10
220.333
20
-154.8
11
208.333
21
-154.8
0
LINE
8
BLACK
6
CONTINUOUS
10
230.858
20
-148.75
11
230.858
21
-136.75
0
LINE
8
BLACK
6
CONTINUOUS
10
378.552
20
-151.75
11
383.634
21
-151.75
0
LINE
8
BLACK
6
CONTINUOUS
10
387.015
20
-97.65
11
355.965
21
-97.65
0
ARC
8
BLACK
10
310.82
20
-110.65
40
0.99991
50
-90.0052
51
0.00532899
0
LINE
8
BLACK
6
CONTINUOUS
10
354.671
20
-151.751
11
359.676
21
-151.75
0
ARC
8
BLACK
10
127.37
20
-110.65
40
1.00001
50
-180
51
-89.9994
0
ARC
8
BLACK
10
110.701
20
-148.75
40
1.00013
50
-179.993
51
-90.0028
0
ARC
8
BLACK
10
315.583
20
-155.8
40
0.999969
50
-0.00177615
51
89.9993
0
ARC
8
BLACK
10
102.27
20
-125.443
40
0.999884
50
-180.004
51
-119.997
0
LINE
8
BLACK
6
CONTINUOUS
10
267.958
20
-135.75
11
255.958
21
-135.75
0
ARC
8
BLACK
10
134.514
20
-186.85
40
1.00005
50
-179.997
51
-90.0021
0
ARC
8
BLACK
10
229.764
20
-174.85
40
1.00009
50
90.0049
51
179.991
0
LINE
8
BLACK
6
CONTINUOUS
10
32.12
20
-111.65
11
44.12
21
-111.65
0
ARC
8
BLACK
10
63.1701
20
-167.8
40
0.999907
50
-90.0054
51
0.005329
0
LINE
8
BLACK
6
CONTINUOUS
10
168.945
20
-129.7
11
168.945
21
-117.7
0
LINE
8
BLACK
6
CONTINUOUS
10
296.533
20
-154.8
11
284.533
21
-154.8
0
LINE
8
BLACK
6
CONTINUOUS
10
395.335
20
-197.564
11
23.8603
21
-197.564
0
ARC
8
BLACK
10
40.207
20
-172.85
40
1
50
-180
51
-90
0
LINE
8
BLACK
6
CONTINUOUS
10
356.913
20
-168.8
11
371.789
21
-168.8
0
LINE
8
BLACK
6
CONTINUOUS
10
50.17
20
-136.75
11
50.17
21
-148.75
0
ARC
8
BLACK
10
127.464
20
-148.75
40
1.00006
50
-89.9966
51
-0.00160419
0
ARC
8
BLACK
10
82.22
20
-155.8
40
1
50
-5.72954e-05
51
89.9997
0
ARC
8
BLACK
10
63.17
20
-136.75
40
1
50
-5.72954e-05
51
89.9997
0
ARC
8
BLACK
10
196.52
20
-110.65
40
1.00005
50
-89.9972
51
-0.000401051
0
LINE
8
BLACK
6
CONTINUOUS
10
311.82
20
-110.65
11
311.82
21
-98.65
0
ARC
8
BLACK
10
248.908
20
-136.75
40
0.999979
50
-0.00120324
51
90.0014
0
LINE
8
BLACK
6
CONTINUOUS
10
289.264
20
-185.85
11
289.264
21
-172.85
0
ARC
8
BLACK
10
110.701
20
-174.85
40
0.99995
50
-270.003
51
-179.998
0
LINE
8
BLACK
6
CONTINUOUS
10
64.17
20
-167.8
11
64.17
21
-155.8
0
LINE
8
BLACK
6
CONTINUOUS
10
135.895
20
-117.7
11
135.895
21
-129.7
0
ARC
8
BLACK
10
370.253
20
-129.701
40
0.99994
50
-180.003
51
-90.0005
0
LINE
8
BLACK
6
CONTINUOUS
10
194.02
20
-185.85
11
194.02
21
-172.85
0
LINE
8
BLACK
6
CONTINUOUS
10
322.633
20
-187.85
11
337.014
21
-187.85
0
LINE
8
BLACK
6
CONTINUOUS
10
388.02
20
-110.65
11
388.02
21
-98.65
0
LINE
8
BLACK
6
CONTINUOUS
10
351.203
20
-149.751
11
352.671
21
-149.751
0
ARC
8
BLACK
10
174.995
20
-117.7
40
1.00006
50
90.0037
51
179.995
0
LINE
8
BLACK
6
CONTINUOUS
10
159.708
20
-136.75
11
159.708
21
-148.75
0
ARC
8
BLACK
10
339.395
20
-117.7
40
1.00009
50
0.0050992
51
89.9986
0
LINE
8
BLACK
6
CONTINUOUS
10
148.895
20
-173.85
11
134.514
21
-173.85
0
LINE
8
BLACK
6
CONTINUOUS
10
127.37
20
-111.65
11
139.37
21
-111.65
0
ARC
8
BLACK
10
253.67
20
-174.85
40
0.999959
50
-0.00240647
51
90.0013
0
LINE
8
BLACK
6
CONTINUOUS
10
87.27
20
-148.613
11
100.27
21
-148.613
0
ARC
8
BLACK
10
263.195
20
-129.7
40
1.00008
50
-89.9952
51
-0.000973945
0
ARC
8
BLACK
10
275.008
20
-148.75
40
1.00003
50
-179.998
51
-90.0006
0
LINE
8
BLACK
6
CONTINUOUS
10
245.145
20
-129.7
11
245.145
21
-117.7
0
LINE
8
BLACK
6
CONTINUOUS
10
207.045
20
-129.7
11
207.045
21
-117.7
0
ARC
8
BLACK
10
385.634
20
-140.958
40
1.00026
50
120.01
51
179.994
0
ARC
8
BLACK
10
347.726
20
-169.8
40
1.18747
50
-0.00188175
51
57.1006
0
ARC
8
BLACK
10
255.957
20
-136.75
40
0.99992
50
-270.005
51
-179.999
0
ARC
8
BLACK
10
70.22
20
-186.85
40
1.00001
50
-180
51
-90
0
LINE
8
BLACK
6
CONTINUOUS
10
63.083
20
-172.85
11
63.083
21
-185.85
0
LINE
8
BLACK
6
CONTINUOUS
10
88.27
20
-98.65
11
88.27
21
-110.65
0
ARC
8
BLACK
10
303.583
20
-167.8
40
1.00004
50
-179.998
51
-89.9997
0
LINE
8
BLACK
6
CONTINUOUS
10
313.108
20
-149.75
11
325.108
21
-149.75
0
LINE
8
BLACK
6
CONTINUOUS
10
126.083
20
-186.85
11
126.083
21
-174.85
0
ARC
8
BLACK
10
315.583
20
-167.8
40
0.999913
50
-90.005
51
0.00928272
0
ARC
8
BLACK
10
380.933
20
-112.65
40
1.00001
50
-180
51
-90.003
0
ARC
8
BLACK
10
57.083
20
-172.85
40
1
50
90
51
180
0
LINE
8
BLACK
6
CONTINUOUS
10
210.808
20
-135.75
11
198.808
21
-135.75
0
ARC
8
BLACK
10
133.672
20
-169.776
40
0.99996
50
-0.00229196
51
90.0033
0
ARC
8
BLACK
10
370.634
20
-131.701
40
0.99996
50
-0.00229196
51
90.0033
0
LINE
8
BLACK
6
CONTINUOUS
10
83.22
20
-148.75
11
83.22
21
-136.75
0
ARC
8
BLACK
10
217.857
20
-136.75
40
0.999941
50
-270.003
51
-179.999
0
ARC
8
BLACK
10
170.233
20
-155.8
40
1.00007
50
90.0038
51
179.996
0
LINE
8
BLACK
6
CONTINUOUS
10
173.708
20
-148.75
11
173.708
21
-136.75
0
ARC
8
BLACK
10
32.1201
20
-117.7
40
1.0001
50
90.0057
51
179.994
0
LINE
8
BLACK
6
CONTINUOUS
10
173.995
20
-117.7
11
173.995
21
-129.7
0
LINE
8
BLACK
6
CONTINUOUS
10
86.27
20
-118.737
11
86.27
21
-123.737
0
ARC
8
BLACK
10
203.57
20
-98.65
40
0.99995
50
-270.003
51
-180
0
LINE
8
BLACK
6
CONTINUOUS
10
82.22
20
-154.8
11
70.22
21
-154.8
0
LINE
8
BLACK
6
CONTINUOUS
10
272.72
20
-97.65
11
260.72
21
-97.65
0
ARC
8
BLACK
10
373.789
20
-169.8
40
0.999939
50
-180.003
51
-90.0004
0
ARC
8
BLACK
10
51.17
20
-129.7
40
1.00001
50
-180
51
-90
0
ARC
8
BLACK
10
334.633
20
-167.8
40
0.999923
50
-90.0045
51
0.00928263
0
ARC
8
BLACK
10
70.22
20
-148.75
40
1.00001
50
-180
51
-90
0
ARC
8
BLACK
10
146.42
20
-110.65
40
1.00001
50
-180
51
-89.9989
0
ARC
8
BLACK
10
387.021
20
-155.8
40
0.99997
50
-0.00177617
51
90.0001
0
LINE
8
BLACK
6
CONTINUOUS
10
259.433
20
-167.8
11
259.433
21
-155.8
0
LINE
8
BLACK
6
CONTINUOUS
10
113.083
20
-130.7
11
125.083
21
-130.7
0
ARC
8
BLACK
10
153.657
20
-136.75
40
0.99998
50
-0.00120318
51
89.9986
0
ARC
8
BLACK
10
220.332
20
-167.8
40
1.00006
50
-89.9966
51
-0.00217711
0
LINE
8
BLACK
6
CONTINUOUS
10
134.514
20
-187.85
11
148.895
21
-187.85
0
ARC
8
BLACK
10
63.17
20
-98.65
40
1
50
-5.72954e-05
51
89.9997
0
LINE
8
BLACK
6
CONTINUOUS
10
197.52
20
-110.65
11
197.52
21
-98.65
0
LINE
8
BLACK
6
CONTINUOUS
10
346.445
20
-187.85
11
360.826
21
-187.85
0
LINE
8
BLACK
6
CONTINUOUS
10
229.858
20
-135.75
11
217.858
21
-135.75
0
LINE
8
BLACK
6
CONTINUOUS
10
193.02
20
-171.85
11
183.264
21
-171.85
0
LINE
8
BLACK
6
CONTINUOUS
10
253.67
20
-173.85
11
229.764
21
-173.85
0
ARC
8
BLACK
10
172.707
20
-174.85
40
1.00006
50
0.00332304
51
89.998
0
LINE
8
BLACK
6
CONTINUOUS
10
164.183
20
-167.8
11
164.183
21
-155.8
0
LINE
8
BLACK
6
CONTINUOUS
10
254.67
20
-186.85
11
254.67
21
-174.85
0
ARC
8
BLACK
10
87.27
20
-140.613
40
1
50
-90.0001
51
0.00148969
0
ARC
8
BLACK
10
255.958
20
-148.75
40
1.00003
50
-179.998
51
-90.0011
0
LINE
8
BLACK
6
CONTINUOUS
10
283.533
20
-155.8
11
283.533
21
-167.8
0
ARC
8
BLACK
10
158.42
20
-98.65
40
0.999999
50
-5.72942e-05
51
89.9985
0
ARC
8
BLACK
10
155.945
20
-117.7
40
1.00008
50
90.0042
51
179.995
0
ARC
8
BLACK
10
165.47
20
-110.65
40
0.999908
50
-180.005
51
-89.9982
0
ARC
8
BLACK
10
354.671
20
-150.751
40
0.99994
50
-180.003
51
-89.9976
0
ARC
8
BLACK
10
346.445
20
-186.85
40
0.999948
50
-180.003
51
-89.9984
0
LINE
8
BLACK
6
CONTINUOUS
10
301.295
20
-116.7
11
289.295
21
-116.7
0
ARC
8
BLACK
10
110.701
20
-136.75
40
1.00005
50
-269.997
51
-179.999
0
LINE
8
BLACK
6
CONTINUOUS
10
236.908
20
-149.75
11
248.908
21
-149.75
0
ARC
8
BLACK
10
384.054
20
-116.833
40
0.999916
50
-154.27
51
-102.132
0
ARC
8
BLACK
10
215.57
20
-98.65
40
0.999999
50
-5.72982e-05
51
90.0024
0
LINE
8
BLACK
6
CONTINUOUS
10
369.253
20
-117.701
11
369.253
21
-129.701
0
LINE
8
BLACK
6
CONTINUOUS
10
102.27
20
-110.65
11
102.27
21
-98.65
0
ARC
8
BLACK
10
87.27
20
-123.737
40
0.999974
50
-180.001
51
-90.0001
0
ARC
8
BLACK
10
120.32
20
-98.65
40
1
50
-5.72954e-05
51
89.9997
0
ARC
8
BLACK
10
253.67
20
-186.85
40
1.00008
50
-89.9955
51
-0.00274998
0
LINE
8
BLACK
6
CONTINUOUS
10
354.97
20
-98.65
11
354.97
21
-110.65
0
ARC
8
BLACK
10
70.2201
20
-155.8
40
1.0001
50
90.0057
51
179.994
0
LINE
8
BLACK
6
CONTINUOUS
10
384.634
20
-150.751
11
384.634
21
-140.958
0
ARC
8
BLACK
10
270.245
20
-117.7
40
1.00011
50
90.0065
51
179.989
0
LINE
8
BLACK
6
CONTINUOUS
10
212.095
20
-117.7
11
212.095
21
-129.7
0
LINE
8
BLACK
6
CONTINUOUS
10
69.22
20
-117.7
11
69.22
21
-129.7
0
LINE
8
BLACK
6
CONTINUOUS
10
250.195
20
-117.7
11
250.195
21
-129.7
0
ARC
8
BLACK
10
160.707
20
-148.75
40
1.00003
50
-179.998
51
-89.9984
0
ARC
8
BLACK
10
329.87
20
-98.65
40
0.999999
50
-5.72946e-05
51
89.9989
0
LINE
8
BLACK
6
CONTINUOUS
10
345.445
20
-174.85
11
345.445
21
-186.85
0
LINE
8
BLACK
6
CONTINUOUS
10
283.264
20
-186.85
11
288.264
21
-186.85
0
LINE
8
BLACK
6
CONTINUOUS
10
265.483
20
-168.8
11
277.483
21
-168.8
0
LINE
8
BLACK
6
CONTINUOUS
10
234.62
20
-97.65
11
222.62
21
-97.65
0
LINE
8
BLACK
6
CONTINUOUS
10
294.058
20
-149.75
11
306.058
21
-149.75
0
ARC
8
BLACK
10
160.708
20
-136.75
40
1.00007
50
90.0041
51
179.995
0
ARC
8
BLACK
10
284.532
20
-155.8
40
0.999905
50
-270.005
51
-179.998
0
ARC
8
BLACK
10
82.2201
20
-167.8
40
0.999907
50
-90.0054
51
0.005329
0
ARC
8
BLACK
10
44.12
20
-136.75
40
1
50
-5.72954e-05
51
89.9997
0
LINE
8
BLACK
6
CONTINUOUS
10
340.395
20
-129.7
11
340.395
21
-117.7
0
LINE
8
BLACK
6
CONTINUOUS
10
158.326
20
-187.85
11
172.708
21
-187.85
0
LINE
8
BLACK
6
CONTINUOUS
10
327.395
20
-130.7
11
339.395
21
-130.7
0
ARC
8
BLACK
10
348.92
20
-110.65
40
0.999931
50
-90.004
51
0.00532888
0
LINE
8
BLACK
6
CONTINUOUS
10
163.183
20
-154.8
11
151.183
21
-154.8
0
LINE
8
BLACK
6
CONTINUOUS
10
300.201
20
-174.85
11
300.201
21
-186.85
0
ARC
8
BLACK
10
125.082
20
-174.85
40
0.999958
50
-0.0024064
51
89.9995
0
LINE
8
BLACK
6
CONTINUOUS
10
165.47
20
-111.65
11
177.47
21
-111.65
0
ARC
8
BLACK
10
364.057
20
-112.65
40
1.00016
50
90.0093
51
179.995
0
ARC
8
BLACK
10
229.858
20
-136.75
40
0.999979
50
-0.00120325
51
90.0019
0
ARC
8
BLACK
10
378.933
20
-112.65
40
0.999993
50
-0.000458391
51
90.0031
0
ARC
8
BLACK
10
395.335
20
-90.4083
40
2.3813
50
0.00120304
51
89.9988
0
ARC
8
BLACK
10
313.201
20
-186.85
40
1.00006
50
-89.9965
51
-0.00275003
0
LINE
8
BLACK
6
CONTINUOUS
10
125.083
20
-116.7
11
113.083
21
-116.7
0
LINE
8
BLACK
6
CONTINUOUS
10
332.158
20
-149.75
11
344.158
21
-149.75
0
ARC
8
BLACK
10
102.27
20
-179.007
40
1
50
-239.999
51
-179.999
0
CIRCLE
8
BLACK
10
393.879
20
-193.477
40
0.95
0
LINE
8
BLACK
6
CONTINUOUS
10
289.295
20
-130.7
11
301.295
21
-130.7
0
ARC
8
BLACK
10
87.27
20
-185.713
40
0.999974
50
-180.001
51
-90.0001
0
ARC
8
BLACK
10
385.933
20
-112.65
40
1.00005
50
-89.9971
51
-0.000458343
0
LINE
8
BLACK
6
CONTINUOUS
10
150.183
20
-155.8
11
150.183
21
-167.8
0
ARC
8
BLACK
10
70.22
20
-110.65
40
1.00001
50
-180
51
-90
0
ARC
8
BLACK
10
282.245
20
-117.7
40
0.999989
50
-0.000630257
51
90.0003
0
ARC
8
BLACK
10
110.709
20
-155.776
40
1.00006
50
90.0033
51
179.997
0
LINE
8
BLACK
6
CONTINUOUS
10
325.108
20
-135.75
11
313.108
21
-135.75
0
ARC
8
BLACK
10
222.62
20
-110.65
40
1.00001
50
-180
51
-90.0022
0
ARC
8
BLACK
10
116.796
20
-169.776
40
1.00004
50
-89.9976
51
-0.00229173
0
LINE
8
BLACK
6
CONTINUOUS
10
349.92
20
-110.65
11
349.92
21
-98.65
0
LINE
8
BLACK
6
CONTINUOUS
10
88.27
20
-125.737
11
88.27
21
-140.613
0
ARC
8
BLACK
10
346.445
20
-117.7
40
1.00007
50
90.0041
51
179.995
0
ARC
8
BLACK
10
193.02
20
-172.85
40
0.999959
50
-0.00234925
51
90.0031
0
ARC
8
BLACK
10
282.245
20
-129.7
40
0.999895
50
-90.0061
51
0.0104862
0
LINE
8
BLACK
6
CONTINUOUS
10
361.826
20
-186.85
11
361.826
21
-174.85
0
LINE
8
BLACK
6
CONTINUOUS
10
189.283
20
-168.8
11
201.283
21
-168.8
0
ARC
8
BLACK
10
101.27
20
-98.65
40
1
50
-5.72954e-05
51
89.9997
0
LINE
8
BLACK
6
CONTINUOUS
10
87.27
20
-186.713
11
100.27
21
-186.713
0
ARC
8
BLACK
10
100.27
20
-185.713
40
0.999999
50
-90.0001
51
0.00148969
0
ARC
8
BLACK
10
82.22
20
-117.7
40
1
50
-5.72954e-05
51
89.9997
0
ARC
8
BLACK
10
348.92
20
-98.6501
40
1.0001
50
0.00567211
51
89.9983
0
LINE
8
BLACK
6
CONTINUOUS
10
197.808
20
-136.75
11
197.808
21
-148.75
0
ARC
8
BLACK
10
294.058
20
-136.75
40
1.0001
50
90.0057
51
179.99
0
LINE
8
BLACK
6
CONTINUOUS
10
283.245
20
-129.7
11
283.245
21
-117.7
0
ARC
8
BLACK
10
332.158
20
-148.75
40
1.00003
50
-179.998
51
-89.9988
0
LINE
8
BLACK
6
CONTINUOUS
10
240.67
20
-98.65
11
240.67
21
-110.65
0
ARC
8
BLACK
10
383.634
20
-118.788
40
0.999949
50
-0.00229196
51
77.8679
0
ARC
8
BLACK
10
287.008
20
-136.75
40
0.99998
50
-0.00120321
51
90.0002
0
ARC
8
BLACK
10
208.332
20
-155.8
40
0.999946
50
-270.003
51
-179.998
0
CIRCLE
8
BLACK
10
117.429
20
-91.827
40
0.95
0
LINE
8
BLACK
6
CONTINUOUS
10
330.87
20
-110.65
11
330.87
21
-98.65
0
ARC
8
BLACK
10
283.264
20
-185.85
40
1.00005
50
-179.997
51
-90.0032
0
LINE
8
BLACK
6
CONTINUOUS
10
62.083
20
-171.85
11
57.083
21
-171.85
0
LINE
8
BLACK
6
CONTINUOUS
10
111.796
20
-170.776
11
116.796
21
-170.776
0
LINE
8
BLACK
6
CONTINUOUS
10
102.27
20
-127.175
11
102.27
21
-139.175
0
LINE
8
BLACK
6
CONTINUOUS
10
126.083
20
-129.7
11
126.083
21
-117.7
0
ARC
8
BLACK
10
182.233
20
-167.8
40
0.999941
50
-90.0034
51
0.00355255
0
ARC
8
BLACK
10
373.289
20
-154.8
40
0.999728
50
-90.0091
51
-29.9912
0
ARC
8
BLACK
10
193.02
20
-185.85
40
1.00005
50
-89.9974
51
-0.00275007
0
ARC
8
BLACK
10
82.22
20
-136.75
40
1
50
-5.72954e-05
51
89.9997
0
LINE
8
BLACK
6
CONTINUOUS
10
279.77
20
-111.65
11
291.77
21
-111.65
0
ARC
8
BLACK
10
127.464
20
-136.75
40
0.99998
50
-0.00120326
51
90.0023
0
ARC
8
BLACK
10
356.913
20
-169.8
40
0.999916
50
-270.005
51
-179.998
0
LINE
8
BLACK
6
CONTINUOUS
10
336.92
20
-111.65
11
348.92
21
-111.65
0
ARC
8
BLACK
10
120.32
20
-110.65
40
0.999907
50
-90.0054
51
0.005329
0
LINE
8
BLACK
6
CONTINUOUS
10
183.264
20
-186.85
11
193.02
21
-186.85
0
LINE
8
BLACK
6
CONTINUOUS
10
64.17
20
-110.65
11
64.17
21
-98.65
0
ARC
8
BLACK
10
355.97
20
-98.6501
40
1.00007
50
90.2899
51
179.994
0
ARC
8
BLACK
10
194.045
20
-117.7
40
0.999955
50
-270.003
51
-179.999
0
LINE
8
BLACK
6
CONTINUOUS
10
179.758
20
-149.75
11
191.758
21
-149.75
0
ARC
8
BLACK
10
378.552
20
-150.75
40
1.00003
50
-179.998
51
-90.0002
0
ARC
8
BLACK
10
241.67
20
-98.6502
40
1.00013
50
90.0073
51
179.989
0
ARC
8
BLACK
10
327.395
20
-117.7
40
1.00008
50
90.0047
51
179.995
0
ARC
8
BLACK
10
110.709
20
-167.776
40
1.00011
50
-179.998
51
-117.169
0
ARC
8
BLACK
10
263.195
20
-117.7
40
0.999989
50
-0.000630264
51
90.0009
0
ARC
8
BLACK
10
253.67
20
-98.65
40
1
50
-5.72913e-05
51
89.9955
0
LINE
8
BLACK
6
CONTINUOUS
10
178.758
20
-136.75
11
178.758
21
-148.75
0
ARC
8
BLACK
10
203.57
20
-110.65
40
1.00001
50
-180
51
-90.0028
0
ARC
8
BLACK
10
153.658
20
-148.75
40
0.999924
50
-90.0044
51
0.00412561
0
ARC
8
BLACK
10
294.058
20
-148.75
40
1.00003
50
-179.998
51
-90
0
LINE
8
BLACK
6
CONTINUOUS
10
216.858
20
-136.75
11
216.858
21
-148.75
0
ARC
8
BLACK
10
201.283
20
-155.8
40
0.99997
50
-0.00177626
51
90.0029
0
LINE
8
BLACK
6
CONTINUOUS
10
302.295
20
-129.7
11
302.295
21
-117.7
0
ARC
8
BLACK
10
309.32
20
-172.85
40
1.00004
50
-179.998
51
-89.9995
0
ARC
8
BLACK
10
172.708
20
-186.85
40
0.999936
50
-90.0037
51
0.00297957
0
LINE
8
BLACK
6
CONTINUOUS
10
241.67
20
-111.65
11
253.67
21
-111.65
0
ARC
8
BLACK
10
51.17
20
-167.8
40
1.00001
50
-180
51
-90
0
ARC
8
BLACK
10
148.895
20
-186.85
40
0.999923
50
-90.0045
51
0.00870963
0
LINE
8
BLACK
6
CONTINUOUS
10
275.008
20
-149.75
11
287.008
21
-149.75
0
LINE
8
BLACK
6
CONTINUOUS
10
31.12
20
-117.7
11
31.12
21
-129.7
0
ARC
8
BLACK
10
148.895
20
-129.7
40
0.999923
50
-90.0045
51
0.00475592
0
ARC
8
BLACK
10
307.32
20
-172.85
40
0.99996
50
-0.00234911
51
89.9996
0
LINE
8
BLACK
6
CONTINUOUS
10
232.145
20
-130.7
11
244.145
21
-130.7
0
ARC
8
BLACK
10
232.145
20
-117.7
40
0.999934
50
-270.004
51
-179.999
0
ARC
8
BLACK
10
32.12
20
-110.65
40
1.00001
50
-180
51
-90
0
ARC
8
BLACK
10
177.47
20
-98.65
40
1
50
-5.72936e-05
51
89.9979
0
ARC
8
BLACK
10
275.007
20
-136.75
40
0.99991
50
-270.005
51
-179.999
0
LINE
8
BLACK
6
CONTINUOUS
10
388.021
20
-167.8
11
388.021
21
-155.8
0
ARC
8
BLACK
10
63.17
20
-117.7
40
1
50
-5.72954e-05
51
89.9997
0
LINE
8
BLACK
6
CONTINUOUS
10
149.895
20
-186.85
11
149.895
21
-174.85
0
LINE
8
BLACK
6
CONTINUOUS
10
136.895
20
-130.7
11
148.895
21
-130.7
0
LINE
8
BLACK
6
CONTINUOUS
10
145.42
20
-98.65
11
145.42
21
-110.65
0
ARC
8
BLACK
10
213.095
20
-117.7
40
0.999945
50
-270.003
51
-179.999
0
LINE
8
BLACK
6
CONTINUOUS
10
249.908
20
-148.75
11
249.908
21
-136.75
0
CIRCLE
8
BLACK
10
117.429
20
-193.477
40
0.95
0
ARC
8
BLACK
10
70.2201
20
-136.75
40
1.0001
50
90.0057
51
179.994
0
ARC
8
BLACK
10
296.532
20
-167.8
40
1.0001
50
-89.9942
51
-0.00217702
0
ARC
8
BLACK
10
239.382
20
-167.8
40
1.00007
50
-89.9959
51
-0.00217708
0
ARC
8
BLACK
10
310.82
20
-98.65
40
1
50
-5.72952e-05
51
89.9995
0
ARC
8
BLACK
10
33.207
20
-185.85
40
0.999999
50
-180
51
-90
0
ARC
8
BLACK
10
272.72
20
-110.65
40
0.99989
50
-90.0064
51
0.0110593
0
LINE
8
BLACK
6
CONTINUOUS
10
227.383
20
-168.8
11
239.383
21
-168.8
0
ARC
8
BLACK
10
44.12
20
-117.7
40
1
50
-5.72954e-05
51
89.9997
0
ARC
8
BLACK
10
370.257
20
-186.85
40
0.999748
50
-180.014
51
-89.9862
0
ARC
8
BLACK
10
329.87
20
-110.65
40
0.999921
50
-90.0046
51
0.00532893
0
LINE
8
BLACK
6
CONTINUOUS
10
193.045
20
-117.7
11
193.045
21
-129.7
0
LINE
8
BLACK
6
CONTINUOUS
10
371.634
20
-134.751
11
371.634
21
-131.701
0
LINE
8
BLACK
6
CONTINUOUS
10
284.533
20
-168.8
11
296.533
21
-168.8
0
ARC
8
BLACK
10
118.796
20
-169.776
40
1.00006
50
90.0033
51
179.997
0
ARC
8
BLACK
10
244.145
20
-129.7
40
1.00007
50
-89.9958
51
-0.000973956
0
ARC
8
BLACK
10
51.17
20
-110.65
40
1.00001
50
-180
51
-90
0
ARC
8
BLACK
10
189.282
20
-155.8
40
0.999956
50
-270.003
51
-179.998
0
LINE
8
BLACK
6
CONTINUOUS
10
110.796
20
-169.776
11
110.796
21
-169.555
0
LINE
8
BLACK
6
CONTINUOUS
10
188.283
20
-155.8
11
188.283
21
-167.8
0
LINE
8
BLACK
6
CONTINUOUS
10
44.12
20
-135.75
11
32.12
21
-135.75
0
LINE
8
BLACK
6
CONTINUOUS
10
339.395
20
-116.7
11
327.395
21
-116.7
0
LINE
8
BLACK
6
CONTINUOUS
10
139.37
20
-97.65
11
127.37
21
-97.65
0
ARC
8
BLACK
10
313.108
20
-148.75
40
1.00003
50
-179.998
51
-89.9994
0
LINE
8
BLACK
6
CONTINUOUS
10
387.021
20
-154.8
11
375.021
21
-154.8
0
LINE
8
BLACK
6
CONTINUOUS
10
356.057
20
-112.429
11
356.057
21
-112.65
0
ARC
8
BLACK
10
44.12
20
-155.8
40
1
50
-5.72954e-05
51
89.9997
0
ARC
8
BLACK
10
327.395
20
-129.7
40
0.999917
50
-180.005
51
-89.999
0
LINE
8
BLACK
6
CONTINUOUS
10
380.933
20
-113.65
11
385.933
21
-113.65
0
LINE
8
BLACK
6
CONTINUOUS
10
146.42
20
-111.65
11
158.42
21
-111.65
0
ARC
8
BLACK
10
32.12
20
-167.8
40
1.00001
50
-180
51
-90
0
LINE
8
BLACK
6
CONTINUOUS
10
87.27
20
-117.737
11
100.27
21
-117.737
0
ARC
8
BLACK
10
384.639
20
-174.85
40
0.999959
50
-0.00240642
51
90.0001
0
ARC
8
BLACK
10
370.351
20
-155.8
40
0.99997
50
29.9987
51
90.0005
0
ARC
8
BLACK
10
334.633
20
-155.8
40
0.99997
50
-0.00177613
51
89.9987
0
ARC
8
BLACK
10
142.672
20
-169.776
40
1.00006
50
90.0033
51
179.997
0
LINE
8
BLACK
6
CONTINUOUS
10
235.908
20
-136.75
11
235.908
21
-148.75
0
ARC
8
BLACK
10
139.37
20
-98.65
40
0.999999
50
-5.72948e-05
51
89.999
0
ARC
8
BLACK
10
357.057
20
-112.65
40
1.00001
50
-180
51
-89.9981
0
CIRCLE
8
BLACK
10
25.279
20
-193.477
40
0.95
0
LINE
8
BLACK
6
CONTINUOUS
10
321.633
20
-155.8
11
321.633
21
-167.8
0
LINE
8
BLACK
6
CONTINUOUS
10
370.351
20
-154.8
11
348.821
21
-154.8
0
ARC
8
BLACK
10
244.145
20
-117.7
40
0.99999
50
-0.00063027
51
90.0015
0
LINE
8
BLACK
6
CONTINUOUS
10
301.201
20
-187.85
11
313.201
21
-187.85
0
ARC
8
BLACK
10
265.483
20
-167.8
40
1.00004
50
-179.998
51
-90.0009
0
LINE
8
BLACK
6
CONTINUOUS
10
307.345
20
-117.7
11
307.345
21
-129.7
0
ARC
8
BLACK
10
227.382
20
-155.8
40
0.999936
50
-270.004
51
-179.998
0
LINE
8
BLACK
6
CONTINUOUS
10
51.17
20
-130.7
11
63.17
21
-130.7
0
LINE
8
BLACK
6
CONTINUOUS
10
385.639
20
-186.85
11
385.639
21
-174.85
0
ARC
8
BLACK
10
70.22
20
-167.8
40
1.00001
50
-180
51
-90
0
ARC
8
BLACK
10
158.326
20
-174.85
40
0.999924
50
-270.004
51
-179.998
0
LINE
8
BLACK
6
CONTINUOUS
10
70.22
20
-168.8
11
82.22
21
-168.8
0
ARC
8
BLACK
10
234.62
20
-98.65
40
1
50
-5.72976e-05
51
90.0018
0
LINE
8
BLACK
6
CONTINUOUS
10
351.203
20
-135.751
11
370.634
21
-135.751
0
LINE
8
BLACK
6
CONTINUOUS
10
251.195
20
-130.7
11
263.195
21
-130.7
0
ARC
8
BLACK
10
317.87
20
-110.65
40
1.00001
50
-180
51
-89.9993
0
LINE
8
BLACK
6
CONTINUOUS
10
274.008
20
-136.75
11
274.008
21
-148.75
0
ARC
8
BLACK
10
87.27
20
-147.613
40
0.999974
50
-180.001
51
-90.0001
0
ARC
8
BLACK
10
279.77
20
-98.6501
40
1.00011
50
90.0062
51
179.994
0
LINE
8
BLACK
6
CONTINUOUS
10
155.945
20
-130.7
11
167.945
21
-130.7
0
ARC
8
BLACK
10
141.657
20
-148.75
40
1.00003
50
-179.998
51
-89.999
0
ARC
8
BLACK
10
44.12
20
-98.65
40
1
50
-5.72954e-05
51
89.9997
0
LINE
8
BLACK
6
CONTINUOUS
10
329.87
20
-97.65
11
317.87
21
-97.65
0
LINE
8
BLACK
6
CONTINUOUS
10
370.258
20
-187.85
11
384.639
21
-187.85
0
ARC
8
BLACK
10
87.27
20
-142.613
40
1
50
90.0001
51
179.999
0
ARC
8
BLACK
10
289.295
20
-129.7
40
1.00002
50
-179.999
51
-90.0001
0
ARC
8
BLACK
10
89.27
20
-110.65
40
1.00001
50
-180
51
-90
0
LINE
8
BLACK
6
CONTINUOUS
10
108.32
20
-111.65
11
120.32
21
-111.65
0
LINE
8
BLACK
6
CONTINUOUS
10
142.672
20
-168.776
11
144.14
21
-168.776
0
LINE
8
BLACK
6
CONTINUOUS
10
215.57
20
-97.65
11
203.57
21
-97.65
0
LINE
8
BLACK
6
CONTINUOUS
10
186.995
20
-116.7
11
174.995
21
-116.7
0
LINE
8
BLACK
6
CONTINUOUS
10
254.958
20
-136.75
11
254.958
21
-148.75
0
LINE
8
BLACK
6
CONTINUOUS
10
287.008
20
-135.75
11
275.008
21
-135.75
0
LINE
8
BLACK
6
CONTINUOUS
10
45.12
20
-167.8
11
45.12
21
-155.8
0
ARC
8
BLACK
10
325.108
20
-148.75
40
0.999917
50
-90.0048
51
0.00412564
0
ARC
8
BLACK
10
51.17
20
-148.75
40
1.00001
50
-180
51
-90
0
ARC
8
BLACK
10
387.02
20
-110.65
40
0.99983
50
-62.8447
51
0.00532941
0
ARC
8
BLACK
10
201.282
20
-167.8
40
1.00005
50
-89.9971
51
-0.00217713
0
ARC
8
BLACK
10
362.057
20
-112.65
40
0.999938
50
-90.0036
51
0.00527154
0
ARC
8
BLACK
10
113.083
20
-117.7
40
1.0001
50
90.0056
51
179.995
0
LINE
8
BLACK
6
CONTINUOUS
10
23.8603
20
-88.027
11
385.81
21
-88.027
0
LINE
8
BLACK
6
CONTINUOUS
10
101.27
20
-140.907
11
101.27
21
-147.613
0
LINE
8
BLACK
6
CONTINUOUS
10
334.633
20
-154.8
11
322.633
21
-154.8
0
LINE
8
BLACK
6
CONTINUOUS
10
278.483
20
-167.8
11
278.483
21
-155.8
0
ARC
8
BLACK
10
375.022
20
-155.8
40
1.00018
50
90.0062
51
149.995
0
LINE
8
BLACK
6
CONTINUOUS
10
183.233
20
-167.8
11
183.233
21
-155.8
0
ARC
8
BLACK
10
33.207
20
-172.85
40
1
50
90
51
180
0
LINE
8
BLACK
6
CONTINUOUS
10
198.808
20
-149.75
11
210.808
21
-149.75
0
LINE
8
BLACK
6
CONTINUOUS
10
50.17
20
-98.65
11
50.17
21
-110.65
0
LINE
8
BLACK
6
CONTINUOUS
10
101.27
20
-97.65
11
89.27
21
-97.65
0
ARC
8
BLACK
10
260.72
20
-98.6502
40
1.00012
50
90.0068
51
179.989
0
ARC
8
BLACK
10
63.1701
20
-129.7
40
0.999907
50
-90.0054
51
0.005329
0
LINE
8
BLACK
6
CONTINUOUS
10
50.17
20
-155.8
11
50.17
21
-167.8
0
ARC
8
BLACK
10
87.27
20
-178.713
40
1
50
-90.0001
51
0.00148969
0
LINE
8
BLACK
6
CONTINUOUS
10
69.22
20
-174.85
11
69.22
21
-186.85
0
LINE
8
BLACK
6
CONTINUOUS
10
63.17
20
-154.8
11
51.17
21
-154.8
0
LINE
8
BLACK
6
CONTINUOUS
10
109.701
20
-136.75
11
109.701
21
-148.75
0
LINE
8
BLACK
6
CONTINUOUS
10
31.12
20
-98.65
11
31.12
21
-110.65
0
LINE
8
BLACK
6
CONTINUOUS
10
326.395
20
-117.7
11
326.395
21
-129.7
0
LINE
8
BLACK
6
CONTINUOUS
10
291.77
20
-97.65
11
279.77
21
-97.65
0
LINE
8
BLACK
6
CONTINUOUS
10
101.27
20
-163.543
11
101.27
21
-156.837
0
LINE
8
BLACK
6
CONTINUOUS
10
63.17
20
-135.75
11
51.17
21
-135.75
0
ARC
8
BLACK
10
251.195
20
-117.7
40
0.999924
50
-270.004
51
-179.999
0
ARC
8
BLACK
10
220.333
20
-155.8
40
0.99997
50
-0.00177624
51
90.0023
0
ARC
8
BLACK
10
313.108
20
-136.75
40
1.00009
50
90.0052
51
179.995
0
ARC
8
BLACK
10
234.62
20
-110.65
40
1.00007
50
-89.9961
51
-0.000401043
0
ARC
8
BLACK
10
361.676
20
-150.75
40
0.999914
50
-270.005
51
-179.998
0
ARC
8
BLACK
10
358.445
20
-117.7
40
0.99999
50
-0.000630231
51
89.998
0
LINE
8
BLACK
6
CONTINUOUS
10
82.22
20
-173.85
11
70.22
21
-173.85
0
ARC
8
BLACK
10
332.158
20
-136.75
40
1.00008
50
90.0045
51
179.995
0
LINE
8
BLACK
6
CONTINUOUS
10
314.201
20
-186.85
11
314.201
21
-174.85
0
LINE
8
BLACK
6
CONTINUOUS
10
348.92
20
-97.65
11
336.92
21
-97.65
0
ARC
8
BLACK
10
32.12
20
-148.75
40
1.00001
50
-180
51
-90
0
ARC
8
BLACK
10
136.895
20
-117.7
40
1.00009
50
90.0049
51
179.995
0
ARC
8
BLACK
10
136.895
20
-129.7
40
0.999917
50
-180.005
51
-89.9991
0
LINE
8
BLACK
6
CONTINUOUS
10
154.658
20
-148.75
11
154.658
21
-136.75
0
ARC
8
BLACK
10
351.203
20
-136.751
40
0.999908
50
-270.005
51
-179.998
0
ARC
8
BLACK
10
253.67
20
-110.65
40
0.999879
50
-90.007
51
0.0110594
0
LINE
8
BLACK
6
CONTINUOUS
10
24.0302
20
-200.694
11
24.0302
21
-198.694
0
LINE
8
BLACK
6
CONTINUOUS
10
24.0302
20
-198.694
11
24.5064
21
-198.694
0
LINE
8
BLACK
6
CONTINUOUS
10
24.5064
20
-198.694
11
24.7921
21
-198.79
0
LINE
8
BLACK
6
CONTINUOUS
10
24.7921
20
-198.79
11
24.9826
21
-198.98
0
LINE
8
BLACK
6
CONTINUOUS
10
24.9826
20
-198.98
11
25.0778
21
-199.17
0
LINE
8
BLACK
6
CONTINUOUS
10
25.0778
20
-199.17
11
25.173
21
-199.551
0
LINE
8
BLACK
6
CONTINUOUS
10
25.173
20
-199.551
11
25.173
21
-199.837
0
LINE
8
BLACK
6
CONTINUOUS
10
25.173
20
-199.837
11
25.0778
21
-200.218
0
LINE
8
BLACK
6
CONTINUOUS
10
25.0778
20
-200.218
11
24.9826
21
-200.409
0
LINE
8
BLACK
6
CONTINUOUS
10
24.9826
20
-200.409
11
24.7921
21
-200.599
0
LINE
8
BLACK
6
CONTINUOUS
10
24.7921
20
-200.599
11
24.5064
21
-200.694
0
LINE
8
BLACK
6
CONTINUOUS
10
24.5064
20
-200.694
11
24.0302
21
-200.694
0
LINE
8
BLACK
6
CONTINUOUS
10
26.0302
20
-200.694
11
26.0302
21
-199.361
0
LINE
8
BLACK
6
CONTINUOUS
10
26.0302
20
-199.742
11
26.1254
21
-199.551
0
LINE
8
BLACK
6
CONTINUOUS
10
26.1254
20
-199.551
11
26.2207
21
-199.456
0
LINE
8
BLACK
6
CONTINUOUS
10
26.2207
20
-199.456
11
26.4111
21
-199.361
0
LINE
8
BLACK
6
CONTINUOUS
10
26.4111
20
-199.361
11
26.6016
21
-199.361
0
LINE
8
BLACK
6
CONTINUOUS
10
27.2683
20
-200.694
11
27.2683
21
-199.361
0
LINE
8
BLACK
6
CONTINUOUS
10
27.2683
20
-198.694
11
27.173
21
-198.79
0
LINE
8
BLACK
6
CONTINUOUS
10
27.173
20
-198.79
11
27.2683
21
-198.885
0
LINE
8
BLACK
6
CONTINUOUS
10
27.2683
20
-198.885
11
27.3635
21
-198.79
0
LINE
8
BLACK
6
CONTINUOUS
10
27.3635
20
-198.79
11
27.2683
21
-198.694
0
LINE
8
BLACK
6
CONTINUOUS
10
27.2683
20
-198.694
11
27.2683
21
-198.885
0
LINE
8
BLACK
6
CONTINUOUS
10
28.5064
20
-200.694
11
28.3159
21
-200.599
0
LINE
8
BLACK
6
CONTINUOUS
10
28.3159
20
-200.599
11
28.2207
21
-200.409
0
LINE
8
BLACK
6
CONTINUOUS
10
28.2207
20
-200.409
11
28.2207
21
-198.694
0
LINE
8
BLACK
6
CONTINUOUS
10
29.554
20
-200.694
11
29.3635
21
-200.599
0
LINE
8
BLACK
6
CONTINUOUS
10
29.3635
20
-200.599
11
29.2683
21
-200.409
0
LINE
8
BLACK
6
CONTINUOUS
10
29.2683
20
-200.409
11
29.2683
21
-198.694
0
LINE
8
BLACK
6
CONTINUOUS
10
31.8397
20
-200.694
11
31.8397
21
-198.694
0
LINE
8
BLACK
6
CONTINUOUS
10
31.8397
20
-198.694
11
32.5064
21
-200.123
0
LINE
8
BLACK
6
CONTINUOUS
10
32.5064
20
-200.123
11
33.173
21
-198.694
0
LINE
8
BLACK
6
CONTINUOUS
10
33.173
20
-198.694
11
33.173
21
-200.694
0
LINE
8
BLACK
6
CONTINUOUS
10
34.9826
20
-200.694
11
34.9826
21
-199.647
0
LINE
8
BLACK
6
CONTINUOUS
10
34.9826
20
-199.647
11
34.8873
21
-199.456
0
LINE
8
BLACK
6
CONTINUOUS
10
34.8873
20
-199.456
11
34.6969
21
-199.361
0
LINE
8
BLACK
6
CONTINUOUS
10
34.6969
20
-199.361
11
34.3159
21
-199.361
0
LINE
8
BLACK
6
CONTINUOUS
10
34.3159
20
-199.361
11
34.1254
21
-199.456
0
LINE
8
BLACK
6
CONTINUOUS
10
34.9826
20
-200.599
11
34.7921
21
-200.694
0
LINE
8
BLACK
6
CONTINUOUS
10
34.7921
20
-200.694
11
34.3159
21
-200.694
0
LINE
8
BLACK
6
CONTINUOUS
10
34.3159
20
-200.694
11
34.1254
21
-200.599
0
LINE
8
BLACK
6
CONTINUOUS
10
34.1254
20
-200.599
11
34.0302
21
-200.409
0
LINE
8
BLACK
6
CONTINUOUS
10
34.0302
20
-200.409
11
34.0302
21
-200.218
0
LINE
8
BLACK
6
CONTINUOUS
10
34.0302
20
-200.218
11
34.1254
21
-200.028
0
LINE
8
BLACK
6
CONTINUOUS
10
34.1254
20
-200.028
11
34.3159
21
-199.932
0
LINE
8
BLACK
6
CONTINUOUS
10
34.3159
20
-199.932
11
34.7921
21
-199.932
0
LINE
8
BLACK
6
CONTINUOUS
10
34.7921
20
-199.932
11
34.9826
21
-199.837
0
LINE
8
BLACK
6
CONTINUOUS
10
35.935
20
-199.361
11
35.935
21
-201.361
0
LINE
8
BLACK
6
CONTINUOUS
10
35.935
20
-199.456
11
36.1254
21
-199.361
0
LINE
8
BLACK
6
CONTINUOUS
10
36.1254
20
-199.361
11
36.5064
21
-199.361
0
LINE
8
BLACK
6
CONTINUOUS
10
36.5064
20
-199.361
11
36.6969
21
-199.456
0
LINE
8
BLACK
6
CONTINUOUS
10
36.6969
20
-199.456
11
36.7921
21
-199.551
0
LINE
8
BLACK
6
CONTINUOUS
10
36.7921
20
-199.551
11
36.8873
21
-199.742
0
LINE
8
BLACK
6
CONTINUOUS
10
36.8873
20
-199.742
11
36.8873
21
-200.313
0
LINE
8
BLACK
6
CONTINUOUS
10
36.8873
20
-200.313
11
36.7921
21
-200.504
0
LINE
8
BLACK
6
CONTINUOUS
10
36.7921
20
-200.504
11
36.6969
21
-200.599
0
LINE
8
BLACK
6
CONTINUOUS
10
36.6969
20
-200.599
11
36.5064
21
-200.694
0
LINE
8
BLACK
6
CONTINUOUS
10
36.5064
20
-200.694
11
36.1254
21
-200.694
0
LINE
8
BLACK
6
CONTINUOUS
10
36.1254
20
-200.694
11
35.935
21
-200.599
0
LINE
8
BLACK
6
CONTINUOUS
10
37.7445
20
-200.504
11
37.8397
21
-200.599
0
LINE
8
BLACK
6
CONTINUOUS
10
37.8397
20
-200.599
11
37.7445
21
-200.694
0
LINE
8
BLACK
6
CONTINUOUS
10
37.7445
20
-200.694
11
37.6492
21
-200.599
0
LINE
8
BLACK
6
CONTINUOUS
10
37.6492
20
-200.599
11
37.7445
21
-200.504
0
LINE
8
BLACK
6
CONTINUOUS
10
37.7445
20
-200.504
11
37.7445
21
-200.694
0
LINE
8
BLACK
6
CONTINUOUS
10
37.7445
20
-199.456
11
37.8397
21
-199.551
0
LINE
8
BLACK
6
CONTINUOUS
10
37.8397
20
-199.551
11
37.7445
21
-199.647
0
LINE
8
BLACK
6
CONTINUOUS
10
37.7445
20
-199.647
11
37.6492
21
-199.551
0
LINE
8
BLACK
6
CONTINUOUS
10
37.6492
20
-199.551
11
37.7445
21
-199.456
0
LINE
8
BLACK
6
CONTINUOUS
10
37.7445
20
-199.456
11
37.7445
21
-199.647
  0
ENDSEC
  0
EOF
