%TF.GenerationSoftware,KiCad,Pcbnew,5.1.10-88a1d61d58~88~ubuntu21.04.1*%
%TF.CreationDate,2021-06-04T00:34:01+02:00*%
%TF.ProjectId,southpaw75-ansi-iso-plate,736f7574-6870-4617-9737-352d616e7369,rev?*%
%TF.SameCoordinates,Original*%
%TF.FileFunction,Legend,Bot*%
%TF.FilePolarity,Positive*%
%FSLAX46Y46*%
G04 Gerber Fmt 4.6, Leading zero omitted, Abs format (unit mm)*
G04 Created by KiCad (PCBNEW 5.1.10-88a1d61d58~88~ubuntu21.04.1) date 2021-06-04 00:34:01*
%MOMM*%
%LPD*%
G01*
G04 APERTURE LIST*
%TA.AperFunction,Profile*%
%ADD10C,0.196850*%
%TD*%
%TA.AperFunction,Profile*%
%ADD11C,0.200000*%
%TD*%
%TA.AperFunction,Profile*%
%ADD12C,0.050000*%
%TD*%
G04 APERTURE END LIST*
D10*
X109716639Y-135756997D02*
X109716639Y-136356400D01*
X108916000Y-136356400D02*
X108916000Y-149156885D01*
X108916000Y-136356400D02*
X109716639Y-136356400D01*
X109716639Y-149756266D02*
X109716639Y-149156885D01*
X109716639Y-149156885D02*
X108916000Y-149156885D01*
X128478591Y-135756997D02*
X109716639Y-135756997D01*
X128478591Y-135756997D02*
X128478591Y-136356400D01*
X129277873Y-136356400D02*
X128478591Y-136356400D01*
X129277873Y-149156885D02*
X129277873Y-136356400D01*
X128478591Y-149156885D02*
X129277873Y-149156885D01*
X128478591Y-149756266D02*
X128478591Y-149156885D01*
X128478591Y-149756266D02*
X109716639Y-149756266D01*
X145142157Y-168806474D02*
X145142157Y-168207093D01*
X141736364Y-154807205D02*
X145142157Y-154807205D01*
X134536366Y-153806816D02*
X134536366Y-154807205D01*
X141736364Y-153806816D02*
X134536366Y-153806816D01*
X141736364Y-154807205D02*
X141736364Y-153806816D01*
X134536366Y-169806777D02*
X134536366Y-168806474D01*
X141736364Y-169806777D02*
X134536366Y-169806777D01*
X117836299Y-168806474D02*
X134536366Y-168806474D01*
X109711639Y-155406500D02*
X109711639Y-154807205D01*
X109711639Y-168207093D02*
X108911000Y-168207093D01*
X145942947Y-155406500D02*
X145142157Y-155406500D01*
X117836299Y-154807205D02*
X134536366Y-154807205D01*
X109711639Y-168806474D02*
X110836310Y-168806474D01*
X145942947Y-168207093D02*
X145142157Y-168207093D01*
X145142157Y-154807205D02*
X145142157Y-155406500D01*
X145942947Y-155406500D02*
X145942947Y-168207093D01*
X141736364Y-168806474D02*
X141736364Y-169806777D01*
X110836310Y-154807205D02*
X109711639Y-154807205D01*
X117836299Y-169806777D02*
X110836310Y-169806777D01*
X117836299Y-168806474D02*
X117836299Y-169806777D01*
X110836310Y-153806816D02*
X110836310Y-154807205D01*
X117836299Y-153806816D02*
X110836310Y-153806816D01*
X117836299Y-154807205D02*
X117836299Y-153806816D01*
X110836310Y-169806777D02*
X110836310Y-168806474D01*
X109711639Y-168207093D02*
X109711639Y-168806474D01*
X109711639Y-155406500D02*
X108911000Y-155406500D01*
X108911000Y-155406500D02*
X108911000Y-168207093D01*
X141736364Y-168806474D02*
X145142157Y-168806474D01*
X356060480Y-168806474D02*
X372660446Y-168806474D01*
X388028900Y-168806474D02*
X379860423Y-168806474D01*
X347832005Y-154807205D02*
X348860482Y-154807205D01*
X347031000Y-155406500D02*
X347031000Y-168207093D01*
X356060480Y-153806816D02*
X356060480Y-154807205D01*
X348860482Y-153806816D02*
X356060480Y-153806816D01*
X348860482Y-154807205D02*
X348860482Y-153806816D01*
X356060480Y-169806777D02*
X356060480Y-168806474D01*
X348860482Y-169806777D02*
X356060480Y-169806777D01*
X379860423Y-153806816D02*
X372660446Y-153806816D01*
X379860423Y-154807205D02*
X379860423Y-153806816D01*
X347832005Y-155406500D02*
X347031000Y-155406500D01*
X388829905Y-168207028D02*
X388829905Y-155406457D01*
X388028900Y-168207028D02*
X388829905Y-168207028D01*
X388028900Y-154807162D02*
X388028900Y-154807205D01*
X388028900Y-168207028D02*
X388028900Y-168806431D01*
X379860423Y-154807205D02*
X388028900Y-154807162D01*
X347832005Y-155406500D02*
X347832005Y-154807205D01*
X347832005Y-168207093D02*
X347832005Y-168806474D01*
X388028900Y-155406457D02*
X388028900Y-154807162D01*
X348860482Y-168806474D02*
X348860482Y-169806777D01*
X372660446Y-169806777D02*
X372660446Y-168806474D01*
X379860423Y-169806777D02*
X372660446Y-169806777D01*
X379860423Y-168806474D02*
X379860423Y-169806777D01*
X372660446Y-153806816D02*
X372660446Y-154807205D01*
X347031000Y-168207093D02*
X347832005Y-168207093D01*
X372660446Y-154807205D02*
X356060480Y-154807205D01*
X348860482Y-168806474D02*
X347832005Y-168806474D01*
X388028900Y-155406457D02*
X388829905Y-155406457D01*
X385647932Y-126232017D02*
X385046936Y-126232017D01*
X385047841Y-141031643D02*
X384622437Y-141031643D01*
X353605680Y-134756651D02*
X360805657Y-134756651D01*
X353605680Y-135756997D02*
X353605680Y-134756651D01*
X371647953Y-135756997D02*
X371647953Y-130706304D01*
X360805657Y-134756651D02*
X360805657Y-135756997D01*
X360805657Y-149756266D02*
X376122413Y-149756266D01*
X376921415Y-149156282D02*
X376122413Y-149156282D01*
X371647953Y-135756997D02*
X360805657Y-135756997D01*
X386689921Y-117731670D02*
X384176944Y-117731670D01*
X385046936Y-125432627D02*
X384176944Y-125432627D01*
X384622437Y-141531569D02*
X385047841Y-141531569D01*
X369266966Y-130706304D02*
X371647953Y-130706304D01*
X383266945Y-117306438D02*
X384176944Y-117306438D01*
X384176944Y-124931668D02*
X384176944Y-125432627D01*
X353605680Y-149756266D02*
X350217004Y-149756266D01*
X384176944Y-124931668D02*
X386689921Y-124931668D01*
X385047841Y-141031643D02*
X385047841Y-140231285D01*
X377422460Y-150756978D02*
X384622437Y-150756978D01*
X384176944Y-117731670D02*
X384176944Y-117306438D01*
X369266966Y-117306438D02*
X369266966Y-116707036D01*
X350217004Y-135756997D02*
X353605680Y-135756997D01*
X350217004Y-149156885D02*
X350217004Y-149756266D01*
X376921415Y-148731567D02*
X376921415Y-149156282D01*
X377422460Y-148731567D02*
X376921415Y-148731567D01*
X384622437Y-141531569D02*
X384622437Y-141031643D01*
X386689921Y-124931668D02*
X386689921Y-117731670D01*
X385046936Y-125432627D02*
X385046936Y-126232017D01*
X385647932Y-140231285D02*
X385047841Y-140231285D01*
X386689921Y-148731567D02*
X386689921Y-141531569D01*
X368465962Y-117306438D02*
X368465962Y-130106923D01*
X350217004Y-136356400D02*
X349416000Y-136356400D01*
X368465962Y-117306438D02*
X369266966Y-117306438D01*
X353605680Y-149756266D02*
X353605680Y-150756612D01*
X376122413Y-149156282D02*
X376122413Y-149756266D01*
X369266966Y-116707036D02*
X383266945Y-116707036D01*
X350217004Y-136356400D02*
X350217004Y-135756997D01*
X383266945Y-116707036D02*
X383266945Y-117306438D01*
X377422460Y-148731567D02*
X377422460Y-149756266D01*
X377422460Y-149756266D02*
X377422460Y-150756978D01*
X386689921Y-141531569D02*
X385047841Y-141531569D01*
X349416000Y-136356400D02*
X349416000Y-149156885D01*
X385647932Y-126232017D02*
X385647932Y-140231285D01*
X384622437Y-150756978D02*
X384622437Y-148731567D01*
X349416000Y-149156885D02*
X350217004Y-149156885D01*
X353605680Y-150756612D02*
X360805657Y-150756612D01*
X360805657Y-150756612D02*
X360805657Y-149756266D01*
X384622437Y-148731567D02*
X386689921Y-148731567D01*
X369266966Y-130106923D02*
X368465962Y-130106923D01*
X369266966Y-130706304D02*
X369266966Y-130106923D01*
D11*
X147522000Y-187855860D02*
X147522000Y-187256420D01*
X133521000Y-187855860D02*
X147522000Y-187855860D01*
X133521000Y-187256420D02*
X133521000Y-187855860D01*
X132722000Y-187256420D02*
X133521000Y-187256420D01*
X132722000Y-174455800D02*
X132722000Y-187256420D01*
X133521000Y-174455800D02*
X132722000Y-174455800D01*
X133521000Y-173856400D02*
X133521000Y-174455800D01*
X171334000Y-173856400D02*
X157335000Y-173856400D01*
X171334000Y-174455800D02*
X171334000Y-173856400D01*
X172135000Y-174455800D02*
X171334000Y-174455800D01*
X172135000Y-187256420D02*
X172135000Y-174455800D01*
X171334000Y-187256420D02*
X172135000Y-187256420D01*
X171334000Y-187855860D02*
X171334000Y-187256420D01*
X157335000Y-187855860D02*
X171334000Y-187855860D01*
X157335000Y-187256420D02*
X157335000Y-187855860D01*
X156534000Y-187256420D02*
X157335000Y-187256420D01*
X156534000Y-174455800D02*
X156534000Y-187256420D01*
X157335000Y-174455800D02*
X156534000Y-174455800D01*
X157335000Y-173856400D02*
X157335000Y-174455800D01*
X314209000Y-173856400D02*
X300210000Y-173856400D01*
X314209000Y-174455800D02*
X314209000Y-173856400D01*
X315010000Y-174455800D02*
X314209000Y-174455800D01*
X315010000Y-187256420D02*
X315010000Y-174455800D01*
X314209000Y-187256420D02*
X315010000Y-187256420D01*
X314209000Y-187855860D02*
X314209000Y-187256420D01*
X300210000Y-187855860D02*
X314209000Y-187855860D01*
X300210000Y-187256420D02*
X300210000Y-187855860D01*
X299409000Y-187256420D02*
X300210000Y-187256420D01*
X299409000Y-174455800D02*
X299409000Y-187256420D01*
X300210000Y-174455800D02*
X299409000Y-174455800D01*
X300210000Y-173856400D02*
X300210000Y-174455800D01*
X338022000Y-173856400D02*
X324021000Y-173856400D01*
X338022000Y-174455800D02*
X338022000Y-173856400D01*
X338821000Y-174455800D02*
X338022000Y-174455800D01*
X338821000Y-187256420D02*
X338821000Y-174455800D01*
X338022000Y-187256420D02*
X338821000Y-187256420D01*
X338022000Y-187855860D02*
X338022000Y-187256420D01*
X324021000Y-187855860D02*
X338022000Y-187855860D01*
X324021000Y-187256420D02*
X324021000Y-187855860D01*
X323222000Y-187256420D02*
X324021000Y-187256420D01*
X323222000Y-174455800D02*
X323222000Y-187256420D01*
X324021000Y-174455800D02*
X323222000Y-174455800D01*
X324021000Y-173856400D02*
X324021000Y-174455800D01*
X361834000Y-173856400D02*
X347835000Y-173856400D01*
X361834000Y-174455800D02*
X361834000Y-173856400D01*
X362635000Y-174455800D02*
X361834000Y-174455800D01*
X362635000Y-187256420D02*
X362635000Y-174455800D01*
X361834000Y-187256420D02*
X362635000Y-187256420D01*
X361834000Y-187855860D02*
X361834000Y-187256420D01*
X347835000Y-187855860D02*
X361834000Y-187855860D01*
X347835000Y-187256420D02*
X347835000Y-187855860D01*
X347034000Y-187256420D02*
X347835000Y-187256420D01*
X347034000Y-174455800D02*
X347034000Y-187256420D01*
X347835000Y-174455800D02*
X347034000Y-174455800D01*
X347835000Y-173856400D02*
X347835000Y-174455800D01*
X385647000Y-173856400D02*
X371646000Y-173856400D01*
X385647000Y-174455800D02*
X385647000Y-173856400D01*
X386448000Y-174455800D02*
X385647000Y-174455800D01*
X386448000Y-187256420D02*
X386448000Y-174455800D01*
X385647000Y-187256420D02*
X386448000Y-187256420D01*
X385647000Y-187855860D02*
X385647000Y-187256420D01*
X371646000Y-187855860D02*
X385647000Y-187855860D01*
X371646000Y-187256420D02*
X371646000Y-187855860D01*
X370847000Y-187256420D02*
X371646000Y-187256420D01*
X370847000Y-174455800D02*
X370847000Y-187256420D01*
X371646000Y-174455800D02*
X370847000Y-174455800D01*
X371646000Y-173856400D02*
X371646000Y-174455800D01*
X54653100Y-173856400D02*
X40653700Y-173856400D01*
X54653100Y-174455800D02*
X54653100Y-173856400D01*
X55453800Y-174455800D02*
X54653100Y-174455800D01*
X55453800Y-178556900D02*
X55453800Y-174455800D01*
X56178600Y-178556900D02*
X55453800Y-178556900D01*
X56178600Y-175326700D02*
X56178600Y-178556900D01*
X57903900Y-175326700D02*
X56178600Y-175326700D01*
X57903900Y-174404800D02*
X57903900Y-175326700D01*
X61203000Y-174404800D02*
X57903900Y-174404800D01*
X61203000Y-175326700D02*
X61203000Y-174404800D01*
X62928300Y-175326700D02*
X61203000Y-175326700D01*
X62928300Y-178556900D02*
X62928300Y-175326700D01*
X63753700Y-178556900D02*
X62928300Y-178556900D01*
X63753700Y-181355660D02*
X63753700Y-178556900D01*
X62928300Y-181355660D02*
X63753700Y-181355660D01*
X62928300Y-187625730D02*
X62928300Y-181355660D01*
X61203000Y-187625730D02*
X62928300Y-187625730D01*
X61203000Y-188606890D02*
X61203000Y-187625730D01*
X100809000Y-119681400D02*
X100809000Y-117956300D01*
X101728400Y-119681400D02*
X100809000Y-119681400D01*
X101728400Y-122980600D02*
X101728400Y-119681400D01*
X100809000Y-122980600D02*
X101728400Y-122980600D01*
X100809000Y-124706001D02*
X100809000Y-122980600D01*
X97579000Y-124706001D02*
X100809000Y-124706001D01*
X97579000Y-125430600D02*
X97579000Y-124706001D01*
X101678600Y-125430600D02*
X97579000Y-125430600D01*
X101678600Y-126231400D02*
X101678600Y-125430600D01*
X102278000Y-126231400D02*
X101678600Y-126231400D01*
X102278000Y-140230700D02*
X102278000Y-126231400D01*
X101678600Y-140230700D02*
X102278000Y-140230700D01*
X101678600Y-141031500D02*
X101678600Y-140230700D01*
X97579000Y-141031500D02*
X101678600Y-141031500D01*
X97579000Y-141756500D02*
X97579000Y-141031500D01*
X100809000Y-141756500D02*
X97579000Y-141756500D01*
X100809000Y-143481600D02*
X100809000Y-141756500D01*
X101728400Y-143481600D02*
X100809000Y-143481600D01*
X101728400Y-146780800D02*
X101728400Y-143481600D01*
X100809000Y-146780800D02*
X101728400Y-146780800D01*
X100809000Y-148505800D02*
X100809000Y-146780800D01*
X97579000Y-148505800D02*
X100809000Y-148505800D01*
X97579000Y-149331300D02*
X97579000Y-148505800D01*
X94778999Y-149331300D02*
X97579000Y-149331300D01*
X94778999Y-148505800D02*
X94778999Y-149331300D01*
X88508700Y-148505800D02*
X94778999Y-148505800D01*
X88508700Y-146780800D02*
X88508700Y-148505800D01*
X87529100Y-146780800D02*
X88508700Y-146780800D01*
X87529100Y-143481600D02*
X87529100Y-146780800D01*
X88508700Y-143481600D02*
X87529100Y-143481600D01*
X88508700Y-141756500D02*
X88508700Y-143481600D01*
X92979100Y-141756500D02*
X88508700Y-141756500D01*
X92979100Y-141031500D02*
X92979100Y-141756500D01*
X88878100Y-141031500D02*
X92979100Y-141031500D01*
X88878100Y-140230700D02*
X88878100Y-141031500D01*
X88278700Y-140230700D02*
X88878100Y-140230700D01*
X88278700Y-126231400D02*
X88278700Y-140230700D01*
X88878100Y-126231400D02*
X88278700Y-126231400D01*
X88878100Y-125430600D02*
X88878100Y-126231400D01*
X92979100Y-125430600D02*
X88878100Y-125430600D01*
X92979100Y-124706001D02*
X92979100Y-125430600D01*
X88508700Y-124706001D02*
X92979100Y-124706001D01*
X88508700Y-122980600D02*
X88508700Y-124706001D01*
X87529100Y-122980600D02*
X88508700Y-122980600D01*
X87529100Y-119681400D02*
X87529100Y-122980600D01*
X88508700Y-119681400D02*
X87529100Y-119681400D01*
X88508700Y-117956300D02*
X88508700Y-119681400D01*
X94778999Y-117956300D02*
X88508700Y-117956300D01*
X94778999Y-117130800D02*
X94778999Y-117956300D01*
X45128200Y-135756400D02*
X31128650Y-135756400D01*
X45128200Y-136355800D02*
X45128200Y-135756400D01*
X45928800Y-136355800D02*
X45128200Y-136355800D01*
X45928800Y-149156400D02*
X45928800Y-136355800D01*
X45128200Y-149156400D02*
X45928800Y-149156400D01*
X45128200Y-149755700D02*
X45128200Y-149156400D01*
X31128650Y-149755700D02*
X45128200Y-149755700D01*
X31128650Y-149156400D02*
X31128650Y-149755700D01*
X30328010Y-149156400D02*
X31128650Y-149156400D01*
X30328010Y-136355800D02*
X30328010Y-149156400D01*
X31128650Y-136355800D02*
X30328010Y-136355800D01*
X31128650Y-135756400D02*
X31128650Y-136355800D01*
X64178000Y-135756400D02*
X50178700Y-135756400D01*
X64178000Y-136355800D02*
X64178000Y-135756400D01*
X64978800Y-136355800D02*
X64178000Y-136355800D01*
X64978800Y-149156400D02*
X64978800Y-136355800D01*
X64178000Y-149156400D02*
X64978800Y-149156400D01*
X64178000Y-149755700D02*
X64178000Y-149156400D01*
X50178700Y-149755700D02*
X64178000Y-149755700D01*
X50178700Y-149156400D02*
X50178700Y-149755700D01*
X49378000Y-149156400D02*
X50178700Y-149156400D01*
X49378000Y-136355800D02*
X49378000Y-149156400D01*
X50178700Y-136355800D02*
X49378000Y-136355800D01*
X50178700Y-135756400D02*
X50178700Y-136355800D01*
X83228000Y-135756400D02*
X69228700Y-135756400D01*
X83228000Y-136355800D02*
X83228000Y-135756400D01*
X84028800Y-136355800D02*
X83228000Y-136355800D01*
X84028800Y-149156400D02*
X84028800Y-136355800D01*
X83228000Y-149156400D02*
X84028800Y-149156400D01*
X83228000Y-149755700D02*
X83228000Y-149156400D01*
X69228700Y-149755700D02*
X83228000Y-149755700D01*
X69228700Y-149156400D02*
X69228700Y-149755700D01*
X68427900Y-149156400D02*
X69228700Y-149156400D01*
X68427900Y-136355800D02*
X68427900Y-149156400D01*
X69228700Y-136355800D02*
X68427900Y-136355800D01*
X69228700Y-135756400D02*
X69228700Y-136355800D01*
X154666000Y-135756400D02*
X140666000Y-135756400D01*
X154666000Y-136355800D02*
X154666000Y-135756400D01*
X155465000Y-136355800D02*
X154666000Y-136355800D01*
X155465000Y-149156400D02*
X155465000Y-136355800D01*
X154666000Y-149156400D02*
X155465000Y-149156400D01*
X154666000Y-149755700D02*
X154666000Y-149156400D01*
X140666000Y-149755700D02*
X154666000Y-149755700D01*
X140666000Y-149156400D02*
X140666000Y-149755700D01*
X139865000Y-149156400D02*
X140666000Y-149156400D01*
X139865000Y-136355800D02*
X139865000Y-149156400D01*
X140666000Y-136355800D02*
X139865000Y-136355800D01*
X140666000Y-135756400D02*
X140666000Y-136355800D01*
X173716000Y-135756400D02*
X159716000Y-135756400D01*
X173716000Y-136355800D02*
X173716000Y-135756400D01*
X174515000Y-136355800D02*
X173716000Y-136355800D01*
X174515000Y-149156400D02*
X174515000Y-136355800D01*
X173716000Y-149156400D02*
X174515000Y-149156400D01*
X173716000Y-149755700D02*
X173716000Y-149156400D01*
X159716000Y-149755700D02*
X173716000Y-149755700D01*
X159716000Y-149156400D02*
X159716000Y-149755700D01*
X158915000Y-149156400D02*
X159716000Y-149156400D01*
X158915000Y-136355800D02*
X158915000Y-149156400D01*
X159716000Y-136355800D02*
X158915000Y-136355800D01*
X159716000Y-135756400D02*
X159716000Y-136355800D01*
X192766000Y-135756400D02*
X178766000Y-135756400D01*
X192766000Y-136355800D02*
X192766000Y-135756400D01*
X193565000Y-136355800D02*
X192766000Y-136355800D01*
X193565000Y-149156400D02*
X193565000Y-136355800D01*
X192766000Y-149156400D02*
X193565000Y-149156400D01*
X192766000Y-149755700D02*
X192766000Y-149156400D01*
X178766000Y-149755700D02*
X192766000Y-149755700D01*
X178766000Y-149156400D02*
X178766000Y-149755700D01*
X177965000Y-149156400D02*
X178766000Y-149156400D01*
X177965000Y-136355800D02*
X177965000Y-149156400D01*
X178766000Y-136355800D02*
X177965000Y-136355800D01*
X178766000Y-135756400D02*
X178766000Y-136355800D01*
X211816000Y-135756400D02*
X197816000Y-135756400D01*
X211816000Y-136355800D02*
X211816000Y-135756400D01*
X212615000Y-136355800D02*
X211816000Y-136355800D01*
X212615000Y-149156400D02*
X212615000Y-136355800D01*
X211816000Y-149156400D02*
X212615000Y-149156400D01*
X211816000Y-149755700D02*
X211816000Y-149156400D01*
X197816000Y-149755700D02*
X211816000Y-149755700D01*
X197816000Y-149156400D02*
X197816000Y-149755700D01*
X197015000Y-149156400D02*
X197816000Y-149156400D01*
X197015000Y-136355800D02*
X197015000Y-149156400D01*
X197816000Y-136355800D02*
X197015000Y-136355800D01*
X197816000Y-135756400D02*
X197816000Y-136355800D01*
X230866000Y-135756400D02*
X216866000Y-135756400D01*
X230866000Y-136355800D02*
X230866000Y-135756400D01*
X231665000Y-136355800D02*
X230866000Y-136355800D01*
X231665000Y-149156400D02*
X231665000Y-136355800D01*
X230866000Y-149156400D02*
X231665000Y-149156400D01*
X230866000Y-149755700D02*
X230866000Y-149156400D01*
X216866000Y-149755700D02*
X230866000Y-149755700D01*
X216866000Y-149156400D02*
X216866000Y-149755700D01*
X216065000Y-149156400D02*
X216866000Y-149156400D01*
X216065000Y-136355800D02*
X216065000Y-149156400D01*
X216866000Y-136355800D02*
X216065000Y-136355800D01*
X216866000Y-135756400D02*
X216866000Y-136355800D01*
X249916000Y-135756400D02*
X235916000Y-135756400D01*
X249916000Y-136355800D02*
X249916000Y-135756400D01*
X250715000Y-136355800D02*
X249916000Y-136355800D01*
X250715000Y-149156400D02*
X250715000Y-136355800D01*
X249916000Y-149156400D02*
X250715000Y-149156400D01*
X249916000Y-149755700D02*
X249916000Y-149156400D01*
X235916000Y-149755700D02*
X249916000Y-149755700D01*
X235916000Y-149156400D02*
X235916000Y-149755700D01*
X235115000Y-149156400D02*
X235916000Y-149156400D01*
X235115000Y-136355800D02*
X235115000Y-149156400D01*
X235916000Y-136355800D02*
X235115000Y-136355800D01*
X235916000Y-135756400D02*
X235916000Y-136355800D01*
X268966000Y-135756400D02*
X254966000Y-135756400D01*
X268966000Y-136355800D02*
X268966000Y-135756400D01*
X269765000Y-136355800D02*
X268966000Y-136355800D01*
X269765000Y-149156400D02*
X269765000Y-136355800D01*
X268966000Y-149156400D02*
X269765000Y-149156400D01*
X268966000Y-149755700D02*
X268966000Y-149156400D01*
X254966000Y-149755700D02*
X268966000Y-149755700D01*
X254966000Y-149156400D02*
X254966000Y-149755700D01*
X254165000Y-149156400D02*
X254966000Y-149156400D01*
X254165000Y-136355800D02*
X254165000Y-149156400D01*
X254966000Y-136355800D02*
X254165000Y-136355800D01*
X254966000Y-135756400D02*
X254966000Y-136355800D01*
X288016000Y-135756400D02*
X274016000Y-135756400D01*
X288016000Y-136355800D02*
X288016000Y-135756400D01*
X288814999Y-136355800D02*
X288016000Y-136355800D01*
X288814999Y-149156400D02*
X288814999Y-136355800D01*
X288016000Y-149156400D02*
X288814999Y-149156400D01*
X288016000Y-149755700D02*
X288016000Y-149156400D01*
X274016000Y-149755700D02*
X288016000Y-149755700D01*
X274016000Y-149156400D02*
X274016000Y-149755700D01*
X273215000Y-149156400D02*
X274016000Y-149156400D01*
X273215000Y-136355800D02*
X273215000Y-149156400D01*
X274016000Y-136355800D02*
X273215000Y-136355800D01*
X274016000Y-135756400D02*
X274016000Y-136355800D01*
X307066000Y-135756400D02*
X293066000Y-135756400D01*
X307066000Y-136355800D02*
X307066000Y-135756400D01*
X307865000Y-136355800D02*
X307066000Y-136355800D01*
X307865000Y-149156400D02*
X307865000Y-136355800D01*
X307066000Y-149156400D02*
X307865000Y-149156400D01*
X307066000Y-149755700D02*
X307066000Y-149156400D01*
X293066000Y-149755700D02*
X307066000Y-149755700D01*
X293066000Y-149156400D02*
X293066000Y-149755700D01*
X292264999Y-149156400D02*
X293066000Y-149156400D01*
X292264999Y-136355800D02*
X292264999Y-149156400D01*
X293066000Y-136355800D02*
X292264999Y-136355800D01*
X293066000Y-135756400D02*
X293066000Y-136355800D01*
X326116000Y-135756400D02*
X312116000Y-135756400D01*
X326116000Y-136355800D02*
X326116000Y-135756400D01*
X326915000Y-136355800D02*
X326116000Y-136355800D01*
X326915000Y-149156400D02*
X326915000Y-136355800D01*
X326116000Y-149156400D02*
X326915000Y-149156400D01*
X326116000Y-149755700D02*
X326116000Y-149156400D01*
X312116000Y-149755700D02*
X326116000Y-149755700D01*
X312116000Y-149156400D02*
X312116000Y-149755700D01*
X311315000Y-149156400D02*
X312116000Y-149156400D01*
X311315000Y-136355800D02*
X311315000Y-149156400D01*
X312116000Y-136355800D02*
X311315000Y-136355800D01*
X312116000Y-135756400D02*
X312116000Y-136355800D01*
X345166000Y-135756400D02*
X331166000Y-135756400D01*
X345166000Y-136355800D02*
X345166000Y-135756400D01*
X345965000Y-136355800D02*
X345166000Y-136355800D01*
X345965000Y-149156400D02*
X345965000Y-136355800D01*
X345166000Y-149156400D02*
X345965000Y-149156400D01*
X345166000Y-149755700D02*
X345166000Y-149156400D01*
X331166000Y-149755700D02*
X345166000Y-149755700D01*
X331166000Y-149156400D02*
X331166000Y-149755700D01*
X330365000Y-149156400D02*
X331166000Y-149156400D01*
X330365000Y-136355800D02*
X330365000Y-149156400D01*
X331166000Y-136355800D02*
X330365000Y-136355800D01*
X331166000Y-135756400D02*
X331166000Y-136355800D01*
X311828000Y-111056400D02*
X312629000Y-111056400D01*
X311828000Y-111655700D02*
X311828000Y-111056400D01*
X297829000Y-111655700D02*
X311828000Y-111655700D01*
X297829000Y-111056400D02*
X297829000Y-111655700D01*
X297028000Y-111056400D02*
X297829000Y-111056400D01*
X297028000Y-98255800D02*
X297028000Y-111056400D01*
X297829000Y-98255800D02*
X297028000Y-98255800D01*
X297829000Y-97656400D02*
X297829000Y-98255800D01*
X330878000Y-97656400D02*
X316879000Y-97656400D01*
X330878000Y-98255800D02*
X330878000Y-97656400D01*
X331679000Y-98255800D02*
X330878000Y-98255800D01*
X331679000Y-111056400D02*
X331679000Y-98255800D01*
X330878000Y-111056400D02*
X331679000Y-111056400D01*
X330878000Y-111655700D02*
X330878000Y-111056400D01*
X316879000Y-111655700D02*
X330878000Y-111655700D01*
X316879000Y-111056400D02*
X316879000Y-111655700D01*
X316078000Y-111056400D02*
X316879000Y-111056400D01*
X316078000Y-98255800D02*
X316078000Y-111056400D01*
X316879000Y-98255800D02*
X316078000Y-98255800D01*
X316879000Y-97656400D02*
X316879000Y-98255800D01*
X349928000Y-97656400D02*
X335929000Y-97656400D01*
X349928000Y-98255800D02*
X349928000Y-97656400D01*
X350729000Y-98255800D02*
X349928000Y-98255800D01*
X350729000Y-111056400D02*
X350729000Y-98255800D01*
X349928000Y-111056400D02*
X350729000Y-111056400D01*
X349928000Y-111655700D02*
X349928000Y-111056400D01*
X335929000Y-111655700D02*
X349928000Y-111655700D01*
X335929000Y-111056400D02*
X335929000Y-111655700D01*
X335128000Y-111056400D02*
X335929000Y-111056400D01*
X335128000Y-98255800D02*
X335128000Y-111056400D01*
X335929000Y-98255800D02*
X335128000Y-98255800D01*
X335929000Y-97656400D02*
X335929000Y-98255800D01*
X378503000Y-97656400D02*
X364504000Y-97656400D01*
X378503000Y-98255800D02*
X378503000Y-97656400D01*
X379304000Y-98255800D02*
X378503000Y-98255800D01*
X379304000Y-102356900D02*
X379304000Y-98255800D01*
X380029000Y-102356900D02*
X379304000Y-102356900D01*
X380029000Y-99126800D02*
X380029000Y-102356900D01*
X381752000Y-99126800D02*
X380029000Y-99126800D01*
X381752000Y-98204700D02*
X381752000Y-99126800D01*
X385054000Y-98204700D02*
X381752000Y-98204700D01*
X385054000Y-99126800D02*
X385054000Y-98204700D01*
X386780000Y-99126800D02*
X385054000Y-99126800D01*
X386780000Y-102356900D02*
X386780000Y-99126800D01*
X387605000Y-102356900D02*
X386780000Y-102356900D01*
X387605000Y-105155800D02*
X387605000Y-102356900D01*
X386780000Y-105155800D02*
X387605000Y-105155800D01*
X386780000Y-111425700D02*
X386780000Y-105155800D01*
X385054000Y-111425700D02*
X386780000Y-111425700D01*
X385054000Y-112406800D02*
X385054000Y-111425700D01*
X381752000Y-112406800D02*
X385054000Y-112406800D01*
X381752000Y-111425700D02*
X381752000Y-112406800D01*
X380029000Y-111425700D02*
X381752000Y-111425700D01*
X380029000Y-106956700D02*
X380029000Y-111425700D01*
X379304000Y-106956700D02*
X380029000Y-106956700D01*
X379304000Y-111056400D02*
X379304000Y-106956700D01*
X378503000Y-111056400D02*
X379304000Y-111056400D01*
X378503000Y-111655700D02*
X378503000Y-111056400D01*
X364504000Y-111655700D02*
X378503000Y-111655700D01*
X364504000Y-111056400D02*
X364504000Y-111655700D01*
X363703000Y-111056400D02*
X364504000Y-111056400D01*
X363703000Y-106956700D02*
X363703000Y-111056400D01*
X362978000Y-106956700D02*
X363703000Y-106956700D01*
X362978000Y-111425700D02*
X362978000Y-106956700D01*
X361253000Y-111425700D02*
X362978000Y-111425700D01*
X361253000Y-112406800D02*
X361253000Y-111425700D01*
X357954000Y-112406800D02*
X361253000Y-112406800D01*
X357954000Y-111425700D02*
X357954000Y-112406800D01*
X356229000Y-111425700D02*
X357954000Y-111425700D01*
X356229000Y-105155800D02*
X356229000Y-111425700D01*
X355403000Y-105155800D02*
X356229000Y-105155800D01*
X355403000Y-102356900D02*
X355403000Y-105155800D01*
X356229000Y-102356900D02*
X355403000Y-102356900D01*
X356229000Y-99126800D02*
X356229000Y-102356900D01*
X357954000Y-99126800D02*
X356229000Y-99126800D01*
X357954000Y-98204700D02*
X357954000Y-99126800D01*
X361253000Y-98204700D02*
X357954000Y-98204700D01*
X361253000Y-99126800D02*
X361253000Y-98204700D01*
X362978000Y-99126800D02*
X361253000Y-99126800D01*
X362978000Y-102356900D02*
X362978000Y-99126800D01*
X363703000Y-102356900D02*
X362978000Y-102356900D01*
X363703000Y-98255800D02*
X363703000Y-102356900D01*
X364504000Y-98255800D02*
X363703000Y-98255800D01*
X364504000Y-97656400D02*
X364504000Y-98255800D01*
X45128200Y-116706400D02*
X31128650Y-116706400D01*
X45128200Y-117305800D02*
X45128200Y-116706400D01*
X45928800Y-117305800D02*
X45128200Y-117305800D01*
X45928800Y-130106400D02*
X45928800Y-117305800D01*
X45128200Y-130106400D02*
X45928800Y-130106400D01*
X45128200Y-130705700D02*
X45128200Y-130106400D01*
X31128650Y-130705700D02*
X45128200Y-130705700D01*
X31128650Y-130106400D02*
X31128650Y-130705700D01*
X30328010Y-130106400D02*
X31128650Y-130106400D01*
X30328010Y-117305800D02*
X30328010Y-130106400D01*
X31128650Y-117305800D02*
X30328010Y-117305800D01*
X31128650Y-116706400D02*
X31128650Y-117305800D01*
X64178000Y-116706400D02*
X50178700Y-116706400D01*
X64178000Y-117305800D02*
X64178000Y-116706400D01*
X64978800Y-117305800D02*
X64178000Y-117305800D01*
X64978800Y-130106400D02*
X64978800Y-117305800D01*
X64178000Y-130106400D02*
X64978800Y-130106400D01*
X64178000Y-130705700D02*
X64178000Y-130106400D01*
X50178700Y-130705700D02*
X64178000Y-130705700D01*
X50178700Y-130106400D02*
X50178700Y-130705700D01*
X49378000Y-130106400D02*
X50178700Y-130106400D01*
X49378000Y-117305800D02*
X49378000Y-130106400D01*
X50178700Y-117305800D02*
X49378000Y-117305800D01*
X50178700Y-116706400D02*
X50178700Y-117305800D01*
X83228000Y-116706400D02*
X69228700Y-116706400D01*
X83228000Y-117305800D02*
X83228000Y-116706400D01*
X84028800Y-117305800D02*
X83228000Y-117305800D01*
X84028800Y-130106400D02*
X84028800Y-117305800D01*
X83228000Y-130106400D02*
X84028800Y-130106400D01*
X83228000Y-130705700D02*
X83228000Y-130106400D01*
X69228700Y-130705700D02*
X83228000Y-130705700D01*
X69228700Y-130106400D02*
X69228700Y-130705700D01*
X68427900Y-130106400D02*
X69228700Y-130106400D01*
X68427900Y-117305800D02*
X68427900Y-130106400D01*
X69228700Y-117305800D02*
X68427900Y-117305800D01*
X69228700Y-116706400D02*
X69228700Y-117305800D01*
X126090500Y-116706400D02*
X112091200Y-116706400D01*
X126090500Y-117305800D02*
X126090500Y-116706400D01*
X126889900Y-117305800D02*
X126090500Y-117305800D01*
X126889900Y-130106400D02*
X126889900Y-117305800D01*
X126090500Y-130106400D02*
X126889900Y-130106400D01*
X126090500Y-130705700D02*
X126090500Y-130106400D01*
X112091200Y-130705700D02*
X126090500Y-130705700D01*
X112091200Y-130106400D02*
X112091200Y-130705700D01*
X111290400Y-130106400D02*
X112091200Y-130106400D01*
X111290400Y-117305800D02*
X111290400Y-130106400D01*
X112091200Y-117305800D02*
X111290400Y-117305800D01*
X112091200Y-116706400D02*
X112091200Y-117305800D01*
X149903000Y-116706400D02*
X135904000Y-116706400D01*
X149903000Y-117305800D02*
X149903000Y-116706400D01*
X150704000Y-117305800D02*
X149903000Y-117305800D01*
X150704000Y-130106400D02*
X150704000Y-117305800D01*
X149903000Y-130106400D02*
X150704000Y-130106400D01*
X149903000Y-130705700D02*
X149903000Y-130106400D01*
X135904000Y-130705700D02*
X149903000Y-130705700D01*
X135904000Y-130106400D02*
X135904000Y-130705700D01*
X135103000Y-130106400D02*
X135904000Y-130106400D01*
X135103000Y-117305800D02*
X135103000Y-130106400D01*
X135904000Y-117305800D02*
X135103000Y-117305800D01*
X135904000Y-116706400D02*
X135904000Y-117305800D01*
X168953000Y-116706400D02*
X154954000Y-116706400D01*
X168953000Y-117305800D02*
X168953000Y-116706400D01*
X169754000Y-117305800D02*
X168953000Y-117305800D01*
X45128200Y-154806500D02*
X31128650Y-154806500D01*
X45128200Y-155405800D02*
X45128200Y-154806500D01*
X45928800Y-155405800D02*
X45128200Y-155405800D01*
X45928800Y-168206400D02*
X45928800Y-155405800D01*
X45128200Y-168206400D02*
X45928800Y-168206400D01*
X45128200Y-168805900D02*
X45128200Y-168206400D01*
X31128650Y-168805900D02*
X45128200Y-168805900D01*
X31128650Y-168206400D02*
X31128650Y-168805900D01*
X30328010Y-168206400D02*
X31128650Y-168206400D01*
X30328010Y-155405800D02*
X30328010Y-168206400D01*
X31128650Y-155405800D02*
X30328010Y-155405800D01*
X31128650Y-154806500D02*
X31128650Y-155405800D01*
X64178000Y-154806500D02*
X50178700Y-154806500D01*
X64178000Y-155405800D02*
X64178000Y-154806500D01*
X64978800Y-155405800D02*
X64178000Y-155405800D01*
X64978800Y-168206400D02*
X64978800Y-155405800D01*
X64178000Y-168206400D02*
X64978800Y-168206400D01*
X64178000Y-168805900D02*
X64178000Y-168206400D01*
X50178700Y-168805900D02*
X64178000Y-168805900D01*
X50178700Y-168206400D02*
X50178700Y-168805900D01*
X49378000Y-168206400D02*
X50178700Y-168206400D01*
X49378000Y-155405800D02*
X49378000Y-168206400D01*
X50178700Y-155405800D02*
X49378000Y-155405800D01*
X50178700Y-154806500D02*
X50178700Y-155405800D01*
X83228000Y-154806500D02*
X69228700Y-154806500D01*
X83228000Y-155405800D02*
X83228000Y-154806500D01*
X84028800Y-155405800D02*
X83228000Y-155405800D01*
X84028800Y-168206400D02*
X84028800Y-155405800D01*
X83228000Y-168206400D02*
X84028800Y-168206400D01*
X83228000Y-168805900D02*
X83228000Y-168206400D01*
X69228700Y-168805900D02*
X83228000Y-168805900D01*
X69228700Y-168206400D02*
X69228700Y-168805900D01*
X68427900Y-168206400D02*
X69228700Y-168206400D01*
X68427900Y-155405800D02*
X68427900Y-168206400D01*
X69228700Y-155405800D02*
X68427900Y-155405800D01*
X69228700Y-154806500D02*
X69228700Y-155405800D01*
X164191000Y-154806500D02*
X150191000Y-154806500D01*
X164191000Y-155405800D02*
X164191000Y-154806500D01*
X164990000Y-155405800D02*
X164191000Y-155405800D01*
X164990000Y-168206400D02*
X164990000Y-155405800D01*
X164191000Y-168206400D02*
X164990000Y-168206400D01*
X164191000Y-168805900D02*
X164191000Y-168206400D01*
X150191000Y-168805900D02*
X164191000Y-168805900D01*
X150191000Y-168206400D02*
X150191000Y-168805900D01*
X149390000Y-168206400D02*
X150191000Y-168206400D01*
X149390000Y-155405800D02*
X149390000Y-168206400D01*
X150191000Y-155405800D02*
X149390000Y-155405800D01*
X150191000Y-154806500D02*
X150191000Y-155405800D01*
X183241000Y-154806500D02*
X169241000Y-154806500D01*
X183241000Y-155405800D02*
X183241000Y-154806500D01*
X184040000Y-155405800D02*
X183241000Y-155405800D01*
X184040000Y-168206400D02*
X184040000Y-155405800D01*
X183241000Y-168206400D02*
X184040000Y-168206400D01*
X183241000Y-168805900D02*
X183241000Y-168206400D01*
X169241000Y-168805900D02*
X183241000Y-168805900D01*
X169241000Y-168206400D02*
X169241000Y-168805900D01*
X168440000Y-168206400D02*
X169241000Y-168206400D01*
X168440000Y-155405800D02*
X168440000Y-168206400D01*
X169241000Y-155405800D02*
X168440000Y-155405800D01*
X169241000Y-154806500D02*
X169241000Y-155405800D01*
X202291000Y-154806500D02*
X188291000Y-154806500D01*
X202291000Y-155405800D02*
X202291000Y-154806500D01*
X203090000Y-155405800D02*
X202291000Y-155405800D01*
X203090000Y-168206400D02*
X203090000Y-155405800D01*
X202291000Y-168206400D02*
X203090000Y-168206400D01*
X202291000Y-168805900D02*
X202291000Y-168206400D01*
X188291000Y-168805900D02*
X202291000Y-168805900D01*
X188291000Y-168206400D02*
X188291000Y-168805900D01*
X187490000Y-168206400D02*
X188291000Y-168206400D01*
X187490000Y-155405800D02*
X187490000Y-168206400D01*
X188291000Y-155405800D02*
X187490000Y-155405800D01*
X188291000Y-154806500D02*
X188291000Y-155405800D01*
X221341000Y-154806500D02*
X207341000Y-154806500D01*
X221341000Y-155405800D02*
X221341000Y-154806500D01*
X222140000Y-155405800D02*
X221341000Y-155405800D01*
X222140000Y-168206400D02*
X222140000Y-155405800D01*
X221341000Y-168206400D02*
X222140000Y-168206400D01*
X221341000Y-168805900D02*
X221341000Y-168206400D01*
X207341000Y-168805900D02*
X221341000Y-168805900D01*
X207341000Y-168206400D02*
X207341000Y-168805900D01*
X206540000Y-168206400D02*
X207341000Y-168206400D01*
X206540000Y-155405800D02*
X206540000Y-168206400D01*
X207341000Y-155405800D02*
X206540000Y-155405800D01*
X207341000Y-154806500D02*
X207341000Y-155405800D01*
X240391000Y-154806500D02*
X226391000Y-154806500D01*
X240391000Y-155405800D02*
X240391000Y-154806500D01*
X241190000Y-155405800D02*
X240391000Y-155405800D01*
X241190000Y-168206400D02*
X241190000Y-155405800D01*
X240391000Y-168206400D02*
X241190000Y-168206400D01*
X240391000Y-168805900D02*
X240391000Y-168206400D01*
X226391000Y-168805900D02*
X240391000Y-168805900D01*
X226391000Y-168206400D02*
X226391000Y-168805900D01*
X225590000Y-168206400D02*
X226391000Y-168206400D01*
X225590000Y-155405800D02*
X225590000Y-168206400D01*
X226391000Y-155405800D02*
X225590000Y-155405800D01*
X226391000Y-154806500D02*
X226391000Y-155405800D01*
X259441000Y-154806500D02*
X245441000Y-154806500D01*
X259441000Y-155405800D02*
X259441000Y-154806500D01*
X260240000Y-155405800D02*
X259441000Y-155405800D01*
X260240000Y-168206400D02*
X260240000Y-155405800D01*
X259441000Y-168206400D02*
X260240000Y-168206400D01*
X259441000Y-168805900D02*
X259441000Y-168206400D01*
X245441000Y-168805900D02*
X259441000Y-168805900D01*
X245441000Y-168206400D02*
X245441000Y-168805900D01*
X244640000Y-168206400D02*
X245441000Y-168206400D01*
X244640000Y-155405800D02*
X244640000Y-168206400D01*
X245441000Y-155405800D02*
X244640000Y-155405800D01*
X245441000Y-154806500D02*
X245441000Y-155405800D01*
X278491000Y-154806500D02*
X264491000Y-154806500D01*
X278491000Y-155405800D02*
X278491000Y-154806500D01*
X279290000Y-155405800D02*
X278491000Y-155405800D01*
X279290000Y-168206400D02*
X279290000Y-155405800D01*
X278491000Y-168206400D02*
X279290000Y-168206400D01*
X228771000Y-174455800D02*
X227972000Y-174455800D01*
X83228000Y-97656400D02*
X69228700Y-97656400D01*
X83228000Y-98255800D02*
X83228000Y-97656400D01*
X84028800Y-98255800D02*
X83228000Y-98255800D01*
X84028800Y-111056400D02*
X84028800Y-98255800D01*
X83228000Y-111056400D02*
X84028800Y-111056400D01*
X83228000Y-111655700D02*
X83228000Y-111056400D01*
X69228700Y-111655700D02*
X83228000Y-111655700D01*
X69228700Y-111056400D02*
X69228700Y-111655700D01*
X68427900Y-111056400D02*
X69228700Y-111056400D01*
X68427900Y-98255800D02*
X68427900Y-111056400D01*
X69228700Y-98255800D02*
X68427900Y-98255800D01*
X69228700Y-97656400D02*
X69228700Y-98255800D01*
X102278000Y-97656400D02*
X88278700Y-97656400D01*
X102278000Y-98255800D02*
X102278000Y-97656400D01*
X103078800Y-98255800D02*
X102278000Y-98255800D01*
X103078800Y-111056400D02*
X103078800Y-98255800D01*
X102278000Y-111056400D02*
X103078800Y-111056400D01*
X102278000Y-111655700D02*
X102278000Y-111056400D01*
X88278700Y-111655700D02*
X102278000Y-111655700D01*
X88278700Y-111056400D02*
X88278700Y-111655700D01*
X87477900Y-111056400D02*
X88278700Y-111056400D01*
X87477900Y-98255800D02*
X87477900Y-111056400D01*
X88278700Y-98255800D02*
X87477900Y-98255800D01*
X88278700Y-97656400D02*
X88278700Y-98255800D01*
X121328000Y-97656400D02*
X107328700Y-97656400D01*
X121328000Y-98255800D02*
X121328000Y-97656400D01*
X122127400Y-98255800D02*
X121328000Y-98255800D01*
X122127400Y-111056400D02*
X122127400Y-98255800D01*
X121328000Y-111056400D02*
X122127400Y-111056400D01*
X121328000Y-111655700D02*
X121328000Y-111056400D01*
X107328700Y-111655700D02*
X121328000Y-111655700D01*
X107328700Y-111056400D02*
X107328700Y-111655700D01*
X106527900Y-111056400D02*
X107328700Y-111056400D01*
X106527900Y-98255800D02*
X106527900Y-111056400D01*
X107328700Y-98255800D02*
X106527900Y-98255800D01*
X107328700Y-97656400D02*
X107328700Y-98255800D01*
X140378000Y-97656400D02*
X126377300Y-97656400D01*
X140378000Y-98255800D02*
X140378000Y-97656400D01*
X141177000Y-98255800D02*
X140378000Y-98255800D01*
X141177000Y-111056400D02*
X141177000Y-98255800D01*
X140378000Y-111056400D02*
X141177000Y-111056400D01*
X140378000Y-111655700D02*
X140378000Y-111056400D01*
X126377300Y-111655700D02*
X140378000Y-111655700D01*
X126377300Y-111056400D02*
X126377300Y-111655700D01*
X125577900Y-111056400D02*
X126377300Y-111056400D01*
X125577900Y-98255800D02*
X125577900Y-111056400D01*
X126377300Y-98255800D02*
X125577900Y-98255800D01*
X126377300Y-97656400D02*
X126377300Y-98255800D01*
X159428000Y-97656400D02*
X145427000Y-97656400D01*
X159428000Y-98255800D02*
X159428000Y-97656400D01*
X160229000Y-98255800D02*
X159428000Y-98255800D01*
X160229000Y-111056400D02*
X160229000Y-98255800D01*
X159428000Y-111056400D02*
X160229000Y-111056400D01*
X159428000Y-111655700D02*
X159428000Y-111056400D01*
X145427000Y-111655700D02*
X159428000Y-111655700D01*
X145427000Y-111056400D02*
X145427000Y-111655700D01*
X144628000Y-111056400D02*
X145427000Y-111056400D01*
X144628000Y-98255800D02*
X144628000Y-111056400D01*
X145427000Y-98255800D02*
X144628000Y-98255800D01*
X145427000Y-97656400D02*
X145427000Y-98255800D01*
X178478000Y-97656400D02*
X164479000Y-97656400D01*
X178478000Y-98255800D02*
X178478000Y-97656400D01*
X179279000Y-98255800D02*
X178478000Y-98255800D01*
X179279000Y-111056400D02*
X179279000Y-98255800D01*
X178478000Y-111056400D02*
X179279000Y-111056400D01*
X178478000Y-111655700D02*
X178478000Y-111056400D01*
X164479000Y-111655700D02*
X178478000Y-111655700D01*
X164479000Y-111056400D02*
X164479000Y-111655700D01*
X163678000Y-111056400D02*
X164479000Y-111056400D01*
X163678000Y-98255800D02*
X163678000Y-111056400D01*
X164479000Y-98255800D02*
X163678000Y-98255800D01*
X164479000Y-97656400D02*
X164479000Y-98255800D01*
X197528000Y-97656400D02*
X183529000Y-97656400D01*
X197528000Y-98255800D02*
X197528000Y-97656400D01*
X198329000Y-98255800D02*
X197528000Y-98255800D01*
X198329000Y-111056400D02*
X198329000Y-98255800D01*
X197528000Y-111056400D02*
X198329000Y-111056400D01*
X197528000Y-111655700D02*
X197528000Y-111056400D01*
X183529000Y-111655700D02*
X197528000Y-111655700D01*
X183529000Y-111056400D02*
X183529000Y-111655700D01*
X182728000Y-111056400D02*
X183529000Y-111056400D01*
X182728000Y-98255800D02*
X182728000Y-111056400D01*
X183529000Y-98255800D02*
X182728000Y-98255800D01*
X183529000Y-97656400D02*
X183529000Y-98255800D01*
X216578000Y-97656400D02*
X202579000Y-97656400D01*
X216578000Y-98255800D02*
X216578000Y-97656400D01*
X217379000Y-98255800D02*
X216578000Y-98255800D01*
X217379000Y-111056400D02*
X217379000Y-98255800D01*
X216578000Y-111056400D02*
X217379000Y-111056400D01*
X216578000Y-111655700D02*
X216578000Y-111056400D01*
X202579000Y-111655700D02*
X216578000Y-111655700D01*
X202579000Y-111056400D02*
X202579000Y-111655700D01*
X201778000Y-111056400D02*
X202579000Y-111056400D01*
X201778000Y-98255800D02*
X201778000Y-111056400D01*
X202579000Y-98255800D02*
X201778000Y-98255800D01*
X202579000Y-97656400D02*
X202579000Y-98255800D01*
X235628000Y-97656400D02*
X221629000Y-97656400D01*
X235628000Y-98255800D02*
X235628000Y-97656400D01*
X236429000Y-98255800D02*
X235628000Y-98255800D01*
X236429000Y-111056400D02*
X236429000Y-98255800D01*
X235628000Y-111056400D02*
X236429000Y-111056400D01*
X235628000Y-111655700D02*
X235628000Y-111056400D01*
X221629000Y-111655700D02*
X235628000Y-111655700D01*
X221629000Y-111056400D02*
X221629000Y-111655700D01*
X220828000Y-111056400D02*
X221629000Y-111056400D01*
X220828000Y-98255800D02*
X220828000Y-111056400D01*
X221629000Y-98255800D02*
X220828000Y-98255800D01*
X221629000Y-97656400D02*
X221629000Y-98255800D01*
X254678000Y-97656400D02*
X240679000Y-97656400D01*
X254678000Y-98255800D02*
X254678000Y-97656400D01*
X255479000Y-98255800D02*
X254678000Y-98255800D01*
X255479000Y-111056400D02*
X255479000Y-98255800D01*
X254678000Y-111056400D02*
X255479000Y-111056400D01*
X254678000Y-111655700D02*
X254678000Y-111056400D01*
X240679000Y-111655700D02*
X254678000Y-111655700D01*
X240679000Y-111056400D02*
X240679000Y-111655700D01*
X239878000Y-111056400D02*
X240679000Y-111056400D01*
X239878000Y-98255800D02*
X239878000Y-111056400D01*
X240679000Y-98255800D02*
X239878000Y-98255800D01*
X240679000Y-97656400D02*
X240679000Y-98255800D01*
X273728000Y-97656400D02*
X259729000Y-97656400D01*
X273728000Y-98255800D02*
X273728000Y-97656400D01*
X274529000Y-98255800D02*
X273728000Y-98255800D01*
X274529000Y-111056400D02*
X274529000Y-98255800D01*
X273728000Y-111056400D02*
X274529000Y-111056400D01*
X273728000Y-111655700D02*
X273728000Y-111056400D01*
X259729000Y-111655700D02*
X273728000Y-111655700D01*
X259729000Y-111056400D02*
X259729000Y-111655700D01*
X258928000Y-111056400D02*
X259729000Y-111056400D01*
X258928000Y-98255800D02*
X258928000Y-111056400D01*
X259729000Y-98255800D02*
X258928000Y-98255800D01*
X259729000Y-97656400D02*
X259729000Y-98255800D01*
X292778000Y-97656400D02*
X278779000Y-97656400D01*
X292778000Y-98255800D02*
X292778000Y-97656400D01*
X293579000Y-98255800D02*
X292778000Y-98255800D01*
X293579000Y-111056400D02*
X293579000Y-98255800D01*
X292778000Y-111056400D02*
X293579000Y-111056400D01*
X292778000Y-111655700D02*
X292778000Y-111056400D01*
X278779000Y-111655700D02*
X292778000Y-111655700D01*
X278779000Y-111056400D02*
X278779000Y-111655700D01*
X277978000Y-111056400D02*
X278779000Y-111056400D01*
X277978000Y-98255800D02*
X277978000Y-111056400D01*
X278779000Y-98255800D02*
X277978000Y-98255800D01*
X278779000Y-97656400D02*
X278779000Y-98255800D01*
X311828000Y-97656400D02*
X297829000Y-97656400D01*
X311828000Y-98255800D02*
X311828000Y-97656400D01*
X312629000Y-98255800D02*
X311828000Y-98255800D01*
X312629000Y-111056400D02*
X312629000Y-98255800D01*
X57903900Y-188606890D02*
X61203000Y-188606890D01*
X57903900Y-187625730D02*
X57903900Y-188606890D01*
X56178600Y-187625730D02*
X57903900Y-187625730D01*
X56178600Y-183155390D02*
X56178600Y-187625730D01*
X55453800Y-183155390D02*
X56178600Y-183155390D01*
X55453800Y-187256420D02*
X55453800Y-183155390D01*
X54653100Y-187256420D02*
X55453800Y-187256420D01*
X54653100Y-187855860D02*
X54653100Y-187256420D01*
X40653700Y-187855860D02*
X54653100Y-187855860D01*
X40653700Y-187256420D02*
X40653700Y-187855860D01*
X39853000Y-187256420D02*
X40653700Y-187256420D01*
X39853000Y-183155390D02*
X39853000Y-187256420D01*
X39128200Y-183155390D02*
X39853000Y-183155390D01*
X39128200Y-187625730D02*
X39128200Y-183155390D01*
X37402850Y-187625730D02*
X39128200Y-187625730D01*
X37402850Y-188606890D02*
X37402850Y-187625730D01*
X34103840Y-188606890D02*
X37402850Y-188606890D01*
X34103840Y-187625730D02*
X34103840Y-188606890D01*
X32378550Y-187625730D02*
X34103840Y-187625730D01*
X32378550Y-181355660D02*
X32378550Y-187625730D01*
X31553090Y-181355660D02*
X32378550Y-181355660D01*
X31553090Y-178556900D02*
X31553090Y-181355660D01*
X32378550Y-178556900D02*
X31553090Y-178556900D01*
X32378550Y-175326700D02*
X32378550Y-178556900D01*
X34103840Y-175326700D02*
X32378550Y-175326700D01*
X34103840Y-174404800D02*
X34103840Y-175326700D01*
X37402850Y-174404800D02*
X34103840Y-174404800D01*
X37402850Y-175326700D02*
X37402850Y-174404800D01*
X39128200Y-175326700D02*
X37402850Y-175326700D01*
X39128200Y-178556900D02*
X39128200Y-175326700D01*
X39853000Y-178556900D02*
X39128200Y-178556900D01*
X39853000Y-174455800D02*
X39853000Y-178556900D01*
X40653700Y-174455800D02*
X39853000Y-174455800D01*
X40653700Y-173856400D02*
X40653700Y-174455800D01*
X242772000Y-173856400D02*
X228771000Y-173856400D01*
X242772000Y-174455800D02*
X242772000Y-173856400D01*
X243571000Y-174455800D02*
X242772000Y-174455800D01*
X243571000Y-178556900D02*
X243571000Y-174455800D01*
X282396000Y-178556900D02*
X243571000Y-178556900D01*
X282396000Y-175326700D02*
X282396000Y-178556900D01*
X284120000Y-175326700D02*
X282396000Y-175326700D01*
X284120000Y-174404800D02*
X284120000Y-175326700D01*
X287422000Y-174404800D02*
X284120000Y-174404800D01*
X287422000Y-175326700D02*
X287422000Y-174404800D01*
X289146999Y-175326700D02*
X287422000Y-175326700D01*
X289146999Y-178556900D02*
X289146999Y-175326700D01*
X289971000Y-178556900D02*
X289146999Y-178556900D01*
X289971000Y-181355660D02*
X289971000Y-178556900D01*
X289146999Y-181355660D02*
X289971000Y-181355660D01*
X289146999Y-187625730D02*
X289146999Y-181355660D01*
X287422000Y-187625730D02*
X289146999Y-187625730D01*
X287422000Y-188606890D02*
X287422000Y-187625730D01*
X284120000Y-188606890D02*
X287422000Y-188606890D01*
X284120000Y-187625730D02*
X284120000Y-188606890D01*
X282396000Y-187625730D02*
X284120000Y-187625730D01*
X282396000Y-183155390D02*
X282396000Y-187625730D01*
X243571000Y-183155390D02*
X282396000Y-183155390D01*
X243571000Y-187256420D02*
X243571000Y-183155390D01*
X242772000Y-187256420D02*
X243571000Y-187256420D01*
X242772000Y-187855860D02*
X242772000Y-187256420D01*
X228771000Y-187855860D02*
X242772000Y-187855860D01*
X228771000Y-187256420D02*
X228771000Y-187855860D01*
X227972000Y-187256420D02*
X228771000Y-187256420D01*
X227972000Y-183155390D02*
X227972000Y-187256420D01*
X169754000Y-130106400D02*
X169754000Y-117305800D01*
X168953000Y-130106400D02*
X169754000Y-130106400D01*
X168953000Y-130705700D02*
X168953000Y-130106400D01*
X154954000Y-130705700D02*
X168953000Y-130705700D01*
X154954000Y-130106400D02*
X154954000Y-130705700D01*
X154153000Y-130106400D02*
X154954000Y-130106400D01*
X154153000Y-117305800D02*
X154153000Y-130106400D01*
X154954000Y-117305800D02*
X154153000Y-117305800D01*
X154954000Y-116706400D02*
X154954000Y-117305800D01*
X188003000Y-116706400D02*
X174004000Y-116706400D01*
X188003000Y-117305800D02*
X188003000Y-116706400D01*
X188804000Y-117305800D02*
X188003000Y-117305800D01*
X188804000Y-130106400D02*
X188804000Y-117305800D01*
X188003000Y-130106400D02*
X188804000Y-130106400D01*
X188003000Y-130705700D02*
X188003000Y-130106400D01*
X174004000Y-130705700D02*
X188003000Y-130705700D01*
X174004000Y-130106400D02*
X174004000Y-130705700D01*
X173203000Y-130106400D02*
X174004000Y-130106400D01*
X173203000Y-117305800D02*
X173203000Y-130106400D01*
X174004000Y-117305800D02*
X173203000Y-117305800D01*
X174004000Y-116706400D02*
X174004000Y-117305800D01*
X207053000Y-116706400D02*
X193054000Y-116706400D01*
X207053000Y-117305800D02*
X207053000Y-116706400D01*
X207854000Y-117305800D02*
X207053000Y-117305800D01*
X207854000Y-130106400D02*
X207854000Y-117305800D01*
X207053000Y-130106400D02*
X207854000Y-130106400D01*
X207053000Y-130705700D02*
X207053000Y-130106400D01*
X193054000Y-130705700D02*
X207053000Y-130705700D01*
X193054000Y-130106400D02*
X193054000Y-130705700D01*
X192253000Y-130106400D02*
X193054000Y-130106400D01*
X192253000Y-117305800D02*
X192253000Y-130106400D01*
X193054000Y-117305800D02*
X192253000Y-117305800D01*
X193054000Y-116706400D02*
X193054000Y-117305800D01*
X226103000Y-116706400D02*
X212104000Y-116706400D01*
X226103000Y-117305800D02*
X226103000Y-116706400D01*
X226904000Y-117305800D02*
X226103000Y-117305800D01*
X226904000Y-130106400D02*
X226904000Y-117305800D01*
X226103000Y-130106400D02*
X226904000Y-130106400D01*
X226103000Y-130705700D02*
X226103000Y-130106400D01*
X212104000Y-130705700D02*
X226103000Y-130705700D01*
X212104000Y-130106400D02*
X212104000Y-130705700D01*
X211303000Y-130106400D02*
X212104000Y-130106400D01*
X211303000Y-117305800D02*
X211303000Y-130106400D01*
X212104000Y-117305800D02*
X211303000Y-117305800D01*
X212104000Y-116706400D02*
X212104000Y-117305800D01*
X245153000Y-116706400D02*
X231154000Y-116706400D01*
X245153000Y-117305800D02*
X245153000Y-116706400D01*
X245954000Y-117305800D02*
X245153000Y-117305800D01*
X245954000Y-130106400D02*
X245954000Y-117305800D01*
X245153000Y-130106400D02*
X245954000Y-130106400D01*
X245153000Y-130705700D02*
X245153000Y-130106400D01*
X231154000Y-130705700D02*
X245153000Y-130705700D01*
X231154000Y-130106400D02*
X231154000Y-130705700D01*
X230353000Y-130106400D02*
X231154000Y-130106400D01*
X230353000Y-117305800D02*
X230353000Y-130106400D01*
X231154000Y-117305800D02*
X230353000Y-117305800D01*
X231154000Y-116706400D02*
X231154000Y-117305800D01*
X264203000Y-116706400D02*
X250204000Y-116706400D01*
X264203000Y-117305800D02*
X264203000Y-116706400D01*
X265004000Y-117305800D02*
X264203000Y-117305800D01*
X265004000Y-130106400D02*
X265004000Y-117305800D01*
X264203000Y-130106400D02*
X265004000Y-130106400D01*
X264203000Y-130705700D02*
X264203000Y-130106400D01*
X250204000Y-130705700D02*
X264203000Y-130705700D01*
X250204000Y-130106400D02*
X250204000Y-130705700D01*
X249403000Y-130106400D02*
X250204000Y-130106400D01*
X249403000Y-117305800D02*
X249403000Y-130106400D01*
X250204000Y-117305800D02*
X249403000Y-117305800D01*
X250204000Y-116706400D02*
X250204000Y-117305800D01*
X283253000Y-116706400D02*
X269254000Y-116706400D01*
X283253000Y-117305800D02*
X283253000Y-116706400D01*
X284054000Y-117305800D02*
X283253000Y-117305800D01*
X284054000Y-130106400D02*
X284054000Y-117305800D01*
X283253000Y-130106400D02*
X284054000Y-130106400D01*
X283253000Y-130705700D02*
X283253000Y-130106400D01*
X269254000Y-130705700D02*
X283253000Y-130705700D01*
X269254000Y-130106400D02*
X269254000Y-130705700D01*
X268453000Y-130106400D02*
X269254000Y-130106400D01*
X268453000Y-117305800D02*
X268453000Y-130106400D01*
X269254000Y-117305800D02*
X268453000Y-117305800D01*
X269254000Y-116706400D02*
X269254000Y-117305800D01*
X302303000Y-116706400D02*
X288304000Y-116706400D01*
X302303000Y-117305800D02*
X302303000Y-116706400D01*
X303104000Y-117305800D02*
X302303000Y-117305800D01*
X303104000Y-130106400D02*
X303104000Y-117305800D01*
X302303000Y-130106400D02*
X303104000Y-130106400D01*
X302303000Y-130705700D02*
X302303000Y-130106400D01*
X288304000Y-130705700D02*
X302303000Y-130705700D01*
X288304000Y-130106400D02*
X288304000Y-130705700D01*
X287503000Y-130106400D02*
X288304000Y-130106400D01*
X287503000Y-117305800D02*
X287503000Y-130106400D01*
X288304000Y-117305800D02*
X287503000Y-117305800D01*
X288304000Y-116706400D02*
X288304000Y-117305800D01*
X321353000Y-116706400D02*
X307354000Y-116706400D01*
X321353000Y-117305800D02*
X321353000Y-116706400D01*
X322154000Y-117305800D02*
X321353000Y-117305800D01*
X322154000Y-130106400D02*
X322154000Y-117305800D01*
X321353000Y-130106400D02*
X322154000Y-130106400D01*
X321353000Y-130705700D02*
X321353000Y-130106400D01*
X307354000Y-130705700D02*
X321353000Y-130705700D01*
X307354000Y-130106400D02*
X307354000Y-130705700D01*
X306553000Y-130106400D02*
X307354000Y-130106400D01*
X306553000Y-117305800D02*
X306553000Y-130106400D01*
X307354000Y-117305800D02*
X306553000Y-117305800D01*
X307354000Y-116706400D02*
X307354000Y-117305800D01*
X340403000Y-116706400D02*
X326404000Y-116706400D01*
X340403000Y-117305800D02*
X340403000Y-116706400D01*
X341204000Y-117305800D02*
X340403000Y-117305800D01*
X341204000Y-130106400D02*
X341204000Y-117305800D01*
X340403000Y-130106400D02*
X341204000Y-130106400D01*
X340403000Y-130705700D02*
X340403000Y-130106400D01*
X326404000Y-130705700D02*
X340403000Y-130705700D01*
X326404000Y-130106400D02*
X326404000Y-130705700D01*
X325603000Y-130106400D02*
X326404000Y-130106400D01*
X325603000Y-117305800D02*
X325603000Y-130106400D01*
X326404000Y-117305800D02*
X325603000Y-117305800D01*
X326404000Y-116706400D02*
X326404000Y-117305800D01*
X359453000Y-116706400D02*
X345454000Y-116706400D01*
X359453000Y-117305800D02*
X359453000Y-116706400D01*
X360254000Y-117305800D02*
X359453000Y-117305800D01*
X360254000Y-130106400D02*
X360254000Y-117305800D01*
X359453000Y-130106400D02*
X360254000Y-130106400D01*
X359453000Y-130705700D02*
X359453000Y-130106400D01*
X345454000Y-130705700D02*
X359453000Y-130705700D01*
X345454000Y-130106400D02*
X345454000Y-130705700D01*
X344653000Y-130106400D02*
X345454000Y-130106400D01*
X344653000Y-117305800D02*
X344653000Y-130106400D01*
X345454000Y-117305800D02*
X344653000Y-117305800D01*
X345454000Y-116706400D02*
X345454000Y-117305800D01*
X97579000Y-117130800D02*
X94778999Y-117130800D01*
X97579000Y-117956300D02*
X97579000Y-117130800D01*
X100809000Y-117956300D02*
X97579000Y-117956300D01*
X45128200Y-97656400D02*
X31128650Y-97656400D01*
X45128200Y-98255800D02*
X45128200Y-97656400D01*
X45928800Y-98255800D02*
X45128200Y-98255800D01*
X45928800Y-111056400D02*
X45928800Y-98255800D01*
X45128200Y-111056400D02*
X45928800Y-111056400D01*
X45128200Y-111655700D02*
X45128200Y-111056400D01*
X31128650Y-111655700D02*
X45128200Y-111655700D01*
X31128650Y-111056400D02*
X31128650Y-111655700D01*
X30328010Y-111056400D02*
X31128650Y-111056400D01*
X30328010Y-98255800D02*
X30328010Y-111056400D01*
X31128650Y-98255800D02*
X30328010Y-98255800D01*
X31128650Y-97656400D02*
X31128650Y-98255800D01*
X64178000Y-97656400D02*
X50178700Y-97656400D01*
X64178000Y-98255800D02*
X64178000Y-97656400D01*
X64978800Y-98255800D02*
X64178000Y-98255800D01*
X64978800Y-111056400D02*
X64978800Y-98255800D01*
X64178000Y-111056400D02*
X64978800Y-111056400D01*
X64178000Y-111655700D02*
X64178000Y-111056400D01*
X50178700Y-111655700D02*
X64178000Y-111655700D01*
X50178700Y-111056400D02*
X50178700Y-111655700D01*
X49378000Y-111056400D02*
X50178700Y-111056400D01*
X49378000Y-98255800D02*
X49378000Y-111056400D01*
X50178700Y-98255800D02*
X49378000Y-98255800D01*
X50178700Y-97656400D02*
X50178700Y-98255800D01*
X182396000Y-178556900D02*
X181572000Y-178556900D01*
X182396000Y-175326700D02*
X182396000Y-178556900D01*
X184121000Y-175326700D02*
X182396000Y-175326700D01*
X184121000Y-174404800D02*
X184121000Y-175326700D01*
X187422000Y-174404800D02*
X184121000Y-174404800D01*
X187422000Y-175326700D02*
X187422000Y-174404800D01*
X189147000Y-175326700D02*
X187422000Y-175326700D01*
X189147000Y-178556900D02*
X189147000Y-175326700D01*
X227972000Y-178556900D02*
X189147000Y-178556900D01*
X189147000Y-183155390D02*
X227972000Y-183155390D01*
X189147000Y-187625730D02*
X189147000Y-183155390D01*
X187422000Y-187625730D02*
X189147000Y-187625730D01*
X187422000Y-188606890D02*
X187422000Y-187625730D01*
X184121000Y-188606890D02*
X187422000Y-188606890D01*
X184121000Y-187625730D02*
X184121000Y-188606890D01*
X182396000Y-187625730D02*
X184121000Y-187625730D01*
X182396000Y-181355660D02*
X182396000Y-187625730D01*
X181572000Y-181355660D02*
X182396000Y-181355660D01*
X181572000Y-178556900D02*
X181572000Y-181355660D01*
X228771000Y-173856400D02*
X228771000Y-174455800D01*
X97579000Y-155230800D02*
X94778999Y-155230800D01*
X97579000Y-156056200D02*
X97579000Y-155230800D01*
X100809000Y-156056200D02*
X97579000Y-156056200D01*
X100809000Y-157781600D02*
X100809000Y-156056200D01*
X101728400Y-157781600D02*
X100809000Y-157781600D01*
X101728400Y-161080600D02*
X101728400Y-157781600D01*
X100809000Y-161080600D02*
X101728400Y-161080600D01*
X100809000Y-162805900D02*
X100809000Y-161080600D01*
X97579000Y-162805900D02*
X100809000Y-162805900D01*
X97579000Y-163530700D02*
X97579000Y-162805900D01*
X101678600Y-163530700D02*
X97579000Y-163530700D01*
X101678600Y-164331400D02*
X101678600Y-163530700D01*
X102278000Y-164331400D02*
X101678600Y-164331400D01*
X102278000Y-178330900D02*
X102278000Y-164331400D01*
X101678600Y-178330900D02*
X102278000Y-178330900D01*
X101678600Y-179131500D02*
X101678600Y-178330900D01*
X97579000Y-179131500D02*
X101678600Y-179131500D01*
X97579000Y-179856400D02*
X97579000Y-179131500D01*
X100809000Y-179856400D02*
X97579000Y-179856400D01*
X100809000Y-181581650D02*
X100809000Y-179856400D01*
X101728400Y-181581650D02*
X100809000Y-181581650D01*
X101728400Y-184880690D02*
X101728400Y-181581650D01*
X100809000Y-184880690D02*
X101728400Y-184880690D01*
X100809000Y-186605980D02*
X100809000Y-184880690D01*
X97579000Y-186605980D02*
X100809000Y-186605980D01*
X97579000Y-187431430D02*
X97579000Y-186605980D01*
X94778999Y-187431430D02*
X97579000Y-187431430D01*
X94778999Y-186605980D02*
X94778999Y-187431430D01*
X88508700Y-186605980D02*
X94778999Y-186605980D01*
X88508700Y-184880690D02*
X88508700Y-186605980D01*
X87529100Y-184880690D02*
X88508700Y-184880690D01*
X87529100Y-181581650D02*
X87529100Y-184880690D01*
X88508700Y-181581650D02*
X87529100Y-181581650D01*
X88508700Y-179856400D02*
X88508700Y-181581650D01*
X92979100Y-179856400D02*
X88508700Y-179856400D01*
X92979100Y-179131500D02*
X92979100Y-179856400D01*
X88878100Y-179131500D02*
X92979100Y-179131500D01*
X88878100Y-178330900D02*
X88878100Y-179131500D01*
X88278700Y-178330900D02*
X88878100Y-178330900D01*
X88278700Y-164331400D02*
X88278700Y-178330900D01*
X88878100Y-164331400D02*
X88278700Y-164331400D01*
X88878100Y-163530700D02*
X88878100Y-164331400D01*
X92979100Y-163530700D02*
X88878100Y-163530700D01*
X92979100Y-162805900D02*
X92979100Y-163530700D01*
X88508700Y-162805900D02*
X92979100Y-162805900D01*
X88508700Y-161080600D02*
X88508700Y-162805900D01*
X87529100Y-161080600D02*
X88508700Y-161080600D01*
X87529100Y-157781600D02*
X87529100Y-161080600D01*
X88508700Y-157781600D02*
X87529100Y-157781600D01*
X88508700Y-156056200D02*
X88508700Y-157781600D01*
X94778999Y-156056200D02*
X88508700Y-156056200D01*
X94778999Y-155230800D02*
X94778999Y-156056200D01*
X83228000Y-173856400D02*
X69228700Y-173856400D01*
X83228000Y-174455800D02*
X83228000Y-173856400D01*
X84028800Y-174455800D02*
X83228000Y-174455800D01*
X84028800Y-187256420D02*
X84028800Y-174455800D01*
X83228000Y-187256420D02*
X84028800Y-187256420D01*
X83228000Y-187855860D02*
X83228000Y-187256420D01*
X69228700Y-187855860D02*
X83228000Y-187855860D01*
X69228700Y-187256420D02*
X69228700Y-187855860D01*
X68427900Y-187256420D02*
X69228700Y-187256420D01*
X68427900Y-174455800D02*
X68427900Y-187256420D01*
X69228700Y-174455800D02*
X68427900Y-174455800D01*
X69228700Y-173856400D02*
X69228700Y-174455800D01*
X123709300Y-173856400D02*
X109710000Y-173856400D01*
X123709300Y-174455800D02*
X123709300Y-173856400D01*
X124510100Y-174455800D02*
X123709300Y-174455800D01*
X124510100Y-187256420D02*
X124510100Y-174455800D01*
X123709300Y-187256420D02*
X124510100Y-187256420D01*
X123709300Y-187855860D02*
X123709300Y-187256420D01*
X109710000Y-187855860D02*
X123709300Y-187855860D01*
X109710000Y-187256420D02*
X109710000Y-187855860D01*
X108909200Y-187256420D02*
X109710000Y-187256420D01*
X108909200Y-174455800D02*
X108909200Y-187256420D01*
X109710000Y-174455800D02*
X108909200Y-174455800D01*
X109710000Y-173856400D02*
X109710000Y-174455800D01*
X147522000Y-173856400D02*
X133521000Y-173856400D01*
X147522000Y-174455800D02*
X147522000Y-173856400D01*
X148321000Y-174455800D02*
X147522000Y-174455800D01*
X148321000Y-187256420D02*
X148321000Y-174455800D01*
X147522000Y-187256420D02*
X148321000Y-187256420D01*
X227972000Y-174455800D02*
X227972000Y-178556900D01*
X278491000Y-168805900D02*
X278491000Y-168206400D01*
X264491000Y-168805900D02*
X278491000Y-168805900D01*
X264491000Y-168206400D02*
X264491000Y-168805900D01*
X263690000Y-168206400D02*
X264491000Y-168206400D01*
X263690000Y-155405800D02*
X263690000Y-168206400D01*
X264491000Y-155405800D02*
X263690000Y-155405800D01*
X264491000Y-154806500D02*
X264491000Y-155405800D01*
X297541000Y-154806500D02*
X283541000Y-154806500D01*
X297541000Y-155405800D02*
X297541000Y-154806500D01*
X298340000Y-155405800D02*
X297541000Y-155405800D01*
X298340000Y-168206400D02*
X298340000Y-155405800D01*
X297541000Y-168206400D02*
X298340000Y-168206400D01*
X297541000Y-168805900D02*
X297541000Y-168206400D01*
X283541000Y-168805900D02*
X297541000Y-168805900D01*
X283541000Y-168206400D02*
X283541000Y-168805900D01*
X282740000Y-168206400D02*
X283541000Y-168206400D01*
X282740000Y-155405800D02*
X282740000Y-168206400D01*
X283541000Y-155405800D02*
X282740000Y-155405800D01*
X283541000Y-154806500D02*
X283541000Y-155405800D01*
X316591000Y-154806500D02*
X302591000Y-154806500D01*
X316591000Y-155405800D02*
X316591000Y-154806500D01*
X317390000Y-155405800D02*
X316591000Y-155405800D01*
X317390000Y-168206400D02*
X317390000Y-155405800D01*
X316591000Y-168206400D02*
X317390000Y-168206400D01*
X316591000Y-168805900D02*
X316591000Y-168206400D01*
X302591000Y-168805900D02*
X316591000Y-168805900D01*
X302591000Y-168206400D02*
X302591000Y-168805900D01*
X301790000Y-168206400D02*
X302591000Y-168206400D01*
X301790000Y-155405800D02*
X301790000Y-168206400D01*
X302591000Y-155405800D02*
X301790000Y-155405800D01*
X302591000Y-154806500D02*
X302591000Y-155405800D01*
X335641000Y-154806500D02*
X321641000Y-154806500D01*
X335641000Y-155405800D02*
X335641000Y-154806500D01*
X336440000Y-155405800D02*
X335641000Y-155405800D01*
X336440000Y-168206400D02*
X336440000Y-155405800D01*
X335641000Y-168206400D02*
X336440000Y-168206400D01*
X335641000Y-168805900D02*
X335641000Y-168206400D01*
X321641000Y-168805900D02*
X335641000Y-168805900D01*
X321641000Y-168206400D02*
X321641000Y-168805900D01*
X320840000Y-168206400D02*
X321641000Y-168206400D01*
X320840000Y-155405800D02*
X320840000Y-168206400D01*
X321641000Y-155405800D02*
X320840000Y-155405800D01*
X321641000Y-154806500D02*
X321641000Y-155405800D01*
D12*
X302679000Y-193477000D02*
G75*
G03*
X302679000Y-193477000I-950000J0D01*
G01*
X210529000Y-193477000D02*
G75*
G03*
X210529000Y-193477000I-950000J0D01*
G01*
X118379000Y-193477000D02*
G75*
G03*
X118379000Y-193477000I-950000J0D01*
G01*
X302679000Y-91827000D02*
G75*
G03*
X302679000Y-91827000I-950000J0D01*
G01*
X118379000Y-91827000D02*
G75*
G03*
X118379000Y-91827000I-950000J0D01*
G01*
X210529000Y-91827000D02*
G75*
G03*
X210529000Y-91827000I-950000J0D01*
G01*
X26229000Y-193477000D02*
G75*
G03*
X26229000Y-193477000I-950000J0D01*
G01*
X26229000Y-91827000D02*
G75*
G03*
X26229000Y-91827000I-950000J0D01*
G01*
X394829000Y-91827000D02*
G75*
G03*
X394829000Y-91827000I-950000J0D01*
G01*
X394829000Y-193477000D02*
G75*
G03*
X394829000Y-193477000I-950000J0D01*
G01*
X397716500Y-90408250D02*
X397716500Y-195183250D01*
X21479000Y-195183250D02*
X21479000Y-90408250D01*
X392954000Y-88027000D02*
X395335250Y-88027000D01*
X385810250Y-88027000D02*
X392954000Y-88027000D01*
X395335250Y-88027000D02*
G75*
G02*
X397716500Y-90408250I0J-2381250D01*
G01*
X397716500Y-195183250D02*
G75*
G02*
X395335250Y-197564500I-2381250J0D01*
G01*
X23860250Y-197564500D02*
G75*
G02*
X21479000Y-195183250I0J2381250D01*
G01*
X21479000Y-90408250D02*
G75*
G02*
X23860250Y-88027000I2381250J0D01*
G01*
X395335250Y-197564500D02*
X23860250Y-197564500D01*
X23860250Y-88027000D02*
X385810250Y-88027000D01*
M02*
