%TF.GenerationSoftware,KiCad,Pcbnew,6.0.10-86aedd382b~118~ubuntu22.10.1*%
%TF.CreationDate,2023-02-06T19:01:29+01:00*%
%TF.ProjectId,southpaw75-ansi-iso-plate,736f7574-6870-4617-9737-352d616e7369,rev?*%
%TF.SameCoordinates,Original*%
%TF.FileFunction,Soldermask,Top*%
%TF.FilePolarity,Negative*%
%FSLAX46Y46*%
G04 Gerber Fmt 4.6, Leading zero omitted, Abs format (unit mm)*
G04 Created by KiCad (PCBNEW 6.0.10-86aedd382b~118~ubuntu22.10.1) date 2023-02-06 19:01:29*
%MOMM*%
%LPD*%
G01*
G04 APERTURE LIST*
%ADD10C,0.010000*%
G04 APERTURE END LIST*
G36*
X59955033Y-192405000D02*
G01*
X60307997Y-192406910D01*
X60556202Y-192414425D01*
X60721854Y-192430223D01*
X60827162Y-192456979D01*
X60894331Y-192497371D01*
X60918408Y-192521125D01*
X61009685Y-192701883D01*
X61004564Y-192900456D01*
X60907374Y-193061908D01*
X60816967Y-193115449D01*
X60672491Y-193148121D01*
X60447605Y-193163886D01*
X60208874Y-193166999D01*
X59935253Y-193168205D01*
X59764421Y-193176221D01*
X59672168Y-193197647D01*
X59634283Y-193239084D01*
X59626557Y-193307129D01*
X59626500Y-193325750D01*
X59634045Y-193412090D01*
X59676094Y-193459623D01*
X59781767Y-193479896D01*
X59980184Y-193484456D01*
X60026817Y-193484500D01*
X60285375Y-193496347D01*
X60479862Y-193542810D01*
X60671891Y-193640272D01*
X60716166Y-193667798D01*
X60994605Y-193912763D01*
X61178995Y-194218410D01*
X61269335Y-194560078D01*
X61265626Y-194913105D01*
X61167868Y-195252828D01*
X60976060Y-195554585D01*
X60716166Y-195777701D01*
X60512228Y-195889684D01*
X60319368Y-195944086D01*
X60072655Y-195958309D01*
X60042692Y-195958193D01*
X59669762Y-195919237D01*
X59427811Y-195833619D01*
X59208308Y-195684379D01*
X59022663Y-195498612D01*
X58899284Y-195309458D01*
X58864500Y-195176507D01*
X58911923Y-194955071D01*
X59037868Y-194813846D01*
X59217849Y-194758756D01*
X59427381Y-194795727D01*
X59641976Y-194930685D01*
X59690000Y-194976750D01*
X59871209Y-195135841D01*
X60022625Y-195189316D01*
X60176891Y-195142152D01*
X60284686Y-195067391D01*
X60418435Y-194907362D01*
X60452000Y-194722749D01*
X60416795Y-194520516D01*
X60302992Y-194379062D01*
X60098312Y-194291555D01*
X59790474Y-194251163D01*
X59596028Y-194246499D01*
X59312519Y-194241538D01*
X59113687Y-194213913D01*
X58984527Y-194144511D01*
X58910034Y-194014221D01*
X58875204Y-193803929D01*
X58865031Y-193494524D01*
X58864500Y-193314716D01*
X58865864Y-192984917D01*
X58881738Y-192746297D01*
X58929792Y-192584114D01*
X59027697Y-192483628D01*
X59193125Y-192430099D01*
X59443745Y-192408784D01*
X59797230Y-192404943D01*
X59955033Y-192405000D01*
G37*
D10*
X59955033Y-192405000D02*
X60307997Y-192406910D01*
X60556202Y-192414425D01*
X60721854Y-192430223D01*
X60827162Y-192456979D01*
X60894331Y-192497371D01*
X60918408Y-192521125D01*
X61009685Y-192701883D01*
X61004564Y-192900456D01*
X60907374Y-193061908D01*
X60816967Y-193115449D01*
X60672491Y-193148121D01*
X60447605Y-193163886D01*
X60208874Y-193166999D01*
X59935253Y-193168205D01*
X59764421Y-193176221D01*
X59672168Y-193197647D01*
X59634283Y-193239084D01*
X59626557Y-193307129D01*
X59626500Y-193325750D01*
X59634045Y-193412090D01*
X59676094Y-193459623D01*
X59781767Y-193479896D01*
X59980184Y-193484456D01*
X60026817Y-193484500D01*
X60285375Y-193496347D01*
X60479862Y-193542810D01*
X60671891Y-193640272D01*
X60716166Y-193667798D01*
X60994605Y-193912763D01*
X61178995Y-194218410D01*
X61269335Y-194560078D01*
X61265626Y-194913105D01*
X61167868Y-195252828D01*
X60976060Y-195554585D01*
X60716166Y-195777701D01*
X60512228Y-195889684D01*
X60319368Y-195944086D01*
X60072655Y-195958309D01*
X60042692Y-195958193D01*
X59669762Y-195919237D01*
X59427811Y-195833619D01*
X59208308Y-195684379D01*
X59022663Y-195498612D01*
X58899284Y-195309458D01*
X58864500Y-195176507D01*
X58911923Y-194955071D01*
X59037868Y-194813846D01*
X59217849Y-194758756D01*
X59427381Y-194795727D01*
X59641976Y-194930685D01*
X59690000Y-194976750D01*
X59871209Y-195135841D01*
X60022625Y-195189316D01*
X60176891Y-195142152D01*
X60284686Y-195067391D01*
X60418435Y-194907362D01*
X60452000Y-194722749D01*
X60416795Y-194520516D01*
X60302992Y-194379062D01*
X60098312Y-194291555D01*
X59790474Y-194251163D01*
X59596028Y-194246499D01*
X59312519Y-194241538D01*
X59113687Y-194213913D01*
X58984527Y-194144511D01*
X58910034Y-194014221D01*
X58875204Y-193803929D01*
X58865031Y-193494524D01*
X58864500Y-193314716D01*
X58865864Y-192984917D01*
X58881738Y-192746297D01*
X58929792Y-192584114D01*
X59027697Y-192483628D01*
X59193125Y-192430099D01*
X59443745Y-192408784D01*
X59797230Y-192404943D01*
X59955033Y-192405000D01*
G36*
X52981970Y-192475536D02*
G01*
X53125194Y-192534187D01*
X53136799Y-192544699D01*
X53174631Y-192648718D01*
X53199514Y-192873543D01*
X53211647Y-193221439D01*
X53213000Y-193425924D01*
X53217777Y-193803781D01*
X53235540Y-194071015D01*
X53271433Y-194243763D01*
X53330602Y-194338162D01*
X53418192Y-194370346D01*
X53511574Y-194362259D01*
X53570347Y-194331831D01*
X53609596Y-194250802D01*
X53636059Y-194094140D01*
X53656475Y-193836818D01*
X53657500Y-193820176D01*
X53679586Y-193571124D01*
X53710161Y-193370094D01*
X53743569Y-193251649D01*
X53752750Y-193237904D01*
X53933386Y-193141806D01*
X54142366Y-193144442D01*
X54296514Y-193220820D01*
X54377592Y-193302425D01*
X54428859Y-193408968D01*
X54460383Y-193574045D01*
X54482228Y-193831252D01*
X54483000Y-193843249D01*
X54504021Y-194100067D01*
X54531500Y-194255356D01*
X54572598Y-194334587D01*
X54628925Y-194362265D01*
X54742795Y-194368038D01*
X54824150Y-194324434D01*
X54878138Y-194215316D01*
X54909902Y-194024548D01*
X54924588Y-193735993D01*
X54927500Y-193425924D01*
X54930739Y-193057929D01*
X54945100Y-192798203D01*
X54977552Y-192628086D01*
X55035059Y-192528914D01*
X55124588Y-192482026D01*
X55253108Y-192468760D01*
X55284914Y-192468500D01*
X55433585Y-192478511D01*
X55540874Y-192520235D01*
X55613418Y-192611204D01*
X55657850Y-192768952D01*
X55680806Y-193011013D01*
X55688921Y-193354919D01*
X55689500Y-193537651D01*
X55682881Y-193966779D01*
X55658510Y-194291554D01*
X55609614Y-194534148D01*
X55529420Y-194716733D01*
X55411154Y-194861482D01*
X55248043Y-194990565D01*
X55245032Y-194992625D01*
X55036323Y-195084252D01*
X54772528Y-195132387D01*
X54502547Y-195134519D01*
X54275279Y-195088139D01*
X54193827Y-195046594D01*
X54079094Y-194990071D01*
X53976083Y-195025076D01*
X53945312Y-195046594D01*
X53772327Y-195113253D01*
X53528549Y-195136544D01*
X53261899Y-195118216D01*
X53020300Y-195060018D01*
X52910794Y-195008843D01*
X52741900Y-194890641D01*
X52619438Y-194758537D01*
X52536278Y-194590545D01*
X52485294Y-194364679D01*
X52459356Y-194058952D01*
X52451335Y-193651378D01*
X52451237Y-193591450D01*
X52455767Y-193259703D01*
X52468357Y-192966866D01*
X52487227Y-192740104D01*
X52510598Y-192606580D01*
X52516734Y-192591325D01*
X52623414Y-192508190D01*
X52796601Y-192468232D01*
X52981970Y-192475536D01*
G37*
X52981970Y-192475536D02*
X53125194Y-192534187D01*
X53136799Y-192544699D01*
X53174631Y-192648718D01*
X53199514Y-192873543D01*
X53211647Y-193221439D01*
X53213000Y-193425924D01*
X53217777Y-193803781D01*
X53235540Y-194071015D01*
X53271433Y-194243763D01*
X53330602Y-194338162D01*
X53418192Y-194370346D01*
X53511574Y-194362259D01*
X53570347Y-194331831D01*
X53609596Y-194250802D01*
X53636059Y-194094140D01*
X53656475Y-193836818D01*
X53657500Y-193820176D01*
X53679586Y-193571124D01*
X53710161Y-193370094D01*
X53743569Y-193251649D01*
X53752750Y-193237904D01*
X53933386Y-193141806D01*
X54142366Y-193144442D01*
X54296514Y-193220820D01*
X54377592Y-193302425D01*
X54428859Y-193408968D01*
X54460383Y-193574045D01*
X54482228Y-193831252D01*
X54483000Y-193843249D01*
X54504021Y-194100067D01*
X54531500Y-194255356D01*
X54572598Y-194334587D01*
X54628925Y-194362265D01*
X54742795Y-194368038D01*
X54824150Y-194324434D01*
X54878138Y-194215316D01*
X54909902Y-194024548D01*
X54924588Y-193735993D01*
X54927500Y-193425924D01*
X54930739Y-193057929D01*
X54945100Y-192798203D01*
X54977552Y-192628086D01*
X55035059Y-192528914D01*
X55124588Y-192482026D01*
X55253108Y-192468760D01*
X55284914Y-192468500D01*
X55433585Y-192478511D01*
X55540874Y-192520235D01*
X55613418Y-192611204D01*
X55657850Y-192768952D01*
X55680806Y-193011013D01*
X55688921Y-193354919D01*
X55689500Y-193537651D01*
X55682881Y-193966779D01*
X55658510Y-194291554D01*
X55609614Y-194534148D01*
X55529420Y-194716733D01*
X55411154Y-194861482D01*
X55248043Y-194990565D01*
X55245032Y-194992625D01*
X55036323Y-195084252D01*
X54772528Y-195132387D01*
X54502547Y-195134519D01*
X54275279Y-195088139D01*
X54193827Y-195046594D01*
X54079094Y-194990071D01*
X53976083Y-195025076D01*
X53945312Y-195046594D01*
X53772327Y-195113253D01*
X53528549Y-195136544D01*
X53261899Y-195118216D01*
X53020300Y-195060018D01*
X52910794Y-195008843D01*
X52741900Y-194890641D01*
X52619438Y-194758537D01*
X52536278Y-194590545D01*
X52485294Y-194364679D01*
X52459356Y-194058952D01*
X52451335Y-193651378D01*
X52451237Y-193591450D01*
X52455767Y-193259703D01*
X52468357Y-192966866D01*
X52487227Y-192740104D01*
X52510598Y-192606580D01*
X52516734Y-192591325D01*
X52623414Y-192508190D01*
X52796601Y-192468232D01*
X52981970Y-192475536D01*
G36*
X41510269Y-191660445D02*
G01*
X41640231Y-191716246D01*
X41643299Y-191719199D01*
X41688593Y-191824584D01*
X41715887Y-192004040D01*
X41719500Y-192100199D01*
X41719500Y-192405000D01*
X42281158Y-192405000D01*
X42614633Y-192417028D01*
X42840631Y-192459130D01*
X42976915Y-192540328D01*
X43041253Y-192669646D01*
X43053000Y-192797033D01*
X43026160Y-192956564D01*
X42934582Y-193065429D01*
X42761682Y-193131379D01*
X42490871Y-193162167D01*
X42261431Y-193167000D01*
X41702112Y-193167000D01*
X41736356Y-193593603D01*
X41762388Y-193834592D01*
X41803701Y-193991319D01*
X41876724Y-194106517D01*
X41968301Y-194196853D01*
X42178442Y-194334473D01*
X42394526Y-194361984D01*
X42643362Y-194280630D01*
X42733370Y-194232334D01*
X42976151Y-194141473D01*
X43184696Y-194157683D01*
X43339728Y-194276503D01*
X43395771Y-194385585D01*
X43410106Y-194587833D01*
X43318776Y-194768910D01*
X43142331Y-194921728D01*
X42901324Y-195039197D01*
X42616306Y-195114228D01*
X42307828Y-195139731D01*
X41996442Y-195108618D01*
X41702699Y-195013798D01*
X41650112Y-194987749D01*
X41439114Y-194840753D01*
X41239611Y-194645904D01*
X41179750Y-194569756D01*
X40989250Y-194299512D01*
X40969555Y-193061739D01*
X40964733Y-192581187D01*
X40967799Y-192217564D01*
X40979163Y-191961022D01*
X40999237Y-191801711D01*
X41024955Y-191733483D01*
X41143734Y-191670424D01*
X41325138Y-191645624D01*
X41510269Y-191660445D01*
G37*
X41510269Y-191660445D02*
X41640231Y-191716246D01*
X41643299Y-191719199D01*
X41688593Y-191824584D01*
X41715887Y-192004040D01*
X41719500Y-192100199D01*
X41719500Y-192405000D01*
X42281158Y-192405000D01*
X42614633Y-192417028D01*
X42840631Y-192459130D01*
X42976915Y-192540328D01*
X43041253Y-192669646D01*
X43053000Y-192797033D01*
X43026160Y-192956564D01*
X42934582Y-193065429D01*
X42761682Y-193131379D01*
X42490871Y-193162167D01*
X42261431Y-193167000D01*
X41702112Y-193167000D01*
X41736356Y-193593603D01*
X41762388Y-193834592D01*
X41803701Y-193991319D01*
X41876724Y-194106517D01*
X41968301Y-194196853D01*
X42178442Y-194334473D01*
X42394526Y-194361984D01*
X42643362Y-194280630D01*
X42733370Y-194232334D01*
X42976151Y-194141473D01*
X43184696Y-194157683D01*
X43339728Y-194276503D01*
X43395771Y-194385585D01*
X43410106Y-194587833D01*
X43318776Y-194768910D01*
X43142331Y-194921728D01*
X42901324Y-195039197D01*
X42616306Y-195114228D01*
X42307828Y-195139731D01*
X41996442Y-195108618D01*
X41702699Y-195013798D01*
X41650112Y-194987749D01*
X41439114Y-194840753D01*
X41239611Y-194645904D01*
X41179750Y-194569756D01*
X40989250Y-194299512D01*
X40969555Y-193061739D01*
X40964733Y-192581187D01*
X40967799Y-192217564D01*
X40979163Y-191961022D01*
X40999237Y-191801711D01*
X41024955Y-191733483D01*
X41143734Y-191670424D01*
X41325138Y-191645624D01*
X41510269Y-191660445D01*
G36*
X49458241Y-193466210D02*
G01*
X49606231Y-193132585D01*
X49824259Y-192837343D01*
X50088908Y-192616701D01*
X50210585Y-192554042D01*
X50385410Y-192507940D01*
X50627044Y-192476883D01*
X50822534Y-192468500D01*
X51070469Y-192477740D01*
X51251308Y-192516913D01*
X51424308Y-192603194D01*
X51534525Y-192674875D01*
X51751552Y-192842933D01*
X51907811Y-193023739D01*
X52013437Y-193242361D01*
X52078566Y-193523863D01*
X52113334Y-193893315D01*
X52122816Y-194129848D01*
X52128807Y-194510025D01*
X52117373Y-194781456D01*
X52081990Y-194961929D01*
X52016137Y-195069227D01*
X51913290Y-195121138D01*
X51766927Y-195135446D01*
X51754013Y-195135500D01*
X51586123Y-195121196D01*
X51479487Y-195085703D01*
X51468249Y-195074426D01*
X51379942Y-195046002D01*
X51269868Y-195074426D01*
X51047617Y-195121252D01*
X50763667Y-195131906D01*
X50474148Y-195108624D01*
X50235187Y-195053642D01*
X50181272Y-195031065D01*
X49880960Y-194819387D01*
X49636351Y-194524176D01*
X49469878Y-194180893D01*
X49403976Y-193824996D01*
X49403913Y-193819581D01*
X50228518Y-193819581D01*
X50280349Y-194027664D01*
X50399778Y-194205164D01*
X50569742Y-194330517D01*
X50773176Y-194382163D01*
X50993016Y-194338540D01*
X51094619Y-194280779D01*
X51264466Y-194094271D01*
X51341265Y-193859970D01*
X51311548Y-193620491D01*
X51306952Y-193608970D01*
X51158528Y-193385412D01*
X50955274Y-193257398D01*
X50725793Y-193231555D01*
X50498688Y-193314508D01*
X50395909Y-193397909D01*
X50261350Y-193602475D01*
X50228518Y-193819581D01*
X49403913Y-193819581D01*
X49403708Y-193802000D01*
X49458241Y-193466210D01*
G37*
X49458241Y-193466210D02*
X49606231Y-193132585D01*
X49824259Y-192837343D01*
X50088908Y-192616701D01*
X50210585Y-192554042D01*
X50385410Y-192507940D01*
X50627044Y-192476883D01*
X50822534Y-192468500D01*
X51070469Y-192477740D01*
X51251308Y-192516913D01*
X51424308Y-192603194D01*
X51534525Y-192674875D01*
X51751552Y-192842933D01*
X51907811Y-193023739D01*
X52013437Y-193242361D01*
X52078566Y-193523863D01*
X52113334Y-193893315D01*
X52122816Y-194129848D01*
X52128807Y-194510025D01*
X52117373Y-194781456D01*
X52081990Y-194961929D01*
X52016137Y-195069227D01*
X51913290Y-195121138D01*
X51766927Y-195135446D01*
X51754013Y-195135500D01*
X51586123Y-195121196D01*
X51479487Y-195085703D01*
X51468249Y-195074426D01*
X51379942Y-195046002D01*
X51269868Y-195074426D01*
X51047617Y-195121252D01*
X50763667Y-195131906D01*
X50474148Y-195108624D01*
X50235187Y-195053642D01*
X50181272Y-195031065D01*
X49880960Y-194819387D01*
X49636351Y-194524176D01*
X49469878Y-194180893D01*
X49403976Y-193824996D01*
X49403913Y-193819581D01*
X50228518Y-193819581D01*
X50280349Y-194027664D01*
X50399778Y-194205164D01*
X50569742Y-194330517D01*
X50773176Y-194382163D01*
X50993016Y-194338540D01*
X51094619Y-194280779D01*
X51264466Y-194094271D01*
X51341265Y-193859970D01*
X51311548Y-193620491D01*
X51306952Y-193608970D01*
X51158528Y-193385412D01*
X50955274Y-193257398D01*
X50725793Y-193231555D01*
X50498688Y-193314508D01*
X50395909Y-193397909D01*
X50261350Y-193602475D01*
X50228518Y-193819581D01*
X49403913Y-193819581D01*
X49403708Y-193802000D01*
X49458241Y-193466210D01*
G36*
X44209424Y-191704707D02*
G01*
X44281408Y-191759125D01*
X44360062Y-191928794D01*
X44386500Y-192189825D01*
X44386500Y-192504401D01*
X44825201Y-192479612D01*
X45201927Y-192480893D01*
X45495746Y-192541486D01*
X45741714Y-192673650D01*
X45964080Y-192877843D01*
X46128080Y-193081339D01*
X46240667Y-193293893D01*
X46310309Y-193545211D01*
X46345470Y-193864996D01*
X46354645Y-194248245D01*
X46344694Y-194608787D01*
X46309053Y-194860660D01*
X46239782Y-195020952D01*
X46128938Y-195106748D01*
X45968579Y-195135134D01*
X45942250Y-195135500D01*
X45777804Y-195115211D01*
X45662056Y-195042918D01*
X45587338Y-194901477D01*
X45545986Y-194673747D01*
X45530333Y-194342583D01*
X45529500Y-194212501D01*
X45527772Y-193919792D01*
X45518259Y-193724479D01*
X45494462Y-193596963D01*
X45449886Y-193507646D01*
X45378033Y-193426930D01*
X45351400Y-193401130D01*
X45125393Y-193258973D01*
X44884389Y-193239805D01*
X44646655Y-193344050D01*
X44596538Y-193383646D01*
X44520004Y-193455280D01*
X44467942Y-193531393D01*
X44434186Y-193638178D01*
X44412566Y-193801828D01*
X44396916Y-194048539D01*
X44386622Y-194275101D01*
X44368375Y-194619862D01*
X44342020Y-194857512D01*
X44297692Y-195007928D01*
X44225527Y-195090986D01*
X44115661Y-195126563D01*
X43960109Y-195134527D01*
X43770681Y-195094978D01*
X43690234Y-195012674D01*
X43667531Y-194907815D01*
X43649444Y-194701007D01*
X43635906Y-194413574D01*
X43626848Y-194066840D01*
X43622203Y-193682129D01*
X43621904Y-193280766D01*
X43625882Y-192884074D01*
X43634070Y-192513378D01*
X43646399Y-192190003D01*
X43662803Y-191935272D01*
X43683213Y-191770509D01*
X43700700Y-191719199D01*
X43842262Y-191654087D01*
X44031986Y-191650641D01*
X44209424Y-191704707D01*
G37*
X44209424Y-191704707D02*
X44281408Y-191759125D01*
X44360062Y-191928794D01*
X44386500Y-192189825D01*
X44386500Y-192504401D01*
X44825201Y-192479612D01*
X45201927Y-192480893D01*
X45495746Y-192541486D01*
X45741714Y-192673650D01*
X45964080Y-192877843D01*
X46128080Y-193081339D01*
X46240667Y-193293893D01*
X46310309Y-193545211D01*
X46345470Y-193864996D01*
X46354645Y-194248245D01*
X46344694Y-194608787D01*
X46309053Y-194860660D01*
X46239782Y-195020952D01*
X46128938Y-195106748D01*
X45968579Y-195135134D01*
X45942250Y-195135500D01*
X45777804Y-195115211D01*
X45662056Y-195042918D01*
X45587338Y-194901477D01*
X45545986Y-194673747D01*
X45530333Y-194342583D01*
X45529500Y-194212501D01*
X45527772Y-193919792D01*
X45518259Y-193724479D01*
X45494462Y-193596963D01*
X45449886Y-193507646D01*
X45378033Y-193426930D01*
X45351400Y-193401130D01*
X45125393Y-193258973D01*
X44884389Y-193239805D01*
X44646655Y-193344050D01*
X44596538Y-193383646D01*
X44520004Y-193455280D01*
X44467942Y-193531393D01*
X44434186Y-193638178D01*
X44412566Y-193801828D01*
X44396916Y-194048539D01*
X44386622Y-194275101D01*
X44368375Y-194619862D01*
X44342020Y-194857512D01*
X44297692Y-195007928D01*
X44225527Y-195090986D01*
X44115661Y-195126563D01*
X43960109Y-195134527D01*
X43770681Y-195094978D01*
X43690234Y-195012674D01*
X43667531Y-194907815D01*
X43649444Y-194701007D01*
X43635906Y-194413574D01*
X43626848Y-194066840D01*
X43622203Y-193682129D01*
X43621904Y-193280766D01*
X43625882Y-192884074D01*
X43634070Y-192513378D01*
X43646399Y-192190003D01*
X43662803Y-191935272D01*
X43683213Y-191770509D01*
X43700700Y-191719199D01*
X43842262Y-191654087D01*
X44031986Y-191650641D01*
X44209424Y-191704707D01*
G36*
X38525735Y-192500472D02*
G01*
X38593324Y-192547875D01*
X38622409Y-192641525D01*
X38650024Y-192831599D01*
X38672483Y-193087539D01*
X38683336Y-193294000D01*
X38705512Y-193660868D01*
X38744419Y-193923321D01*
X38807827Y-194103624D01*
X38903502Y-194224045D01*
X39036190Y-194305481D01*
X39299008Y-194369625D01*
X39539537Y-194309335D01*
X39667961Y-194220353D01*
X39745352Y-194147690D01*
X39797723Y-194070253D01*
X39831488Y-193961373D01*
X39853057Y-193794378D01*
X39868844Y-193542596D01*
X39877877Y-193347228D01*
X39894981Y-193051993D01*
X39917064Y-192800404D01*
X39941095Y-192621537D01*
X39961122Y-192547874D01*
X40065459Y-192486970D01*
X40233118Y-192471326D01*
X40409513Y-192499020D01*
X40540055Y-192568127D01*
X40540214Y-192568285D01*
X40585104Y-192639370D01*
X40614845Y-192760694D01*
X40632038Y-192954353D01*
X40639287Y-193242447D01*
X40640000Y-193415548D01*
X40637221Y-193749257D01*
X40625909Y-193987069D01*
X40601600Y-194160022D01*
X40559830Y-194299153D01*
X40496135Y-194435500D01*
X40492249Y-194442887D01*
X40344980Y-194654307D01*
X40150161Y-194853622D01*
X40075498Y-194912218D01*
X39904273Y-195018551D01*
X39736380Y-195080130D01*
X39521743Y-195111410D01*
X39350123Y-195121631D01*
X39040015Y-195121574D01*
X38820410Y-195086615D01*
X38703250Y-195039272D01*
X38366750Y-194796835D01*
X38106843Y-194483552D01*
X38029887Y-194341750D01*
X37968454Y-194143061D01*
X37926444Y-193875075D01*
X37903932Y-193569084D01*
X37900994Y-193256379D01*
X37917705Y-192968252D01*
X37954140Y-192735996D01*
X38010375Y-192590901D01*
X38025625Y-192573591D01*
X38175410Y-192496380D01*
X38360934Y-192471155D01*
X38525735Y-192500472D01*
G37*
X38525735Y-192500472D02*
X38593324Y-192547875D01*
X38622409Y-192641525D01*
X38650024Y-192831599D01*
X38672483Y-193087539D01*
X38683336Y-193294000D01*
X38705512Y-193660868D01*
X38744419Y-193923321D01*
X38807827Y-194103624D01*
X38903502Y-194224045D01*
X39036190Y-194305481D01*
X39299008Y-194369625D01*
X39539537Y-194309335D01*
X39667961Y-194220353D01*
X39745352Y-194147690D01*
X39797723Y-194070253D01*
X39831488Y-193961373D01*
X39853057Y-193794378D01*
X39868844Y-193542596D01*
X39877877Y-193347228D01*
X39894981Y-193051993D01*
X39917064Y-192800404D01*
X39941095Y-192621537D01*
X39961122Y-192547874D01*
X40065459Y-192486970D01*
X40233118Y-192471326D01*
X40409513Y-192499020D01*
X40540055Y-192568127D01*
X40540214Y-192568285D01*
X40585104Y-192639370D01*
X40614845Y-192760694D01*
X40632038Y-192954353D01*
X40639287Y-193242447D01*
X40640000Y-193415548D01*
X40637221Y-193749257D01*
X40625909Y-193987069D01*
X40601600Y-194160022D01*
X40559830Y-194299153D01*
X40496135Y-194435500D01*
X40492249Y-194442887D01*
X40344980Y-194654307D01*
X40150161Y-194853622D01*
X40075498Y-194912218D01*
X39904273Y-195018551D01*
X39736380Y-195080130D01*
X39521743Y-195111410D01*
X39350123Y-195121631D01*
X39040015Y-195121574D01*
X38820410Y-195086615D01*
X38703250Y-195039272D01*
X38366750Y-194796835D01*
X38106843Y-194483552D01*
X38029887Y-194341750D01*
X37968454Y-194143061D01*
X37926444Y-193875075D01*
X37903932Y-193569084D01*
X37900994Y-193256379D01*
X37917705Y-192968252D01*
X37954140Y-192735996D01*
X38010375Y-192590901D01*
X38025625Y-192573591D01*
X38175410Y-192496380D01*
X38360934Y-192471155D01*
X38525735Y-192500472D01*
G36*
X33637145Y-192493474D02*
G01*
X33912755Y-192567769D01*
X33959154Y-192589320D01*
X34284184Y-192819123D01*
X34516280Y-193113142D01*
X34655390Y-193449804D01*
X34701460Y-193807537D01*
X34654436Y-194164770D01*
X34514265Y-194499930D01*
X34280893Y-194791445D01*
X33965166Y-195012241D01*
X33659968Y-195110775D01*
X33305917Y-195138417D01*
X32955731Y-195096048D01*
X32672648Y-194990625D01*
X32493226Y-194863085D01*
X32352255Y-194718521D01*
X32324702Y-194677079D01*
X32267154Y-194550606D01*
X32280232Y-194451518D01*
X32360924Y-194328785D01*
X32536660Y-194170382D01*
X32733092Y-194137173D01*
X32946889Y-194229643D01*
X32962574Y-194240950D01*
X33210974Y-194359213D01*
X33457195Y-194352407D01*
X33687681Y-194221478D01*
X33723384Y-194187884D01*
X33877727Y-193965592D01*
X33905611Y-193738397D01*
X33807036Y-193513104D01*
X33723384Y-193416115D01*
X33570164Y-193285456D01*
X33424924Y-193223409D01*
X33270147Y-193235722D01*
X33088314Y-193328141D01*
X32861906Y-193506413D01*
X32573407Y-193776285D01*
X32547125Y-193802000D01*
X32292609Y-194046632D01*
X32105438Y-194212137D01*
X31966557Y-194312466D01*
X31856907Y-194361571D01*
X31766464Y-194373500D01*
X31547778Y-194323901D01*
X31410116Y-194185294D01*
X31369000Y-194002585D01*
X31391484Y-193904869D01*
X31467222Y-193779023D01*
X31608639Y-193609161D01*
X31828161Y-193379395D01*
X31956375Y-193251596D01*
X32196595Y-193022094D01*
X32423980Y-192818315D01*
X32613818Y-192661555D01*
X32741398Y-192573114D01*
X32746971Y-192570225D01*
X33000058Y-192493848D01*
X33314848Y-192468548D01*
X33637145Y-192493474D01*
G37*
X33637145Y-192493474D02*
X33912755Y-192567769D01*
X33959154Y-192589320D01*
X34284184Y-192819123D01*
X34516280Y-193113142D01*
X34655390Y-193449804D01*
X34701460Y-193807537D01*
X34654436Y-194164770D01*
X34514265Y-194499930D01*
X34280893Y-194791445D01*
X33965166Y-195012241D01*
X33659968Y-195110775D01*
X33305917Y-195138417D01*
X32955731Y-195096048D01*
X32672648Y-194990625D01*
X32493226Y-194863085D01*
X32352255Y-194718521D01*
X32324702Y-194677079D01*
X32267154Y-194550606D01*
X32280232Y-194451518D01*
X32360924Y-194328785D01*
X32536660Y-194170382D01*
X32733092Y-194137173D01*
X32946889Y-194229643D01*
X32962574Y-194240950D01*
X33210974Y-194359213D01*
X33457195Y-194352407D01*
X33687681Y-194221478D01*
X33723384Y-194187884D01*
X33877727Y-193965592D01*
X33905611Y-193738397D01*
X33807036Y-193513104D01*
X33723384Y-193416115D01*
X33570164Y-193285456D01*
X33424924Y-193223409D01*
X33270147Y-193235722D01*
X33088314Y-193328141D01*
X32861906Y-193506413D01*
X32573407Y-193776285D01*
X32547125Y-193802000D01*
X32292609Y-194046632D01*
X32105438Y-194212137D01*
X31966557Y-194312466D01*
X31856907Y-194361571D01*
X31766464Y-194373500D01*
X31547778Y-194323901D01*
X31410116Y-194185294D01*
X31369000Y-194002585D01*
X31391484Y-193904869D01*
X31467222Y-193779023D01*
X31608639Y-193609161D01*
X31828161Y-193379395D01*
X31956375Y-193251596D01*
X32196595Y-193022094D01*
X32423980Y-192818315D01*
X32613818Y-192661555D01*
X32741398Y-192573114D01*
X32746971Y-192570225D01*
X33000058Y-192493848D01*
X33314848Y-192468548D01*
X33637145Y-192493474D01*
G36*
X46777174Y-193030292D02*
G01*
X47039545Y-192743230D01*
X47341498Y-192564511D01*
X47704537Y-192484353D01*
X47985464Y-192480563D01*
X48242510Y-192499758D01*
X48419143Y-192537219D01*
X48561892Y-192607407D01*
X48683964Y-192697643D01*
X49000372Y-193014187D01*
X49192344Y-193354217D01*
X49244499Y-193549478D01*
X49252921Y-193959582D01*
X49146283Y-194349229D01*
X48935422Y-194692675D01*
X48655951Y-194947593D01*
X48527400Y-195025025D01*
X48394784Y-195071912D01*
X48221064Y-195095592D01*
X47969200Y-195103403D01*
X47867777Y-195103750D01*
X47307500Y-195103750D01*
X47307500Y-195409549D01*
X47289961Y-195682572D01*
X47228319Y-195852216D01*
X47109030Y-195938370D01*
X46932041Y-195961000D01*
X46753904Y-195938784D01*
X46626859Y-195883992D01*
X46612955Y-195870516D01*
X46584721Y-195789927D01*
X46565571Y-195620910D01*
X46555093Y-195353617D01*
X46552878Y-194978197D01*
X46557555Y-194543047D01*
X46569353Y-193802000D01*
X47342136Y-193802000D01*
X47363281Y-194005726D01*
X47444301Y-194149566D01*
X47518859Y-194221489D01*
X47750764Y-194351367D01*
X47993437Y-194369177D01*
X48216451Y-194275546D01*
X48294782Y-194205477D01*
X48408635Y-194009903D01*
X48450573Y-193777727D01*
X48415204Y-193561638D01*
X48369105Y-193478997D01*
X48166215Y-193305869D01*
X47925132Y-193239347D01*
X47678533Y-193283139D01*
X47518859Y-193382510D01*
X47396274Y-193519957D01*
X47347284Y-193684726D01*
X47342136Y-193802000D01*
X46569353Y-193802000D01*
X46577250Y-193306062D01*
X46777174Y-193030292D01*
G37*
X46777174Y-193030292D02*
X47039545Y-192743230D01*
X47341498Y-192564511D01*
X47704537Y-192484353D01*
X47985464Y-192480563D01*
X48242510Y-192499758D01*
X48419143Y-192537219D01*
X48561892Y-192607407D01*
X48683964Y-192697643D01*
X49000372Y-193014187D01*
X49192344Y-193354217D01*
X49244499Y-193549478D01*
X49252921Y-193959582D01*
X49146283Y-194349229D01*
X48935422Y-194692675D01*
X48655951Y-194947593D01*
X48527400Y-195025025D01*
X48394784Y-195071912D01*
X48221064Y-195095592D01*
X47969200Y-195103403D01*
X47867777Y-195103750D01*
X47307500Y-195103750D01*
X47307500Y-195409549D01*
X47289961Y-195682572D01*
X47228319Y-195852216D01*
X47109030Y-195938370D01*
X46932041Y-195961000D01*
X46753904Y-195938784D01*
X46626859Y-195883992D01*
X46612955Y-195870516D01*
X46584721Y-195789927D01*
X46565571Y-195620910D01*
X46555093Y-195353617D01*
X46552878Y-194978197D01*
X46557555Y-194543047D01*
X46569353Y-193802000D01*
X47342136Y-193802000D01*
X47363281Y-194005726D01*
X47444301Y-194149566D01*
X47518859Y-194221489D01*
X47750764Y-194351367D01*
X47993437Y-194369177D01*
X48216451Y-194275546D01*
X48294782Y-194205477D01*
X48408635Y-194009903D01*
X48450573Y-193777727D01*
X48415204Y-193561638D01*
X48369105Y-193478997D01*
X48166215Y-193305869D01*
X47925132Y-193239347D01*
X47678533Y-193283139D01*
X47518859Y-193382510D01*
X47396274Y-193519957D01*
X47347284Y-193684726D01*
X47342136Y-193802000D01*
X46569353Y-193802000D01*
X46577250Y-193306062D01*
X46777174Y-193030292D01*
G36*
X58520376Y-192626162D02*
G01*
X58588110Y-192782304D01*
X58565570Y-192949843D01*
X58558708Y-192970207D01*
X58503196Y-193097003D01*
X58398350Y-193307735D01*
X58254471Y-193583823D01*
X58081860Y-193906687D01*
X57890819Y-194257745D01*
X57691647Y-194618417D01*
X57494647Y-194970122D01*
X57310119Y-195294280D01*
X57148364Y-195572309D01*
X57019682Y-195785628D01*
X56934376Y-195915658D01*
X56909446Y-195945125D01*
X56719808Y-196019171D01*
X56505303Y-195983046D01*
X56402129Y-195925649D01*
X56283177Y-195771850D01*
X56261521Y-195655774D01*
X56291156Y-195548108D01*
X56373491Y-195349585D01*
X56499179Y-195080162D01*
X56658876Y-194759793D01*
X56843235Y-194408435D01*
X56862054Y-194373500D01*
X57462066Y-193262250D01*
X56792699Y-193230500D01*
X56483520Y-193212625D01*
X56276253Y-193190543D01*
X56145814Y-193159135D01*
X56067119Y-193113278D01*
X56033416Y-193075488D01*
X55950611Y-192889998D01*
X55986363Y-192703287D01*
X56042350Y-192609629D01*
X56082509Y-192559316D01*
X56134529Y-192522644D01*
X56217286Y-192497458D01*
X56349654Y-192481605D01*
X56550510Y-192472930D01*
X56838729Y-192469281D01*
X57233186Y-192468502D01*
X57279136Y-192468500D01*
X58417072Y-192468500D01*
X58520376Y-192626162D01*
G37*
X58520376Y-192626162D02*
X58588110Y-192782304D01*
X58565570Y-192949843D01*
X58558708Y-192970207D01*
X58503196Y-193097003D01*
X58398350Y-193307735D01*
X58254471Y-193583823D01*
X58081860Y-193906687D01*
X57890819Y-194257745D01*
X57691647Y-194618417D01*
X57494647Y-194970122D01*
X57310119Y-195294280D01*
X57148364Y-195572309D01*
X57019682Y-195785628D01*
X56934376Y-195915658D01*
X56909446Y-195945125D01*
X56719808Y-196019171D01*
X56505303Y-195983046D01*
X56402129Y-195925649D01*
X56283177Y-195771850D01*
X56261521Y-195655774D01*
X56291156Y-195548108D01*
X56373491Y-195349585D01*
X56499179Y-195080162D01*
X56658876Y-194759793D01*
X56843235Y-194408435D01*
X56862054Y-194373500D01*
X57462066Y-193262250D01*
X56792699Y-193230500D01*
X56483520Y-193212625D01*
X56276253Y-193190543D01*
X56145814Y-193159135D01*
X56067119Y-193113278D01*
X56033416Y-193075488D01*
X55950611Y-192889998D01*
X55986363Y-192703287D01*
X56042350Y-192609629D01*
X56082509Y-192559316D01*
X56134529Y-192522644D01*
X56217286Y-192497458D01*
X56349654Y-192481605D01*
X56550510Y-192472930D01*
X56838729Y-192469281D01*
X57233186Y-192468502D01*
X57279136Y-192468500D01*
X58417072Y-192468500D01*
X58520376Y-192626162D01*
G36*
X35024833Y-193355661D02*
G01*
X35203656Y-193019656D01*
X35478889Y-192733142D01*
X35744274Y-192564238D01*
X36028686Y-192479997D01*
X36366794Y-192468229D01*
X36711281Y-192524425D01*
X37014832Y-192644076D01*
X37092263Y-192692671D01*
X37386253Y-192964073D01*
X37568445Y-193289505D01*
X37643088Y-193678121D01*
X37642586Y-193878638D01*
X37566773Y-194300614D01*
X37393605Y-194644652D01*
X37131263Y-194902988D01*
X36787932Y-195067853D01*
X36371792Y-195131484D01*
X36322000Y-195131969D01*
X36072067Y-195118150D01*
X35845537Y-195083788D01*
X35718750Y-195046569D01*
X35543780Y-194942728D01*
X35367084Y-194799465D01*
X35347728Y-194780500D01*
X35103867Y-194453577D01*
X34971234Y-194093326D01*
X34951413Y-193798985D01*
X35750500Y-193798985D01*
X35803529Y-194051758D01*
X35943811Y-194238845D01*
X36143140Y-194347453D01*
X36373308Y-194364790D01*
X36606106Y-194278065D01*
X36682140Y-194221489D01*
X36804725Y-194084042D01*
X36853715Y-193919273D01*
X36858863Y-193802000D01*
X36807282Y-193544357D01*
X36670055Y-193358452D01*
X36473461Y-193256002D01*
X36243774Y-193248724D01*
X36007272Y-193348334D01*
X35945872Y-193394894D01*
X35806919Y-193544101D01*
X35754367Y-193710877D01*
X35750500Y-193798985D01*
X34951413Y-193798985D01*
X34946124Y-193720452D01*
X35024833Y-193355661D01*
G37*
X35024833Y-193355661D02*
X35203656Y-193019656D01*
X35478889Y-192733142D01*
X35744274Y-192564238D01*
X36028686Y-192479997D01*
X36366794Y-192468229D01*
X36711281Y-192524425D01*
X37014832Y-192644076D01*
X37092263Y-192692671D01*
X37386253Y-192964073D01*
X37568445Y-193289505D01*
X37643088Y-193678121D01*
X37642586Y-193878638D01*
X37566773Y-194300614D01*
X37393605Y-194644652D01*
X37131263Y-194902988D01*
X36787932Y-195067853D01*
X36371792Y-195131484D01*
X36322000Y-195131969D01*
X36072067Y-195118150D01*
X35845537Y-195083788D01*
X35718750Y-195046569D01*
X35543780Y-194942728D01*
X35367084Y-194799465D01*
X35347728Y-194780500D01*
X35103867Y-194453577D01*
X34971234Y-194093326D01*
X34951413Y-193798985D01*
X35750500Y-193798985D01*
X35803529Y-194051758D01*
X35943811Y-194238845D01*
X36143140Y-194347453D01*
X36373308Y-194364790D01*
X36606106Y-194278065D01*
X36682140Y-194221489D01*
X36804725Y-194084042D01*
X36853715Y-193919273D01*
X36858863Y-193802000D01*
X36807282Y-193544357D01*
X36670055Y-193358452D01*
X36473461Y-193256002D01*
X36243774Y-193248724D01*
X36007272Y-193348334D01*
X35945872Y-193394894D01*
X35806919Y-193544101D01*
X35754367Y-193710877D01*
X35750500Y-193798985D01*
X34951413Y-193798985D01*
X34946124Y-193720452D01*
X35024833Y-193355661D01*
M02*
