%TF.GenerationSoftware,KiCad,Pcbnew,6.0.10-86aedd382b~118~ubuntu22.10.1*%
%TF.CreationDate,2023-02-06T19:01:29+01:00*%
%TF.ProjectId,southpaw75-ansi-iso-plate,736f7574-6870-4617-9737-352d616e7369,rev?*%
%TF.SameCoordinates,Original*%
%TF.FileFunction,Legend,Top*%
%TF.FilePolarity,Positive*%
%FSLAX46Y46*%
G04 Gerber Fmt 4.6, Leading zero omitted, Abs format (unit mm)*
G04 Created by KiCad (PCBNEW 6.0.10-86aedd382b~118~ubuntu22.10.1) date 2023-02-06 19:01:29*
%MOMM*%
%LPD*%
G01*
G04 APERTURE LIST*
%ADD10C,0.300000*%
%ADD11C,0.150000*%
G04 APERTURE END LIST*
D10*
X201980952Y-178309523D02*
X202266666Y-178404761D01*
X202742857Y-178404761D01*
X202933333Y-178309523D01*
X203028571Y-178214285D01*
X203123809Y-178023809D01*
X203123809Y-177833333D01*
X203028571Y-177642857D01*
X202933333Y-177547619D01*
X202742857Y-177452380D01*
X202361904Y-177357142D01*
X202171428Y-177261904D01*
X202076190Y-177166666D01*
X201980952Y-176976190D01*
X201980952Y-176785714D01*
X202076190Y-176595238D01*
X202171428Y-176500000D01*
X202361904Y-176404761D01*
X202838095Y-176404761D01*
X203123809Y-176500000D01*
X204266666Y-178404761D02*
X204076190Y-178309523D01*
X203980952Y-178214285D01*
X203885714Y-178023809D01*
X203885714Y-177452380D01*
X203980952Y-177261904D01*
X204076190Y-177166666D01*
X204266666Y-177071428D01*
X204552380Y-177071428D01*
X204742857Y-177166666D01*
X204838095Y-177261904D01*
X204933333Y-177452380D01*
X204933333Y-178023809D01*
X204838095Y-178214285D01*
X204742857Y-178309523D01*
X204552380Y-178404761D01*
X204266666Y-178404761D01*
X206647619Y-177071428D02*
X206647619Y-178404761D01*
X205790476Y-177071428D02*
X205790476Y-178119047D01*
X205885714Y-178309523D01*
X206076190Y-178404761D01*
X206361904Y-178404761D01*
X206552380Y-178309523D01*
X206647619Y-178214285D01*
X207314285Y-177071428D02*
X208076190Y-177071428D01*
X207600000Y-176404761D02*
X207600000Y-178119047D01*
X207695238Y-178309523D01*
X207885714Y-178404761D01*
X208076190Y-178404761D01*
X208742857Y-178404761D02*
X208742857Y-176404761D01*
X209600000Y-178404761D02*
X209600000Y-177357142D01*
X209504761Y-177166666D01*
X209314285Y-177071428D01*
X209028571Y-177071428D01*
X208838095Y-177166666D01*
X208742857Y-177261904D01*
X210552380Y-177071428D02*
X210552380Y-179071428D01*
X210552380Y-177166666D02*
X210742857Y-177071428D01*
X211123809Y-177071428D01*
X211314285Y-177166666D01*
X211409523Y-177261904D01*
X211504761Y-177452380D01*
X211504761Y-178023809D01*
X211409523Y-178214285D01*
X211314285Y-178309523D01*
X211123809Y-178404761D01*
X210742857Y-178404761D01*
X210552380Y-178309523D01*
X213219047Y-178404761D02*
X213219047Y-177357142D01*
X213123809Y-177166666D01*
X212933333Y-177071428D01*
X212552380Y-177071428D01*
X212361904Y-177166666D01*
X213219047Y-178309523D02*
X213028571Y-178404761D01*
X212552380Y-178404761D01*
X212361904Y-178309523D01*
X212266666Y-178119047D01*
X212266666Y-177928571D01*
X212361904Y-177738095D01*
X212552380Y-177642857D01*
X213028571Y-177642857D01*
X213219047Y-177547619D01*
X213980952Y-177071428D02*
X214361904Y-178404761D01*
X214742857Y-177452380D01*
X215123809Y-178404761D01*
X215504761Y-177071428D01*
X216076190Y-176404761D02*
X217409523Y-176404761D01*
X216552380Y-178404761D01*
X219123809Y-176404761D02*
X218171428Y-176404761D01*
X218076190Y-177357142D01*
X218171428Y-177261904D01*
X218361904Y-177166666D01*
X218838095Y-177166666D01*
X219028571Y-177261904D01*
X219123809Y-177357142D01*
X219219047Y-177547619D01*
X219219047Y-178023809D01*
X219123809Y-178214285D01*
X219028571Y-178309523D01*
X218838095Y-178404761D01*
X218361904Y-178404761D01*
X218171428Y-178309523D01*
X218076190Y-178214285D01*
D11*
X201987976Y-180156666D02*
X202464166Y-180156666D01*
X201892738Y-180442380D02*
X202226071Y-179442380D01*
X202559404Y-180442380D01*
X202892738Y-180442380D02*
X202892738Y-179442380D01*
X203464166Y-180442380D01*
X203464166Y-179442380D01*
X203892738Y-180394761D02*
X204035595Y-180442380D01*
X204273690Y-180442380D01*
X204368928Y-180394761D01*
X204416547Y-180347142D01*
X204464166Y-180251904D01*
X204464166Y-180156666D01*
X204416547Y-180061428D01*
X204368928Y-180013809D01*
X204273690Y-179966190D01*
X204083214Y-179918571D01*
X203987976Y-179870952D01*
X203940357Y-179823333D01*
X203892738Y-179728095D01*
X203892738Y-179632857D01*
X203940357Y-179537619D01*
X203987976Y-179490000D01*
X204083214Y-179442380D01*
X204321309Y-179442380D01*
X204464166Y-179490000D01*
X204892738Y-180442380D02*
X204892738Y-179442380D01*
X205368928Y-180061428D02*
X206130833Y-180061428D01*
X205749880Y-180442380D02*
X205749880Y-179680476D01*
X206607023Y-180442380D02*
X206607023Y-179442380D01*
X207035595Y-180394761D02*
X207178452Y-180442380D01*
X207416547Y-180442380D01*
X207511785Y-180394761D01*
X207559404Y-180347142D01*
X207607023Y-180251904D01*
X207607023Y-180156666D01*
X207559404Y-180061428D01*
X207511785Y-180013809D01*
X207416547Y-179966190D01*
X207226071Y-179918571D01*
X207130833Y-179870952D01*
X207083214Y-179823333D01*
X207035595Y-179728095D01*
X207035595Y-179632857D01*
X207083214Y-179537619D01*
X207130833Y-179490000D01*
X207226071Y-179442380D01*
X207464166Y-179442380D01*
X207607023Y-179490000D01*
X208226071Y-179442380D02*
X208416547Y-179442380D01*
X208511785Y-179490000D01*
X208607023Y-179585238D01*
X208654642Y-179775714D01*
X208654642Y-180109047D01*
X208607023Y-180299523D01*
X208511785Y-180394761D01*
X208416547Y-180442380D01*
X208226071Y-180442380D01*
X208130833Y-180394761D01*
X208035595Y-180299523D01*
X207987976Y-180109047D01*
X207987976Y-179775714D01*
X208035595Y-179585238D01*
X208130833Y-179490000D01*
X208226071Y-179442380D01*
X209845119Y-180442380D02*
X209845119Y-179442380D01*
X210226071Y-179442380D01*
X210321309Y-179490000D01*
X210368928Y-179537619D01*
X210416547Y-179632857D01*
X210416547Y-179775714D01*
X210368928Y-179870952D01*
X210321309Y-179918571D01*
X210226071Y-179966190D01*
X209845119Y-179966190D01*
X210987976Y-180442380D02*
X210892738Y-180394761D01*
X210845119Y-180299523D01*
X210845119Y-179442380D01*
X211797500Y-180442380D02*
X211797500Y-179918571D01*
X211749880Y-179823333D01*
X211654642Y-179775714D01*
X211464166Y-179775714D01*
X211368928Y-179823333D01*
X211797500Y-180394761D02*
X211702261Y-180442380D01*
X211464166Y-180442380D01*
X211368928Y-180394761D01*
X211321309Y-180299523D01*
X211321309Y-180204285D01*
X211368928Y-180109047D01*
X211464166Y-180061428D01*
X211702261Y-180061428D01*
X211797500Y-180013809D01*
X212130833Y-179775714D02*
X212511785Y-179775714D01*
X212273690Y-179442380D02*
X212273690Y-180299523D01*
X212321309Y-180394761D01*
X212416547Y-180442380D01*
X212511785Y-180442380D01*
X213226071Y-180394761D02*
X213130833Y-180442380D01*
X212940357Y-180442380D01*
X212845119Y-180394761D01*
X212797500Y-180299523D01*
X212797500Y-179918571D01*
X212845119Y-179823333D01*
X212940357Y-179775714D01*
X213130833Y-179775714D01*
X213226071Y-179823333D01*
X213273690Y-179918571D01*
X213273690Y-180013809D01*
X212797500Y-180109047D01*
X215035595Y-180442380D02*
X214702261Y-179966190D01*
X214464166Y-180442380D02*
X214464166Y-179442380D01*
X214845119Y-179442380D01*
X214940357Y-179490000D01*
X214987976Y-179537619D01*
X215035595Y-179632857D01*
X215035595Y-179775714D01*
X214987976Y-179870952D01*
X214940357Y-179918571D01*
X214845119Y-179966190D01*
X214464166Y-179966190D01*
X215845119Y-180394761D02*
X215749880Y-180442380D01*
X215559404Y-180442380D01*
X215464166Y-180394761D01*
X215416547Y-180299523D01*
X215416547Y-179918571D01*
X215464166Y-179823333D01*
X215559404Y-179775714D01*
X215749880Y-179775714D01*
X215845119Y-179823333D01*
X215892738Y-179918571D01*
X215892738Y-180013809D01*
X215416547Y-180109047D01*
X216226071Y-179775714D02*
X216464166Y-180442380D01*
X216702261Y-179775714D01*
X217416547Y-179918571D02*
X217083214Y-179918571D01*
X217083214Y-180442380D02*
X217083214Y-179442380D01*
X217559404Y-179442380D01*
X202035595Y-182052380D02*
X202035595Y-181052380D01*
X202368928Y-181766666D01*
X202702261Y-181052380D01*
X202702261Y-182052380D01*
X203321309Y-182052380D02*
X203226071Y-182004761D01*
X203178452Y-181957142D01*
X203130833Y-181861904D01*
X203130833Y-181576190D01*
X203178452Y-181480952D01*
X203226071Y-181433333D01*
X203321309Y-181385714D01*
X203464166Y-181385714D01*
X203559404Y-181433333D01*
X203607023Y-181480952D01*
X203654642Y-181576190D01*
X203654642Y-181861904D01*
X203607023Y-181957142D01*
X203559404Y-182004761D01*
X203464166Y-182052380D01*
X203321309Y-182052380D01*
X204511785Y-182052380D02*
X204511785Y-181052380D01*
X204511785Y-182004761D02*
X204416547Y-182052380D01*
X204226071Y-182052380D01*
X204130833Y-182004761D01*
X204083214Y-181957142D01*
X204035595Y-181861904D01*
X204035595Y-181576190D01*
X204083214Y-181480952D01*
X204130833Y-181433333D01*
X204226071Y-181385714D01*
X204416547Y-181385714D01*
X204511785Y-181433333D01*
X204987976Y-182052380D02*
X204987976Y-181385714D01*
X204987976Y-181052380D02*
X204940357Y-181100000D01*
X204987976Y-181147619D01*
X205035595Y-181100000D01*
X204987976Y-181052380D01*
X204987976Y-181147619D01*
X205321309Y-181385714D02*
X205702261Y-181385714D01*
X205464166Y-182052380D02*
X205464166Y-181195238D01*
X205511785Y-181100000D01*
X205607023Y-181052380D01*
X205702261Y-181052380D01*
X206035595Y-182052380D02*
X206035595Y-181385714D01*
X206035595Y-181052380D02*
X205987976Y-181100000D01*
X206035595Y-181147619D01*
X206083214Y-181100000D01*
X206035595Y-181052380D01*
X206035595Y-181147619D01*
X206940357Y-182004761D02*
X206845119Y-182052380D01*
X206654642Y-182052380D01*
X206559404Y-182004761D01*
X206511785Y-181957142D01*
X206464166Y-181861904D01*
X206464166Y-181576190D01*
X206511785Y-181480952D01*
X206559404Y-181433333D01*
X206654642Y-181385714D01*
X206845119Y-181385714D01*
X206940357Y-181433333D01*
X207797500Y-182052380D02*
X207797500Y-181528571D01*
X207749880Y-181433333D01*
X207654642Y-181385714D01*
X207464166Y-181385714D01*
X207368928Y-181433333D01*
X207797500Y-182004761D02*
X207702261Y-182052380D01*
X207464166Y-182052380D01*
X207368928Y-182004761D01*
X207321309Y-181909523D01*
X207321309Y-181814285D01*
X207368928Y-181719047D01*
X207464166Y-181671428D01*
X207702261Y-181671428D01*
X207797500Y-181623809D01*
X208130833Y-181385714D02*
X208511785Y-181385714D01*
X208273690Y-181052380D02*
X208273690Y-181909523D01*
X208321309Y-182004761D01*
X208416547Y-182052380D01*
X208511785Y-182052380D01*
X208845119Y-182052380D02*
X208845119Y-181385714D01*
X208845119Y-181052380D02*
X208797500Y-181100000D01*
X208845119Y-181147619D01*
X208892738Y-181100000D01*
X208845119Y-181052380D01*
X208845119Y-181147619D01*
X209464166Y-182052380D02*
X209368928Y-182004761D01*
X209321309Y-181957142D01*
X209273690Y-181861904D01*
X209273690Y-181576190D01*
X209321309Y-181480952D01*
X209368928Y-181433333D01*
X209464166Y-181385714D01*
X209607023Y-181385714D01*
X209702261Y-181433333D01*
X209749880Y-181480952D01*
X209797500Y-181576190D01*
X209797500Y-181861904D01*
X209749880Y-181957142D01*
X209702261Y-182004761D01*
X209607023Y-182052380D01*
X209464166Y-182052380D01*
X210226071Y-181385714D02*
X210226071Y-182052380D01*
X210226071Y-181480952D02*
X210273690Y-181433333D01*
X210368928Y-181385714D01*
X210511785Y-181385714D01*
X210607023Y-181433333D01*
X210654642Y-181528571D01*
X210654642Y-182052380D01*
X211083214Y-182004761D02*
X211178452Y-182052380D01*
X211368928Y-182052380D01*
X211464166Y-182004761D01*
X211511785Y-181909523D01*
X211511785Y-181861904D01*
X211464166Y-181766666D01*
X211368928Y-181719047D01*
X211226071Y-181719047D01*
X211130833Y-181671428D01*
X211083214Y-181576190D01*
X211083214Y-181528571D01*
X211130833Y-181433333D01*
X211226071Y-181385714D01*
X211368928Y-181385714D01*
X211464166Y-181433333D01*
X212702261Y-182052380D02*
X212702261Y-181052380D01*
X212702261Y-181433333D02*
X212797500Y-181385714D01*
X212987976Y-181385714D01*
X213083214Y-181433333D01*
X213130833Y-181480952D01*
X213178452Y-181576190D01*
X213178452Y-181861904D01*
X213130833Y-181957142D01*
X213083214Y-182004761D01*
X212987976Y-182052380D01*
X212797500Y-182052380D01*
X212702261Y-182004761D01*
X213511785Y-181385714D02*
X213749880Y-182052380D01*
X213987976Y-181385714D02*
X213749880Y-182052380D01*
X213654642Y-182290476D01*
X213607023Y-182338095D01*
X213511785Y-182385714D01*
X202035595Y-182995714D02*
X202035595Y-183995714D01*
X202035595Y-183043333D02*
X202130833Y-182995714D01*
X202321309Y-182995714D01*
X202416547Y-183043333D01*
X202464166Y-183090952D01*
X202511785Y-183186190D01*
X202511785Y-183471904D01*
X202464166Y-183567142D01*
X202416547Y-183614761D01*
X202321309Y-183662380D01*
X202130833Y-183662380D01*
X202035595Y-183614761D01*
X202940357Y-183662380D02*
X202940357Y-182995714D01*
X202940357Y-182662380D02*
X202892738Y-182710000D01*
X202940357Y-182757619D01*
X202987976Y-182710000D01*
X202940357Y-182662380D01*
X202940357Y-182757619D01*
X203416547Y-183662380D02*
X203416547Y-182995714D01*
X203416547Y-182662380D02*
X203368928Y-182710000D01*
X203416547Y-182757619D01*
X203464166Y-182710000D01*
X203416547Y-182662380D01*
X203416547Y-182757619D01*
X203749880Y-182995714D02*
X204130833Y-182995714D01*
X203892738Y-182662380D02*
X203892738Y-183519523D01*
X203940357Y-183614761D01*
X204035595Y-183662380D01*
X204130833Y-183662380D01*
X204368928Y-182662380D02*
X205035595Y-182662380D01*
X204607023Y-183662380D01*
X205464166Y-183662380D02*
X205654642Y-183662380D01*
X205749880Y-183614761D01*
X205797500Y-183567142D01*
X205892738Y-183424285D01*
X205940357Y-183233809D01*
X205940357Y-182852857D01*
X205892738Y-182757619D01*
X205845119Y-182710000D01*
X205749880Y-182662380D01*
X205559404Y-182662380D01*
X205464166Y-182710000D01*
X205416547Y-182757619D01*
X205368928Y-182852857D01*
X205368928Y-183090952D01*
X205416547Y-183186190D01*
X205464166Y-183233809D01*
X205559404Y-183281428D01*
X205749880Y-183281428D01*
X205845119Y-183233809D01*
X205892738Y-183186190D01*
X205940357Y-183090952D01*
X207845119Y-182614761D02*
X206987976Y-183900476D01*
X209368928Y-182995714D02*
X209368928Y-183662380D01*
X209130833Y-182614761D02*
X208892738Y-183329047D01*
X209511785Y-183329047D01*
X209845119Y-182757619D02*
X209892738Y-182710000D01*
X209987976Y-182662380D01*
X210226071Y-182662380D01*
X210321309Y-182710000D01*
X210368928Y-182757619D01*
X210416547Y-182852857D01*
X210416547Y-182948095D01*
X210368928Y-183090952D01*
X209797500Y-183662380D01*
X210416547Y-183662380D01*
X210845119Y-183662380D02*
X210845119Y-182662380D01*
X210940357Y-183281428D02*
X211226071Y-183662380D01*
X211226071Y-182995714D02*
X210845119Y-183376666D01*
X212035595Y-183614761D02*
X211940357Y-183662380D01*
X211749880Y-183662380D01*
X211654642Y-183614761D01*
X211607023Y-183519523D01*
X211607023Y-183138571D01*
X211654642Y-183043333D01*
X211749880Y-182995714D01*
X211940357Y-182995714D01*
X212035595Y-183043333D01*
X212083214Y-183138571D01*
X212083214Y-183233809D01*
X211607023Y-183329047D01*
X212892738Y-183614761D02*
X212797500Y-183662380D01*
X212607023Y-183662380D01*
X212511785Y-183614761D01*
X212464166Y-183519523D01*
X212464166Y-183138571D01*
X212511785Y-183043333D01*
X212607023Y-182995714D01*
X212797500Y-182995714D01*
X212892738Y-183043333D01*
X212940357Y-183138571D01*
X212940357Y-183233809D01*
X212464166Y-183329047D01*
X213368928Y-183662380D02*
X213368928Y-182662380D01*
X213368928Y-183043333D02*
X213464166Y-182995714D01*
X213654642Y-182995714D01*
X213749880Y-183043333D01*
X213797500Y-183090952D01*
X213845119Y-183186190D01*
X213845119Y-183471904D01*
X213797500Y-183567142D01*
X213749880Y-183614761D01*
X213654642Y-183662380D01*
X213464166Y-183662380D01*
X213368928Y-183614761D01*
X214226071Y-183614761D02*
X214321309Y-183662380D01*
X214511785Y-183662380D01*
X214607023Y-183614761D01*
X214654642Y-183519523D01*
X214654642Y-183471904D01*
X214607023Y-183376666D01*
X214511785Y-183329047D01*
X214368928Y-183329047D01*
X214273690Y-183281428D01*
X214226071Y-183186190D01*
X214226071Y-183138571D01*
X214273690Y-183043333D01*
X214368928Y-182995714D01*
X214511785Y-182995714D01*
X214607023Y-183043333D01*
X215083214Y-183567142D02*
X215130833Y-183614761D01*
X215083214Y-183662380D01*
X215035595Y-183614761D01*
X215083214Y-183567142D01*
X215083214Y-183662380D01*
X215940357Y-183614761D02*
X215845119Y-183662380D01*
X215654642Y-183662380D01*
X215559404Y-183614761D01*
X215511785Y-183519523D01*
X215511785Y-183138571D01*
X215559404Y-183043333D01*
X215654642Y-182995714D01*
X215845119Y-182995714D01*
X215940357Y-183043333D01*
X215987976Y-183138571D01*
X215987976Y-183233809D01*
X215511785Y-183329047D01*
X216845119Y-182995714D02*
X216845119Y-183662380D01*
X216416547Y-182995714D02*
X216416547Y-183519523D01*
X216464166Y-183614761D01*
X216559404Y-183662380D01*
X216702261Y-183662380D01*
X216797500Y-183614761D01*
X216845119Y-183567142D01*
X218035595Y-182757619D02*
X218083214Y-182710000D01*
X218178452Y-182662380D01*
X218416547Y-182662380D01*
X218511785Y-182710000D01*
X218559404Y-182757619D01*
X218607023Y-182852857D01*
X218607023Y-182948095D01*
X218559404Y-183090952D01*
X217987976Y-183662380D01*
X218607023Y-183662380D01*
X219226071Y-182662380D02*
X219321309Y-182662380D01*
X219416547Y-182710000D01*
X219464166Y-182757619D01*
X219511785Y-182852857D01*
X219559404Y-183043333D01*
X219559404Y-183281428D01*
X219511785Y-183471904D01*
X219464166Y-183567142D01*
X219416547Y-183614761D01*
X219321309Y-183662380D01*
X219226071Y-183662380D01*
X219130833Y-183614761D01*
X219083214Y-183567142D01*
X219035595Y-183471904D01*
X218987976Y-183281428D01*
X218987976Y-183043333D01*
X219035595Y-182852857D01*
X219083214Y-182757619D01*
X219130833Y-182710000D01*
X219226071Y-182662380D01*
X219940357Y-182757619D02*
X219987976Y-182710000D01*
X220083214Y-182662380D01*
X220321309Y-182662380D01*
X220416547Y-182710000D01*
X220464166Y-182757619D01*
X220511785Y-182852857D01*
X220511785Y-182948095D01*
X220464166Y-183090952D01*
X219892738Y-183662380D01*
X220511785Y-183662380D01*
X220845119Y-182662380D02*
X221464166Y-182662380D01*
X221130833Y-183043333D01*
X221273690Y-183043333D01*
X221368928Y-183090952D01*
X221416547Y-183138571D01*
X221464166Y-183233809D01*
X221464166Y-183471904D01*
X221416547Y-183567142D01*
X221368928Y-183614761D01*
X221273690Y-183662380D01*
X220987976Y-183662380D01*
X220892738Y-183614761D01*
X220845119Y-183567142D01*
M02*
