%TF.GenerationSoftware,KiCad,Pcbnew,5.1.10-88a1d61d58~88~ubuntu21.04.1*%
%TF.CreationDate,2021-06-04T00:00:19+02:00*%
%TF.ProjectId,southpawpcb,736f7574-6870-4617-9770-63622e6b6963,rev?*%
%TF.SameCoordinates,Original*%
%TF.FileFunction,Copper,L1,Top*%
%TF.FilePolarity,Positive*%
%FSLAX46Y46*%
G04 Gerber Fmt 4.6, Leading zero omitted, Abs format (unit mm)*
G04 Created by KiCad (PCBNEW 5.1.10-88a1d61d58~88~ubuntu21.04.1) date 2021-06-04 00:00:19*
%MOMM*%
%LPD*%
G01*
G04 APERTURE LIST*
%TA.AperFunction,Profile*%
%ADD10C,0.050000*%
%TD*%
%TA.AperFunction,ComponentPad*%
%ADD11C,2.250000*%
%TD*%
%TA.AperFunction,SMDPad,CuDef*%
%ADD12R,0.500000X2.500000*%
%TD*%
%TA.AperFunction,SMDPad,CuDef*%
%ADD13R,1.200000X1.200000*%
%TD*%
%TA.AperFunction,ComponentPad*%
%ADD14R,1.600000X1.600000*%
%TD*%
%TA.AperFunction,ComponentPad*%
%ADD15C,1.600000*%
%TD*%
%TA.AperFunction,SMDPad,CuDef*%
%ADD16R,2.500000X0.500000*%
%TD*%
%TA.AperFunction,Conductor*%
%ADD17C,0.250000*%
%TD*%
G04 APERTURE END LIST*
D10*
X207042500Y-195818250D02*
G75*
G02*
X206092500Y-196768250I-950000J0D01*
G01*
X298242500Y-93218250D02*
G75*
G02*
X299192500Y-94168250I0J-950000D01*
G01*
X28442500Y-94168250D02*
X28442500Y-194868250D01*
X206092500Y-196768250D02*
X121542500Y-196768250D01*
X298242500Y-196768250D02*
X213692500Y-196768250D01*
X206092500Y-93218250D02*
G75*
G02*
X207042500Y-94168250I0J-950000D01*
G01*
X30342500Y-93218250D02*
X113942500Y-93218250D01*
X213692500Y-196768250D02*
G75*
G02*
X212742500Y-195818250I0J950000D01*
G01*
X121542500Y-196768250D02*
G75*
G02*
X120592500Y-195818250I0J950000D01*
G01*
X120592500Y-94168250D02*
G75*
G02*
X121542500Y-93218250I950000J0D01*
G01*
X390392500Y-93218250D02*
G75*
G02*
X391342500Y-94168250I0J-950000D01*
G01*
X121542500Y-93218250D02*
X206092500Y-93218250D01*
X212742500Y-94168250D02*
G75*
G02*
X213692500Y-93218250I950000J0D01*
G01*
X29392500Y-196768250D02*
G75*
G02*
X28442500Y-195818250I0J950000D01*
G01*
X28442500Y-94168250D02*
G75*
G02*
X29392500Y-93218250I950000J0D01*
G01*
X213692500Y-93218250D02*
X298242500Y-93218250D01*
X207042500Y-195818250D02*
G75*
G02*
X212742500Y-195818250I2850000J0D01*
G01*
X114892500Y-195818250D02*
G75*
G02*
X120592500Y-195818250I2850000J0D01*
G01*
X299192500Y-195818250D02*
G75*
G02*
X298242500Y-196768250I-950000J0D01*
G01*
X113942500Y-196768250D02*
X29392500Y-196768250D01*
X113942500Y-93218250D02*
G75*
G02*
X114892500Y-94168250I0J-950000D01*
G01*
X114892500Y-195818250D02*
G75*
G02*
X113942500Y-196768250I-950000J0D01*
G01*
X304892500Y-94168250D02*
G75*
G02*
X299192500Y-94168250I-2850000J0D01*
G01*
X305842500Y-93218250D02*
X390392500Y-93218250D01*
X120592500Y-94168250D02*
G75*
G02*
X114892500Y-94168250I-2850000J0D01*
G01*
X305842500Y-196768250D02*
X390392500Y-196768250D01*
X299192500Y-195818250D02*
G75*
G02*
X304892500Y-195818250I2850000J0D01*
G01*
X305842500Y-196768250D02*
G75*
G02*
X304892500Y-195818250I0J950000D01*
G01*
X391342500Y-195818250D02*
X391342500Y-94168250D01*
X30342500Y-93218250D02*
X29392500Y-93218250D01*
X391342500Y-195818250D02*
G75*
G02*
X390392500Y-196768250I-950000J0D01*
G01*
X304892500Y-94168250D02*
G75*
G02*
X305842500Y-93218250I950000J0D01*
G01*
X212742500Y-94168250D02*
G75*
G02*
X207042500Y-94168250I-2850000J0D01*
G01*
X28442500Y-194868250D02*
X28442500Y-195818250D01*
D11*
X376445000Y-140107000D03*
X381445000Y-139607000D03*
X382945000Y-133107000D03*
%TA.AperFunction,ComponentPad*%
G36*
G01*
X380647650Y-131045688D02*
X380647650Y-131045688D01*
G75*
G02*
X382236312Y-130959650I837350J-751312D01*
G01*
X383696320Y-132269640D01*
G75*
G02*
X383782358Y-133858302I-751312J-837350D01*
G01*
X383782358Y-133858302D01*
G75*
G02*
X382193696Y-133944340I-837350J751312D01*
G01*
X380733688Y-132634350D01*
G75*
G02*
X380647650Y-131045688I751312J837350D01*
G01*
G37*
%TD.AperFunction*%
X384025000Y-138147000D03*
%TA.AperFunction,ComponentPad*%
G36*
G01*
X382322740Y-138028524D02*
X382322666Y-138029601D01*
G75*
G02*
X383522399Y-136984666I1122334J-77399D01*
G01*
X384102399Y-137024664D01*
G75*
G02*
X385147334Y-138224397I-77399J-1122334D01*
G01*
X385147334Y-138224397D01*
G75*
G02*
X383947601Y-139269332I-1122334J77399D01*
G01*
X383367601Y-139229334D01*
G75*
G02*
X382322666Y-138029601I77399J1122334D01*
G01*
G37*
%TD.AperFunction*%
X352620000Y-160187000D03*
%TA.AperFunction,ComponentPad*%
G36*
G01*
X350558688Y-162484350D02*
X350558683Y-162484345D01*
G75*
G02*
X350472655Y-160895683I751317J837345D01*
G01*
X351782657Y-159435683D01*
G75*
G02*
X353371319Y-159349655I837345J-751317D01*
G01*
X353371319Y-159349655D01*
G75*
G02*
X353457347Y-160938317I-751317J-837345D01*
G01*
X352147345Y-162398317D01*
G75*
G02*
X350558683Y-162484345I-837345J751317D01*
G01*
G37*
%TD.AperFunction*%
X357660000Y-159107000D03*
%TA.AperFunction,ComponentPad*%
G36*
G01*
X357543483Y-160809395D02*
X357542597Y-160809334D01*
G75*
G02*
X356497666Y-159609597I77403J1122334D01*
G01*
X356537666Y-159029597D01*
G75*
G02*
X357737403Y-157984666I1122334J-77403D01*
G01*
X357737403Y-157984666D01*
G75*
G02*
X358782334Y-159184403I-77403J-1122334D01*
G01*
X358742334Y-159764403D01*
G75*
G02*
X357542597Y-160809334I-1122334J77403D01*
G01*
G37*
%TD.AperFunction*%
X124019000Y-160187000D03*
%TA.AperFunction,ComponentPad*%
G36*
G01*
X121957688Y-162484350D02*
X121957683Y-162484345D01*
G75*
G02*
X121871655Y-160895683I751317J837345D01*
G01*
X123181657Y-159435683D01*
G75*
G02*
X124770319Y-159349655I837345J-751317D01*
G01*
X124770319Y-159349655D01*
G75*
G02*
X124856347Y-160938317I-751317J-837345D01*
G01*
X123546345Y-162398317D01*
G75*
G02*
X121957683Y-162484345I-837345J751317D01*
G01*
G37*
%TD.AperFunction*%
X129059000Y-159107000D03*
%TA.AperFunction,ComponentPad*%
G36*
G01*
X128942483Y-160809395D02*
X128941597Y-160809334D01*
G75*
G02*
X127896666Y-159609597I77403J1122334D01*
G01*
X127936666Y-159029597D01*
G75*
G02*
X129136403Y-157984666I1122334J-77403D01*
G01*
X129136403Y-157984666D01*
G75*
G02*
X130181334Y-159184403I-77403J-1122334D01*
G01*
X130141334Y-159764403D01*
G75*
G02*
X128941597Y-160809334I-1122334J77403D01*
G01*
G37*
%TD.AperFunction*%
X366915000Y-141137000D03*
%TA.AperFunction,ComponentPad*%
G36*
G01*
X364853688Y-143434350D02*
X364853683Y-143434345D01*
G75*
G02*
X364767655Y-141845683I751317J837345D01*
G01*
X366077657Y-140385683D01*
G75*
G02*
X367666319Y-140299655I837345J-751317D01*
G01*
X367666319Y-140299655D01*
G75*
G02*
X367752347Y-141888317I-751317J-837345D01*
G01*
X366442345Y-143348317D01*
G75*
G02*
X364853683Y-143434345I-837345J751317D01*
G01*
G37*
%TD.AperFunction*%
X371955000Y-140057000D03*
%TA.AperFunction,ComponentPad*%
G36*
G01*
X371838483Y-141759395D02*
X371837597Y-141759334D01*
G75*
G02*
X370792666Y-140559597I77403J1122334D01*
G01*
X370832666Y-139979597D01*
G75*
G02*
X372032403Y-138934666I1122334J-77403D01*
G01*
X372032403Y-138934666D01*
G75*
G02*
X373077334Y-140134403I-77403J-1122334D01*
G01*
X373037334Y-140714403D01*
G75*
G02*
X371837597Y-141759334I-1122334J77403D01*
G01*
G37*
%TD.AperFunction*%
X114545000Y-141137000D03*
%TA.AperFunction,ComponentPad*%
G36*
G01*
X112483688Y-143434350D02*
X112483683Y-143434345D01*
G75*
G02*
X112397655Y-141845683I751317J837345D01*
G01*
X113707657Y-140385683D01*
G75*
G02*
X115296319Y-140299655I837345J-751317D01*
G01*
X115296319Y-140299655D01*
G75*
G02*
X115382347Y-141888317I-751317J-837345D01*
G01*
X114072345Y-143348317D01*
G75*
G02*
X112483683Y-143434345I-837345J751317D01*
G01*
G37*
%TD.AperFunction*%
X119585000Y-140057000D03*
%TA.AperFunction,ComponentPad*%
G36*
G01*
X119468483Y-141759395D02*
X119467597Y-141759334D01*
G75*
G02*
X118422666Y-140559597I77403J1122334D01*
G01*
X118462666Y-139979597D01*
G75*
G02*
X119662403Y-138934666I1122334J-77403D01*
G01*
X119662403Y-138934666D01*
G75*
G02*
X120707334Y-140134403I-77403J-1122334D01*
G01*
X120667334Y-140714403D01*
G75*
G02*
X119467597Y-141759334I-1122334J77403D01*
G01*
G37*
%TD.AperFunction*%
X374096000Y-122087000D03*
%TA.AperFunction,ComponentPad*%
G36*
G01*
X372034688Y-124384350D02*
X372034683Y-124384345D01*
G75*
G02*
X371948655Y-122795683I751317J837345D01*
G01*
X373258657Y-121335683D01*
G75*
G02*
X374847319Y-121249655I837345J-751317D01*
G01*
X374847319Y-121249655D01*
G75*
G02*
X374933347Y-122838317I-751317J-837345D01*
G01*
X373623345Y-124298317D01*
G75*
G02*
X372034683Y-124384345I-837345J751317D01*
G01*
G37*
%TD.AperFunction*%
X379136000Y-121007000D03*
%TA.AperFunction,ComponentPad*%
G36*
G01*
X379019483Y-122709395D02*
X379018597Y-122709334D01*
G75*
G02*
X377973666Y-121509597I77403J1122334D01*
G01*
X378013666Y-120929597D01*
G75*
G02*
X379213403Y-119884666I1122334J-77403D01*
G01*
X379213403Y-119884666D01*
G75*
G02*
X380258334Y-121084403I-77403J-1122334D01*
G01*
X380218334Y-121664403D01*
G75*
G02*
X379018597Y-122709334I-1122334J77403D01*
G01*
G37*
%TD.AperFunction*%
X378820000Y-160187000D03*
%TA.AperFunction,ComponentPad*%
G36*
G01*
X376758688Y-162484350D02*
X376758683Y-162484345D01*
G75*
G02*
X376672655Y-160895683I751317J837345D01*
G01*
X377982657Y-159435683D01*
G75*
G02*
X379571319Y-159349655I837345J-751317D01*
G01*
X379571319Y-159349655D01*
G75*
G02*
X379657347Y-160938317I-751317J-837345D01*
G01*
X378347345Y-162398317D01*
G75*
G02*
X376758683Y-162484345I-837345J751317D01*
G01*
G37*
%TD.AperFunction*%
X383860000Y-159107000D03*
%TA.AperFunction,ComponentPad*%
G36*
G01*
X383743483Y-160809395D02*
X383742597Y-160809334D01*
G75*
G02*
X382697666Y-159609597I77403J1122334D01*
G01*
X382737666Y-159029597D01*
G75*
G02*
X383937403Y-157984666I1122334J-77403D01*
G01*
X383937403Y-157984666D01*
G75*
G02*
X384982334Y-159184403I-77403J-1122334D01*
G01*
X384942334Y-159764403D01*
G75*
G02*
X383742597Y-160809334I-1122334J77403D01*
G01*
G37*
%TD.AperFunction*%
D12*
X388874000Y-154084000D03*
D13*
X388874000Y-152959000D03*
X388874000Y-149809000D03*
D12*
X388874000Y-148684000D03*
D14*
X388874000Y-155284000D03*
D15*
X388874000Y-147484000D03*
D14*
X65187500Y-94779400D03*
D15*
X65187500Y-97319400D03*
X65187500Y-99859400D03*
X65187500Y-102399400D03*
X65187500Y-104939400D03*
X65187500Y-107479400D03*
X65187500Y-110019400D03*
X65187500Y-112559400D03*
X65187500Y-115099400D03*
X65187500Y-117639400D03*
X65187500Y-120179400D03*
X65187500Y-122719400D03*
X49947500Y-122719400D03*
X49947500Y-120179400D03*
X49947500Y-117639400D03*
X49947500Y-115099400D03*
X49947500Y-112559400D03*
X49947500Y-110019400D03*
X49947500Y-107479400D03*
X49947500Y-104939400D03*
X49947500Y-102399400D03*
X49947500Y-99859400D03*
X49947500Y-97319400D03*
X49947500Y-94779400D03*
%TA.AperFunction,ComponentPad*%
G36*
G01*
X245671483Y-141759395D02*
X245670597Y-141759334D01*
G75*
G02*
X244625666Y-140559597I77403J1122334D01*
G01*
X244665666Y-139979597D01*
G75*
G02*
X245865403Y-138934666I1122334J-77403D01*
G01*
X245865403Y-138934666D01*
G75*
G02*
X246910334Y-140134403I-77403J-1122334D01*
G01*
X246870334Y-140714403D01*
G75*
G02*
X245670597Y-141759334I-1122334J77403D01*
G01*
G37*
%TD.AperFunction*%
D11*
X245788000Y-140057000D03*
%TA.AperFunction,ComponentPad*%
G36*
G01*
X238686688Y-143434350D02*
X238686683Y-143434345D01*
G75*
G02*
X238600655Y-141845683I751317J837345D01*
G01*
X239910657Y-140385683D01*
G75*
G02*
X241499319Y-140299655I837345J-751317D01*
G01*
X241499319Y-140299655D01*
G75*
G02*
X241585347Y-141888317I-751317J-837345D01*
G01*
X240275345Y-143348317D01*
G75*
G02*
X238686683Y-143434345I-837345J751317D01*
G01*
G37*
%TD.AperFunction*%
X240748000Y-141137000D03*
D16*
X150061000Y-97512000D03*
D13*
X151186000Y-97512000D03*
X154336000Y-97512000D03*
D16*
X155461000Y-97512000D03*
D14*
X148861000Y-97512000D03*
D15*
X156661000Y-97512000D03*
%TA.AperFunction,ComponentPad*%
G36*
G01*
X274247483Y-160809395D02*
X274246597Y-160809334D01*
G75*
G02*
X273201666Y-159609597I77403J1122334D01*
G01*
X273241666Y-159029597D01*
G75*
G02*
X274441403Y-157984666I1122334J-77403D01*
G01*
X274441403Y-157984666D01*
G75*
G02*
X275486334Y-159184403I-77403J-1122334D01*
G01*
X275446334Y-159764403D01*
G75*
G02*
X274246597Y-160809334I-1122334J77403D01*
G01*
G37*
%TD.AperFunction*%
D11*
X274364000Y-159107000D03*
%TA.AperFunction,ComponentPad*%
G36*
G01*
X267262688Y-162484350D02*
X267262683Y-162484345D01*
G75*
G02*
X267176655Y-160895683I751317J837345D01*
G01*
X268486657Y-159435683D01*
G75*
G02*
X270075319Y-159349655I837345J-751317D01*
G01*
X270075319Y-159349655D01*
G75*
G02*
X270161347Y-160938317I-751317J-837345D01*
G01*
X268851345Y-162398317D01*
G75*
G02*
X267262683Y-162484345I-837345J751317D01*
G01*
G37*
%TD.AperFunction*%
X269324000Y-160187000D03*
D15*
X285248000Y-135612000D03*
D14*
X277448000Y-135612000D03*
D16*
X284048000Y-135612000D03*
D13*
X282923000Y-135612000D03*
X279773000Y-135612000D03*
D16*
X278648000Y-135612000D03*
%TA.AperFunction,ComponentPad*%
G36*
G01*
X333778483Y-179859395D02*
X333777597Y-179859334D01*
G75*
G02*
X332732666Y-178659597I77403J1122334D01*
G01*
X332772666Y-178079597D01*
G75*
G02*
X333972403Y-177034666I1122334J-77403D01*
G01*
X333972403Y-177034666D01*
G75*
G02*
X335017334Y-178234403I-77403J-1122334D01*
G01*
X334977334Y-178814403D01*
G75*
G02*
X333777597Y-179859334I-1122334J77403D01*
G01*
G37*
%TD.AperFunction*%
D11*
X333895000Y-178157000D03*
%TA.AperFunction,ComponentPad*%
G36*
G01*
X326793688Y-181534350D02*
X326793683Y-181534345D01*
G75*
G02*
X326707655Y-179945683I751317J837345D01*
G01*
X328017657Y-178485683D01*
G75*
G02*
X329606319Y-178399655I837345J-751317D01*
G01*
X329606319Y-178399655D01*
G75*
G02*
X329692347Y-179988317I-751317J-837345D01*
G01*
X328382345Y-181448317D01*
G75*
G02*
X326793683Y-181534345I-837345J751317D01*
G01*
G37*
%TD.AperFunction*%
X328855000Y-179237000D03*
D15*
X126455000Y-173712000D03*
D14*
X118655000Y-173712000D03*
D16*
X125255000Y-173712000D03*
D13*
X124130000Y-173712000D03*
X120980000Y-173712000D03*
D16*
X119855000Y-173712000D03*
D11*
X155024000Y-160187000D03*
%TA.AperFunction,ComponentPad*%
G36*
G01*
X152962688Y-162484350D02*
X152962683Y-162484345D01*
G75*
G02*
X152876655Y-160895683I751317J837345D01*
G01*
X154186657Y-159435683D01*
G75*
G02*
X155775319Y-159349655I837345J-751317D01*
G01*
X155775319Y-159349655D01*
G75*
G02*
X155861347Y-160938317I-751317J-837345D01*
G01*
X154551345Y-162398317D01*
G75*
G02*
X152962683Y-162484345I-837345J751317D01*
G01*
G37*
%TD.AperFunction*%
X160064000Y-159107000D03*
%TA.AperFunction,ComponentPad*%
G36*
G01*
X159947483Y-160809395D02*
X159946597Y-160809334D01*
G75*
G02*
X158901666Y-159609597I77403J1122334D01*
G01*
X158941666Y-159029597D01*
G75*
G02*
X160141403Y-157984666I1122334J-77403D01*
G01*
X160141403Y-157984666D01*
G75*
G02*
X161186334Y-159184403I-77403J-1122334D01*
G01*
X161146334Y-159764403D01*
G75*
G02*
X159946597Y-160809334I-1122334J77403D01*
G01*
G37*
%TD.AperFunction*%
D16*
X73861200Y-135612000D03*
D13*
X74986200Y-135612000D03*
X78136200Y-135612000D03*
D16*
X79261200Y-135612000D03*
D14*
X72661200Y-135612000D03*
D15*
X80461200Y-135612000D03*
D11*
X159786000Y-122087000D03*
%TA.AperFunction,ComponentPad*%
G36*
G01*
X157724688Y-124384350D02*
X157724683Y-124384345D01*
G75*
G02*
X157638655Y-122795683I751317J837345D01*
G01*
X158948657Y-121335683D01*
G75*
G02*
X160537319Y-121249655I837345J-751317D01*
G01*
X160537319Y-121249655D01*
G75*
G02*
X160623347Y-122838317I-751317J-837345D01*
G01*
X159313345Y-124298317D01*
G75*
G02*
X157724683Y-124384345I-837345J751317D01*
G01*
G37*
%TD.AperFunction*%
X164826000Y-121007000D03*
%TA.AperFunction,ComponentPad*%
G36*
G01*
X164709483Y-122709395D02*
X164708597Y-122709334D01*
G75*
G02*
X163663666Y-121509597I77403J1122334D01*
G01*
X163703666Y-120929597D01*
G75*
G02*
X164903403Y-119884666I1122334J-77403D01*
G01*
X164903403Y-119884666D01*
G75*
G02*
X165948334Y-121084403I-77403J-1122334D01*
G01*
X165908334Y-121664403D01*
G75*
G02*
X164708597Y-122709334I-1122334J77403D01*
G01*
G37*
%TD.AperFunction*%
%TA.AperFunction,ComponentPad*%
G36*
G01*
X174234483Y-103659395D02*
X174233597Y-103659334D01*
G75*
G02*
X173188666Y-102459597I77403J1122334D01*
G01*
X173228666Y-101879597D01*
G75*
G02*
X174428403Y-100834666I1122334J-77403D01*
G01*
X174428403Y-100834666D01*
G75*
G02*
X175473334Y-102034403I-77403J-1122334D01*
G01*
X175433334Y-102614403D01*
G75*
G02*
X174233597Y-103659334I-1122334J77403D01*
G01*
G37*
%TD.AperFunction*%
X174351000Y-101957000D03*
%TA.AperFunction,ComponentPad*%
G36*
G01*
X167249688Y-105334350D02*
X167249683Y-105334345D01*
G75*
G02*
X167163655Y-103745683I751317J837345D01*
G01*
X168473657Y-102285683D01*
G75*
G02*
X170062319Y-102199655I837345J-751317D01*
G01*
X170062319Y-102199655D01*
G75*
G02*
X170148347Y-103788317I-751317J-837345D01*
G01*
X168838345Y-105248317D01*
G75*
G02*
X167249683Y-105334345I-837345J751317D01*
G01*
G37*
%TD.AperFunction*%
X169311000Y-103037000D03*
D15*
X61411200Y-97512000D03*
D14*
X53611200Y-97512000D03*
D16*
X60211200Y-97512000D03*
D13*
X59086200Y-97512000D03*
X55936200Y-97512000D03*
D16*
X54811200Y-97512000D03*
D15*
X323348000Y-135612000D03*
D14*
X315548000Y-135612000D03*
D16*
X322148000Y-135612000D03*
D13*
X321023000Y-135612000D03*
X317873000Y-135612000D03*
D16*
X316748000Y-135612000D03*
%TA.AperFunction,ComponentPad*%
G36*
G01*
X221859483Y-122709395D02*
X221858597Y-122709334D01*
G75*
G02*
X220813666Y-121509597I77403J1122334D01*
G01*
X220853666Y-120929597D01*
G75*
G02*
X222053403Y-119884666I1122334J-77403D01*
G01*
X222053403Y-119884666D01*
G75*
G02*
X223098334Y-121084403I-77403J-1122334D01*
G01*
X223058334Y-121664403D01*
G75*
G02*
X221858597Y-122709334I-1122334J77403D01*
G01*
G37*
%TD.AperFunction*%
D11*
X221976000Y-121007000D03*
%TA.AperFunction,ComponentPad*%
G36*
G01*
X214874688Y-124384350D02*
X214874683Y-124384345D01*
G75*
G02*
X214788655Y-122795683I751317J837345D01*
G01*
X216098657Y-121335683D01*
G75*
G02*
X217687319Y-121249655I837345J-751317D01*
G01*
X217687319Y-121249655D01*
G75*
G02*
X217773347Y-122838317I-751317J-837345D01*
G01*
X216463345Y-124298317D01*
G75*
G02*
X214874683Y-124384345I-837345J751317D01*
G01*
G37*
%TD.AperFunction*%
X216936000Y-122087000D03*
D16*
X73861200Y-116562000D03*
D13*
X74986200Y-116562000D03*
X78136200Y-116562000D03*
D16*
X79261200Y-116562000D03*
D14*
X72661200Y-116562000D03*
D15*
X80461200Y-116562000D03*
X42361200Y-154662000D03*
D14*
X34561200Y-154662000D03*
D16*
X41161200Y-154662000D03*
D13*
X40036200Y-154662000D03*
X36886200Y-154662000D03*
D16*
X35761200Y-154662000D03*
D15*
X185236000Y-116562000D03*
D14*
X177436000Y-116562000D03*
D16*
X184036000Y-116562000D03*
D13*
X182911000Y-116562000D03*
X179761000Y-116562000D03*
D16*
X178636000Y-116562000D03*
X173874000Y-154662000D03*
D13*
X174999000Y-154662000D03*
X178149000Y-154662000D03*
D16*
X179274000Y-154662000D03*
D14*
X172674000Y-154662000D03*
D15*
X180474000Y-154662000D03*
X170948000Y-135612000D03*
D14*
X163148000Y-135612000D03*
D16*
X169748000Y-135612000D03*
D13*
X168623000Y-135612000D03*
X165473000Y-135612000D03*
D16*
X164348000Y-135612000D03*
D15*
X99511200Y-97512000D03*
D14*
X91711200Y-97512000D03*
D16*
X98311200Y-97512000D03*
D13*
X97186200Y-97512000D03*
X94036200Y-97512000D03*
D16*
X92911200Y-97512000D03*
%TA.AperFunction,ComponentPad*%
G36*
G01*
X202809483Y-122709395D02*
X202808597Y-122709334D01*
G75*
G02*
X201763666Y-121509597I77403J1122334D01*
G01*
X201803666Y-120929597D01*
G75*
G02*
X203003403Y-119884666I1122334J-77403D01*
G01*
X203003403Y-119884666D01*
G75*
G02*
X204048334Y-121084403I-77403J-1122334D01*
G01*
X204008334Y-121664403D01*
G75*
G02*
X202808597Y-122709334I-1122334J77403D01*
G01*
G37*
%TD.AperFunction*%
D11*
X202926000Y-121007000D03*
%TA.AperFunction,ComponentPad*%
G36*
G01*
X195824688Y-124384350D02*
X195824683Y-124384345D01*
G75*
G02*
X195738655Y-122795683I751317J837345D01*
G01*
X197048657Y-121335683D01*
G75*
G02*
X198637319Y-121249655I837345J-751317D01*
G01*
X198637319Y-121249655D01*
G75*
G02*
X198723347Y-122838317I-751317J-837345D01*
G01*
X197413345Y-124298317D01*
G75*
G02*
X195824683Y-124384345I-837345J751317D01*
G01*
G37*
%TD.AperFunction*%
X197886000Y-122087000D03*
D16*
X73861200Y-97512000D03*
D13*
X74986200Y-97512000D03*
X78136200Y-97512000D03*
D16*
X79261200Y-97512000D03*
D14*
X72661200Y-97512000D03*
D15*
X80461200Y-97512000D03*
%TA.AperFunction,ComponentPad*%
G36*
G01*
X117084483Y-103659395D02*
X117083597Y-103659334D01*
G75*
G02*
X116038666Y-102459597I77403J1122334D01*
G01*
X116078666Y-101879597D01*
G75*
G02*
X117278403Y-100834666I1122334J-77403D01*
G01*
X117278403Y-100834666D01*
G75*
G02*
X118323334Y-102034403I-77403J-1122334D01*
G01*
X118283334Y-102614403D01*
G75*
G02*
X117083597Y-103659334I-1122334J77403D01*
G01*
G37*
%TD.AperFunction*%
D11*
X117201000Y-101957000D03*
%TA.AperFunction,ComponentPad*%
G36*
G01*
X110099688Y-105334350D02*
X110099683Y-105334345D01*
G75*
G02*
X110013655Y-103745683I751317J837345D01*
G01*
X111323657Y-102285683D01*
G75*
G02*
X112912319Y-102199655I837345J-751317D01*
G01*
X112912319Y-102199655D01*
G75*
G02*
X112998347Y-103788317I-751317J-837345D01*
G01*
X111688345Y-105248317D01*
G75*
G02*
X110099683Y-105334345I-837345J751317D01*
G01*
G37*
%TD.AperFunction*%
X112161000Y-103037000D03*
X250274000Y-160187000D03*
%TA.AperFunction,ComponentPad*%
G36*
G01*
X248212688Y-162484350D02*
X248212683Y-162484345D01*
G75*
G02*
X248126655Y-160895683I751317J837345D01*
G01*
X249436657Y-159435683D01*
G75*
G02*
X251025319Y-159349655I837345J-751317D01*
G01*
X251025319Y-159349655D01*
G75*
G02*
X251111347Y-160938317I-751317J-837345D01*
G01*
X249801345Y-162398317D01*
G75*
G02*
X248212683Y-162484345I-837345J751317D01*
G01*
G37*
%TD.AperFunction*%
X255314000Y-159107000D03*
%TA.AperFunction,ComponentPad*%
G36*
G01*
X255197483Y-160809395D02*
X255196597Y-160809334D01*
G75*
G02*
X254151666Y-159609597I77403J1122334D01*
G01*
X254191666Y-159029597D01*
G75*
G02*
X255391403Y-157984666I1122334J-77403D01*
G01*
X255391403Y-157984666D01*
G75*
G02*
X256436334Y-159184403I-77403J-1122334D01*
G01*
X256396334Y-159764403D01*
G75*
G02*
X255196597Y-160809334I-1122334J77403D01*
G01*
G37*
%TD.AperFunction*%
D16*
X159586000Y-116562000D03*
D13*
X160711000Y-116562000D03*
X163861000Y-116562000D03*
D16*
X164986000Y-116562000D03*
D14*
X158386000Y-116562000D03*
D15*
X166186000Y-116562000D03*
X80417500Y-173712000D03*
D14*
X72617500Y-173712000D03*
D16*
X79217500Y-173712000D03*
D13*
X78092500Y-173712000D03*
X74942500Y-173712000D03*
D16*
X73817500Y-173712000D03*
D11*
X307424000Y-160187000D03*
%TA.AperFunction,ComponentPad*%
G36*
G01*
X305362688Y-162484350D02*
X305362683Y-162484345D01*
G75*
G02*
X305276655Y-160895683I751317J837345D01*
G01*
X306586657Y-159435683D01*
G75*
G02*
X308175319Y-159349655I837345J-751317D01*
G01*
X308175319Y-159349655D01*
G75*
G02*
X308261347Y-160938317I-751317J-837345D01*
G01*
X306951345Y-162398317D01*
G75*
G02*
X305362683Y-162484345I-837345J751317D01*
G01*
G37*
%TD.AperFunction*%
X312464000Y-159107000D03*
%TA.AperFunction,ComponentPad*%
G36*
G01*
X312347483Y-160809395D02*
X312346597Y-160809334D01*
G75*
G02*
X311301666Y-159609597I77403J1122334D01*
G01*
X311341666Y-159029597D01*
G75*
G02*
X312541403Y-157984666I1122334J-77403D01*
G01*
X312541403Y-157984666D01*
G75*
G02*
X313586334Y-159184403I-77403J-1122334D01*
G01*
X313546334Y-159764403D01*
G75*
G02*
X312346597Y-160809334I-1122334J77403D01*
G01*
G37*
%TD.AperFunction*%
D15*
X358367000Y-173005800D03*
D14*
X366167000Y-173005800D03*
D16*
X359567000Y-173005800D03*
D13*
X360692000Y-173005800D03*
X363842000Y-173005800D03*
D16*
X364967000Y-173005800D03*
D15*
X327411000Y-173712000D03*
D14*
X335211000Y-173712000D03*
D16*
X328611000Y-173712000D03*
D13*
X329736000Y-173712000D03*
X332886000Y-173712000D03*
D16*
X334011000Y-173712000D03*
X221498000Y-135612000D03*
D13*
X222623000Y-135612000D03*
X225773000Y-135612000D03*
D16*
X226898000Y-135612000D03*
D14*
X220298000Y-135612000D03*
D15*
X228098000Y-135612000D03*
X328111000Y-97512000D03*
D14*
X320311000Y-97512000D03*
D16*
X326911000Y-97512000D03*
D13*
X325786000Y-97512000D03*
X322636000Y-97512000D03*
D16*
X321511000Y-97512000D03*
%TA.AperFunction,ComponentPad*%
G36*
G01*
X183759483Y-122709395D02*
X183758597Y-122709334D01*
G75*
G02*
X182713666Y-121509597I77403J1122334D01*
G01*
X182753666Y-120929597D01*
G75*
G02*
X183953403Y-119884666I1122334J-77403D01*
G01*
X183953403Y-119884666D01*
G75*
G02*
X184998334Y-121084403I-77403J-1122334D01*
G01*
X184958334Y-121664403D01*
G75*
G02*
X183758597Y-122709334I-1122334J77403D01*
G01*
G37*
%TD.AperFunction*%
D11*
X183876000Y-121007000D03*
%TA.AperFunction,ComponentPad*%
G36*
G01*
X176774688Y-124384350D02*
X176774683Y-124384345D01*
G75*
G02*
X176688655Y-122795683I751317J837345D01*
G01*
X177998657Y-121335683D01*
G75*
G02*
X179587319Y-121249655I837345J-751317D01*
G01*
X179587319Y-121249655D01*
G75*
G02*
X179673347Y-122838317I-751317J-837345D01*
G01*
X178363345Y-124298317D01*
G75*
G02*
X176774683Y-124384345I-837345J751317D01*
G01*
G37*
%TD.AperFunction*%
X178836000Y-122087000D03*
X131211000Y-103037000D03*
%TA.AperFunction,ComponentPad*%
G36*
G01*
X129149688Y-105334350D02*
X129149683Y-105334345D01*
G75*
G02*
X129063655Y-103745683I751317J837345D01*
G01*
X130373657Y-102285683D01*
G75*
G02*
X131962319Y-102199655I837345J-751317D01*
G01*
X131962319Y-102199655D01*
G75*
G02*
X132048347Y-103788317I-751317J-837345D01*
G01*
X130738345Y-105248317D01*
G75*
G02*
X129149683Y-105334345I-837345J751317D01*
G01*
G37*
%TD.AperFunction*%
X136251000Y-101957000D03*
%TA.AperFunction,ComponentPad*%
G36*
G01*
X136134483Y-103659395D02*
X136133597Y-103659334D01*
G75*
G02*
X135088666Y-102459597I77403J1122334D01*
G01*
X135128666Y-101879597D01*
G75*
G02*
X136328403Y-100834666I1122334J-77403D01*
G01*
X136328403Y-100834666D01*
G75*
G02*
X137373334Y-102034403I-77403J-1122334D01*
G01*
X137333334Y-102614403D01*
G75*
G02*
X136133597Y-103659334I-1122334J77403D01*
G01*
G37*
%TD.AperFunction*%
D15*
X86086200Y-131712000D03*
D14*
X86086200Y-139512000D03*
D12*
X86086200Y-132912000D03*
D13*
X86086200Y-134037000D03*
X86086200Y-137187000D03*
D12*
X86086200Y-138312000D03*
D15*
X219436000Y-103137000D03*
D14*
X219436000Y-110937000D03*
D12*
X219436000Y-104337000D03*
D13*
X219436000Y-105462000D03*
X219436000Y-108612000D03*
D12*
X219436000Y-109737000D03*
D11*
X255036000Y-122087000D03*
%TA.AperFunction,ComponentPad*%
G36*
G01*
X252974688Y-124384350D02*
X252974683Y-124384345D01*
G75*
G02*
X252888655Y-122795683I751317J837345D01*
G01*
X254198657Y-121335683D01*
G75*
G02*
X255787319Y-121249655I837345J-751317D01*
G01*
X255787319Y-121249655D01*
G75*
G02*
X255873347Y-122838317I-751317J-837345D01*
G01*
X254563345Y-124298317D01*
G75*
G02*
X252974683Y-124384345I-837345J751317D01*
G01*
G37*
%TD.AperFunction*%
X260076000Y-121007000D03*
%TA.AperFunction,ComponentPad*%
G36*
G01*
X259959483Y-122709395D02*
X259958597Y-122709334D01*
G75*
G02*
X258913666Y-121509597I77403J1122334D01*
G01*
X258953666Y-120929597D01*
G75*
G02*
X260153403Y-119884666I1122334J-77403D01*
G01*
X260153403Y-119884666D01*
G75*
G02*
X261198334Y-121084403I-77403J-1122334D01*
G01*
X261158334Y-121664403D01*
G75*
G02*
X259958597Y-122709334I-1122334J77403D01*
G01*
G37*
%TD.AperFunction*%
D16*
X54811200Y-154662000D03*
D13*
X55936200Y-154662000D03*
X59086200Y-154662000D03*
D16*
X60211200Y-154662000D03*
D14*
X53611200Y-154662000D03*
D15*
X61411200Y-154662000D03*
D16*
X35761200Y-116562000D03*
D13*
X36886200Y-116562000D03*
X40036200Y-116562000D03*
D16*
X41161200Y-116562000D03*
D14*
X34561200Y-116562000D03*
D15*
X42361200Y-116562000D03*
D11*
X350286000Y-122087000D03*
%TA.AperFunction,ComponentPad*%
G36*
G01*
X348224688Y-124384350D02*
X348224683Y-124384345D01*
G75*
G02*
X348138655Y-122795683I751317J837345D01*
G01*
X349448657Y-121335683D01*
G75*
G02*
X351037319Y-121249655I837345J-751317D01*
G01*
X351037319Y-121249655D01*
G75*
G02*
X351123347Y-122838317I-751317J-837345D01*
G01*
X349813345Y-124298317D01*
G75*
G02*
X348224683Y-124384345I-837345J751317D01*
G01*
G37*
%TD.AperFunction*%
X355326000Y-121007000D03*
%TA.AperFunction,ComponentPad*%
G36*
G01*
X355209483Y-122709395D02*
X355208597Y-122709334D01*
G75*
G02*
X354163666Y-121509597I77403J1122334D01*
G01*
X354203666Y-120929597D01*
G75*
G02*
X355403403Y-119884666I1122334J-77403D01*
G01*
X355403403Y-119884666D01*
G75*
G02*
X356448334Y-121084403I-77403J-1122334D01*
G01*
X356408334Y-121664403D01*
G75*
G02*
X355208597Y-122709334I-1122334J77403D01*
G01*
G37*
%TD.AperFunction*%
D16*
X114299000Y-154662000D03*
D13*
X115424000Y-154662000D03*
X118574000Y-154662000D03*
D16*
X119699000Y-154662000D03*
D14*
X113099000Y-154662000D03*
D15*
X120899000Y-154662000D03*
D11*
X274086000Y-122087000D03*
%TA.AperFunction,ComponentPad*%
G36*
G01*
X272024688Y-124384350D02*
X272024683Y-124384345D01*
G75*
G02*
X271938655Y-122795683I751317J837345D01*
G01*
X273248657Y-121335683D01*
G75*
G02*
X274837319Y-121249655I837345J-751317D01*
G01*
X274837319Y-121249655D01*
G75*
G02*
X274923347Y-122838317I-751317J-837345D01*
G01*
X273613345Y-124298317D01*
G75*
G02*
X272024683Y-124384345I-837345J751317D01*
G01*
G37*
%TD.AperFunction*%
X279126000Y-121007000D03*
%TA.AperFunction,ComponentPad*%
G36*
G01*
X279009483Y-122709395D02*
X279008597Y-122709334D01*
G75*
G02*
X277963666Y-121509597I77403J1122334D01*
G01*
X278003666Y-120929597D01*
G75*
G02*
X279203403Y-119884666I1122334J-77403D01*
G01*
X279203403Y-119884666D01*
G75*
G02*
X280248334Y-121084403I-77403J-1122334D01*
G01*
X280208334Y-121664403D01*
G75*
G02*
X279008597Y-122709334I-1122334J77403D01*
G01*
G37*
%TD.AperFunction*%
D16*
X259598000Y-135612000D03*
D13*
X260723000Y-135612000D03*
X263873000Y-135612000D03*
D16*
X264998000Y-135612000D03*
D14*
X258398000Y-135612000D03*
D15*
X266198000Y-135612000D03*
D12*
X314686000Y-109737000D03*
D13*
X314686000Y-108612000D03*
X314686000Y-105462000D03*
D12*
X314686000Y-104337000D03*
D14*
X314686000Y-110937000D03*
D15*
X314686000Y-103137000D03*
X313824000Y-154662000D03*
D14*
X306024000Y-154662000D03*
D16*
X312624000Y-154662000D03*
D13*
X311499000Y-154662000D03*
X308349000Y-154662000D03*
D16*
X307224000Y-154662000D03*
%TA.AperFunction,ComponentPad*%
G36*
G01*
X124228483Y-141759395D02*
X124227597Y-141759334D01*
G75*
G02*
X123182666Y-140559597I77403J1122334D01*
G01*
X123222666Y-139979597D01*
G75*
G02*
X124422403Y-138934666I1122334J-77403D01*
G01*
X124422403Y-138934666D01*
G75*
G02*
X125467334Y-140134403I-77403J-1122334D01*
G01*
X125427334Y-140714403D01*
G75*
G02*
X124227597Y-141759334I-1122334J77403D01*
G01*
G37*
%TD.AperFunction*%
D11*
X124345000Y-140057000D03*
%TA.AperFunction,ComponentPad*%
G36*
G01*
X117243688Y-143434350D02*
X117243683Y-143434345D01*
G75*
G02*
X117157655Y-141845683I751317J837345D01*
G01*
X118467657Y-140385683D01*
G75*
G02*
X120056319Y-140299655I837345J-751317D01*
G01*
X120056319Y-140299655D01*
G75*
G02*
X120142347Y-141888317I-751317J-837345D01*
G01*
X118832345Y-143348317D01*
G75*
G02*
X117243683Y-143434345I-837345J751317D01*
G01*
G37*
%TD.AperFunction*%
X119305000Y-141137000D03*
%TA.AperFunction,ComponentPad*%
G36*
G01*
X236147483Y-160809395D02*
X236146597Y-160809334D01*
G75*
G02*
X235101666Y-159609597I77403J1122334D01*
G01*
X235141666Y-159029597D01*
G75*
G02*
X236341403Y-157984666I1122334J-77403D01*
G01*
X236341403Y-157984666D01*
G75*
G02*
X237386334Y-159184403I-77403J-1122334D01*
G01*
X237346334Y-159764403D01*
G75*
G02*
X236146597Y-160809334I-1122334J77403D01*
G01*
G37*
%TD.AperFunction*%
X236264000Y-159107000D03*
%TA.AperFunction,ComponentPad*%
G36*
G01*
X229162688Y-162484350D02*
X229162683Y-162484345D01*
G75*
G02*
X229076655Y-160895683I751317J837345D01*
G01*
X230386657Y-159435683D01*
G75*
G02*
X231975319Y-159349655I837345J-751317D01*
G01*
X231975319Y-159349655D01*
G75*
G02*
X232061347Y-160938317I-751317J-837345D01*
G01*
X230751345Y-162398317D01*
G75*
G02*
X229162683Y-162484345I-837345J751317D01*
G01*
G37*
%TD.AperFunction*%
X231224000Y-160187000D03*
X145498000Y-141137000D03*
%TA.AperFunction,ComponentPad*%
G36*
G01*
X143436688Y-143434350D02*
X143436683Y-143434345D01*
G75*
G02*
X143350655Y-141845683I751317J837345D01*
G01*
X144660657Y-140385683D01*
G75*
G02*
X146249319Y-140299655I837345J-751317D01*
G01*
X146249319Y-140299655D01*
G75*
G02*
X146335347Y-141888317I-751317J-837345D01*
G01*
X145025345Y-143348317D01*
G75*
G02*
X143436683Y-143434345I-837345J751317D01*
G01*
G37*
%TD.AperFunction*%
X150538000Y-140057000D03*
%TA.AperFunction,ComponentPad*%
G36*
G01*
X150421483Y-141759395D02*
X150420597Y-141759334D01*
G75*
G02*
X149375666Y-140559597I77403J1122334D01*
G01*
X149415666Y-139979597D01*
G75*
G02*
X150615403Y-138934666I1122334J-77403D01*
G01*
X150615403Y-138934666D01*
G75*
G02*
X151660334Y-140134403I-77403J-1122334D01*
G01*
X151620334Y-140714403D01*
G75*
G02*
X150420597Y-141759334I-1122334J77403D01*
G01*
G37*
%TD.AperFunction*%
D15*
X388461000Y-131005800D03*
D14*
X388461000Y-138805800D03*
D12*
X388461000Y-132205800D03*
D13*
X388461000Y-133330800D03*
X388461000Y-136480800D03*
D12*
X388461000Y-137605800D03*
D16*
X211974000Y-154662000D03*
D13*
X213099000Y-154662000D03*
X216249000Y-154662000D03*
D16*
X217374000Y-154662000D03*
D14*
X210774000Y-154662000D03*
D15*
X218574000Y-154662000D03*
D16*
X192924000Y-154662000D03*
D13*
X194049000Y-154662000D03*
X197199000Y-154662000D03*
D16*
X198324000Y-154662000D03*
D14*
X191724000Y-154662000D03*
D15*
X199524000Y-154662000D03*
X361405000Y-135612000D03*
D14*
X353605000Y-135612000D03*
D16*
X360205000Y-135612000D03*
D13*
X359080000Y-135612000D03*
X355930000Y-135612000D03*
D16*
X354805000Y-135612000D03*
%TA.AperFunction,ComponentPad*%
G36*
G01*
X188521483Y-141759395D02*
X188520597Y-141759334D01*
G75*
G02*
X187475666Y-140559597I77403J1122334D01*
G01*
X187515666Y-139979597D01*
G75*
G02*
X188715403Y-138934666I1122334J-77403D01*
G01*
X188715403Y-138934666D01*
G75*
G02*
X189760334Y-140134403I-77403J-1122334D01*
G01*
X189720334Y-140714403D01*
G75*
G02*
X188520597Y-141759334I-1122334J77403D01*
G01*
G37*
%TD.AperFunction*%
D11*
X188638000Y-140057000D03*
%TA.AperFunction,ComponentPad*%
G36*
G01*
X181536688Y-143434350D02*
X181536683Y-143434345D01*
G75*
G02*
X181450655Y-141845683I751317J837345D01*
G01*
X182760657Y-140385683D01*
G75*
G02*
X184349319Y-140299655I837345J-751317D01*
G01*
X184349319Y-140299655D01*
G75*
G02*
X184435347Y-141888317I-751317J-837345D01*
G01*
X183125345Y-143348317D01*
G75*
G02*
X181536683Y-143434345I-837345J751317D01*
G01*
G37*
%TD.AperFunction*%
X183598000Y-141137000D03*
X138311000Y-179237000D03*
%TA.AperFunction,ComponentPad*%
G36*
G01*
X136249688Y-181534350D02*
X136249683Y-181534345D01*
G75*
G02*
X136163655Y-179945683I751317J837345D01*
G01*
X137473657Y-178485683D01*
G75*
G02*
X139062319Y-178399655I837345J-751317D01*
G01*
X139062319Y-178399655D01*
G75*
G02*
X139148347Y-179988317I-751317J-837345D01*
G01*
X137838345Y-181448317D01*
G75*
G02*
X136249683Y-181534345I-837345J751317D01*
G01*
G37*
%TD.AperFunction*%
X143351000Y-178157000D03*
%TA.AperFunction,ComponentPad*%
G36*
G01*
X143234483Y-179859395D02*
X143233597Y-179859334D01*
G75*
G02*
X142188666Y-178659597I77403J1122334D01*
G01*
X142228666Y-178079597D01*
G75*
G02*
X143428403Y-177034666I1122334J-77403D01*
G01*
X143428403Y-177034666D01*
G75*
G02*
X144473334Y-178234403I-77403J-1122334D01*
G01*
X144433334Y-178814403D01*
G75*
G02*
X143233597Y-179859334I-1122334J77403D01*
G01*
G37*
%TD.AperFunction*%
D16*
X35761200Y-135612000D03*
D13*
X36886200Y-135612000D03*
X40036200Y-135612000D03*
D16*
X41161200Y-135612000D03*
D14*
X34561200Y-135612000D03*
D15*
X42361200Y-135612000D03*
%TA.AperFunction,ComponentPad*%
G36*
G01*
X302821483Y-141759395D02*
X302820597Y-141759334D01*
G75*
G02*
X301775666Y-140559597I77403J1122334D01*
G01*
X301815666Y-139979597D01*
G75*
G02*
X303015403Y-138934666I1122334J-77403D01*
G01*
X303015403Y-138934666D01*
G75*
G02*
X304060334Y-140134403I-77403J-1122334D01*
G01*
X304020334Y-140714403D01*
G75*
G02*
X302820597Y-141759334I-1122334J77403D01*
G01*
G37*
%TD.AperFunction*%
D11*
X302938000Y-140057000D03*
%TA.AperFunction,ComponentPad*%
G36*
G01*
X295836688Y-143434350D02*
X295836683Y-143434345D01*
G75*
G02*
X295750655Y-141845683I751317J837345D01*
G01*
X297060657Y-140385683D01*
G75*
G02*
X298649319Y-140299655I837345J-751317D01*
G01*
X298649319Y-140299655D01*
G75*
G02*
X298735347Y-141888317I-751317J-837345D01*
G01*
X297425345Y-143348317D01*
G75*
G02*
X295836683Y-143434345I-837345J751317D01*
G01*
G37*
%TD.AperFunction*%
X297898000Y-141137000D03*
X114499000Y-179237000D03*
%TA.AperFunction,ComponentPad*%
G36*
G01*
X112437688Y-181534350D02*
X112437683Y-181534345D01*
G75*
G02*
X112351655Y-179945683I751317J837345D01*
G01*
X113661657Y-178485683D01*
G75*
G02*
X115250319Y-178399655I837345J-751317D01*
G01*
X115250319Y-178399655D01*
G75*
G02*
X115336347Y-179988317I-751317J-837345D01*
G01*
X114026345Y-181448317D01*
G75*
G02*
X112437683Y-181534345I-837345J751317D01*
G01*
G37*
%TD.AperFunction*%
X119539000Y-178157000D03*
%TA.AperFunction,ComponentPad*%
G36*
G01*
X119422483Y-179859395D02*
X119421597Y-179859334D01*
G75*
G02*
X118376666Y-178659597I77403J1122334D01*
G01*
X118416666Y-178079597D01*
G75*
G02*
X119616403Y-177034666I1122334J-77403D01*
G01*
X119616403Y-177034666D01*
G75*
G02*
X120661334Y-178234403I-77403J-1122334D01*
G01*
X120621334Y-178814403D01*
G75*
G02*
X119421597Y-179859334I-1122334J77403D01*
G01*
G37*
%TD.AperFunction*%
D16*
X269124000Y-154662000D03*
D13*
X270249000Y-154662000D03*
X273399000Y-154662000D03*
D16*
X274524000Y-154662000D03*
D14*
X267924000Y-154662000D03*
D15*
X275724000Y-154662000D03*
%TA.AperFunction,ComponentPad*%
G36*
G01*
X307584483Y-103659395D02*
X307583597Y-103659334D01*
G75*
G02*
X306538666Y-102459597I77403J1122334D01*
G01*
X306578666Y-101879597D01*
G75*
G02*
X307778403Y-100834666I1122334J-77403D01*
G01*
X307778403Y-100834666D01*
G75*
G02*
X308823334Y-102034403I-77403J-1122334D01*
G01*
X308783334Y-102614403D01*
G75*
G02*
X307583597Y-103659334I-1122334J77403D01*
G01*
G37*
%TD.AperFunction*%
D11*
X307701000Y-101957000D03*
%TA.AperFunction,ComponentPad*%
G36*
G01*
X300599688Y-105334350D02*
X300599683Y-105334345D01*
G75*
G02*
X300513655Y-103745683I751317J837345D01*
G01*
X301823657Y-102285683D01*
G75*
G02*
X303412319Y-102199655I837345J-751317D01*
G01*
X303412319Y-102199655D01*
G75*
G02*
X303498347Y-103788317I-751317J-837345D01*
G01*
X302188345Y-105248317D01*
G75*
G02*
X300599683Y-105334345I-837345J751317D01*
G01*
G37*
%TD.AperFunction*%
X302661000Y-103037000D03*
D16*
X283411000Y-97512000D03*
D13*
X284536000Y-97512000D03*
X287686000Y-97512000D03*
D16*
X288811000Y-97512000D03*
D14*
X282211000Y-97512000D03*
D15*
X290011000Y-97512000D03*
D16*
X326230000Y-154662000D03*
D13*
X327355000Y-154662000D03*
X330505000Y-154662000D03*
D16*
X331630000Y-154662000D03*
D14*
X325030000Y-154662000D03*
D15*
X332830000Y-154662000D03*
X375736000Y-97512000D03*
D14*
X367936000Y-97512000D03*
D16*
X374536000Y-97512000D03*
D13*
X373411000Y-97512000D03*
X370261000Y-97512000D03*
D16*
X369136000Y-97512000D03*
D15*
X61411200Y-135612000D03*
D14*
X53611200Y-135612000D03*
D16*
X60211200Y-135612000D03*
D13*
X59086200Y-135612000D03*
X55936200Y-135612000D03*
D16*
X54811200Y-135612000D03*
D15*
X251911000Y-97512000D03*
D14*
X244111000Y-97512000D03*
D16*
X250711000Y-97512000D03*
D13*
X249586000Y-97512000D03*
X246436000Y-97512000D03*
D16*
X245311000Y-97512000D03*
D11*
X91611200Y-138112000D03*
%TA.AperFunction,ComponentPad*%
G36*
G01*
X93908550Y-140173312D02*
X93908545Y-140173317D01*
G75*
G02*
X92319883Y-140259345I-837345J751317D01*
G01*
X90859883Y-138949343D01*
G75*
G02*
X90773855Y-137360681I751317J837345D01*
G01*
X90773855Y-137360681D01*
G75*
G02*
X92362517Y-137274653I837345J-751317D01*
G01*
X93822517Y-138584655D01*
G75*
G02*
X93908545Y-140173317I-751317J-837345D01*
G01*
G37*
%TD.AperFunction*%
X90531200Y-133072000D03*
%TA.AperFunction,ComponentPad*%
G36*
G01*
X92233595Y-133188517D02*
X92233534Y-133189403D01*
G75*
G02*
X91033797Y-134234334I-1122334J77403D01*
G01*
X90453797Y-134194334D01*
G75*
G02*
X89408866Y-132994597I77403J1122334D01*
G01*
X89408866Y-132994597D01*
G75*
G02*
X90608603Y-131949666I1122334J-77403D01*
G01*
X91188603Y-131989666D01*
G75*
G02*
X92233534Y-133189403I-77403J-1122334D01*
G01*
G37*
%TD.AperFunction*%
D15*
X142374000Y-154662000D03*
D14*
X134574000Y-154662000D03*
D16*
X141174000Y-154662000D03*
D13*
X140049000Y-154662000D03*
X136899000Y-154662000D03*
D16*
X135774000Y-154662000D03*
D15*
X337636000Y-116562000D03*
D14*
X329836000Y-116562000D03*
D16*
X336436000Y-116562000D03*
D13*
X335311000Y-116562000D03*
X332161000Y-116562000D03*
D16*
X331036000Y-116562000D03*
D15*
X61411200Y-116562000D03*
D14*
X53611200Y-116562000D03*
D16*
X60211200Y-116562000D03*
D13*
X59086200Y-116562000D03*
X55936200Y-116562000D03*
D16*
X54811200Y-116562000D03*
X361949000Y-153955800D03*
D13*
X363074000Y-153955800D03*
X366224000Y-153955800D03*
D16*
X367349000Y-153955800D03*
D14*
X360749000Y-153955800D03*
D15*
X368549000Y-153955800D03*
D11*
X321711000Y-103037000D03*
%TA.AperFunction,ComponentPad*%
G36*
G01*
X319649688Y-105334350D02*
X319649683Y-105334345D01*
G75*
G02*
X319563655Y-103745683I751317J837345D01*
G01*
X320873657Y-102285683D01*
G75*
G02*
X322462319Y-102199655I837345J-751317D01*
G01*
X322462319Y-102199655D01*
G75*
G02*
X322548347Y-103788317I-751317J-837345D01*
G01*
X321238345Y-105248317D01*
G75*
G02*
X319649683Y-105334345I-837345J751317D01*
G01*
G37*
%TD.AperFunction*%
X326751000Y-101957000D03*
%TA.AperFunction,ComponentPad*%
G36*
G01*
X326634483Y-103659395D02*
X326633597Y-103659334D01*
G75*
G02*
X325588666Y-102459597I77403J1122334D01*
G01*
X325628666Y-101879597D01*
G75*
G02*
X326828403Y-100834666I1122334J-77403D01*
G01*
X326828403Y-100834666D01*
G75*
G02*
X327873334Y-102034403I-77403J-1122334D01*
G01*
X327833334Y-102614403D01*
G75*
G02*
X326633597Y-103659334I-1122334J77403D01*
G01*
G37*
%TD.AperFunction*%
X35961200Y-141137000D03*
%TA.AperFunction,ComponentPad*%
G36*
G01*
X33899888Y-143434350D02*
X33899883Y-143434345D01*
G75*
G02*
X33813855Y-141845683I751317J837345D01*
G01*
X35123857Y-140385683D01*
G75*
G02*
X36712519Y-140299655I837345J-751317D01*
G01*
X36712519Y-140299655D01*
G75*
G02*
X36798547Y-141888317I-751317J-837345D01*
G01*
X35488545Y-143348317D01*
G75*
G02*
X33899883Y-143434345I-837345J751317D01*
G01*
G37*
%TD.AperFunction*%
X41001200Y-140057000D03*
%TA.AperFunction,ComponentPad*%
G36*
G01*
X40884683Y-141759395D02*
X40883797Y-141759334D01*
G75*
G02*
X39838866Y-140559597I77403J1122334D01*
G01*
X39878866Y-139979597D01*
G75*
G02*
X41078603Y-138934666I1122334J-77403D01*
G01*
X41078603Y-138934666D01*
G75*
G02*
X42123534Y-140134403I-77403J-1122334D01*
G01*
X42083534Y-140714403D01*
G75*
G02*
X40883797Y-141759334I-1122334J77403D01*
G01*
G37*
%TD.AperFunction*%
%TA.AperFunction,ComponentPad*%
G36*
G01*
X193284483Y-103659395D02*
X193283597Y-103659334D01*
G75*
G02*
X192238666Y-102459597I77403J1122334D01*
G01*
X192278666Y-101879597D01*
G75*
G02*
X193478403Y-100834666I1122334J-77403D01*
G01*
X193478403Y-100834666D01*
G75*
G02*
X194523334Y-102034403I-77403J-1122334D01*
G01*
X194483334Y-102614403D01*
G75*
G02*
X193283597Y-103659334I-1122334J77403D01*
G01*
G37*
%TD.AperFunction*%
X193401000Y-101957000D03*
%TA.AperFunction,ComponentPad*%
G36*
G01*
X186299688Y-105334350D02*
X186299683Y-105334345D01*
G75*
G02*
X186213655Y-103745683I751317J837345D01*
G01*
X187523657Y-102285683D01*
G75*
G02*
X189112319Y-102199655I837345J-751317D01*
G01*
X189112319Y-102199655D01*
G75*
G02*
X189198347Y-103788317I-751317J-837345D01*
G01*
X187888345Y-105248317D01*
G75*
G02*
X186299683Y-105334345I-837345J751317D01*
G01*
G37*
%TD.AperFunction*%
X188361000Y-103037000D03*
%TA.AperFunction,ComponentPad*%
G36*
G01*
X59934683Y-160809395D02*
X59933797Y-160809334D01*
G75*
G02*
X58888866Y-159609597I77403J1122334D01*
G01*
X58928866Y-159029597D01*
G75*
G02*
X60128603Y-157984666I1122334J-77403D01*
G01*
X60128603Y-157984666D01*
G75*
G02*
X61173534Y-159184403I-77403J-1122334D01*
G01*
X61133534Y-159764403D01*
G75*
G02*
X59933797Y-160809334I-1122334J77403D01*
G01*
G37*
%TD.AperFunction*%
X60051200Y-159107000D03*
%TA.AperFunction,ComponentPad*%
G36*
G01*
X52949888Y-162484350D02*
X52949883Y-162484345D01*
G75*
G02*
X52863855Y-160895683I751317J837345D01*
G01*
X54173857Y-159435683D01*
G75*
G02*
X55762519Y-159349655I837345J-751317D01*
G01*
X55762519Y-159349655D01*
G75*
G02*
X55848547Y-160938317I-751317J-837345D01*
G01*
X54538545Y-162398317D01*
G75*
G02*
X52949883Y-162484345I-837345J751317D01*
G01*
G37*
%TD.AperFunction*%
X55011200Y-160187000D03*
%TA.AperFunction,ComponentPad*%
G36*
G01*
X340921483Y-141759395D02*
X340920597Y-141759334D01*
G75*
G02*
X339875666Y-140559597I77403J1122334D01*
G01*
X339915666Y-139979597D01*
G75*
G02*
X341115403Y-138934666I1122334J-77403D01*
G01*
X341115403Y-138934666D01*
G75*
G02*
X342160334Y-140134403I-77403J-1122334D01*
G01*
X342120334Y-140714403D01*
G75*
G02*
X340920597Y-141759334I-1122334J77403D01*
G01*
G37*
%TD.AperFunction*%
X341038000Y-140057000D03*
%TA.AperFunction,ComponentPad*%
G36*
G01*
X333936688Y-143434350D02*
X333936683Y-143434345D01*
G75*
G02*
X333850655Y-141845683I751317J837345D01*
G01*
X335160657Y-140385683D01*
G75*
G02*
X336749319Y-140299655I837345J-751317D01*
G01*
X336749319Y-140299655D01*
G75*
G02*
X336835347Y-141888317I-751317J-837345D01*
G01*
X335525345Y-143348317D01*
G75*
G02*
X333936683Y-143434345I-837345J751317D01*
G01*
G37*
%TD.AperFunction*%
X335998000Y-141137000D03*
%TA.AperFunction,ComponentPad*%
G36*
G01*
X231384483Y-103659395D02*
X231383597Y-103659334D01*
G75*
G02*
X230338666Y-102459597I77403J1122334D01*
G01*
X230378666Y-101879597D01*
G75*
G02*
X231578403Y-100834666I1122334J-77403D01*
G01*
X231578403Y-100834666D01*
G75*
G02*
X232623334Y-102034403I-77403J-1122334D01*
G01*
X232583334Y-102614403D01*
G75*
G02*
X231383597Y-103659334I-1122334J77403D01*
G01*
G37*
%TD.AperFunction*%
X231501000Y-101957000D03*
%TA.AperFunction,ComponentPad*%
G36*
G01*
X224399688Y-105334350D02*
X224399683Y-105334345D01*
G75*
G02*
X224313655Y-103745683I751317J837345D01*
G01*
X225623657Y-102285683D01*
G75*
G02*
X227212319Y-102199655I837345J-751317D01*
G01*
X227212319Y-102199655D01*
G75*
G02*
X227298347Y-103788317I-751317J-837345D01*
G01*
X225988345Y-105248317D01*
G75*
G02*
X224399683Y-105334345I-837345J751317D01*
G01*
G37*
%TD.AperFunction*%
X226461000Y-103037000D03*
X283611000Y-103037000D03*
%TA.AperFunction,ComponentPad*%
G36*
G01*
X281549688Y-105334350D02*
X281549683Y-105334345D01*
G75*
G02*
X281463655Y-103745683I751317J837345D01*
G01*
X282773657Y-102285683D01*
G75*
G02*
X284362319Y-102199655I837345J-751317D01*
G01*
X284362319Y-102199655D01*
G75*
G02*
X284448347Y-103788317I-751317J-837345D01*
G01*
X283138345Y-105248317D01*
G75*
G02*
X281549683Y-105334345I-837345J751317D01*
G01*
G37*
%TD.AperFunction*%
X288651000Y-101957000D03*
%TA.AperFunction,ComponentPad*%
G36*
G01*
X288534483Y-103659395D02*
X288533597Y-103659334D01*
G75*
G02*
X287488666Y-102459597I77403J1122334D01*
G01*
X287528666Y-101879597D01*
G75*
G02*
X288728403Y-100834666I1122334J-77403D01*
G01*
X288728403Y-100834666D01*
G75*
G02*
X289773334Y-102034403I-77403J-1122334D01*
G01*
X289733334Y-102614403D01*
G75*
G02*
X288533597Y-103659334I-1122334J77403D01*
G01*
G37*
%TD.AperFunction*%
D15*
X125705000Y-135612000D03*
D14*
X117905000Y-135612000D03*
D16*
X124505000Y-135612000D03*
D13*
X123380000Y-135612000D03*
X120230000Y-135612000D03*
D16*
X119105000Y-135612000D03*
D11*
X207411000Y-103037000D03*
%TA.AperFunction,ComponentPad*%
G36*
G01*
X205349688Y-105334350D02*
X205349683Y-105334345D01*
G75*
G02*
X205263655Y-103745683I751317J837345D01*
G01*
X206573657Y-102285683D01*
G75*
G02*
X208162319Y-102199655I837345J-751317D01*
G01*
X208162319Y-102199655D01*
G75*
G02*
X208248347Y-103788317I-751317J-837345D01*
G01*
X206938345Y-105248317D01*
G75*
G02*
X205349683Y-105334345I-837345J751317D01*
G01*
G37*
%TD.AperFunction*%
X212451000Y-101957000D03*
%TA.AperFunction,ComponentPad*%
G36*
G01*
X212334483Y-103659395D02*
X212333597Y-103659334D01*
G75*
G02*
X211288666Y-102459597I77403J1122334D01*
G01*
X211328666Y-101879597D01*
G75*
G02*
X212528403Y-100834666I1122334J-77403D01*
G01*
X212528403Y-100834666D01*
G75*
G02*
X213573334Y-102034403I-77403J-1122334D01*
G01*
X213533334Y-102614403D01*
G75*
G02*
X212333597Y-103659334I-1122334J77403D01*
G01*
G37*
%TD.AperFunction*%
%TA.AperFunction,ComponentPad*%
G36*
G01*
X217097483Y-160809395D02*
X217096597Y-160809334D01*
G75*
G02*
X216051666Y-159609597I77403J1122334D01*
G01*
X216091666Y-159029597D01*
G75*
G02*
X217291403Y-157984666I1122334J-77403D01*
G01*
X217291403Y-157984666D01*
G75*
G02*
X218336334Y-159184403I-77403J-1122334D01*
G01*
X218296334Y-159764403D01*
G75*
G02*
X217096597Y-160809334I-1122334J77403D01*
G01*
G37*
%TD.AperFunction*%
X217214000Y-159107000D03*
%TA.AperFunction,ComponentPad*%
G36*
G01*
X210112688Y-162484350D02*
X210112683Y-162484345D01*
G75*
G02*
X210026655Y-160895683I751317J837345D01*
G01*
X211336657Y-159435683D01*
G75*
G02*
X212925319Y-159349655I837345J-751317D01*
G01*
X212925319Y-159349655D01*
G75*
G02*
X213011347Y-160938317I-751317J-837345D01*
G01*
X211701345Y-162398317D01*
G75*
G02*
X210112683Y-162484345I-837345J751317D01*
G01*
G37*
%TD.AperFunction*%
X212174000Y-160187000D03*
%TA.AperFunction,ComponentPad*%
G36*
G01*
X178997483Y-160809395D02*
X178996597Y-160809334D01*
G75*
G02*
X177951666Y-159609597I77403J1122334D01*
G01*
X177991666Y-159029597D01*
G75*
G02*
X179191403Y-157984666I1122334J-77403D01*
G01*
X179191403Y-157984666D01*
G75*
G02*
X180236334Y-159184403I-77403J-1122334D01*
G01*
X180196334Y-159764403D01*
G75*
G02*
X178996597Y-160809334I-1122334J77403D01*
G01*
G37*
%TD.AperFunction*%
X179114000Y-159107000D03*
%TA.AperFunction,ComponentPad*%
G36*
G01*
X172012688Y-162484350D02*
X172012683Y-162484345D01*
G75*
G02*
X171926655Y-160895683I751317J837345D01*
G01*
X173236657Y-159435683D01*
G75*
G02*
X174825319Y-159349655I837345J-751317D01*
G01*
X174825319Y-159349655D01*
G75*
G02*
X174911347Y-160938317I-751317J-837345D01*
G01*
X173601345Y-162398317D01*
G75*
G02*
X172012683Y-162484345I-837345J751317D01*
G01*
G37*
%TD.AperFunction*%
X174074000Y-160187000D03*
%TA.AperFunction,ComponentPad*%
G36*
G01*
X140897483Y-160809395D02*
X140896597Y-160809334D01*
G75*
G02*
X139851666Y-159609597I77403J1122334D01*
G01*
X139891666Y-159029597D01*
G75*
G02*
X141091403Y-157984666I1122334J-77403D01*
G01*
X141091403Y-157984666D01*
G75*
G02*
X142136334Y-159184403I-77403J-1122334D01*
G01*
X142096334Y-159764403D01*
G75*
G02*
X140896597Y-160809334I-1122334J77403D01*
G01*
G37*
%TD.AperFunction*%
X141014000Y-159107000D03*
%TA.AperFunction,ComponentPad*%
G36*
G01*
X133912688Y-162484350D02*
X133912683Y-162484345D01*
G75*
G02*
X133826655Y-160895683I751317J837345D01*
G01*
X135136657Y-159435683D01*
G75*
G02*
X136725319Y-159349655I837345J-751317D01*
G01*
X136725319Y-159349655D01*
G75*
G02*
X136811347Y-160938317I-751317J-837345D01*
G01*
X135501345Y-162398317D01*
G75*
G02*
X133912683Y-162484345I-837345J751317D01*
G01*
G37*
%TD.AperFunction*%
X135974000Y-160187000D03*
%TA.AperFunction,ComponentPad*%
G36*
G01*
X59934683Y-141759395D02*
X59933797Y-141759334D01*
G75*
G02*
X58888866Y-140559597I77403J1122334D01*
G01*
X58928866Y-139979597D01*
G75*
G02*
X60128603Y-138934666I1122334J-77403D01*
G01*
X60128603Y-138934666D01*
G75*
G02*
X61173534Y-140134403I-77403J-1122334D01*
G01*
X61133534Y-140714403D01*
G75*
G02*
X59933797Y-141759334I-1122334J77403D01*
G01*
G37*
%TD.AperFunction*%
X60051200Y-140057000D03*
%TA.AperFunction,ComponentPad*%
G36*
G01*
X52949888Y-143434350D02*
X52949883Y-143434345D01*
G75*
G02*
X52863855Y-141845683I751317J837345D01*
G01*
X54173857Y-140385683D01*
G75*
G02*
X55762519Y-140299655I837345J-751317D01*
G01*
X55762519Y-140299655D01*
G75*
G02*
X55848547Y-141888317I-751317J-837345D01*
G01*
X54538545Y-143348317D01*
G75*
G02*
X52949883Y-143434345I-837345J751317D01*
G01*
G37*
%TD.AperFunction*%
X55011200Y-141137000D03*
D15*
X86086200Y-169812000D03*
D14*
X86086200Y-177612000D03*
D12*
X86086200Y-171012000D03*
D13*
X86086200Y-172137000D03*
X86086200Y-175287000D03*
D12*
X86086200Y-176412000D03*
D11*
X74061200Y-160187000D03*
%TA.AperFunction,ComponentPad*%
G36*
G01*
X71999888Y-162484350D02*
X71999883Y-162484345D01*
G75*
G02*
X71913855Y-160895683I751317J837345D01*
G01*
X73223857Y-159435683D01*
G75*
G02*
X74812519Y-159349655I837345J-751317D01*
G01*
X74812519Y-159349655D01*
G75*
G02*
X74898547Y-160938317I-751317J-837345D01*
G01*
X73588545Y-162398317D01*
G75*
G02*
X71999883Y-162484345I-837345J751317D01*
G01*
G37*
%TD.AperFunction*%
X79101200Y-159107000D03*
%TA.AperFunction,ComponentPad*%
G36*
G01*
X78984683Y-160809395D02*
X78983797Y-160809334D01*
G75*
G02*
X77938866Y-159609597I77403J1122334D01*
G01*
X77978866Y-159029597D01*
G75*
G02*
X79178603Y-157984666I1122334J-77403D01*
G01*
X79178603Y-157984666D01*
G75*
G02*
X80223534Y-159184403I-77403J-1122334D01*
G01*
X80183534Y-159764403D01*
G75*
G02*
X78983797Y-160809334I-1122334J77403D01*
G01*
G37*
%TD.AperFunction*%
X316948000Y-141137000D03*
%TA.AperFunction,ComponentPad*%
G36*
G01*
X314886688Y-143434350D02*
X314886683Y-143434345D01*
G75*
G02*
X314800655Y-141845683I751317J837345D01*
G01*
X316110657Y-140385683D01*
G75*
G02*
X317699319Y-140299655I837345J-751317D01*
G01*
X317699319Y-140299655D01*
G75*
G02*
X317785347Y-141888317I-751317J-837345D01*
G01*
X316475345Y-143348317D01*
G75*
G02*
X314886683Y-143434345I-837345J751317D01*
G01*
G37*
%TD.AperFunction*%
X321988000Y-140057000D03*
%TA.AperFunction,ComponentPad*%
G36*
G01*
X321871483Y-141759395D02*
X321870597Y-141759334D01*
G75*
G02*
X320825666Y-140559597I77403J1122334D01*
G01*
X320865666Y-139979597D01*
G75*
G02*
X322065403Y-138934666I1122334J-77403D01*
G01*
X322065403Y-138934666D01*
G75*
G02*
X323110334Y-140134403I-77403J-1122334D01*
G01*
X323070334Y-140714403D01*
G75*
G02*
X321870597Y-141759334I-1122334J77403D01*
G01*
G37*
%TD.AperFunction*%
X91611200Y-176212000D03*
%TA.AperFunction,ComponentPad*%
G36*
G01*
X93908550Y-178273312D02*
X93908545Y-178273317D01*
G75*
G02*
X92319883Y-178359345I-837345J751317D01*
G01*
X90859883Y-177049343D01*
G75*
G02*
X90773855Y-175460681I751317J837345D01*
G01*
X90773855Y-175460681D01*
G75*
G02*
X92362517Y-175374653I837345J-751317D01*
G01*
X93822517Y-176684655D01*
G75*
G02*
X93908545Y-178273317I-751317J-837345D01*
G01*
G37*
%TD.AperFunction*%
X90531200Y-171172000D03*
%TA.AperFunction,ComponentPad*%
G36*
G01*
X92233595Y-171288517D02*
X92233534Y-171289403D01*
G75*
G02*
X91033797Y-172334334I-1122334J77403D01*
G01*
X90453797Y-172294334D01*
G75*
G02*
X89408866Y-171094597I77403J1122334D01*
G01*
X89408866Y-171094597D01*
G75*
G02*
X90608603Y-170049666I1122334J-77403D01*
G01*
X91188603Y-170089666D01*
G75*
G02*
X92233534Y-171289403I-77403J-1122334D01*
G01*
G37*
%TD.AperFunction*%
X74061200Y-141137000D03*
%TA.AperFunction,ComponentPad*%
G36*
G01*
X71999888Y-143434350D02*
X71999883Y-143434345D01*
G75*
G02*
X71913855Y-141845683I751317J837345D01*
G01*
X73223857Y-140385683D01*
G75*
G02*
X74812519Y-140299655I837345J-751317D01*
G01*
X74812519Y-140299655D01*
G75*
G02*
X74898547Y-141888317I-751317J-837345D01*
G01*
X73588545Y-143348317D01*
G75*
G02*
X71999883Y-143434345I-837345J751317D01*
G01*
G37*
%TD.AperFunction*%
X79101200Y-140057000D03*
%TA.AperFunction,ComponentPad*%
G36*
G01*
X78984683Y-141759395D02*
X78983797Y-141759334D01*
G75*
G02*
X77938866Y-140559597I77403J1122334D01*
G01*
X77978866Y-139979597D01*
G75*
G02*
X79178603Y-138934666I1122334J-77403D01*
G01*
X79178603Y-138934666D01*
G75*
G02*
X80223534Y-140134403I-77403J-1122334D01*
G01*
X80183534Y-140714403D01*
G75*
G02*
X78983797Y-141759334I-1122334J77403D01*
G01*
G37*
%TD.AperFunction*%
X245511000Y-103037000D03*
%TA.AperFunction,ComponentPad*%
G36*
G01*
X243449688Y-105334350D02*
X243449683Y-105334345D01*
G75*
G02*
X243363655Y-103745683I751317J837345D01*
G01*
X244673657Y-102285683D01*
G75*
G02*
X246262319Y-102199655I837345J-751317D01*
G01*
X246262319Y-102199655D01*
G75*
G02*
X246348347Y-103788317I-751317J-837345D01*
G01*
X245038345Y-105248317D01*
G75*
G02*
X243449683Y-105334345I-837345J751317D01*
G01*
G37*
%TD.AperFunction*%
X250551000Y-101957000D03*
%TA.AperFunction,ComponentPad*%
G36*
G01*
X250434483Y-103659395D02*
X250433597Y-103659334D01*
G75*
G02*
X249388666Y-102459597I77403J1122334D01*
G01*
X249428666Y-101879597D01*
G75*
G02*
X250628403Y-100834666I1122334J-77403D01*
G01*
X250628403Y-100834666D01*
G75*
G02*
X251673334Y-102034403I-77403J-1122334D01*
G01*
X251633334Y-102614403D01*
G75*
G02*
X250433597Y-103659334I-1122334J77403D01*
G01*
G37*
%TD.AperFunction*%
D16*
X116724000Y-116562000D03*
D13*
X117849000Y-116562000D03*
X120999000Y-116562000D03*
D16*
X122124000Y-116562000D03*
D14*
X115524000Y-116562000D03*
D15*
X123324000Y-116562000D03*
D11*
X193124000Y-160187000D03*
%TA.AperFunction,ComponentPad*%
G36*
G01*
X191062688Y-162484350D02*
X191062683Y-162484345D01*
G75*
G02*
X190976655Y-160895683I751317J837345D01*
G01*
X192286657Y-159435683D01*
G75*
G02*
X193875319Y-159349655I837345J-751317D01*
G01*
X193875319Y-159349655D01*
G75*
G02*
X193961347Y-160938317I-751317J-837345D01*
G01*
X192651345Y-162398317D01*
G75*
G02*
X191062683Y-162484345I-837345J751317D01*
G01*
G37*
%TD.AperFunction*%
X198164000Y-159107000D03*
%TA.AperFunction,ComponentPad*%
G36*
G01*
X198047483Y-160809395D02*
X198046597Y-160809334D01*
G75*
G02*
X197001666Y-159609597I77403J1122334D01*
G01*
X197041666Y-159029597D01*
G75*
G02*
X198241403Y-157984666I1122334J-77403D01*
G01*
X198241403Y-157984666D01*
G75*
G02*
X199286334Y-159184403I-77403J-1122334D01*
G01*
X199246334Y-159764403D01*
G75*
G02*
X198046597Y-160809334I-1122334J77403D01*
G01*
G37*
%TD.AperFunction*%
%TA.AperFunction,ComponentPad*%
G36*
G01*
X283771483Y-141759395D02*
X283770597Y-141759334D01*
G75*
G02*
X282725666Y-140559597I77403J1122334D01*
G01*
X282765666Y-139979597D01*
G75*
G02*
X283965403Y-138934666I1122334J-77403D01*
G01*
X283965403Y-138934666D01*
G75*
G02*
X285010334Y-140134403I-77403J-1122334D01*
G01*
X284970334Y-140714403D01*
G75*
G02*
X283770597Y-141759334I-1122334J77403D01*
G01*
G37*
%TD.AperFunction*%
X283888000Y-140057000D03*
%TA.AperFunction,ComponentPad*%
G36*
G01*
X276786688Y-143434350D02*
X276786683Y-143434345D01*
G75*
G02*
X276700655Y-141845683I751317J837345D01*
G01*
X278010657Y-140385683D01*
G75*
G02*
X279599319Y-140299655I837345J-751317D01*
G01*
X279599319Y-140299655D01*
G75*
G02*
X279685347Y-141888317I-751317J-837345D01*
G01*
X278375345Y-143348317D01*
G75*
G02*
X276786683Y-143434345I-837345J751317D01*
G01*
G37*
%TD.AperFunction*%
X278848000Y-141137000D03*
X35961200Y-160187000D03*
%TA.AperFunction,ComponentPad*%
G36*
G01*
X33899888Y-162484350D02*
X33899883Y-162484345D01*
G75*
G02*
X33813855Y-160895683I751317J837345D01*
G01*
X35123857Y-159435683D01*
G75*
G02*
X36712519Y-159349655I837345J-751317D01*
G01*
X36712519Y-159349655D01*
G75*
G02*
X36798547Y-160938317I-751317J-837345D01*
G01*
X35488545Y-162398317D01*
G75*
G02*
X33899883Y-162484345I-837345J751317D01*
G01*
G37*
%TD.AperFunction*%
X41001200Y-159107000D03*
%TA.AperFunction,ComponentPad*%
G36*
G01*
X40884683Y-160809395D02*
X40883797Y-160809334D01*
G75*
G02*
X39838866Y-159609597I77403J1122334D01*
G01*
X39878866Y-159029597D01*
G75*
G02*
X41078603Y-157984666I1122334J-77403D01*
G01*
X41078603Y-157984666D01*
G75*
G02*
X42123534Y-159184403I-77403J-1122334D01*
G01*
X42083534Y-159764403D01*
G75*
G02*
X40883797Y-160809334I-1122334J77403D01*
G01*
G37*
%TD.AperFunction*%
%TA.AperFunction,ComponentPad*%
G36*
G01*
X309966483Y-179859395D02*
X309965597Y-179859334D01*
G75*
G02*
X308920666Y-178659597I77403J1122334D01*
G01*
X308960666Y-178079597D01*
G75*
G02*
X310160403Y-177034666I1122334J-77403D01*
G01*
X310160403Y-177034666D01*
G75*
G02*
X311205334Y-178234403I-77403J-1122334D01*
G01*
X311165334Y-178814403D01*
G75*
G02*
X309965597Y-179859334I-1122334J77403D01*
G01*
G37*
%TD.AperFunction*%
X310083000Y-178157000D03*
%TA.AperFunction,ComponentPad*%
G36*
G01*
X302981688Y-181534350D02*
X302981683Y-181534345D01*
G75*
G02*
X302895655Y-179945683I751317J837345D01*
G01*
X304205657Y-178485683D01*
G75*
G02*
X305794319Y-178399655I837345J-751317D01*
G01*
X305794319Y-178399655D01*
G75*
G02*
X305880347Y-179988317I-751317J-837345D01*
G01*
X304570345Y-181448317D01*
G75*
G02*
X302981683Y-181534345I-837345J751317D01*
G01*
G37*
%TD.AperFunction*%
X305043000Y-179237000D03*
D16*
X340561000Y-97512000D03*
D13*
X341686000Y-97512000D03*
X344836000Y-97512000D03*
D16*
X345961000Y-97512000D03*
D14*
X339361000Y-97512000D03*
D15*
X347161000Y-97512000D03*
%TA.AperFunction,ComponentPad*%
G36*
G01*
X169471483Y-141759395D02*
X169470597Y-141759334D01*
G75*
G02*
X168425666Y-140559597I77403J1122334D01*
G01*
X168465666Y-139979597D01*
G75*
G02*
X169665403Y-138934666I1122334J-77403D01*
G01*
X169665403Y-138934666D01*
G75*
G02*
X170710334Y-140134403I-77403J-1122334D01*
G01*
X170670334Y-140714403D01*
G75*
G02*
X169470597Y-141759334I-1122334J77403D01*
G01*
G37*
%TD.AperFunction*%
D11*
X169588000Y-140057000D03*
%TA.AperFunction,ComponentPad*%
G36*
G01*
X162486688Y-143434350D02*
X162486683Y-143434345D01*
G75*
G02*
X162400655Y-141845683I751317J837345D01*
G01*
X163710657Y-140385683D01*
G75*
G02*
X165299319Y-140299655I837345J-751317D01*
G01*
X165299319Y-140299655D01*
G75*
G02*
X165385347Y-141888317I-751317J-837345D01*
G01*
X164075345Y-143348317D01*
G75*
G02*
X162486683Y-143434345I-837345J751317D01*
G01*
G37*
%TD.AperFunction*%
X164548000Y-141137000D03*
X55011200Y-122087000D03*
%TA.AperFunction,ComponentPad*%
G36*
G01*
X52949888Y-124384350D02*
X52949883Y-124384345D01*
G75*
G02*
X52863855Y-122795683I751317J837345D01*
G01*
X54173857Y-121335683D01*
G75*
G02*
X55762519Y-121249655I837345J-751317D01*
G01*
X55762519Y-121249655D01*
G75*
G02*
X55848547Y-122838317I-751317J-837345D01*
G01*
X54538545Y-124298317D01*
G75*
G02*
X52949883Y-124384345I-837345J751317D01*
G01*
G37*
%TD.AperFunction*%
X60051200Y-121007000D03*
%TA.AperFunction,ComponentPad*%
G36*
G01*
X59934683Y-122709395D02*
X59933797Y-122709334D01*
G75*
G02*
X58888866Y-121509597I77403J1122334D01*
G01*
X58928866Y-120929597D01*
G75*
G02*
X60128603Y-119884666I1122334J-77403D01*
G01*
X60128603Y-119884666D01*
G75*
G02*
X61173534Y-121084403I-77403J-1122334D01*
G01*
X61133534Y-121664403D01*
G75*
G02*
X59933797Y-122709334I-1122334J77403D01*
G01*
G37*
%TD.AperFunction*%
X202648000Y-141137000D03*
%TA.AperFunction,ComponentPad*%
G36*
G01*
X200586688Y-143434350D02*
X200586683Y-143434345D01*
G75*
G02*
X200500655Y-141845683I751317J837345D01*
G01*
X201810657Y-140385683D01*
G75*
G02*
X203399319Y-140299655I837345J-751317D01*
G01*
X203399319Y-140299655D01*
G75*
G02*
X203485347Y-141888317I-751317J-837345D01*
G01*
X202175345Y-143348317D01*
G75*
G02*
X200586683Y-143434345I-837345J751317D01*
G01*
G37*
%TD.AperFunction*%
X207688000Y-140057000D03*
%TA.AperFunction,ComponentPad*%
G36*
G01*
X207571483Y-141759395D02*
X207570597Y-141759334D01*
G75*
G02*
X206525666Y-140559597I77403J1122334D01*
G01*
X206565666Y-139979597D01*
G75*
G02*
X207765403Y-138934666I1122334J-77403D01*
G01*
X207765403Y-138934666D01*
G75*
G02*
X208810334Y-140134403I-77403J-1122334D01*
G01*
X208770334Y-140714403D01*
G75*
G02*
X207570597Y-141759334I-1122334J77403D01*
G01*
G37*
%TD.AperFunction*%
D15*
X299536000Y-116562000D03*
D14*
X291736000Y-116562000D03*
D16*
X298336000Y-116562000D03*
D13*
X297211000Y-116562000D03*
X294061000Y-116562000D03*
D16*
X292936000Y-116562000D03*
%TA.AperFunction,ComponentPad*%
G36*
G01*
X240909483Y-122709395D02*
X240908597Y-122709334D01*
G75*
G02*
X239863666Y-121509597I77403J1122334D01*
G01*
X239903666Y-120929597D01*
G75*
G02*
X241103403Y-119884666I1122334J-77403D01*
G01*
X241103403Y-119884666D01*
G75*
G02*
X242148334Y-121084403I-77403J-1122334D01*
G01*
X242108334Y-121664403D01*
G75*
G02*
X240908597Y-122709334I-1122334J77403D01*
G01*
G37*
%TD.AperFunction*%
D11*
X241026000Y-121007000D03*
%TA.AperFunction,ComponentPad*%
G36*
G01*
X233924688Y-124384350D02*
X233924683Y-124384345D01*
G75*
G02*
X233838655Y-122795683I751317J837345D01*
G01*
X235148657Y-121335683D01*
G75*
G02*
X236737319Y-121249655I837345J-751317D01*
G01*
X236737319Y-121249655D01*
G75*
G02*
X236823347Y-122838317I-751317J-837345D01*
G01*
X235513345Y-124298317D01*
G75*
G02*
X233924683Y-124384345I-837345J751317D01*
G01*
G37*
%TD.AperFunction*%
X235986000Y-122087000D03*
D16*
X273886000Y-116562000D03*
D13*
X275011000Y-116562000D03*
X278161000Y-116562000D03*
D16*
X279286000Y-116562000D03*
D14*
X272686000Y-116562000D03*
D15*
X280486000Y-116562000D03*
D16*
X188161000Y-97512000D03*
D13*
X189286000Y-97512000D03*
X192436000Y-97512000D03*
D16*
X193561000Y-97512000D03*
D14*
X186961000Y-97512000D03*
D15*
X194761000Y-97512000D03*
D11*
X74061200Y-122087000D03*
%TA.AperFunction,ComponentPad*%
G36*
G01*
X71999888Y-124384350D02*
X71999883Y-124384345D01*
G75*
G02*
X71913855Y-122795683I751317J837345D01*
G01*
X73223857Y-121335683D01*
G75*
G02*
X74812519Y-121249655I837345J-751317D01*
G01*
X74812519Y-121249655D01*
G75*
G02*
X74898547Y-122838317I-751317J-837345D01*
G01*
X73588545Y-124298317D01*
G75*
G02*
X71999883Y-124384345I-837345J751317D01*
G01*
G37*
%TD.AperFunction*%
X79101200Y-121007000D03*
%TA.AperFunction,ComponentPad*%
G36*
G01*
X78984683Y-122709395D02*
X78983797Y-122709334D01*
G75*
G02*
X77938866Y-121509597I77403J1122334D01*
G01*
X77978866Y-120929597D01*
G75*
G02*
X79178603Y-119884666I1122334J-77403D01*
G01*
X79178603Y-119884666D01*
G75*
G02*
X80223534Y-121084403I-77403J-1122334D01*
G01*
X80183534Y-121664403D01*
G75*
G02*
X78983797Y-122709334I-1122334J77403D01*
G01*
G37*
%TD.AperFunction*%
D15*
X256674000Y-154662000D03*
D14*
X248874000Y-154662000D03*
D16*
X255474000Y-154662000D03*
D13*
X254349000Y-154662000D03*
X251199000Y-154662000D03*
D16*
X250074000Y-154662000D03*
D15*
X168524000Y-173712000D03*
D14*
X160724000Y-173712000D03*
D16*
X167324000Y-173712000D03*
D13*
X166199000Y-173712000D03*
X163049000Y-173712000D03*
D16*
X161924000Y-173712000D03*
%TA.AperFunction,ComponentPad*%
G36*
G01*
X78984683Y-103659395D02*
X78983797Y-103659334D01*
G75*
G02*
X77938866Y-102459597I77403J1122334D01*
G01*
X77978866Y-101879597D01*
G75*
G02*
X79178603Y-100834666I1122334J-77403D01*
G01*
X79178603Y-100834666D01*
G75*
G02*
X80223534Y-102034403I-77403J-1122334D01*
G01*
X80183534Y-102614403D01*
G75*
G02*
X78983797Y-103659334I-1122334J77403D01*
G01*
G37*
%TD.AperFunction*%
D11*
X79101200Y-101957000D03*
%TA.AperFunction,ComponentPad*%
G36*
G01*
X71999888Y-105334350D02*
X71999883Y-105334345D01*
G75*
G02*
X71913855Y-103745683I751317J837345D01*
G01*
X73223857Y-102285683D01*
G75*
G02*
X74812519Y-102199655I837345J-751317D01*
G01*
X74812519Y-102199655D01*
G75*
G02*
X74898547Y-103788317I-751317J-837345D01*
G01*
X73588545Y-105248317D01*
G75*
G02*
X71999883Y-105334345I-837345J751317D01*
G01*
G37*
%TD.AperFunction*%
X74061200Y-103037000D03*
D15*
X311399000Y-173712000D03*
D14*
X303599000Y-173712000D03*
D16*
X310199000Y-173712000D03*
D13*
X309074000Y-173712000D03*
X305924000Y-173712000D03*
D16*
X304799000Y-173712000D03*
X297698000Y-135612000D03*
D13*
X298823000Y-135612000D03*
X301973000Y-135612000D03*
D16*
X303098000Y-135612000D03*
D14*
X296498000Y-135612000D03*
D15*
X304298000Y-135612000D03*
D11*
X93111200Y-103037000D03*
%TA.AperFunction,ComponentPad*%
G36*
G01*
X91049888Y-105334350D02*
X91049883Y-105334345D01*
G75*
G02*
X90963855Y-103745683I751317J837345D01*
G01*
X92273857Y-102285683D01*
G75*
G02*
X93862519Y-102199655I837345J-751317D01*
G01*
X93862519Y-102199655D01*
G75*
G02*
X93948547Y-103788317I-751317J-837345D01*
G01*
X92638545Y-105248317D01*
G75*
G02*
X91049883Y-105334345I-837345J751317D01*
G01*
G37*
%TD.AperFunction*%
X98151200Y-101957000D03*
%TA.AperFunction,ComponentPad*%
G36*
G01*
X98034683Y-103659395D02*
X98033797Y-103659334D01*
G75*
G02*
X96988866Y-102459597I77403J1122334D01*
G01*
X97028866Y-101879597D01*
G75*
G02*
X98228603Y-100834666I1122334J-77403D01*
G01*
X98228603Y-100834666D01*
G75*
G02*
X99273534Y-102034403I-77403J-1122334D01*
G01*
X99233534Y-102614403D01*
G75*
G02*
X98033797Y-103659334I-1122334J77403D01*
G01*
G37*
%TD.AperFunction*%
X55011200Y-103037000D03*
%TA.AperFunction,ComponentPad*%
G36*
G01*
X52949888Y-105334350D02*
X52949883Y-105334345D01*
G75*
G02*
X52863855Y-103745683I751317J837345D01*
G01*
X54173857Y-102285683D01*
G75*
G02*
X55762519Y-102199655I837345J-751317D01*
G01*
X55762519Y-102199655D01*
G75*
G02*
X55848547Y-103788317I-751317J-837345D01*
G01*
X54538545Y-105248317D01*
G75*
G02*
X52949883Y-105334345I-837345J751317D01*
G01*
G37*
%TD.AperFunction*%
X60051200Y-101957000D03*
%TA.AperFunction,ComponentPad*%
G36*
G01*
X59934683Y-103659395D02*
X59933797Y-103659334D01*
G75*
G02*
X58888866Y-102459597I77403J1122334D01*
G01*
X58928866Y-101879597D01*
G75*
G02*
X60128603Y-100834666I1122334J-77403D01*
G01*
X60128603Y-100834666D01*
G75*
G02*
X61173534Y-102034403I-77403J-1122334D01*
G01*
X61133534Y-102614403D01*
G75*
G02*
X59933797Y-103659334I-1122334J77403D01*
G01*
G37*
%TD.AperFunction*%
D16*
X45242500Y-173712000D03*
D13*
X46367500Y-173712000D03*
X49517500Y-173712000D03*
D16*
X50642500Y-173712000D03*
D14*
X44042500Y-173712000D03*
D15*
X51842500Y-173712000D03*
%TA.AperFunction,ComponentPad*%
G36*
G01*
X155184483Y-103659395D02*
X155183597Y-103659334D01*
G75*
G02*
X154138666Y-102459597I77403J1122334D01*
G01*
X154178666Y-101879597D01*
G75*
G02*
X155378403Y-100834666I1122334J-77403D01*
G01*
X155378403Y-100834666D01*
G75*
G02*
X156423334Y-102034403I-77403J-1122334D01*
G01*
X156383334Y-102614403D01*
G75*
G02*
X155183597Y-103659334I-1122334J77403D01*
G01*
G37*
%TD.AperFunction*%
D11*
X155301000Y-101957000D03*
%TA.AperFunction,ComponentPad*%
G36*
G01*
X148199688Y-105334350D02*
X148199683Y-105334345D01*
G75*
G02*
X148113655Y-103745683I751317J837345D01*
G01*
X149423657Y-102285683D01*
G75*
G02*
X151012319Y-102199655I837345J-751317D01*
G01*
X151012319Y-102199655D01*
G75*
G02*
X151098347Y-103788317I-751317J-837345D01*
G01*
X149788345Y-105248317D01*
G75*
G02*
X148199683Y-105334345I-837345J751317D01*
G01*
G37*
%TD.AperFunction*%
X150261000Y-103037000D03*
%TA.AperFunction,ComponentPad*%
G36*
G01*
X121847483Y-122709395D02*
X121846597Y-122709334D01*
G75*
G02*
X120801666Y-121509597I77403J1122334D01*
G01*
X120841666Y-120929597D01*
G75*
G02*
X122041403Y-119884666I1122334J-77403D01*
G01*
X122041403Y-119884666D01*
G75*
G02*
X123086334Y-121084403I-77403J-1122334D01*
G01*
X123046334Y-121664403D01*
G75*
G02*
X121846597Y-122709334I-1122334J77403D01*
G01*
G37*
%TD.AperFunction*%
X121964000Y-121007000D03*
%TA.AperFunction,ComponentPad*%
G36*
G01*
X114862688Y-124384350D02*
X114862683Y-124384345D01*
G75*
G02*
X114776655Y-122795683I751317J837345D01*
G01*
X116086657Y-121335683D01*
G75*
G02*
X117675319Y-121249655I837345J-751317D01*
G01*
X117675319Y-121249655D01*
G75*
G02*
X117761347Y-122838317I-751317J-837345D01*
G01*
X116451345Y-124298317D01*
G75*
G02*
X114862683Y-124384345I-837345J751317D01*
G01*
G37*
%TD.AperFunction*%
X116924000Y-122087000D03*
D15*
X239961000Y-173712000D03*
D14*
X232161000Y-173712000D03*
D16*
X238761000Y-173712000D03*
D13*
X237636000Y-173712000D03*
X234486000Y-173712000D03*
D16*
X233361000Y-173712000D03*
D11*
X288374000Y-160187000D03*
%TA.AperFunction,ComponentPad*%
G36*
G01*
X286312688Y-162484350D02*
X286312683Y-162484345D01*
G75*
G02*
X286226655Y-160895683I751317J837345D01*
G01*
X287536657Y-159435683D01*
G75*
G02*
X289125319Y-159349655I837345J-751317D01*
G01*
X289125319Y-159349655D01*
G75*
G02*
X289211347Y-160938317I-751317J-837345D01*
G01*
X287901345Y-162398317D01*
G75*
G02*
X286312683Y-162484345I-837345J751317D01*
G01*
G37*
%TD.AperFunction*%
X293414000Y-159107000D03*
%TA.AperFunction,ComponentPad*%
G36*
G01*
X293297483Y-160809395D02*
X293296597Y-160809334D01*
G75*
G02*
X292251666Y-159609597I77403J1122334D01*
G01*
X292291666Y-159029597D01*
G75*
G02*
X293491403Y-157984666I1122334J-77403D01*
G01*
X293491403Y-157984666D01*
G75*
G02*
X294536334Y-159184403I-77403J-1122334D01*
G01*
X294496334Y-159764403D01*
G75*
G02*
X293296597Y-160809334I-1122334J77403D01*
G01*
G37*
%TD.AperFunction*%
D15*
X175711000Y-97512000D03*
D14*
X167911000Y-97512000D03*
D16*
X174511000Y-97512000D03*
D13*
X173386000Y-97512000D03*
X170236000Y-97512000D03*
D16*
X169111000Y-97512000D03*
X216736000Y-116562000D03*
D13*
X217861000Y-116562000D03*
X221011000Y-116562000D03*
D16*
X222136000Y-116562000D03*
D14*
X215536000Y-116562000D03*
D15*
X223336000Y-116562000D03*
D16*
X264361000Y-97512000D03*
D13*
X265486000Y-97512000D03*
X268636000Y-97512000D03*
D16*
X269761000Y-97512000D03*
D14*
X263161000Y-97512000D03*
D15*
X270961000Y-97512000D03*
%TA.AperFunction,ComponentPad*%
G36*
G01*
X269484483Y-103659395D02*
X269483597Y-103659334D01*
G75*
G02*
X268438666Y-102459597I77403J1122334D01*
G01*
X268478666Y-101879597D01*
G75*
G02*
X269678403Y-100834666I1122334J-77403D01*
G01*
X269678403Y-100834666D01*
G75*
G02*
X270723334Y-102034403I-77403J-1122334D01*
G01*
X270683334Y-102614403D01*
G75*
G02*
X269483597Y-103659334I-1122334J77403D01*
G01*
G37*
%TD.AperFunction*%
D11*
X269601000Y-101957000D03*
%TA.AperFunction,ComponentPad*%
G36*
G01*
X262499688Y-105334350D02*
X262499683Y-105334345D01*
G75*
G02*
X262413655Y-103745683I751317J837345D01*
G01*
X263723657Y-102285683D01*
G75*
G02*
X265312319Y-102199655I837345J-751317D01*
G01*
X265312319Y-102199655D01*
G75*
G02*
X265398347Y-103788317I-751317J-837345D01*
G01*
X264088345Y-105248317D01*
G75*
G02*
X262499683Y-105334345I-837345J751317D01*
G01*
G37*
%TD.AperFunction*%
X264561000Y-103037000D03*
D16*
X288174000Y-154662000D03*
D13*
X289299000Y-154662000D03*
X292449000Y-154662000D03*
D16*
X293574000Y-154662000D03*
D14*
X286974000Y-154662000D03*
D15*
X294774000Y-154662000D03*
X137611000Y-97512000D03*
D14*
X129811000Y-97512000D03*
D16*
X136411000Y-97512000D03*
D13*
X135286000Y-97512000D03*
X132136000Y-97512000D03*
D16*
X131011000Y-97512000D03*
D15*
X209048000Y-135612000D03*
D14*
X201248000Y-135612000D03*
D16*
X207848000Y-135612000D03*
D13*
X206723000Y-135612000D03*
X203573000Y-135612000D03*
D16*
X202448000Y-135612000D03*
%TA.AperFunction,ComponentPad*%
G36*
G01*
X298059483Y-122709395D02*
X298058597Y-122709334D01*
G75*
G02*
X297013666Y-121509597I77403J1122334D01*
G01*
X297053666Y-120929597D01*
G75*
G02*
X298253403Y-119884666I1122334J-77403D01*
G01*
X298253403Y-119884666D01*
G75*
G02*
X299298334Y-121084403I-77403J-1122334D01*
G01*
X299258334Y-121664403D01*
G75*
G02*
X298058597Y-122709334I-1122334J77403D01*
G01*
G37*
%TD.AperFunction*%
D11*
X298176000Y-121007000D03*
%TA.AperFunction,ComponentPad*%
G36*
G01*
X291074688Y-124384350D02*
X291074683Y-124384345D01*
G75*
G02*
X290988655Y-122795683I751317J837345D01*
G01*
X292298657Y-121335683D01*
G75*
G02*
X293887319Y-121249655I837345J-751317D01*
G01*
X293887319Y-121249655D01*
G75*
G02*
X293973347Y-122838317I-751317J-837345D01*
G01*
X292663345Y-124298317D01*
G75*
G02*
X291074683Y-124384345I-837345J751317D01*
G01*
G37*
%TD.AperFunction*%
X293136000Y-122087000D03*
X221698000Y-141137000D03*
%TA.AperFunction,ComponentPad*%
G36*
G01*
X219636688Y-143434350D02*
X219636683Y-143434345D01*
G75*
G02*
X219550655Y-141845683I751317J837345D01*
G01*
X220860657Y-140385683D01*
G75*
G02*
X222449319Y-140299655I837345J-751317D01*
G01*
X222449319Y-140299655D01*
G75*
G02*
X222535347Y-141888317I-751317J-837345D01*
G01*
X221225345Y-143348317D01*
G75*
G02*
X219636683Y-143434345I-837345J751317D01*
G01*
G37*
%TD.AperFunction*%
X226738000Y-140057000D03*
%TA.AperFunction,ComponentPad*%
G36*
G01*
X226621483Y-141759395D02*
X226620597Y-141759334D01*
G75*
G02*
X225575666Y-140559597I77403J1122334D01*
G01*
X225615666Y-139979597D01*
G75*
G02*
X226815403Y-138934666I1122334J-77403D01*
G01*
X226815403Y-138934666D01*
G75*
G02*
X227860334Y-140134403I-77403J-1122334D01*
G01*
X227820334Y-140714403D01*
G75*
G02*
X226620597Y-141759334I-1122334J77403D01*
G01*
G37*
%TD.AperFunction*%
D15*
X247148000Y-135612000D03*
D14*
X239348000Y-135612000D03*
D16*
X245948000Y-135612000D03*
D13*
X244823000Y-135612000D03*
X241673000Y-135612000D03*
D16*
X240548000Y-135612000D03*
D11*
X352667000Y-179237000D03*
%TA.AperFunction,ComponentPad*%
G36*
G01*
X350605688Y-181534350D02*
X350605683Y-181534345D01*
G75*
G02*
X350519655Y-179945683I751317J837345D01*
G01*
X351829657Y-178485683D01*
G75*
G02*
X353418319Y-178399655I837345J-751317D01*
G01*
X353418319Y-178399655D01*
G75*
G02*
X353504347Y-179988317I-751317J-837345D01*
G01*
X352194345Y-181448317D01*
G75*
G02*
X350605683Y-181534345I-837345J751317D01*
G01*
G37*
%TD.AperFunction*%
X357707000Y-178157000D03*
%TA.AperFunction,ComponentPad*%
G36*
G01*
X357590483Y-179859395D02*
X357589597Y-179859334D01*
G75*
G02*
X356544666Y-178659597I77403J1122334D01*
G01*
X356584666Y-178079597D01*
G75*
G02*
X357784403Y-177034666I1122334J-77403D01*
G01*
X357784403Y-177034666D01*
G75*
G02*
X358829334Y-178234403I-77403J-1122334D01*
G01*
X358789334Y-178814403D01*
G75*
G02*
X357589597Y-179859334I-1122334J77403D01*
G01*
G37*
%TD.AperFunction*%
X331236000Y-122087000D03*
%TA.AperFunction,ComponentPad*%
G36*
G01*
X329174688Y-124384350D02*
X329174683Y-124384345D01*
G75*
G02*
X329088655Y-122795683I751317J837345D01*
G01*
X330398657Y-121335683D01*
G75*
G02*
X331987319Y-121249655I837345J-751317D01*
G01*
X331987319Y-121249655D01*
G75*
G02*
X332073347Y-122838317I-751317J-837345D01*
G01*
X330763345Y-124298317D01*
G75*
G02*
X329174683Y-124384345I-837345J751317D01*
G01*
G37*
%TD.AperFunction*%
X336276000Y-121007000D03*
%TA.AperFunction,ComponentPad*%
G36*
G01*
X336159483Y-122709395D02*
X336158597Y-122709334D01*
G75*
G02*
X335113666Y-121509597I77403J1122334D01*
G01*
X335153666Y-120929597D01*
G75*
G02*
X336353403Y-119884666I1122334J-77403D01*
G01*
X336353403Y-119884666D01*
G75*
G02*
X337398334Y-121084403I-77403J-1122334D01*
G01*
X337358334Y-121664403D01*
G75*
G02*
X336158597Y-122709334I-1122334J77403D01*
G01*
G37*
%TD.AperFunction*%
X340761000Y-103037000D03*
%TA.AperFunction,ComponentPad*%
G36*
G01*
X338699688Y-105334350D02*
X338699683Y-105334345D01*
G75*
G02*
X338613655Y-103745683I751317J837345D01*
G01*
X339923657Y-102285683D01*
G75*
G02*
X341512319Y-102199655I837345J-751317D01*
G01*
X341512319Y-102199655D01*
G75*
G02*
X341598347Y-103788317I-751317J-837345D01*
G01*
X340288345Y-105248317D01*
G75*
G02*
X338699683Y-105334345I-837345J751317D01*
G01*
G37*
%TD.AperFunction*%
X345801000Y-101957000D03*
%TA.AperFunction,ComponentPad*%
G36*
G01*
X345684483Y-103659395D02*
X345683597Y-103659334D01*
G75*
G02*
X344638666Y-102459597I77403J1122334D01*
G01*
X344678666Y-101879597D01*
G75*
G02*
X345878403Y-100834666I1122334J-77403D01*
G01*
X345878403Y-100834666D01*
G75*
G02*
X346923334Y-102034403I-77403J-1122334D01*
G01*
X346883334Y-102614403D01*
G75*
G02*
X345683597Y-103659334I-1122334J77403D01*
G01*
G37*
%TD.AperFunction*%
X259798000Y-141137000D03*
%TA.AperFunction,ComponentPad*%
G36*
G01*
X257736688Y-143434350D02*
X257736683Y-143434345D01*
G75*
G02*
X257650655Y-141845683I751317J837345D01*
G01*
X258960657Y-140385683D01*
G75*
G02*
X260549319Y-140299655I837345J-751317D01*
G01*
X260549319Y-140299655D01*
G75*
G02*
X260635347Y-141888317I-751317J-837345D01*
G01*
X259325345Y-143348317D01*
G75*
G02*
X257736683Y-143434345I-837345J751317D01*
G01*
G37*
%TD.AperFunction*%
X264838000Y-140057000D03*
%TA.AperFunction,ComponentPad*%
G36*
G01*
X264721483Y-141759395D02*
X264720597Y-141759334D01*
G75*
G02*
X263675666Y-140559597I77403J1122334D01*
G01*
X263715666Y-139979597D01*
G75*
G02*
X264915403Y-138934666I1122334J-77403D01*
G01*
X264915403Y-138934666D01*
G75*
G02*
X265960334Y-140134403I-77403J-1122334D01*
G01*
X265920334Y-140714403D01*
G75*
G02*
X264720597Y-141759334I-1122334J77403D01*
G01*
G37*
%TD.AperFunction*%
%TA.AperFunction,ComponentPad*%
G36*
G01*
X317109483Y-122709395D02*
X317108597Y-122709334D01*
G75*
G02*
X316063666Y-121509597I77403J1122334D01*
G01*
X316103666Y-120929597D01*
G75*
G02*
X317303403Y-119884666I1122334J-77403D01*
G01*
X317303403Y-119884666D01*
G75*
G02*
X318348334Y-121084403I-77403J-1122334D01*
G01*
X318308334Y-121664403D01*
G75*
G02*
X317108597Y-122709334I-1122334J77403D01*
G01*
G37*
%TD.AperFunction*%
X317226000Y-121007000D03*
%TA.AperFunction,ComponentPad*%
G36*
G01*
X310124688Y-124384350D02*
X310124683Y-124384345D01*
G75*
G02*
X310038655Y-122795683I751317J837345D01*
G01*
X311348657Y-121335683D01*
G75*
G02*
X312937319Y-121249655I837345J-751317D01*
G01*
X312937319Y-121249655D01*
G75*
G02*
X313023347Y-122838317I-751317J-837345D01*
G01*
X311713345Y-124298317D01*
G75*
G02*
X310124683Y-124384345I-837345J751317D01*
G01*
G37*
%TD.AperFunction*%
X312186000Y-122087000D03*
%TA.AperFunction,ComponentPad*%
G36*
G01*
X374259483Y-103659395D02*
X374258597Y-103659334D01*
G75*
G02*
X373213666Y-102459597I77403J1122334D01*
G01*
X373253666Y-101879597D01*
G75*
G02*
X374453403Y-100834666I1122334J-77403D01*
G01*
X374453403Y-100834666D01*
G75*
G02*
X375498334Y-102034403I-77403J-1122334D01*
G01*
X375458334Y-102614403D01*
G75*
G02*
X374258597Y-103659334I-1122334J77403D01*
G01*
G37*
%TD.AperFunction*%
X374376000Y-101957000D03*
%TA.AperFunction,ComponentPad*%
G36*
G01*
X367274688Y-105334350D02*
X367274683Y-105334345D01*
G75*
G02*
X367188655Y-103745683I751317J837345D01*
G01*
X368498657Y-102285683D01*
G75*
G02*
X370087319Y-102199655I837345J-751317D01*
G01*
X370087319Y-102199655D01*
G75*
G02*
X370173347Y-103788317I-751317J-837345D01*
G01*
X368863345Y-105248317D01*
G75*
G02*
X367274683Y-105334345I-837345J751317D01*
G01*
G37*
%TD.AperFunction*%
X369336000Y-103037000D03*
D16*
X335798000Y-135612000D03*
D13*
X336923000Y-135612000D03*
X340073000Y-135612000D03*
D16*
X341198000Y-135612000D03*
D14*
X334598000Y-135612000D03*
D15*
X342398000Y-135612000D03*
D16*
X226261000Y-97512000D03*
D13*
X227386000Y-97512000D03*
X230536000Y-97512000D03*
D16*
X231661000Y-97512000D03*
D14*
X225061000Y-97512000D03*
D15*
X232861000Y-97512000D03*
X237624000Y-154662000D03*
D14*
X229824000Y-154662000D03*
D16*
X236424000Y-154662000D03*
D13*
X235299000Y-154662000D03*
X232149000Y-154662000D03*
D16*
X231024000Y-154662000D03*
X235786000Y-116562000D03*
D13*
X236911000Y-116562000D03*
X240061000Y-116562000D03*
D16*
X241186000Y-116562000D03*
D14*
X234586000Y-116562000D03*
D15*
X242386000Y-116562000D03*
D16*
X73861200Y-154662000D03*
D13*
X74986200Y-154662000D03*
X78136200Y-154662000D03*
D16*
X79261200Y-154662000D03*
D14*
X72661200Y-154662000D03*
D15*
X80461200Y-154662000D03*
D12*
X124186000Y-109737000D03*
D13*
X124186000Y-108612000D03*
X124186000Y-105462000D03*
D12*
X124186000Y-104337000D03*
D14*
X124186000Y-110937000D03*
D15*
X124186000Y-103137000D03*
D16*
X183398000Y-135612000D03*
D13*
X184523000Y-135612000D03*
X187673000Y-135612000D03*
D16*
X188798000Y-135612000D03*
D14*
X182198000Y-135612000D03*
D15*
X189998000Y-135612000D03*
D16*
X143858000Y-173712000D03*
D13*
X144983000Y-173712000D03*
X148133000Y-173712000D03*
D16*
X149258000Y-173712000D03*
D14*
X142658000Y-173712000D03*
D15*
X150458000Y-173712000D03*
D16*
X311986000Y-116562000D03*
D13*
X313111000Y-116562000D03*
X316261000Y-116562000D03*
D16*
X317386000Y-116562000D03*
D14*
X310786000Y-116562000D03*
D15*
X318586000Y-116562000D03*
X261436000Y-116562000D03*
D14*
X253636000Y-116562000D03*
D16*
X260236000Y-116562000D03*
D13*
X259111000Y-116562000D03*
X255961000Y-116562000D03*
D16*
X254836000Y-116562000D03*
%TA.AperFunction,ComponentPad*%
G36*
G01*
X40884683Y-122709395D02*
X40883797Y-122709334D01*
G75*
G02*
X39838866Y-121509597I77403J1122334D01*
G01*
X39878866Y-120929597D01*
G75*
G02*
X41078603Y-119884666I1122334J-77403D01*
G01*
X41078603Y-119884666D01*
G75*
G02*
X42123534Y-121084403I-77403J-1122334D01*
G01*
X42083534Y-121664403D01*
G75*
G02*
X40883797Y-122709334I-1122334J77403D01*
G01*
G37*
%TD.AperFunction*%
D11*
X41001200Y-121007000D03*
%TA.AperFunction,ComponentPad*%
G36*
G01*
X33899888Y-124384350D02*
X33899883Y-124384345D01*
G75*
G02*
X33813855Y-122795683I751317J837345D01*
G01*
X35123857Y-121335683D01*
G75*
G02*
X36712519Y-121249655I837345J-751317D01*
G01*
X36712519Y-121249655D01*
G75*
G02*
X36798547Y-122838317I-751317J-837345D01*
G01*
X35488545Y-124298317D01*
G75*
G02*
X33899883Y-124384345I-837345J751317D01*
G01*
G37*
%TD.AperFunction*%
X35961200Y-122087000D03*
D16*
X347705000Y-116562000D03*
D13*
X348830000Y-116562000D03*
X351980000Y-116562000D03*
D16*
X353105000Y-116562000D03*
D14*
X346505000Y-116562000D03*
D15*
X354305000Y-116562000D03*
D11*
X140736000Y-122087000D03*
%TA.AperFunction,ComponentPad*%
G36*
G01*
X138674688Y-124384350D02*
X138674683Y-124384345D01*
G75*
G02*
X138588655Y-122795683I751317J837345D01*
G01*
X139898657Y-121335683D01*
G75*
G02*
X141487319Y-121249655I837345J-751317D01*
G01*
X141487319Y-121249655D01*
G75*
G02*
X141573347Y-122838317I-751317J-837345D01*
G01*
X140263345Y-124298317D01*
G75*
G02*
X138674683Y-124384345I-837345J751317D01*
G01*
G37*
%TD.AperFunction*%
X145776000Y-121007000D03*
%TA.AperFunction,ComponentPad*%
G36*
G01*
X145659483Y-122709395D02*
X145658597Y-122709334D01*
G75*
G02*
X144613666Y-121509597I77403J1122334D01*
G01*
X144653666Y-120929597D01*
G75*
G02*
X145853403Y-119884666I1122334J-77403D01*
G01*
X145853403Y-119884666D01*
G75*
G02*
X146898334Y-121084403I-77403J-1122334D01*
G01*
X146858334Y-121664403D01*
G75*
G02*
X145658597Y-122709334I-1122334J77403D01*
G01*
G37*
%TD.AperFunction*%
D15*
X147136000Y-116562000D03*
D14*
X139336000Y-116562000D03*
D16*
X145936000Y-116562000D03*
D13*
X144811000Y-116562000D03*
X141661000Y-116562000D03*
D16*
X140536000Y-116562000D03*
D15*
X161424000Y-154662000D03*
D14*
X153624000Y-154662000D03*
D16*
X160224000Y-154662000D03*
D13*
X159099000Y-154662000D03*
X155949000Y-154662000D03*
D16*
X154824000Y-154662000D03*
X145298000Y-135612000D03*
D13*
X146423000Y-135612000D03*
X149573000Y-135612000D03*
D16*
X150698000Y-135612000D03*
D14*
X144098000Y-135612000D03*
D15*
X151898000Y-135612000D03*
D16*
X35761200Y-97512000D03*
D13*
X36886200Y-97512000D03*
X40036200Y-97512000D03*
D16*
X41161200Y-97512000D03*
D14*
X34561200Y-97512000D03*
D15*
X42361200Y-97512000D03*
X204286000Y-116562000D03*
D14*
X196486000Y-116562000D03*
D16*
X203086000Y-116562000D03*
D13*
X201961000Y-116562000D03*
X198811000Y-116562000D03*
D16*
X197686000Y-116562000D03*
%TA.AperFunction,ComponentPad*%
G36*
G01*
X40884683Y-103659395D02*
X40883797Y-103659334D01*
G75*
G02*
X39838866Y-102459597I77403J1122334D01*
G01*
X39878866Y-101879597D01*
G75*
G02*
X41078603Y-100834666I1122334J-77403D01*
G01*
X41078603Y-100834666D01*
G75*
G02*
X42123534Y-102034403I-77403J-1122334D01*
G01*
X42083534Y-102614403D01*
G75*
G02*
X40883797Y-103659334I-1122334J77403D01*
G01*
G37*
%TD.AperFunction*%
D11*
X41001200Y-101957000D03*
%TA.AperFunction,ComponentPad*%
G36*
G01*
X33899888Y-105334350D02*
X33899883Y-105334345D01*
G75*
G02*
X33813855Y-103745683I751317J837345D01*
G01*
X35123857Y-102285683D01*
G75*
G02*
X36712519Y-102199655I837345J-751317D01*
G01*
X36712519Y-102199655D01*
G75*
G02*
X36798547Y-103788317I-751317J-837345D01*
G01*
X35488545Y-105248317D01*
G75*
G02*
X33899883Y-105334345I-837345J751317D01*
G01*
G37*
%TD.AperFunction*%
X35961200Y-103037000D03*
D12*
X388461000Y-185230800D03*
D13*
X388461000Y-184105800D03*
X388461000Y-180955800D03*
D12*
X388461000Y-179830800D03*
D14*
X388461000Y-186430800D03*
D15*
X388461000Y-178630800D03*
D11*
X355005000Y-141137000D03*
%TA.AperFunction,ComponentPad*%
G36*
G01*
X352943688Y-143434350D02*
X352943683Y-143434345D01*
G75*
G02*
X352857655Y-141845683I751317J837345D01*
G01*
X354167657Y-140385683D01*
G75*
G02*
X355756319Y-140299655I837345J-751317D01*
G01*
X355756319Y-140299655D01*
G75*
G02*
X355842347Y-141888317I-751317J-837345D01*
G01*
X354532345Y-143348317D01*
G75*
G02*
X352943683Y-143434345I-837345J751317D01*
G01*
G37*
%TD.AperFunction*%
X360045000Y-140057000D03*
%TA.AperFunction,ComponentPad*%
G36*
G01*
X359928483Y-141759395D02*
X359927597Y-141759334D01*
G75*
G02*
X358882666Y-140559597I77403J1122334D01*
G01*
X358922666Y-139979597D01*
G75*
G02*
X360122403Y-138934666I1122334J-77403D01*
G01*
X360122403Y-138934666D01*
G75*
G02*
X361167334Y-140134403I-77403J-1122334D01*
G01*
X361127334Y-140714403D01*
G75*
G02*
X359927597Y-141759334I-1122334J77403D01*
G01*
G37*
%TD.AperFunction*%
%TA.AperFunction,ComponentPad*%
G36*
G01*
X119422483Y-160809395D02*
X119421597Y-160809334D01*
G75*
G02*
X118376666Y-159609597I77403J1122334D01*
G01*
X118416666Y-159029597D01*
G75*
G02*
X119616403Y-157984666I1122334J-77403D01*
G01*
X119616403Y-157984666D01*
G75*
G02*
X120661334Y-159184403I-77403J-1122334D01*
G01*
X120621334Y-159764403D01*
G75*
G02*
X119421597Y-160809334I-1122334J77403D01*
G01*
G37*
%TD.AperFunction*%
X119539000Y-159107000D03*
%TA.AperFunction,ComponentPad*%
G36*
G01*
X112437688Y-162484350D02*
X112437683Y-162484345D01*
G75*
G02*
X112351655Y-160895683I751317J837345D01*
G01*
X113661657Y-159435683D01*
G75*
G02*
X115250319Y-159349655I837345J-751317D01*
G01*
X115250319Y-159349655D01*
G75*
G02*
X115336347Y-160938317I-751317J-837345D01*
G01*
X114026345Y-162398317D01*
G75*
G02*
X112437683Y-162484345I-837345J751317D01*
G01*
G37*
%TD.AperFunction*%
X114499000Y-160187000D03*
%TA.AperFunction,ComponentPad*%
G36*
G01*
X331353483Y-160809395D02*
X331352597Y-160809334D01*
G75*
G02*
X330307666Y-159609597I77403J1122334D01*
G01*
X330347666Y-159029597D01*
G75*
G02*
X331547403Y-157984666I1122334J-77403D01*
G01*
X331547403Y-157984666D01*
G75*
G02*
X332592334Y-159184403I-77403J-1122334D01*
G01*
X332552334Y-159764403D01*
G75*
G02*
X331352597Y-160809334I-1122334J77403D01*
G01*
G37*
%TD.AperFunction*%
X331470000Y-159107000D03*
%TA.AperFunction,ComponentPad*%
G36*
G01*
X324368688Y-162484350D02*
X324368683Y-162484345D01*
G75*
G02*
X324282655Y-160895683I751317J837345D01*
G01*
X325592657Y-159435683D01*
G75*
G02*
X327181319Y-159349655I837345J-751317D01*
G01*
X327181319Y-159349655D01*
G75*
G02*
X327267347Y-160938317I-751317J-837345D01*
G01*
X325957345Y-162398317D01*
G75*
G02*
X324368683Y-162484345I-837345J751317D01*
G01*
G37*
%TD.AperFunction*%
X326430000Y-160187000D03*
%TA.AperFunction,ComponentPad*%
G36*
G01*
X367078483Y-160809395D02*
X367077597Y-160809334D01*
G75*
G02*
X366032666Y-159609597I77403J1122334D01*
G01*
X366072666Y-159029597D01*
G75*
G02*
X367272403Y-157984666I1122334J-77403D01*
G01*
X367272403Y-157984666D01*
G75*
G02*
X368317334Y-159184403I-77403J-1122334D01*
G01*
X368277334Y-159764403D01*
G75*
G02*
X367077597Y-160809334I-1122334J77403D01*
G01*
G37*
%TD.AperFunction*%
X367195000Y-159107000D03*
%TA.AperFunction,ComponentPad*%
G36*
G01*
X360093688Y-162484350D02*
X360093683Y-162484345D01*
G75*
G02*
X360007655Y-160895683I751317J837345D01*
G01*
X361317657Y-159435683D01*
G75*
G02*
X362906319Y-159349655I837345J-751317D01*
G01*
X362906319Y-159349655D01*
G75*
G02*
X362992347Y-160938317I-751317J-837345D01*
G01*
X361682345Y-162398317D01*
G75*
G02*
X360093683Y-162484345I-837345J751317D01*
G01*
G37*
%TD.AperFunction*%
X362155000Y-160187000D03*
%TA.AperFunction,ComponentPad*%
G36*
G01*
X50365983Y-179859395D02*
X50365097Y-179859334D01*
G75*
G02*
X49320166Y-178659597I77403J1122334D01*
G01*
X49360166Y-178079597D01*
G75*
G02*
X50559903Y-177034666I1122334J-77403D01*
G01*
X50559903Y-177034666D01*
G75*
G02*
X51604834Y-178234403I-77403J-1122334D01*
G01*
X51564834Y-178814403D01*
G75*
G02*
X50365097Y-179859334I-1122334J77403D01*
G01*
G37*
%TD.AperFunction*%
X50482500Y-178157000D03*
%TA.AperFunction,ComponentPad*%
G36*
G01*
X43381188Y-181534350D02*
X43381183Y-181534345D01*
G75*
G02*
X43295155Y-179945683I751317J837345D01*
G01*
X44605157Y-178485683D01*
G75*
G02*
X46193819Y-178399655I837345J-751317D01*
G01*
X46193819Y-178399655D01*
G75*
G02*
X46279847Y-179988317I-751317J-837345D01*
G01*
X44969845Y-181448317D01*
G75*
G02*
X43381183Y-181534345I-837345J751317D01*
G01*
G37*
%TD.AperFunction*%
X45442500Y-179237000D03*
%TA.AperFunction,ComponentPad*%
G36*
G01*
X78940983Y-179859395D02*
X78940097Y-179859334D01*
G75*
G02*
X77895166Y-178659597I77403J1122334D01*
G01*
X77935166Y-178079597D01*
G75*
G02*
X79134903Y-177034666I1122334J-77403D01*
G01*
X79134903Y-177034666D01*
G75*
G02*
X80179834Y-178234403I-77403J-1122334D01*
G01*
X80139834Y-178814403D01*
G75*
G02*
X78940097Y-179859334I-1122334J77403D01*
G01*
G37*
%TD.AperFunction*%
X79057500Y-178157000D03*
%TA.AperFunction,ComponentPad*%
G36*
G01*
X71956188Y-181534350D02*
X71956183Y-181534345D01*
G75*
G02*
X71870155Y-179945683I751317J837345D01*
G01*
X73180157Y-178485683D01*
G75*
G02*
X74768819Y-178399655I837345J-751317D01*
G01*
X74768819Y-178399655D01*
G75*
G02*
X74854847Y-179988317I-751317J-837345D01*
G01*
X73544845Y-181448317D01*
G75*
G02*
X71956183Y-181534345I-837345J751317D01*
G01*
G37*
%TD.AperFunction*%
X74017500Y-179237000D03*
%TA.AperFunction,ComponentPad*%
G36*
G01*
X167047483Y-179859395D02*
X167046597Y-179859334D01*
G75*
G02*
X166001666Y-178659597I77403J1122334D01*
G01*
X166041666Y-178079597D01*
G75*
G02*
X167241403Y-177034666I1122334J-77403D01*
G01*
X167241403Y-177034666D01*
G75*
G02*
X168286334Y-178234403I-77403J-1122334D01*
G01*
X168246334Y-178814403D01*
G75*
G02*
X167046597Y-179859334I-1122334J77403D01*
G01*
G37*
%TD.AperFunction*%
X167164000Y-178157000D03*
%TA.AperFunction,ComponentPad*%
G36*
G01*
X160062688Y-181534350D02*
X160062683Y-181534345D01*
G75*
G02*
X159976655Y-179945683I751317J837345D01*
G01*
X161286657Y-178485683D01*
G75*
G02*
X162875319Y-178399655I837345J-751317D01*
G01*
X162875319Y-178399655D01*
G75*
G02*
X162961347Y-179988317I-751317J-837345D01*
G01*
X161651345Y-181448317D01*
G75*
G02*
X160062683Y-181534345I-837345J751317D01*
G01*
G37*
%TD.AperFunction*%
X162124000Y-179237000D03*
%TA.AperFunction,ComponentPad*%
G36*
G01*
X238488483Y-179859395D02*
X238487597Y-179859334D01*
G75*
G02*
X237442666Y-178659597I77403J1122334D01*
G01*
X237482666Y-178079597D01*
G75*
G02*
X238682403Y-177034666I1122334J-77403D01*
G01*
X238682403Y-177034666D01*
G75*
G02*
X239727334Y-178234403I-77403J-1122334D01*
G01*
X239687334Y-178814403D01*
G75*
G02*
X238487597Y-179859334I-1122334J77403D01*
G01*
G37*
%TD.AperFunction*%
X238605000Y-178157000D03*
%TA.AperFunction,ComponentPad*%
G36*
G01*
X231503688Y-181534350D02*
X231503683Y-181534345D01*
G75*
G02*
X231417655Y-179945683I751317J837345D01*
G01*
X232727657Y-178485683D01*
G75*
G02*
X234316319Y-178399655I837345J-751317D01*
G01*
X234316319Y-178399655D01*
G75*
G02*
X234402347Y-179988317I-751317J-837345D01*
G01*
X233092345Y-181448317D01*
G75*
G02*
X231503683Y-181534345I-837345J751317D01*
G01*
G37*
%TD.AperFunction*%
X233565000Y-179237000D03*
X376445000Y-179237000D03*
%TA.AperFunction,ComponentPad*%
G36*
G01*
X374383688Y-181534350D02*
X374383683Y-181534345D01*
G75*
G02*
X374297655Y-179945683I751317J837345D01*
G01*
X375607657Y-178485683D01*
G75*
G02*
X377196319Y-178399655I837345J-751317D01*
G01*
X377196319Y-178399655D01*
G75*
G02*
X377282347Y-179988317I-751317J-837345D01*
G01*
X375972345Y-181448317D01*
G75*
G02*
X374383683Y-181534345I-837345J751317D01*
G01*
G37*
%TD.AperFunction*%
X381485000Y-178157000D03*
%TA.AperFunction,ComponentPad*%
G36*
G01*
X381368483Y-179859395D02*
X381367597Y-179859334D01*
G75*
G02*
X380322666Y-178659597I77403J1122334D01*
G01*
X380362666Y-178079597D01*
G75*
G02*
X381562403Y-177034666I1122334J-77403D01*
G01*
X381562403Y-177034666D01*
G75*
G02*
X382607334Y-178234403I-77403J-1122334D01*
G01*
X382567334Y-178814403D01*
G75*
G02*
X381367597Y-179859334I-1122334J77403D01*
G01*
G37*
%TD.AperFunction*%
D17*
X364998000Y-153797000D02*
X364998000Y-153924000D01*
X114299000Y-173712000D02*
X113099000Y-173712000D01*
X115424000Y-173712000D02*
X114299000Y-173712000D01*
X138111000Y-173712000D02*
X139236000Y-173712000D01*
X138111000Y-173712000D02*
X136911000Y-173712000D01*
X148861000Y-97512000D02*
X147735700Y-97512000D01*
X132136000Y-97512000D02*
X133061300Y-97512000D01*
X133061300Y-97512000D02*
X134186600Y-98637300D01*
X134186600Y-98637300D02*
X146610400Y-98637300D01*
X146610400Y-98637300D02*
X147735700Y-97512000D01*
X131011000Y-97512000D02*
X132136000Y-97512000D01*
X72661200Y-97512000D02*
X71535900Y-97512000D01*
X71535900Y-97512000D02*
X68803300Y-94779400D01*
X68803300Y-94779400D02*
X65187500Y-94779400D01*
X72661200Y-97512000D02*
X73861200Y-97512000D01*
X55936200Y-97512000D02*
X56861500Y-97512000D01*
X65187500Y-94779400D02*
X59594100Y-94779400D01*
X59594100Y-94779400D02*
X56861500Y-97512000D01*
X74986200Y-97512000D02*
X75911500Y-97512000D01*
X91711200Y-97512000D02*
X90585900Y-97512000D01*
X90585900Y-97512000D02*
X89460600Y-98637300D01*
X89460600Y-98637300D02*
X77036800Y-98637300D01*
X77036800Y-98637300D02*
X75911500Y-97512000D01*
X92911200Y-97512000D02*
X91711200Y-97512000D01*
X186961000Y-97512000D02*
X185835700Y-97512000D01*
X170236000Y-97512000D02*
X171161300Y-97512000D01*
X171161300Y-97512000D02*
X172286600Y-98637300D01*
X172286600Y-98637300D02*
X184710400Y-98637300D01*
X184710400Y-98637300D02*
X185835700Y-97512000D01*
X169111000Y-97512000D02*
X170236000Y-97512000D01*
X167911000Y-97512000D02*
X166785700Y-97512000D01*
X151186000Y-97512000D02*
X152111300Y-97512000D01*
X152111300Y-97512000D02*
X153236600Y-98637300D01*
X153236600Y-98637300D02*
X165660400Y-98637300D01*
X165660400Y-98637300D02*
X166785700Y-97512000D01*
X150061000Y-97512000D02*
X151186000Y-97512000D01*
X148861000Y-97512000D02*
X150061000Y-97512000D01*
X74986200Y-97512000D02*
X73861200Y-97512000D01*
X189286000Y-97512000D02*
X188161000Y-97512000D01*
X186961000Y-97512000D02*
X188161000Y-97512000D01*
X124186000Y-108612000D02*
X124186000Y-109737000D01*
X124186000Y-110937000D02*
X124186000Y-109737000D01*
X53611200Y-97512000D02*
X52485900Y-97512000D01*
X36886200Y-97512000D02*
X37811500Y-97512000D01*
X37811500Y-97512000D02*
X38936800Y-98637300D01*
X38936800Y-98637300D02*
X51360600Y-98637300D01*
X51360600Y-98637300D02*
X52485900Y-97512000D01*
X35761200Y-97512000D02*
X36886200Y-97512000D01*
X34561200Y-97512000D02*
X35761200Y-97512000D01*
X54811200Y-97512000D02*
X55936200Y-97512000D01*
X54811200Y-97512000D02*
X53611200Y-97512000D01*
X94036200Y-97512000D02*
X92911200Y-97512000D01*
X169111000Y-97512000D02*
X167911000Y-97512000D01*
X131011000Y-97512000D02*
X129811000Y-97512000D01*
X41161200Y-97512000D02*
X40036200Y-97512000D01*
X42361200Y-97512000D02*
X41161200Y-97512000D01*
X60211200Y-97512000D02*
X61411200Y-97512000D01*
X59086200Y-97512000D02*
X60211200Y-97512000D01*
X79261200Y-97512000D02*
X78136200Y-97512000D01*
X80461200Y-97512000D02*
X79261200Y-97512000D01*
X98311200Y-97512000D02*
X99511200Y-97512000D01*
X97186200Y-97512000D02*
X98311200Y-97512000D01*
X124186000Y-103137000D02*
X124186000Y-104337000D01*
X124186000Y-104337000D02*
X124186000Y-105462000D01*
X136411000Y-97512000D02*
X137611000Y-97512000D01*
X135286000Y-97512000D02*
X136411000Y-97512000D01*
X155461000Y-97512000D02*
X154336000Y-97512000D01*
X156661000Y-97512000D02*
X155461000Y-97512000D01*
X174511000Y-97512000D02*
X175711000Y-97512000D01*
X173386000Y-97512000D02*
X174511000Y-97512000D01*
X193561000Y-97512000D02*
X192436000Y-97512000D01*
X194761000Y-97512000D02*
X193561000Y-97512000D01*
X212411000Y-102537000D02*
X212451000Y-102497000D01*
X212451000Y-102497000D02*
X212451000Y-101957000D01*
X219436000Y-104337000D02*
X219436000Y-103137000D01*
X219436000Y-105462000D02*
X219436000Y-104337000D01*
X218296400Y-99087700D02*
X218296400Y-106547100D01*
X218296400Y-106547100D02*
X219436000Y-107686700D01*
X223935700Y-97512000D02*
X222360000Y-99087700D01*
X222360000Y-99087700D02*
X218296400Y-99087700D01*
X65187500Y-97319400D02*
X66955800Y-99087700D01*
X66955800Y-99087700D02*
X218296400Y-99087700D01*
X310640400Y-105491600D02*
X313760700Y-108612000D01*
X285461300Y-97512000D02*
X288185400Y-100236100D01*
X288185400Y-100236100D02*
X302973400Y-100236100D01*
X302973400Y-100236100D02*
X307456200Y-104718900D01*
X307456200Y-104718900D02*
X309867600Y-104718900D01*
X309867600Y-104718900D02*
X310640400Y-105491600D01*
X310640400Y-105491600D02*
X318620000Y-97512000D01*
X318620000Y-97512000D02*
X320311000Y-97512000D01*
X284536000Y-97512000D02*
X285461300Y-97512000D01*
X284536000Y-97512000D02*
X283411000Y-97512000D01*
X314686000Y-108612000D02*
X313760700Y-108612000D01*
X219436000Y-108612000D02*
X219436000Y-107686700D01*
X367936000Y-97512000D02*
X366810700Y-97512000D01*
X341686000Y-97512000D02*
X342611300Y-97512000D01*
X342611300Y-97512000D02*
X343736600Y-96386700D01*
X343736600Y-96386700D02*
X365685400Y-96386700D01*
X365685400Y-96386700D02*
X366810700Y-97512000D01*
X340561000Y-97512000D02*
X341686000Y-97512000D01*
X225061000Y-97512000D02*
X223935700Y-97512000D01*
X226261000Y-97512000D02*
X225061000Y-97512000D01*
X314686000Y-108612000D02*
X314686000Y-109737000D01*
X314686000Y-110937000D02*
X314686000Y-109737000D01*
X282211000Y-97512000D02*
X283411000Y-97512000D01*
X339361000Y-97512000D02*
X340561000Y-97512000D01*
X265486000Y-97512000D02*
X264361000Y-97512000D01*
X263161000Y-97512000D02*
X264361000Y-97512000D01*
X227386000Y-97512000D02*
X226261000Y-97512000D01*
X321511000Y-97512000D02*
X320311000Y-97512000D01*
X322636000Y-97512000D02*
X321511000Y-97512000D01*
X219436000Y-109737000D02*
X219436000Y-110937000D01*
X219436000Y-108612000D02*
X219436000Y-109737000D01*
X369136000Y-97512000D02*
X367936000Y-97512000D01*
X370261000Y-97512000D02*
X369136000Y-97512000D01*
X245311000Y-97512000D02*
X244111000Y-97512000D01*
X246436000Y-97512000D02*
X245311000Y-97512000D01*
X231661000Y-97512000D02*
X230536000Y-97512000D01*
X232861000Y-97512000D02*
X231661000Y-97512000D01*
X250711000Y-97512000D02*
X251911000Y-97512000D01*
X249586000Y-97512000D02*
X250711000Y-97512000D01*
X269761000Y-97512000D02*
X268636000Y-97512000D01*
X270961000Y-97512000D02*
X269761000Y-97512000D01*
X288811000Y-97512000D02*
X287686000Y-97512000D01*
X290011000Y-97512000D02*
X288811000Y-97512000D01*
X314686000Y-103137000D02*
X314686000Y-104337000D01*
X314686000Y-104337000D02*
X314686000Y-105462000D01*
X326911000Y-97512000D02*
X328111000Y-97512000D01*
X325786000Y-97512000D02*
X326911000Y-97512000D01*
X345961000Y-97512000D02*
X344836000Y-97512000D01*
X347161000Y-97512000D02*
X345961000Y-97512000D01*
X374536000Y-97512000D02*
X375736000Y-97512000D01*
X373411000Y-97512000D02*
X374536000Y-97512000D01*
X84889000Y-116562000D02*
X114398700Y-116562000D01*
X75911500Y-116562000D02*
X77036800Y-115436700D01*
X77036800Y-115436700D02*
X83763700Y-115436700D01*
X83763700Y-115436700D02*
X84889000Y-116562000D01*
X84889000Y-116562000D02*
X84889000Y-135064500D01*
X84889000Y-135064500D02*
X86086200Y-136261700D01*
X86086200Y-137187000D02*
X86086200Y-136261700D01*
X160711000Y-116562000D02*
X161636300Y-116562000D01*
X177436000Y-116562000D02*
X176310700Y-116562000D01*
X176310700Y-116562000D02*
X175185300Y-115436600D01*
X175185300Y-115436600D02*
X162761700Y-115436600D01*
X162761700Y-115436600D02*
X161636300Y-116562000D01*
X178636000Y-116562000D02*
X177436000Y-116562000D01*
X53611200Y-116562000D02*
X52485900Y-116562000D01*
X52485900Y-116562000D02*
X52389600Y-116465700D01*
X52389600Y-116465700D02*
X46135300Y-116465700D01*
X46135300Y-116465700D02*
X44908700Y-117692300D01*
X44908700Y-117692300D02*
X38941800Y-117692300D01*
X38941800Y-117692300D02*
X37811500Y-116562000D01*
X54811200Y-116562000D02*
X53611200Y-116562000D01*
X36886200Y-116562000D02*
X37811500Y-116562000D01*
X141661000Y-116562000D02*
X142586300Y-116562000D01*
X158386000Y-116562000D02*
X157260700Y-116562000D01*
X157260700Y-116562000D02*
X156135300Y-117687400D01*
X156135300Y-117687400D02*
X143711700Y-117687400D01*
X143711700Y-117687400D02*
X142586300Y-116562000D01*
X159586000Y-116562000D02*
X158386000Y-116562000D01*
X115524000Y-116562000D02*
X114398700Y-116562000D01*
X55936200Y-116562000D02*
X54811200Y-116562000D01*
X74986200Y-116562000D02*
X75911500Y-116562000D01*
X116724000Y-116562000D02*
X115524000Y-116562000D01*
X74986200Y-116562000D02*
X73861200Y-116562000D01*
X72661200Y-116562000D02*
X73861200Y-116562000D01*
X160711000Y-116562000D02*
X159586000Y-116562000D01*
X36886200Y-116562000D02*
X35761200Y-116562000D01*
X34561200Y-116562000D02*
X35761200Y-116562000D01*
X117849000Y-116562000D02*
X118774300Y-116562000D01*
X118774300Y-116562000D02*
X119899600Y-117687300D01*
X119899600Y-117687300D02*
X137085400Y-117687300D01*
X137085400Y-117687300D02*
X138210700Y-116562000D01*
X117849000Y-116562000D02*
X116724000Y-116562000D01*
X139336000Y-116562000D02*
X138210700Y-116562000D01*
X179761000Y-116562000D02*
X178636000Y-116562000D01*
X86086200Y-138312000D02*
X86086200Y-139512000D01*
X86086200Y-137187000D02*
X86086200Y-138312000D01*
X141661000Y-116562000D02*
X140536000Y-116562000D01*
X140536000Y-116562000D02*
X139336000Y-116562000D01*
X197686000Y-116562000D02*
X196486000Y-116562000D01*
X198811000Y-116562000D02*
X197686000Y-116562000D01*
X41161200Y-116562000D02*
X40036200Y-116562000D01*
X42361200Y-116562000D02*
X41161200Y-116562000D01*
X60211200Y-116562000D02*
X61411200Y-116562000D01*
X59086200Y-116562000D02*
X60211200Y-116562000D01*
X79261200Y-116562000D02*
X78136200Y-116562000D01*
X80461200Y-116562000D02*
X79261200Y-116562000D01*
X86086200Y-134037000D02*
X86086200Y-134487300D01*
X86086200Y-132912000D02*
X86086200Y-134037000D01*
X90531200Y-133072000D02*
X89115900Y-134487300D01*
X89115900Y-134487300D02*
X86086200Y-134487300D01*
X91111200Y-133112000D02*
X90571200Y-133112000D01*
X90571200Y-133112000D02*
X90531200Y-133072000D01*
X86086200Y-132912000D02*
X86086200Y-131712000D01*
X122124000Y-116562000D02*
X120999000Y-116562000D01*
X123324000Y-116562000D02*
X122124000Y-116562000D01*
X145936000Y-116562000D02*
X147136000Y-116562000D01*
X144811000Y-116562000D02*
X145936000Y-116562000D01*
X164986000Y-116562000D02*
X163861000Y-116562000D01*
X166186000Y-116562000D02*
X164986000Y-116562000D01*
X184036000Y-116562000D02*
X185236000Y-116562000D01*
X182911000Y-116562000D02*
X184036000Y-116562000D01*
X203086000Y-116562000D02*
X204286000Y-116562000D01*
X201961000Y-116562000D02*
X203086000Y-116562000D01*
X236911000Y-116562000D02*
X237836300Y-116562000D01*
X253636000Y-116562000D02*
X252510700Y-116562000D01*
X252510700Y-116562000D02*
X251380400Y-117692300D01*
X251380400Y-117692300D02*
X238966600Y-117692300D01*
X238966600Y-117692300D02*
X237836300Y-116562000D01*
X254836000Y-116562000D02*
X253636000Y-116562000D01*
X215536000Y-116562000D02*
X214410700Y-116562000D01*
X214410700Y-116562000D02*
X213285400Y-115436700D01*
X213285400Y-115436700D02*
X189028300Y-115436700D01*
X189028300Y-115436700D02*
X178064200Y-104472600D01*
X178064200Y-104472600D02*
X174100900Y-104472600D01*
X174100900Y-104472600D02*
X170076900Y-100448600D01*
X170076900Y-100448600D02*
X83601700Y-100448600D01*
X83601700Y-100448600D02*
X80003200Y-104047100D01*
X80003200Y-104047100D02*
X76247100Y-104047100D01*
X76247100Y-104047100D02*
X72048300Y-108245900D01*
X72048300Y-108245900D02*
X65954000Y-108245900D01*
X65954000Y-108245900D02*
X65187500Y-107479400D01*
X216736000Y-116562000D02*
X215536000Y-116562000D01*
X346505000Y-116562000D02*
X345379700Y-116562000D01*
X332161000Y-116562000D02*
X333086300Y-116562000D01*
X333086300Y-116562000D02*
X334211600Y-117687300D01*
X334211600Y-117687300D02*
X344254400Y-117687300D01*
X344254400Y-117687300D02*
X345379700Y-116562000D01*
X331036000Y-116562000D02*
X332161000Y-116562000D01*
X329836000Y-116562000D02*
X328710700Y-116562000D01*
X313111000Y-116562000D02*
X314036300Y-116562000D01*
X314036300Y-116562000D02*
X315161600Y-117687300D01*
X315161600Y-117687300D02*
X327585400Y-117687300D01*
X327585400Y-117687300D02*
X328710700Y-116562000D01*
X311986000Y-116562000D02*
X313111000Y-116562000D01*
X310786000Y-116562000D02*
X309660700Y-116562000D01*
X294061000Y-116562000D02*
X294986300Y-116562000D01*
X294986300Y-116562000D02*
X296111600Y-117687300D01*
X296111600Y-117687300D02*
X308535400Y-117687300D01*
X308535400Y-117687300D02*
X309660700Y-116562000D01*
X292936000Y-116562000D02*
X294061000Y-116562000D01*
X291736000Y-116562000D02*
X290610700Y-116562000D01*
X275011000Y-116562000D02*
X275936300Y-116562000D01*
X275936300Y-116562000D02*
X277061600Y-117687300D01*
X277061600Y-117687300D02*
X289485400Y-117687300D01*
X289485400Y-117687300D02*
X290610700Y-116562000D01*
X273886000Y-116562000D02*
X275011000Y-116562000D01*
X272686000Y-116562000D02*
X271560700Y-116562000D01*
X255961000Y-116562000D02*
X256886300Y-116562000D01*
X256886300Y-116562000D02*
X258011600Y-117687300D01*
X258011600Y-117687300D02*
X270435400Y-117687300D01*
X270435400Y-117687300D02*
X271560700Y-116562000D01*
X254836000Y-116562000D02*
X255961000Y-116562000D01*
X272686000Y-116562000D02*
X273886000Y-116562000D01*
X217861000Y-116562000D02*
X216736000Y-116562000D01*
X236911000Y-116562000D02*
X235786000Y-116562000D01*
X234586000Y-116562000D02*
X235786000Y-116562000D01*
X292936000Y-116562000D02*
X291736000Y-116562000D01*
X310786000Y-116562000D02*
X311986000Y-116562000D01*
X331036000Y-116562000D02*
X329836000Y-116562000D01*
X348830000Y-116562000D02*
X347705000Y-116562000D01*
X346505000Y-116562000D02*
X347705000Y-116562000D01*
X388461000Y-137605800D02*
X388461000Y-138805800D01*
X388461000Y-136480800D02*
X388461000Y-137605800D01*
X222136000Y-116562000D02*
X221011000Y-116562000D01*
X223336000Y-116562000D02*
X222136000Y-116562000D01*
X242386000Y-116562000D02*
X241186000Y-116562000D01*
X241186000Y-116562000D02*
X240061000Y-116562000D01*
X260236000Y-116562000D02*
X261436000Y-116562000D01*
X259111000Y-116562000D02*
X260236000Y-116562000D01*
X279286000Y-116562000D02*
X278161000Y-116562000D01*
X280486000Y-116562000D02*
X279286000Y-116562000D01*
X298336000Y-116562000D02*
X299536000Y-116562000D01*
X297211000Y-116562000D02*
X298336000Y-116562000D01*
X317386000Y-116562000D02*
X316261000Y-116562000D01*
X318586000Y-116562000D02*
X317386000Y-116562000D01*
X336436000Y-116562000D02*
X337636000Y-116562000D01*
X335311000Y-116562000D02*
X336436000Y-116562000D01*
X353105000Y-116562000D02*
X351980000Y-116562000D01*
X354305000Y-116562000D02*
X353105000Y-116562000D01*
X387998400Y-133330800D02*
X388461000Y-132868200D01*
X388461000Y-132868200D02*
X388461000Y-132205800D01*
X387998400Y-133330800D02*
X387535700Y-133330800D01*
X388461000Y-133330800D02*
X387998400Y-133330800D01*
X382945000Y-133107000D02*
X387311900Y-133107000D01*
X387311900Y-133107000D02*
X387535700Y-133330800D01*
X388461000Y-132205800D02*
X388461000Y-131005800D01*
X381485000Y-127672002D02*
X381485000Y-131797000D01*
X379096000Y-125283002D02*
X381485000Y-127672002D01*
X379096000Y-121587000D02*
X379096000Y-125283002D01*
X379323026Y-131797000D02*
X381485000Y-131797000D01*
X376445000Y-134675026D02*
X379323026Y-131797000D01*
X376445000Y-140107000D02*
X376445000Y-134675026D01*
X165473000Y-135612000D02*
X166398300Y-135612000D01*
X182198000Y-135612000D02*
X181072700Y-135612000D01*
X181072700Y-135612000D02*
X179946900Y-134486200D01*
X179946900Y-134486200D02*
X167524100Y-134486200D01*
X167524100Y-134486200D02*
X166398300Y-135612000D01*
X183398000Y-135612000D02*
X182198000Y-135612000D01*
X220298000Y-135612000D02*
X219172700Y-135612000D01*
X203573000Y-135612000D02*
X204498300Y-135612000D01*
X204498300Y-135612000D02*
X205623600Y-136737300D01*
X205623600Y-136737300D02*
X218047400Y-136737300D01*
X218047400Y-136737300D02*
X219172700Y-135612000D01*
X202448000Y-135612000D02*
X203573000Y-135612000D01*
X74986200Y-135612000D02*
X75911500Y-135612000D01*
X117905000Y-135612000D02*
X116779700Y-135612000D01*
X116779700Y-135612000D02*
X114460400Y-137931300D01*
X114460400Y-137931300D02*
X94646900Y-137931300D01*
X94646900Y-137931300D02*
X93315100Y-136599500D01*
X93315100Y-136599500D02*
X90982300Y-136599500D01*
X90982300Y-136599500D02*
X88781100Y-138800700D01*
X88781100Y-138800700D02*
X88781100Y-138915600D01*
X88781100Y-138915600D02*
X87059300Y-140637400D01*
X87059300Y-140637400D02*
X83611400Y-140637400D01*
X83611400Y-140637400D02*
X79511300Y-136537300D01*
X79511300Y-136537300D02*
X76836800Y-136537300D01*
X76836800Y-136537300D02*
X75911500Y-135612000D01*
X119105000Y-135612000D02*
X117905000Y-135612000D01*
X201248000Y-135612000D02*
X200122700Y-135612000D01*
X184523000Y-135612000D02*
X185448300Y-135612000D01*
X200122700Y-135612000D02*
X198997400Y-136737300D01*
X198997400Y-136737300D02*
X186573600Y-136737300D01*
X186573600Y-136737300D02*
X185448300Y-135612000D01*
X202448000Y-135612000D02*
X201248000Y-135612000D01*
X142972700Y-135612000D02*
X141842400Y-136742300D01*
X141842400Y-136742300D02*
X122285600Y-136742300D01*
X122285600Y-136742300D02*
X121155300Y-135612000D01*
X120230000Y-135612000D02*
X121155300Y-135612000D01*
X144098000Y-135612000D02*
X142972700Y-135612000D01*
X145298000Y-135612000D02*
X144098000Y-135612000D01*
X55936200Y-135612000D02*
X56861500Y-135612000D01*
X72661200Y-135612000D02*
X71535900Y-135612000D01*
X71535900Y-135612000D02*
X70410500Y-136737400D01*
X70410500Y-136737400D02*
X57986900Y-136737400D01*
X57986900Y-136737400D02*
X56861500Y-135612000D01*
X73861200Y-135612000D02*
X72661200Y-135612000D01*
X74986200Y-135612000D02*
X73861200Y-135612000D01*
X222623000Y-135612000D02*
X221498000Y-135612000D01*
X220298000Y-135612000D02*
X221498000Y-135612000D01*
X36886200Y-135612000D02*
X37811500Y-135612000D01*
X37811500Y-135612000D02*
X38936800Y-136737300D01*
X38936800Y-136737300D02*
X51360600Y-136737300D01*
X51360600Y-136737300D02*
X52485900Y-135612000D01*
X35761200Y-135612000D02*
X36886200Y-135612000D01*
X53611200Y-135612000D02*
X52485900Y-135612000D01*
X34561200Y-135612000D02*
X35761200Y-135612000D01*
X184523000Y-135612000D02*
X183398000Y-135612000D01*
X146423000Y-135612000D02*
X145298000Y-135612000D01*
X164348000Y-135612000D02*
X165473000Y-135612000D01*
X164348000Y-135612000D02*
X163148000Y-135612000D01*
X55936200Y-135612000D02*
X54811200Y-135612000D01*
X54811200Y-135612000D02*
X53611200Y-135612000D01*
X119105000Y-135612000D02*
X120230000Y-135612000D01*
X41161200Y-135612000D02*
X40036200Y-135612000D01*
X42361200Y-135612000D02*
X41161200Y-135612000D01*
X60211200Y-135612000D02*
X61411200Y-135612000D01*
X59086200Y-135612000D02*
X60211200Y-135612000D01*
X79261200Y-135612000D02*
X78136200Y-135612000D01*
X80461200Y-135612000D02*
X79261200Y-135612000D01*
X124505000Y-135612000D02*
X125705000Y-135612000D01*
X123380000Y-135612000D02*
X124505000Y-135612000D01*
X150698000Y-135612000D02*
X149573000Y-135612000D01*
X151898000Y-135612000D02*
X150698000Y-135612000D01*
X169748000Y-135612000D02*
X170948000Y-135612000D01*
X168623000Y-135612000D02*
X169748000Y-135612000D01*
X188798000Y-135612000D02*
X187673000Y-135612000D01*
X189998000Y-135612000D02*
X188798000Y-135612000D01*
X207848000Y-135612000D02*
X209048000Y-135612000D01*
X206723000Y-135612000D02*
X207848000Y-135612000D01*
X226898000Y-135612000D02*
X225773000Y-135612000D01*
X228098000Y-135612000D02*
X226898000Y-135612000D01*
X245948000Y-135612000D02*
X247148000Y-135612000D01*
X244823000Y-135612000D02*
X245948000Y-135612000D01*
X241673000Y-135612000D02*
X242598300Y-135612000D01*
X242598300Y-135612000D02*
X243723600Y-134486700D01*
X243723600Y-134486700D02*
X256147400Y-134486700D01*
X256147400Y-134486700D02*
X257272700Y-135612000D01*
X240548000Y-135612000D02*
X241673000Y-135612000D01*
X258398000Y-135612000D02*
X257272700Y-135612000D01*
X239348000Y-135612000D02*
X238222700Y-135612000D01*
X55936200Y-154662000D02*
X56861500Y-154662000D01*
X56861500Y-154662000D02*
X61322900Y-150200600D01*
X61322900Y-150200600D02*
X152933700Y-150200600D01*
X152933700Y-150200600D02*
X164557100Y-138577200D01*
X164557100Y-138577200D02*
X235257500Y-138577200D01*
X235257500Y-138577200D02*
X238222700Y-135612000D01*
X54811200Y-154662000D02*
X55936200Y-154662000D01*
X240548000Y-135612000D02*
X239348000Y-135612000D01*
X36886200Y-154662000D02*
X37811500Y-154662000D01*
X53611200Y-154662000D02*
X52485900Y-154662000D01*
X52485900Y-154662000D02*
X51355600Y-155792300D01*
X51355600Y-155792300D02*
X38941800Y-155792300D01*
X38941800Y-155792300D02*
X37811500Y-154662000D01*
X54811200Y-154662000D02*
X53611200Y-154662000D01*
X353605000Y-135612000D02*
X352479700Y-135612000D01*
X336923000Y-135612000D02*
X337848300Y-135612000D01*
X337848300Y-135612000D02*
X338973600Y-136737300D01*
X338973600Y-136737300D02*
X351354400Y-136737300D01*
X351354400Y-136737300D02*
X352479700Y-135612000D01*
X335798000Y-135612000D02*
X336923000Y-135612000D01*
X314422700Y-135612000D02*
X313297400Y-136737300D01*
X313297400Y-136737300D02*
X300873600Y-136737300D01*
X300873600Y-136737300D02*
X299748300Y-135612000D01*
X296498000Y-135612000D02*
X295372700Y-135612000D01*
X279773000Y-135612000D02*
X280698300Y-135612000D01*
X280698300Y-135612000D02*
X281823600Y-136737300D01*
X281823600Y-136737300D02*
X294247400Y-136737300D01*
X294247400Y-136737300D02*
X295372700Y-135612000D01*
X278648000Y-135612000D02*
X279773000Y-135612000D01*
X297698000Y-135612000D02*
X296498000Y-135612000D01*
X260723000Y-135612000D02*
X259598000Y-135612000D01*
X258398000Y-135612000D02*
X259598000Y-135612000D01*
X315548000Y-135612000D02*
X314422700Y-135612000D01*
X298823000Y-135612000D02*
X299748300Y-135612000D01*
X297698000Y-135612000D02*
X298823000Y-135612000D01*
X334598000Y-135612000D02*
X335798000Y-135612000D01*
X278648000Y-135612000D02*
X277448000Y-135612000D01*
X316748000Y-135612000D02*
X315548000Y-135612000D01*
X317873000Y-135612000D02*
X316748000Y-135612000D01*
X35761200Y-154662000D02*
X36886200Y-154662000D01*
X35761200Y-154662000D02*
X34561200Y-154662000D01*
X354805000Y-135612000D02*
X353605000Y-135612000D01*
X355930000Y-135612000D02*
X354805000Y-135612000D01*
X264998000Y-135612000D02*
X263873000Y-135612000D01*
X266198000Y-135612000D02*
X264998000Y-135612000D01*
X284048000Y-135612000D02*
X285248000Y-135612000D01*
X282923000Y-135612000D02*
X284048000Y-135612000D01*
X303098000Y-135612000D02*
X301973000Y-135612000D01*
X304298000Y-135612000D02*
X303098000Y-135612000D01*
X322148000Y-135612000D02*
X323348000Y-135612000D01*
X321023000Y-135612000D02*
X322148000Y-135612000D01*
X341198000Y-135612000D02*
X340073000Y-135612000D01*
X342398000Y-135612000D02*
X341198000Y-135612000D01*
X360205000Y-135612000D02*
X361405000Y-135612000D01*
X359080000Y-135612000D02*
X360205000Y-135612000D01*
X371554636Y-139656636D02*
X371955000Y-140057000D01*
X360985364Y-139656636D02*
X371554636Y-139656636D01*
X360005000Y-140637000D02*
X360985364Y-139656636D01*
X41161200Y-154662000D02*
X42361200Y-154662000D01*
X40036200Y-154662000D02*
X41161200Y-154662000D01*
X60211200Y-154662000D02*
X59086200Y-154662000D01*
X61411200Y-154662000D02*
X60211200Y-154662000D01*
X209648700Y-154662000D02*
X208523400Y-155787300D01*
X208523400Y-155787300D02*
X196099600Y-155787300D01*
X196099600Y-155787300D02*
X194974300Y-154662000D01*
X191724000Y-154662000D02*
X190598700Y-154662000D01*
X174999000Y-154662000D02*
X175924300Y-154662000D01*
X175924300Y-154662000D02*
X177049600Y-155787300D01*
X177049600Y-155787300D02*
X189473400Y-155787300D01*
X189473400Y-155787300D02*
X190598700Y-154662000D01*
X173874000Y-154662000D02*
X174999000Y-154662000D01*
X213099000Y-154662000D02*
X214024300Y-154662000D01*
X214024300Y-154662000D02*
X215149600Y-153536700D01*
X215149600Y-153536700D02*
X227573400Y-153536700D01*
X227573400Y-153536700D02*
X228698700Y-154662000D01*
X213099000Y-154662000D02*
X211974000Y-154662000D01*
X229824000Y-154662000D02*
X228698700Y-154662000D01*
X194049000Y-154662000D02*
X194974300Y-154662000D01*
X192924000Y-154662000D02*
X194049000Y-154662000D01*
X210774000Y-154662000D02*
X209648700Y-154662000D01*
X74986200Y-154662000D02*
X75911500Y-154662000D01*
X113099000Y-154662000D02*
X111973700Y-154662000D01*
X111973700Y-154662000D02*
X110843400Y-155792300D01*
X110843400Y-155792300D02*
X77041800Y-155792300D01*
X77041800Y-155792300D02*
X75911500Y-154662000D01*
X114299000Y-154662000D02*
X113099000Y-154662000D01*
X172674000Y-154662000D02*
X173874000Y-154662000D01*
X115424000Y-154662000D02*
X116349300Y-154662000D01*
X116349300Y-154662000D02*
X117474600Y-155787300D01*
X117474600Y-155787300D02*
X132323400Y-155787300D01*
X132323400Y-155787300D02*
X133448700Y-154662000D01*
X115424000Y-154662000D02*
X114299000Y-154662000D01*
X134574000Y-154662000D02*
X133448700Y-154662000D01*
X192924000Y-154662000D02*
X191724000Y-154662000D01*
X210774000Y-154662000D02*
X211974000Y-154662000D01*
X74986200Y-154662000D02*
X73861200Y-154662000D01*
X72661200Y-154662000D02*
X73861200Y-154662000D01*
X136899000Y-154662000D02*
X135774000Y-154662000D01*
X135774000Y-154662000D02*
X134574000Y-154662000D01*
X86086200Y-176412000D02*
X86086200Y-177612000D01*
X86086200Y-175287000D02*
X86086200Y-176412000D01*
X231024000Y-154662000D02*
X229824000Y-154662000D01*
X232149000Y-154662000D02*
X231024000Y-154662000D01*
X154824000Y-154662000D02*
X153624000Y-154662000D01*
X155949000Y-154662000D02*
X154824000Y-154662000D01*
X135774000Y-154662000D02*
X138200000Y-154662000D01*
X139325001Y-153536999D02*
X142868999Y-153536999D01*
X138200000Y-154662000D02*
X139325001Y-153536999D01*
X143994000Y-154662000D02*
X153624000Y-154662000D01*
X142868999Y-153536999D02*
X143994000Y-154662000D01*
X79261200Y-154662000D02*
X78136200Y-154662000D01*
X80461200Y-154662000D02*
X79261200Y-154662000D01*
X91111200Y-171212000D02*
X90571200Y-171212000D01*
X90571200Y-171212000D02*
X90531200Y-171172000D01*
X86086200Y-172137000D02*
X86086200Y-172587300D01*
X86086200Y-171012000D02*
X86086200Y-172137000D01*
X90531200Y-171172000D02*
X89115900Y-172587300D01*
X89115900Y-172587300D02*
X86086200Y-172587300D01*
X86086200Y-171012000D02*
X86086200Y-169812000D01*
X119699000Y-154662000D02*
X118574000Y-154662000D01*
X120899000Y-154662000D02*
X119699000Y-154662000D01*
X141174000Y-154662000D02*
X142374000Y-154662000D01*
X140049000Y-154662000D02*
X141174000Y-154662000D01*
X160224000Y-154662000D02*
X161424000Y-154662000D01*
X159099000Y-154662000D02*
X160224000Y-154662000D01*
X179274000Y-154662000D02*
X178149000Y-154662000D01*
X180474000Y-154662000D02*
X179274000Y-154662000D01*
X198324000Y-154662000D02*
X197199000Y-154662000D01*
X199524000Y-154662000D02*
X198324000Y-154662000D01*
X217374000Y-154662000D02*
X216249000Y-154662000D01*
X218574000Y-154662000D02*
X217374000Y-154662000D01*
X236424000Y-154662000D02*
X237624000Y-154662000D01*
X235299000Y-154662000D02*
X236424000Y-154662000D01*
X255474000Y-154662000D02*
X256674000Y-154662000D01*
X254349000Y-154662000D02*
X255474000Y-154662000D01*
X250074000Y-154662000D02*
X248874000Y-154662000D01*
X46367500Y-173712000D02*
X47292800Y-173712000D01*
X72617500Y-173712000D02*
X71492200Y-173712000D01*
X71492200Y-173712000D02*
X70360100Y-172579900D01*
X70360100Y-172579900D02*
X48424900Y-172579900D01*
X48424900Y-172579900D02*
X47292800Y-173712000D01*
X73817500Y-173712000D02*
X72617500Y-173712000D01*
X326230000Y-154662000D02*
X327355000Y-154662000D01*
X308349000Y-154662000D02*
X309274300Y-154662000D01*
X309274300Y-154662000D02*
X310399600Y-155787300D01*
X310399600Y-155787300D02*
X322779400Y-155787300D01*
X322779400Y-155787300D02*
X323904700Y-154662000D01*
X307224000Y-154662000D02*
X308349000Y-154662000D01*
X325030000Y-154662000D02*
X323904700Y-154662000D01*
X289299000Y-154662000D02*
X290224300Y-154662000D01*
X290224300Y-154662000D02*
X291349600Y-155787300D01*
X291349600Y-155787300D02*
X303773400Y-155787300D01*
X303773400Y-155787300D02*
X304898700Y-154662000D01*
X289299000Y-154662000D02*
X288174000Y-154662000D01*
X306024000Y-154662000D02*
X304898700Y-154662000D01*
X270249000Y-154662000D02*
X271174300Y-154662000D01*
X271174300Y-154662000D02*
X272299600Y-155787300D01*
X272299600Y-155787300D02*
X284723400Y-155787300D01*
X284723400Y-155787300D02*
X285848700Y-154662000D01*
X270249000Y-154662000D02*
X269124000Y-154662000D01*
X286974000Y-154662000D02*
X285848700Y-154662000D01*
X251199000Y-154662000D02*
X252124300Y-154662000D01*
X252124300Y-154662000D02*
X253249600Y-155787300D01*
X253249600Y-155787300D02*
X265673400Y-155787300D01*
X265673400Y-155787300D02*
X266798700Y-154662000D01*
X251199000Y-154662000D02*
X250074000Y-154662000D01*
X267924000Y-154662000D02*
X266798700Y-154662000D01*
X267924000Y-154662000D02*
X269124000Y-154662000D01*
X307224000Y-154662000D02*
X306024000Y-154662000D01*
X325030000Y-154662000D02*
X326230000Y-154662000D01*
X363074000Y-153955800D02*
X361949000Y-153955800D01*
X46367500Y-173712000D02*
X45242500Y-173712000D01*
X44042500Y-173712000D02*
X45242500Y-173712000D01*
X288174000Y-154662000D02*
X286974000Y-154662000D01*
X74942500Y-173712000D02*
X73817500Y-173712000D01*
X358993899Y-155710901D02*
X360749000Y-153955800D01*
X355608901Y-155710901D02*
X358993899Y-155710901D01*
X353429900Y-153531900D02*
X355608901Y-155710901D01*
X329410400Y-153531900D02*
X353429900Y-153531900D01*
X328280300Y-154662000D02*
X329410400Y-153531900D01*
X327355000Y-154662000D02*
X328280300Y-154662000D01*
X119699000Y-173712000D02*
X118574000Y-173712000D01*
X120899000Y-173712000D02*
X119699000Y-173712000D01*
X116335700Y-176031300D02*
X118655000Y-173712000D01*
X84106800Y-174361600D02*
X91995200Y-174361600D01*
X91995200Y-174361600D02*
X93664900Y-176031300D01*
X83588700Y-174879700D02*
X84106800Y-174361600D01*
X77035500Y-174879700D02*
X83588700Y-174879700D01*
X75867800Y-173712000D02*
X77035500Y-174879700D01*
X93664900Y-176031300D02*
X116335700Y-176031300D01*
X74942500Y-173712000D02*
X75867800Y-173712000D01*
X274524000Y-154662000D02*
X273399000Y-154662000D01*
X275724000Y-154662000D02*
X274524000Y-154662000D01*
X293574000Y-154662000D02*
X292449000Y-154662000D01*
X294774000Y-154662000D02*
X293574000Y-154662000D01*
X312624000Y-154662000D02*
X313824000Y-154662000D01*
X311499000Y-154662000D02*
X312624000Y-154662000D01*
X331630000Y-154662000D02*
X330505000Y-154662000D01*
X332830000Y-154662000D02*
X331630000Y-154662000D01*
X367349000Y-153955800D02*
X366224000Y-153955800D01*
X368549000Y-153955800D02*
X367349000Y-153955800D01*
X366824999Y-158736999D02*
X367195000Y-159107000D01*
X358570001Y-158736999D02*
X366824999Y-158736999D01*
X357620000Y-159687000D02*
X358570001Y-158736999D01*
X50642500Y-173712000D02*
X49517500Y-173712000D01*
X51842500Y-173712000D02*
X50642500Y-173712000D01*
X79217500Y-173712000D02*
X80417500Y-173712000D01*
X78092500Y-173712000D02*
X79217500Y-173712000D01*
X143511000Y-173712000D02*
X144711000Y-173712000D01*
X142386000Y-173712000D02*
X143511000Y-173712000D01*
X335211000Y-173712000D02*
X336336300Y-173712000D01*
X336336300Y-173712000D02*
X337432500Y-174808200D01*
X337432500Y-174808200D02*
X361114300Y-174808200D01*
X361114300Y-174808200D02*
X362916700Y-173005800D01*
X334011000Y-173712000D02*
X335211000Y-173712000D01*
X363842000Y-173005800D02*
X362916700Y-173005800D01*
X388461000Y-184105800D02*
X387535700Y-184105800D01*
X366167000Y-173005800D02*
X373327100Y-173005800D01*
X373327100Y-173005800D02*
X382202500Y-181881200D01*
X382202500Y-181881200D02*
X385311100Y-181881200D01*
X385311100Y-181881200D02*
X387535700Y-184105800D01*
X364967000Y-173005800D02*
X366167000Y-173005800D01*
X232161000Y-173712000D02*
X231035700Y-173712000D01*
X163049000Y-173712000D02*
X163974300Y-173712000D01*
X163974300Y-173712000D02*
X165099600Y-172586700D01*
X165099600Y-172586700D02*
X229910400Y-172586700D01*
X229910400Y-172586700D02*
X231035700Y-173712000D01*
X161924000Y-173712000D02*
X163049000Y-173712000D01*
X160724000Y-173712000D02*
X161924000Y-173712000D01*
X388461000Y-184105800D02*
X388461000Y-185230800D01*
X388461000Y-186430800D02*
X388461000Y-185230800D01*
X363842000Y-173005800D02*
X364967000Y-173005800D01*
X332886000Y-173712000D02*
X334011000Y-173712000D01*
X234486000Y-173712000D02*
X235411300Y-173712000D01*
X235411300Y-173712000D02*
X236587600Y-174888300D01*
X236587600Y-174888300D02*
X264402800Y-174888300D01*
X264402800Y-174888300D02*
X265579100Y-173712000D01*
X265579100Y-173712000D02*
X303223700Y-173712000D01*
X303599000Y-173712000D02*
X303223700Y-173712000D01*
X304799000Y-173712000D02*
X303599000Y-173712000D01*
X234486000Y-173712000D02*
X233361000Y-173712000D01*
X305924000Y-173712000D02*
X306849300Y-173712000D01*
X306849300Y-173712000D02*
X308007000Y-174869700D01*
X308007000Y-174869700D02*
X330803000Y-174869700D01*
X330803000Y-174869700D02*
X331960700Y-173712000D01*
X305924000Y-173712000D02*
X304799000Y-173712000D01*
X332886000Y-173712000D02*
X331960700Y-173712000D01*
X233361000Y-173712000D02*
X232161000Y-173712000D01*
X388874000Y-155284000D02*
X389586001Y-155996001D01*
X155853000Y-173712000D02*
X160724000Y-173712000D01*
X154727999Y-174837001D02*
X155853000Y-173712000D01*
X147532001Y-174837001D02*
X154727999Y-174837001D01*
X146407000Y-173712000D02*
X147532001Y-174837001D01*
X143858000Y-173712000D02*
X146407000Y-173712000D01*
X167324000Y-173712000D02*
X168524000Y-173712000D01*
X166199000Y-173712000D02*
X167324000Y-173712000D01*
X238761000Y-173712000D02*
X239961000Y-173712000D01*
X237636000Y-173712000D02*
X238761000Y-173712000D01*
X310199000Y-173712000D02*
X311399000Y-173712000D01*
X309074000Y-173712000D02*
X310199000Y-173712000D01*
X333895000Y-178157000D02*
X333855000Y-178197000D01*
X333855000Y-178197000D02*
X333855000Y-178737000D01*
X328611000Y-173712000D02*
X327411000Y-173712000D01*
X329736000Y-173712000D02*
X328611000Y-173712000D01*
X359567000Y-173005800D02*
X358367000Y-173005800D01*
X360692000Y-173005800D02*
X359567000Y-173005800D01*
X138311000Y-179237000D02*
X137506000Y-180042000D01*
X137506000Y-180042000D02*
X137001000Y-180042000D01*
X137001000Y-180697000D02*
X137001000Y-180042000D01*
X65187500Y-122719400D02*
X64821900Y-123085000D01*
X64821900Y-123085000D02*
X58303900Y-123085000D01*
X58303900Y-123085000D02*
X55819900Y-120601000D01*
X55819900Y-120601000D02*
X51326100Y-120601000D01*
X51326100Y-120601000D02*
X50477700Y-121449400D01*
X50477700Y-121449400D02*
X45950900Y-121449400D01*
X45950900Y-121449400D02*
X44303100Y-123097200D01*
X44303100Y-123097200D02*
X36971400Y-123097200D01*
X36971400Y-123097200D02*
X35961200Y-122087000D01*
X35961200Y-122087000D02*
X35801300Y-122246900D01*
X35801300Y-122246900D02*
X35801300Y-122265100D01*
X34651200Y-123547000D02*
X35801300Y-122265100D01*
X75071400Y-161197200D02*
X74061200Y-160187000D01*
X82994000Y-161197200D02*
X75071400Y-161197200D01*
X88632000Y-166835200D02*
X82994000Y-161197200D01*
X137001000Y-180697000D02*
X137001000Y-180689000D01*
X123147200Y-166835200D02*
X122343800Y-166835200D01*
X137001000Y-180689000D02*
X123147200Y-166835200D01*
X122343800Y-166835200D02*
X88632000Y-166835200D01*
X122766200Y-166835200D02*
X122343800Y-166835200D01*
X93071200Y-177522000D02*
X94174900Y-178512300D01*
X160814000Y-180697000D02*
X159823700Y-181800700D01*
X159823700Y-181800700D02*
X149984900Y-181800700D01*
X149984900Y-181800700D02*
X146226900Y-185558700D01*
X146226900Y-185558700D02*
X126323700Y-185558700D01*
X126323700Y-185558700D02*
X121437600Y-180672600D01*
X121437600Y-180672600D02*
X118922300Y-180672600D01*
X118922300Y-180672600D02*
X115833600Y-177583900D01*
X115833600Y-177583900D02*
X95103300Y-177583900D01*
X95103300Y-177583900D02*
X94174900Y-178512300D01*
X225151000Y-104497000D02*
X224160700Y-105600700D01*
X235986000Y-122087000D02*
X225151000Y-111252000D01*
X225151000Y-111252000D02*
X225151000Y-106591000D01*
X225151000Y-106591000D02*
X224160700Y-105600700D01*
X226461000Y-103037000D02*
X225151000Y-104347000D01*
X225151000Y-104347000D02*
X225151000Y-104497000D01*
X72751200Y-104497000D02*
X71760900Y-105600700D01*
X71760900Y-105600700D02*
X69935400Y-103775200D01*
X69935400Y-103775200D02*
X61632500Y-103775200D01*
X61632500Y-103775200D02*
X61390900Y-104016800D01*
X61390900Y-104016800D02*
X56825000Y-104016800D01*
X56825000Y-104016800D02*
X54870800Y-105971000D01*
X54870800Y-105971000D02*
X53076900Y-105971000D01*
X53076900Y-105971000D02*
X52914500Y-105808600D01*
X52914500Y-105808600D02*
X51618300Y-105808600D01*
X51618300Y-105808600D02*
X49947500Y-107479400D01*
X233565000Y-179237000D02*
X232841700Y-179960300D01*
X232841700Y-179960300D02*
X232255000Y-179960300D01*
X232255000Y-179960300D02*
X232255000Y-180697000D01*
X115959000Y-161647000D02*
X114499000Y-160187000D01*
X122709000Y-161647000D02*
X115959000Y-161647000D01*
X135003926Y-176103900D02*
X169374000Y-176103900D01*
X123825000Y-164924974D02*
X135003926Y-176103900D01*
X123825000Y-163830000D02*
X123825000Y-164924974D01*
X122709000Y-162714000D02*
X123825000Y-163830000D01*
X173230400Y-179960300D02*
X232255000Y-179960300D01*
X169374000Y-176103900D02*
X173230400Y-179960300D01*
X122709000Y-161647000D02*
X122709000Y-162714000D01*
X91801200Y-104497000D02*
X90810900Y-105600700D01*
X90810900Y-105600700D02*
X86815100Y-105600700D01*
X86815100Y-105600700D02*
X83037900Y-109377900D01*
X83037900Y-109377900D02*
X66449100Y-109377900D01*
X66449100Y-109377900D02*
X65957800Y-108886600D01*
X65957800Y-108886600D02*
X64531800Y-108886600D01*
X64531800Y-108886600D02*
X63399000Y-110019400D01*
X63399000Y-110019400D02*
X49947500Y-110019400D01*
X93111200Y-103037000D02*
X93111200Y-103187000D01*
X93111200Y-103187000D02*
X91801200Y-104497000D01*
X272776000Y-123547000D02*
X271785700Y-124650700D01*
X119305000Y-141137000D02*
X122689200Y-137752800D01*
X122689200Y-137752800D02*
X148223300Y-137752800D01*
X148223300Y-137752800D02*
X149233800Y-136742300D01*
X149233800Y-136742300D02*
X154910800Y-136742300D01*
X154910800Y-136742300D02*
X161832100Y-129821000D01*
X161832100Y-129821000D02*
X264034500Y-129821000D01*
X264034500Y-129821000D02*
X269204800Y-124650700D01*
X269204800Y-124650700D02*
X271785700Y-124650700D01*
X117995000Y-142597000D02*
X117995000Y-142447000D01*
X117995000Y-142447000D02*
X119305000Y-141137000D01*
X93071200Y-139422000D02*
X94174900Y-140412300D01*
X94174900Y-140412300D02*
X95103300Y-139483900D01*
X95103300Y-139483900D02*
X117651900Y-139483900D01*
X117651900Y-139483900D02*
X119305000Y-141137000D01*
X109860700Y-105600700D02*
X104077100Y-105600700D01*
X104077100Y-105600700D02*
X98734200Y-110943600D01*
X98734200Y-110943600D02*
X98097400Y-110943600D01*
X98097400Y-110943600D02*
X97647100Y-111393900D01*
X97647100Y-111393900D02*
X51113000Y-111393900D01*
X51113000Y-111393900D02*
X49947500Y-112559400D01*
X110851000Y-104497000D02*
X109860700Y-105600700D01*
X290835700Y-124650700D02*
X286839900Y-124650700D01*
X286839900Y-124650700D02*
X279931400Y-131559200D01*
X279931400Y-131559200D02*
X279294600Y-131559200D01*
X279294600Y-131559200D02*
X278844300Y-132009500D01*
X278844300Y-132009500D02*
X271987700Y-132009500D01*
X271987700Y-132009500D02*
X271537400Y-132459800D01*
X271537400Y-132459800D02*
X240403100Y-132459800D01*
X240403100Y-132459800D02*
X239952800Y-132910100D01*
X239952800Y-132910100D02*
X167028000Y-132910100D01*
X167028000Y-132910100D02*
X166577700Y-133360400D01*
X166577700Y-133360400D02*
X161758900Y-133360400D01*
X161758900Y-133360400D02*
X160344300Y-134775000D01*
X160344300Y-134775000D02*
X159707400Y-134775000D01*
X159707400Y-134775000D02*
X157289700Y-137192700D01*
X157289700Y-137192700D02*
X149442300Y-137192700D01*
X149442300Y-137192700D02*
X145498000Y-141137000D01*
X328855000Y-179237000D02*
X327545000Y-180547000D01*
X327545000Y-180547000D02*
X327545000Y-180697000D01*
X291826000Y-123547000D02*
X290835700Y-124650700D01*
X174447600Y-158496500D02*
X163238000Y-147286900D01*
X163238000Y-147286900D02*
X163238000Y-144691000D01*
X163238000Y-144691000D02*
X162247700Y-143700700D01*
X309885700Y-124650700D02*
X305889900Y-124650700D01*
X305889900Y-124650700D02*
X298080700Y-132459900D01*
X298080700Y-132459900D02*
X272569800Y-132459900D01*
X272569800Y-132459900D02*
X268217900Y-136811800D01*
X268217900Y-136811800D02*
X256709800Y-136811800D01*
X256709800Y-136811800D02*
X250856400Y-142665200D01*
X250856400Y-142665200D02*
X248999900Y-142665200D01*
X248999900Y-142665200D02*
X239347500Y-152317600D01*
X239347500Y-152317600D02*
X235912100Y-152317600D01*
X235912100Y-152317600D02*
X233547900Y-154681800D01*
X233547900Y-154681800D02*
X233547900Y-154958300D01*
X233547900Y-154958300D02*
X232718800Y-155787400D01*
X232718800Y-155787400D02*
X209203400Y-155787400D01*
X209203400Y-155787400D02*
X208184700Y-156806100D01*
X208184700Y-156806100D02*
X177454900Y-156806100D01*
X177454900Y-156806100D02*
X175764500Y-158496500D01*
X175764500Y-158496500D02*
X174447600Y-158496500D01*
X174447600Y-158496500D02*
X174447600Y-159813400D01*
X174447600Y-159813400D02*
X174074000Y-160187000D01*
X163238000Y-142597000D02*
X162247700Y-143700700D01*
X129901000Y-104497000D02*
X128910700Y-105600700D01*
X128910700Y-105600700D02*
X128217300Y-105600700D01*
X128217300Y-105600700D02*
X127430600Y-106387400D01*
X127430600Y-106387400D02*
X124644600Y-106387400D01*
X124644600Y-106387400D02*
X117347200Y-113684800D01*
X117347200Y-113684800D02*
X51362100Y-113684800D01*
X51362100Y-113684800D02*
X49947500Y-115099400D01*
X310876000Y-123547000D02*
X309885700Y-124650700D01*
X193124000Y-160187000D02*
X195991200Y-157319800D01*
X195991200Y-157319800D02*
X208307900Y-157319800D01*
X208307900Y-157319800D02*
X209390000Y-156237700D01*
X209390000Y-156237700D02*
X233734500Y-156237700D01*
X233734500Y-156237700D02*
X233959800Y-156012400D01*
X233959800Y-156012400D02*
X234174300Y-156012400D01*
X234174300Y-156012400D02*
X234399300Y-155787400D01*
X234399300Y-155787400D02*
X238152900Y-155787400D01*
X238152900Y-155787400D02*
X247184100Y-146756200D01*
X247184100Y-146756200D02*
X248427500Y-146756200D01*
X248427500Y-146756200D02*
X257507100Y-137676600D01*
X257507100Y-137676600D02*
X270663500Y-137676600D01*
X270663500Y-137676600D02*
X274895400Y-133444700D01*
X274895400Y-133444700D02*
X277811700Y-133444700D01*
X277811700Y-133444700D02*
X278262000Y-132994400D01*
X278262000Y-132994400D02*
X316596200Y-132994400D01*
X316596200Y-132994400D02*
X324939900Y-124650700D01*
X324939900Y-124650700D02*
X328935700Y-124650700D01*
X147960700Y-105600700D02*
X138507100Y-105600700D01*
X138507100Y-105600700D02*
X129872700Y-114235100D01*
X129872700Y-114235100D02*
X75508100Y-114235100D01*
X75508100Y-114235100D02*
X75057800Y-114685400D01*
X75057800Y-114685400D02*
X68789200Y-114685400D01*
X68789200Y-114685400D02*
X67105200Y-116369400D01*
X67105200Y-116369400D02*
X64353800Y-116369400D01*
X64353800Y-116369400D02*
X63035800Y-117687400D01*
X63035800Y-117687400D02*
X49995500Y-117687400D01*
X49995500Y-117687400D02*
X49947500Y-117639400D01*
X148951000Y-104497000D02*
X147960700Y-105600700D01*
X329926000Y-123547000D02*
X328935700Y-124650700D01*
X178836000Y-122087000D02*
X177526000Y-123397000D01*
X177526000Y-123397000D02*
X177526000Y-123547000D01*
X212174000Y-160187000D02*
X215673000Y-156688000D01*
X215673000Y-156688000D02*
X233921100Y-156688000D01*
X233921100Y-156688000D02*
X234146400Y-156462700D01*
X234146400Y-156462700D02*
X234360900Y-156462700D01*
X234360900Y-156462700D02*
X234561300Y-156262300D01*
X234561300Y-156262300D02*
X237678000Y-156262300D01*
X237678000Y-156262300D02*
X237690400Y-156249900D01*
X237690400Y-156249900D02*
X238327300Y-156249900D01*
X238327300Y-156249900D02*
X247370700Y-147206500D01*
X247370700Y-147206500D02*
X248614100Y-147206500D01*
X248614100Y-147206500D02*
X257243400Y-138577200D01*
X257243400Y-138577200D02*
X270399800Y-138577200D01*
X270399800Y-138577200D02*
X274040100Y-134936900D01*
X274040100Y-134936900D02*
X274676900Y-134936900D01*
X274676900Y-134936900D02*
X275127200Y-134486600D01*
X275127200Y-134486600D02*
X328629600Y-134486600D01*
X328629600Y-134486600D02*
X338465500Y-124650700D01*
X338465500Y-124650700D02*
X347985700Y-124650700D01*
X168001000Y-104497000D02*
X167010700Y-105600700D01*
X49947500Y-120179400D02*
X51217500Y-118909400D01*
X51217500Y-118909400D02*
X67402400Y-118909400D01*
X67402400Y-118909400D02*
X71100200Y-115211600D01*
X71100200Y-115211600D02*
X75393400Y-115211600D01*
X75393400Y-115211600D02*
X75880900Y-114724100D01*
X75880900Y-114724100D02*
X155245800Y-114724100D01*
X155245800Y-114724100D02*
X164369200Y-105600700D01*
X164369200Y-105600700D02*
X167010700Y-105600700D01*
X348976000Y-123547000D02*
X347985700Y-124650700D01*
X34651200Y-161647000D02*
X33660900Y-162750700D01*
X72707500Y-180697000D02*
X71717200Y-181800700D01*
X71717200Y-181800700D02*
X70613500Y-180697000D01*
X70613500Y-180697000D02*
X57236000Y-180697000D01*
X57236000Y-180697000D02*
X52839200Y-176300200D01*
X52839200Y-176300200D02*
X44560600Y-176300200D01*
X44560600Y-176300200D02*
X34651200Y-166390800D01*
X34651200Y-166390800D02*
X34651200Y-163741000D01*
X34651200Y-163741000D02*
X33660900Y-162750700D01*
X328847700Y-138306900D02*
X307680200Y-138306900D01*
X307680200Y-138306900D02*
X303811600Y-142175500D01*
X303811600Y-142175500D02*
X299653100Y-142175500D01*
X299653100Y-142175500D02*
X297757600Y-144071000D01*
X297757600Y-144071000D02*
X295963800Y-144071000D01*
X295963800Y-144071000D02*
X295808100Y-143915300D01*
X295808100Y-143915300D02*
X291387300Y-143915300D01*
X291387300Y-143915300D02*
X287762500Y-147540100D01*
X287762500Y-147540100D02*
X253877100Y-147540100D01*
X253877100Y-147540100D02*
X244406600Y-157010600D01*
X244406600Y-157010600D02*
X234400400Y-157010600D01*
X234400400Y-157010600D02*
X231224000Y-160187000D01*
X368504900Y-104497000D02*
X369336000Y-103665900D01*
X369336000Y-103665900D02*
X369336000Y-103037000D01*
X368026000Y-104497000D02*
X368504900Y-104497000D01*
X368026000Y-116017000D02*
X374096000Y-122087000D01*
X368026000Y-104497000D02*
X368026000Y-116017000D01*
X381445000Y-139607000D02*
X380320001Y-138482001D01*
X373008901Y-128514099D02*
X373008901Y-123547000D01*
X373008901Y-129676901D02*
X373008901Y-128514099D01*
X334051725Y-133102875D02*
X333907300Y-133247300D01*
X333907300Y-133247300D02*
X328847700Y-138306900D01*
X373008901Y-133102875D02*
X334051725Y-133102875D01*
X373008901Y-133102875D02*
X373008901Y-133086099D01*
X373008901Y-138816903D02*
X376054899Y-141862901D01*
X373008901Y-132851901D02*
X373008901Y-138816903D01*
X373008901Y-133102875D02*
X373008901Y-132851901D01*
X376054899Y-141862901D02*
X380361099Y-141862901D01*
X373008901Y-132851901D02*
X373008901Y-129676901D01*
X381445000Y-140779000D02*
X381445000Y-140001001D01*
X380361099Y-141862901D02*
X381445000Y-140779000D01*
X383445000Y-138779000D02*
X383445000Y-138107000D01*
X381445000Y-140779000D02*
X383445000Y-138779000D01*
X381445000Y-178737000D02*
X382973300Y-178842400D01*
X382973300Y-178842400D02*
X383184900Y-178630800D01*
X383184900Y-178630800D02*
X388461000Y-178630800D01*
X388461000Y-179830800D02*
X388461000Y-178630800D01*
X388461000Y-179830800D02*
X388461000Y-180955800D01*
X383820000Y-154863000D02*
X388874000Y-149809000D01*
X383820000Y-159687000D02*
X383820000Y-154863000D01*
M02*
