%TF.GenerationSoftware,KiCad,Pcbnew,5.1.10-88a1d61d58~88~ubuntu21.04.1*%
%TF.CreationDate,2021-06-04T00:00:19+02:00*%
%TF.ProjectId,southpawpcb,736f7574-6870-4617-9770-63622e6b6963,rev?*%
%TF.SameCoordinates,Original*%
%TF.FileFunction,Legend,Bot*%
%TF.FilePolarity,Positive*%
%FSLAX46Y46*%
G04 Gerber Fmt 4.6, Leading zero omitted, Abs format (unit mm)*
G04 Created by KiCad (PCBNEW 5.1.10-88a1d61d58~88~ubuntu21.04.1) date 2021-06-04 00:00:19*
%MOMM*%
%LPD*%
G01*
G04 APERTURE LIST*
%TA.AperFunction,Profile*%
%ADD10C,0.050000*%
%TD*%
%ADD11C,0.200000*%
%ADD12C,0.150000*%
%ADD13C,0.120000*%
G04 APERTURE END LIST*
D10*
X207042500Y-195818250D02*
G75*
G02*
X206092500Y-196768250I-950000J0D01*
G01*
X298242500Y-93218250D02*
G75*
G02*
X299192500Y-94168250I0J-950000D01*
G01*
X28442500Y-94168250D02*
X28442500Y-194868250D01*
X206092500Y-196768250D02*
X121542500Y-196768250D01*
X298242500Y-196768250D02*
X213692500Y-196768250D01*
X206092500Y-93218250D02*
G75*
G02*
X207042500Y-94168250I0J-950000D01*
G01*
X30342500Y-93218250D02*
X113942500Y-93218250D01*
X213692500Y-196768250D02*
G75*
G02*
X212742500Y-195818250I0J950000D01*
G01*
X121542500Y-196768250D02*
G75*
G02*
X120592500Y-195818250I0J950000D01*
G01*
X120592500Y-94168250D02*
G75*
G02*
X121542500Y-93218250I950000J0D01*
G01*
X390392500Y-93218250D02*
G75*
G02*
X391342500Y-94168250I0J-950000D01*
G01*
X121542500Y-93218250D02*
X206092500Y-93218250D01*
X212742500Y-94168250D02*
G75*
G02*
X213692500Y-93218250I950000J0D01*
G01*
X29392500Y-196768250D02*
G75*
G02*
X28442500Y-195818250I0J950000D01*
G01*
X28442500Y-94168250D02*
G75*
G02*
X29392500Y-93218250I950000J0D01*
G01*
X213692500Y-93218250D02*
X298242500Y-93218250D01*
X207042500Y-195818250D02*
G75*
G02*
X212742500Y-195818250I2850000J0D01*
G01*
X114892500Y-195818250D02*
G75*
G02*
X120592500Y-195818250I2850000J0D01*
G01*
X299192500Y-195818250D02*
G75*
G02*
X298242500Y-196768250I-950000J0D01*
G01*
X113942500Y-196768250D02*
X29392500Y-196768250D01*
X113942500Y-93218250D02*
G75*
G02*
X114892500Y-94168250I0J-950000D01*
G01*
X114892500Y-195818250D02*
G75*
G02*
X113942500Y-196768250I-950000J0D01*
G01*
X304892500Y-94168250D02*
G75*
G02*
X299192500Y-94168250I-2850000J0D01*
G01*
X305842500Y-93218250D02*
X390392500Y-93218250D01*
X120592500Y-94168250D02*
G75*
G02*
X114892500Y-94168250I-2850000J0D01*
G01*
X305842500Y-196768250D02*
X390392500Y-196768250D01*
X299192500Y-195818250D02*
G75*
G02*
X304892500Y-195818250I2850000J0D01*
G01*
X305842500Y-196768250D02*
G75*
G02*
X304892500Y-195818250I0J950000D01*
G01*
X391342500Y-195818250D02*
X391342500Y-94168250D01*
X30342500Y-93218250D02*
X29392500Y-93218250D01*
X391342500Y-195818250D02*
G75*
G02*
X390392500Y-196768250I-950000J0D01*
G01*
X304892500Y-94168250D02*
G75*
G02*
X305842500Y-93218250I950000J0D01*
G01*
X212742500Y-94168250D02*
G75*
G02*
X207042500Y-94168250I-2850000J0D01*
G01*
X28442500Y-194868250D02*
X28442500Y-195818250D01*
D11*
X390074000Y-153659000D02*
X387674000Y-153659000D01*
X390074000Y-153834000D02*
X387674000Y-153834000D01*
X390074000Y-154009000D02*
X387674000Y-154009000D01*
X387674000Y-154409000D02*
X390074000Y-154409000D01*
X390074000Y-154184000D02*
X387674000Y-154184000D01*
X390074000Y-154309000D02*
X387674000Y-154309000D01*
X390074000Y-154384000D02*
X390074000Y-148584000D01*
X390074000Y-148584000D02*
X387674000Y-148584000D01*
X387674000Y-148584000D02*
X387674000Y-154384000D01*
D12*
X48677500Y-123989400D02*
X66457500Y-123989400D01*
X48677500Y-93509400D02*
X48677500Y-123989400D01*
X53757500Y-93509400D02*
X48677500Y-93509400D01*
X53757500Y-90969400D02*
X53757500Y-93509400D01*
X61377500Y-90969400D02*
X53757500Y-90969400D01*
X61377500Y-93509400D02*
X61377500Y-90969400D01*
X66457500Y-93509400D02*
X61377500Y-93509400D01*
X66457500Y-93509400D02*
X66457500Y-123989400D01*
D11*
X155561000Y-96312000D02*
X149761000Y-96312000D01*
X155561000Y-98712000D02*
X155561000Y-96312000D01*
X149761000Y-98712000D02*
X155561000Y-98712000D01*
X149836000Y-98712000D02*
X149836000Y-96312000D01*
X149961000Y-98712000D02*
X149961000Y-96312000D01*
X149736000Y-96312000D02*
X149736000Y-98712000D01*
X150136000Y-98712000D02*
X150136000Y-96312000D01*
X150311000Y-98712000D02*
X150311000Y-96312000D01*
X150486000Y-98712000D02*
X150486000Y-96312000D01*
X279073000Y-136812000D02*
X279073000Y-134412000D01*
X278898000Y-136812000D02*
X278898000Y-134412000D01*
X278723000Y-136812000D02*
X278723000Y-134412000D01*
X278323000Y-134412000D02*
X278323000Y-136812000D01*
X278548000Y-136812000D02*
X278548000Y-134412000D01*
X278423000Y-136812000D02*
X278423000Y-134412000D01*
X278348000Y-136812000D02*
X284148000Y-136812000D01*
X284148000Y-136812000D02*
X284148000Y-134412000D01*
X284148000Y-134412000D02*
X278348000Y-134412000D01*
X120280000Y-174912000D02*
X120280000Y-172512000D01*
X120105000Y-174912000D02*
X120105000Y-172512000D01*
X119930000Y-174912000D02*
X119930000Y-172512000D01*
X119530000Y-172512000D02*
X119530000Y-174912000D01*
X119755000Y-174912000D02*
X119755000Y-172512000D01*
X119630000Y-174912000D02*
X119630000Y-172512000D01*
X119555000Y-174912000D02*
X125355000Y-174912000D01*
X125355000Y-174912000D02*
X125355000Y-172512000D01*
X125355000Y-172512000D02*
X119555000Y-172512000D01*
X79361200Y-134412000D02*
X73561200Y-134412000D01*
X79361200Y-136812000D02*
X79361200Y-134412000D01*
X73561200Y-136812000D02*
X79361200Y-136812000D01*
X73636200Y-136812000D02*
X73636200Y-134412000D01*
X73761200Y-136812000D02*
X73761200Y-134412000D01*
X73536200Y-134412000D02*
X73536200Y-136812000D01*
X73936200Y-136812000D02*
X73936200Y-134412000D01*
X74111200Y-136812000D02*
X74111200Y-134412000D01*
X74286200Y-136812000D02*
X74286200Y-134412000D01*
X55236200Y-98712000D02*
X55236200Y-96312000D01*
X55061200Y-98712000D02*
X55061200Y-96312000D01*
X54886200Y-98712000D02*
X54886200Y-96312000D01*
X54486200Y-96312000D02*
X54486200Y-98712000D01*
X54711200Y-98712000D02*
X54711200Y-96312000D01*
X54586200Y-98712000D02*
X54586200Y-96312000D01*
X54511200Y-98712000D02*
X60311200Y-98712000D01*
X60311200Y-98712000D02*
X60311200Y-96312000D01*
X60311200Y-96312000D02*
X54511200Y-96312000D01*
X317173000Y-136812000D02*
X317173000Y-134412000D01*
X316998000Y-136812000D02*
X316998000Y-134412000D01*
X316823000Y-136812000D02*
X316823000Y-134412000D01*
X316423000Y-134412000D02*
X316423000Y-136812000D01*
X316648000Y-136812000D02*
X316648000Y-134412000D01*
X316523000Y-136812000D02*
X316523000Y-134412000D01*
X316448000Y-136812000D02*
X322248000Y-136812000D01*
X322248000Y-136812000D02*
X322248000Y-134412000D01*
X322248000Y-134412000D02*
X316448000Y-134412000D01*
X79361200Y-115362000D02*
X73561200Y-115362000D01*
X79361200Y-117762000D02*
X79361200Y-115362000D01*
X73561200Y-117762000D02*
X79361200Y-117762000D01*
X73636200Y-117762000D02*
X73636200Y-115362000D01*
X73761200Y-117762000D02*
X73761200Y-115362000D01*
X73536200Y-115362000D02*
X73536200Y-117762000D01*
X73936200Y-117762000D02*
X73936200Y-115362000D01*
X74111200Y-117762000D02*
X74111200Y-115362000D01*
X74286200Y-117762000D02*
X74286200Y-115362000D01*
X36186200Y-155862000D02*
X36186200Y-153462000D01*
X36011200Y-155862000D02*
X36011200Y-153462000D01*
X35836200Y-155862000D02*
X35836200Y-153462000D01*
X35436200Y-153462000D02*
X35436200Y-155862000D01*
X35661200Y-155862000D02*
X35661200Y-153462000D01*
X35536200Y-155862000D02*
X35536200Y-153462000D01*
X35461200Y-155862000D02*
X41261200Y-155862000D01*
X41261200Y-155862000D02*
X41261200Y-153462000D01*
X41261200Y-153462000D02*
X35461200Y-153462000D01*
X179061000Y-117762000D02*
X179061000Y-115362000D01*
X178886000Y-117762000D02*
X178886000Y-115362000D01*
X178711000Y-117762000D02*
X178711000Y-115362000D01*
X178311000Y-115362000D02*
X178311000Y-117762000D01*
X178536000Y-117762000D02*
X178536000Y-115362000D01*
X178411000Y-117762000D02*
X178411000Y-115362000D01*
X178336000Y-117762000D02*
X184136000Y-117762000D01*
X184136000Y-117762000D02*
X184136000Y-115362000D01*
X184136000Y-115362000D02*
X178336000Y-115362000D01*
X179374000Y-153462000D02*
X173574000Y-153462000D01*
X179374000Y-155862000D02*
X179374000Y-153462000D01*
X173574000Y-155862000D02*
X179374000Y-155862000D01*
X173649000Y-155862000D02*
X173649000Y-153462000D01*
X173774000Y-155862000D02*
X173774000Y-153462000D01*
X173549000Y-153462000D02*
X173549000Y-155862000D01*
X173949000Y-155862000D02*
X173949000Y-153462000D01*
X174124000Y-155862000D02*
X174124000Y-153462000D01*
X174299000Y-155862000D02*
X174299000Y-153462000D01*
X164773000Y-136812000D02*
X164773000Y-134412000D01*
X164598000Y-136812000D02*
X164598000Y-134412000D01*
X164423000Y-136812000D02*
X164423000Y-134412000D01*
X164023000Y-134412000D02*
X164023000Y-136812000D01*
X164248000Y-136812000D02*
X164248000Y-134412000D01*
X164123000Y-136812000D02*
X164123000Y-134412000D01*
X164048000Y-136812000D02*
X169848000Y-136812000D01*
X169848000Y-136812000D02*
X169848000Y-134412000D01*
X169848000Y-134412000D02*
X164048000Y-134412000D01*
X93336200Y-98712000D02*
X93336200Y-96312000D01*
X93161200Y-98712000D02*
X93161200Y-96312000D01*
X92986200Y-98712000D02*
X92986200Y-96312000D01*
X92586200Y-96312000D02*
X92586200Y-98712000D01*
X92811200Y-98712000D02*
X92811200Y-96312000D01*
X92686200Y-98712000D02*
X92686200Y-96312000D01*
X92611200Y-98712000D02*
X98411200Y-98712000D01*
X98411200Y-98712000D02*
X98411200Y-96312000D01*
X98411200Y-96312000D02*
X92611200Y-96312000D01*
X79361200Y-96312000D02*
X73561200Y-96312000D01*
X79361200Y-98712000D02*
X79361200Y-96312000D01*
X73561200Y-98712000D02*
X79361200Y-98712000D01*
X73636200Y-98712000D02*
X73636200Y-96312000D01*
X73761200Y-98712000D02*
X73761200Y-96312000D01*
X73536200Y-96312000D02*
X73536200Y-98712000D01*
X73936200Y-98712000D02*
X73936200Y-96312000D01*
X74111200Y-98712000D02*
X74111200Y-96312000D01*
X74286200Y-98712000D02*
X74286200Y-96312000D01*
X165086000Y-115362000D02*
X159286000Y-115362000D01*
X165086000Y-117762000D02*
X165086000Y-115362000D01*
X159286000Y-117762000D02*
X165086000Y-117762000D01*
X159361000Y-117762000D02*
X159361000Y-115362000D01*
X159486000Y-117762000D02*
X159486000Y-115362000D01*
X159261000Y-115362000D02*
X159261000Y-117762000D01*
X159661000Y-117762000D02*
X159661000Y-115362000D01*
X159836000Y-117762000D02*
X159836000Y-115362000D01*
X160011000Y-117762000D02*
X160011000Y-115362000D01*
X74242500Y-174912000D02*
X74242500Y-172512000D01*
X74067500Y-174912000D02*
X74067500Y-172512000D01*
X73892500Y-174912000D02*
X73892500Y-172512000D01*
X73492500Y-172512000D02*
X73492500Y-174912000D01*
X73717500Y-174912000D02*
X73717500Y-172512000D01*
X73592500Y-174912000D02*
X73592500Y-172512000D01*
X73517500Y-174912000D02*
X79317500Y-174912000D01*
X79317500Y-174912000D02*
X79317500Y-172512000D01*
X79317500Y-172512000D02*
X73517500Y-172512000D01*
X364542000Y-171805800D02*
X364542000Y-174205800D01*
X364717000Y-171805800D02*
X364717000Y-174205800D01*
X364892000Y-171805800D02*
X364892000Y-174205800D01*
X365292000Y-174205800D02*
X365292000Y-171805800D01*
X365067000Y-171805800D02*
X365067000Y-174205800D01*
X365192000Y-171805800D02*
X365192000Y-174205800D01*
X365267000Y-171805800D02*
X359467000Y-171805800D01*
X359467000Y-171805800D02*
X359467000Y-174205800D01*
X359467000Y-174205800D02*
X365267000Y-174205800D01*
X333586000Y-172512000D02*
X333586000Y-174912000D01*
X333761000Y-172512000D02*
X333761000Y-174912000D01*
X333936000Y-172512000D02*
X333936000Y-174912000D01*
X334336000Y-174912000D02*
X334336000Y-172512000D01*
X334111000Y-172512000D02*
X334111000Y-174912000D01*
X334236000Y-172512000D02*
X334236000Y-174912000D01*
X334311000Y-172512000D02*
X328511000Y-172512000D01*
X328511000Y-172512000D02*
X328511000Y-174912000D01*
X328511000Y-174912000D02*
X334311000Y-174912000D01*
X226998000Y-134412000D02*
X221198000Y-134412000D01*
X226998000Y-136812000D02*
X226998000Y-134412000D01*
X221198000Y-136812000D02*
X226998000Y-136812000D01*
X221273000Y-136812000D02*
X221273000Y-134412000D01*
X221398000Y-136812000D02*
X221398000Y-134412000D01*
X221173000Y-134412000D02*
X221173000Y-136812000D01*
X221573000Y-136812000D02*
X221573000Y-134412000D01*
X221748000Y-136812000D02*
X221748000Y-134412000D01*
X221923000Y-136812000D02*
X221923000Y-134412000D01*
X321936000Y-98712000D02*
X321936000Y-96312000D01*
X321761000Y-98712000D02*
X321761000Y-96312000D01*
X321586000Y-98712000D02*
X321586000Y-96312000D01*
X321186000Y-96312000D02*
X321186000Y-98712000D01*
X321411000Y-98712000D02*
X321411000Y-96312000D01*
X321286000Y-98712000D02*
X321286000Y-96312000D01*
X321211000Y-98712000D02*
X327011000Y-98712000D01*
X327011000Y-98712000D02*
X327011000Y-96312000D01*
X327011000Y-96312000D02*
X321211000Y-96312000D01*
X87286200Y-137887000D02*
X84886200Y-137887000D01*
X87286200Y-138062000D02*
X84886200Y-138062000D01*
X87286200Y-138237000D02*
X84886200Y-138237000D01*
X84886200Y-138637000D02*
X87286200Y-138637000D01*
X87286200Y-138412000D02*
X84886200Y-138412000D01*
X87286200Y-138537000D02*
X84886200Y-138537000D01*
X87286200Y-138612000D02*
X87286200Y-132812000D01*
X87286200Y-132812000D02*
X84886200Y-132812000D01*
X84886200Y-132812000D02*
X84886200Y-138612000D01*
X220636000Y-109312000D02*
X218236000Y-109312000D01*
X220636000Y-109487000D02*
X218236000Y-109487000D01*
X220636000Y-109662000D02*
X218236000Y-109662000D01*
X218236000Y-110062000D02*
X220636000Y-110062000D01*
X220636000Y-109837000D02*
X218236000Y-109837000D01*
X220636000Y-109962000D02*
X218236000Y-109962000D01*
X220636000Y-110037000D02*
X220636000Y-104237000D01*
X220636000Y-104237000D02*
X218236000Y-104237000D01*
X218236000Y-104237000D02*
X218236000Y-110037000D01*
X60311200Y-153462000D02*
X54511200Y-153462000D01*
X60311200Y-155862000D02*
X60311200Y-153462000D01*
X54511200Y-155862000D02*
X60311200Y-155862000D01*
X54586200Y-155862000D02*
X54586200Y-153462000D01*
X54711200Y-155862000D02*
X54711200Y-153462000D01*
X54486200Y-153462000D02*
X54486200Y-155862000D01*
X54886200Y-155862000D02*
X54886200Y-153462000D01*
X55061200Y-155862000D02*
X55061200Y-153462000D01*
X55236200Y-155862000D02*
X55236200Y-153462000D01*
X41261200Y-115362000D02*
X35461200Y-115362000D01*
X41261200Y-117762000D02*
X41261200Y-115362000D01*
X35461200Y-117762000D02*
X41261200Y-117762000D01*
X35536200Y-117762000D02*
X35536200Y-115362000D01*
X35661200Y-117762000D02*
X35661200Y-115362000D01*
X35436200Y-115362000D02*
X35436200Y-117762000D01*
X35836200Y-117762000D02*
X35836200Y-115362000D01*
X36011200Y-117762000D02*
X36011200Y-115362000D01*
X36186200Y-117762000D02*
X36186200Y-115362000D01*
X119799000Y-153462000D02*
X113999000Y-153462000D01*
X119799000Y-155862000D02*
X119799000Y-153462000D01*
X113999000Y-155862000D02*
X119799000Y-155862000D01*
X114074000Y-155862000D02*
X114074000Y-153462000D01*
X114199000Y-155862000D02*
X114199000Y-153462000D01*
X113974000Y-153462000D02*
X113974000Y-155862000D01*
X114374000Y-155862000D02*
X114374000Y-153462000D01*
X114549000Y-155862000D02*
X114549000Y-153462000D01*
X114724000Y-155862000D02*
X114724000Y-153462000D01*
X265098000Y-134412000D02*
X259298000Y-134412000D01*
X265098000Y-136812000D02*
X265098000Y-134412000D01*
X259298000Y-136812000D02*
X265098000Y-136812000D01*
X259373000Y-136812000D02*
X259373000Y-134412000D01*
X259498000Y-136812000D02*
X259498000Y-134412000D01*
X259273000Y-134412000D02*
X259273000Y-136812000D01*
X259673000Y-136812000D02*
X259673000Y-134412000D01*
X259848000Y-136812000D02*
X259848000Y-134412000D01*
X260023000Y-136812000D02*
X260023000Y-134412000D01*
X313486000Y-104237000D02*
X313486000Y-110037000D01*
X315886000Y-104237000D02*
X313486000Y-104237000D01*
X315886000Y-110037000D02*
X315886000Y-104237000D01*
X315886000Y-109962000D02*
X313486000Y-109962000D01*
X315886000Y-109837000D02*
X313486000Y-109837000D01*
X313486000Y-110062000D02*
X315886000Y-110062000D01*
X315886000Y-109662000D02*
X313486000Y-109662000D01*
X315886000Y-109487000D02*
X313486000Y-109487000D01*
X315886000Y-109312000D02*
X313486000Y-109312000D01*
X307649000Y-155862000D02*
X307649000Y-153462000D01*
X307474000Y-155862000D02*
X307474000Y-153462000D01*
X307299000Y-155862000D02*
X307299000Y-153462000D01*
X306899000Y-153462000D02*
X306899000Y-155862000D01*
X307124000Y-155862000D02*
X307124000Y-153462000D01*
X306999000Y-155862000D02*
X306999000Y-153462000D01*
X306924000Y-155862000D02*
X312724000Y-155862000D01*
X312724000Y-155862000D02*
X312724000Y-153462000D01*
X312724000Y-153462000D02*
X306924000Y-153462000D01*
X389661000Y-137180800D02*
X387261000Y-137180800D01*
X389661000Y-137355800D02*
X387261000Y-137355800D01*
X389661000Y-137530800D02*
X387261000Y-137530800D01*
X387261000Y-137930800D02*
X389661000Y-137930800D01*
X389661000Y-137705800D02*
X387261000Y-137705800D01*
X389661000Y-137830800D02*
X387261000Y-137830800D01*
X389661000Y-137905800D02*
X389661000Y-132105800D01*
X389661000Y-132105800D02*
X387261000Y-132105800D01*
X387261000Y-132105800D02*
X387261000Y-137905800D01*
X217474000Y-153462000D02*
X211674000Y-153462000D01*
X217474000Y-155862000D02*
X217474000Y-153462000D01*
X211674000Y-155862000D02*
X217474000Y-155862000D01*
X211749000Y-155862000D02*
X211749000Y-153462000D01*
X211874000Y-155862000D02*
X211874000Y-153462000D01*
X211649000Y-153462000D02*
X211649000Y-155862000D01*
X212049000Y-155862000D02*
X212049000Y-153462000D01*
X212224000Y-155862000D02*
X212224000Y-153462000D01*
X212399000Y-155862000D02*
X212399000Y-153462000D01*
X198424000Y-153462000D02*
X192624000Y-153462000D01*
X198424000Y-155862000D02*
X198424000Y-153462000D01*
X192624000Y-155862000D02*
X198424000Y-155862000D01*
X192699000Y-155862000D02*
X192699000Y-153462000D01*
X192824000Y-155862000D02*
X192824000Y-153462000D01*
X192599000Y-153462000D02*
X192599000Y-155862000D01*
X192999000Y-155862000D02*
X192999000Y-153462000D01*
X193174000Y-155862000D02*
X193174000Y-153462000D01*
X193349000Y-155862000D02*
X193349000Y-153462000D01*
X355230000Y-136812000D02*
X355230000Y-134412000D01*
X355055000Y-136812000D02*
X355055000Y-134412000D01*
X354880000Y-136812000D02*
X354880000Y-134412000D01*
X354480000Y-134412000D02*
X354480000Y-136812000D01*
X354705000Y-136812000D02*
X354705000Y-134412000D01*
X354580000Y-136812000D02*
X354580000Y-134412000D01*
X354505000Y-136812000D02*
X360305000Y-136812000D01*
X360305000Y-136812000D02*
X360305000Y-134412000D01*
X360305000Y-134412000D02*
X354505000Y-134412000D01*
X41261200Y-134412000D02*
X35461200Y-134412000D01*
X41261200Y-136812000D02*
X41261200Y-134412000D01*
X35461200Y-136812000D02*
X41261200Y-136812000D01*
X35536200Y-136812000D02*
X35536200Y-134412000D01*
X35661200Y-136812000D02*
X35661200Y-134412000D01*
X35436200Y-134412000D02*
X35436200Y-136812000D01*
X35836200Y-136812000D02*
X35836200Y-134412000D01*
X36011200Y-136812000D02*
X36011200Y-134412000D01*
X36186200Y-136812000D02*
X36186200Y-134412000D01*
X274624000Y-153462000D02*
X268824000Y-153462000D01*
X274624000Y-155862000D02*
X274624000Y-153462000D01*
X268824000Y-155862000D02*
X274624000Y-155862000D01*
X268899000Y-155862000D02*
X268899000Y-153462000D01*
X269024000Y-155862000D02*
X269024000Y-153462000D01*
X268799000Y-153462000D02*
X268799000Y-155862000D01*
X269199000Y-155862000D02*
X269199000Y-153462000D01*
X269374000Y-155862000D02*
X269374000Y-153462000D01*
X269549000Y-155862000D02*
X269549000Y-153462000D01*
X288911000Y-96312000D02*
X283111000Y-96312000D01*
X288911000Y-98712000D02*
X288911000Y-96312000D01*
X283111000Y-98712000D02*
X288911000Y-98712000D01*
X283186000Y-98712000D02*
X283186000Y-96312000D01*
X283311000Y-98712000D02*
X283311000Y-96312000D01*
X283086000Y-96312000D02*
X283086000Y-98712000D01*
X283486000Y-98712000D02*
X283486000Y-96312000D01*
X283661000Y-98712000D02*
X283661000Y-96312000D01*
X283836000Y-98712000D02*
X283836000Y-96312000D01*
X331730000Y-153462000D02*
X325930000Y-153462000D01*
X331730000Y-155862000D02*
X331730000Y-153462000D01*
X325930000Y-155862000D02*
X331730000Y-155862000D01*
X326005000Y-155862000D02*
X326005000Y-153462000D01*
X326130000Y-155862000D02*
X326130000Y-153462000D01*
X325905000Y-153462000D02*
X325905000Y-155862000D01*
X326305000Y-155862000D02*
X326305000Y-153462000D01*
X326480000Y-155862000D02*
X326480000Y-153462000D01*
X326655000Y-155862000D02*
X326655000Y-153462000D01*
X369561000Y-98712000D02*
X369561000Y-96312000D01*
X369386000Y-98712000D02*
X369386000Y-96312000D01*
X369211000Y-98712000D02*
X369211000Y-96312000D01*
X368811000Y-96312000D02*
X368811000Y-98712000D01*
X369036000Y-98712000D02*
X369036000Y-96312000D01*
X368911000Y-98712000D02*
X368911000Y-96312000D01*
X368836000Y-98712000D02*
X374636000Y-98712000D01*
X374636000Y-98712000D02*
X374636000Y-96312000D01*
X374636000Y-96312000D02*
X368836000Y-96312000D01*
X55236200Y-136812000D02*
X55236200Y-134412000D01*
X55061200Y-136812000D02*
X55061200Y-134412000D01*
X54886200Y-136812000D02*
X54886200Y-134412000D01*
X54486200Y-134412000D02*
X54486200Y-136812000D01*
X54711200Y-136812000D02*
X54711200Y-134412000D01*
X54586200Y-136812000D02*
X54586200Y-134412000D01*
X54511200Y-136812000D02*
X60311200Y-136812000D01*
X60311200Y-136812000D02*
X60311200Y-134412000D01*
X60311200Y-134412000D02*
X54511200Y-134412000D01*
X245736000Y-98712000D02*
X245736000Y-96312000D01*
X245561000Y-98712000D02*
X245561000Y-96312000D01*
X245386000Y-98712000D02*
X245386000Y-96312000D01*
X244986000Y-96312000D02*
X244986000Y-98712000D01*
X245211000Y-98712000D02*
X245211000Y-96312000D01*
X245086000Y-98712000D02*
X245086000Y-96312000D01*
X245011000Y-98712000D02*
X250811000Y-98712000D01*
X250811000Y-98712000D02*
X250811000Y-96312000D01*
X250811000Y-96312000D02*
X245011000Y-96312000D01*
X136199000Y-155862000D02*
X136199000Y-153462000D01*
X136024000Y-155862000D02*
X136024000Y-153462000D01*
X135849000Y-155862000D02*
X135849000Y-153462000D01*
X135449000Y-153462000D02*
X135449000Y-155862000D01*
X135674000Y-155862000D02*
X135674000Y-153462000D01*
X135549000Y-155862000D02*
X135549000Y-153462000D01*
X135474000Y-155862000D02*
X141274000Y-155862000D01*
X141274000Y-155862000D02*
X141274000Y-153462000D01*
X141274000Y-153462000D02*
X135474000Y-153462000D01*
X331461000Y-117762000D02*
X331461000Y-115362000D01*
X331286000Y-117762000D02*
X331286000Y-115362000D01*
X331111000Y-117762000D02*
X331111000Y-115362000D01*
X330711000Y-115362000D02*
X330711000Y-117762000D01*
X330936000Y-117762000D02*
X330936000Y-115362000D01*
X330811000Y-117762000D02*
X330811000Y-115362000D01*
X330736000Y-117762000D02*
X336536000Y-117762000D01*
X336536000Y-117762000D02*
X336536000Y-115362000D01*
X336536000Y-115362000D02*
X330736000Y-115362000D01*
X55236200Y-117762000D02*
X55236200Y-115362000D01*
X55061200Y-117762000D02*
X55061200Y-115362000D01*
X54886200Y-117762000D02*
X54886200Y-115362000D01*
X54486200Y-115362000D02*
X54486200Y-117762000D01*
X54711200Y-117762000D02*
X54711200Y-115362000D01*
X54586200Y-117762000D02*
X54586200Y-115362000D01*
X54511200Y-117762000D02*
X60311200Y-117762000D01*
X60311200Y-117762000D02*
X60311200Y-115362000D01*
X60311200Y-115362000D02*
X54511200Y-115362000D01*
X367449000Y-152755800D02*
X361649000Y-152755800D01*
X367449000Y-155155800D02*
X367449000Y-152755800D01*
X361649000Y-155155800D02*
X367449000Y-155155800D01*
X361724000Y-155155800D02*
X361724000Y-152755800D01*
X361849000Y-155155800D02*
X361849000Y-152755800D01*
X361624000Y-152755800D02*
X361624000Y-155155800D01*
X362024000Y-155155800D02*
X362024000Y-152755800D01*
X362199000Y-155155800D02*
X362199000Y-152755800D01*
X362374000Y-155155800D02*
X362374000Y-152755800D01*
D13*
X88836200Y-101143200D02*
X88836200Y-98643200D01*
X87086200Y-102643200D02*
X85086200Y-102643200D01*
X83336200Y-101143200D02*
X83336200Y-98643200D01*
X87086200Y-97143200D02*
X85086200Y-97143200D01*
X88386200Y-101593200D02*
X88836200Y-101143200D01*
X88386200Y-98193200D02*
X88836200Y-98643200D01*
X83786200Y-98193200D02*
X83336200Y-98643200D01*
X83786200Y-101593200D02*
X83336200Y-101143200D01*
D11*
X119530000Y-136812000D02*
X119530000Y-134412000D01*
X119355000Y-136812000D02*
X119355000Y-134412000D01*
X119180000Y-136812000D02*
X119180000Y-134412000D01*
X118780000Y-134412000D02*
X118780000Y-136812000D01*
X119005000Y-136812000D02*
X119005000Y-134412000D01*
X118880000Y-136812000D02*
X118880000Y-134412000D01*
X118805000Y-136812000D02*
X124605000Y-136812000D01*
X124605000Y-136812000D02*
X124605000Y-134412000D01*
X124605000Y-134412000D02*
X118805000Y-134412000D01*
X87286200Y-175987000D02*
X84886200Y-175987000D01*
X87286200Y-176162000D02*
X84886200Y-176162000D01*
X87286200Y-176337000D02*
X84886200Y-176337000D01*
X84886200Y-176737000D02*
X87286200Y-176737000D01*
X87286200Y-176512000D02*
X84886200Y-176512000D01*
X87286200Y-176637000D02*
X84886200Y-176637000D01*
X87286200Y-176712000D02*
X87286200Y-170912000D01*
X87286200Y-170912000D02*
X84886200Y-170912000D01*
X84886200Y-170912000D02*
X84886200Y-176712000D01*
X122224000Y-115362000D02*
X116424000Y-115362000D01*
X122224000Y-117762000D02*
X122224000Y-115362000D01*
X116424000Y-117762000D02*
X122224000Y-117762000D01*
X116499000Y-117762000D02*
X116499000Y-115362000D01*
X116624000Y-117762000D02*
X116624000Y-115362000D01*
X116399000Y-115362000D02*
X116399000Y-117762000D01*
X116799000Y-117762000D02*
X116799000Y-115362000D01*
X116974000Y-117762000D02*
X116974000Y-115362000D01*
X117149000Y-117762000D02*
X117149000Y-115362000D01*
X346061000Y-96312000D02*
X340261000Y-96312000D01*
X346061000Y-98712000D02*
X346061000Y-96312000D01*
X340261000Y-98712000D02*
X346061000Y-98712000D01*
X340336000Y-98712000D02*
X340336000Y-96312000D01*
X340461000Y-98712000D02*
X340461000Y-96312000D01*
X340236000Y-96312000D02*
X340236000Y-98712000D01*
X340636000Y-98712000D02*
X340636000Y-96312000D01*
X340811000Y-98712000D02*
X340811000Y-96312000D01*
X340986000Y-98712000D02*
X340986000Y-96312000D01*
X293361000Y-117762000D02*
X293361000Y-115362000D01*
X293186000Y-117762000D02*
X293186000Y-115362000D01*
X293011000Y-117762000D02*
X293011000Y-115362000D01*
X292611000Y-115362000D02*
X292611000Y-117762000D01*
X292836000Y-117762000D02*
X292836000Y-115362000D01*
X292711000Y-117762000D02*
X292711000Y-115362000D01*
X292636000Y-117762000D02*
X298436000Y-117762000D01*
X298436000Y-117762000D02*
X298436000Y-115362000D01*
X298436000Y-115362000D02*
X292636000Y-115362000D01*
X279386000Y-115362000D02*
X273586000Y-115362000D01*
X279386000Y-117762000D02*
X279386000Y-115362000D01*
X273586000Y-117762000D02*
X279386000Y-117762000D01*
X273661000Y-117762000D02*
X273661000Y-115362000D01*
X273786000Y-117762000D02*
X273786000Y-115362000D01*
X273561000Y-115362000D02*
X273561000Y-117762000D01*
X273961000Y-117762000D02*
X273961000Y-115362000D01*
X274136000Y-117762000D02*
X274136000Y-115362000D01*
X274311000Y-117762000D02*
X274311000Y-115362000D01*
X193661000Y-96312000D02*
X187861000Y-96312000D01*
X193661000Y-98712000D02*
X193661000Y-96312000D01*
X187861000Y-98712000D02*
X193661000Y-98712000D01*
X187936000Y-98712000D02*
X187936000Y-96312000D01*
X188061000Y-98712000D02*
X188061000Y-96312000D01*
X187836000Y-96312000D02*
X187836000Y-98712000D01*
X188236000Y-98712000D02*
X188236000Y-96312000D01*
X188411000Y-98712000D02*
X188411000Y-96312000D01*
X188586000Y-98712000D02*
X188586000Y-96312000D01*
X250499000Y-155862000D02*
X250499000Y-153462000D01*
X250324000Y-155862000D02*
X250324000Y-153462000D01*
X250149000Y-155862000D02*
X250149000Y-153462000D01*
X249749000Y-153462000D02*
X249749000Y-155862000D01*
X249974000Y-155862000D02*
X249974000Y-153462000D01*
X249849000Y-155862000D02*
X249849000Y-153462000D01*
X249774000Y-155862000D02*
X255574000Y-155862000D01*
X255574000Y-155862000D02*
X255574000Y-153462000D01*
X255574000Y-153462000D02*
X249774000Y-153462000D01*
X162349000Y-174912000D02*
X162349000Y-172512000D01*
X162174000Y-174912000D02*
X162174000Y-172512000D01*
X161999000Y-174912000D02*
X161999000Y-172512000D01*
X161599000Y-172512000D02*
X161599000Y-174912000D01*
X161824000Y-174912000D02*
X161824000Y-172512000D01*
X161699000Y-174912000D02*
X161699000Y-172512000D01*
X161624000Y-174912000D02*
X167424000Y-174912000D01*
X167424000Y-174912000D02*
X167424000Y-172512000D01*
X167424000Y-172512000D02*
X161624000Y-172512000D01*
X305224000Y-174912000D02*
X305224000Y-172512000D01*
X305049000Y-174912000D02*
X305049000Y-172512000D01*
X304874000Y-174912000D02*
X304874000Y-172512000D01*
X304474000Y-172512000D02*
X304474000Y-174912000D01*
X304699000Y-174912000D02*
X304699000Y-172512000D01*
X304574000Y-174912000D02*
X304574000Y-172512000D01*
X304499000Y-174912000D02*
X310299000Y-174912000D01*
X310299000Y-174912000D02*
X310299000Y-172512000D01*
X310299000Y-172512000D02*
X304499000Y-172512000D01*
X303198000Y-134412000D02*
X297398000Y-134412000D01*
X303198000Y-136812000D02*
X303198000Y-134412000D01*
X297398000Y-136812000D02*
X303198000Y-136812000D01*
X297473000Y-136812000D02*
X297473000Y-134412000D01*
X297598000Y-136812000D02*
X297598000Y-134412000D01*
X297373000Y-134412000D02*
X297373000Y-136812000D01*
X297773000Y-136812000D02*
X297773000Y-134412000D01*
X297948000Y-136812000D02*
X297948000Y-134412000D01*
X298123000Y-136812000D02*
X298123000Y-134412000D01*
X50742500Y-172512000D02*
X44942500Y-172512000D01*
X50742500Y-174912000D02*
X50742500Y-172512000D01*
X44942500Y-174912000D02*
X50742500Y-174912000D01*
X45017500Y-174912000D02*
X45017500Y-172512000D01*
X45142500Y-174912000D02*
X45142500Y-172512000D01*
X44917500Y-172512000D02*
X44917500Y-174912000D01*
X45317500Y-174912000D02*
X45317500Y-172512000D01*
X45492500Y-174912000D02*
X45492500Y-172512000D01*
X45667500Y-174912000D02*
X45667500Y-172512000D01*
X233786000Y-174912000D02*
X233786000Y-172512000D01*
X233611000Y-174912000D02*
X233611000Y-172512000D01*
X233436000Y-174912000D02*
X233436000Y-172512000D01*
X233036000Y-172512000D02*
X233036000Y-174912000D01*
X233261000Y-174912000D02*
X233261000Y-172512000D01*
X233136000Y-174912000D02*
X233136000Y-172512000D01*
X233061000Y-174912000D02*
X238861000Y-174912000D01*
X238861000Y-174912000D02*
X238861000Y-172512000D01*
X238861000Y-172512000D02*
X233061000Y-172512000D01*
X169536000Y-98712000D02*
X169536000Y-96312000D01*
X169361000Y-98712000D02*
X169361000Y-96312000D01*
X169186000Y-98712000D02*
X169186000Y-96312000D01*
X168786000Y-96312000D02*
X168786000Y-98712000D01*
X169011000Y-98712000D02*
X169011000Y-96312000D01*
X168886000Y-98712000D02*
X168886000Y-96312000D01*
X168811000Y-98712000D02*
X174611000Y-98712000D01*
X174611000Y-98712000D02*
X174611000Y-96312000D01*
X174611000Y-96312000D02*
X168811000Y-96312000D01*
X222236000Y-115362000D02*
X216436000Y-115362000D01*
X222236000Y-117762000D02*
X222236000Y-115362000D01*
X216436000Y-117762000D02*
X222236000Y-117762000D01*
X216511000Y-117762000D02*
X216511000Y-115362000D01*
X216636000Y-117762000D02*
X216636000Y-115362000D01*
X216411000Y-115362000D02*
X216411000Y-117762000D01*
X216811000Y-117762000D02*
X216811000Y-115362000D01*
X216986000Y-117762000D02*
X216986000Y-115362000D01*
X217161000Y-117762000D02*
X217161000Y-115362000D01*
X269861000Y-96312000D02*
X264061000Y-96312000D01*
X269861000Y-98712000D02*
X269861000Y-96312000D01*
X264061000Y-98712000D02*
X269861000Y-98712000D01*
X264136000Y-98712000D02*
X264136000Y-96312000D01*
X264261000Y-98712000D02*
X264261000Y-96312000D01*
X264036000Y-96312000D02*
X264036000Y-98712000D01*
X264436000Y-98712000D02*
X264436000Y-96312000D01*
X264611000Y-98712000D02*
X264611000Y-96312000D01*
X264786000Y-98712000D02*
X264786000Y-96312000D01*
X293674000Y-153462000D02*
X287874000Y-153462000D01*
X293674000Y-155862000D02*
X293674000Y-153462000D01*
X287874000Y-155862000D02*
X293674000Y-155862000D01*
X287949000Y-155862000D02*
X287949000Y-153462000D01*
X288074000Y-155862000D02*
X288074000Y-153462000D01*
X287849000Y-153462000D02*
X287849000Y-155862000D01*
X288249000Y-155862000D02*
X288249000Y-153462000D01*
X288424000Y-155862000D02*
X288424000Y-153462000D01*
X288599000Y-155862000D02*
X288599000Y-153462000D01*
X131436000Y-98712000D02*
X131436000Y-96312000D01*
X131261000Y-98712000D02*
X131261000Y-96312000D01*
X131086000Y-98712000D02*
X131086000Y-96312000D01*
X130686000Y-96312000D02*
X130686000Y-98712000D01*
X130911000Y-98712000D02*
X130911000Y-96312000D01*
X130786000Y-98712000D02*
X130786000Y-96312000D01*
X130711000Y-98712000D02*
X136511000Y-98712000D01*
X136511000Y-98712000D02*
X136511000Y-96312000D01*
X136511000Y-96312000D02*
X130711000Y-96312000D01*
X202873000Y-136812000D02*
X202873000Y-134412000D01*
X202698000Y-136812000D02*
X202698000Y-134412000D01*
X202523000Y-136812000D02*
X202523000Y-134412000D01*
X202123000Y-134412000D02*
X202123000Y-136812000D01*
X202348000Y-136812000D02*
X202348000Y-134412000D01*
X202223000Y-136812000D02*
X202223000Y-134412000D01*
X202148000Y-136812000D02*
X207948000Y-136812000D01*
X207948000Y-136812000D02*
X207948000Y-134412000D01*
X207948000Y-134412000D02*
X202148000Y-134412000D01*
X240973000Y-136812000D02*
X240973000Y-134412000D01*
X240798000Y-136812000D02*
X240798000Y-134412000D01*
X240623000Y-136812000D02*
X240623000Y-134412000D01*
X240223000Y-134412000D02*
X240223000Y-136812000D01*
X240448000Y-136812000D02*
X240448000Y-134412000D01*
X240323000Y-136812000D02*
X240323000Y-134412000D01*
X240248000Y-136812000D02*
X246048000Y-136812000D01*
X246048000Y-136812000D02*
X246048000Y-134412000D01*
X246048000Y-134412000D02*
X240248000Y-134412000D01*
X341298000Y-134412000D02*
X335498000Y-134412000D01*
X341298000Y-136812000D02*
X341298000Y-134412000D01*
X335498000Y-136812000D02*
X341298000Y-136812000D01*
X335573000Y-136812000D02*
X335573000Y-134412000D01*
X335698000Y-136812000D02*
X335698000Y-134412000D01*
X335473000Y-134412000D02*
X335473000Y-136812000D01*
X335873000Y-136812000D02*
X335873000Y-134412000D01*
X336048000Y-136812000D02*
X336048000Y-134412000D01*
X336223000Y-136812000D02*
X336223000Y-134412000D01*
X231761000Y-96312000D02*
X225961000Y-96312000D01*
X231761000Y-98712000D02*
X231761000Y-96312000D01*
X225961000Y-98712000D02*
X231761000Y-98712000D01*
X226036000Y-98712000D02*
X226036000Y-96312000D01*
X226161000Y-98712000D02*
X226161000Y-96312000D01*
X225936000Y-96312000D02*
X225936000Y-98712000D01*
X226336000Y-98712000D02*
X226336000Y-96312000D01*
X226511000Y-98712000D02*
X226511000Y-96312000D01*
X226686000Y-98712000D02*
X226686000Y-96312000D01*
X231449000Y-155862000D02*
X231449000Y-153462000D01*
X231274000Y-155862000D02*
X231274000Y-153462000D01*
X231099000Y-155862000D02*
X231099000Y-153462000D01*
X230699000Y-153462000D02*
X230699000Y-155862000D01*
X230924000Y-155862000D02*
X230924000Y-153462000D01*
X230799000Y-155862000D02*
X230799000Y-153462000D01*
X230724000Y-155862000D02*
X236524000Y-155862000D01*
X236524000Y-155862000D02*
X236524000Y-153462000D01*
X236524000Y-153462000D02*
X230724000Y-153462000D01*
X241286000Y-115362000D02*
X235486000Y-115362000D01*
X241286000Y-117762000D02*
X241286000Y-115362000D01*
X235486000Y-117762000D02*
X241286000Y-117762000D01*
X235561000Y-117762000D02*
X235561000Y-115362000D01*
X235686000Y-117762000D02*
X235686000Y-115362000D01*
X235461000Y-115362000D02*
X235461000Y-117762000D01*
X235861000Y-117762000D02*
X235861000Y-115362000D01*
X236036000Y-117762000D02*
X236036000Y-115362000D01*
X236211000Y-117762000D02*
X236211000Y-115362000D01*
X79361200Y-153462000D02*
X73561200Y-153462000D01*
X79361200Y-155862000D02*
X79361200Y-153462000D01*
X73561200Y-155862000D02*
X79361200Y-155862000D01*
X73636200Y-155862000D02*
X73636200Y-153462000D01*
X73761200Y-155862000D02*
X73761200Y-153462000D01*
X73536200Y-153462000D02*
X73536200Y-155862000D01*
X73936200Y-155862000D02*
X73936200Y-153462000D01*
X74111200Y-155862000D02*
X74111200Y-153462000D01*
X74286200Y-155862000D02*
X74286200Y-153462000D01*
X122986000Y-104237000D02*
X122986000Y-110037000D01*
X125386000Y-104237000D02*
X122986000Y-104237000D01*
X125386000Y-110037000D02*
X125386000Y-104237000D01*
X125386000Y-109962000D02*
X122986000Y-109962000D01*
X125386000Y-109837000D02*
X122986000Y-109837000D01*
X122986000Y-110062000D02*
X125386000Y-110062000D01*
X125386000Y-109662000D02*
X122986000Y-109662000D01*
X125386000Y-109487000D02*
X122986000Y-109487000D01*
X125386000Y-109312000D02*
X122986000Y-109312000D01*
X188898000Y-134412000D02*
X183098000Y-134412000D01*
X188898000Y-136812000D02*
X188898000Y-134412000D01*
X183098000Y-136812000D02*
X188898000Y-136812000D01*
X183173000Y-136812000D02*
X183173000Y-134412000D01*
X183298000Y-136812000D02*
X183298000Y-134412000D01*
X183073000Y-134412000D02*
X183073000Y-136812000D01*
X183473000Y-136812000D02*
X183473000Y-134412000D01*
X183648000Y-136812000D02*
X183648000Y-134412000D01*
X183823000Y-136812000D02*
X183823000Y-134412000D01*
X149358000Y-172512000D02*
X143558000Y-172512000D01*
X149358000Y-174912000D02*
X149358000Y-172512000D01*
X143558000Y-174912000D02*
X149358000Y-174912000D01*
X143633000Y-174912000D02*
X143633000Y-172512000D01*
X143758000Y-174912000D02*
X143758000Y-172512000D01*
X143533000Y-172512000D02*
X143533000Y-174912000D01*
X143933000Y-174912000D02*
X143933000Y-172512000D01*
X144108000Y-174912000D02*
X144108000Y-172512000D01*
X144283000Y-174912000D02*
X144283000Y-172512000D01*
X317486000Y-115362000D02*
X311686000Y-115362000D01*
X317486000Y-117762000D02*
X317486000Y-115362000D01*
X311686000Y-117762000D02*
X317486000Y-117762000D01*
X311761000Y-117762000D02*
X311761000Y-115362000D01*
X311886000Y-117762000D02*
X311886000Y-115362000D01*
X311661000Y-115362000D02*
X311661000Y-117762000D01*
X312061000Y-117762000D02*
X312061000Y-115362000D01*
X312236000Y-117762000D02*
X312236000Y-115362000D01*
X312411000Y-117762000D02*
X312411000Y-115362000D01*
X255261000Y-117762000D02*
X255261000Y-115362000D01*
X255086000Y-117762000D02*
X255086000Y-115362000D01*
X254911000Y-117762000D02*
X254911000Y-115362000D01*
X254511000Y-115362000D02*
X254511000Y-117762000D01*
X254736000Y-117762000D02*
X254736000Y-115362000D01*
X254611000Y-117762000D02*
X254611000Y-115362000D01*
X254536000Y-117762000D02*
X260336000Y-117762000D01*
X260336000Y-117762000D02*
X260336000Y-115362000D01*
X260336000Y-115362000D02*
X254536000Y-115362000D01*
X353205000Y-115362000D02*
X347405000Y-115362000D01*
X353205000Y-117762000D02*
X353205000Y-115362000D01*
X347405000Y-117762000D02*
X353205000Y-117762000D01*
X347480000Y-117762000D02*
X347480000Y-115362000D01*
X347605000Y-117762000D02*
X347605000Y-115362000D01*
X347380000Y-115362000D02*
X347380000Y-117762000D01*
X347780000Y-117762000D02*
X347780000Y-115362000D01*
X347955000Y-117762000D02*
X347955000Y-115362000D01*
X348130000Y-117762000D02*
X348130000Y-115362000D01*
X140961000Y-117762000D02*
X140961000Y-115362000D01*
X140786000Y-117762000D02*
X140786000Y-115362000D01*
X140611000Y-117762000D02*
X140611000Y-115362000D01*
X140211000Y-115362000D02*
X140211000Y-117762000D01*
X140436000Y-117762000D02*
X140436000Y-115362000D01*
X140311000Y-117762000D02*
X140311000Y-115362000D01*
X140236000Y-117762000D02*
X146036000Y-117762000D01*
X146036000Y-117762000D02*
X146036000Y-115362000D01*
X146036000Y-115362000D02*
X140236000Y-115362000D01*
X155249000Y-155862000D02*
X155249000Y-153462000D01*
X155074000Y-155862000D02*
X155074000Y-153462000D01*
X154899000Y-155862000D02*
X154899000Y-153462000D01*
X154499000Y-153462000D02*
X154499000Y-155862000D01*
X154724000Y-155862000D02*
X154724000Y-153462000D01*
X154599000Y-155862000D02*
X154599000Y-153462000D01*
X154524000Y-155862000D02*
X160324000Y-155862000D01*
X160324000Y-155862000D02*
X160324000Y-153462000D01*
X160324000Y-153462000D02*
X154524000Y-153462000D01*
X150798000Y-134412000D02*
X144998000Y-134412000D01*
X150798000Y-136812000D02*
X150798000Y-134412000D01*
X144998000Y-136812000D02*
X150798000Y-136812000D01*
X145073000Y-136812000D02*
X145073000Y-134412000D01*
X145198000Y-136812000D02*
X145198000Y-134412000D01*
X144973000Y-134412000D02*
X144973000Y-136812000D01*
X145373000Y-136812000D02*
X145373000Y-134412000D01*
X145548000Y-136812000D02*
X145548000Y-134412000D01*
X145723000Y-136812000D02*
X145723000Y-134412000D01*
X41261200Y-96312000D02*
X35461200Y-96312000D01*
X41261200Y-98712000D02*
X41261200Y-96312000D01*
X35461200Y-98712000D02*
X41261200Y-98712000D01*
X35536200Y-98712000D02*
X35536200Y-96312000D01*
X35661200Y-98712000D02*
X35661200Y-96312000D01*
X35436200Y-96312000D02*
X35436200Y-98712000D01*
X35836200Y-98712000D02*
X35836200Y-96312000D01*
X36011200Y-98712000D02*
X36011200Y-96312000D01*
X36186200Y-98712000D02*
X36186200Y-96312000D01*
X198111000Y-117762000D02*
X198111000Y-115362000D01*
X197936000Y-117762000D02*
X197936000Y-115362000D01*
X197761000Y-117762000D02*
X197761000Y-115362000D01*
X197361000Y-115362000D02*
X197361000Y-117762000D01*
X197586000Y-117762000D02*
X197586000Y-115362000D01*
X197461000Y-117762000D02*
X197461000Y-115362000D01*
X197386000Y-117762000D02*
X203186000Y-117762000D01*
X203186000Y-117762000D02*
X203186000Y-115362000D01*
X203186000Y-115362000D02*
X197386000Y-115362000D01*
X389661000Y-184805800D02*
X387261000Y-184805800D01*
X389661000Y-184980800D02*
X387261000Y-184980800D01*
X389661000Y-185155800D02*
X387261000Y-185155800D01*
X387261000Y-185555800D02*
X389661000Y-185555800D01*
X389661000Y-185330800D02*
X387261000Y-185330800D01*
X389661000Y-185455800D02*
X387261000Y-185455800D01*
X389661000Y-185530800D02*
X389661000Y-179730800D01*
X389661000Y-179730800D02*
X387261000Y-179730800D01*
X387261000Y-179730800D02*
X387261000Y-185530800D01*
D12*
X387310904Y-150412571D02*
X386510904Y-150412571D01*
X386510904Y-150603047D01*
X386549000Y-150717333D01*
X386625190Y-150793523D01*
X386701380Y-150831619D01*
X386853761Y-150869714D01*
X386968047Y-150869714D01*
X387120428Y-150831619D01*
X387196619Y-150793523D01*
X387272809Y-150717333D01*
X387310904Y-150603047D01*
X387310904Y-150412571D01*
X386853761Y-151326857D02*
X386815666Y-151250666D01*
X386777571Y-151212571D01*
X386701380Y-151174476D01*
X386663285Y-151174476D01*
X386587095Y-151212571D01*
X386549000Y-151250666D01*
X386510904Y-151326857D01*
X386510904Y-151479238D01*
X386549000Y-151555428D01*
X386587095Y-151593523D01*
X386663285Y-151631619D01*
X386701380Y-151631619D01*
X386777571Y-151593523D01*
X386815666Y-151555428D01*
X386853761Y-151479238D01*
X386853761Y-151326857D01*
X386891857Y-151250666D01*
X386929952Y-151212571D01*
X387006142Y-151174476D01*
X387158523Y-151174476D01*
X387234714Y-151212571D01*
X387272809Y-151250666D01*
X387310904Y-151326857D01*
X387310904Y-151479238D01*
X387272809Y-151555428D01*
X387234714Y-151593523D01*
X387158523Y-151631619D01*
X387006142Y-151631619D01*
X386929952Y-151593523D01*
X386891857Y-151555428D01*
X386853761Y-151479238D01*
X386510904Y-152126857D02*
X386510904Y-152203047D01*
X386549000Y-152279238D01*
X386587095Y-152317333D01*
X386663285Y-152355428D01*
X386815666Y-152393523D01*
X387006142Y-152393523D01*
X387158523Y-152355428D01*
X387234714Y-152317333D01*
X387272809Y-152279238D01*
X387310904Y-152203047D01*
X387310904Y-152126857D01*
X387272809Y-152050666D01*
X387234714Y-152012571D01*
X387158523Y-151974476D01*
X387006142Y-151936380D01*
X386815666Y-151936380D01*
X386663285Y-151974476D01*
X386587095Y-152012571D01*
X386549000Y-152050666D01*
X386510904Y-152126857D01*
X153351476Y-95948904D02*
X153351476Y-95148904D01*
X153161000Y-95148904D01*
X153046714Y-95187000D01*
X152970523Y-95263190D01*
X152932428Y-95339380D01*
X152894333Y-95491761D01*
X152894333Y-95606047D01*
X152932428Y-95758428D01*
X152970523Y-95834619D01*
X153046714Y-95910809D01*
X153161000Y-95948904D01*
X153351476Y-95948904D01*
X152627666Y-95148904D02*
X152094333Y-95148904D01*
X152437190Y-95948904D01*
X282319428Y-134048904D02*
X282319428Y-133248904D01*
X282128952Y-133248904D01*
X282014666Y-133287000D01*
X281938476Y-133363190D01*
X281900380Y-133439380D01*
X281862285Y-133591761D01*
X281862285Y-133706047D01*
X281900380Y-133858428D01*
X281938476Y-133934619D01*
X282014666Y-134010809D01*
X282128952Y-134048904D01*
X282319428Y-134048904D01*
X281176571Y-133515571D02*
X281176571Y-134048904D01*
X281367047Y-133210809D02*
X281557523Y-133782238D01*
X281062285Y-133782238D01*
X280643238Y-133591761D02*
X280719428Y-133553666D01*
X280757523Y-133515571D01*
X280795619Y-133439380D01*
X280795619Y-133401285D01*
X280757523Y-133325095D01*
X280719428Y-133287000D01*
X280643238Y-133248904D01*
X280490857Y-133248904D01*
X280414666Y-133287000D01*
X280376571Y-133325095D01*
X280338476Y-133401285D01*
X280338476Y-133439380D01*
X280376571Y-133515571D01*
X280414666Y-133553666D01*
X280490857Y-133591761D01*
X280643238Y-133591761D01*
X280719428Y-133629857D01*
X280757523Y-133667952D01*
X280795619Y-133744142D01*
X280795619Y-133896523D01*
X280757523Y-133972714D01*
X280719428Y-134010809D01*
X280643238Y-134048904D01*
X280490857Y-134048904D01*
X280414666Y-134010809D01*
X280376571Y-133972714D01*
X280338476Y-133896523D01*
X280338476Y-133744142D01*
X280376571Y-133667952D01*
X280414666Y-133629857D01*
X280490857Y-133591761D01*
X123526428Y-172148904D02*
X123526428Y-171348904D01*
X123335952Y-171348904D01*
X123221666Y-171387000D01*
X123145476Y-171463190D01*
X123107380Y-171539380D01*
X123069285Y-171691761D01*
X123069285Y-171806047D01*
X123107380Y-171958428D01*
X123145476Y-172034619D01*
X123221666Y-172110809D01*
X123335952Y-172148904D01*
X123526428Y-172148904D01*
X122802619Y-171348904D02*
X122269285Y-171348904D01*
X122612142Y-172148904D01*
X122002619Y-171425095D02*
X121964523Y-171387000D01*
X121888333Y-171348904D01*
X121697857Y-171348904D01*
X121621666Y-171387000D01*
X121583571Y-171425095D01*
X121545476Y-171501285D01*
X121545476Y-171577476D01*
X121583571Y-171691761D01*
X122040714Y-172148904D01*
X121545476Y-172148904D01*
X77532628Y-134048904D02*
X77532628Y-133248904D01*
X77342152Y-133248904D01*
X77227866Y-133287000D01*
X77151676Y-133363190D01*
X77113580Y-133439380D01*
X77075485Y-133591761D01*
X77075485Y-133706047D01*
X77113580Y-133858428D01*
X77151676Y-133934619D01*
X77227866Y-134010809D01*
X77342152Y-134048904D01*
X77532628Y-134048904D01*
X76808819Y-133248904D02*
X76313580Y-133248904D01*
X76580247Y-133553666D01*
X76465961Y-133553666D01*
X76389771Y-133591761D01*
X76351676Y-133629857D01*
X76313580Y-133706047D01*
X76313580Y-133896523D01*
X76351676Y-133972714D01*
X76389771Y-134010809D01*
X76465961Y-134048904D01*
X76694533Y-134048904D01*
X76770723Y-134010809D01*
X76808819Y-133972714D01*
X75932628Y-134048904D02*
X75780247Y-134048904D01*
X75704057Y-134010809D01*
X75665961Y-133972714D01*
X75589771Y-133858428D01*
X75551676Y-133706047D01*
X75551676Y-133401285D01*
X75589771Y-133325095D01*
X75627866Y-133287000D01*
X75704057Y-133248904D01*
X75856438Y-133248904D01*
X75932628Y-133287000D01*
X75970723Y-133325095D01*
X76008819Y-133401285D01*
X76008819Y-133591761D01*
X75970723Y-133667952D01*
X75932628Y-133706047D01*
X75856438Y-133744142D01*
X75704057Y-133744142D01*
X75627866Y-133706047D01*
X75589771Y-133667952D01*
X75551676Y-133591761D01*
X58101676Y-95948904D02*
X58101676Y-95148904D01*
X57911200Y-95148904D01*
X57796914Y-95187000D01*
X57720723Y-95263190D01*
X57682628Y-95339380D01*
X57644533Y-95491761D01*
X57644533Y-95606047D01*
X57682628Y-95758428D01*
X57720723Y-95834619D01*
X57796914Y-95910809D01*
X57911200Y-95948904D01*
X58101676Y-95948904D01*
X57339771Y-95225095D02*
X57301676Y-95187000D01*
X57225485Y-95148904D01*
X57035009Y-95148904D01*
X56958819Y-95187000D01*
X56920723Y-95225095D01*
X56882628Y-95301285D01*
X56882628Y-95377476D01*
X56920723Y-95491761D01*
X57377866Y-95948904D01*
X56882628Y-95948904D01*
X320419428Y-134048904D02*
X320419428Y-133248904D01*
X320228952Y-133248904D01*
X320114666Y-133287000D01*
X320038476Y-133363190D01*
X320000380Y-133439380D01*
X319962285Y-133591761D01*
X319962285Y-133706047D01*
X320000380Y-133858428D01*
X320038476Y-133934619D01*
X320114666Y-134010809D01*
X320228952Y-134048904D01*
X320419428Y-134048904D01*
X319238476Y-133248904D02*
X319619428Y-133248904D01*
X319657523Y-133629857D01*
X319619428Y-133591761D01*
X319543238Y-133553666D01*
X319352761Y-133553666D01*
X319276571Y-133591761D01*
X319238476Y-133629857D01*
X319200380Y-133706047D01*
X319200380Y-133896523D01*
X319238476Y-133972714D01*
X319276571Y-134010809D01*
X319352761Y-134048904D01*
X319543238Y-134048904D01*
X319619428Y-134010809D01*
X319657523Y-133972714D01*
X318705142Y-133248904D02*
X318628952Y-133248904D01*
X318552761Y-133287000D01*
X318514666Y-133325095D01*
X318476571Y-133401285D01*
X318438476Y-133553666D01*
X318438476Y-133744142D01*
X318476571Y-133896523D01*
X318514666Y-133972714D01*
X318552761Y-134010809D01*
X318628952Y-134048904D01*
X318705142Y-134048904D01*
X318781333Y-134010809D01*
X318819428Y-133972714D01*
X318857523Y-133896523D01*
X318895619Y-133744142D01*
X318895619Y-133553666D01*
X318857523Y-133401285D01*
X318819428Y-133325095D01*
X318781333Y-133287000D01*
X318705142Y-133248904D01*
X77532628Y-114998904D02*
X77532628Y-114198904D01*
X77342152Y-114198904D01*
X77227866Y-114237000D01*
X77151676Y-114313190D01*
X77113580Y-114389380D01*
X77075485Y-114541761D01*
X77075485Y-114656047D01*
X77113580Y-114808428D01*
X77151676Y-114884619D01*
X77227866Y-114960809D01*
X77342152Y-114998904D01*
X77532628Y-114998904D01*
X76770723Y-114275095D02*
X76732628Y-114237000D01*
X76656438Y-114198904D01*
X76465961Y-114198904D01*
X76389771Y-114237000D01*
X76351676Y-114275095D01*
X76313580Y-114351285D01*
X76313580Y-114427476D01*
X76351676Y-114541761D01*
X76808819Y-114998904D01*
X76313580Y-114998904D01*
X75551676Y-114998904D02*
X76008819Y-114998904D01*
X75780247Y-114998904D02*
X75780247Y-114198904D01*
X75856438Y-114313190D01*
X75932628Y-114389380D01*
X76008819Y-114427476D01*
X39432628Y-153098904D02*
X39432628Y-152298904D01*
X39242152Y-152298904D01*
X39127866Y-152337000D01*
X39051676Y-152413190D01*
X39013580Y-152489380D01*
X38975485Y-152641761D01*
X38975485Y-152756047D01*
X39013580Y-152908428D01*
X39051676Y-152984619D01*
X39127866Y-153060809D01*
X39242152Y-153098904D01*
X39432628Y-153098904D01*
X38251676Y-152298904D02*
X38632628Y-152298904D01*
X38670723Y-152679857D01*
X38632628Y-152641761D01*
X38556438Y-152603666D01*
X38365961Y-152603666D01*
X38289771Y-152641761D01*
X38251676Y-152679857D01*
X38213580Y-152756047D01*
X38213580Y-152946523D01*
X38251676Y-153022714D01*
X38289771Y-153060809D01*
X38365961Y-153098904D01*
X38556438Y-153098904D01*
X38632628Y-153060809D01*
X38670723Y-153022714D01*
X37946914Y-152298904D02*
X37451676Y-152298904D01*
X37718342Y-152603666D01*
X37604057Y-152603666D01*
X37527866Y-152641761D01*
X37489771Y-152679857D01*
X37451676Y-152756047D01*
X37451676Y-152946523D01*
X37489771Y-153022714D01*
X37527866Y-153060809D01*
X37604057Y-153098904D01*
X37832628Y-153098904D01*
X37908819Y-153060809D01*
X37946914Y-153022714D01*
X182307428Y-114998904D02*
X182307428Y-114198904D01*
X182116952Y-114198904D01*
X182002666Y-114237000D01*
X181926476Y-114313190D01*
X181888380Y-114389380D01*
X181850285Y-114541761D01*
X181850285Y-114656047D01*
X181888380Y-114808428D01*
X181926476Y-114884619D01*
X182002666Y-114960809D01*
X182116952Y-114998904D01*
X182307428Y-114998904D01*
X181545523Y-114275095D02*
X181507428Y-114237000D01*
X181431238Y-114198904D01*
X181240761Y-114198904D01*
X181164571Y-114237000D01*
X181126476Y-114275095D01*
X181088380Y-114351285D01*
X181088380Y-114427476D01*
X181126476Y-114541761D01*
X181583619Y-114998904D01*
X181088380Y-114998904D01*
X180402666Y-114198904D02*
X180555047Y-114198904D01*
X180631238Y-114237000D01*
X180669333Y-114275095D01*
X180745523Y-114389380D01*
X180783619Y-114541761D01*
X180783619Y-114846523D01*
X180745523Y-114922714D01*
X180707428Y-114960809D01*
X180631238Y-114998904D01*
X180478857Y-114998904D01*
X180402666Y-114960809D01*
X180364571Y-114922714D01*
X180326476Y-114846523D01*
X180326476Y-114656047D01*
X180364571Y-114579857D01*
X180402666Y-114541761D01*
X180478857Y-114503666D01*
X180631238Y-114503666D01*
X180707428Y-114541761D01*
X180745523Y-114579857D01*
X180783619Y-114656047D01*
X177545428Y-153098904D02*
X177545428Y-152298904D01*
X177354952Y-152298904D01*
X177240666Y-152337000D01*
X177164476Y-152413190D01*
X177126380Y-152489380D01*
X177088285Y-152641761D01*
X177088285Y-152756047D01*
X177126380Y-152908428D01*
X177164476Y-152984619D01*
X177240666Y-153060809D01*
X177354952Y-153098904D01*
X177545428Y-153098904D01*
X176402571Y-152298904D02*
X176554952Y-152298904D01*
X176631142Y-152337000D01*
X176669238Y-152375095D01*
X176745428Y-152489380D01*
X176783523Y-152641761D01*
X176783523Y-152946523D01*
X176745428Y-153022714D01*
X176707333Y-153060809D01*
X176631142Y-153098904D01*
X176478761Y-153098904D01*
X176402571Y-153060809D01*
X176364476Y-153022714D01*
X176326380Y-152946523D01*
X176326380Y-152756047D01*
X176364476Y-152679857D01*
X176402571Y-152641761D01*
X176478761Y-152603666D01*
X176631142Y-152603666D01*
X176707333Y-152641761D01*
X176745428Y-152679857D01*
X176783523Y-152756047D01*
X175831142Y-152298904D02*
X175754952Y-152298904D01*
X175678761Y-152337000D01*
X175640666Y-152375095D01*
X175602571Y-152451285D01*
X175564476Y-152603666D01*
X175564476Y-152794142D01*
X175602571Y-152946523D01*
X175640666Y-153022714D01*
X175678761Y-153060809D01*
X175754952Y-153098904D01*
X175831142Y-153098904D01*
X175907333Y-153060809D01*
X175945428Y-153022714D01*
X175983523Y-152946523D01*
X176021619Y-152794142D01*
X176021619Y-152603666D01*
X175983523Y-152451285D01*
X175945428Y-152375095D01*
X175907333Y-152337000D01*
X175831142Y-152298904D01*
X168019428Y-134048904D02*
X168019428Y-133248904D01*
X167828952Y-133248904D01*
X167714666Y-133287000D01*
X167638476Y-133363190D01*
X167600380Y-133439380D01*
X167562285Y-133591761D01*
X167562285Y-133706047D01*
X167600380Y-133858428D01*
X167638476Y-133934619D01*
X167714666Y-134010809D01*
X167828952Y-134048904D01*
X168019428Y-134048904D01*
X166876571Y-133515571D02*
X166876571Y-134048904D01*
X167067047Y-133210809D02*
X167257523Y-133782238D01*
X166762285Y-133782238D01*
X166495619Y-133325095D02*
X166457523Y-133287000D01*
X166381333Y-133248904D01*
X166190857Y-133248904D01*
X166114666Y-133287000D01*
X166076571Y-133325095D01*
X166038476Y-133401285D01*
X166038476Y-133477476D01*
X166076571Y-133591761D01*
X166533714Y-134048904D01*
X166038476Y-134048904D01*
X96201676Y-95948904D02*
X96201676Y-95148904D01*
X96011200Y-95148904D01*
X95896914Y-95187000D01*
X95820723Y-95263190D01*
X95782628Y-95339380D01*
X95744533Y-95491761D01*
X95744533Y-95606047D01*
X95782628Y-95758428D01*
X95820723Y-95834619D01*
X95896914Y-95910809D01*
X96011200Y-95948904D01*
X96201676Y-95948904D01*
X95058819Y-95415571D02*
X95058819Y-95948904D01*
X95249295Y-95110809D02*
X95439771Y-95682238D01*
X94944533Y-95682238D01*
X77151676Y-95948904D02*
X77151676Y-95148904D01*
X76961200Y-95148904D01*
X76846914Y-95187000D01*
X76770723Y-95263190D01*
X76732628Y-95339380D01*
X76694533Y-95491761D01*
X76694533Y-95606047D01*
X76732628Y-95758428D01*
X76770723Y-95834619D01*
X76846914Y-95910809D01*
X76961200Y-95948904D01*
X77151676Y-95948904D01*
X76427866Y-95148904D02*
X75932628Y-95148904D01*
X76199295Y-95453666D01*
X76085009Y-95453666D01*
X76008819Y-95491761D01*
X75970723Y-95529857D01*
X75932628Y-95606047D01*
X75932628Y-95796523D01*
X75970723Y-95872714D01*
X76008819Y-95910809D01*
X76085009Y-95948904D01*
X76313580Y-95948904D01*
X76389771Y-95910809D01*
X76427866Y-95872714D01*
X163257428Y-114998904D02*
X163257428Y-114198904D01*
X163066952Y-114198904D01*
X162952666Y-114237000D01*
X162876476Y-114313190D01*
X162838380Y-114389380D01*
X162800285Y-114541761D01*
X162800285Y-114656047D01*
X162838380Y-114808428D01*
X162876476Y-114884619D01*
X162952666Y-114960809D01*
X163066952Y-114998904D01*
X163257428Y-114998904D01*
X162495523Y-114275095D02*
X162457428Y-114237000D01*
X162381238Y-114198904D01*
X162190761Y-114198904D01*
X162114571Y-114237000D01*
X162076476Y-114275095D01*
X162038380Y-114351285D01*
X162038380Y-114427476D01*
X162076476Y-114541761D01*
X162533619Y-114998904D01*
X162038380Y-114998904D01*
X161314571Y-114198904D02*
X161695523Y-114198904D01*
X161733619Y-114579857D01*
X161695523Y-114541761D01*
X161619333Y-114503666D01*
X161428857Y-114503666D01*
X161352666Y-114541761D01*
X161314571Y-114579857D01*
X161276476Y-114656047D01*
X161276476Y-114846523D01*
X161314571Y-114922714D01*
X161352666Y-114960809D01*
X161428857Y-114998904D01*
X161619333Y-114998904D01*
X161695523Y-114960809D01*
X161733619Y-114922714D01*
X77488928Y-172148904D02*
X77488928Y-171348904D01*
X77298452Y-171348904D01*
X77184166Y-171387000D01*
X77107976Y-171463190D01*
X77069880Y-171539380D01*
X77031785Y-171691761D01*
X77031785Y-171806047D01*
X77069880Y-171958428D01*
X77107976Y-172034619D01*
X77184166Y-172110809D01*
X77298452Y-172148904D01*
X77488928Y-172148904D01*
X76765119Y-171348904D02*
X76231785Y-171348904D01*
X76574642Y-172148904D01*
X75507976Y-172148904D02*
X75965119Y-172148904D01*
X75736547Y-172148904D02*
X75736547Y-171348904D01*
X75812738Y-171463190D01*
X75888928Y-171539380D01*
X75965119Y-171577476D01*
X363238428Y-175292704D02*
X363238428Y-174492704D01*
X363047952Y-174492704D01*
X362933666Y-174530800D01*
X362857476Y-174606990D01*
X362819380Y-174683180D01*
X362781285Y-174835561D01*
X362781285Y-174949847D01*
X362819380Y-175102228D01*
X362857476Y-175178419D01*
X362933666Y-175254609D01*
X363047952Y-175292704D01*
X363238428Y-175292704D01*
X362514619Y-174492704D02*
X361981285Y-174492704D01*
X362324142Y-175292704D01*
X361562238Y-174835561D02*
X361638428Y-174797466D01*
X361676523Y-174759371D01*
X361714619Y-174683180D01*
X361714619Y-174645085D01*
X361676523Y-174568895D01*
X361638428Y-174530800D01*
X361562238Y-174492704D01*
X361409857Y-174492704D01*
X361333666Y-174530800D01*
X361295571Y-174568895D01*
X361257476Y-174645085D01*
X361257476Y-174683180D01*
X361295571Y-174759371D01*
X361333666Y-174797466D01*
X361409857Y-174835561D01*
X361562238Y-174835561D01*
X361638428Y-174873657D01*
X361676523Y-174911752D01*
X361714619Y-174987942D01*
X361714619Y-175140323D01*
X361676523Y-175216514D01*
X361638428Y-175254609D01*
X361562238Y-175292704D01*
X361409857Y-175292704D01*
X361333666Y-175254609D01*
X361295571Y-175216514D01*
X361257476Y-175140323D01*
X361257476Y-174987942D01*
X361295571Y-174911752D01*
X361333666Y-174873657D01*
X361409857Y-174835561D01*
X332282428Y-175998904D02*
X332282428Y-175198904D01*
X332091952Y-175198904D01*
X331977666Y-175237000D01*
X331901476Y-175313190D01*
X331863380Y-175389380D01*
X331825285Y-175541761D01*
X331825285Y-175656047D01*
X331863380Y-175808428D01*
X331901476Y-175884619D01*
X331977666Y-175960809D01*
X332091952Y-175998904D01*
X332282428Y-175998904D01*
X331558619Y-175198904D02*
X331025285Y-175198904D01*
X331368142Y-175998904D01*
X330796714Y-175198904D02*
X330263380Y-175198904D01*
X330606238Y-175998904D01*
X225169428Y-134048904D02*
X225169428Y-133248904D01*
X224978952Y-133248904D01*
X224864666Y-133287000D01*
X224788476Y-133363190D01*
X224750380Y-133439380D01*
X224712285Y-133591761D01*
X224712285Y-133706047D01*
X224750380Y-133858428D01*
X224788476Y-133934619D01*
X224864666Y-134010809D01*
X224978952Y-134048904D01*
X225169428Y-134048904D01*
X224026571Y-133515571D02*
X224026571Y-134048904D01*
X224217047Y-133210809D02*
X224407523Y-133782238D01*
X223912285Y-133782238D01*
X223226571Y-133248904D02*
X223607523Y-133248904D01*
X223645619Y-133629857D01*
X223607523Y-133591761D01*
X223531333Y-133553666D01*
X223340857Y-133553666D01*
X223264666Y-133591761D01*
X223226571Y-133629857D01*
X223188476Y-133706047D01*
X223188476Y-133896523D01*
X223226571Y-133972714D01*
X223264666Y-134010809D01*
X223340857Y-134048904D01*
X223531333Y-134048904D01*
X223607523Y-134010809D01*
X223645619Y-133972714D01*
X325182428Y-95948904D02*
X325182428Y-95148904D01*
X324991952Y-95148904D01*
X324877666Y-95187000D01*
X324801476Y-95263190D01*
X324763380Y-95339380D01*
X324725285Y-95491761D01*
X324725285Y-95606047D01*
X324763380Y-95758428D01*
X324801476Y-95834619D01*
X324877666Y-95910809D01*
X324991952Y-95948904D01*
X325182428Y-95948904D01*
X323963380Y-95948904D02*
X324420523Y-95948904D01*
X324191952Y-95948904D02*
X324191952Y-95148904D01*
X324268142Y-95263190D01*
X324344333Y-95339380D01*
X324420523Y-95377476D01*
X323277666Y-95148904D02*
X323430047Y-95148904D01*
X323506238Y-95187000D01*
X323544333Y-95225095D01*
X323620523Y-95339380D01*
X323658619Y-95491761D01*
X323658619Y-95796523D01*
X323620523Y-95872714D01*
X323582428Y-95910809D01*
X323506238Y-95948904D01*
X323353857Y-95948904D01*
X323277666Y-95910809D01*
X323239571Y-95872714D01*
X323201476Y-95796523D01*
X323201476Y-95606047D01*
X323239571Y-95529857D01*
X323277666Y-95491761D01*
X323353857Y-95453666D01*
X323506238Y-95453666D01*
X323582428Y-95491761D01*
X323620523Y-95529857D01*
X323658619Y-95606047D01*
X84523104Y-134640571D02*
X83723104Y-134640571D01*
X83723104Y-134831047D01*
X83761200Y-134945333D01*
X83837390Y-135021523D01*
X83913580Y-135059619D01*
X84065961Y-135097714D01*
X84180247Y-135097714D01*
X84332628Y-135059619D01*
X84408819Y-135021523D01*
X84485009Y-134945333D01*
X84523104Y-134831047D01*
X84523104Y-134640571D01*
X83799295Y-135402476D02*
X83761200Y-135440571D01*
X83723104Y-135516761D01*
X83723104Y-135707238D01*
X83761200Y-135783428D01*
X83799295Y-135821523D01*
X83875485Y-135859619D01*
X83951676Y-135859619D01*
X84065961Y-135821523D01*
X84523104Y-135364380D01*
X84523104Y-135859619D01*
X83799295Y-136164380D02*
X83761200Y-136202476D01*
X83723104Y-136278666D01*
X83723104Y-136469142D01*
X83761200Y-136545333D01*
X83799295Y-136583428D01*
X83875485Y-136621523D01*
X83951676Y-136621523D01*
X84065961Y-136583428D01*
X84523104Y-136126285D01*
X84523104Y-136621523D01*
X217872904Y-106065571D02*
X217072904Y-106065571D01*
X217072904Y-106256047D01*
X217111000Y-106370333D01*
X217187190Y-106446523D01*
X217263380Y-106484619D01*
X217415761Y-106522714D01*
X217530047Y-106522714D01*
X217682428Y-106484619D01*
X217758619Y-106446523D01*
X217834809Y-106370333D01*
X217872904Y-106256047D01*
X217872904Y-106065571D01*
X217872904Y-107284619D02*
X217872904Y-106827476D01*
X217872904Y-107056047D02*
X217072904Y-107056047D01*
X217187190Y-106979857D01*
X217263380Y-106903666D01*
X217301476Y-106827476D01*
X217072904Y-107779857D02*
X217072904Y-107856047D01*
X217111000Y-107932238D01*
X217149095Y-107970333D01*
X217225285Y-108008428D01*
X217377666Y-108046523D01*
X217568142Y-108046523D01*
X217720523Y-108008428D01*
X217796714Y-107970333D01*
X217834809Y-107932238D01*
X217872904Y-107856047D01*
X217872904Y-107779857D01*
X217834809Y-107703666D01*
X217796714Y-107665571D01*
X217720523Y-107627476D01*
X217568142Y-107589380D01*
X217377666Y-107589380D01*
X217225285Y-107627476D01*
X217149095Y-107665571D01*
X217111000Y-107703666D01*
X217072904Y-107779857D01*
X58482628Y-153098904D02*
X58482628Y-152298904D01*
X58292152Y-152298904D01*
X58177866Y-152337000D01*
X58101676Y-152413190D01*
X58063580Y-152489380D01*
X58025485Y-152641761D01*
X58025485Y-152756047D01*
X58063580Y-152908428D01*
X58101676Y-152984619D01*
X58177866Y-153060809D01*
X58292152Y-153098904D01*
X58482628Y-153098904D01*
X57301676Y-152298904D02*
X57682628Y-152298904D01*
X57720723Y-152679857D01*
X57682628Y-152641761D01*
X57606438Y-152603666D01*
X57415961Y-152603666D01*
X57339771Y-152641761D01*
X57301676Y-152679857D01*
X57263580Y-152756047D01*
X57263580Y-152946523D01*
X57301676Y-153022714D01*
X57339771Y-153060809D01*
X57415961Y-153098904D01*
X57606438Y-153098904D01*
X57682628Y-153060809D01*
X57720723Y-153022714D01*
X56577866Y-152565571D02*
X56577866Y-153098904D01*
X56768342Y-152260809D02*
X56958819Y-152832238D01*
X56463580Y-152832238D01*
X39432628Y-114998904D02*
X39432628Y-114198904D01*
X39242152Y-114198904D01*
X39127866Y-114237000D01*
X39051676Y-114313190D01*
X39013580Y-114389380D01*
X38975485Y-114541761D01*
X38975485Y-114656047D01*
X39013580Y-114808428D01*
X39051676Y-114884619D01*
X39127866Y-114960809D01*
X39242152Y-114998904D01*
X39432628Y-114998904D01*
X38213580Y-114998904D02*
X38670723Y-114998904D01*
X38442152Y-114998904D02*
X38442152Y-114198904D01*
X38518342Y-114313190D01*
X38594533Y-114389380D01*
X38670723Y-114427476D01*
X37832628Y-114998904D02*
X37680247Y-114998904D01*
X37604057Y-114960809D01*
X37565961Y-114922714D01*
X37489771Y-114808428D01*
X37451676Y-114656047D01*
X37451676Y-114351285D01*
X37489771Y-114275095D01*
X37527866Y-114237000D01*
X37604057Y-114198904D01*
X37756438Y-114198904D01*
X37832628Y-114237000D01*
X37870723Y-114275095D01*
X37908819Y-114351285D01*
X37908819Y-114541761D01*
X37870723Y-114617952D01*
X37832628Y-114656047D01*
X37756438Y-114694142D01*
X37604057Y-114694142D01*
X37527866Y-114656047D01*
X37489771Y-114617952D01*
X37451676Y-114541761D01*
X117970428Y-153098904D02*
X117970428Y-152298904D01*
X117779952Y-152298904D01*
X117665666Y-152337000D01*
X117589476Y-152413190D01*
X117551380Y-152489380D01*
X117513285Y-152641761D01*
X117513285Y-152756047D01*
X117551380Y-152908428D01*
X117589476Y-152984619D01*
X117665666Y-153060809D01*
X117779952Y-153098904D01*
X117970428Y-153098904D01*
X116789476Y-152298904D02*
X117170428Y-152298904D01*
X117208523Y-152679857D01*
X117170428Y-152641761D01*
X117094238Y-152603666D01*
X116903761Y-152603666D01*
X116827571Y-152641761D01*
X116789476Y-152679857D01*
X116751380Y-152756047D01*
X116751380Y-152946523D01*
X116789476Y-153022714D01*
X116827571Y-153060809D01*
X116903761Y-153098904D01*
X117094238Y-153098904D01*
X117170428Y-153060809D01*
X117208523Y-153022714D01*
X116484714Y-152298904D02*
X115951380Y-152298904D01*
X116294238Y-153098904D01*
X263269428Y-134048904D02*
X263269428Y-133248904D01*
X263078952Y-133248904D01*
X262964666Y-133287000D01*
X262888476Y-133363190D01*
X262850380Y-133439380D01*
X262812285Y-133591761D01*
X262812285Y-133706047D01*
X262850380Y-133858428D01*
X262888476Y-133934619D01*
X262964666Y-134010809D01*
X263078952Y-134048904D01*
X263269428Y-134048904D01*
X262126571Y-133515571D02*
X262126571Y-134048904D01*
X262317047Y-133210809D02*
X262507523Y-133782238D01*
X262012285Y-133782238D01*
X261783714Y-133248904D02*
X261250380Y-133248904D01*
X261593238Y-134048904D01*
X313122904Y-106065571D02*
X312322904Y-106065571D01*
X312322904Y-106256047D01*
X312361000Y-106370333D01*
X312437190Y-106446523D01*
X312513380Y-106484619D01*
X312665761Y-106522714D01*
X312780047Y-106522714D01*
X312932428Y-106484619D01*
X313008619Y-106446523D01*
X313084809Y-106370333D01*
X313122904Y-106256047D01*
X313122904Y-106065571D01*
X313122904Y-107284619D02*
X313122904Y-106827476D01*
X313122904Y-107056047D02*
X312322904Y-107056047D01*
X312437190Y-106979857D01*
X312513380Y-106903666D01*
X312551476Y-106827476D01*
X312322904Y-108008428D02*
X312322904Y-107627476D01*
X312703857Y-107589380D01*
X312665761Y-107627476D01*
X312627666Y-107703666D01*
X312627666Y-107894142D01*
X312665761Y-107970333D01*
X312703857Y-108008428D01*
X312780047Y-108046523D01*
X312970523Y-108046523D01*
X313046714Y-108008428D01*
X313084809Y-107970333D01*
X313122904Y-107894142D01*
X313122904Y-107703666D01*
X313084809Y-107627476D01*
X313046714Y-107589380D01*
X310895428Y-153098904D02*
X310895428Y-152298904D01*
X310704952Y-152298904D01*
X310590666Y-152337000D01*
X310514476Y-152413190D01*
X310476380Y-152489380D01*
X310438285Y-152641761D01*
X310438285Y-152756047D01*
X310476380Y-152908428D01*
X310514476Y-152984619D01*
X310590666Y-153060809D01*
X310704952Y-153098904D01*
X310895428Y-153098904D01*
X309752571Y-152298904D02*
X309904952Y-152298904D01*
X309981142Y-152337000D01*
X310019238Y-152375095D01*
X310095428Y-152489380D01*
X310133523Y-152641761D01*
X310133523Y-152946523D01*
X310095428Y-153022714D01*
X310057333Y-153060809D01*
X309981142Y-153098904D01*
X309828761Y-153098904D01*
X309752571Y-153060809D01*
X309714476Y-153022714D01*
X309676380Y-152946523D01*
X309676380Y-152756047D01*
X309714476Y-152679857D01*
X309752571Y-152641761D01*
X309828761Y-152603666D01*
X309981142Y-152603666D01*
X310057333Y-152641761D01*
X310095428Y-152679857D01*
X310133523Y-152756047D01*
X309409714Y-152298904D02*
X308876380Y-152298904D01*
X309219238Y-153098904D01*
X386897904Y-133934371D02*
X386097904Y-133934371D01*
X386097904Y-134124847D01*
X386136000Y-134239133D01*
X386212190Y-134315323D01*
X386288380Y-134353419D01*
X386440761Y-134391514D01*
X386555047Y-134391514D01*
X386707428Y-134353419D01*
X386783619Y-134315323D01*
X386859809Y-134239133D01*
X386897904Y-134124847D01*
X386897904Y-133934371D01*
X386097904Y-134658180D02*
X386097904Y-135153419D01*
X386402666Y-134886752D01*
X386402666Y-135001038D01*
X386440761Y-135077228D01*
X386478857Y-135115323D01*
X386555047Y-135153419D01*
X386745523Y-135153419D01*
X386821714Y-135115323D01*
X386859809Y-135077228D01*
X386897904Y-135001038D01*
X386897904Y-134772466D01*
X386859809Y-134696276D01*
X386821714Y-134658180D01*
X386097904Y-135839133D02*
X386097904Y-135686752D01*
X386136000Y-135610561D01*
X386174095Y-135572466D01*
X386288380Y-135496276D01*
X386440761Y-135458180D01*
X386745523Y-135458180D01*
X386821714Y-135496276D01*
X386859809Y-135534371D01*
X386897904Y-135610561D01*
X386897904Y-135762942D01*
X386859809Y-135839133D01*
X386821714Y-135877228D01*
X386745523Y-135915323D01*
X386555047Y-135915323D01*
X386478857Y-135877228D01*
X386440761Y-135839133D01*
X386402666Y-135762942D01*
X386402666Y-135610561D01*
X386440761Y-135534371D01*
X386478857Y-135496276D01*
X386555047Y-135458180D01*
X215645428Y-153098904D02*
X215645428Y-152298904D01*
X215454952Y-152298904D01*
X215340666Y-152337000D01*
X215264476Y-152413190D01*
X215226380Y-152489380D01*
X215188285Y-152641761D01*
X215188285Y-152756047D01*
X215226380Y-152908428D01*
X215264476Y-152984619D01*
X215340666Y-153060809D01*
X215454952Y-153098904D01*
X215645428Y-153098904D01*
X214502571Y-152298904D02*
X214654952Y-152298904D01*
X214731142Y-152337000D01*
X214769238Y-152375095D01*
X214845428Y-152489380D01*
X214883523Y-152641761D01*
X214883523Y-152946523D01*
X214845428Y-153022714D01*
X214807333Y-153060809D01*
X214731142Y-153098904D01*
X214578761Y-153098904D01*
X214502571Y-153060809D01*
X214464476Y-153022714D01*
X214426380Y-152946523D01*
X214426380Y-152756047D01*
X214464476Y-152679857D01*
X214502571Y-152641761D01*
X214578761Y-152603666D01*
X214731142Y-152603666D01*
X214807333Y-152641761D01*
X214845428Y-152679857D01*
X214883523Y-152756047D01*
X214121619Y-152375095D02*
X214083523Y-152337000D01*
X214007333Y-152298904D01*
X213816857Y-152298904D01*
X213740666Y-152337000D01*
X213702571Y-152375095D01*
X213664476Y-152451285D01*
X213664476Y-152527476D01*
X213702571Y-152641761D01*
X214159714Y-153098904D01*
X213664476Y-153098904D01*
X196595428Y-153098904D02*
X196595428Y-152298904D01*
X196404952Y-152298904D01*
X196290666Y-152337000D01*
X196214476Y-152413190D01*
X196176380Y-152489380D01*
X196138285Y-152641761D01*
X196138285Y-152756047D01*
X196176380Y-152908428D01*
X196214476Y-152984619D01*
X196290666Y-153060809D01*
X196404952Y-153098904D01*
X196595428Y-153098904D01*
X195452571Y-152298904D02*
X195604952Y-152298904D01*
X195681142Y-152337000D01*
X195719238Y-152375095D01*
X195795428Y-152489380D01*
X195833523Y-152641761D01*
X195833523Y-152946523D01*
X195795428Y-153022714D01*
X195757333Y-153060809D01*
X195681142Y-153098904D01*
X195528761Y-153098904D01*
X195452571Y-153060809D01*
X195414476Y-153022714D01*
X195376380Y-152946523D01*
X195376380Y-152756047D01*
X195414476Y-152679857D01*
X195452571Y-152641761D01*
X195528761Y-152603666D01*
X195681142Y-152603666D01*
X195757333Y-152641761D01*
X195795428Y-152679857D01*
X195833523Y-152756047D01*
X194614476Y-153098904D02*
X195071619Y-153098904D01*
X194843047Y-153098904D02*
X194843047Y-152298904D01*
X194919238Y-152413190D01*
X194995428Y-152489380D01*
X195071619Y-152527476D01*
X358476428Y-134048904D02*
X358476428Y-133248904D01*
X358285952Y-133248904D01*
X358171666Y-133287000D01*
X358095476Y-133363190D01*
X358057380Y-133439380D01*
X358019285Y-133591761D01*
X358019285Y-133706047D01*
X358057380Y-133858428D01*
X358095476Y-133934619D01*
X358171666Y-134010809D01*
X358285952Y-134048904D01*
X358476428Y-134048904D01*
X357295476Y-133248904D02*
X357676428Y-133248904D01*
X357714523Y-133629857D01*
X357676428Y-133591761D01*
X357600238Y-133553666D01*
X357409761Y-133553666D01*
X357333571Y-133591761D01*
X357295476Y-133629857D01*
X357257380Y-133706047D01*
X357257380Y-133896523D01*
X357295476Y-133972714D01*
X357333571Y-134010809D01*
X357409761Y-134048904D01*
X357600238Y-134048904D01*
X357676428Y-134010809D01*
X357714523Y-133972714D01*
X356952619Y-133325095D02*
X356914523Y-133287000D01*
X356838333Y-133248904D01*
X356647857Y-133248904D01*
X356571666Y-133287000D01*
X356533571Y-133325095D01*
X356495476Y-133401285D01*
X356495476Y-133477476D01*
X356533571Y-133591761D01*
X356990714Y-134048904D01*
X356495476Y-134048904D01*
X39432628Y-134048904D02*
X39432628Y-133248904D01*
X39242152Y-133248904D01*
X39127866Y-133287000D01*
X39051676Y-133363190D01*
X39013580Y-133439380D01*
X38975485Y-133591761D01*
X38975485Y-133706047D01*
X39013580Y-133858428D01*
X39051676Y-133934619D01*
X39127866Y-134010809D01*
X39242152Y-134048904D01*
X39432628Y-134048904D01*
X38708819Y-133248904D02*
X38213580Y-133248904D01*
X38480247Y-133553666D01*
X38365961Y-133553666D01*
X38289771Y-133591761D01*
X38251676Y-133629857D01*
X38213580Y-133706047D01*
X38213580Y-133896523D01*
X38251676Y-133972714D01*
X38289771Y-134010809D01*
X38365961Y-134048904D01*
X38594533Y-134048904D01*
X38670723Y-134010809D01*
X38708819Y-133972714D01*
X37946914Y-133248904D02*
X37413580Y-133248904D01*
X37756438Y-134048904D01*
X272795428Y-153098904D02*
X272795428Y-152298904D01*
X272604952Y-152298904D01*
X272490666Y-152337000D01*
X272414476Y-152413190D01*
X272376380Y-152489380D01*
X272338285Y-152641761D01*
X272338285Y-152756047D01*
X272376380Y-152908428D01*
X272414476Y-152984619D01*
X272490666Y-153060809D01*
X272604952Y-153098904D01*
X272795428Y-153098904D01*
X271652571Y-152298904D02*
X271804952Y-152298904D01*
X271881142Y-152337000D01*
X271919238Y-152375095D01*
X271995428Y-152489380D01*
X272033523Y-152641761D01*
X272033523Y-152946523D01*
X271995428Y-153022714D01*
X271957333Y-153060809D01*
X271881142Y-153098904D01*
X271728761Y-153098904D01*
X271652571Y-153060809D01*
X271614476Y-153022714D01*
X271576380Y-152946523D01*
X271576380Y-152756047D01*
X271614476Y-152679857D01*
X271652571Y-152641761D01*
X271728761Y-152603666D01*
X271881142Y-152603666D01*
X271957333Y-152641761D01*
X271995428Y-152679857D01*
X272033523Y-152756047D01*
X270852571Y-152298904D02*
X271233523Y-152298904D01*
X271271619Y-152679857D01*
X271233523Y-152641761D01*
X271157333Y-152603666D01*
X270966857Y-152603666D01*
X270890666Y-152641761D01*
X270852571Y-152679857D01*
X270814476Y-152756047D01*
X270814476Y-152946523D01*
X270852571Y-153022714D01*
X270890666Y-153060809D01*
X270966857Y-153098904D01*
X271157333Y-153098904D01*
X271233523Y-153060809D01*
X271271619Y-153022714D01*
X287082428Y-95948904D02*
X287082428Y-95148904D01*
X286891952Y-95148904D01*
X286777666Y-95187000D01*
X286701476Y-95263190D01*
X286663380Y-95339380D01*
X286625285Y-95491761D01*
X286625285Y-95606047D01*
X286663380Y-95758428D01*
X286701476Y-95834619D01*
X286777666Y-95910809D01*
X286891952Y-95948904D01*
X287082428Y-95948904D01*
X285863380Y-95948904D02*
X286320523Y-95948904D01*
X286091952Y-95948904D02*
X286091952Y-95148904D01*
X286168142Y-95263190D01*
X286244333Y-95339380D01*
X286320523Y-95377476D01*
X285177666Y-95415571D02*
X285177666Y-95948904D01*
X285368142Y-95110809D02*
X285558619Y-95682238D01*
X285063380Y-95682238D01*
X329901428Y-153098904D02*
X329901428Y-152298904D01*
X329710952Y-152298904D01*
X329596666Y-152337000D01*
X329520476Y-152413190D01*
X329482380Y-152489380D01*
X329444285Y-152641761D01*
X329444285Y-152756047D01*
X329482380Y-152908428D01*
X329520476Y-152984619D01*
X329596666Y-153060809D01*
X329710952Y-153098904D01*
X329901428Y-153098904D01*
X328758571Y-152298904D02*
X328910952Y-152298904D01*
X328987142Y-152337000D01*
X329025238Y-152375095D01*
X329101428Y-152489380D01*
X329139523Y-152641761D01*
X329139523Y-152946523D01*
X329101428Y-153022714D01*
X329063333Y-153060809D01*
X328987142Y-153098904D01*
X328834761Y-153098904D01*
X328758571Y-153060809D01*
X328720476Y-153022714D01*
X328682380Y-152946523D01*
X328682380Y-152756047D01*
X328720476Y-152679857D01*
X328758571Y-152641761D01*
X328834761Y-152603666D01*
X328987142Y-152603666D01*
X329063333Y-152641761D01*
X329101428Y-152679857D01*
X329139523Y-152756047D01*
X328225238Y-152641761D02*
X328301428Y-152603666D01*
X328339523Y-152565571D01*
X328377619Y-152489380D01*
X328377619Y-152451285D01*
X328339523Y-152375095D01*
X328301428Y-152337000D01*
X328225238Y-152298904D01*
X328072857Y-152298904D01*
X327996666Y-152337000D01*
X327958571Y-152375095D01*
X327920476Y-152451285D01*
X327920476Y-152489380D01*
X327958571Y-152565571D01*
X327996666Y-152603666D01*
X328072857Y-152641761D01*
X328225238Y-152641761D01*
X328301428Y-152679857D01*
X328339523Y-152717952D01*
X328377619Y-152794142D01*
X328377619Y-152946523D01*
X328339523Y-153022714D01*
X328301428Y-153060809D01*
X328225238Y-153098904D01*
X328072857Y-153098904D01*
X327996666Y-153060809D01*
X327958571Y-153022714D01*
X327920476Y-152946523D01*
X327920476Y-152794142D01*
X327958571Y-152717952D01*
X327996666Y-152679857D01*
X328072857Y-152641761D01*
X372807428Y-95948904D02*
X372807428Y-95148904D01*
X372616952Y-95148904D01*
X372502666Y-95187000D01*
X372426476Y-95263190D01*
X372388380Y-95339380D01*
X372350285Y-95491761D01*
X372350285Y-95606047D01*
X372388380Y-95758428D01*
X372426476Y-95834619D01*
X372502666Y-95910809D01*
X372616952Y-95948904D01*
X372807428Y-95948904D01*
X371588380Y-95948904D02*
X372045523Y-95948904D01*
X371816952Y-95948904D02*
X371816952Y-95148904D01*
X371893142Y-95263190D01*
X371969333Y-95339380D01*
X372045523Y-95377476D01*
X371131238Y-95491761D02*
X371207428Y-95453666D01*
X371245523Y-95415571D01*
X371283619Y-95339380D01*
X371283619Y-95301285D01*
X371245523Y-95225095D01*
X371207428Y-95187000D01*
X371131238Y-95148904D01*
X370978857Y-95148904D01*
X370902666Y-95187000D01*
X370864571Y-95225095D01*
X370826476Y-95301285D01*
X370826476Y-95339380D01*
X370864571Y-95415571D01*
X370902666Y-95453666D01*
X370978857Y-95491761D01*
X371131238Y-95491761D01*
X371207428Y-95529857D01*
X371245523Y-95567952D01*
X371283619Y-95644142D01*
X371283619Y-95796523D01*
X371245523Y-95872714D01*
X371207428Y-95910809D01*
X371131238Y-95948904D01*
X370978857Y-95948904D01*
X370902666Y-95910809D01*
X370864571Y-95872714D01*
X370826476Y-95796523D01*
X370826476Y-95644142D01*
X370864571Y-95567952D01*
X370902666Y-95529857D01*
X370978857Y-95491761D01*
X58482628Y-134048904D02*
X58482628Y-133248904D01*
X58292152Y-133248904D01*
X58177866Y-133287000D01*
X58101676Y-133363190D01*
X58063580Y-133439380D01*
X58025485Y-133591761D01*
X58025485Y-133706047D01*
X58063580Y-133858428D01*
X58101676Y-133934619D01*
X58177866Y-134010809D01*
X58292152Y-134048904D01*
X58482628Y-134048904D01*
X57758819Y-133248904D02*
X57263580Y-133248904D01*
X57530247Y-133553666D01*
X57415961Y-133553666D01*
X57339771Y-133591761D01*
X57301676Y-133629857D01*
X57263580Y-133706047D01*
X57263580Y-133896523D01*
X57301676Y-133972714D01*
X57339771Y-134010809D01*
X57415961Y-134048904D01*
X57644533Y-134048904D01*
X57720723Y-134010809D01*
X57758819Y-133972714D01*
X56806438Y-133591761D02*
X56882628Y-133553666D01*
X56920723Y-133515571D01*
X56958819Y-133439380D01*
X56958819Y-133401285D01*
X56920723Y-133325095D01*
X56882628Y-133287000D01*
X56806438Y-133248904D01*
X56654057Y-133248904D01*
X56577866Y-133287000D01*
X56539771Y-133325095D01*
X56501676Y-133401285D01*
X56501676Y-133439380D01*
X56539771Y-133515571D01*
X56577866Y-133553666D01*
X56654057Y-133591761D01*
X56806438Y-133591761D01*
X56882628Y-133629857D01*
X56920723Y-133667952D01*
X56958819Y-133744142D01*
X56958819Y-133896523D01*
X56920723Y-133972714D01*
X56882628Y-134010809D01*
X56806438Y-134048904D01*
X56654057Y-134048904D01*
X56577866Y-134010809D01*
X56539771Y-133972714D01*
X56501676Y-133896523D01*
X56501676Y-133744142D01*
X56539771Y-133667952D01*
X56577866Y-133629857D01*
X56654057Y-133591761D01*
X248982428Y-95948904D02*
X248982428Y-95148904D01*
X248791952Y-95148904D01*
X248677666Y-95187000D01*
X248601476Y-95263190D01*
X248563380Y-95339380D01*
X248525285Y-95491761D01*
X248525285Y-95606047D01*
X248563380Y-95758428D01*
X248601476Y-95834619D01*
X248677666Y-95910809D01*
X248791952Y-95948904D01*
X248982428Y-95948904D01*
X247763380Y-95948904D02*
X248220523Y-95948904D01*
X247991952Y-95948904D02*
X247991952Y-95148904D01*
X248068142Y-95263190D01*
X248144333Y-95339380D01*
X248220523Y-95377476D01*
X247458619Y-95225095D02*
X247420523Y-95187000D01*
X247344333Y-95148904D01*
X247153857Y-95148904D01*
X247077666Y-95187000D01*
X247039571Y-95225095D01*
X247001476Y-95301285D01*
X247001476Y-95377476D01*
X247039571Y-95491761D01*
X247496714Y-95948904D01*
X247001476Y-95948904D01*
X139445428Y-153098904D02*
X139445428Y-152298904D01*
X139254952Y-152298904D01*
X139140666Y-152337000D01*
X139064476Y-152413190D01*
X139026380Y-152489380D01*
X138988285Y-152641761D01*
X138988285Y-152756047D01*
X139026380Y-152908428D01*
X139064476Y-152984619D01*
X139140666Y-153060809D01*
X139254952Y-153098904D01*
X139445428Y-153098904D01*
X138264476Y-152298904D02*
X138645428Y-152298904D01*
X138683523Y-152679857D01*
X138645428Y-152641761D01*
X138569238Y-152603666D01*
X138378761Y-152603666D01*
X138302571Y-152641761D01*
X138264476Y-152679857D01*
X138226380Y-152756047D01*
X138226380Y-152946523D01*
X138264476Y-153022714D01*
X138302571Y-153060809D01*
X138378761Y-153098904D01*
X138569238Y-153098904D01*
X138645428Y-153060809D01*
X138683523Y-153022714D01*
X137769238Y-152641761D02*
X137845428Y-152603666D01*
X137883523Y-152565571D01*
X137921619Y-152489380D01*
X137921619Y-152451285D01*
X137883523Y-152375095D01*
X137845428Y-152337000D01*
X137769238Y-152298904D01*
X137616857Y-152298904D01*
X137540666Y-152337000D01*
X137502571Y-152375095D01*
X137464476Y-152451285D01*
X137464476Y-152489380D01*
X137502571Y-152565571D01*
X137540666Y-152603666D01*
X137616857Y-152641761D01*
X137769238Y-152641761D01*
X137845428Y-152679857D01*
X137883523Y-152717952D01*
X137921619Y-152794142D01*
X137921619Y-152946523D01*
X137883523Y-153022714D01*
X137845428Y-153060809D01*
X137769238Y-153098904D01*
X137616857Y-153098904D01*
X137540666Y-153060809D01*
X137502571Y-153022714D01*
X137464476Y-152946523D01*
X137464476Y-152794142D01*
X137502571Y-152717952D01*
X137540666Y-152679857D01*
X137616857Y-152641761D01*
X334707428Y-114998904D02*
X334707428Y-114198904D01*
X334516952Y-114198904D01*
X334402666Y-114237000D01*
X334326476Y-114313190D01*
X334288380Y-114389380D01*
X334250285Y-114541761D01*
X334250285Y-114656047D01*
X334288380Y-114808428D01*
X334326476Y-114884619D01*
X334402666Y-114960809D01*
X334516952Y-114998904D01*
X334707428Y-114998904D01*
X333983619Y-114198904D02*
X333488380Y-114198904D01*
X333755047Y-114503666D01*
X333640761Y-114503666D01*
X333564571Y-114541761D01*
X333526476Y-114579857D01*
X333488380Y-114656047D01*
X333488380Y-114846523D01*
X333526476Y-114922714D01*
X333564571Y-114960809D01*
X333640761Y-114998904D01*
X333869333Y-114998904D01*
X333945523Y-114960809D01*
X333983619Y-114922714D01*
X332802666Y-114465571D02*
X332802666Y-114998904D01*
X332993142Y-114160809D02*
X333183619Y-114732238D01*
X332688380Y-114732238D01*
X58482628Y-114998904D02*
X58482628Y-114198904D01*
X58292152Y-114198904D01*
X58177866Y-114237000D01*
X58101676Y-114313190D01*
X58063580Y-114389380D01*
X58025485Y-114541761D01*
X58025485Y-114656047D01*
X58063580Y-114808428D01*
X58101676Y-114884619D01*
X58177866Y-114960809D01*
X58292152Y-114998904D01*
X58482628Y-114998904D01*
X57720723Y-114275095D02*
X57682628Y-114237000D01*
X57606438Y-114198904D01*
X57415961Y-114198904D01*
X57339771Y-114237000D01*
X57301676Y-114275095D01*
X57263580Y-114351285D01*
X57263580Y-114427476D01*
X57301676Y-114541761D01*
X57758819Y-114998904D01*
X57263580Y-114998904D01*
X56768342Y-114198904D02*
X56692152Y-114198904D01*
X56615961Y-114237000D01*
X56577866Y-114275095D01*
X56539771Y-114351285D01*
X56501676Y-114503666D01*
X56501676Y-114694142D01*
X56539771Y-114846523D01*
X56577866Y-114922714D01*
X56615961Y-114960809D01*
X56692152Y-114998904D01*
X56768342Y-114998904D01*
X56844533Y-114960809D01*
X56882628Y-114922714D01*
X56920723Y-114846523D01*
X56958819Y-114694142D01*
X56958819Y-114503666D01*
X56920723Y-114351285D01*
X56882628Y-114275095D01*
X56844533Y-114237000D01*
X56768342Y-114198904D01*
X365620428Y-152392704D02*
X365620428Y-151592704D01*
X365429952Y-151592704D01*
X365315666Y-151630800D01*
X365239476Y-151706990D01*
X365201380Y-151783180D01*
X365163285Y-151935561D01*
X365163285Y-152049847D01*
X365201380Y-152202228D01*
X365239476Y-152278419D01*
X365315666Y-152354609D01*
X365429952Y-152392704D01*
X365620428Y-152392704D01*
X364477571Y-151592704D02*
X364629952Y-151592704D01*
X364706142Y-151630800D01*
X364744238Y-151668895D01*
X364820428Y-151783180D01*
X364858523Y-151935561D01*
X364858523Y-152240323D01*
X364820428Y-152316514D01*
X364782333Y-152354609D01*
X364706142Y-152392704D01*
X364553761Y-152392704D01*
X364477571Y-152354609D01*
X364439476Y-152316514D01*
X364401380Y-152240323D01*
X364401380Y-152049847D01*
X364439476Y-151973657D01*
X364477571Y-151935561D01*
X364553761Y-151897466D01*
X364706142Y-151897466D01*
X364782333Y-151935561D01*
X364820428Y-151973657D01*
X364858523Y-152049847D01*
X364020428Y-152392704D02*
X363868047Y-152392704D01*
X363791857Y-152354609D01*
X363753761Y-152316514D01*
X363677571Y-152202228D01*
X363639476Y-152049847D01*
X363639476Y-151745085D01*
X363677571Y-151668895D01*
X363715666Y-151630800D01*
X363791857Y-151592704D01*
X363944238Y-151592704D01*
X364020428Y-151630800D01*
X364058523Y-151668895D01*
X364096619Y-151745085D01*
X364096619Y-151935561D01*
X364058523Y-152011752D01*
X364020428Y-152049847D01*
X363944238Y-152087942D01*
X363791857Y-152087942D01*
X363715666Y-152049847D01*
X363677571Y-152011752D01*
X363639476Y-151935561D01*
X90240961Y-98559866D02*
X90288580Y-98702723D01*
X90288580Y-98940819D01*
X90240961Y-99036057D01*
X90193342Y-99083676D01*
X90098104Y-99131295D01*
X90002866Y-99131295D01*
X89907628Y-99083676D01*
X89860009Y-99036057D01*
X89812390Y-98940819D01*
X89764771Y-98750342D01*
X89717152Y-98655104D01*
X89669533Y-98607485D01*
X89574295Y-98559866D01*
X89479057Y-98559866D01*
X89383819Y-98607485D01*
X89336200Y-98655104D01*
X89288580Y-98750342D01*
X89288580Y-98988438D01*
X89336200Y-99131295D01*
X89288580Y-99464628D02*
X90288580Y-99702723D01*
X89574295Y-99893200D01*
X90288580Y-100083676D01*
X89288580Y-100321771D01*
X90288580Y-101226533D02*
X90288580Y-100655104D01*
X90288580Y-100940819D02*
X89288580Y-100940819D01*
X89431438Y-100845580D01*
X89526676Y-100750342D01*
X89574295Y-100655104D01*
X122776428Y-134048904D02*
X122776428Y-133248904D01*
X122585952Y-133248904D01*
X122471666Y-133287000D01*
X122395476Y-133363190D01*
X122357380Y-133439380D01*
X122319285Y-133591761D01*
X122319285Y-133706047D01*
X122357380Y-133858428D01*
X122395476Y-133934619D01*
X122471666Y-134010809D01*
X122585952Y-134048904D01*
X122776428Y-134048904D01*
X121633571Y-133515571D02*
X121633571Y-134048904D01*
X121824047Y-133210809D02*
X122014523Y-133782238D01*
X121519285Y-133782238D01*
X121062142Y-133248904D02*
X120985952Y-133248904D01*
X120909761Y-133287000D01*
X120871666Y-133325095D01*
X120833571Y-133401285D01*
X120795476Y-133553666D01*
X120795476Y-133744142D01*
X120833571Y-133896523D01*
X120871666Y-133972714D01*
X120909761Y-134010809D01*
X120985952Y-134048904D01*
X121062142Y-134048904D01*
X121138333Y-134010809D01*
X121176428Y-133972714D01*
X121214523Y-133896523D01*
X121252619Y-133744142D01*
X121252619Y-133553666D01*
X121214523Y-133401285D01*
X121176428Y-133325095D01*
X121138333Y-133287000D01*
X121062142Y-133248904D01*
X84523104Y-172740571D02*
X83723104Y-172740571D01*
X83723104Y-172931047D01*
X83761200Y-173045333D01*
X83837390Y-173121523D01*
X83913580Y-173159619D01*
X84065961Y-173197714D01*
X84180247Y-173197714D01*
X84332628Y-173159619D01*
X84408819Y-173121523D01*
X84485009Y-173045333D01*
X84523104Y-172931047D01*
X84523104Y-172740571D01*
X83723104Y-173921523D02*
X83723104Y-173540571D01*
X84104057Y-173502476D01*
X84065961Y-173540571D01*
X84027866Y-173616761D01*
X84027866Y-173807238D01*
X84065961Y-173883428D01*
X84104057Y-173921523D01*
X84180247Y-173959619D01*
X84370723Y-173959619D01*
X84446914Y-173921523D01*
X84485009Y-173883428D01*
X84523104Y-173807238D01*
X84523104Y-173616761D01*
X84485009Y-173540571D01*
X84446914Y-173502476D01*
X83723104Y-174645333D02*
X83723104Y-174492952D01*
X83761200Y-174416761D01*
X83799295Y-174378666D01*
X83913580Y-174302476D01*
X84065961Y-174264380D01*
X84370723Y-174264380D01*
X84446914Y-174302476D01*
X84485009Y-174340571D01*
X84523104Y-174416761D01*
X84523104Y-174569142D01*
X84485009Y-174645333D01*
X84446914Y-174683428D01*
X84370723Y-174721523D01*
X84180247Y-174721523D01*
X84104057Y-174683428D01*
X84065961Y-174645333D01*
X84027866Y-174569142D01*
X84027866Y-174416761D01*
X84065961Y-174340571D01*
X84104057Y-174302476D01*
X84180247Y-174264380D01*
X120395428Y-114998904D02*
X120395428Y-114198904D01*
X120204952Y-114198904D01*
X120090666Y-114237000D01*
X120014476Y-114313190D01*
X119976380Y-114389380D01*
X119938285Y-114541761D01*
X119938285Y-114656047D01*
X119976380Y-114808428D01*
X120014476Y-114884619D01*
X120090666Y-114960809D01*
X120204952Y-114998904D01*
X120395428Y-114998904D01*
X119633523Y-114275095D02*
X119595428Y-114237000D01*
X119519238Y-114198904D01*
X119328761Y-114198904D01*
X119252571Y-114237000D01*
X119214476Y-114275095D01*
X119176380Y-114351285D01*
X119176380Y-114427476D01*
X119214476Y-114541761D01*
X119671619Y-114998904D01*
X119176380Y-114998904D01*
X118909714Y-114198904D02*
X118414476Y-114198904D01*
X118681142Y-114503666D01*
X118566857Y-114503666D01*
X118490666Y-114541761D01*
X118452571Y-114579857D01*
X118414476Y-114656047D01*
X118414476Y-114846523D01*
X118452571Y-114922714D01*
X118490666Y-114960809D01*
X118566857Y-114998904D01*
X118795428Y-114998904D01*
X118871619Y-114960809D01*
X118909714Y-114922714D01*
X344232428Y-95948904D02*
X344232428Y-95148904D01*
X344041952Y-95148904D01*
X343927666Y-95187000D01*
X343851476Y-95263190D01*
X343813380Y-95339380D01*
X343775285Y-95491761D01*
X343775285Y-95606047D01*
X343813380Y-95758428D01*
X343851476Y-95834619D01*
X343927666Y-95910809D01*
X344041952Y-95948904D01*
X344232428Y-95948904D01*
X343013380Y-95948904D02*
X343470523Y-95948904D01*
X343241952Y-95948904D02*
X343241952Y-95148904D01*
X343318142Y-95263190D01*
X343394333Y-95339380D01*
X343470523Y-95377476D01*
X342746714Y-95148904D02*
X342213380Y-95148904D01*
X342556238Y-95948904D01*
X296607428Y-114998904D02*
X296607428Y-114198904D01*
X296416952Y-114198904D01*
X296302666Y-114237000D01*
X296226476Y-114313190D01*
X296188380Y-114389380D01*
X296150285Y-114541761D01*
X296150285Y-114656047D01*
X296188380Y-114808428D01*
X296226476Y-114884619D01*
X296302666Y-114960809D01*
X296416952Y-114998904D01*
X296607428Y-114998904D01*
X295883619Y-114198904D02*
X295388380Y-114198904D01*
X295655047Y-114503666D01*
X295540761Y-114503666D01*
X295464571Y-114541761D01*
X295426476Y-114579857D01*
X295388380Y-114656047D01*
X295388380Y-114846523D01*
X295426476Y-114922714D01*
X295464571Y-114960809D01*
X295540761Y-114998904D01*
X295769333Y-114998904D01*
X295845523Y-114960809D01*
X295883619Y-114922714D01*
X295083619Y-114275095D02*
X295045523Y-114237000D01*
X294969333Y-114198904D01*
X294778857Y-114198904D01*
X294702666Y-114237000D01*
X294664571Y-114275095D01*
X294626476Y-114351285D01*
X294626476Y-114427476D01*
X294664571Y-114541761D01*
X295121714Y-114998904D01*
X294626476Y-114998904D01*
X277557428Y-114998904D02*
X277557428Y-114198904D01*
X277366952Y-114198904D01*
X277252666Y-114237000D01*
X277176476Y-114313190D01*
X277138380Y-114389380D01*
X277100285Y-114541761D01*
X277100285Y-114656047D01*
X277138380Y-114808428D01*
X277176476Y-114884619D01*
X277252666Y-114960809D01*
X277366952Y-114998904D01*
X277557428Y-114998904D01*
X276833619Y-114198904D02*
X276338380Y-114198904D01*
X276605047Y-114503666D01*
X276490761Y-114503666D01*
X276414571Y-114541761D01*
X276376476Y-114579857D01*
X276338380Y-114656047D01*
X276338380Y-114846523D01*
X276376476Y-114922714D01*
X276414571Y-114960809D01*
X276490761Y-114998904D01*
X276719333Y-114998904D01*
X276795523Y-114960809D01*
X276833619Y-114922714D01*
X275576476Y-114998904D02*
X276033619Y-114998904D01*
X275805047Y-114998904D02*
X275805047Y-114198904D01*
X275881238Y-114313190D01*
X275957428Y-114389380D01*
X276033619Y-114427476D01*
X191451476Y-95948904D02*
X191451476Y-95148904D01*
X191261000Y-95148904D01*
X191146714Y-95187000D01*
X191070523Y-95263190D01*
X191032428Y-95339380D01*
X190994333Y-95491761D01*
X190994333Y-95606047D01*
X191032428Y-95758428D01*
X191070523Y-95834619D01*
X191146714Y-95910809D01*
X191261000Y-95948904D01*
X191451476Y-95948904D01*
X190613380Y-95948904D02*
X190461000Y-95948904D01*
X190384809Y-95910809D01*
X190346714Y-95872714D01*
X190270523Y-95758428D01*
X190232428Y-95606047D01*
X190232428Y-95301285D01*
X190270523Y-95225095D01*
X190308619Y-95187000D01*
X190384809Y-95148904D01*
X190537190Y-95148904D01*
X190613380Y-95187000D01*
X190651476Y-95225095D01*
X190689571Y-95301285D01*
X190689571Y-95491761D01*
X190651476Y-95567952D01*
X190613380Y-95606047D01*
X190537190Y-95644142D01*
X190384809Y-95644142D01*
X190308619Y-95606047D01*
X190270523Y-95567952D01*
X190232428Y-95491761D01*
X253745428Y-153098904D02*
X253745428Y-152298904D01*
X253554952Y-152298904D01*
X253440666Y-152337000D01*
X253364476Y-152413190D01*
X253326380Y-152489380D01*
X253288285Y-152641761D01*
X253288285Y-152756047D01*
X253326380Y-152908428D01*
X253364476Y-152984619D01*
X253440666Y-153060809D01*
X253554952Y-153098904D01*
X253745428Y-153098904D01*
X252602571Y-152298904D02*
X252754952Y-152298904D01*
X252831142Y-152337000D01*
X252869238Y-152375095D01*
X252945428Y-152489380D01*
X252983523Y-152641761D01*
X252983523Y-152946523D01*
X252945428Y-153022714D01*
X252907333Y-153060809D01*
X252831142Y-153098904D01*
X252678761Y-153098904D01*
X252602571Y-153060809D01*
X252564476Y-153022714D01*
X252526380Y-152946523D01*
X252526380Y-152756047D01*
X252564476Y-152679857D01*
X252602571Y-152641761D01*
X252678761Y-152603666D01*
X252831142Y-152603666D01*
X252907333Y-152641761D01*
X252945428Y-152679857D01*
X252983523Y-152756047D01*
X251840666Y-152565571D02*
X251840666Y-153098904D01*
X252031142Y-152260809D02*
X252221619Y-152832238D01*
X251726380Y-152832238D01*
X165595428Y-172148904D02*
X165595428Y-171348904D01*
X165404952Y-171348904D01*
X165290666Y-171387000D01*
X165214476Y-171463190D01*
X165176380Y-171539380D01*
X165138285Y-171691761D01*
X165138285Y-171806047D01*
X165176380Y-171958428D01*
X165214476Y-172034619D01*
X165290666Y-172110809D01*
X165404952Y-172148904D01*
X165595428Y-172148904D01*
X164871619Y-171348904D02*
X164338285Y-171348904D01*
X164681142Y-172148904D01*
X163690666Y-171615571D02*
X163690666Y-172148904D01*
X163881142Y-171310809D02*
X164071619Y-171882238D01*
X163576380Y-171882238D01*
X308470428Y-172148904D02*
X308470428Y-171348904D01*
X308279952Y-171348904D01*
X308165666Y-171387000D01*
X308089476Y-171463190D01*
X308051380Y-171539380D01*
X308013285Y-171691761D01*
X308013285Y-171806047D01*
X308051380Y-171958428D01*
X308089476Y-172034619D01*
X308165666Y-172110809D01*
X308279952Y-172148904D01*
X308470428Y-172148904D01*
X307746619Y-171348904D02*
X307213285Y-171348904D01*
X307556142Y-172148904D01*
X306565666Y-171348904D02*
X306718047Y-171348904D01*
X306794238Y-171387000D01*
X306832333Y-171425095D01*
X306908523Y-171539380D01*
X306946619Y-171691761D01*
X306946619Y-171996523D01*
X306908523Y-172072714D01*
X306870428Y-172110809D01*
X306794238Y-172148904D01*
X306641857Y-172148904D01*
X306565666Y-172110809D01*
X306527571Y-172072714D01*
X306489476Y-171996523D01*
X306489476Y-171806047D01*
X306527571Y-171729857D01*
X306565666Y-171691761D01*
X306641857Y-171653666D01*
X306794238Y-171653666D01*
X306870428Y-171691761D01*
X306908523Y-171729857D01*
X306946619Y-171806047D01*
X301369428Y-134048904D02*
X301369428Y-133248904D01*
X301178952Y-133248904D01*
X301064666Y-133287000D01*
X300988476Y-133363190D01*
X300950380Y-133439380D01*
X300912285Y-133591761D01*
X300912285Y-133706047D01*
X300950380Y-133858428D01*
X300988476Y-133934619D01*
X301064666Y-134010809D01*
X301178952Y-134048904D01*
X301369428Y-134048904D01*
X300226571Y-133515571D02*
X300226571Y-134048904D01*
X300417047Y-133210809D02*
X300607523Y-133782238D01*
X300112285Y-133782238D01*
X299769428Y-134048904D02*
X299617047Y-134048904D01*
X299540857Y-134010809D01*
X299502761Y-133972714D01*
X299426571Y-133858428D01*
X299388476Y-133706047D01*
X299388476Y-133401285D01*
X299426571Y-133325095D01*
X299464666Y-133287000D01*
X299540857Y-133248904D01*
X299693238Y-133248904D01*
X299769428Y-133287000D01*
X299807523Y-133325095D01*
X299845619Y-133401285D01*
X299845619Y-133591761D01*
X299807523Y-133667952D01*
X299769428Y-133706047D01*
X299693238Y-133744142D01*
X299540857Y-133744142D01*
X299464666Y-133706047D01*
X299426571Y-133667952D01*
X299388476Y-133591761D01*
X48913928Y-172148904D02*
X48913928Y-171348904D01*
X48723452Y-171348904D01*
X48609166Y-171387000D01*
X48532976Y-171463190D01*
X48494880Y-171539380D01*
X48456785Y-171691761D01*
X48456785Y-171806047D01*
X48494880Y-171958428D01*
X48532976Y-172034619D01*
X48609166Y-172110809D01*
X48723452Y-172148904D01*
X48913928Y-172148904D01*
X48190119Y-171348904D02*
X47656785Y-171348904D01*
X47999642Y-172148904D01*
X47199642Y-171348904D02*
X47123452Y-171348904D01*
X47047261Y-171387000D01*
X47009166Y-171425095D01*
X46971071Y-171501285D01*
X46932976Y-171653666D01*
X46932976Y-171844142D01*
X46971071Y-171996523D01*
X47009166Y-172072714D01*
X47047261Y-172110809D01*
X47123452Y-172148904D01*
X47199642Y-172148904D01*
X47275833Y-172110809D01*
X47313928Y-172072714D01*
X47352023Y-171996523D01*
X47390119Y-171844142D01*
X47390119Y-171653666D01*
X47352023Y-171501285D01*
X47313928Y-171425095D01*
X47275833Y-171387000D01*
X47199642Y-171348904D01*
X237032428Y-172148904D02*
X237032428Y-171348904D01*
X236841952Y-171348904D01*
X236727666Y-171387000D01*
X236651476Y-171463190D01*
X236613380Y-171539380D01*
X236575285Y-171691761D01*
X236575285Y-171806047D01*
X236613380Y-171958428D01*
X236651476Y-172034619D01*
X236727666Y-172110809D01*
X236841952Y-172148904D01*
X237032428Y-172148904D01*
X236308619Y-171348904D02*
X235775285Y-171348904D01*
X236118142Y-172148904D01*
X235089571Y-171348904D02*
X235470523Y-171348904D01*
X235508619Y-171729857D01*
X235470523Y-171691761D01*
X235394333Y-171653666D01*
X235203857Y-171653666D01*
X235127666Y-171691761D01*
X235089571Y-171729857D01*
X235051476Y-171806047D01*
X235051476Y-171996523D01*
X235089571Y-172072714D01*
X235127666Y-172110809D01*
X235203857Y-172148904D01*
X235394333Y-172148904D01*
X235470523Y-172110809D01*
X235508619Y-172072714D01*
X172401476Y-95948904D02*
X172401476Y-95148904D01*
X172211000Y-95148904D01*
X172096714Y-95187000D01*
X172020523Y-95263190D01*
X171982428Y-95339380D01*
X171944333Y-95491761D01*
X171944333Y-95606047D01*
X171982428Y-95758428D01*
X172020523Y-95834619D01*
X172096714Y-95910809D01*
X172211000Y-95948904D01*
X172401476Y-95948904D01*
X171487190Y-95491761D02*
X171563380Y-95453666D01*
X171601476Y-95415571D01*
X171639571Y-95339380D01*
X171639571Y-95301285D01*
X171601476Y-95225095D01*
X171563380Y-95187000D01*
X171487190Y-95148904D01*
X171334809Y-95148904D01*
X171258619Y-95187000D01*
X171220523Y-95225095D01*
X171182428Y-95301285D01*
X171182428Y-95339380D01*
X171220523Y-95415571D01*
X171258619Y-95453666D01*
X171334809Y-95491761D01*
X171487190Y-95491761D01*
X171563380Y-95529857D01*
X171601476Y-95567952D01*
X171639571Y-95644142D01*
X171639571Y-95796523D01*
X171601476Y-95872714D01*
X171563380Y-95910809D01*
X171487190Y-95948904D01*
X171334809Y-95948904D01*
X171258619Y-95910809D01*
X171220523Y-95872714D01*
X171182428Y-95796523D01*
X171182428Y-95644142D01*
X171220523Y-95567952D01*
X171258619Y-95529857D01*
X171334809Y-95491761D01*
X220407428Y-114998904D02*
X220407428Y-114198904D01*
X220216952Y-114198904D01*
X220102666Y-114237000D01*
X220026476Y-114313190D01*
X219988380Y-114389380D01*
X219950285Y-114541761D01*
X219950285Y-114656047D01*
X219988380Y-114808428D01*
X220026476Y-114884619D01*
X220102666Y-114960809D01*
X220216952Y-114998904D01*
X220407428Y-114998904D01*
X219645523Y-114275095D02*
X219607428Y-114237000D01*
X219531238Y-114198904D01*
X219340761Y-114198904D01*
X219264571Y-114237000D01*
X219226476Y-114275095D01*
X219188380Y-114351285D01*
X219188380Y-114427476D01*
X219226476Y-114541761D01*
X219683619Y-114998904D01*
X219188380Y-114998904D01*
X218731238Y-114541761D02*
X218807428Y-114503666D01*
X218845523Y-114465571D01*
X218883619Y-114389380D01*
X218883619Y-114351285D01*
X218845523Y-114275095D01*
X218807428Y-114237000D01*
X218731238Y-114198904D01*
X218578857Y-114198904D01*
X218502666Y-114237000D01*
X218464571Y-114275095D01*
X218426476Y-114351285D01*
X218426476Y-114389380D01*
X218464571Y-114465571D01*
X218502666Y-114503666D01*
X218578857Y-114541761D01*
X218731238Y-114541761D01*
X218807428Y-114579857D01*
X218845523Y-114617952D01*
X218883619Y-114694142D01*
X218883619Y-114846523D01*
X218845523Y-114922714D01*
X218807428Y-114960809D01*
X218731238Y-114998904D01*
X218578857Y-114998904D01*
X218502666Y-114960809D01*
X218464571Y-114922714D01*
X218426476Y-114846523D01*
X218426476Y-114694142D01*
X218464571Y-114617952D01*
X218502666Y-114579857D01*
X218578857Y-114541761D01*
X268032428Y-95948904D02*
X268032428Y-95148904D01*
X267841952Y-95148904D01*
X267727666Y-95187000D01*
X267651476Y-95263190D01*
X267613380Y-95339380D01*
X267575285Y-95491761D01*
X267575285Y-95606047D01*
X267613380Y-95758428D01*
X267651476Y-95834619D01*
X267727666Y-95910809D01*
X267841952Y-95948904D01*
X268032428Y-95948904D01*
X266813380Y-95948904D02*
X267270523Y-95948904D01*
X267041952Y-95948904D02*
X267041952Y-95148904D01*
X267118142Y-95263190D01*
X267194333Y-95339380D01*
X267270523Y-95377476D01*
X266546714Y-95148904D02*
X266051476Y-95148904D01*
X266318142Y-95453666D01*
X266203857Y-95453666D01*
X266127666Y-95491761D01*
X266089571Y-95529857D01*
X266051476Y-95606047D01*
X266051476Y-95796523D01*
X266089571Y-95872714D01*
X266127666Y-95910809D01*
X266203857Y-95948904D01*
X266432428Y-95948904D01*
X266508619Y-95910809D01*
X266546714Y-95872714D01*
X291845428Y-153098904D02*
X291845428Y-152298904D01*
X291654952Y-152298904D01*
X291540666Y-152337000D01*
X291464476Y-152413190D01*
X291426380Y-152489380D01*
X291388285Y-152641761D01*
X291388285Y-152756047D01*
X291426380Y-152908428D01*
X291464476Y-152984619D01*
X291540666Y-153060809D01*
X291654952Y-153098904D01*
X291845428Y-153098904D01*
X290702571Y-152298904D02*
X290854952Y-152298904D01*
X290931142Y-152337000D01*
X290969238Y-152375095D01*
X291045428Y-152489380D01*
X291083523Y-152641761D01*
X291083523Y-152946523D01*
X291045428Y-153022714D01*
X291007333Y-153060809D01*
X290931142Y-153098904D01*
X290778761Y-153098904D01*
X290702571Y-153060809D01*
X290664476Y-153022714D01*
X290626380Y-152946523D01*
X290626380Y-152756047D01*
X290664476Y-152679857D01*
X290702571Y-152641761D01*
X290778761Y-152603666D01*
X290931142Y-152603666D01*
X291007333Y-152641761D01*
X291045428Y-152679857D01*
X291083523Y-152756047D01*
X289940666Y-152298904D02*
X290093047Y-152298904D01*
X290169238Y-152337000D01*
X290207333Y-152375095D01*
X290283523Y-152489380D01*
X290321619Y-152641761D01*
X290321619Y-152946523D01*
X290283523Y-153022714D01*
X290245428Y-153060809D01*
X290169238Y-153098904D01*
X290016857Y-153098904D01*
X289940666Y-153060809D01*
X289902571Y-153022714D01*
X289864476Y-152946523D01*
X289864476Y-152756047D01*
X289902571Y-152679857D01*
X289940666Y-152641761D01*
X290016857Y-152603666D01*
X290169238Y-152603666D01*
X290245428Y-152641761D01*
X290283523Y-152679857D01*
X290321619Y-152756047D01*
X134301476Y-95948904D02*
X134301476Y-95148904D01*
X134111000Y-95148904D01*
X133996714Y-95187000D01*
X133920523Y-95263190D01*
X133882428Y-95339380D01*
X133844333Y-95491761D01*
X133844333Y-95606047D01*
X133882428Y-95758428D01*
X133920523Y-95834619D01*
X133996714Y-95910809D01*
X134111000Y-95948904D01*
X134301476Y-95948904D01*
X133158619Y-95148904D02*
X133311000Y-95148904D01*
X133387190Y-95187000D01*
X133425285Y-95225095D01*
X133501476Y-95339380D01*
X133539571Y-95491761D01*
X133539571Y-95796523D01*
X133501476Y-95872714D01*
X133463380Y-95910809D01*
X133387190Y-95948904D01*
X133234809Y-95948904D01*
X133158619Y-95910809D01*
X133120523Y-95872714D01*
X133082428Y-95796523D01*
X133082428Y-95606047D01*
X133120523Y-95529857D01*
X133158619Y-95491761D01*
X133234809Y-95453666D01*
X133387190Y-95453666D01*
X133463380Y-95491761D01*
X133501476Y-95529857D01*
X133539571Y-95606047D01*
X206119428Y-134048904D02*
X206119428Y-133248904D01*
X205928952Y-133248904D01*
X205814666Y-133287000D01*
X205738476Y-133363190D01*
X205700380Y-133439380D01*
X205662285Y-133591761D01*
X205662285Y-133706047D01*
X205700380Y-133858428D01*
X205738476Y-133934619D01*
X205814666Y-134010809D01*
X205928952Y-134048904D01*
X206119428Y-134048904D01*
X204976571Y-133515571D02*
X204976571Y-134048904D01*
X205167047Y-133210809D02*
X205357523Y-133782238D01*
X204862285Y-133782238D01*
X204214666Y-133515571D02*
X204214666Y-134048904D01*
X204405142Y-133210809D02*
X204595619Y-133782238D01*
X204100380Y-133782238D01*
X244219428Y-134048904D02*
X244219428Y-133248904D01*
X244028952Y-133248904D01*
X243914666Y-133287000D01*
X243838476Y-133363190D01*
X243800380Y-133439380D01*
X243762285Y-133591761D01*
X243762285Y-133706047D01*
X243800380Y-133858428D01*
X243838476Y-133934619D01*
X243914666Y-134010809D01*
X244028952Y-134048904D01*
X244219428Y-134048904D01*
X243076571Y-133515571D02*
X243076571Y-134048904D01*
X243267047Y-133210809D02*
X243457523Y-133782238D01*
X242962285Y-133782238D01*
X242314666Y-133248904D02*
X242467047Y-133248904D01*
X242543238Y-133287000D01*
X242581333Y-133325095D01*
X242657523Y-133439380D01*
X242695619Y-133591761D01*
X242695619Y-133896523D01*
X242657523Y-133972714D01*
X242619428Y-134010809D01*
X242543238Y-134048904D01*
X242390857Y-134048904D01*
X242314666Y-134010809D01*
X242276571Y-133972714D01*
X242238476Y-133896523D01*
X242238476Y-133706047D01*
X242276571Y-133629857D01*
X242314666Y-133591761D01*
X242390857Y-133553666D01*
X242543238Y-133553666D01*
X242619428Y-133591761D01*
X242657523Y-133629857D01*
X242695619Y-133706047D01*
X339469428Y-134048904D02*
X339469428Y-133248904D01*
X339278952Y-133248904D01*
X339164666Y-133287000D01*
X339088476Y-133363190D01*
X339050380Y-133439380D01*
X339012285Y-133591761D01*
X339012285Y-133706047D01*
X339050380Y-133858428D01*
X339088476Y-133934619D01*
X339164666Y-134010809D01*
X339278952Y-134048904D01*
X339469428Y-134048904D01*
X338288476Y-133248904D02*
X338669428Y-133248904D01*
X338707523Y-133629857D01*
X338669428Y-133591761D01*
X338593238Y-133553666D01*
X338402761Y-133553666D01*
X338326571Y-133591761D01*
X338288476Y-133629857D01*
X338250380Y-133706047D01*
X338250380Y-133896523D01*
X338288476Y-133972714D01*
X338326571Y-134010809D01*
X338402761Y-134048904D01*
X338593238Y-134048904D01*
X338669428Y-134010809D01*
X338707523Y-133972714D01*
X337488476Y-134048904D02*
X337945619Y-134048904D01*
X337717047Y-134048904D02*
X337717047Y-133248904D01*
X337793238Y-133363190D01*
X337869428Y-133439380D01*
X337945619Y-133477476D01*
X229932428Y-95948904D02*
X229932428Y-95148904D01*
X229741952Y-95148904D01*
X229627666Y-95187000D01*
X229551476Y-95263190D01*
X229513380Y-95339380D01*
X229475285Y-95491761D01*
X229475285Y-95606047D01*
X229513380Y-95758428D01*
X229551476Y-95834619D01*
X229627666Y-95910809D01*
X229741952Y-95948904D01*
X229932428Y-95948904D01*
X228713380Y-95948904D02*
X229170523Y-95948904D01*
X228941952Y-95948904D02*
X228941952Y-95148904D01*
X229018142Y-95263190D01*
X229094333Y-95339380D01*
X229170523Y-95377476D01*
X227951476Y-95948904D02*
X228408619Y-95948904D01*
X228180047Y-95948904D02*
X228180047Y-95148904D01*
X228256238Y-95263190D01*
X228332428Y-95339380D01*
X228408619Y-95377476D01*
X234695428Y-153098904D02*
X234695428Y-152298904D01*
X234504952Y-152298904D01*
X234390666Y-152337000D01*
X234314476Y-152413190D01*
X234276380Y-152489380D01*
X234238285Y-152641761D01*
X234238285Y-152756047D01*
X234276380Y-152908428D01*
X234314476Y-152984619D01*
X234390666Y-153060809D01*
X234504952Y-153098904D01*
X234695428Y-153098904D01*
X233552571Y-152298904D02*
X233704952Y-152298904D01*
X233781142Y-152337000D01*
X233819238Y-152375095D01*
X233895428Y-152489380D01*
X233933523Y-152641761D01*
X233933523Y-152946523D01*
X233895428Y-153022714D01*
X233857333Y-153060809D01*
X233781142Y-153098904D01*
X233628761Y-153098904D01*
X233552571Y-153060809D01*
X233514476Y-153022714D01*
X233476380Y-152946523D01*
X233476380Y-152756047D01*
X233514476Y-152679857D01*
X233552571Y-152641761D01*
X233628761Y-152603666D01*
X233781142Y-152603666D01*
X233857333Y-152641761D01*
X233895428Y-152679857D01*
X233933523Y-152756047D01*
X233209714Y-152298904D02*
X232714476Y-152298904D01*
X232981142Y-152603666D01*
X232866857Y-152603666D01*
X232790666Y-152641761D01*
X232752571Y-152679857D01*
X232714476Y-152756047D01*
X232714476Y-152946523D01*
X232752571Y-153022714D01*
X232790666Y-153060809D01*
X232866857Y-153098904D01*
X233095428Y-153098904D01*
X233171619Y-153060809D01*
X233209714Y-153022714D01*
X239457428Y-114998904D02*
X239457428Y-114198904D01*
X239266952Y-114198904D01*
X239152666Y-114237000D01*
X239076476Y-114313190D01*
X239038380Y-114389380D01*
X239000285Y-114541761D01*
X239000285Y-114656047D01*
X239038380Y-114808428D01*
X239076476Y-114884619D01*
X239152666Y-114960809D01*
X239266952Y-114998904D01*
X239457428Y-114998904D01*
X238695523Y-114275095D02*
X238657428Y-114237000D01*
X238581238Y-114198904D01*
X238390761Y-114198904D01*
X238314571Y-114237000D01*
X238276476Y-114275095D01*
X238238380Y-114351285D01*
X238238380Y-114427476D01*
X238276476Y-114541761D01*
X238733619Y-114998904D01*
X238238380Y-114998904D01*
X237857428Y-114998904D02*
X237705047Y-114998904D01*
X237628857Y-114960809D01*
X237590761Y-114922714D01*
X237514571Y-114808428D01*
X237476476Y-114656047D01*
X237476476Y-114351285D01*
X237514571Y-114275095D01*
X237552666Y-114237000D01*
X237628857Y-114198904D01*
X237781238Y-114198904D01*
X237857428Y-114237000D01*
X237895523Y-114275095D01*
X237933619Y-114351285D01*
X237933619Y-114541761D01*
X237895523Y-114617952D01*
X237857428Y-114656047D01*
X237781238Y-114694142D01*
X237628857Y-114694142D01*
X237552666Y-114656047D01*
X237514571Y-114617952D01*
X237476476Y-114541761D01*
X77532628Y-153098904D02*
X77532628Y-152298904D01*
X77342152Y-152298904D01*
X77227866Y-152337000D01*
X77151676Y-152413190D01*
X77113580Y-152489380D01*
X77075485Y-152641761D01*
X77075485Y-152756047D01*
X77113580Y-152908428D01*
X77151676Y-152984619D01*
X77227866Y-153060809D01*
X77342152Y-153098904D01*
X77532628Y-153098904D01*
X76351676Y-152298904D02*
X76732628Y-152298904D01*
X76770723Y-152679857D01*
X76732628Y-152641761D01*
X76656438Y-152603666D01*
X76465961Y-152603666D01*
X76389771Y-152641761D01*
X76351676Y-152679857D01*
X76313580Y-152756047D01*
X76313580Y-152946523D01*
X76351676Y-153022714D01*
X76389771Y-153060809D01*
X76465961Y-153098904D01*
X76656438Y-153098904D01*
X76732628Y-153060809D01*
X76770723Y-153022714D01*
X75589771Y-152298904D02*
X75970723Y-152298904D01*
X76008819Y-152679857D01*
X75970723Y-152641761D01*
X75894533Y-152603666D01*
X75704057Y-152603666D01*
X75627866Y-152641761D01*
X75589771Y-152679857D01*
X75551676Y-152756047D01*
X75551676Y-152946523D01*
X75589771Y-153022714D01*
X75627866Y-153060809D01*
X75704057Y-153098904D01*
X75894533Y-153098904D01*
X75970723Y-153060809D01*
X76008819Y-153022714D01*
X122622904Y-106446523D02*
X121822904Y-106446523D01*
X121822904Y-106637000D01*
X121861000Y-106751285D01*
X121937190Y-106827476D01*
X122013380Y-106865571D01*
X122165761Y-106903666D01*
X122280047Y-106903666D01*
X122432428Y-106865571D01*
X122508619Y-106827476D01*
X122584809Y-106751285D01*
X122622904Y-106637000D01*
X122622904Y-106446523D01*
X121822904Y-107627476D02*
X121822904Y-107246523D01*
X122203857Y-107208428D01*
X122165761Y-107246523D01*
X122127666Y-107322714D01*
X122127666Y-107513190D01*
X122165761Y-107589380D01*
X122203857Y-107627476D01*
X122280047Y-107665571D01*
X122470523Y-107665571D01*
X122546714Y-107627476D01*
X122584809Y-107589380D01*
X122622904Y-107513190D01*
X122622904Y-107322714D01*
X122584809Y-107246523D01*
X122546714Y-107208428D01*
X187069428Y-134048904D02*
X187069428Y-133248904D01*
X186878952Y-133248904D01*
X186764666Y-133287000D01*
X186688476Y-133363190D01*
X186650380Y-133439380D01*
X186612285Y-133591761D01*
X186612285Y-133706047D01*
X186650380Y-133858428D01*
X186688476Y-133934619D01*
X186764666Y-134010809D01*
X186878952Y-134048904D01*
X187069428Y-134048904D01*
X185926571Y-133515571D02*
X185926571Y-134048904D01*
X186117047Y-133210809D02*
X186307523Y-133782238D01*
X185812285Y-133782238D01*
X185583714Y-133248904D02*
X185088476Y-133248904D01*
X185355142Y-133553666D01*
X185240857Y-133553666D01*
X185164666Y-133591761D01*
X185126571Y-133629857D01*
X185088476Y-133706047D01*
X185088476Y-133896523D01*
X185126571Y-133972714D01*
X185164666Y-134010809D01*
X185240857Y-134048904D01*
X185469428Y-134048904D01*
X185545619Y-134010809D01*
X185583714Y-133972714D01*
X147529428Y-172148904D02*
X147529428Y-171348904D01*
X147338952Y-171348904D01*
X147224666Y-171387000D01*
X147148476Y-171463190D01*
X147110380Y-171539380D01*
X147072285Y-171691761D01*
X147072285Y-171806047D01*
X147110380Y-171958428D01*
X147148476Y-172034619D01*
X147224666Y-172110809D01*
X147338952Y-172148904D01*
X147529428Y-172148904D01*
X146805619Y-171348904D02*
X146272285Y-171348904D01*
X146615142Y-172148904D01*
X146043714Y-171348904D02*
X145548476Y-171348904D01*
X145815142Y-171653666D01*
X145700857Y-171653666D01*
X145624666Y-171691761D01*
X145586571Y-171729857D01*
X145548476Y-171806047D01*
X145548476Y-171996523D01*
X145586571Y-172072714D01*
X145624666Y-172110809D01*
X145700857Y-172148904D01*
X145929428Y-172148904D01*
X146005619Y-172110809D01*
X146043714Y-172072714D01*
X315657428Y-114998904D02*
X315657428Y-114198904D01*
X315466952Y-114198904D01*
X315352666Y-114237000D01*
X315276476Y-114313190D01*
X315238380Y-114389380D01*
X315200285Y-114541761D01*
X315200285Y-114656047D01*
X315238380Y-114808428D01*
X315276476Y-114884619D01*
X315352666Y-114960809D01*
X315466952Y-114998904D01*
X315657428Y-114998904D01*
X314933619Y-114198904D02*
X314438380Y-114198904D01*
X314705047Y-114503666D01*
X314590761Y-114503666D01*
X314514571Y-114541761D01*
X314476476Y-114579857D01*
X314438380Y-114656047D01*
X314438380Y-114846523D01*
X314476476Y-114922714D01*
X314514571Y-114960809D01*
X314590761Y-114998904D01*
X314819333Y-114998904D01*
X314895523Y-114960809D01*
X314933619Y-114922714D01*
X314171714Y-114198904D02*
X313676476Y-114198904D01*
X313943142Y-114503666D01*
X313828857Y-114503666D01*
X313752666Y-114541761D01*
X313714571Y-114579857D01*
X313676476Y-114656047D01*
X313676476Y-114846523D01*
X313714571Y-114922714D01*
X313752666Y-114960809D01*
X313828857Y-114998904D01*
X314057428Y-114998904D01*
X314133619Y-114960809D01*
X314171714Y-114922714D01*
X258507428Y-114998904D02*
X258507428Y-114198904D01*
X258316952Y-114198904D01*
X258202666Y-114237000D01*
X258126476Y-114313190D01*
X258088380Y-114389380D01*
X258050285Y-114541761D01*
X258050285Y-114656047D01*
X258088380Y-114808428D01*
X258126476Y-114884619D01*
X258202666Y-114960809D01*
X258316952Y-114998904D01*
X258507428Y-114998904D01*
X257783619Y-114198904D02*
X257288380Y-114198904D01*
X257555047Y-114503666D01*
X257440761Y-114503666D01*
X257364571Y-114541761D01*
X257326476Y-114579857D01*
X257288380Y-114656047D01*
X257288380Y-114846523D01*
X257326476Y-114922714D01*
X257364571Y-114960809D01*
X257440761Y-114998904D01*
X257669333Y-114998904D01*
X257745523Y-114960809D01*
X257783619Y-114922714D01*
X256793142Y-114198904D02*
X256716952Y-114198904D01*
X256640761Y-114237000D01*
X256602666Y-114275095D01*
X256564571Y-114351285D01*
X256526476Y-114503666D01*
X256526476Y-114694142D01*
X256564571Y-114846523D01*
X256602666Y-114922714D01*
X256640761Y-114960809D01*
X256716952Y-114998904D01*
X256793142Y-114998904D01*
X256869333Y-114960809D01*
X256907428Y-114922714D01*
X256945523Y-114846523D01*
X256983619Y-114694142D01*
X256983619Y-114503666D01*
X256945523Y-114351285D01*
X256907428Y-114275095D01*
X256869333Y-114237000D01*
X256793142Y-114198904D01*
X351376428Y-114998904D02*
X351376428Y-114198904D01*
X351185952Y-114198904D01*
X351071666Y-114237000D01*
X350995476Y-114313190D01*
X350957380Y-114389380D01*
X350919285Y-114541761D01*
X350919285Y-114656047D01*
X350957380Y-114808428D01*
X350995476Y-114884619D01*
X351071666Y-114960809D01*
X351185952Y-114998904D01*
X351376428Y-114998904D01*
X350652619Y-114198904D02*
X350157380Y-114198904D01*
X350424047Y-114503666D01*
X350309761Y-114503666D01*
X350233571Y-114541761D01*
X350195476Y-114579857D01*
X350157380Y-114656047D01*
X350157380Y-114846523D01*
X350195476Y-114922714D01*
X350233571Y-114960809D01*
X350309761Y-114998904D01*
X350538333Y-114998904D01*
X350614523Y-114960809D01*
X350652619Y-114922714D01*
X349433571Y-114198904D02*
X349814523Y-114198904D01*
X349852619Y-114579857D01*
X349814523Y-114541761D01*
X349738333Y-114503666D01*
X349547857Y-114503666D01*
X349471666Y-114541761D01*
X349433571Y-114579857D01*
X349395476Y-114656047D01*
X349395476Y-114846523D01*
X349433571Y-114922714D01*
X349471666Y-114960809D01*
X349547857Y-114998904D01*
X349738333Y-114998904D01*
X349814523Y-114960809D01*
X349852619Y-114922714D01*
X144207428Y-114998904D02*
X144207428Y-114198904D01*
X144016952Y-114198904D01*
X143902666Y-114237000D01*
X143826476Y-114313190D01*
X143788380Y-114389380D01*
X143750285Y-114541761D01*
X143750285Y-114656047D01*
X143788380Y-114808428D01*
X143826476Y-114884619D01*
X143902666Y-114960809D01*
X144016952Y-114998904D01*
X144207428Y-114998904D01*
X143445523Y-114275095D02*
X143407428Y-114237000D01*
X143331238Y-114198904D01*
X143140761Y-114198904D01*
X143064571Y-114237000D01*
X143026476Y-114275095D01*
X142988380Y-114351285D01*
X142988380Y-114427476D01*
X143026476Y-114541761D01*
X143483619Y-114998904D01*
X142988380Y-114998904D01*
X142302666Y-114465571D02*
X142302666Y-114998904D01*
X142493142Y-114160809D02*
X142683619Y-114732238D01*
X142188380Y-114732238D01*
X158495428Y-153098904D02*
X158495428Y-152298904D01*
X158304952Y-152298904D01*
X158190666Y-152337000D01*
X158114476Y-152413190D01*
X158076380Y-152489380D01*
X158038285Y-152641761D01*
X158038285Y-152756047D01*
X158076380Y-152908428D01*
X158114476Y-152984619D01*
X158190666Y-153060809D01*
X158304952Y-153098904D01*
X158495428Y-153098904D01*
X157314476Y-152298904D02*
X157695428Y-152298904D01*
X157733523Y-152679857D01*
X157695428Y-152641761D01*
X157619238Y-152603666D01*
X157428761Y-152603666D01*
X157352571Y-152641761D01*
X157314476Y-152679857D01*
X157276380Y-152756047D01*
X157276380Y-152946523D01*
X157314476Y-153022714D01*
X157352571Y-153060809D01*
X157428761Y-153098904D01*
X157619238Y-153098904D01*
X157695428Y-153060809D01*
X157733523Y-153022714D01*
X156895428Y-153098904D02*
X156743047Y-153098904D01*
X156666857Y-153060809D01*
X156628761Y-153022714D01*
X156552571Y-152908428D01*
X156514476Y-152756047D01*
X156514476Y-152451285D01*
X156552571Y-152375095D01*
X156590666Y-152337000D01*
X156666857Y-152298904D01*
X156819238Y-152298904D01*
X156895428Y-152337000D01*
X156933523Y-152375095D01*
X156971619Y-152451285D01*
X156971619Y-152641761D01*
X156933523Y-152717952D01*
X156895428Y-152756047D01*
X156819238Y-152794142D01*
X156666857Y-152794142D01*
X156590666Y-152756047D01*
X156552571Y-152717952D01*
X156514476Y-152641761D01*
X148969428Y-134048904D02*
X148969428Y-133248904D01*
X148778952Y-133248904D01*
X148664666Y-133287000D01*
X148588476Y-133363190D01*
X148550380Y-133439380D01*
X148512285Y-133591761D01*
X148512285Y-133706047D01*
X148550380Y-133858428D01*
X148588476Y-133934619D01*
X148664666Y-134010809D01*
X148778952Y-134048904D01*
X148969428Y-134048904D01*
X147826571Y-133515571D02*
X147826571Y-134048904D01*
X148017047Y-133210809D02*
X148207523Y-133782238D01*
X147712285Y-133782238D01*
X146988476Y-134048904D02*
X147445619Y-134048904D01*
X147217047Y-134048904D02*
X147217047Y-133248904D01*
X147293238Y-133363190D01*
X147369428Y-133439380D01*
X147445619Y-133477476D01*
X39051676Y-95948904D02*
X39051676Y-95148904D01*
X38861200Y-95148904D01*
X38746914Y-95187000D01*
X38670723Y-95263190D01*
X38632628Y-95339380D01*
X38594533Y-95491761D01*
X38594533Y-95606047D01*
X38632628Y-95758428D01*
X38670723Y-95834619D01*
X38746914Y-95910809D01*
X38861200Y-95948904D01*
X39051676Y-95948904D01*
X37832628Y-95948904D02*
X38289771Y-95948904D01*
X38061200Y-95948904D02*
X38061200Y-95148904D01*
X38137390Y-95263190D01*
X38213580Y-95339380D01*
X38289771Y-95377476D01*
X201357428Y-114998904D02*
X201357428Y-114198904D01*
X201166952Y-114198904D01*
X201052666Y-114237000D01*
X200976476Y-114313190D01*
X200938380Y-114389380D01*
X200900285Y-114541761D01*
X200900285Y-114656047D01*
X200938380Y-114808428D01*
X200976476Y-114884619D01*
X201052666Y-114960809D01*
X201166952Y-114998904D01*
X201357428Y-114998904D01*
X200595523Y-114275095D02*
X200557428Y-114237000D01*
X200481238Y-114198904D01*
X200290761Y-114198904D01*
X200214571Y-114237000D01*
X200176476Y-114275095D01*
X200138380Y-114351285D01*
X200138380Y-114427476D01*
X200176476Y-114541761D01*
X200633619Y-114998904D01*
X200138380Y-114998904D01*
X199871714Y-114198904D02*
X199338380Y-114198904D01*
X199681238Y-114998904D01*
X386897904Y-181559371D02*
X386097904Y-181559371D01*
X386097904Y-181749847D01*
X386136000Y-181864133D01*
X386212190Y-181940323D01*
X386288380Y-181978419D01*
X386440761Y-182016514D01*
X386555047Y-182016514D01*
X386707428Y-181978419D01*
X386783619Y-181940323D01*
X386859809Y-181864133D01*
X386897904Y-181749847D01*
X386897904Y-181559371D01*
X386097904Y-182283180D02*
X386097904Y-182816514D01*
X386897904Y-182473657D01*
X386897904Y-183159371D02*
X386897904Y-183311752D01*
X386859809Y-183387942D01*
X386821714Y-183426038D01*
X386707428Y-183502228D01*
X386555047Y-183540323D01*
X386250285Y-183540323D01*
X386174095Y-183502228D01*
X386136000Y-183464133D01*
X386097904Y-183387942D01*
X386097904Y-183235561D01*
X386136000Y-183159371D01*
X386174095Y-183121276D01*
X386250285Y-183083180D01*
X386440761Y-183083180D01*
X386516952Y-183121276D01*
X386555047Y-183159371D01*
X386593142Y-183235561D01*
X386593142Y-183387942D01*
X386555047Y-183464133D01*
X386516952Y-183502228D01*
X386440761Y-183540323D01*
M02*
