%TF.GenerationSoftware,KiCad,Pcbnew,5.1.10-88a1d61d58~88~ubuntu21.04.1*%
%TF.CreationDate,2021-06-04T00:00:19+02:00*%
%TF.ProjectId,southpawpcb,736f7574-6870-4617-9770-63622e6b6963,rev?*%
%TF.SameCoordinates,Original*%
%TF.FileFunction,Legend,Top*%
%TF.FilePolarity,Positive*%
%FSLAX46Y46*%
G04 Gerber Fmt 4.6, Leading zero omitted, Abs format (unit mm)*
G04 Created by KiCad (PCBNEW 5.1.10-88a1d61d58~88~ubuntu21.04.1) date 2021-06-04 00:00:19*
%MOMM*%
%LPD*%
G01*
G04 APERTURE LIST*
%ADD10C,0.100000*%
%TA.AperFunction,Profile*%
%ADD11C,0.050000*%
%TD*%
%ADD12C,0.200000*%
%ADD13C,0.150000*%
G04 APERTURE END LIST*
D10*
X355846285Y-148788380D02*
X355274857Y-148788380D01*
X355560571Y-148788380D02*
X355560571Y-147788380D01*
X355465333Y-147931238D01*
X355370095Y-148026476D01*
X355274857Y-148074095D01*
X356703428Y-148121714D02*
X356703428Y-148788380D01*
X356274857Y-148121714D02*
X356274857Y-148645523D01*
X356322476Y-148740761D01*
X356417714Y-148788380D01*
X356560571Y-148788380D01*
X356655809Y-148740761D01*
X356703428Y-148693142D01*
X357941523Y-148788380D02*
X357941523Y-147788380D01*
X358370095Y-148740761D02*
X358512952Y-148788380D01*
X358751047Y-148788380D01*
X358846285Y-148740761D01*
X358893904Y-148693142D01*
X358941523Y-148597904D01*
X358941523Y-148502666D01*
X358893904Y-148407428D01*
X358846285Y-148359809D01*
X358751047Y-148312190D01*
X358560571Y-148264571D01*
X358465333Y-148216952D01*
X358417714Y-148169333D01*
X358370095Y-148074095D01*
X358370095Y-147978857D01*
X358417714Y-147883619D01*
X358465333Y-147836000D01*
X358560571Y-147788380D01*
X358798666Y-147788380D01*
X358941523Y-147836000D01*
X359560571Y-147788380D02*
X359751047Y-147788380D01*
X359846285Y-147836000D01*
X359941523Y-147931238D01*
X359989142Y-148121714D01*
X359989142Y-148455047D01*
X359941523Y-148645523D01*
X359846285Y-148740761D01*
X359751047Y-148788380D01*
X359560571Y-148788380D01*
X359465333Y-148740761D01*
X359370095Y-148645523D01*
X359322476Y-148455047D01*
X359322476Y-148121714D01*
X359370095Y-147931238D01*
X359465333Y-147836000D01*
X359560571Y-147788380D01*
X376395123Y-143073380D02*
X376395123Y-142073380D01*
X376823695Y-143025761D02*
X376966552Y-143073380D01*
X377204647Y-143073380D01*
X377299885Y-143025761D01*
X377347504Y-142978142D01*
X377395123Y-142882904D01*
X377395123Y-142787666D01*
X377347504Y-142692428D01*
X377299885Y-142644809D01*
X377204647Y-142597190D01*
X377014171Y-142549571D01*
X376918933Y-142501952D01*
X376871314Y-142454333D01*
X376823695Y-142359095D01*
X376823695Y-142263857D01*
X376871314Y-142168619D01*
X376918933Y-142121000D01*
X377014171Y-142073380D01*
X377252266Y-142073380D01*
X377395123Y-142121000D01*
X378014171Y-142073380D02*
X378204647Y-142073380D01*
X378299885Y-142121000D01*
X378395123Y-142216238D01*
X378442742Y-142406714D01*
X378442742Y-142740047D01*
X378395123Y-142930523D01*
X378299885Y-143025761D01*
X378204647Y-143073380D01*
X378014171Y-143073380D01*
X377918933Y-143025761D01*
X377823695Y-142930523D01*
X377776076Y-142740047D01*
X377776076Y-142406714D01*
X377823695Y-142216238D01*
X377918933Y-142121000D01*
X378014171Y-142073380D01*
X379633219Y-142549571D02*
X379966552Y-142549571D01*
X380109409Y-143073380D02*
X379633219Y-143073380D01*
X379633219Y-142073380D01*
X380109409Y-142073380D01*
X380537980Y-143073380D02*
X380537980Y-142073380D01*
X381109409Y-143073380D01*
X381109409Y-142073380D01*
X381442742Y-142073380D02*
X382014171Y-142073380D01*
X381728457Y-143073380D02*
X381728457Y-142073380D01*
X382347504Y-142549571D02*
X382680838Y-142549571D01*
X382823695Y-143073380D02*
X382347504Y-143073380D01*
X382347504Y-142073380D01*
X382823695Y-142073380D01*
X383823695Y-143073380D02*
X383490361Y-142597190D01*
X383252266Y-143073380D02*
X383252266Y-142073380D01*
X383633219Y-142073380D01*
X383728457Y-142121000D01*
X383776076Y-142168619D01*
X383823695Y-142263857D01*
X383823695Y-142406714D01*
X383776076Y-142501952D01*
X383728457Y-142549571D01*
X383633219Y-142597190D01*
X383252266Y-142597190D01*
X366673333Y-150788666D02*
X367149523Y-150788666D01*
X366578095Y-151074380D02*
X366911428Y-150074380D01*
X367244761Y-151074380D01*
X367578095Y-151074380D02*
X367578095Y-150074380D01*
X368149523Y-151074380D01*
X368149523Y-150074380D01*
X368578095Y-151026761D02*
X368720952Y-151074380D01*
X368959047Y-151074380D01*
X369054285Y-151026761D01*
X369101904Y-150979142D01*
X369149523Y-150883904D01*
X369149523Y-150788666D01*
X369101904Y-150693428D01*
X369054285Y-150645809D01*
X368959047Y-150598190D01*
X368768571Y-150550571D01*
X368673333Y-150502952D01*
X368625714Y-150455333D01*
X368578095Y-150360095D01*
X368578095Y-150264857D01*
X368625714Y-150169619D01*
X368673333Y-150122000D01*
X368768571Y-150074380D01*
X369006666Y-150074380D01*
X369149523Y-150122000D01*
X369578095Y-151074380D02*
X369578095Y-150074380D01*
X370816190Y-150550571D02*
X371149523Y-150550571D01*
X371292380Y-151074380D02*
X370816190Y-151074380D01*
X370816190Y-150074380D01*
X371292380Y-150074380D01*
X371720952Y-151074380D02*
X371720952Y-150074380D01*
X372292380Y-151074380D01*
X372292380Y-150074380D01*
X372625714Y-150074380D02*
X373197142Y-150074380D01*
X372911428Y-151074380D02*
X372911428Y-150074380D01*
X373530476Y-150550571D02*
X373863809Y-150550571D01*
X374006666Y-151074380D02*
X373530476Y-151074380D01*
X373530476Y-150074380D01*
X374006666Y-150074380D01*
X375006666Y-151074380D02*
X374673333Y-150598190D01*
X374435238Y-151074380D02*
X374435238Y-150074380D01*
X374816190Y-150074380D01*
X374911428Y-150122000D01*
X374959047Y-150169619D01*
X375006666Y-150264857D01*
X375006666Y-150407714D01*
X374959047Y-150502952D01*
X374911428Y-150550571D01*
X374816190Y-150598190D01*
X374435238Y-150598190D01*
X138422083Y-167800380D02*
X137850654Y-167800380D01*
X138136369Y-167800380D02*
X138136369Y-166800380D01*
X138041130Y-166943238D01*
X137945892Y-167038476D01*
X137850654Y-167086095D01*
X139279226Y-167133714D02*
X139279226Y-167800380D01*
X138850654Y-167133714D02*
X138850654Y-167657523D01*
X138898273Y-167752761D01*
X138993511Y-167800380D01*
X139136369Y-167800380D01*
X139231607Y-167752761D01*
X139279226Y-167705142D01*
X137588750Y-169400380D02*
X137588750Y-168400380D01*
X138017321Y-169352761D02*
X138160178Y-169400380D01*
X138398273Y-169400380D01*
X138493511Y-169352761D01*
X138541130Y-169305142D01*
X138588750Y-169209904D01*
X138588750Y-169114666D01*
X138541130Y-169019428D01*
X138493511Y-168971809D01*
X138398273Y-168924190D01*
X138207797Y-168876571D01*
X138112559Y-168828952D01*
X138064940Y-168781333D01*
X138017321Y-168686095D01*
X138017321Y-168590857D01*
X138064940Y-168495619D01*
X138112559Y-168448000D01*
X138207797Y-168400380D01*
X138445892Y-168400380D01*
X138588750Y-168448000D01*
X139207797Y-168400380D02*
X139398273Y-168400380D01*
X139493511Y-168448000D01*
X139588750Y-168543238D01*
X139636369Y-168733714D01*
X139636369Y-169067047D01*
X139588750Y-169257523D01*
X139493511Y-169352761D01*
X139398273Y-169400380D01*
X139207797Y-169400380D01*
X139112559Y-169352761D01*
X139017321Y-169257523D01*
X138969702Y-169067047D01*
X138969702Y-168733714D01*
X139017321Y-168543238D01*
X139112559Y-168448000D01*
X139207797Y-168400380D01*
X124792028Y-166895619D02*
X124839647Y-166848000D01*
X124934885Y-166800380D01*
X125172980Y-166800380D01*
X125268219Y-166848000D01*
X125315838Y-166895619D01*
X125363457Y-166990857D01*
X125363457Y-167086095D01*
X125315838Y-167228952D01*
X124744409Y-167800380D01*
X125363457Y-167800380D01*
X125792028Y-167705142D02*
X125839647Y-167752761D01*
X125792028Y-167800380D01*
X125744409Y-167752761D01*
X125792028Y-167705142D01*
X125792028Y-167800380D01*
X126220600Y-166895619D02*
X126268219Y-166848000D01*
X126363457Y-166800380D01*
X126601552Y-166800380D01*
X126696790Y-166848000D01*
X126744409Y-166895619D01*
X126792028Y-166990857D01*
X126792028Y-167086095D01*
X126744409Y-167228952D01*
X126172980Y-167800380D01*
X126792028Y-167800380D01*
X127696790Y-166800380D02*
X127220600Y-166800380D01*
X127172980Y-167276571D01*
X127220600Y-167228952D01*
X127315838Y-167181333D01*
X127553933Y-167181333D01*
X127649171Y-167228952D01*
X127696790Y-167276571D01*
X127744409Y-167371809D01*
X127744409Y-167609904D01*
X127696790Y-167705142D01*
X127649171Y-167752761D01*
X127553933Y-167800380D01*
X127315838Y-167800380D01*
X127220600Y-167752761D01*
X127172980Y-167705142D01*
X128601552Y-167133714D02*
X128601552Y-167800380D01*
X128172980Y-167133714D02*
X128172980Y-167657523D01*
X128220600Y-167752761D01*
X128315838Y-167800380D01*
X128458695Y-167800380D01*
X128553933Y-167752761D01*
X128601552Y-167705142D01*
X125244409Y-169114666D02*
X125720600Y-169114666D01*
X125149171Y-169400380D02*
X125482504Y-168400380D01*
X125815838Y-169400380D01*
X126149171Y-169400380D02*
X126149171Y-168400380D01*
X126720600Y-169400380D01*
X126720600Y-168400380D01*
X127149171Y-169352761D02*
X127292028Y-169400380D01*
X127530123Y-169400380D01*
X127625361Y-169352761D01*
X127672980Y-169305142D01*
X127720600Y-169209904D01*
X127720600Y-169114666D01*
X127672980Y-169019428D01*
X127625361Y-168971809D01*
X127530123Y-168924190D01*
X127339647Y-168876571D01*
X127244409Y-168828952D01*
X127196790Y-168781333D01*
X127149171Y-168686095D01*
X127149171Y-168590857D01*
X127196790Y-168495619D01*
X127244409Y-168448000D01*
X127339647Y-168400380D01*
X127577742Y-168400380D01*
X127720600Y-168448000D01*
X128149171Y-169400380D02*
X128149171Y-168400380D01*
X115863857Y-167800380D02*
X115292428Y-167800380D01*
X115578142Y-167800380D02*
X115578142Y-166800380D01*
X115482904Y-166943238D01*
X115387666Y-167038476D01*
X115292428Y-167086095D01*
X116292428Y-167705142D02*
X116340047Y-167752761D01*
X116292428Y-167800380D01*
X116244809Y-167752761D01*
X116292428Y-167705142D01*
X116292428Y-167800380D01*
X116721000Y-166895619D02*
X116768619Y-166848000D01*
X116863857Y-166800380D01*
X117101952Y-166800380D01*
X117197190Y-166848000D01*
X117244809Y-166895619D01*
X117292428Y-166990857D01*
X117292428Y-167086095D01*
X117244809Y-167228952D01*
X116673380Y-167800380D01*
X117292428Y-167800380D01*
X118197190Y-166800380D02*
X117721000Y-166800380D01*
X117673380Y-167276571D01*
X117721000Y-167228952D01*
X117816238Y-167181333D01*
X118054333Y-167181333D01*
X118149571Y-167228952D01*
X118197190Y-167276571D01*
X118244809Y-167371809D01*
X118244809Y-167609904D01*
X118197190Y-167705142D01*
X118149571Y-167752761D01*
X118054333Y-167800380D01*
X117816238Y-167800380D01*
X117721000Y-167752761D01*
X117673380Y-167705142D01*
X119101952Y-167133714D02*
X119101952Y-167800380D01*
X118673380Y-167133714D02*
X118673380Y-167657523D01*
X118721000Y-167752761D01*
X118816238Y-167800380D01*
X118959095Y-167800380D01*
X119054333Y-167752761D01*
X119101952Y-167705142D01*
X116221000Y-169400380D02*
X116221000Y-168400380D01*
X116649571Y-169352761D02*
X116792428Y-169400380D01*
X117030523Y-169400380D01*
X117125761Y-169352761D01*
X117173380Y-169305142D01*
X117221000Y-169209904D01*
X117221000Y-169114666D01*
X117173380Y-169019428D01*
X117125761Y-168971809D01*
X117030523Y-168924190D01*
X116840047Y-168876571D01*
X116744809Y-168828952D01*
X116697190Y-168781333D01*
X116649571Y-168686095D01*
X116649571Y-168590857D01*
X116697190Y-168495619D01*
X116744809Y-168448000D01*
X116840047Y-168400380D01*
X117078142Y-168400380D01*
X117221000Y-168448000D01*
X117840047Y-168400380D02*
X118030523Y-168400380D01*
X118125761Y-168448000D01*
X118221000Y-168543238D01*
X118268619Y-168733714D01*
X118268619Y-169067047D01*
X118221000Y-169257523D01*
X118125761Y-169352761D01*
X118030523Y-169400380D01*
X117840047Y-169400380D01*
X117744809Y-169352761D01*
X117649571Y-169257523D01*
X117601952Y-169067047D01*
X117601952Y-168733714D01*
X117649571Y-168543238D01*
X117744809Y-168448000D01*
X117840047Y-168400380D01*
X112126418Y-148745063D02*
X112269275Y-148792682D01*
X112507370Y-148792682D01*
X112602608Y-148745063D01*
X112650227Y-148697444D01*
X112697847Y-148602206D01*
X112697847Y-148506968D01*
X112650227Y-148411730D01*
X112602608Y-148364111D01*
X112507370Y-148316492D01*
X112316894Y-148268873D01*
X112221656Y-148221254D01*
X112174037Y-148173635D01*
X112126418Y-148078397D01*
X112126418Y-147983159D01*
X112174037Y-147887921D01*
X112221656Y-147840302D01*
X112316894Y-147792682D01*
X112554989Y-147792682D01*
X112697847Y-147840302D01*
X112983561Y-147792682D02*
X113554989Y-147792682D01*
X113269275Y-148792682D02*
X113269275Y-147792682D01*
X113888323Y-148268873D02*
X114221656Y-148268873D01*
X114364513Y-148792682D02*
X113888323Y-148792682D01*
X113888323Y-147792682D01*
X114364513Y-147792682D01*
X114793085Y-148792682D02*
X114793085Y-147792682D01*
X115174037Y-147792682D01*
X115269275Y-147840302D01*
X115316894Y-147887921D01*
X115364513Y-147983159D01*
X115364513Y-148126016D01*
X115316894Y-148221254D01*
X115269275Y-148268873D01*
X115174037Y-148316492D01*
X114793085Y-148316492D01*
X115793085Y-148792682D02*
X115793085Y-147792682D01*
X116174037Y-147792682D01*
X116269275Y-147840302D01*
X116316894Y-147887921D01*
X116364513Y-147983159D01*
X116364513Y-148126016D01*
X116316894Y-148221254D01*
X116269275Y-148268873D01*
X116174037Y-148316492D01*
X115793085Y-148316492D01*
X116793085Y-148268873D02*
X117126418Y-148268873D01*
X117269275Y-148792682D02*
X116793085Y-148792682D01*
X116793085Y-147792682D01*
X117269275Y-147792682D01*
X117697847Y-148792682D02*
X117697847Y-147792682D01*
X117935942Y-147792682D01*
X118078799Y-147840302D01*
X118174037Y-147935540D01*
X118221656Y-148030778D01*
X118269275Y-148221254D01*
X118269275Y-148364111D01*
X118221656Y-148554587D01*
X118174037Y-148649825D01*
X118078799Y-148745063D01*
X117935942Y-148792682D01*
X117697847Y-148792682D01*
X121046474Y-148745063D02*
X121189332Y-148792682D01*
X121427427Y-148792682D01*
X121522665Y-148745063D01*
X121570284Y-148697444D01*
X121617903Y-148602206D01*
X121617903Y-148506968D01*
X121570284Y-148411730D01*
X121522665Y-148364111D01*
X121427427Y-148316492D01*
X121236951Y-148268873D01*
X121141713Y-148221254D01*
X121094094Y-148173635D01*
X121046474Y-148078397D01*
X121046474Y-147983159D01*
X121094094Y-147887921D01*
X121141713Y-147840302D01*
X121236951Y-147792682D01*
X121475046Y-147792682D01*
X121617903Y-147840302D01*
X121903617Y-147792682D02*
X122475046Y-147792682D01*
X122189332Y-148792682D02*
X122189332Y-147792682D01*
X122760760Y-148506968D02*
X123236951Y-148506968D01*
X122665522Y-148792682D02*
X122998855Y-147792682D01*
X123332189Y-148792682D01*
X123665522Y-148792682D02*
X123665522Y-147792682D01*
X124236951Y-148792682D01*
X124236951Y-147792682D01*
X124713141Y-148792682D02*
X124713141Y-147792682D01*
X124951236Y-147792682D01*
X125094094Y-147840302D01*
X125189332Y-147935540D01*
X125236951Y-148030778D01*
X125284570Y-148221254D01*
X125284570Y-148364111D01*
X125236951Y-148554587D01*
X125189332Y-148649825D01*
X125094094Y-148745063D01*
X124951236Y-148792682D01*
X124713141Y-148792682D01*
X125665522Y-148506968D02*
X126141713Y-148506968D01*
X125570284Y-148792682D02*
X125903617Y-147792682D01*
X126236951Y-148792682D01*
X127141713Y-148792682D02*
X126808379Y-148316492D01*
X126570284Y-148792682D02*
X126570284Y-147792682D01*
X126951236Y-147792682D01*
X127046474Y-147840302D01*
X127094094Y-147887921D01*
X127141713Y-147983159D01*
X127141713Y-148126016D01*
X127094094Y-148221254D01*
X127046474Y-148268873D01*
X126951236Y-148316492D01*
X126570284Y-148316492D01*
X127570284Y-148792682D02*
X127570284Y-147792682D01*
X127808379Y-147792682D01*
X127951236Y-147840302D01*
X128046474Y-147935540D01*
X128094094Y-148030778D01*
X128141713Y-148221254D01*
X128141713Y-148364111D01*
X128094094Y-148554587D01*
X128046474Y-148649825D01*
X127951236Y-148745063D01*
X127808379Y-148792682D01*
X127570284Y-148792682D01*
D11*
X207042500Y-195818250D02*
G75*
G02*
X206092500Y-196768250I-950000J0D01*
G01*
X298242500Y-93218250D02*
G75*
G02*
X299192500Y-94168250I0J-950000D01*
G01*
X28442500Y-94168250D02*
X28442500Y-194868250D01*
X206092500Y-196768250D02*
X121542500Y-196768250D01*
X298242500Y-196768250D02*
X213692500Y-196768250D01*
X206092500Y-93218250D02*
G75*
G02*
X207042500Y-94168250I0J-950000D01*
G01*
X30342500Y-93218250D02*
X113942500Y-93218250D01*
X213692500Y-196768250D02*
G75*
G02*
X212742500Y-195818250I0J950000D01*
G01*
X121542500Y-196768250D02*
G75*
G02*
X120592500Y-195818250I0J950000D01*
G01*
X120592500Y-94168250D02*
G75*
G02*
X121542500Y-93218250I950000J0D01*
G01*
X390392500Y-93218250D02*
G75*
G02*
X391342500Y-94168250I0J-950000D01*
G01*
X121542500Y-93218250D02*
X206092500Y-93218250D01*
X212742500Y-94168250D02*
G75*
G02*
X213692500Y-93218250I950000J0D01*
G01*
X29392500Y-196768250D02*
G75*
G02*
X28442500Y-195818250I0J950000D01*
G01*
X28442500Y-94168250D02*
G75*
G02*
X29392500Y-93218250I950000J0D01*
G01*
X213692500Y-93218250D02*
X298242500Y-93218250D01*
X207042500Y-195818250D02*
G75*
G02*
X212742500Y-195818250I2850000J0D01*
G01*
X114892500Y-195818250D02*
G75*
G02*
X120592500Y-195818250I2850000J0D01*
G01*
X299192500Y-195818250D02*
G75*
G02*
X298242500Y-196768250I-950000J0D01*
G01*
X113942500Y-196768250D02*
X29392500Y-196768250D01*
X113942500Y-93218250D02*
G75*
G02*
X114892500Y-94168250I0J-950000D01*
G01*
X114892500Y-195818250D02*
G75*
G02*
X113942500Y-196768250I-950000J0D01*
G01*
X304892500Y-94168250D02*
G75*
G02*
X299192500Y-94168250I-2850000J0D01*
G01*
X305842500Y-93218250D02*
X390392500Y-93218250D01*
X120592500Y-94168250D02*
G75*
G02*
X114892500Y-94168250I-2850000J0D01*
G01*
X305842500Y-196768250D02*
X390392500Y-196768250D01*
X299192500Y-195818250D02*
G75*
G02*
X304892500Y-195818250I2850000J0D01*
G01*
X305842500Y-196768250D02*
G75*
G02*
X304892500Y-195818250I0J950000D01*
G01*
X391342500Y-195818250D02*
X391342500Y-94168250D01*
X30342500Y-93218250D02*
X29392500Y-93218250D01*
X391342500Y-195818250D02*
G75*
G02*
X390392500Y-196768250I-950000J0D01*
G01*
X304892500Y-94168250D02*
G75*
G02*
X305842500Y-93218250I950000J0D01*
G01*
X212742500Y-94168250D02*
G75*
G02*
X207042500Y-94168250I-2850000J0D01*
G01*
X28442500Y-194868250D02*
X28442500Y-195818250D01*
D12*
X387674000Y-148584000D02*
X387674000Y-154384000D01*
X390074000Y-148584000D02*
X387674000Y-148584000D01*
X390074000Y-154384000D02*
X390074000Y-148584000D01*
X390074000Y-154309000D02*
X387674000Y-154309000D01*
X390074000Y-154184000D02*
X387674000Y-154184000D01*
X387674000Y-154409000D02*
X390074000Y-154409000D01*
X390074000Y-154009000D02*
X387674000Y-154009000D01*
X390074000Y-153834000D02*
X387674000Y-153834000D01*
X390074000Y-153659000D02*
X387674000Y-153659000D01*
D13*
X48677500Y-93509400D02*
X48677500Y-123989400D01*
X53757500Y-93509400D02*
X48677500Y-93509400D01*
X53757500Y-90969400D02*
X53757500Y-93509400D01*
X61377500Y-90969400D02*
X53757500Y-90969400D01*
X61377500Y-93509400D02*
X61377500Y-90969400D01*
X66457500Y-93509400D02*
X61377500Y-93509400D01*
X66457500Y-123989400D02*
X66457500Y-93509400D01*
X48677500Y-123989400D02*
X66457500Y-123989400D01*
D12*
X150486000Y-98712000D02*
X150486000Y-96312000D01*
X150311000Y-98712000D02*
X150311000Y-96312000D01*
X150136000Y-98712000D02*
X150136000Y-96312000D01*
X149736000Y-96312000D02*
X149736000Y-98712000D01*
X149961000Y-98712000D02*
X149961000Y-96312000D01*
X149836000Y-98712000D02*
X149836000Y-96312000D01*
X149761000Y-98712000D02*
X155561000Y-98712000D01*
X155561000Y-98712000D02*
X155561000Y-96312000D01*
X155561000Y-96312000D02*
X149761000Y-96312000D01*
X284148000Y-134412000D02*
X278348000Y-134412000D01*
X284148000Y-136812000D02*
X284148000Y-134412000D01*
X278348000Y-136812000D02*
X284148000Y-136812000D01*
X278423000Y-136812000D02*
X278423000Y-134412000D01*
X278548000Y-136812000D02*
X278548000Y-134412000D01*
X278323000Y-134412000D02*
X278323000Y-136812000D01*
X278723000Y-136812000D02*
X278723000Y-134412000D01*
X278898000Y-136812000D02*
X278898000Y-134412000D01*
X279073000Y-136812000D02*
X279073000Y-134412000D01*
X125355000Y-172512000D02*
X119555000Y-172512000D01*
X125355000Y-174912000D02*
X125355000Y-172512000D01*
X119555000Y-174912000D02*
X125355000Y-174912000D01*
X119630000Y-174912000D02*
X119630000Y-172512000D01*
X119755000Y-174912000D02*
X119755000Y-172512000D01*
X119530000Y-172512000D02*
X119530000Y-174912000D01*
X119930000Y-174912000D02*
X119930000Y-172512000D01*
X120105000Y-174912000D02*
X120105000Y-172512000D01*
X120280000Y-174912000D02*
X120280000Y-172512000D01*
X74286200Y-136812000D02*
X74286200Y-134412000D01*
X74111200Y-136812000D02*
X74111200Y-134412000D01*
X73936200Y-136812000D02*
X73936200Y-134412000D01*
X73536200Y-134412000D02*
X73536200Y-136812000D01*
X73761200Y-136812000D02*
X73761200Y-134412000D01*
X73636200Y-136812000D02*
X73636200Y-134412000D01*
X73561200Y-136812000D02*
X79361200Y-136812000D01*
X79361200Y-136812000D02*
X79361200Y-134412000D01*
X79361200Y-134412000D02*
X73561200Y-134412000D01*
X60311200Y-96312000D02*
X54511200Y-96312000D01*
X60311200Y-98712000D02*
X60311200Y-96312000D01*
X54511200Y-98712000D02*
X60311200Y-98712000D01*
X54586200Y-98712000D02*
X54586200Y-96312000D01*
X54711200Y-98712000D02*
X54711200Y-96312000D01*
X54486200Y-96312000D02*
X54486200Y-98712000D01*
X54886200Y-98712000D02*
X54886200Y-96312000D01*
X55061200Y-98712000D02*
X55061200Y-96312000D01*
X55236200Y-98712000D02*
X55236200Y-96312000D01*
X322248000Y-134412000D02*
X316448000Y-134412000D01*
X322248000Y-136812000D02*
X322248000Y-134412000D01*
X316448000Y-136812000D02*
X322248000Y-136812000D01*
X316523000Y-136812000D02*
X316523000Y-134412000D01*
X316648000Y-136812000D02*
X316648000Y-134412000D01*
X316423000Y-134412000D02*
X316423000Y-136812000D01*
X316823000Y-136812000D02*
X316823000Y-134412000D01*
X316998000Y-136812000D02*
X316998000Y-134412000D01*
X317173000Y-136812000D02*
X317173000Y-134412000D01*
X74286200Y-117762000D02*
X74286200Y-115362000D01*
X74111200Y-117762000D02*
X74111200Y-115362000D01*
X73936200Y-117762000D02*
X73936200Y-115362000D01*
X73536200Y-115362000D02*
X73536200Y-117762000D01*
X73761200Y-117762000D02*
X73761200Y-115362000D01*
X73636200Y-117762000D02*
X73636200Y-115362000D01*
X73561200Y-117762000D02*
X79361200Y-117762000D01*
X79361200Y-117762000D02*
X79361200Y-115362000D01*
X79361200Y-115362000D02*
X73561200Y-115362000D01*
X41261200Y-153462000D02*
X35461200Y-153462000D01*
X41261200Y-155862000D02*
X41261200Y-153462000D01*
X35461200Y-155862000D02*
X41261200Y-155862000D01*
X35536200Y-155862000D02*
X35536200Y-153462000D01*
X35661200Y-155862000D02*
X35661200Y-153462000D01*
X35436200Y-153462000D02*
X35436200Y-155862000D01*
X35836200Y-155862000D02*
X35836200Y-153462000D01*
X36011200Y-155862000D02*
X36011200Y-153462000D01*
X36186200Y-155862000D02*
X36186200Y-153462000D01*
X184136000Y-115362000D02*
X178336000Y-115362000D01*
X184136000Y-117762000D02*
X184136000Y-115362000D01*
X178336000Y-117762000D02*
X184136000Y-117762000D01*
X178411000Y-117762000D02*
X178411000Y-115362000D01*
X178536000Y-117762000D02*
X178536000Y-115362000D01*
X178311000Y-115362000D02*
X178311000Y-117762000D01*
X178711000Y-117762000D02*
X178711000Y-115362000D01*
X178886000Y-117762000D02*
X178886000Y-115362000D01*
X179061000Y-117762000D02*
X179061000Y-115362000D01*
X174299000Y-155862000D02*
X174299000Y-153462000D01*
X174124000Y-155862000D02*
X174124000Y-153462000D01*
X173949000Y-155862000D02*
X173949000Y-153462000D01*
X173549000Y-153462000D02*
X173549000Y-155862000D01*
X173774000Y-155862000D02*
X173774000Y-153462000D01*
X173649000Y-155862000D02*
X173649000Y-153462000D01*
X173574000Y-155862000D02*
X179374000Y-155862000D01*
X179374000Y-155862000D02*
X179374000Y-153462000D01*
X179374000Y-153462000D02*
X173574000Y-153462000D01*
X169848000Y-134412000D02*
X164048000Y-134412000D01*
X169848000Y-136812000D02*
X169848000Y-134412000D01*
X164048000Y-136812000D02*
X169848000Y-136812000D01*
X164123000Y-136812000D02*
X164123000Y-134412000D01*
X164248000Y-136812000D02*
X164248000Y-134412000D01*
X164023000Y-134412000D02*
X164023000Y-136812000D01*
X164423000Y-136812000D02*
X164423000Y-134412000D01*
X164598000Y-136812000D02*
X164598000Y-134412000D01*
X164773000Y-136812000D02*
X164773000Y-134412000D01*
X98411200Y-96312000D02*
X92611200Y-96312000D01*
X98411200Y-98712000D02*
X98411200Y-96312000D01*
X92611200Y-98712000D02*
X98411200Y-98712000D01*
X92686200Y-98712000D02*
X92686200Y-96312000D01*
X92811200Y-98712000D02*
X92811200Y-96312000D01*
X92586200Y-96312000D02*
X92586200Y-98712000D01*
X92986200Y-98712000D02*
X92986200Y-96312000D01*
X93161200Y-98712000D02*
X93161200Y-96312000D01*
X93336200Y-98712000D02*
X93336200Y-96312000D01*
X74286200Y-98712000D02*
X74286200Y-96312000D01*
X74111200Y-98712000D02*
X74111200Y-96312000D01*
X73936200Y-98712000D02*
X73936200Y-96312000D01*
X73536200Y-96312000D02*
X73536200Y-98712000D01*
X73761200Y-98712000D02*
X73761200Y-96312000D01*
X73636200Y-98712000D02*
X73636200Y-96312000D01*
X73561200Y-98712000D02*
X79361200Y-98712000D01*
X79361200Y-98712000D02*
X79361200Y-96312000D01*
X79361200Y-96312000D02*
X73561200Y-96312000D01*
X160011000Y-117762000D02*
X160011000Y-115362000D01*
X159836000Y-117762000D02*
X159836000Y-115362000D01*
X159661000Y-117762000D02*
X159661000Y-115362000D01*
X159261000Y-115362000D02*
X159261000Y-117762000D01*
X159486000Y-117762000D02*
X159486000Y-115362000D01*
X159361000Y-117762000D02*
X159361000Y-115362000D01*
X159286000Y-117762000D02*
X165086000Y-117762000D01*
X165086000Y-117762000D02*
X165086000Y-115362000D01*
X165086000Y-115362000D02*
X159286000Y-115362000D01*
X79317500Y-172512000D02*
X73517500Y-172512000D01*
X79317500Y-174912000D02*
X79317500Y-172512000D01*
X73517500Y-174912000D02*
X79317500Y-174912000D01*
X73592500Y-174912000D02*
X73592500Y-172512000D01*
X73717500Y-174912000D02*
X73717500Y-172512000D01*
X73492500Y-172512000D02*
X73492500Y-174912000D01*
X73892500Y-174912000D02*
X73892500Y-172512000D01*
X74067500Y-174912000D02*
X74067500Y-172512000D01*
X74242500Y-174912000D02*
X74242500Y-172512000D01*
X359467000Y-174205800D02*
X365267000Y-174205800D01*
X359467000Y-171805800D02*
X359467000Y-174205800D01*
X365267000Y-171805800D02*
X359467000Y-171805800D01*
X365192000Y-171805800D02*
X365192000Y-174205800D01*
X365067000Y-171805800D02*
X365067000Y-174205800D01*
X365292000Y-174205800D02*
X365292000Y-171805800D01*
X364892000Y-171805800D02*
X364892000Y-174205800D01*
X364717000Y-171805800D02*
X364717000Y-174205800D01*
X364542000Y-171805800D02*
X364542000Y-174205800D01*
X328511000Y-174912000D02*
X334311000Y-174912000D01*
X328511000Y-172512000D02*
X328511000Y-174912000D01*
X334311000Y-172512000D02*
X328511000Y-172512000D01*
X334236000Y-172512000D02*
X334236000Y-174912000D01*
X334111000Y-172512000D02*
X334111000Y-174912000D01*
X334336000Y-174912000D02*
X334336000Y-172512000D01*
X333936000Y-172512000D02*
X333936000Y-174912000D01*
X333761000Y-172512000D02*
X333761000Y-174912000D01*
X333586000Y-172512000D02*
X333586000Y-174912000D01*
X221923000Y-136812000D02*
X221923000Y-134412000D01*
X221748000Y-136812000D02*
X221748000Y-134412000D01*
X221573000Y-136812000D02*
X221573000Y-134412000D01*
X221173000Y-134412000D02*
X221173000Y-136812000D01*
X221398000Y-136812000D02*
X221398000Y-134412000D01*
X221273000Y-136812000D02*
X221273000Y-134412000D01*
X221198000Y-136812000D02*
X226998000Y-136812000D01*
X226998000Y-136812000D02*
X226998000Y-134412000D01*
X226998000Y-134412000D02*
X221198000Y-134412000D01*
X327011000Y-96312000D02*
X321211000Y-96312000D01*
X327011000Y-98712000D02*
X327011000Y-96312000D01*
X321211000Y-98712000D02*
X327011000Y-98712000D01*
X321286000Y-98712000D02*
X321286000Y-96312000D01*
X321411000Y-98712000D02*
X321411000Y-96312000D01*
X321186000Y-96312000D02*
X321186000Y-98712000D01*
X321586000Y-98712000D02*
X321586000Y-96312000D01*
X321761000Y-98712000D02*
X321761000Y-96312000D01*
X321936000Y-98712000D02*
X321936000Y-96312000D01*
X84886200Y-132812000D02*
X84886200Y-138612000D01*
X87286200Y-132812000D02*
X84886200Y-132812000D01*
X87286200Y-138612000D02*
X87286200Y-132812000D01*
X87286200Y-138537000D02*
X84886200Y-138537000D01*
X87286200Y-138412000D02*
X84886200Y-138412000D01*
X84886200Y-138637000D02*
X87286200Y-138637000D01*
X87286200Y-138237000D02*
X84886200Y-138237000D01*
X87286200Y-138062000D02*
X84886200Y-138062000D01*
X87286200Y-137887000D02*
X84886200Y-137887000D01*
X218236000Y-104237000D02*
X218236000Y-110037000D01*
X220636000Y-104237000D02*
X218236000Y-104237000D01*
X220636000Y-110037000D02*
X220636000Y-104237000D01*
X220636000Y-109962000D02*
X218236000Y-109962000D01*
X220636000Y-109837000D02*
X218236000Y-109837000D01*
X218236000Y-110062000D02*
X220636000Y-110062000D01*
X220636000Y-109662000D02*
X218236000Y-109662000D01*
X220636000Y-109487000D02*
X218236000Y-109487000D01*
X220636000Y-109312000D02*
X218236000Y-109312000D01*
X55236200Y-155862000D02*
X55236200Y-153462000D01*
X55061200Y-155862000D02*
X55061200Y-153462000D01*
X54886200Y-155862000D02*
X54886200Y-153462000D01*
X54486200Y-153462000D02*
X54486200Y-155862000D01*
X54711200Y-155862000D02*
X54711200Y-153462000D01*
X54586200Y-155862000D02*
X54586200Y-153462000D01*
X54511200Y-155862000D02*
X60311200Y-155862000D01*
X60311200Y-155862000D02*
X60311200Y-153462000D01*
X60311200Y-153462000D02*
X54511200Y-153462000D01*
X36186200Y-117762000D02*
X36186200Y-115362000D01*
X36011200Y-117762000D02*
X36011200Y-115362000D01*
X35836200Y-117762000D02*
X35836200Y-115362000D01*
X35436200Y-115362000D02*
X35436200Y-117762000D01*
X35661200Y-117762000D02*
X35661200Y-115362000D01*
X35536200Y-117762000D02*
X35536200Y-115362000D01*
X35461200Y-117762000D02*
X41261200Y-117762000D01*
X41261200Y-117762000D02*
X41261200Y-115362000D01*
X41261200Y-115362000D02*
X35461200Y-115362000D01*
X114724000Y-155862000D02*
X114724000Y-153462000D01*
X114549000Y-155862000D02*
X114549000Y-153462000D01*
X114374000Y-155862000D02*
X114374000Y-153462000D01*
X113974000Y-153462000D02*
X113974000Y-155862000D01*
X114199000Y-155862000D02*
X114199000Y-153462000D01*
X114074000Y-155862000D02*
X114074000Y-153462000D01*
X113999000Y-155862000D02*
X119799000Y-155862000D01*
X119799000Y-155862000D02*
X119799000Y-153462000D01*
X119799000Y-153462000D02*
X113999000Y-153462000D01*
X260023000Y-136812000D02*
X260023000Y-134412000D01*
X259848000Y-136812000D02*
X259848000Y-134412000D01*
X259673000Y-136812000D02*
X259673000Y-134412000D01*
X259273000Y-134412000D02*
X259273000Y-136812000D01*
X259498000Y-136812000D02*
X259498000Y-134412000D01*
X259373000Y-136812000D02*
X259373000Y-134412000D01*
X259298000Y-136812000D02*
X265098000Y-136812000D01*
X265098000Y-136812000D02*
X265098000Y-134412000D01*
X265098000Y-134412000D02*
X259298000Y-134412000D01*
X315886000Y-109312000D02*
X313486000Y-109312000D01*
X315886000Y-109487000D02*
X313486000Y-109487000D01*
X315886000Y-109662000D02*
X313486000Y-109662000D01*
X313486000Y-110062000D02*
X315886000Y-110062000D01*
X315886000Y-109837000D02*
X313486000Y-109837000D01*
X315886000Y-109962000D02*
X313486000Y-109962000D01*
X315886000Y-110037000D02*
X315886000Y-104237000D01*
X315886000Y-104237000D02*
X313486000Y-104237000D01*
X313486000Y-104237000D02*
X313486000Y-110037000D01*
X312724000Y-153462000D02*
X306924000Y-153462000D01*
X312724000Y-155862000D02*
X312724000Y-153462000D01*
X306924000Y-155862000D02*
X312724000Y-155862000D01*
X306999000Y-155862000D02*
X306999000Y-153462000D01*
X307124000Y-155862000D02*
X307124000Y-153462000D01*
X306899000Y-153462000D02*
X306899000Y-155862000D01*
X307299000Y-155862000D02*
X307299000Y-153462000D01*
X307474000Y-155862000D02*
X307474000Y-153462000D01*
X307649000Y-155862000D02*
X307649000Y-153462000D01*
X387261000Y-132105800D02*
X387261000Y-137905800D01*
X389661000Y-132105800D02*
X387261000Y-132105800D01*
X389661000Y-137905800D02*
X389661000Y-132105800D01*
X389661000Y-137830800D02*
X387261000Y-137830800D01*
X389661000Y-137705800D02*
X387261000Y-137705800D01*
X387261000Y-137930800D02*
X389661000Y-137930800D01*
X389661000Y-137530800D02*
X387261000Y-137530800D01*
X389661000Y-137355800D02*
X387261000Y-137355800D01*
X389661000Y-137180800D02*
X387261000Y-137180800D01*
X212399000Y-155862000D02*
X212399000Y-153462000D01*
X212224000Y-155862000D02*
X212224000Y-153462000D01*
X212049000Y-155862000D02*
X212049000Y-153462000D01*
X211649000Y-153462000D02*
X211649000Y-155862000D01*
X211874000Y-155862000D02*
X211874000Y-153462000D01*
X211749000Y-155862000D02*
X211749000Y-153462000D01*
X211674000Y-155862000D02*
X217474000Y-155862000D01*
X217474000Y-155862000D02*
X217474000Y-153462000D01*
X217474000Y-153462000D02*
X211674000Y-153462000D01*
X193349000Y-155862000D02*
X193349000Y-153462000D01*
X193174000Y-155862000D02*
X193174000Y-153462000D01*
X192999000Y-155862000D02*
X192999000Y-153462000D01*
X192599000Y-153462000D02*
X192599000Y-155862000D01*
X192824000Y-155862000D02*
X192824000Y-153462000D01*
X192699000Y-155862000D02*
X192699000Y-153462000D01*
X192624000Y-155862000D02*
X198424000Y-155862000D01*
X198424000Y-155862000D02*
X198424000Y-153462000D01*
X198424000Y-153462000D02*
X192624000Y-153462000D01*
X360305000Y-134412000D02*
X354505000Y-134412000D01*
X360305000Y-136812000D02*
X360305000Y-134412000D01*
X354505000Y-136812000D02*
X360305000Y-136812000D01*
X354580000Y-136812000D02*
X354580000Y-134412000D01*
X354705000Y-136812000D02*
X354705000Y-134412000D01*
X354480000Y-134412000D02*
X354480000Y-136812000D01*
X354880000Y-136812000D02*
X354880000Y-134412000D01*
X355055000Y-136812000D02*
X355055000Y-134412000D01*
X355230000Y-136812000D02*
X355230000Y-134412000D01*
X36186200Y-136812000D02*
X36186200Y-134412000D01*
X36011200Y-136812000D02*
X36011200Y-134412000D01*
X35836200Y-136812000D02*
X35836200Y-134412000D01*
X35436200Y-134412000D02*
X35436200Y-136812000D01*
X35661200Y-136812000D02*
X35661200Y-134412000D01*
X35536200Y-136812000D02*
X35536200Y-134412000D01*
X35461200Y-136812000D02*
X41261200Y-136812000D01*
X41261200Y-136812000D02*
X41261200Y-134412000D01*
X41261200Y-134412000D02*
X35461200Y-134412000D01*
X269549000Y-155862000D02*
X269549000Y-153462000D01*
X269374000Y-155862000D02*
X269374000Y-153462000D01*
X269199000Y-155862000D02*
X269199000Y-153462000D01*
X268799000Y-153462000D02*
X268799000Y-155862000D01*
X269024000Y-155862000D02*
X269024000Y-153462000D01*
X268899000Y-155862000D02*
X268899000Y-153462000D01*
X268824000Y-155862000D02*
X274624000Y-155862000D01*
X274624000Y-155862000D02*
X274624000Y-153462000D01*
X274624000Y-153462000D02*
X268824000Y-153462000D01*
X283836000Y-98712000D02*
X283836000Y-96312000D01*
X283661000Y-98712000D02*
X283661000Y-96312000D01*
X283486000Y-98712000D02*
X283486000Y-96312000D01*
X283086000Y-96312000D02*
X283086000Y-98712000D01*
X283311000Y-98712000D02*
X283311000Y-96312000D01*
X283186000Y-98712000D02*
X283186000Y-96312000D01*
X283111000Y-98712000D02*
X288911000Y-98712000D01*
X288911000Y-98712000D02*
X288911000Y-96312000D01*
X288911000Y-96312000D02*
X283111000Y-96312000D01*
X326655000Y-155862000D02*
X326655000Y-153462000D01*
X326480000Y-155862000D02*
X326480000Y-153462000D01*
X326305000Y-155862000D02*
X326305000Y-153462000D01*
X325905000Y-153462000D02*
X325905000Y-155862000D01*
X326130000Y-155862000D02*
X326130000Y-153462000D01*
X326005000Y-155862000D02*
X326005000Y-153462000D01*
X325930000Y-155862000D02*
X331730000Y-155862000D01*
X331730000Y-155862000D02*
X331730000Y-153462000D01*
X331730000Y-153462000D02*
X325930000Y-153462000D01*
X374636000Y-96312000D02*
X368836000Y-96312000D01*
X374636000Y-98712000D02*
X374636000Y-96312000D01*
X368836000Y-98712000D02*
X374636000Y-98712000D01*
X368911000Y-98712000D02*
X368911000Y-96312000D01*
X369036000Y-98712000D02*
X369036000Y-96312000D01*
X368811000Y-96312000D02*
X368811000Y-98712000D01*
X369211000Y-98712000D02*
X369211000Y-96312000D01*
X369386000Y-98712000D02*
X369386000Y-96312000D01*
X369561000Y-98712000D02*
X369561000Y-96312000D01*
X60311200Y-134412000D02*
X54511200Y-134412000D01*
X60311200Y-136812000D02*
X60311200Y-134412000D01*
X54511200Y-136812000D02*
X60311200Y-136812000D01*
X54586200Y-136812000D02*
X54586200Y-134412000D01*
X54711200Y-136812000D02*
X54711200Y-134412000D01*
X54486200Y-134412000D02*
X54486200Y-136812000D01*
X54886200Y-136812000D02*
X54886200Y-134412000D01*
X55061200Y-136812000D02*
X55061200Y-134412000D01*
X55236200Y-136812000D02*
X55236200Y-134412000D01*
X250811000Y-96312000D02*
X245011000Y-96312000D01*
X250811000Y-98712000D02*
X250811000Y-96312000D01*
X245011000Y-98712000D02*
X250811000Y-98712000D01*
X245086000Y-98712000D02*
X245086000Y-96312000D01*
X245211000Y-98712000D02*
X245211000Y-96312000D01*
X244986000Y-96312000D02*
X244986000Y-98712000D01*
X245386000Y-98712000D02*
X245386000Y-96312000D01*
X245561000Y-98712000D02*
X245561000Y-96312000D01*
X245736000Y-98712000D02*
X245736000Y-96312000D01*
X141274000Y-153462000D02*
X135474000Y-153462000D01*
X141274000Y-155862000D02*
X141274000Y-153462000D01*
X135474000Y-155862000D02*
X141274000Y-155862000D01*
X135549000Y-155862000D02*
X135549000Y-153462000D01*
X135674000Y-155862000D02*
X135674000Y-153462000D01*
X135449000Y-153462000D02*
X135449000Y-155862000D01*
X135849000Y-155862000D02*
X135849000Y-153462000D01*
X136024000Y-155862000D02*
X136024000Y-153462000D01*
X136199000Y-155862000D02*
X136199000Y-153462000D01*
X336536000Y-115362000D02*
X330736000Y-115362000D01*
X336536000Y-117762000D02*
X336536000Y-115362000D01*
X330736000Y-117762000D02*
X336536000Y-117762000D01*
X330811000Y-117762000D02*
X330811000Y-115362000D01*
X330936000Y-117762000D02*
X330936000Y-115362000D01*
X330711000Y-115362000D02*
X330711000Y-117762000D01*
X331111000Y-117762000D02*
X331111000Y-115362000D01*
X331286000Y-117762000D02*
X331286000Y-115362000D01*
X331461000Y-117762000D02*
X331461000Y-115362000D01*
X60311200Y-115362000D02*
X54511200Y-115362000D01*
X60311200Y-117762000D02*
X60311200Y-115362000D01*
X54511200Y-117762000D02*
X60311200Y-117762000D01*
X54586200Y-117762000D02*
X54586200Y-115362000D01*
X54711200Y-117762000D02*
X54711200Y-115362000D01*
X54486200Y-115362000D02*
X54486200Y-117762000D01*
X54886200Y-117762000D02*
X54886200Y-115362000D01*
X55061200Y-117762000D02*
X55061200Y-115362000D01*
X55236200Y-117762000D02*
X55236200Y-115362000D01*
X362374000Y-155155800D02*
X362374000Y-152755800D01*
X362199000Y-155155800D02*
X362199000Y-152755800D01*
X362024000Y-155155800D02*
X362024000Y-152755800D01*
X361624000Y-152755800D02*
X361624000Y-155155800D01*
X361849000Y-155155800D02*
X361849000Y-152755800D01*
X361724000Y-155155800D02*
X361724000Y-152755800D01*
X361649000Y-155155800D02*
X367449000Y-155155800D01*
X367449000Y-155155800D02*
X367449000Y-152755800D01*
X367449000Y-152755800D02*
X361649000Y-152755800D01*
X124605000Y-134412000D02*
X118805000Y-134412000D01*
X124605000Y-136812000D02*
X124605000Y-134412000D01*
X118805000Y-136812000D02*
X124605000Y-136812000D01*
X118880000Y-136812000D02*
X118880000Y-134412000D01*
X119005000Y-136812000D02*
X119005000Y-134412000D01*
X118780000Y-134412000D02*
X118780000Y-136812000D01*
X119180000Y-136812000D02*
X119180000Y-134412000D01*
X119355000Y-136812000D02*
X119355000Y-134412000D01*
X119530000Y-136812000D02*
X119530000Y-134412000D01*
X84886200Y-170912000D02*
X84886200Y-176712000D01*
X87286200Y-170912000D02*
X84886200Y-170912000D01*
X87286200Y-176712000D02*
X87286200Y-170912000D01*
X87286200Y-176637000D02*
X84886200Y-176637000D01*
X87286200Y-176512000D02*
X84886200Y-176512000D01*
X84886200Y-176737000D02*
X87286200Y-176737000D01*
X87286200Y-176337000D02*
X84886200Y-176337000D01*
X87286200Y-176162000D02*
X84886200Y-176162000D01*
X87286200Y-175987000D02*
X84886200Y-175987000D01*
X117149000Y-117762000D02*
X117149000Y-115362000D01*
X116974000Y-117762000D02*
X116974000Y-115362000D01*
X116799000Y-117762000D02*
X116799000Y-115362000D01*
X116399000Y-115362000D02*
X116399000Y-117762000D01*
X116624000Y-117762000D02*
X116624000Y-115362000D01*
X116499000Y-117762000D02*
X116499000Y-115362000D01*
X116424000Y-117762000D02*
X122224000Y-117762000D01*
X122224000Y-117762000D02*
X122224000Y-115362000D01*
X122224000Y-115362000D02*
X116424000Y-115362000D01*
X340986000Y-98712000D02*
X340986000Y-96312000D01*
X340811000Y-98712000D02*
X340811000Y-96312000D01*
X340636000Y-98712000D02*
X340636000Y-96312000D01*
X340236000Y-96312000D02*
X340236000Y-98712000D01*
X340461000Y-98712000D02*
X340461000Y-96312000D01*
X340336000Y-98712000D02*
X340336000Y-96312000D01*
X340261000Y-98712000D02*
X346061000Y-98712000D01*
X346061000Y-98712000D02*
X346061000Y-96312000D01*
X346061000Y-96312000D02*
X340261000Y-96312000D01*
X298436000Y-115362000D02*
X292636000Y-115362000D01*
X298436000Y-117762000D02*
X298436000Y-115362000D01*
X292636000Y-117762000D02*
X298436000Y-117762000D01*
X292711000Y-117762000D02*
X292711000Y-115362000D01*
X292836000Y-117762000D02*
X292836000Y-115362000D01*
X292611000Y-115362000D02*
X292611000Y-117762000D01*
X293011000Y-117762000D02*
X293011000Y-115362000D01*
X293186000Y-117762000D02*
X293186000Y-115362000D01*
X293361000Y-117762000D02*
X293361000Y-115362000D01*
X274311000Y-117762000D02*
X274311000Y-115362000D01*
X274136000Y-117762000D02*
X274136000Y-115362000D01*
X273961000Y-117762000D02*
X273961000Y-115362000D01*
X273561000Y-115362000D02*
X273561000Y-117762000D01*
X273786000Y-117762000D02*
X273786000Y-115362000D01*
X273661000Y-117762000D02*
X273661000Y-115362000D01*
X273586000Y-117762000D02*
X279386000Y-117762000D01*
X279386000Y-117762000D02*
X279386000Y-115362000D01*
X279386000Y-115362000D02*
X273586000Y-115362000D01*
X188586000Y-98712000D02*
X188586000Y-96312000D01*
X188411000Y-98712000D02*
X188411000Y-96312000D01*
X188236000Y-98712000D02*
X188236000Y-96312000D01*
X187836000Y-96312000D02*
X187836000Y-98712000D01*
X188061000Y-98712000D02*
X188061000Y-96312000D01*
X187936000Y-98712000D02*
X187936000Y-96312000D01*
X187861000Y-98712000D02*
X193661000Y-98712000D01*
X193661000Y-98712000D02*
X193661000Y-96312000D01*
X193661000Y-96312000D02*
X187861000Y-96312000D01*
X255574000Y-153462000D02*
X249774000Y-153462000D01*
X255574000Y-155862000D02*
X255574000Y-153462000D01*
X249774000Y-155862000D02*
X255574000Y-155862000D01*
X249849000Y-155862000D02*
X249849000Y-153462000D01*
X249974000Y-155862000D02*
X249974000Y-153462000D01*
X249749000Y-153462000D02*
X249749000Y-155862000D01*
X250149000Y-155862000D02*
X250149000Y-153462000D01*
X250324000Y-155862000D02*
X250324000Y-153462000D01*
X250499000Y-155862000D02*
X250499000Y-153462000D01*
X167424000Y-172512000D02*
X161624000Y-172512000D01*
X167424000Y-174912000D02*
X167424000Y-172512000D01*
X161624000Y-174912000D02*
X167424000Y-174912000D01*
X161699000Y-174912000D02*
X161699000Y-172512000D01*
X161824000Y-174912000D02*
X161824000Y-172512000D01*
X161599000Y-172512000D02*
X161599000Y-174912000D01*
X161999000Y-174912000D02*
X161999000Y-172512000D01*
X162174000Y-174912000D02*
X162174000Y-172512000D01*
X162349000Y-174912000D02*
X162349000Y-172512000D01*
X310299000Y-172512000D02*
X304499000Y-172512000D01*
X310299000Y-174912000D02*
X310299000Y-172512000D01*
X304499000Y-174912000D02*
X310299000Y-174912000D01*
X304574000Y-174912000D02*
X304574000Y-172512000D01*
X304699000Y-174912000D02*
X304699000Y-172512000D01*
X304474000Y-172512000D02*
X304474000Y-174912000D01*
X304874000Y-174912000D02*
X304874000Y-172512000D01*
X305049000Y-174912000D02*
X305049000Y-172512000D01*
X305224000Y-174912000D02*
X305224000Y-172512000D01*
X298123000Y-136812000D02*
X298123000Y-134412000D01*
X297948000Y-136812000D02*
X297948000Y-134412000D01*
X297773000Y-136812000D02*
X297773000Y-134412000D01*
X297373000Y-134412000D02*
X297373000Y-136812000D01*
X297598000Y-136812000D02*
X297598000Y-134412000D01*
X297473000Y-136812000D02*
X297473000Y-134412000D01*
X297398000Y-136812000D02*
X303198000Y-136812000D01*
X303198000Y-136812000D02*
X303198000Y-134412000D01*
X303198000Y-134412000D02*
X297398000Y-134412000D01*
X45667500Y-174912000D02*
X45667500Y-172512000D01*
X45492500Y-174912000D02*
X45492500Y-172512000D01*
X45317500Y-174912000D02*
X45317500Y-172512000D01*
X44917500Y-172512000D02*
X44917500Y-174912000D01*
X45142500Y-174912000D02*
X45142500Y-172512000D01*
X45017500Y-174912000D02*
X45017500Y-172512000D01*
X44942500Y-174912000D02*
X50742500Y-174912000D01*
X50742500Y-174912000D02*
X50742500Y-172512000D01*
X50742500Y-172512000D02*
X44942500Y-172512000D01*
X238861000Y-172512000D02*
X233061000Y-172512000D01*
X238861000Y-174912000D02*
X238861000Y-172512000D01*
X233061000Y-174912000D02*
X238861000Y-174912000D01*
X233136000Y-174912000D02*
X233136000Y-172512000D01*
X233261000Y-174912000D02*
X233261000Y-172512000D01*
X233036000Y-172512000D02*
X233036000Y-174912000D01*
X233436000Y-174912000D02*
X233436000Y-172512000D01*
X233611000Y-174912000D02*
X233611000Y-172512000D01*
X233786000Y-174912000D02*
X233786000Y-172512000D01*
X174611000Y-96312000D02*
X168811000Y-96312000D01*
X174611000Y-98712000D02*
X174611000Y-96312000D01*
X168811000Y-98712000D02*
X174611000Y-98712000D01*
X168886000Y-98712000D02*
X168886000Y-96312000D01*
X169011000Y-98712000D02*
X169011000Y-96312000D01*
X168786000Y-96312000D02*
X168786000Y-98712000D01*
X169186000Y-98712000D02*
X169186000Y-96312000D01*
X169361000Y-98712000D02*
X169361000Y-96312000D01*
X169536000Y-98712000D02*
X169536000Y-96312000D01*
X217161000Y-117762000D02*
X217161000Y-115362000D01*
X216986000Y-117762000D02*
X216986000Y-115362000D01*
X216811000Y-117762000D02*
X216811000Y-115362000D01*
X216411000Y-115362000D02*
X216411000Y-117762000D01*
X216636000Y-117762000D02*
X216636000Y-115362000D01*
X216511000Y-117762000D02*
X216511000Y-115362000D01*
X216436000Y-117762000D02*
X222236000Y-117762000D01*
X222236000Y-117762000D02*
X222236000Y-115362000D01*
X222236000Y-115362000D02*
X216436000Y-115362000D01*
X264786000Y-98712000D02*
X264786000Y-96312000D01*
X264611000Y-98712000D02*
X264611000Y-96312000D01*
X264436000Y-98712000D02*
X264436000Y-96312000D01*
X264036000Y-96312000D02*
X264036000Y-98712000D01*
X264261000Y-98712000D02*
X264261000Y-96312000D01*
X264136000Y-98712000D02*
X264136000Y-96312000D01*
X264061000Y-98712000D02*
X269861000Y-98712000D01*
X269861000Y-98712000D02*
X269861000Y-96312000D01*
X269861000Y-96312000D02*
X264061000Y-96312000D01*
X288599000Y-155862000D02*
X288599000Y-153462000D01*
X288424000Y-155862000D02*
X288424000Y-153462000D01*
X288249000Y-155862000D02*
X288249000Y-153462000D01*
X287849000Y-153462000D02*
X287849000Y-155862000D01*
X288074000Y-155862000D02*
X288074000Y-153462000D01*
X287949000Y-155862000D02*
X287949000Y-153462000D01*
X287874000Y-155862000D02*
X293674000Y-155862000D01*
X293674000Y-155862000D02*
X293674000Y-153462000D01*
X293674000Y-153462000D02*
X287874000Y-153462000D01*
X136511000Y-96312000D02*
X130711000Y-96312000D01*
X136511000Y-98712000D02*
X136511000Y-96312000D01*
X130711000Y-98712000D02*
X136511000Y-98712000D01*
X130786000Y-98712000D02*
X130786000Y-96312000D01*
X130911000Y-98712000D02*
X130911000Y-96312000D01*
X130686000Y-96312000D02*
X130686000Y-98712000D01*
X131086000Y-98712000D02*
X131086000Y-96312000D01*
X131261000Y-98712000D02*
X131261000Y-96312000D01*
X131436000Y-98712000D02*
X131436000Y-96312000D01*
X207948000Y-134412000D02*
X202148000Y-134412000D01*
X207948000Y-136812000D02*
X207948000Y-134412000D01*
X202148000Y-136812000D02*
X207948000Y-136812000D01*
X202223000Y-136812000D02*
X202223000Y-134412000D01*
X202348000Y-136812000D02*
X202348000Y-134412000D01*
X202123000Y-134412000D02*
X202123000Y-136812000D01*
X202523000Y-136812000D02*
X202523000Y-134412000D01*
X202698000Y-136812000D02*
X202698000Y-134412000D01*
X202873000Y-136812000D02*
X202873000Y-134412000D01*
X246048000Y-134412000D02*
X240248000Y-134412000D01*
X246048000Y-136812000D02*
X246048000Y-134412000D01*
X240248000Y-136812000D02*
X246048000Y-136812000D01*
X240323000Y-136812000D02*
X240323000Y-134412000D01*
X240448000Y-136812000D02*
X240448000Y-134412000D01*
X240223000Y-134412000D02*
X240223000Y-136812000D01*
X240623000Y-136812000D02*
X240623000Y-134412000D01*
X240798000Y-136812000D02*
X240798000Y-134412000D01*
X240973000Y-136812000D02*
X240973000Y-134412000D01*
X336223000Y-136812000D02*
X336223000Y-134412000D01*
X336048000Y-136812000D02*
X336048000Y-134412000D01*
X335873000Y-136812000D02*
X335873000Y-134412000D01*
X335473000Y-134412000D02*
X335473000Y-136812000D01*
X335698000Y-136812000D02*
X335698000Y-134412000D01*
X335573000Y-136812000D02*
X335573000Y-134412000D01*
X335498000Y-136812000D02*
X341298000Y-136812000D01*
X341298000Y-136812000D02*
X341298000Y-134412000D01*
X341298000Y-134412000D02*
X335498000Y-134412000D01*
X226686000Y-98712000D02*
X226686000Y-96312000D01*
X226511000Y-98712000D02*
X226511000Y-96312000D01*
X226336000Y-98712000D02*
X226336000Y-96312000D01*
X225936000Y-96312000D02*
X225936000Y-98712000D01*
X226161000Y-98712000D02*
X226161000Y-96312000D01*
X226036000Y-98712000D02*
X226036000Y-96312000D01*
X225961000Y-98712000D02*
X231761000Y-98712000D01*
X231761000Y-98712000D02*
X231761000Y-96312000D01*
X231761000Y-96312000D02*
X225961000Y-96312000D01*
X236524000Y-153462000D02*
X230724000Y-153462000D01*
X236524000Y-155862000D02*
X236524000Y-153462000D01*
X230724000Y-155862000D02*
X236524000Y-155862000D01*
X230799000Y-155862000D02*
X230799000Y-153462000D01*
X230924000Y-155862000D02*
X230924000Y-153462000D01*
X230699000Y-153462000D02*
X230699000Y-155862000D01*
X231099000Y-155862000D02*
X231099000Y-153462000D01*
X231274000Y-155862000D02*
X231274000Y-153462000D01*
X231449000Y-155862000D02*
X231449000Y-153462000D01*
X236211000Y-117762000D02*
X236211000Y-115362000D01*
X236036000Y-117762000D02*
X236036000Y-115362000D01*
X235861000Y-117762000D02*
X235861000Y-115362000D01*
X235461000Y-115362000D02*
X235461000Y-117762000D01*
X235686000Y-117762000D02*
X235686000Y-115362000D01*
X235561000Y-117762000D02*
X235561000Y-115362000D01*
X235486000Y-117762000D02*
X241286000Y-117762000D01*
X241286000Y-117762000D02*
X241286000Y-115362000D01*
X241286000Y-115362000D02*
X235486000Y-115362000D01*
X74286200Y-155862000D02*
X74286200Y-153462000D01*
X74111200Y-155862000D02*
X74111200Y-153462000D01*
X73936200Y-155862000D02*
X73936200Y-153462000D01*
X73536200Y-153462000D02*
X73536200Y-155862000D01*
X73761200Y-155862000D02*
X73761200Y-153462000D01*
X73636200Y-155862000D02*
X73636200Y-153462000D01*
X73561200Y-155862000D02*
X79361200Y-155862000D01*
X79361200Y-155862000D02*
X79361200Y-153462000D01*
X79361200Y-153462000D02*
X73561200Y-153462000D01*
X125386000Y-109312000D02*
X122986000Y-109312000D01*
X125386000Y-109487000D02*
X122986000Y-109487000D01*
X125386000Y-109662000D02*
X122986000Y-109662000D01*
X122986000Y-110062000D02*
X125386000Y-110062000D01*
X125386000Y-109837000D02*
X122986000Y-109837000D01*
X125386000Y-109962000D02*
X122986000Y-109962000D01*
X125386000Y-110037000D02*
X125386000Y-104237000D01*
X125386000Y-104237000D02*
X122986000Y-104237000D01*
X122986000Y-104237000D02*
X122986000Y-110037000D01*
X183823000Y-136812000D02*
X183823000Y-134412000D01*
X183648000Y-136812000D02*
X183648000Y-134412000D01*
X183473000Y-136812000D02*
X183473000Y-134412000D01*
X183073000Y-134412000D02*
X183073000Y-136812000D01*
X183298000Y-136812000D02*
X183298000Y-134412000D01*
X183173000Y-136812000D02*
X183173000Y-134412000D01*
X183098000Y-136812000D02*
X188898000Y-136812000D01*
X188898000Y-136812000D02*
X188898000Y-134412000D01*
X188898000Y-134412000D02*
X183098000Y-134412000D01*
X144283000Y-174912000D02*
X144283000Y-172512000D01*
X144108000Y-174912000D02*
X144108000Y-172512000D01*
X143933000Y-174912000D02*
X143933000Y-172512000D01*
X143533000Y-172512000D02*
X143533000Y-174912000D01*
X143758000Y-174912000D02*
X143758000Y-172512000D01*
X143633000Y-174912000D02*
X143633000Y-172512000D01*
X143558000Y-174912000D02*
X149358000Y-174912000D01*
X149358000Y-174912000D02*
X149358000Y-172512000D01*
X149358000Y-172512000D02*
X143558000Y-172512000D01*
X312411000Y-117762000D02*
X312411000Y-115362000D01*
X312236000Y-117762000D02*
X312236000Y-115362000D01*
X312061000Y-117762000D02*
X312061000Y-115362000D01*
X311661000Y-115362000D02*
X311661000Y-117762000D01*
X311886000Y-117762000D02*
X311886000Y-115362000D01*
X311761000Y-117762000D02*
X311761000Y-115362000D01*
X311686000Y-117762000D02*
X317486000Y-117762000D01*
X317486000Y-117762000D02*
X317486000Y-115362000D01*
X317486000Y-115362000D02*
X311686000Y-115362000D01*
X260336000Y-115362000D02*
X254536000Y-115362000D01*
X260336000Y-117762000D02*
X260336000Y-115362000D01*
X254536000Y-117762000D02*
X260336000Y-117762000D01*
X254611000Y-117762000D02*
X254611000Y-115362000D01*
X254736000Y-117762000D02*
X254736000Y-115362000D01*
X254511000Y-115362000D02*
X254511000Y-117762000D01*
X254911000Y-117762000D02*
X254911000Y-115362000D01*
X255086000Y-117762000D02*
X255086000Y-115362000D01*
X255261000Y-117762000D02*
X255261000Y-115362000D01*
X348130000Y-117762000D02*
X348130000Y-115362000D01*
X347955000Y-117762000D02*
X347955000Y-115362000D01*
X347780000Y-117762000D02*
X347780000Y-115362000D01*
X347380000Y-115362000D02*
X347380000Y-117762000D01*
X347605000Y-117762000D02*
X347605000Y-115362000D01*
X347480000Y-117762000D02*
X347480000Y-115362000D01*
X347405000Y-117762000D02*
X353205000Y-117762000D01*
X353205000Y-117762000D02*
X353205000Y-115362000D01*
X353205000Y-115362000D02*
X347405000Y-115362000D01*
X146036000Y-115362000D02*
X140236000Y-115362000D01*
X146036000Y-117762000D02*
X146036000Y-115362000D01*
X140236000Y-117762000D02*
X146036000Y-117762000D01*
X140311000Y-117762000D02*
X140311000Y-115362000D01*
X140436000Y-117762000D02*
X140436000Y-115362000D01*
X140211000Y-115362000D02*
X140211000Y-117762000D01*
X140611000Y-117762000D02*
X140611000Y-115362000D01*
X140786000Y-117762000D02*
X140786000Y-115362000D01*
X140961000Y-117762000D02*
X140961000Y-115362000D01*
X160324000Y-153462000D02*
X154524000Y-153462000D01*
X160324000Y-155862000D02*
X160324000Y-153462000D01*
X154524000Y-155862000D02*
X160324000Y-155862000D01*
X154599000Y-155862000D02*
X154599000Y-153462000D01*
X154724000Y-155862000D02*
X154724000Y-153462000D01*
X154499000Y-153462000D02*
X154499000Y-155862000D01*
X154899000Y-155862000D02*
X154899000Y-153462000D01*
X155074000Y-155862000D02*
X155074000Y-153462000D01*
X155249000Y-155862000D02*
X155249000Y-153462000D01*
X145723000Y-136812000D02*
X145723000Y-134412000D01*
X145548000Y-136812000D02*
X145548000Y-134412000D01*
X145373000Y-136812000D02*
X145373000Y-134412000D01*
X144973000Y-134412000D02*
X144973000Y-136812000D01*
X145198000Y-136812000D02*
X145198000Y-134412000D01*
X145073000Y-136812000D02*
X145073000Y-134412000D01*
X144998000Y-136812000D02*
X150798000Y-136812000D01*
X150798000Y-136812000D02*
X150798000Y-134412000D01*
X150798000Y-134412000D02*
X144998000Y-134412000D01*
X36186200Y-98712000D02*
X36186200Y-96312000D01*
X36011200Y-98712000D02*
X36011200Y-96312000D01*
X35836200Y-98712000D02*
X35836200Y-96312000D01*
X35436200Y-96312000D02*
X35436200Y-98712000D01*
X35661200Y-98712000D02*
X35661200Y-96312000D01*
X35536200Y-98712000D02*
X35536200Y-96312000D01*
X35461200Y-98712000D02*
X41261200Y-98712000D01*
X41261200Y-98712000D02*
X41261200Y-96312000D01*
X41261200Y-96312000D02*
X35461200Y-96312000D01*
X203186000Y-115362000D02*
X197386000Y-115362000D01*
X203186000Y-117762000D02*
X203186000Y-115362000D01*
X197386000Y-117762000D02*
X203186000Y-117762000D01*
X197461000Y-117762000D02*
X197461000Y-115362000D01*
X197586000Y-117762000D02*
X197586000Y-115362000D01*
X197361000Y-115362000D02*
X197361000Y-117762000D01*
X197761000Y-117762000D02*
X197761000Y-115362000D01*
X197936000Y-117762000D02*
X197936000Y-115362000D01*
X198111000Y-117762000D02*
X198111000Y-115362000D01*
X387261000Y-179730800D02*
X387261000Y-185530800D01*
X389661000Y-179730800D02*
X387261000Y-179730800D01*
X389661000Y-185530800D02*
X389661000Y-179730800D01*
X389661000Y-185455800D02*
X387261000Y-185455800D01*
X389661000Y-185330800D02*
X387261000Y-185330800D01*
X387261000Y-185555800D02*
X389661000Y-185555800D01*
X389661000Y-185155800D02*
X387261000Y-185155800D01*
X389661000Y-184980800D02*
X387261000Y-184980800D01*
X389661000Y-184805800D02*
X387261000Y-184805800D01*
M02*
