M48
; DRILL file {KiCad 5.1.10-88a1d61d58~88~ubuntu21.04.1} date Fri Jun  4 00:00:30 2021
; FORMAT={-:-/ absolute / inch / decimal}
; #@! TF.CreationDate,2021-06-04T00:00:30+02:00
; #@! TF.GenerationSoftware,Kicad,Pcbnew,5.1.10-88a1d61d58~88~ubuntu21.04.1
FMAT,2
INCH
T1C0.0276
T2C0.0433
T3C0.0579
T4C0.0670
T5C0.0689
T6C0.1200
T7C0.1570
%
G90
G05
T1
X1.3607Y-3.8391
X1.3607Y-4.5891
X1.3607Y-5.3391
X1.3607Y-6.0891
X1.6678Y-3.8391
X1.6678Y-4.5891
X1.6678Y-5.3391
X1.6678Y-6.0891
X1.734Y-6.8391
X2.041Y-6.8391
X2.1107Y-3.8391
X2.1107Y-4.5891
X2.1107Y-5.3391
X2.1107Y-6.0891
X2.4178Y-3.8391
X2.4178Y-4.5891
X2.4178Y-5.3391
X2.4178Y-6.0891
X2.859Y-6.8391
X2.8607Y-3.8391
X2.8607Y-4.5891
X2.8607Y-5.3391
X2.8607Y-6.0891
X3.166Y-6.8391
X3.1678Y-3.8391
X3.1678Y-4.5891
X3.1678Y-5.3391
X3.1678Y-6.0891
X3.3892Y-5.1855
X3.3892Y-5.4926
X3.3892Y-6.6855
X3.3892Y-6.9926
X3.6107Y-3.8391
X3.9178Y-3.8391
X4.4527Y-6.0891
X4.5482Y-4.5891
X4.6419Y-5.3391
X4.6715Y-6.8391
X4.7598Y-6.0891
X4.8553Y-4.5891
X4.8892Y-4.0605
X4.8892Y-4.3676
X4.949Y-5.3391
X4.9785Y-6.8391
X5.1107Y-3.8391
X5.2982Y-6.0891
X5.4178Y-3.8391
X5.4857Y-4.5891
X5.6053Y-6.0891
X5.6165Y-6.8391
X5.6731Y-5.3391
X5.7928Y-4.5891
X5.8607Y-3.8391
X5.9235Y-6.8391
X5.9802Y-5.3391
X6.0482Y-6.0891
X6.1678Y-3.8391
X6.2357Y-4.5891
X6.3277Y-6.8391
X6.3553Y-6.0891
X6.4231Y-5.3391
X6.5428Y-4.5891
X6.6107Y-3.8391
X6.6348Y-6.8391
X6.7302Y-5.3391
X6.7982Y-6.0891
X6.9178Y-3.8391
X6.9857Y-4.5891
X7.1053Y-6.0891
X7.1731Y-5.3391
X7.2928Y-4.5891
X7.3607Y-3.8391
X7.4802Y-5.3391
X7.5482Y-6.0891
X7.6678Y-3.8391
X7.7357Y-4.5891
X7.8553Y-6.0891
X7.9231Y-5.3391
X8.0428Y-4.5891
X8.2302Y-5.3391
X8.2982Y-6.0891
X8.4857Y-4.5891
X8.6053Y-6.0891
X8.6392Y-4.0605
X8.6392Y-4.3676
X8.6731Y-5.3391
X8.7928Y-4.5891
X8.8607Y-3.8391
X8.9802Y-5.3391
X9.0482Y-6.0891
X9.1402Y-6.8391
X9.1678Y-3.8391
X9.2357Y-4.5891
X9.3553Y-6.0891
X9.4231Y-5.3391
X9.4473Y-6.8391
X9.5428Y-4.5891
X9.6107Y-3.8391
X9.7302Y-5.3391
X9.7982Y-6.0891
X9.9178Y-3.8391
X9.9857Y-4.5891
X10.1053Y-6.0891
X10.1731Y-5.3391
X10.2928Y-4.5891
X10.3607Y-3.8391
X10.4802Y-5.3391
X10.5482Y-6.0891
X10.6678Y-3.8391
X10.7357Y-4.5891
X10.8553Y-6.0891
X10.9231Y-5.3391
X11.0428Y-4.5891
X11.1107Y-3.8391
X11.2302Y-5.3391
X11.2982Y-6.0891
X11.4178Y-3.8391
X11.4857Y-4.5891
X11.6053Y-6.0891
X11.6731Y-5.3391
X11.7928Y-4.5891
X11.9527Y-6.8391
X11.9802Y-5.3391
X12.0482Y-6.0891
X12.2357Y-4.5891
X12.2598Y-6.8391
X12.3553Y-6.0891
X12.3892Y-4.0605
X12.3892Y-4.3676
X12.4231Y-5.3391
X12.5428Y-4.5891
X12.6107Y-3.8391
X12.7302Y-5.3391
X12.7965Y-6.0891
X12.8902Y-6.8391
X12.9178Y-3.8391
X12.9857Y-4.5891
X13.1035Y-6.0891
X13.1731Y-5.3391
X13.1973Y-6.8391
X13.2928Y-4.5891
X13.3607Y-3.8391
X13.4802Y-5.3391
X13.6419Y-4.5891
X13.6678Y-3.8391
X13.9215Y-5.3391
X13.949Y-4.5891
X14.1089Y-6.8113
X14.2027Y-6.0613
X14.2285Y-5.3391
X14.416Y-6.8113
X14.4857Y-3.8391
X14.5098Y-6.0613
X14.7928Y-3.8391
X15.2937Y-5.1577
X15.2937Y-5.4648
X15.2937Y-7.0327
X15.2937Y-7.3398
X15.31Y-5.8065
X15.31Y-6.1135
T2
X1.9664Y-3.7315
X1.9664Y-3.8315
X1.9664Y-3.9315
X1.9664Y-4.0315
X1.9664Y-4.1315
X1.9664Y-4.2315
X1.9664Y-4.3315
X1.9664Y-4.4315
X1.9664Y-4.5315
X1.9664Y-4.6315
X1.9664Y-4.7315
X1.9664Y-4.8315
X2.5664Y-3.7315
X2.5664Y-3.8315
X2.5664Y-3.9315
X2.5664Y-4.0315
X2.5664Y-4.1315
X2.5664Y-4.2315
X2.5664Y-4.3315
X2.5664Y-4.4315
X2.5664Y-4.5315
X2.5664Y-4.6315
X2.5664Y-4.7315
X2.5664Y-4.8315
T3
X1.3642Y-4.1141
X1.3642Y-4.8641
X1.3642Y-5.6141
X1.3642Y-6.3641
X1.4158Y-4.0566
X1.4158Y-4.8066
X1.4158Y-5.5566
X1.4158Y-6.3066
X1.6126Y-4.0369
X1.6126Y-4.7869
X1.6126Y-5.5369
X1.6126Y-6.2869
X1.6142Y-4.0141
X1.6142Y-4.7641
X1.6142Y-5.5141
X1.6142Y-6.2641
X1.7375Y-7.1141
X1.7891Y-7.0566
X1.9859Y-7.0369
X1.9875Y-7.0141
X2.1142Y-4.1141
X2.1142Y-4.8641
X2.1142Y-5.6141
X2.1142Y-6.3641
X2.1658Y-4.0566
X2.1658Y-4.8066
X2.1658Y-5.5566
X2.1658Y-6.3066
X2.3626Y-4.0369
X2.3626Y-4.7869
X2.3626Y-5.5369
X2.3626Y-6.2869
X2.3642Y-4.0141
X2.3642Y-4.7641
X2.3642Y-5.5141
X2.3642Y-6.2641
X2.8625Y-7.1141
X2.8642Y-4.1141
X2.8642Y-4.8641
X2.8642Y-5.6141
X2.8642Y-6.3641
X2.9141Y-7.0566
X2.9158Y-4.0566
X2.9158Y-4.8066
X2.9158Y-5.5566
X2.9158Y-6.3066
X3.1109Y-7.0369
X3.1125Y-7.0141
X3.1126Y-4.0369
X3.1126Y-4.7869
X3.1126Y-5.5369
X3.1126Y-6.2869
X3.1142Y-4.0141
X3.1142Y-4.7641
X3.1142Y-5.5141
X3.1142Y-6.2641
X3.5642Y-5.2391
X3.5642Y-6.7391
X3.5871Y-5.2406
X3.5871Y-6.7406
X3.6067Y-5.4375
X3.6067Y-6.9375
X3.6142Y-4.1141
X3.6642Y-5.4891
X3.6642Y-6.9891
X3.6658Y-4.0566
X3.8626Y-4.0369
X3.8642Y-4.0141
X4.3642Y-4.1141
X4.4158Y-4.0566
X4.4563Y-6.3641
X4.4563Y-7.1141
X4.4581Y-5.6141
X4.5078Y-6.3066
X4.5078Y-7.0566
X4.5096Y-5.5566
X4.5517Y-4.8641
X4.6033Y-4.8066
X4.6126Y-4.0369
X4.6142Y-4.0141
X4.6455Y-5.6141
X4.697Y-5.5566
X4.7047Y-6.2869
X4.7047Y-7.0369
X4.7063Y-6.2641
X4.7063Y-7.0141
X4.7065Y-5.5369
X4.7081Y-5.5141
X4.8002Y-4.7869
X4.8017Y-4.7641
X4.8311Y-6.3641
X4.8826Y-6.3066
X4.8939Y-5.5369
X4.8955Y-5.5141
X5.0795Y-6.2869
X5.0811Y-6.2641
X5.1142Y-4.1141
X5.1658Y-4.0566
X5.3017Y-6.3641
X5.3533Y-6.3066
X5.3626Y-4.0369
X5.3642Y-4.0141
X5.3937Y-7.1141
X5.4453Y-7.0566
X5.4892Y-4.8641
X5.5408Y-4.8066
X5.5502Y-6.2869
X5.5517Y-6.2641
X5.6422Y-7.0369
X5.6437Y-7.0141
X5.6767Y-5.6141
X5.7283Y-5.5566
X5.7376Y-4.7869
X5.7392Y-4.7641
X5.8642Y-4.1141
X5.9158Y-4.0566
X5.9251Y-5.5369
X5.9267Y-5.5141
X6.0517Y-6.3641
X6.1033Y-6.3066
X6.1126Y-4.0369
X6.1142Y-4.0141
X6.2392Y-4.8641
X6.2908Y-4.8066
X6.3002Y-6.2869
X6.3017Y-6.2641
X6.3313Y-7.1141
X6.3828Y-7.0566
X6.4267Y-5.6141
X6.4783Y-5.5566
X6.4876Y-4.7869
X6.4892Y-4.7641
X6.5797Y-7.0369
X6.5813Y-7.0141
X6.6142Y-4.1141
X6.6658Y-4.0566
X6.6751Y-5.5369
X6.6767Y-5.5141
X6.8017Y-6.3641
X6.8533Y-6.3066
X6.8626Y-4.0369
X6.8642Y-4.0141
X6.9892Y-4.8641
X7.0408Y-4.8066
X7.0502Y-6.2869
X7.0517Y-6.2641
X7.1767Y-5.6141
X7.2283Y-5.5566
X7.2376Y-4.7869
X7.2392Y-4.7641
X7.3642Y-4.1141
X7.4158Y-4.0566
X7.4251Y-5.5369
X7.4267Y-5.5141
X7.5517Y-6.3641
X7.6033Y-6.3066
X7.6126Y-4.0369
X7.6142Y-4.0141
X7.7392Y-4.8641
X7.7908Y-4.8066
X7.8002Y-6.2869
X7.8017Y-6.2641
X7.9267Y-5.6141
X7.9783Y-5.5566
X7.9876Y-4.7869
X7.9892Y-4.7641
X8.1142Y-4.1141
X8.1658Y-4.0566
X8.1751Y-5.5369
X8.1767Y-5.5141
X8.3017Y-6.3641
X8.3533Y-6.3066
X8.3626Y-4.0369
X8.3642Y-4.0141
X8.4892Y-4.8641
X8.5408Y-4.8066
X8.5502Y-6.2869
X8.5517Y-6.2641
X8.6767Y-5.6141
X8.7283Y-5.5566
X8.7376Y-4.7869
X8.7392Y-4.7641
X8.8642Y-4.1141
X8.9158Y-4.0566
X8.9251Y-5.5369
X8.9267Y-5.5141
X9.0517Y-6.3641
X9.1033Y-6.3066
X9.1126Y-4.0369
X9.1142Y-4.0141
X9.1439Y-7.1141
X9.1955Y-7.0566
X9.2392Y-4.8641
X9.2908Y-4.8066
X9.3002Y-6.2869
X9.3017Y-6.2641
X9.3923Y-7.0369
X9.3939Y-7.0141
X9.4267Y-5.6141
X9.4783Y-5.5566
X9.4876Y-4.7869
X9.4892Y-4.7641
X9.6142Y-4.1141
X9.6658Y-4.0566
X9.6751Y-5.5369
X9.6767Y-5.5141
X9.8017Y-6.3641
X9.8533Y-6.3066
X9.8626Y-4.0369
X9.8642Y-4.0141
X9.9892Y-4.8641
X10.0408Y-4.8066
X10.0502Y-6.2869
X10.0517Y-6.2641
X10.1767Y-5.6141
X10.2283Y-5.5566
X10.2376Y-4.7869
X10.2392Y-4.7641
X10.3642Y-4.1141
X10.4158Y-4.0566
X10.4251Y-5.5369
X10.4267Y-5.5141
X10.5517Y-6.3641
X10.6033Y-6.3066
X10.6126Y-4.0369
X10.6142Y-4.0141
X10.7392Y-4.8641
X10.7908Y-4.8066
X10.8002Y-6.2869
X10.8017Y-6.2641
X10.9267Y-5.6141
X10.9783Y-5.5566
X10.9876Y-4.7869
X10.9892Y-4.7641
X11.1142Y-4.1141
X11.1658Y-4.0566
X11.1751Y-5.5369
X11.1767Y-5.5141
X11.3017Y-6.3641
X11.3533Y-6.3066
X11.3626Y-4.0369
X11.3642Y-4.0141
X11.4892Y-4.8641
X11.5408Y-4.8066
X11.5502Y-6.2869
X11.5517Y-6.2641
X11.6767Y-5.6141
X11.7283Y-5.5566
X11.7376Y-4.7869
X11.7392Y-4.7641
X11.8642Y-4.1141
X11.9158Y-4.0566
X11.9251Y-5.5369
X11.9267Y-5.5141
X11.958Y-7.1141
X12.0096Y-7.0566
X12.0517Y-6.3641
X12.1033Y-6.3066
X12.1126Y-4.0369
X12.1142Y-4.0141
X12.2064Y-7.0369
X12.208Y-7.0141
X12.2392Y-4.8641
X12.2908Y-4.8066
X12.3002Y-6.2869
X12.3017Y-6.2641
X12.4267Y-5.6141
X12.4783Y-5.5566
X12.4876Y-4.7869
X12.4892Y-4.7641
X12.6142Y-4.1141
X12.6658Y-4.0566
X12.6751Y-5.5369
X12.6767Y-5.5141
X12.8Y-6.3641
X12.8516Y-6.3066
X12.8626Y-4.0369
X12.8642Y-4.0141
X12.8955Y-7.1141
X12.947Y-7.0566
X12.9892Y-4.8641
X13.0408Y-4.8066
X13.0484Y-6.2869
X13.05Y-6.2641
X13.1439Y-7.0369
X13.1455Y-7.0141
X13.1767Y-5.6141
X13.2283Y-5.5566
X13.2376Y-4.7869
X13.2392Y-4.7641
X13.3642Y-4.1141
X13.4158Y-4.0566
X13.4251Y-5.5369
X13.4267Y-5.5141
X13.6126Y-4.0369
X13.6142Y-4.0141
X13.7392Y-4.8641
X13.7908Y-4.8066
X13.8311Y-6.3641
X13.833Y-7.1141
X13.8827Y-6.3066
X13.8845Y-7.0566
X13.925Y-5.6141
X13.9766Y-5.5566
X13.9876Y-4.7869
X13.9892Y-4.7641
X14.0795Y-6.2869
X14.0811Y-6.2641
X14.0814Y-7.0369
X14.083Y-7.0141
X14.1734Y-5.5369
X14.175Y-5.5141
X14.2065Y-6.3641
X14.2581Y-6.3066
X14.3939Y-5.6141
X14.4455Y-5.5566
X14.4549Y-6.2869
X14.4565Y-6.2641
X14.4892Y-4.1141
X14.5408Y-4.0566
X14.6423Y-5.5369
X14.6439Y-5.5141
X14.6766Y-4.8641
X14.7282Y-4.8066
X14.7376Y-4.0369
X14.7392Y-4.0141
X14.7691Y-7.1141
X14.8207Y-5.516
X14.8207Y-7.0566
X14.8626Y-6.3641
X14.9142Y-6.3066
X14.925Y-4.7869
X14.9266Y-4.7641
X15.0175Y-5.4963
X15.0175Y-7.0369
X15.0191Y-5.1889
X15.0191Y-7.0141
X15.0766Y-5.2404
X15.0963Y-5.4373
X15.111Y-6.2869
X15.1126Y-6.2641
X15.1191Y-5.4389
T4
X14.9191Y-5.1389
X14.9191Y-5.5389
T5
X1.3142Y-4.2141
X1.3142Y-4.9641
X1.3142Y-5.7141
X1.3142Y-6.4641
X1.6875Y-7.2141
X1.7142Y-4.2141
X1.7142Y-4.9641
X1.7142Y-5.7141
X1.7142Y-6.4641
X2.0642Y-4.2141
X2.0642Y-4.9641
X2.0642Y-5.7141
X2.0642Y-6.4641
X2.0875Y-7.2141
X2.4642Y-4.2141
X2.4642Y-4.9641
X2.4642Y-5.7141
X2.4642Y-6.4641
X2.8125Y-7.2141
X2.8142Y-4.2141
X2.8142Y-4.9641
X2.8142Y-5.7141
X2.8142Y-6.4641
X3.2125Y-7.2141
X3.2142Y-4.2141
X3.2142Y-4.9641
X3.2142Y-5.7141
X3.2142Y-6.4641
X3.5642Y-4.2141
X3.7642Y-5.1391
X3.7642Y-5.5391
X3.7642Y-6.6391
X3.7642Y-7.0391
X3.9642Y-4.2141
X4.3142Y-4.2141
X4.4063Y-6.4641
X4.4063Y-7.2141
X4.4081Y-5.7141
X4.5017Y-4.9641
X4.5955Y-5.7141
X4.7142Y-4.2141
X4.7811Y-6.4641
X4.8063Y-6.4641
X4.8063Y-7.2141
X4.8081Y-5.7141
X4.9017Y-4.9641
X4.9955Y-5.7141
X5.0642Y-4.2141
X5.1811Y-6.4641
X5.2517Y-6.4641
X5.3437Y-7.2141
X5.4392Y-4.9641
X5.4642Y-4.2141
X5.6267Y-5.7141
X5.6517Y-6.4641
X5.7437Y-7.2141
X5.8142Y-4.2141
X5.8392Y-4.9641
X6.0017Y-6.4641
X6.0267Y-5.7141
X6.1892Y-4.9641
X6.2142Y-4.2141
X6.2813Y-7.2141
X6.3767Y-5.7141
X6.4017Y-6.4641
X6.5642Y-4.2141
X6.5892Y-4.9641
X6.6813Y-7.2141
X6.7517Y-6.4641
X6.7767Y-5.7141
X6.9392Y-4.9641
X6.9642Y-4.2141
X7.1267Y-5.7141
X7.1517Y-6.4641
X7.3142Y-4.2141
X7.3392Y-4.9641
X7.5017Y-6.4641
X7.5267Y-5.7141
X7.6892Y-4.9641
X7.7142Y-4.2141
X7.8767Y-5.7141
X7.9017Y-6.4641
X8.0642Y-4.2141
X8.0892Y-4.9641
X8.2517Y-6.4641
X8.2767Y-5.7141
X8.4392Y-4.9641
X8.4642Y-4.2141
X8.6267Y-5.7141
X8.6517Y-6.4641
X8.8142Y-4.2141
X8.8392Y-4.9641
X9.0017Y-6.4641
X9.0267Y-5.7141
X9.0939Y-7.2141
X9.1892Y-4.9641
X9.2142Y-4.2141
X9.3767Y-5.7141
X9.4017Y-6.4641
X9.4939Y-7.2141
X9.5642Y-4.2141
X9.5892Y-4.9641
X9.7517Y-6.4641
X9.7767Y-5.7141
X9.9392Y-4.9641
X9.9642Y-4.2141
X10.1267Y-5.7141
X10.1517Y-6.4641
X10.3142Y-4.2141
X10.3392Y-4.9641
X10.5017Y-6.4641
X10.5267Y-5.7141
X10.6892Y-4.9641
X10.7142Y-4.2141
X10.8767Y-5.7141
X10.9017Y-6.4641
X11.0642Y-4.2141
X11.0892Y-4.9641
X11.2517Y-6.4641
X11.2767Y-5.7141
X11.4392Y-4.9641
X11.4642Y-4.2141
X11.6267Y-5.7141
X11.6517Y-6.4641
X11.8142Y-4.2141
X11.8392Y-4.9641
X11.908Y-7.2141
X12.0017Y-6.4641
X12.0267Y-5.7141
X12.1892Y-4.9641
X12.2142Y-4.2141
X12.308Y-7.2141
X12.3767Y-5.7141
X12.4017Y-6.4641
X12.5642Y-4.2141
X12.5892Y-4.9641
X12.75Y-6.4641
X12.7767Y-5.7141
X12.8455Y-7.2141
X12.9392Y-4.9641
X12.9642Y-4.2141
X13.1267Y-5.7141
X13.15Y-6.4641
X13.2455Y-7.2141
X13.3142Y-4.2141
X13.3392Y-4.9641
X13.5267Y-5.7141
X13.6892Y-4.9641
X13.7142Y-4.2141
X13.7811Y-6.4641
X13.783Y-7.2141
X13.875Y-5.7141
X14.0892Y-4.9641
X14.1565Y-6.4641
X14.1811Y-6.4641
X14.183Y-7.2141
X14.275Y-5.7141
X14.3439Y-5.7141
X14.4392Y-4.2141
X14.5565Y-6.4641
X14.6266Y-4.9641
X14.7191Y-7.2141
X14.7439Y-5.7141
X14.8126Y-6.4641
X14.8392Y-4.2141
X15.0266Y-4.9641
X15.1191Y-7.2141
X15.2126Y-6.4641
T6
X1.4175Y-6.9391
X2.3575Y-6.9391
X3.4892Y-4.8691
X3.4892Y-5.8091
X3.4892Y-6.3691
X3.4892Y-7.3091
X4.5111Y-6.1891
X5.4511Y-6.1891
X7.3254Y-6.9391
X11.2624Y-6.9391
X13.8865Y-6.1891
X14.0739Y-5.4391
X14.1692Y-3.9391
X14.8265Y-6.1891
X15.0139Y-5.4391
X15.1092Y-3.9391
X15.1941Y-4.8689
X15.1941Y-5.8089
T7
X1.4175Y-7.5391
X1.5142Y-4.2141
X1.5142Y-4.9641
X1.5142Y-5.7141
X1.5142Y-6.4641
X1.8875Y-7.2141
X2.2642Y-4.2141
X2.2642Y-4.9641
X2.2642Y-5.7141
X2.2642Y-6.4641
X2.3575Y-7.5391
X3.0125Y-7.2141
X3.0142Y-4.2141
X3.0142Y-4.9641
X3.0142Y-5.7141
X3.0142Y-6.4641
X3.7642Y-4.2141
X3.7642Y-5.3391
X3.7642Y-6.8391
X4.0892Y-4.8691
X4.0892Y-5.8091
X4.0892Y-6.3691
X4.0892Y-7.3091
X4.5111Y-6.7891
X4.5142Y-4.2141
X4.6063Y-6.4641
X4.6063Y-7.2141
X4.6081Y-5.7141
X4.7017Y-4.9641
X4.7955Y-5.7141
X4.9811Y-6.4641
X5.2642Y-4.2141
X5.4511Y-6.7891
X5.4517Y-6.4641
X5.5437Y-7.2141
X5.6392Y-4.9641
X5.8267Y-5.7141
X6.0142Y-4.2141
X6.2017Y-6.4641
X6.3892Y-4.9641
X6.4813Y-7.2141
X6.5767Y-5.7141
X6.7642Y-4.2141
X6.9517Y-6.4641
X7.1392Y-4.9641
X7.3254Y-7.5391
X7.3267Y-5.7141
X7.5142Y-4.2141
X7.7017Y-6.4641
X7.8892Y-4.9641
X8.0767Y-5.7141
X8.2642Y-4.2141
X8.4517Y-6.4641
X8.6392Y-4.9641
X8.8267Y-5.7141
X9.0142Y-4.2141
X9.2017Y-6.4641
X9.2939Y-7.2141
X9.3892Y-4.9641
X9.5767Y-5.7141
X9.7642Y-4.2141
X9.9517Y-6.4641
X10.1392Y-4.9641
X10.3267Y-5.7141
X10.5142Y-4.2141
X10.7017Y-6.4641
X10.8892Y-4.9641
X11.0767Y-5.7141
X11.2624Y-7.5391
X11.2642Y-4.2141
X11.4517Y-6.4641
X11.6392Y-4.9641
X11.8267Y-5.7141
X12.0142Y-4.2141
X12.108Y-7.2141
X12.2017Y-6.4641
X12.3892Y-4.9641
X12.5767Y-5.7141
X12.7642Y-4.2141
X12.95Y-6.4641
X13.0455Y-7.2141
X13.1392Y-4.9641
X13.3267Y-5.7141
X13.5142Y-4.2141
X13.8865Y-6.7891
X13.8892Y-4.9641
X13.9811Y-6.4641
X13.983Y-7.2141
X14.0739Y-6.0391
X14.075Y-5.7141
X14.1692Y-4.5391
X14.3565Y-6.4641
X14.5439Y-5.7141
X14.5941Y-4.8689
X14.5941Y-5.8089
X14.6392Y-4.2141
X14.8265Y-6.7891
X14.8266Y-4.9641
X14.9191Y-5.3389
X14.9191Y-7.2141
X15.0126Y-6.4641
X15.0139Y-6.0391
X15.1092Y-4.5391
T0
M30
