%TF.GenerationSoftware,KiCad,Pcbnew,5.1.10-88a1d61d58~88~ubuntu21.04.1*%
%TF.CreationDate,2021-06-04T00:00:19+02:00*%
%TF.ProjectId,southpawpcb,736f7574-6870-4617-9770-63622e6b6963,rev?*%
%TF.SameCoordinates,Original*%
%TF.FileFunction,Soldermask,Top*%
%TF.FilePolarity,Negative*%
%FSLAX46Y46*%
G04 Gerber Fmt 4.6, Leading zero omitted, Abs format (unit mm)*
G04 Created by KiCad (PCBNEW 5.1.10-88a1d61d58~88~ubuntu21.04.1) date 2021-06-04 00:00:19*
%MOMM*%
%LPD*%
G01*
G04 APERTURE LIST*
%TA.AperFunction,Profile*%
%ADD10C,0.050000*%
%TD*%
%ADD11C,4.087800*%
%ADD12C,3.148000*%
%ADD13C,1.801800*%
%ADD14C,1.850000*%
%ADD15C,1.700000*%
G04 APERTURE END LIST*
D10*
X207042500Y-195818250D02*
G75*
G02*
X206092500Y-196768250I-950000J0D01*
G01*
X298242500Y-93218250D02*
G75*
G02*
X299192500Y-94168250I0J-950000D01*
G01*
X28442500Y-94168250D02*
X28442500Y-194868250D01*
X206092500Y-196768250D02*
X121542500Y-196768250D01*
X298242500Y-196768250D02*
X213692500Y-196768250D01*
X206092500Y-93218250D02*
G75*
G02*
X207042500Y-94168250I0J-950000D01*
G01*
X30342500Y-93218250D02*
X113942500Y-93218250D01*
X213692500Y-196768250D02*
G75*
G02*
X212742500Y-195818250I0J950000D01*
G01*
X121542500Y-196768250D02*
G75*
G02*
X120592500Y-195818250I0J950000D01*
G01*
X120592500Y-94168250D02*
G75*
G02*
X121542500Y-93218250I950000J0D01*
G01*
X390392500Y-93218250D02*
G75*
G02*
X391342500Y-94168250I0J-950000D01*
G01*
X121542500Y-93218250D02*
X206092500Y-93218250D01*
X212742500Y-94168250D02*
G75*
G02*
X213692500Y-93218250I950000J0D01*
G01*
X29392500Y-196768250D02*
G75*
G02*
X28442500Y-195818250I0J950000D01*
G01*
X28442500Y-94168250D02*
G75*
G02*
X29392500Y-93218250I950000J0D01*
G01*
X213692500Y-93218250D02*
X298242500Y-93218250D01*
X207042500Y-195818250D02*
G75*
G02*
X212742500Y-195818250I2850000J0D01*
G01*
X114892500Y-195818250D02*
G75*
G02*
X120592500Y-195818250I2850000J0D01*
G01*
X299192500Y-195818250D02*
G75*
G02*
X298242500Y-196768250I-950000J0D01*
G01*
X113942500Y-196768250D02*
X29392500Y-196768250D01*
X113942500Y-93218250D02*
G75*
G02*
X114892500Y-94168250I0J-950000D01*
G01*
X114892500Y-195818250D02*
G75*
G02*
X113942500Y-196768250I-950000J0D01*
G01*
X304892500Y-94168250D02*
G75*
G02*
X299192500Y-94168250I-2850000J0D01*
G01*
X305842500Y-93218250D02*
X390392500Y-93218250D01*
X120592500Y-94168250D02*
G75*
G02*
X114892500Y-94168250I-2850000J0D01*
G01*
X305842500Y-196768250D02*
X390392500Y-196768250D01*
X299192500Y-195818250D02*
G75*
G02*
X304892500Y-195818250I2850000J0D01*
G01*
X305842500Y-196768250D02*
G75*
G02*
X304892500Y-195818250I0J950000D01*
G01*
X391342500Y-195818250D02*
X391342500Y-94168250D01*
X30342500Y-93218250D02*
X29392500Y-93218250D01*
X391342500Y-195818250D02*
G75*
G02*
X390392500Y-196768250I-950000J0D01*
G01*
X304892500Y-94168250D02*
G75*
G02*
X305842500Y-93218250I950000J0D01*
G01*
X212742500Y-94168250D02*
G75*
G02*
X207042500Y-94168250I-2850000J0D01*
G01*
X28442500Y-194868250D02*
X28442500Y-195818250D01*
D11*
X370690000Y-123669000D03*
X370690000Y-147545000D03*
D12*
X385930000Y-123669000D03*
X385930000Y-147545000D03*
D13*
X378945000Y-140687000D03*
X378945000Y-130527000D03*
D11*
X378945000Y-135607000D03*
D14*
X360200000Y-164187000D03*
X350040000Y-164187000D03*
D11*
X355120000Y-164187000D03*
X138457000Y-172442000D03*
X114581000Y-172442000D03*
D12*
X138457000Y-157202000D03*
X114581000Y-157202000D03*
D14*
X131599000Y-164187000D03*
X121439000Y-164187000D03*
D11*
X126519000Y-164187000D03*
X381353000Y-153392000D03*
X357477000Y-153392000D03*
D12*
X381353000Y-138152000D03*
X357477000Y-138152000D03*
D14*
X374495000Y-145137000D03*
X364335000Y-145137000D03*
D11*
X369415000Y-145137000D03*
D14*
X122125000Y-145137000D03*
X111965000Y-145137000D03*
D11*
X117045000Y-145137000D03*
D14*
X381676000Y-126087000D03*
X371516000Y-126087000D03*
D11*
X376596000Y-126087000D03*
D14*
X386400000Y-164187000D03*
X376240000Y-164187000D03*
D11*
X381320000Y-164187000D03*
G36*
G01*
X389474000Y-153609000D02*
X388274000Y-153609000D01*
G75*
G02*
X388224000Y-153559000I0J50000D01*
G01*
X388224000Y-152359000D01*
G75*
G02*
X388274000Y-152309000I50000J0D01*
G01*
X389474000Y-152309000D01*
G75*
G02*
X389524000Y-152359000I0J-50000D01*
G01*
X389524000Y-153559000D01*
G75*
G02*
X389474000Y-153609000I-50000J0D01*
G01*
G37*
G36*
G01*
X389474000Y-150459000D02*
X388274000Y-150459000D01*
G75*
G02*
X388224000Y-150409000I0J50000D01*
G01*
X388224000Y-149209000D01*
G75*
G02*
X388274000Y-149159000I50000J0D01*
G01*
X389474000Y-149159000D01*
G75*
G02*
X389524000Y-149209000I0J-50000D01*
G01*
X389524000Y-150409000D01*
G75*
G02*
X389474000Y-150459000I-50000J0D01*
G01*
G37*
G36*
G01*
X389674000Y-156134000D02*
X388074000Y-156134000D01*
G75*
G02*
X388024000Y-156084000I0J50000D01*
G01*
X388024000Y-154484000D01*
G75*
G02*
X388074000Y-154434000I50000J0D01*
G01*
X389674000Y-154434000D01*
G75*
G02*
X389724000Y-154484000I0J-50000D01*
G01*
X389724000Y-156084000D01*
G75*
G02*
X389674000Y-156134000I-50000J0D01*
G01*
G37*
D15*
X388874000Y-147484000D03*
G36*
G01*
X64387500Y-93929400D02*
X65987500Y-93929400D01*
G75*
G02*
X66037500Y-93979400I0J-50000D01*
G01*
X66037500Y-95579400D01*
G75*
G02*
X65987500Y-95629400I-50000J0D01*
G01*
X64387500Y-95629400D01*
G75*
G02*
X64337500Y-95579400I0J50000D01*
G01*
X64337500Y-93979400D01*
G75*
G02*
X64387500Y-93929400I50000J0D01*
G01*
G37*
X65187500Y-97319400D03*
X65187500Y-99859400D03*
X65187500Y-102399400D03*
X65187500Y-104939400D03*
X65187500Y-107479400D03*
X65187500Y-110019400D03*
X65187500Y-112559400D03*
X65187500Y-115099400D03*
X65187500Y-117639400D03*
X65187500Y-120179400D03*
X65187500Y-122719400D03*
X49947500Y-122719400D03*
X49947500Y-120179400D03*
X49947500Y-117639400D03*
X49947500Y-115099400D03*
X49947500Y-112559400D03*
X49947500Y-110019400D03*
X49947500Y-107479400D03*
X49947500Y-104939400D03*
X49947500Y-102399400D03*
X49947500Y-99859400D03*
X49947500Y-97319400D03*
X49947500Y-94779400D03*
D11*
X243248000Y-145137000D03*
D14*
X238168000Y-145137000D03*
X248328000Y-145137000D03*
G36*
G01*
X150536000Y-98112000D02*
X150536000Y-96912000D01*
G75*
G02*
X150586000Y-96862000I50000J0D01*
G01*
X151786000Y-96862000D01*
G75*
G02*
X151836000Y-96912000I0J-50000D01*
G01*
X151836000Y-98112000D01*
G75*
G02*
X151786000Y-98162000I-50000J0D01*
G01*
X150586000Y-98162000D01*
G75*
G02*
X150536000Y-98112000I0J50000D01*
G01*
G37*
G36*
G01*
X153686000Y-98112000D02*
X153686000Y-96912000D01*
G75*
G02*
X153736000Y-96862000I50000J0D01*
G01*
X154936000Y-96862000D01*
G75*
G02*
X154986000Y-96912000I0J-50000D01*
G01*
X154986000Y-98112000D01*
G75*
G02*
X154936000Y-98162000I-50000J0D01*
G01*
X153736000Y-98162000D01*
G75*
G02*
X153686000Y-98112000I0J50000D01*
G01*
G37*
G36*
G01*
X148011000Y-98312000D02*
X148011000Y-96712000D01*
G75*
G02*
X148061000Y-96662000I50000J0D01*
G01*
X149661000Y-96662000D01*
G75*
G02*
X149711000Y-96712000I0J-50000D01*
G01*
X149711000Y-98312000D01*
G75*
G02*
X149661000Y-98362000I-50000J0D01*
G01*
X148061000Y-98362000D01*
G75*
G02*
X148011000Y-98312000I0J50000D01*
G01*
G37*
D15*
X156661000Y-97512000D03*
D11*
X271824000Y-164187000D03*
D14*
X266744000Y-164187000D03*
X276904000Y-164187000D03*
D15*
X285248000Y-135612000D03*
G36*
G01*
X276598000Y-136412000D02*
X276598000Y-134812000D01*
G75*
G02*
X276648000Y-134762000I50000J0D01*
G01*
X278248000Y-134762000D01*
G75*
G02*
X278298000Y-134812000I0J-50000D01*
G01*
X278298000Y-136412000D01*
G75*
G02*
X278248000Y-136462000I-50000J0D01*
G01*
X276648000Y-136462000D01*
G75*
G02*
X276598000Y-136412000I0J50000D01*
G01*
G37*
G36*
G01*
X282273000Y-136212000D02*
X282273000Y-135012000D01*
G75*
G02*
X282323000Y-134962000I50000J0D01*
G01*
X283523000Y-134962000D01*
G75*
G02*
X283573000Y-135012000I0J-50000D01*
G01*
X283573000Y-136212000D01*
G75*
G02*
X283523000Y-136262000I-50000J0D01*
G01*
X282323000Y-136262000D01*
G75*
G02*
X282273000Y-136212000I0J50000D01*
G01*
G37*
G36*
G01*
X279123000Y-136212000D02*
X279123000Y-135012000D01*
G75*
G02*
X279173000Y-134962000I50000J0D01*
G01*
X280373000Y-134962000D01*
G75*
G02*
X280423000Y-135012000I0J-50000D01*
G01*
X280423000Y-136212000D01*
G75*
G02*
X280373000Y-136262000I-50000J0D01*
G01*
X279173000Y-136262000D01*
G75*
G02*
X279123000Y-136212000I0J50000D01*
G01*
G37*
D11*
X331355000Y-183237000D03*
D14*
X326275000Y-183237000D03*
X336435000Y-183237000D03*
D15*
X126455000Y-173712000D03*
G36*
G01*
X117805000Y-174512000D02*
X117805000Y-172912000D01*
G75*
G02*
X117855000Y-172862000I50000J0D01*
G01*
X119455000Y-172862000D01*
G75*
G02*
X119505000Y-172912000I0J-50000D01*
G01*
X119505000Y-174512000D01*
G75*
G02*
X119455000Y-174562000I-50000J0D01*
G01*
X117855000Y-174562000D01*
G75*
G02*
X117805000Y-174512000I0J50000D01*
G01*
G37*
G36*
G01*
X123480000Y-174312000D02*
X123480000Y-173112000D01*
G75*
G02*
X123530000Y-173062000I50000J0D01*
G01*
X124730000Y-173062000D01*
G75*
G02*
X124780000Y-173112000I0J-50000D01*
G01*
X124780000Y-174312000D01*
G75*
G02*
X124730000Y-174362000I-50000J0D01*
G01*
X123530000Y-174362000D01*
G75*
G02*
X123480000Y-174312000I0J50000D01*
G01*
G37*
G36*
G01*
X120330000Y-174312000D02*
X120330000Y-173112000D01*
G75*
G02*
X120380000Y-173062000I50000J0D01*
G01*
X121580000Y-173062000D01*
G75*
G02*
X121630000Y-173112000I0J-50000D01*
G01*
X121630000Y-174312000D01*
G75*
G02*
X121580000Y-174362000I-50000J0D01*
G01*
X120380000Y-174362000D01*
G75*
G02*
X120330000Y-174312000I0J50000D01*
G01*
G37*
D14*
X162604000Y-164187000D03*
X152444000Y-164187000D03*
D11*
X157524000Y-164187000D03*
G36*
G01*
X74336200Y-136212000D02*
X74336200Y-135012000D01*
G75*
G02*
X74386200Y-134962000I50000J0D01*
G01*
X75586200Y-134962000D01*
G75*
G02*
X75636200Y-135012000I0J-50000D01*
G01*
X75636200Y-136212000D01*
G75*
G02*
X75586200Y-136262000I-50000J0D01*
G01*
X74386200Y-136262000D01*
G75*
G02*
X74336200Y-136212000I0J50000D01*
G01*
G37*
G36*
G01*
X77486200Y-136212000D02*
X77486200Y-135012000D01*
G75*
G02*
X77536200Y-134962000I50000J0D01*
G01*
X78736200Y-134962000D01*
G75*
G02*
X78786200Y-135012000I0J-50000D01*
G01*
X78786200Y-136212000D01*
G75*
G02*
X78736200Y-136262000I-50000J0D01*
G01*
X77536200Y-136262000D01*
G75*
G02*
X77486200Y-136212000I0J50000D01*
G01*
G37*
G36*
G01*
X71811200Y-136412000D02*
X71811200Y-134812000D01*
G75*
G02*
X71861200Y-134762000I50000J0D01*
G01*
X73461200Y-134762000D01*
G75*
G02*
X73511200Y-134812000I0J-50000D01*
G01*
X73511200Y-136412000D01*
G75*
G02*
X73461200Y-136462000I-50000J0D01*
G01*
X71861200Y-136462000D01*
G75*
G02*
X71811200Y-136412000I0J50000D01*
G01*
G37*
D15*
X80461200Y-135612000D03*
D14*
X167366000Y-126087000D03*
X157206000Y-126087000D03*
D11*
X162286000Y-126087000D03*
X171811000Y-107037000D03*
D14*
X166731000Y-107037000D03*
X176891000Y-107037000D03*
D15*
X61411200Y-97512000D03*
G36*
G01*
X52761200Y-98312000D02*
X52761200Y-96712000D01*
G75*
G02*
X52811200Y-96662000I50000J0D01*
G01*
X54411200Y-96662000D01*
G75*
G02*
X54461200Y-96712000I0J-50000D01*
G01*
X54461200Y-98312000D01*
G75*
G02*
X54411200Y-98362000I-50000J0D01*
G01*
X52811200Y-98362000D01*
G75*
G02*
X52761200Y-98312000I0J50000D01*
G01*
G37*
G36*
G01*
X58436200Y-98112000D02*
X58436200Y-96912000D01*
G75*
G02*
X58486200Y-96862000I50000J0D01*
G01*
X59686200Y-96862000D01*
G75*
G02*
X59736200Y-96912000I0J-50000D01*
G01*
X59736200Y-98112000D01*
G75*
G02*
X59686200Y-98162000I-50000J0D01*
G01*
X58486200Y-98162000D01*
G75*
G02*
X58436200Y-98112000I0J50000D01*
G01*
G37*
G36*
G01*
X55286200Y-98112000D02*
X55286200Y-96912000D01*
G75*
G02*
X55336200Y-96862000I50000J0D01*
G01*
X56536200Y-96862000D01*
G75*
G02*
X56586200Y-96912000I0J-50000D01*
G01*
X56586200Y-98112000D01*
G75*
G02*
X56536200Y-98162000I-50000J0D01*
G01*
X55336200Y-98162000D01*
G75*
G02*
X55286200Y-98112000I0J50000D01*
G01*
G37*
X323348000Y-135612000D03*
G36*
G01*
X314698000Y-136412000D02*
X314698000Y-134812000D01*
G75*
G02*
X314748000Y-134762000I50000J0D01*
G01*
X316348000Y-134762000D01*
G75*
G02*
X316398000Y-134812000I0J-50000D01*
G01*
X316398000Y-136412000D01*
G75*
G02*
X316348000Y-136462000I-50000J0D01*
G01*
X314748000Y-136462000D01*
G75*
G02*
X314698000Y-136412000I0J50000D01*
G01*
G37*
G36*
G01*
X320373000Y-136212000D02*
X320373000Y-135012000D01*
G75*
G02*
X320423000Y-134962000I50000J0D01*
G01*
X321623000Y-134962000D01*
G75*
G02*
X321673000Y-135012000I0J-50000D01*
G01*
X321673000Y-136212000D01*
G75*
G02*
X321623000Y-136262000I-50000J0D01*
G01*
X320423000Y-136262000D01*
G75*
G02*
X320373000Y-136212000I0J50000D01*
G01*
G37*
G36*
G01*
X317223000Y-136212000D02*
X317223000Y-135012000D01*
G75*
G02*
X317273000Y-134962000I50000J0D01*
G01*
X318473000Y-134962000D01*
G75*
G02*
X318523000Y-135012000I0J-50000D01*
G01*
X318523000Y-136212000D01*
G75*
G02*
X318473000Y-136262000I-50000J0D01*
G01*
X317273000Y-136262000D01*
G75*
G02*
X317223000Y-136212000I0J50000D01*
G01*
G37*
D11*
X219436000Y-126087000D03*
D14*
X214356000Y-126087000D03*
X224516000Y-126087000D03*
G36*
G01*
X74336200Y-117162000D02*
X74336200Y-115962000D01*
G75*
G02*
X74386200Y-115912000I50000J0D01*
G01*
X75586200Y-115912000D01*
G75*
G02*
X75636200Y-115962000I0J-50000D01*
G01*
X75636200Y-117162000D01*
G75*
G02*
X75586200Y-117212000I-50000J0D01*
G01*
X74386200Y-117212000D01*
G75*
G02*
X74336200Y-117162000I0J50000D01*
G01*
G37*
G36*
G01*
X77486200Y-117162000D02*
X77486200Y-115962000D01*
G75*
G02*
X77536200Y-115912000I50000J0D01*
G01*
X78736200Y-115912000D01*
G75*
G02*
X78786200Y-115962000I0J-50000D01*
G01*
X78786200Y-117162000D01*
G75*
G02*
X78736200Y-117212000I-50000J0D01*
G01*
X77536200Y-117212000D01*
G75*
G02*
X77486200Y-117162000I0J50000D01*
G01*
G37*
G36*
G01*
X71811200Y-117362000D02*
X71811200Y-115762000D01*
G75*
G02*
X71861200Y-115712000I50000J0D01*
G01*
X73461200Y-115712000D01*
G75*
G02*
X73511200Y-115762000I0J-50000D01*
G01*
X73511200Y-117362000D01*
G75*
G02*
X73461200Y-117412000I-50000J0D01*
G01*
X71861200Y-117412000D01*
G75*
G02*
X71811200Y-117362000I0J50000D01*
G01*
G37*
D15*
X80461200Y-116562000D03*
X42361200Y-154662000D03*
G36*
G01*
X33711200Y-155462000D02*
X33711200Y-153862000D01*
G75*
G02*
X33761200Y-153812000I50000J0D01*
G01*
X35361200Y-153812000D01*
G75*
G02*
X35411200Y-153862000I0J-50000D01*
G01*
X35411200Y-155462000D01*
G75*
G02*
X35361200Y-155512000I-50000J0D01*
G01*
X33761200Y-155512000D01*
G75*
G02*
X33711200Y-155462000I0J50000D01*
G01*
G37*
G36*
G01*
X39386200Y-155262000D02*
X39386200Y-154062000D01*
G75*
G02*
X39436200Y-154012000I50000J0D01*
G01*
X40636200Y-154012000D01*
G75*
G02*
X40686200Y-154062000I0J-50000D01*
G01*
X40686200Y-155262000D01*
G75*
G02*
X40636200Y-155312000I-50000J0D01*
G01*
X39436200Y-155312000D01*
G75*
G02*
X39386200Y-155262000I0J50000D01*
G01*
G37*
G36*
G01*
X36236200Y-155262000D02*
X36236200Y-154062000D01*
G75*
G02*
X36286200Y-154012000I50000J0D01*
G01*
X37486200Y-154012000D01*
G75*
G02*
X37536200Y-154062000I0J-50000D01*
G01*
X37536200Y-155262000D01*
G75*
G02*
X37486200Y-155312000I-50000J0D01*
G01*
X36286200Y-155312000D01*
G75*
G02*
X36236200Y-155262000I0J50000D01*
G01*
G37*
X185236000Y-116562000D03*
G36*
G01*
X176586000Y-117362000D02*
X176586000Y-115762000D01*
G75*
G02*
X176636000Y-115712000I50000J0D01*
G01*
X178236000Y-115712000D01*
G75*
G02*
X178286000Y-115762000I0J-50000D01*
G01*
X178286000Y-117362000D01*
G75*
G02*
X178236000Y-117412000I-50000J0D01*
G01*
X176636000Y-117412000D01*
G75*
G02*
X176586000Y-117362000I0J50000D01*
G01*
G37*
G36*
G01*
X182261000Y-117162000D02*
X182261000Y-115962000D01*
G75*
G02*
X182311000Y-115912000I50000J0D01*
G01*
X183511000Y-115912000D01*
G75*
G02*
X183561000Y-115962000I0J-50000D01*
G01*
X183561000Y-117162000D01*
G75*
G02*
X183511000Y-117212000I-50000J0D01*
G01*
X182311000Y-117212000D01*
G75*
G02*
X182261000Y-117162000I0J50000D01*
G01*
G37*
G36*
G01*
X179111000Y-117162000D02*
X179111000Y-115962000D01*
G75*
G02*
X179161000Y-115912000I50000J0D01*
G01*
X180361000Y-115912000D01*
G75*
G02*
X180411000Y-115962000I0J-50000D01*
G01*
X180411000Y-117162000D01*
G75*
G02*
X180361000Y-117212000I-50000J0D01*
G01*
X179161000Y-117212000D01*
G75*
G02*
X179111000Y-117162000I0J50000D01*
G01*
G37*
G36*
G01*
X174349000Y-155262000D02*
X174349000Y-154062000D01*
G75*
G02*
X174399000Y-154012000I50000J0D01*
G01*
X175599000Y-154012000D01*
G75*
G02*
X175649000Y-154062000I0J-50000D01*
G01*
X175649000Y-155262000D01*
G75*
G02*
X175599000Y-155312000I-50000J0D01*
G01*
X174399000Y-155312000D01*
G75*
G02*
X174349000Y-155262000I0J50000D01*
G01*
G37*
G36*
G01*
X177499000Y-155262000D02*
X177499000Y-154062000D01*
G75*
G02*
X177549000Y-154012000I50000J0D01*
G01*
X178749000Y-154012000D01*
G75*
G02*
X178799000Y-154062000I0J-50000D01*
G01*
X178799000Y-155262000D01*
G75*
G02*
X178749000Y-155312000I-50000J0D01*
G01*
X177549000Y-155312000D01*
G75*
G02*
X177499000Y-155262000I0J50000D01*
G01*
G37*
G36*
G01*
X171824000Y-155462000D02*
X171824000Y-153862000D01*
G75*
G02*
X171874000Y-153812000I50000J0D01*
G01*
X173474000Y-153812000D01*
G75*
G02*
X173524000Y-153862000I0J-50000D01*
G01*
X173524000Y-155462000D01*
G75*
G02*
X173474000Y-155512000I-50000J0D01*
G01*
X171874000Y-155512000D01*
G75*
G02*
X171824000Y-155462000I0J50000D01*
G01*
G37*
X180474000Y-154662000D03*
X170948000Y-135612000D03*
G36*
G01*
X162298000Y-136412000D02*
X162298000Y-134812000D01*
G75*
G02*
X162348000Y-134762000I50000J0D01*
G01*
X163948000Y-134762000D01*
G75*
G02*
X163998000Y-134812000I0J-50000D01*
G01*
X163998000Y-136412000D01*
G75*
G02*
X163948000Y-136462000I-50000J0D01*
G01*
X162348000Y-136462000D01*
G75*
G02*
X162298000Y-136412000I0J50000D01*
G01*
G37*
G36*
G01*
X167973000Y-136212000D02*
X167973000Y-135012000D01*
G75*
G02*
X168023000Y-134962000I50000J0D01*
G01*
X169223000Y-134962000D01*
G75*
G02*
X169273000Y-135012000I0J-50000D01*
G01*
X169273000Y-136212000D01*
G75*
G02*
X169223000Y-136262000I-50000J0D01*
G01*
X168023000Y-136262000D01*
G75*
G02*
X167973000Y-136212000I0J50000D01*
G01*
G37*
G36*
G01*
X164823000Y-136212000D02*
X164823000Y-135012000D01*
G75*
G02*
X164873000Y-134962000I50000J0D01*
G01*
X166073000Y-134962000D01*
G75*
G02*
X166123000Y-135012000I0J-50000D01*
G01*
X166123000Y-136212000D01*
G75*
G02*
X166073000Y-136262000I-50000J0D01*
G01*
X164873000Y-136262000D01*
G75*
G02*
X164823000Y-136212000I0J50000D01*
G01*
G37*
X99511200Y-97512000D03*
G36*
G01*
X90861200Y-98312000D02*
X90861200Y-96712000D01*
G75*
G02*
X90911200Y-96662000I50000J0D01*
G01*
X92511200Y-96662000D01*
G75*
G02*
X92561200Y-96712000I0J-50000D01*
G01*
X92561200Y-98312000D01*
G75*
G02*
X92511200Y-98362000I-50000J0D01*
G01*
X90911200Y-98362000D01*
G75*
G02*
X90861200Y-98312000I0J50000D01*
G01*
G37*
G36*
G01*
X96536200Y-98112000D02*
X96536200Y-96912000D01*
G75*
G02*
X96586200Y-96862000I50000J0D01*
G01*
X97786200Y-96862000D01*
G75*
G02*
X97836200Y-96912000I0J-50000D01*
G01*
X97836200Y-98112000D01*
G75*
G02*
X97786200Y-98162000I-50000J0D01*
G01*
X96586200Y-98162000D01*
G75*
G02*
X96536200Y-98112000I0J50000D01*
G01*
G37*
G36*
G01*
X93386200Y-98112000D02*
X93386200Y-96912000D01*
G75*
G02*
X93436200Y-96862000I50000J0D01*
G01*
X94636200Y-96862000D01*
G75*
G02*
X94686200Y-96912000I0J-50000D01*
G01*
X94686200Y-98112000D01*
G75*
G02*
X94636200Y-98162000I-50000J0D01*
G01*
X93436200Y-98162000D01*
G75*
G02*
X93386200Y-98112000I0J50000D01*
G01*
G37*
D11*
X200386000Y-126087000D03*
D14*
X195306000Y-126087000D03*
X205466000Y-126087000D03*
G36*
G01*
X74336200Y-98112000D02*
X74336200Y-96912000D01*
G75*
G02*
X74386200Y-96862000I50000J0D01*
G01*
X75586200Y-96862000D01*
G75*
G02*
X75636200Y-96912000I0J-50000D01*
G01*
X75636200Y-98112000D01*
G75*
G02*
X75586200Y-98162000I-50000J0D01*
G01*
X74386200Y-98162000D01*
G75*
G02*
X74336200Y-98112000I0J50000D01*
G01*
G37*
G36*
G01*
X77486200Y-98112000D02*
X77486200Y-96912000D01*
G75*
G02*
X77536200Y-96862000I50000J0D01*
G01*
X78736200Y-96862000D01*
G75*
G02*
X78786200Y-96912000I0J-50000D01*
G01*
X78786200Y-98112000D01*
G75*
G02*
X78736200Y-98162000I-50000J0D01*
G01*
X77536200Y-98162000D01*
G75*
G02*
X77486200Y-98112000I0J50000D01*
G01*
G37*
G36*
G01*
X71811200Y-98312000D02*
X71811200Y-96712000D01*
G75*
G02*
X71861200Y-96662000I50000J0D01*
G01*
X73461200Y-96662000D01*
G75*
G02*
X73511200Y-96712000I0J-50000D01*
G01*
X73511200Y-98312000D01*
G75*
G02*
X73461200Y-98362000I-50000J0D01*
G01*
X71861200Y-98362000D01*
G75*
G02*
X71811200Y-98312000I0J50000D01*
G01*
G37*
D15*
X80461200Y-97512000D03*
D11*
X114661000Y-107037000D03*
D14*
X109581000Y-107037000D03*
X119741000Y-107037000D03*
X257854000Y-164187000D03*
X247694000Y-164187000D03*
D11*
X252774000Y-164187000D03*
G36*
G01*
X160061000Y-117162000D02*
X160061000Y-115962000D01*
G75*
G02*
X160111000Y-115912000I50000J0D01*
G01*
X161311000Y-115912000D01*
G75*
G02*
X161361000Y-115962000I0J-50000D01*
G01*
X161361000Y-117162000D01*
G75*
G02*
X161311000Y-117212000I-50000J0D01*
G01*
X160111000Y-117212000D01*
G75*
G02*
X160061000Y-117162000I0J50000D01*
G01*
G37*
G36*
G01*
X163211000Y-117162000D02*
X163211000Y-115962000D01*
G75*
G02*
X163261000Y-115912000I50000J0D01*
G01*
X164461000Y-115912000D01*
G75*
G02*
X164511000Y-115962000I0J-50000D01*
G01*
X164511000Y-117162000D01*
G75*
G02*
X164461000Y-117212000I-50000J0D01*
G01*
X163261000Y-117212000D01*
G75*
G02*
X163211000Y-117162000I0J50000D01*
G01*
G37*
G36*
G01*
X157536000Y-117362000D02*
X157536000Y-115762000D01*
G75*
G02*
X157586000Y-115712000I50000J0D01*
G01*
X159186000Y-115712000D01*
G75*
G02*
X159236000Y-115762000I0J-50000D01*
G01*
X159236000Y-117362000D01*
G75*
G02*
X159186000Y-117412000I-50000J0D01*
G01*
X157586000Y-117412000D01*
G75*
G02*
X157536000Y-117362000I0J50000D01*
G01*
G37*
D15*
X166186000Y-116562000D03*
X80417500Y-173712000D03*
G36*
G01*
X71767500Y-174512000D02*
X71767500Y-172912000D01*
G75*
G02*
X71817500Y-172862000I50000J0D01*
G01*
X73417500Y-172862000D01*
G75*
G02*
X73467500Y-172912000I0J-50000D01*
G01*
X73467500Y-174512000D01*
G75*
G02*
X73417500Y-174562000I-50000J0D01*
G01*
X71817500Y-174562000D01*
G75*
G02*
X71767500Y-174512000I0J50000D01*
G01*
G37*
G36*
G01*
X77442500Y-174312000D02*
X77442500Y-173112000D01*
G75*
G02*
X77492500Y-173062000I50000J0D01*
G01*
X78692500Y-173062000D01*
G75*
G02*
X78742500Y-173112000I0J-50000D01*
G01*
X78742500Y-174312000D01*
G75*
G02*
X78692500Y-174362000I-50000J0D01*
G01*
X77492500Y-174362000D01*
G75*
G02*
X77442500Y-174312000I0J50000D01*
G01*
G37*
G36*
G01*
X74292500Y-174312000D02*
X74292500Y-173112000D01*
G75*
G02*
X74342500Y-173062000I50000J0D01*
G01*
X75542500Y-173062000D01*
G75*
G02*
X75592500Y-173112000I0J-50000D01*
G01*
X75592500Y-174312000D01*
G75*
G02*
X75542500Y-174362000I-50000J0D01*
G01*
X74342500Y-174362000D01*
G75*
G02*
X74292500Y-174312000I0J50000D01*
G01*
G37*
D14*
X315004000Y-164187000D03*
X304844000Y-164187000D03*
D11*
X309924000Y-164187000D03*
D15*
X358367000Y-173005800D03*
G36*
G01*
X367017000Y-172205800D02*
X367017000Y-173805800D01*
G75*
G02*
X366967000Y-173855800I-50000J0D01*
G01*
X365367000Y-173855800D01*
G75*
G02*
X365317000Y-173805800I0J50000D01*
G01*
X365317000Y-172205800D01*
G75*
G02*
X365367000Y-172155800I50000J0D01*
G01*
X366967000Y-172155800D01*
G75*
G02*
X367017000Y-172205800I0J-50000D01*
G01*
G37*
G36*
G01*
X361342000Y-172405800D02*
X361342000Y-173605800D01*
G75*
G02*
X361292000Y-173655800I-50000J0D01*
G01*
X360092000Y-173655800D01*
G75*
G02*
X360042000Y-173605800I0J50000D01*
G01*
X360042000Y-172405800D01*
G75*
G02*
X360092000Y-172355800I50000J0D01*
G01*
X361292000Y-172355800D01*
G75*
G02*
X361342000Y-172405800I0J-50000D01*
G01*
G37*
G36*
G01*
X364492000Y-172405800D02*
X364492000Y-173605800D01*
G75*
G02*
X364442000Y-173655800I-50000J0D01*
G01*
X363242000Y-173655800D01*
G75*
G02*
X363192000Y-173605800I0J50000D01*
G01*
X363192000Y-172405800D01*
G75*
G02*
X363242000Y-172355800I50000J0D01*
G01*
X364442000Y-172355800D01*
G75*
G02*
X364492000Y-172405800I0J-50000D01*
G01*
G37*
X327411000Y-173712000D03*
G36*
G01*
X336061000Y-172912000D02*
X336061000Y-174512000D01*
G75*
G02*
X336011000Y-174562000I-50000J0D01*
G01*
X334411000Y-174562000D01*
G75*
G02*
X334361000Y-174512000I0J50000D01*
G01*
X334361000Y-172912000D01*
G75*
G02*
X334411000Y-172862000I50000J0D01*
G01*
X336011000Y-172862000D01*
G75*
G02*
X336061000Y-172912000I0J-50000D01*
G01*
G37*
G36*
G01*
X330386000Y-173112000D02*
X330386000Y-174312000D01*
G75*
G02*
X330336000Y-174362000I-50000J0D01*
G01*
X329136000Y-174362000D01*
G75*
G02*
X329086000Y-174312000I0J50000D01*
G01*
X329086000Y-173112000D01*
G75*
G02*
X329136000Y-173062000I50000J0D01*
G01*
X330336000Y-173062000D01*
G75*
G02*
X330386000Y-173112000I0J-50000D01*
G01*
G37*
G36*
G01*
X333536000Y-173112000D02*
X333536000Y-174312000D01*
G75*
G02*
X333486000Y-174362000I-50000J0D01*
G01*
X332286000Y-174362000D01*
G75*
G02*
X332236000Y-174312000I0J50000D01*
G01*
X332236000Y-173112000D01*
G75*
G02*
X332286000Y-173062000I50000J0D01*
G01*
X333486000Y-173062000D01*
G75*
G02*
X333536000Y-173112000I0J-50000D01*
G01*
G37*
G36*
G01*
X221973000Y-136212000D02*
X221973000Y-135012000D01*
G75*
G02*
X222023000Y-134962000I50000J0D01*
G01*
X223223000Y-134962000D01*
G75*
G02*
X223273000Y-135012000I0J-50000D01*
G01*
X223273000Y-136212000D01*
G75*
G02*
X223223000Y-136262000I-50000J0D01*
G01*
X222023000Y-136262000D01*
G75*
G02*
X221973000Y-136212000I0J50000D01*
G01*
G37*
G36*
G01*
X225123000Y-136212000D02*
X225123000Y-135012000D01*
G75*
G02*
X225173000Y-134962000I50000J0D01*
G01*
X226373000Y-134962000D01*
G75*
G02*
X226423000Y-135012000I0J-50000D01*
G01*
X226423000Y-136212000D01*
G75*
G02*
X226373000Y-136262000I-50000J0D01*
G01*
X225173000Y-136262000D01*
G75*
G02*
X225123000Y-136212000I0J50000D01*
G01*
G37*
G36*
G01*
X219448000Y-136412000D02*
X219448000Y-134812000D01*
G75*
G02*
X219498000Y-134762000I50000J0D01*
G01*
X221098000Y-134762000D01*
G75*
G02*
X221148000Y-134812000I0J-50000D01*
G01*
X221148000Y-136412000D01*
G75*
G02*
X221098000Y-136462000I-50000J0D01*
G01*
X219498000Y-136462000D01*
G75*
G02*
X219448000Y-136412000I0J50000D01*
G01*
G37*
X228098000Y-135612000D03*
X328111000Y-97512000D03*
G36*
G01*
X319461000Y-98312000D02*
X319461000Y-96712000D01*
G75*
G02*
X319511000Y-96662000I50000J0D01*
G01*
X321111000Y-96662000D01*
G75*
G02*
X321161000Y-96712000I0J-50000D01*
G01*
X321161000Y-98312000D01*
G75*
G02*
X321111000Y-98362000I-50000J0D01*
G01*
X319511000Y-98362000D01*
G75*
G02*
X319461000Y-98312000I0J50000D01*
G01*
G37*
G36*
G01*
X325136000Y-98112000D02*
X325136000Y-96912000D01*
G75*
G02*
X325186000Y-96862000I50000J0D01*
G01*
X326386000Y-96862000D01*
G75*
G02*
X326436000Y-96912000I0J-50000D01*
G01*
X326436000Y-98112000D01*
G75*
G02*
X326386000Y-98162000I-50000J0D01*
G01*
X325186000Y-98162000D01*
G75*
G02*
X325136000Y-98112000I0J50000D01*
G01*
G37*
G36*
G01*
X321986000Y-98112000D02*
X321986000Y-96912000D01*
G75*
G02*
X322036000Y-96862000I50000J0D01*
G01*
X323236000Y-96862000D01*
G75*
G02*
X323286000Y-96912000I0J-50000D01*
G01*
X323286000Y-98112000D01*
G75*
G02*
X323236000Y-98162000I-50000J0D01*
G01*
X322036000Y-98162000D01*
G75*
G02*
X321986000Y-98112000I0J50000D01*
G01*
G37*
D11*
X181336000Y-126087000D03*
D14*
X176256000Y-126087000D03*
X186416000Y-126087000D03*
X138791000Y-107037000D03*
X128631000Y-107037000D03*
D11*
X133711000Y-107037000D03*
D15*
X86086200Y-131712000D03*
G36*
G01*
X86886200Y-140362000D02*
X85286200Y-140362000D01*
G75*
G02*
X85236200Y-140312000I0J50000D01*
G01*
X85236200Y-138712000D01*
G75*
G02*
X85286200Y-138662000I50000J0D01*
G01*
X86886200Y-138662000D01*
G75*
G02*
X86936200Y-138712000I0J-50000D01*
G01*
X86936200Y-140312000D01*
G75*
G02*
X86886200Y-140362000I-50000J0D01*
G01*
G37*
G36*
G01*
X86686200Y-134687000D02*
X85486200Y-134687000D01*
G75*
G02*
X85436200Y-134637000I0J50000D01*
G01*
X85436200Y-133437000D01*
G75*
G02*
X85486200Y-133387000I50000J0D01*
G01*
X86686200Y-133387000D01*
G75*
G02*
X86736200Y-133437000I0J-50000D01*
G01*
X86736200Y-134637000D01*
G75*
G02*
X86686200Y-134687000I-50000J0D01*
G01*
G37*
G36*
G01*
X86686200Y-137837000D02*
X85486200Y-137837000D01*
G75*
G02*
X85436200Y-137787000I0J50000D01*
G01*
X85436200Y-136587000D01*
G75*
G02*
X85486200Y-136537000I50000J0D01*
G01*
X86686200Y-136537000D01*
G75*
G02*
X86736200Y-136587000I0J-50000D01*
G01*
X86736200Y-137787000D01*
G75*
G02*
X86686200Y-137837000I-50000J0D01*
G01*
G37*
X219436000Y-103137000D03*
G36*
G01*
X220236000Y-111787000D02*
X218636000Y-111787000D01*
G75*
G02*
X218586000Y-111737000I0J50000D01*
G01*
X218586000Y-110137000D01*
G75*
G02*
X218636000Y-110087000I50000J0D01*
G01*
X220236000Y-110087000D01*
G75*
G02*
X220286000Y-110137000I0J-50000D01*
G01*
X220286000Y-111737000D01*
G75*
G02*
X220236000Y-111787000I-50000J0D01*
G01*
G37*
G36*
G01*
X220036000Y-106112000D02*
X218836000Y-106112000D01*
G75*
G02*
X218786000Y-106062000I0J50000D01*
G01*
X218786000Y-104862000D01*
G75*
G02*
X218836000Y-104812000I50000J0D01*
G01*
X220036000Y-104812000D01*
G75*
G02*
X220086000Y-104862000I0J-50000D01*
G01*
X220086000Y-106062000D01*
G75*
G02*
X220036000Y-106112000I-50000J0D01*
G01*
G37*
G36*
G01*
X220036000Y-109262000D02*
X218836000Y-109262000D01*
G75*
G02*
X218786000Y-109212000I0J50000D01*
G01*
X218786000Y-108012000D01*
G75*
G02*
X218836000Y-107962000I50000J0D01*
G01*
X220036000Y-107962000D01*
G75*
G02*
X220086000Y-108012000I0J-50000D01*
G01*
X220086000Y-109212000D01*
G75*
G02*
X220036000Y-109262000I-50000J0D01*
G01*
G37*
D14*
X262616000Y-126087000D03*
X252456000Y-126087000D03*
D11*
X257536000Y-126087000D03*
G36*
G01*
X55286200Y-155262000D02*
X55286200Y-154062000D01*
G75*
G02*
X55336200Y-154012000I50000J0D01*
G01*
X56536200Y-154012000D01*
G75*
G02*
X56586200Y-154062000I0J-50000D01*
G01*
X56586200Y-155262000D01*
G75*
G02*
X56536200Y-155312000I-50000J0D01*
G01*
X55336200Y-155312000D01*
G75*
G02*
X55286200Y-155262000I0J50000D01*
G01*
G37*
G36*
G01*
X58436200Y-155262000D02*
X58436200Y-154062000D01*
G75*
G02*
X58486200Y-154012000I50000J0D01*
G01*
X59686200Y-154012000D01*
G75*
G02*
X59736200Y-154062000I0J-50000D01*
G01*
X59736200Y-155262000D01*
G75*
G02*
X59686200Y-155312000I-50000J0D01*
G01*
X58486200Y-155312000D01*
G75*
G02*
X58436200Y-155262000I0J50000D01*
G01*
G37*
G36*
G01*
X52761200Y-155462000D02*
X52761200Y-153862000D01*
G75*
G02*
X52811200Y-153812000I50000J0D01*
G01*
X54411200Y-153812000D01*
G75*
G02*
X54461200Y-153862000I0J-50000D01*
G01*
X54461200Y-155462000D01*
G75*
G02*
X54411200Y-155512000I-50000J0D01*
G01*
X52811200Y-155512000D01*
G75*
G02*
X52761200Y-155462000I0J50000D01*
G01*
G37*
D15*
X61411200Y-154662000D03*
G36*
G01*
X36236200Y-117162000D02*
X36236200Y-115962000D01*
G75*
G02*
X36286200Y-115912000I50000J0D01*
G01*
X37486200Y-115912000D01*
G75*
G02*
X37536200Y-115962000I0J-50000D01*
G01*
X37536200Y-117162000D01*
G75*
G02*
X37486200Y-117212000I-50000J0D01*
G01*
X36286200Y-117212000D01*
G75*
G02*
X36236200Y-117162000I0J50000D01*
G01*
G37*
G36*
G01*
X39386200Y-117162000D02*
X39386200Y-115962000D01*
G75*
G02*
X39436200Y-115912000I50000J0D01*
G01*
X40636200Y-115912000D01*
G75*
G02*
X40686200Y-115962000I0J-50000D01*
G01*
X40686200Y-117162000D01*
G75*
G02*
X40636200Y-117212000I-50000J0D01*
G01*
X39436200Y-117212000D01*
G75*
G02*
X39386200Y-117162000I0J50000D01*
G01*
G37*
G36*
G01*
X33711200Y-117362000D02*
X33711200Y-115762000D01*
G75*
G02*
X33761200Y-115712000I50000J0D01*
G01*
X35361200Y-115712000D01*
G75*
G02*
X35411200Y-115762000I0J-50000D01*
G01*
X35411200Y-117362000D01*
G75*
G02*
X35361200Y-117412000I-50000J0D01*
G01*
X33761200Y-117412000D01*
G75*
G02*
X33711200Y-117362000I0J50000D01*
G01*
G37*
X42361200Y-116562000D03*
D14*
X357866000Y-126087000D03*
X347706000Y-126087000D03*
D11*
X352786000Y-126087000D03*
G36*
G01*
X114774000Y-155262000D02*
X114774000Y-154062000D01*
G75*
G02*
X114824000Y-154012000I50000J0D01*
G01*
X116024000Y-154012000D01*
G75*
G02*
X116074000Y-154062000I0J-50000D01*
G01*
X116074000Y-155262000D01*
G75*
G02*
X116024000Y-155312000I-50000J0D01*
G01*
X114824000Y-155312000D01*
G75*
G02*
X114774000Y-155262000I0J50000D01*
G01*
G37*
G36*
G01*
X117924000Y-155262000D02*
X117924000Y-154062000D01*
G75*
G02*
X117974000Y-154012000I50000J0D01*
G01*
X119174000Y-154012000D01*
G75*
G02*
X119224000Y-154062000I0J-50000D01*
G01*
X119224000Y-155262000D01*
G75*
G02*
X119174000Y-155312000I-50000J0D01*
G01*
X117974000Y-155312000D01*
G75*
G02*
X117924000Y-155262000I0J50000D01*
G01*
G37*
G36*
G01*
X112249000Y-155462000D02*
X112249000Y-153862000D01*
G75*
G02*
X112299000Y-153812000I50000J0D01*
G01*
X113899000Y-153812000D01*
G75*
G02*
X113949000Y-153862000I0J-50000D01*
G01*
X113949000Y-155462000D01*
G75*
G02*
X113899000Y-155512000I-50000J0D01*
G01*
X112299000Y-155512000D01*
G75*
G02*
X112249000Y-155462000I0J50000D01*
G01*
G37*
D15*
X120899000Y-154662000D03*
D14*
X281666000Y-126087000D03*
X271506000Y-126087000D03*
D11*
X276586000Y-126087000D03*
G36*
G01*
X260073000Y-136212000D02*
X260073000Y-135012000D01*
G75*
G02*
X260123000Y-134962000I50000J0D01*
G01*
X261323000Y-134962000D01*
G75*
G02*
X261373000Y-135012000I0J-50000D01*
G01*
X261373000Y-136212000D01*
G75*
G02*
X261323000Y-136262000I-50000J0D01*
G01*
X260123000Y-136262000D01*
G75*
G02*
X260073000Y-136212000I0J50000D01*
G01*
G37*
G36*
G01*
X263223000Y-136212000D02*
X263223000Y-135012000D01*
G75*
G02*
X263273000Y-134962000I50000J0D01*
G01*
X264473000Y-134962000D01*
G75*
G02*
X264523000Y-135012000I0J-50000D01*
G01*
X264523000Y-136212000D01*
G75*
G02*
X264473000Y-136262000I-50000J0D01*
G01*
X263273000Y-136262000D01*
G75*
G02*
X263223000Y-136212000I0J50000D01*
G01*
G37*
G36*
G01*
X257548000Y-136412000D02*
X257548000Y-134812000D01*
G75*
G02*
X257598000Y-134762000I50000J0D01*
G01*
X259198000Y-134762000D01*
G75*
G02*
X259248000Y-134812000I0J-50000D01*
G01*
X259248000Y-136412000D01*
G75*
G02*
X259198000Y-136462000I-50000J0D01*
G01*
X257598000Y-136462000D01*
G75*
G02*
X257548000Y-136412000I0J50000D01*
G01*
G37*
D15*
X266198000Y-135612000D03*
G36*
G01*
X315286000Y-109262000D02*
X314086000Y-109262000D01*
G75*
G02*
X314036000Y-109212000I0J50000D01*
G01*
X314036000Y-108012000D01*
G75*
G02*
X314086000Y-107962000I50000J0D01*
G01*
X315286000Y-107962000D01*
G75*
G02*
X315336000Y-108012000I0J-50000D01*
G01*
X315336000Y-109212000D01*
G75*
G02*
X315286000Y-109262000I-50000J0D01*
G01*
G37*
G36*
G01*
X315286000Y-106112000D02*
X314086000Y-106112000D01*
G75*
G02*
X314036000Y-106062000I0J50000D01*
G01*
X314036000Y-104862000D01*
G75*
G02*
X314086000Y-104812000I50000J0D01*
G01*
X315286000Y-104812000D01*
G75*
G02*
X315336000Y-104862000I0J-50000D01*
G01*
X315336000Y-106062000D01*
G75*
G02*
X315286000Y-106112000I-50000J0D01*
G01*
G37*
G36*
G01*
X315486000Y-111787000D02*
X313886000Y-111787000D01*
G75*
G02*
X313836000Y-111737000I0J50000D01*
G01*
X313836000Y-110137000D01*
G75*
G02*
X313886000Y-110087000I50000J0D01*
G01*
X315486000Y-110087000D01*
G75*
G02*
X315536000Y-110137000I0J-50000D01*
G01*
X315536000Y-111737000D01*
G75*
G02*
X315486000Y-111787000I-50000J0D01*
G01*
G37*
X314686000Y-103137000D03*
X313824000Y-154662000D03*
G36*
G01*
X305174000Y-155462000D02*
X305174000Y-153862000D01*
G75*
G02*
X305224000Y-153812000I50000J0D01*
G01*
X306824000Y-153812000D01*
G75*
G02*
X306874000Y-153862000I0J-50000D01*
G01*
X306874000Y-155462000D01*
G75*
G02*
X306824000Y-155512000I-50000J0D01*
G01*
X305224000Y-155512000D01*
G75*
G02*
X305174000Y-155462000I0J50000D01*
G01*
G37*
G36*
G01*
X310849000Y-155262000D02*
X310849000Y-154062000D01*
G75*
G02*
X310899000Y-154012000I50000J0D01*
G01*
X312099000Y-154012000D01*
G75*
G02*
X312149000Y-154062000I0J-50000D01*
G01*
X312149000Y-155262000D01*
G75*
G02*
X312099000Y-155312000I-50000J0D01*
G01*
X310899000Y-155312000D01*
G75*
G02*
X310849000Y-155262000I0J50000D01*
G01*
G37*
G36*
G01*
X307699000Y-155262000D02*
X307699000Y-154062000D01*
G75*
G02*
X307749000Y-154012000I50000J0D01*
G01*
X308949000Y-154012000D01*
G75*
G02*
X308999000Y-154062000I0J-50000D01*
G01*
X308999000Y-155262000D01*
G75*
G02*
X308949000Y-155312000I-50000J0D01*
G01*
X307749000Y-155312000D01*
G75*
G02*
X307699000Y-155262000I0J50000D01*
G01*
G37*
D11*
X121805000Y-145137000D03*
D14*
X116725000Y-145137000D03*
X126885000Y-145137000D03*
D11*
X233724000Y-164187000D03*
D14*
X228644000Y-164187000D03*
X238804000Y-164187000D03*
X153078000Y-145137000D03*
X142918000Y-145137000D03*
D11*
X147998000Y-145137000D03*
D15*
X388461000Y-131005800D03*
G36*
G01*
X389261000Y-139655800D02*
X387661000Y-139655800D01*
G75*
G02*
X387611000Y-139605800I0J50000D01*
G01*
X387611000Y-138005800D01*
G75*
G02*
X387661000Y-137955800I50000J0D01*
G01*
X389261000Y-137955800D01*
G75*
G02*
X389311000Y-138005800I0J-50000D01*
G01*
X389311000Y-139605800D01*
G75*
G02*
X389261000Y-139655800I-50000J0D01*
G01*
G37*
G36*
G01*
X389061000Y-133980800D02*
X387861000Y-133980800D01*
G75*
G02*
X387811000Y-133930800I0J50000D01*
G01*
X387811000Y-132730800D01*
G75*
G02*
X387861000Y-132680800I50000J0D01*
G01*
X389061000Y-132680800D01*
G75*
G02*
X389111000Y-132730800I0J-50000D01*
G01*
X389111000Y-133930800D01*
G75*
G02*
X389061000Y-133980800I-50000J0D01*
G01*
G37*
G36*
G01*
X389061000Y-137130800D02*
X387861000Y-137130800D01*
G75*
G02*
X387811000Y-137080800I0J50000D01*
G01*
X387811000Y-135880800D01*
G75*
G02*
X387861000Y-135830800I50000J0D01*
G01*
X389061000Y-135830800D01*
G75*
G02*
X389111000Y-135880800I0J-50000D01*
G01*
X389111000Y-137080800D01*
G75*
G02*
X389061000Y-137130800I-50000J0D01*
G01*
G37*
G36*
G01*
X212449000Y-155262000D02*
X212449000Y-154062000D01*
G75*
G02*
X212499000Y-154012000I50000J0D01*
G01*
X213699000Y-154012000D01*
G75*
G02*
X213749000Y-154062000I0J-50000D01*
G01*
X213749000Y-155262000D01*
G75*
G02*
X213699000Y-155312000I-50000J0D01*
G01*
X212499000Y-155312000D01*
G75*
G02*
X212449000Y-155262000I0J50000D01*
G01*
G37*
G36*
G01*
X215599000Y-155262000D02*
X215599000Y-154062000D01*
G75*
G02*
X215649000Y-154012000I50000J0D01*
G01*
X216849000Y-154012000D01*
G75*
G02*
X216899000Y-154062000I0J-50000D01*
G01*
X216899000Y-155262000D01*
G75*
G02*
X216849000Y-155312000I-50000J0D01*
G01*
X215649000Y-155312000D01*
G75*
G02*
X215599000Y-155262000I0J50000D01*
G01*
G37*
G36*
G01*
X209924000Y-155462000D02*
X209924000Y-153862000D01*
G75*
G02*
X209974000Y-153812000I50000J0D01*
G01*
X211574000Y-153812000D01*
G75*
G02*
X211624000Y-153862000I0J-50000D01*
G01*
X211624000Y-155462000D01*
G75*
G02*
X211574000Y-155512000I-50000J0D01*
G01*
X209974000Y-155512000D01*
G75*
G02*
X209924000Y-155462000I0J50000D01*
G01*
G37*
X218574000Y-154662000D03*
G36*
G01*
X193399000Y-155262000D02*
X193399000Y-154062000D01*
G75*
G02*
X193449000Y-154012000I50000J0D01*
G01*
X194649000Y-154012000D01*
G75*
G02*
X194699000Y-154062000I0J-50000D01*
G01*
X194699000Y-155262000D01*
G75*
G02*
X194649000Y-155312000I-50000J0D01*
G01*
X193449000Y-155312000D01*
G75*
G02*
X193399000Y-155262000I0J50000D01*
G01*
G37*
G36*
G01*
X196549000Y-155262000D02*
X196549000Y-154062000D01*
G75*
G02*
X196599000Y-154012000I50000J0D01*
G01*
X197799000Y-154012000D01*
G75*
G02*
X197849000Y-154062000I0J-50000D01*
G01*
X197849000Y-155262000D01*
G75*
G02*
X197799000Y-155312000I-50000J0D01*
G01*
X196599000Y-155312000D01*
G75*
G02*
X196549000Y-155262000I0J50000D01*
G01*
G37*
G36*
G01*
X190874000Y-155462000D02*
X190874000Y-153862000D01*
G75*
G02*
X190924000Y-153812000I50000J0D01*
G01*
X192524000Y-153812000D01*
G75*
G02*
X192574000Y-153862000I0J-50000D01*
G01*
X192574000Y-155462000D01*
G75*
G02*
X192524000Y-155512000I-50000J0D01*
G01*
X190924000Y-155512000D01*
G75*
G02*
X190874000Y-155462000I0J50000D01*
G01*
G37*
X199524000Y-154662000D03*
X361405000Y-135612000D03*
G36*
G01*
X352755000Y-136412000D02*
X352755000Y-134812000D01*
G75*
G02*
X352805000Y-134762000I50000J0D01*
G01*
X354405000Y-134762000D01*
G75*
G02*
X354455000Y-134812000I0J-50000D01*
G01*
X354455000Y-136412000D01*
G75*
G02*
X354405000Y-136462000I-50000J0D01*
G01*
X352805000Y-136462000D01*
G75*
G02*
X352755000Y-136412000I0J50000D01*
G01*
G37*
G36*
G01*
X358430000Y-136212000D02*
X358430000Y-135012000D01*
G75*
G02*
X358480000Y-134962000I50000J0D01*
G01*
X359680000Y-134962000D01*
G75*
G02*
X359730000Y-135012000I0J-50000D01*
G01*
X359730000Y-136212000D01*
G75*
G02*
X359680000Y-136262000I-50000J0D01*
G01*
X358480000Y-136262000D01*
G75*
G02*
X358430000Y-136212000I0J50000D01*
G01*
G37*
G36*
G01*
X355280000Y-136212000D02*
X355280000Y-135012000D01*
G75*
G02*
X355330000Y-134962000I50000J0D01*
G01*
X356530000Y-134962000D01*
G75*
G02*
X356580000Y-135012000I0J-50000D01*
G01*
X356580000Y-136212000D01*
G75*
G02*
X356530000Y-136262000I-50000J0D01*
G01*
X355330000Y-136262000D01*
G75*
G02*
X355280000Y-136212000I0J50000D01*
G01*
G37*
D11*
X186098000Y-145137000D03*
D14*
X181018000Y-145137000D03*
X191178000Y-145137000D03*
X145891000Y-183237000D03*
X135731000Y-183237000D03*
D11*
X140811000Y-183237000D03*
G36*
G01*
X36236200Y-136212000D02*
X36236200Y-135012000D01*
G75*
G02*
X36286200Y-134962000I50000J0D01*
G01*
X37486200Y-134962000D01*
G75*
G02*
X37536200Y-135012000I0J-50000D01*
G01*
X37536200Y-136212000D01*
G75*
G02*
X37486200Y-136262000I-50000J0D01*
G01*
X36286200Y-136262000D01*
G75*
G02*
X36236200Y-136212000I0J50000D01*
G01*
G37*
G36*
G01*
X39386200Y-136212000D02*
X39386200Y-135012000D01*
G75*
G02*
X39436200Y-134962000I50000J0D01*
G01*
X40636200Y-134962000D01*
G75*
G02*
X40686200Y-135012000I0J-50000D01*
G01*
X40686200Y-136212000D01*
G75*
G02*
X40636200Y-136262000I-50000J0D01*
G01*
X39436200Y-136262000D01*
G75*
G02*
X39386200Y-136212000I0J50000D01*
G01*
G37*
G36*
G01*
X33711200Y-136412000D02*
X33711200Y-134812000D01*
G75*
G02*
X33761200Y-134762000I50000J0D01*
G01*
X35361200Y-134762000D01*
G75*
G02*
X35411200Y-134812000I0J-50000D01*
G01*
X35411200Y-136412000D01*
G75*
G02*
X35361200Y-136462000I-50000J0D01*
G01*
X33761200Y-136462000D01*
G75*
G02*
X33711200Y-136412000I0J50000D01*
G01*
G37*
D15*
X42361200Y-135612000D03*
D11*
X300398000Y-145137000D03*
D14*
X295318000Y-145137000D03*
X305478000Y-145137000D03*
X122079000Y-183237000D03*
X111919000Y-183237000D03*
D11*
X116999000Y-183237000D03*
G36*
G01*
X269599000Y-155262000D02*
X269599000Y-154062000D01*
G75*
G02*
X269649000Y-154012000I50000J0D01*
G01*
X270849000Y-154012000D01*
G75*
G02*
X270899000Y-154062000I0J-50000D01*
G01*
X270899000Y-155262000D01*
G75*
G02*
X270849000Y-155312000I-50000J0D01*
G01*
X269649000Y-155312000D01*
G75*
G02*
X269599000Y-155262000I0J50000D01*
G01*
G37*
G36*
G01*
X272749000Y-155262000D02*
X272749000Y-154062000D01*
G75*
G02*
X272799000Y-154012000I50000J0D01*
G01*
X273999000Y-154012000D01*
G75*
G02*
X274049000Y-154062000I0J-50000D01*
G01*
X274049000Y-155262000D01*
G75*
G02*
X273999000Y-155312000I-50000J0D01*
G01*
X272799000Y-155312000D01*
G75*
G02*
X272749000Y-155262000I0J50000D01*
G01*
G37*
G36*
G01*
X267074000Y-155462000D02*
X267074000Y-153862000D01*
G75*
G02*
X267124000Y-153812000I50000J0D01*
G01*
X268724000Y-153812000D01*
G75*
G02*
X268774000Y-153862000I0J-50000D01*
G01*
X268774000Y-155462000D01*
G75*
G02*
X268724000Y-155512000I-50000J0D01*
G01*
X267124000Y-155512000D01*
G75*
G02*
X267074000Y-155462000I0J50000D01*
G01*
G37*
D15*
X275724000Y-154662000D03*
D11*
X305161000Y-107037000D03*
D14*
X300081000Y-107037000D03*
X310241000Y-107037000D03*
G36*
G01*
X283886000Y-98112000D02*
X283886000Y-96912000D01*
G75*
G02*
X283936000Y-96862000I50000J0D01*
G01*
X285136000Y-96862000D01*
G75*
G02*
X285186000Y-96912000I0J-50000D01*
G01*
X285186000Y-98112000D01*
G75*
G02*
X285136000Y-98162000I-50000J0D01*
G01*
X283936000Y-98162000D01*
G75*
G02*
X283886000Y-98112000I0J50000D01*
G01*
G37*
G36*
G01*
X287036000Y-98112000D02*
X287036000Y-96912000D01*
G75*
G02*
X287086000Y-96862000I50000J0D01*
G01*
X288286000Y-96862000D01*
G75*
G02*
X288336000Y-96912000I0J-50000D01*
G01*
X288336000Y-98112000D01*
G75*
G02*
X288286000Y-98162000I-50000J0D01*
G01*
X287086000Y-98162000D01*
G75*
G02*
X287036000Y-98112000I0J50000D01*
G01*
G37*
G36*
G01*
X281361000Y-98312000D02*
X281361000Y-96712000D01*
G75*
G02*
X281411000Y-96662000I50000J0D01*
G01*
X283011000Y-96662000D01*
G75*
G02*
X283061000Y-96712000I0J-50000D01*
G01*
X283061000Y-98312000D01*
G75*
G02*
X283011000Y-98362000I-50000J0D01*
G01*
X281411000Y-98362000D01*
G75*
G02*
X281361000Y-98312000I0J50000D01*
G01*
G37*
D15*
X290011000Y-97512000D03*
G36*
G01*
X326705000Y-155262000D02*
X326705000Y-154062000D01*
G75*
G02*
X326755000Y-154012000I50000J0D01*
G01*
X327955000Y-154012000D01*
G75*
G02*
X328005000Y-154062000I0J-50000D01*
G01*
X328005000Y-155262000D01*
G75*
G02*
X327955000Y-155312000I-50000J0D01*
G01*
X326755000Y-155312000D01*
G75*
G02*
X326705000Y-155262000I0J50000D01*
G01*
G37*
G36*
G01*
X329855000Y-155262000D02*
X329855000Y-154062000D01*
G75*
G02*
X329905000Y-154012000I50000J0D01*
G01*
X331105000Y-154012000D01*
G75*
G02*
X331155000Y-154062000I0J-50000D01*
G01*
X331155000Y-155262000D01*
G75*
G02*
X331105000Y-155312000I-50000J0D01*
G01*
X329905000Y-155312000D01*
G75*
G02*
X329855000Y-155262000I0J50000D01*
G01*
G37*
G36*
G01*
X324180000Y-155462000D02*
X324180000Y-153862000D01*
G75*
G02*
X324230000Y-153812000I50000J0D01*
G01*
X325830000Y-153812000D01*
G75*
G02*
X325880000Y-153862000I0J-50000D01*
G01*
X325880000Y-155462000D01*
G75*
G02*
X325830000Y-155512000I-50000J0D01*
G01*
X324230000Y-155512000D01*
G75*
G02*
X324180000Y-155462000I0J50000D01*
G01*
G37*
X332830000Y-154662000D03*
X375736000Y-97512000D03*
G36*
G01*
X367086000Y-98312000D02*
X367086000Y-96712000D01*
G75*
G02*
X367136000Y-96662000I50000J0D01*
G01*
X368736000Y-96662000D01*
G75*
G02*
X368786000Y-96712000I0J-50000D01*
G01*
X368786000Y-98312000D01*
G75*
G02*
X368736000Y-98362000I-50000J0D01*
G01*
X367136000Y-98362000D01*
G75*
G02*
X367086000Y-98312000I0J50000D01*
G01*
G37*
G36*
G01*
X372761000Y-98112000D02*
X372761000Y-96912000D01*
G75*
G02*
X372811000Y-96862000I50000J0D01*
G01*
X374011000Y-96862000D01*
G75*
G02*
X374061000Y-96912000I0J-50000D01*
G01*
X374061000Y-98112000D01*
G75*
G02*
X374011000Y-98162000I-50000J0D01*
G01*
X372811000Y-98162000D01*
G75*
G02*
X372761000Y-98112000I0J50000D01*
G01*
G37*
G36*
G01*
X369611000Y-98112000D02*
X369611000Y-96912000D01*
G75*
G02*
X369661000Y-96862000I50000J0D01*
G01*
X370861000Y-96862000D01*
G75*
G02*
X370911000Y-96912000I0J-50000D01*
G01*
X370911000Y-98112000D01*
G75*
G02*
X370861000Y-98162000I-50000J0D01*
G01*
X369661000Y-98162000D01*
G75*
G02*
X369611000Y-98112000I0J50000D01*
G01*
G37*
X61411200Y-135612000D03*
G36*
G01*
X52761200Y-136412000D02*
X52761200Y-134812000D01*
G75*
G02*
X52811200Y-134762000I50000J0D01*
G01*
X54411200Y-134762000D01*
G75*
G02*
X54461200Y-134812000I0J-50000D01*
G01*
X54461200Y-136412000D01*
G75*
G02*
X54411200Y-136462000I-50000J0D01*
G01*
X52811200Y-136462000D01*
G75*
G02*
X52761200Y-136412000I0J50000D01*
G01*
G37*
G36*
G01*
X58436200Y-136212000D02*
X58436200Y-135012000D01*
G75*
G02*
X58486200Y-134962000I50000J0D01*
G01*
X59686200Y-134962000D01*
G75*
G02*
X59736200Y-135012000I0J-50000D01*
G01*
X59736200Y-136212000D01*
G75*
G02*
X59686200Y-136262000I-50000J0D01*
G01*
X58486200Y-136262000D01*
G75*
G02*
X58436200Y-136212000I0J50000D01*
G01*
G37*
G36*
G01*
X55286200Y-136212000D02*
X55286200Y-135012000D01*
G75*
G02*
X55336200Y-134962000I50000J0D01*
G01*
X56536200Y-134962000D01*
G75*
G02*
X56586200Y-135012000I0J-50000D01*
G01*
X56586200Y-136212000D01*
G75*
G02*
X56536200Y-136262000I-50000J0D01*
G01*
X55336200Y-136262000D01*
G75*
G02*
X55286200Y-136212000I0J50000D01*
G01*
G37*
X251911000Y-97512000D03*
G36*
G01*
X243261000Y-98312000D02*
X243261000Y-96712000D01*
G75*
G02*
X243311000Y-96662000I50000J0D01*
G01*
X244911000Y-96662000D01*
G75*
G02*
X244961000Y-96712000I0J-50000D01*
G01*
X244961000Y-98312000D01*
G75*
G02*
X244911000Y-98362000I-50000J0D01*
G01*
X243311000Y-98362000D01*
G75*
G02*
X243261000Y-98312000I0J50000D01*
G01*
G37*
G36*
G01*
X248936000Y-98112000D02*
X248936000Y-96912000D01*
G75*
G02*
X248986000Y-96862000I50000J0D01*
G01*
X250186000Y-96862000D01*
G75*
G02*
X250236000Y-96912000I0J-50000D01*
G01*
X250236000Y-98112000D01*
G75*
G02*
X250186000Y-98162000I-50000J0D01*
G01*
X248986000Y-98162000D01*
G75*
G02*
X248936000Y-98112000I0J50000D01*
G01*
G37*
G36*
G01*
X245786000Y-98112000D02*
X245786000Y-96912000D01*
G75*
G02*
X245836000Y-96862000I50000J0D01*
G01*
X247036000Y-96862000D01*
G75*
G02*
X247086000Y-96912000I0J-50000D01*
G01*
X247086000Y-98112000D01*
G75*
G02*
X247036000Y-98162000I-50000J0D01*
G01*
X245836000Y-98162000D01*
G75*
G02*
X245786000Y-98112000I0J50000D01*
G01*
G37*
D11*
X103866200Y-123674000D03*
X103866200Y-147550000D03*
D12*
X88626200Y-123674000D03*
X88626200Y-147550000D03*
D14*
X95611200Y-130532000D03*
X95611200Y-140692000D03*
D11*
X95611200Y-135612000D03*
D15*
X142374000Y-154662000D03*
G36*
G01*
X133724000Y-155462000D02*
X133724000Y-153862000D01*
G75*
G02*
X133774000Y-153812000I50000J0D01*
G01*
X135374000Y-153812000D01*
G75*
G02*
X135424000Y-153862000I0J-50000D01*
G01*
X135424000Y-155462000D01*
G75*
G02*
X135374000Y-155512000I-50000J0D01*
G01*
X133774000Y-155512000D01*
G75*
G02*
X133724000Y-155462000I0J50000D01*
G01*
G37*
G36*
G01*
X139399000Y-155262000D02*
X139399000Y-154062000D01*
G75*
G02*
X139449000Y-154012000I50000J0D01*
G01*
X140649000Y-154012000D01*
G75*
G02*
X140699000Y-154062000I0J-50000D01*
G01*
X140699000Y-155262000D01*
G75*
G02*
X140649000Y-155312000I-50000J0D01*
G01*
X139449000Y-155312000D01*
G75*
G02*
X139399000Y-155262000I0J50000D01*
G01*
G37*
G36*
G01*
X136249000Y-155262000D02*
X136249000Y-154062000D01*
G75*
G02*
X136299000Y-154012000I50000J0D01*
G01*
X137499000Y-154012000D01*
G75*
G02*
X137549000Y-154062000I0J-50000D01*
G01*
X137549000Y-155262000D01*
G75*
G02*
X137499000Y-155312000I-50000J0D01*
G01*
X136299000Y-155312000D01*
G75*
G02*
X136249000Y-155262000I0J50000D01*
G01*
G37*
X337636000Y-116562000D03*
G36*
G01*
X328986000Y-117362000D02*
X328986000Y-115762000D01*
G75*
G02*
X329036000Y-115712000I50000J0D01*
G01*
X330636000Y-115712000D01*
G75*
G02*
X330686000Y-115762000I0J-50000D01*
G01*
X330686000Y-117362000D01*
G75*
G02*
X330636000Y-117412000I-50000J0D01*
G01*
X329036000Y-117412000D01*
G75*
G02*
X328986000Y-117362000I0J50000D01*
G01*
G37*
G36*
G01*
X334661000Y-117162000D02*
X334661000Y-115962000D01*
G75*
G02*
X334711000Y-115912000I50000J0D01*
G01*
X335911000Y-115912000D01*
G75*
G02*
X335961000Y-115962000I0J-50000D01*
G01*
X335961000Y-117162000D01*
G75*
G02*
X335911000Y-117212000I-50000J0D01*
G01*
X334711000Y-117212000D01*
G75*
G02*
X334661000Y-117162000I0J50000D01*
G01*
G37*
G36*
G01*
X331511000Y-117162000D02*
X331511000Y-115962000D01*
G75*
G02*
X331561000Y-115912000I50000J0D01*
G01*
X332761000Y-115912000D01*
G75*
G02*
X332811000Y-115962000I0J-50000D01*
G01*
X332811000Y-117162000D01*
G75*
G02*
X332761000Y-117212000I-50000J0D01*
G01*
X331561000Y-117212000D01*
G75*
G02*
X331511000Y-117162000I0J50000D01*
G01*
G37*
X61411200Y-116562000D03*
G36*
G01*
X52761200Y-117362000D02*
X52761200Y-115762000D01*
G75*
G02*
X52811200Y-115712000I50000J0D01*
G01*
X54411200Y-115712000D01*
G75*
G02*
X54461200Y-115762000I0J-50000D01*
G01*
X54461200Y-117362000D01*
G75*
G02*
X54411200Y-117412000I-50000J0D01*
G01*
X52811200Y-117412000D01*
G75*
G02*
X52761200Y-117362000I0J50000D01*
G01*
G37*
G36*
G01*
X58436200Y-117162000D02*
X58436200Y-115962000D01*
G75*
G02*
X58486200Y-115912000I50000J0D01*
G01*
X59686200Y-115912000D01*
G75*
G02*
X59736200Y-115962000I0J-50000D01*
G01*
X59736200Y-117162000D01*
G75*
G02*
X59686200Y-117212000I-50000J0D01*
G01*
X58486200Y-117212000D01*
G75*
G02*
X58436200Y-117162000I0J50000D01*
G01*
G37*
G36*
G01*
X55286200Y-117162000D02*
X55286200Y-115962000D01*
G75*
G02*
X55336200Y-115912000I50000J0D01*
G01*
X56536200Y-115912000D01*
G75*
G02*
X56586200Y-115962000I0J-50000D01*
G01*
X56586200Y-117162000D01*
G75*
G02*
X56536200Y-117212000I-50000J0D01*
G01*
X55336200Y-117212000D01*
G75*
G02*
X55286200Y-117162000I0J50000D01*
G01*
G37*
G36*
G01*
X362424000Y-154555800D02*
X362424000Y-153355800D01*
G75*
G02*
X362474000Y-153305800I50000J0D01*
G01*
X363674000Y-153305800D01*
G75*
G02*
X363724000Y-153355800I0J-50000D01*
G01*
X363724000Y-154555800D01*
G75*
G02*
X363674000Y-154605800I-50000J0D01*
G01*
X362474000Y-154605800D01*
G75*
G02*
X362424000Y-154555800I0J50000D01*
G01*
G37*
G36*
G01*
X365574000Y-154555800D02*
X365574000Y-153355800D01*
G75*
G02*
X365624000Y-153305800I50000J0D01*
G01*
X366824000Y-153305800D01*
G75*
G02*
X366874000Y-153355800I0J-50000D01*
G01*
X366874000Y-154555800D01*
G75*
G02*
X366824000Y-154605800I-50000J0D01*
G01*
X365624000Y-154605800D01*
G75*
G02*
X365574000Y-154555800I0J50000D01*
G01*
G37*
G36*
G01*
X359899000Y-154755800D02*
X359899000Y-153155800D01*
G75*
G02*
X359949000Y-153105800I50000J0D01*
G01*
X361549000Y-153105800D01*
G75*
G02*
X361599000Y-153155800I0J-50000D01*
G01*
X361599000Y-154755800D01*
G75*
G02*
X361549000Y-154805800I-50000J0D01*
G01*
X359949000Y-154805800D01*
G75*
G02*
X359899000Y-154755800I0J50000D01*
G01*
G37*
X368549000Y-153955800D03*
D14*
X329291000Y-107037000D03*
X319131000Y-107037000D03*
D11*
X324211000Y-107037000D03*
D14*
X43541200Y-145137000D03*
X33381200Y-145137000D03*
D11*
X38461200Y-145137000D03*
X190861000Y-107037000D03*
D14*
X185781000Y-107037000D03*
X195941000Y-107037000D03*
D11*
X57511200Y-164187000D03*
D14*
X52431200Y-164187000D03*
X62591200Y-164187000D03*
D11*
X338498000Y-145137000D03*
D14*
X333418000Y-145137000D03*
X343578000Y-145137000D03*
D11*
X228961000Y-107037000D03*
D14*
X223881000Y-107037000D03*
X234041000Y-107037000D03*
X291191000Y-107037000D03*
X281031000Y-107037000D03*
D11*
X286111000Y-107037000D03*
D15*
X125705000Y-135612000D03*
G36*
G01*
X117055000Y-136412000D02*
X117055000Y-134812000D01*
G75*
G02*
X117105000Y-134762000I50000J0D01*
G01*
X118705000Y-134762000D01*
G75*
G02*
X118755000Y-134812000I0J-50000D01*
G01*
X118755000Y-136412000D01*
G75*
G02*
X118705000Y-136462000I-50000J0D01*
G01*
X117105000Y-136462000D01*
G75*
G02*
X117055000Y-136412000I0J50000D01*
G01*
G37*
G36*
G01*
X122730000Y-136212000D02*
X122730000Y-135012000D01*
G75*
G02*
X122780000Y-134962000I50000J0D01*
G01*
X123980000Y-134962000D01*
G75*
G02*
X124030000Y-135012000I0J-50000D01*
G01*
X124030000Y-136212000D01*
G75*
G02*
X123980000Y-136262000I-50000J0D01*
G01*
X122780000Y-136262000D01*
G75*
G02*
X122730000Y-136212000I0J50000D01*
G01*
G37*
G36*
G01*
X119580000Y-136212000D02*
X119580000Y-135012000D01*
G75*
G02*
X119630000Y-134962000I50000J0D01*
G01*
X120830000Y-134962000D01*
G75*
G02*
X120880000Y-135012000I0J-50000D01*
G01*
X120880000Y-136212000D01*
G75*
G02*
X120830000Y-136262000I-50000J0D01*
G01*
X119630000Y-136262000D01*
G75*
G02*
X119580000Y-136212000I0J50000D01*
G01*
G37*
D14*
X214991000Y-107037000D03*
X204831000Y-107037000D03*
D11*
X209911000Y-107037000D03*
X214674000Y-164187000D03*
D14*
X209594000Y-164187000D03*
X219754000Y-164187000D03*
D11*
X176574000Y-164187000D03*
D14*
X171494000Y-164187000D03*
X181654000Y-164187000D03*
D11*
X138474000Y-164187000D03*
D14*
X133394000Y-164187000D03*
X143554000Y-164187000D03*
D11*
X57511200Y-145137000D03*
D14*
X52431200Y-145137000D03*
X62591200Y-145137000D03*
D15*
X86086200Y-169812000D03*
G36*
G01*
X86886200Y-178462000D02*
X85286200Y-178462000D01*
G75*
G02*
X85236200Y-178412000I0J50000D01*
G01*
X85236200Y-176812000D01*
G75*
G02*
X85286200Y-176762000I50000J0D01*
G01*
X86886200Y-176762000D01*
G75*
G02*
X86936200Y-176812000I0J-50000D01*
G01*
X86936200Y-178412000D01*
G75*
G02*
X86886200Y-178462000I-50000J0D01*
G01*
G37*
G36*
G01*
X86686200Y-172787000D02*
X85486200Y-172787000D01*
G75*
G02*
X85436200Y-172737000I0J50000D01*
G01*
X85436200Y-171537000D01*
G75*
G02*
X85486200Y-171487000I50000J0D01*
G01*
X86686200Y-171487000D01*
G75*
G02*
X86736200Y-171537000I0J-50000D01*
G01*
X86736200Y-172737000D01*
G75*
G02*
X86686200Y-172787000I-50000J0D01*
G01*
G37*
G36*
G01*
X86686200Y-175937000D02*
X85486200Y-175937000D01*
G75*
G02*
X85436200Y-175887000I0J50000D01*
G01*
X85436200Y-174687000D01*
G75*
G02*
X85486200Y-174637000I50000J0D01*
G01*
X86686200Y-174637000D01*
G75*
G02*
X86736200Y-174687000I0J-50000D01*
G01*
X86736200Y-175887000D01*
G75*
G02*
X86686200Y-175937000I-50000J0D01*
G01*
G37*
D14*
X81641200Y-164187000D03*
X71481200Y-164187000D03*
D11*
X76561200Y-164187000D03*
D14*
X324528000Y-145137000D03*
X314368000Y-145137000D03*
D11*
X319448000Y-145137000D03*
X103866200Y-161774000D03*
X103866200Y-185650000D03*
D12*
X88626200Y-161774000D03*
X88626200Y-185650000D03*
D14*
X95611200Y-168632000D03*
X95611200Y-178792000D03*
D11*
X95611200Y-173712000D03*
D14*
X81641200Y-145137000D03*
X71481200Y-145137000D03*
D11*
X76561200Y-145137000D03*
D14*
X253091000Y-107037000D03*
X242931000Y-107037000D03*
D11*
X248011000Y-107037000D03*
G36*
G01*
X117199000Y-117162000D02*
X117199000Y-115962000D01*
G75*
G02*
X117249000Y-115912000I50000J0D01*
G01*
X118449000Y-115912000D01*
G75*
G02*
X118499000Y-115962000I0J-50000D01*
G01*
X118499000Y-117162000D01*
G75*
G02*
X118449000Y-117212000I-50000J0D01*
G01*
X117249000Y-117212000D01*
G75*
G02*
X117199000Y-117162000I0J50000D01*
G01*
G37*
G36*
G01*
X120349000Y-117162000D02*
X120349000Y-115962000D01*
G75*
G02*
X120399000Y-115912000I50000J0D01*
G01*
X121599000Y-115912000D01*
G75*
G02*
X121649000Y-115962000I0J-50000D01*
G01*
X121649000Y-117162000D01*
G75*
G02*
X121599000Y-117212000I-50000J0D01*
G01*
X120399000Y-117212000D01*
G75*
G02*
X120349000Y-117162000I0J50000D01*
G01*
G37*
G36*
G01*
X114674000Y-117362000D02*
X114674000Y-115762000D01*
G75*
G02*
X114724000Y-115712000I50000J0D01*
G01*
X116324000Y-115712000D01*
G75*
G02*
X116374000Y-115762000I0J-50000D01*
G01*
X116374000Y-117362000D01*
G75*
G02*
X116324000Y-117412000I-50000J0D01*
G01*
X114724000Y-117412000D01*
G75*
G02*
X114674000Y-117362000I0J50000D01*
G01*
G37*
D15*
X123324000Y-116562000D03*
D14*
X200704000Y-164187000D03*
X190544000Y-164187000D03*
D11*
X195624000Y-164187000D03*
X281348000Y-145137000D03*
D14*
X276268000Y-145137000D03*
X286428000Y-145137000D03*
X43541200Y-164187000D03*
X33381200Y-164187000D03*
D11*
X38461200Y-164187000D03*
X307543000Y-183237000D03*
D14*
X302463000Y-183237000D03*
X312623000Y-183237000D03*
G36*
G01*
X341036000Y-98112000D02*
X341036000Y-96912000D01*
G75*
G02*
X341086000Y-96862000I50000J0D01*
G01*
X342286000Y-96862000D01*
G75*
G02*
X342336000Y-96912000I0J-50000D01*
G01*
X342336000Y-98112000D01*
G75*
G02*
X342286000Y-98162000I-50000J0D01*
G01*
X341086000Y-98162000D01*
G75*
G02*
X341036000Y-98112000I0J50000D01*
G01*
G37*
G36*
G01*
X344186000Y-98112000D02*
X344186000Y-96912000D01*
G75*
G02*
X344236000Y-96862000I50000J0D01*
G01*
X345436000Y-96862000D01*
G75*
G02*
X345486000Y-96912000I0J-50000D01*
G01*
X345486000Y-98112000D01*
G75*
G02*
X345436000Y-98162000I-50000J0D01*
G01*
X344236000Y-98162000D01*
G75*
G02*
X344186000Y-98112000I0J50000D01*
G01*
G37*
G36*
G01*
X338511000Y-98312000D02*
X338511000Y-96712000D01*
G75*
G02*
X338561000Y-96662000I50000J0D01*
G01*
X340161000Y-96662000D01*
G75*
G02*
X340211000Y-96712000I0J-50000D01*
G01*
X340211000Y-98312000D01*
G75*
G02*
X340161000Y-98362000I-50000J0D01*
G01*
X338561000Y-98362000D01*
G75*
G02*
X338511000Y-98312000I0J50000D01*
G01*
G37*
D15*
X347161000Y-97512000D03*
D11*
X167048000Y-145137000D03*
D14*
X161968000Y-145137000D03*
X172128000Y-145137000D03*
X62591200Y-126087000D03*
X52431200Y-126087000D03*
D11*
X57511200Y-126087000D03*
D14*
X210228000Y-145137000D03*
X200068000Y-145137000D03*
D11*
X205148000Y-145137000D03*
D15*
X299536000Y-116562000D03*
G36*
G01*
X290886000Y-117362000D02*
X290886000Y-115762000D01*
G75*
G02*
X290936000Y-115712000I50000J0D01*
G01*
X292536000Y-115712000D01*
G75*
G02*
X292586000Y-115762000I0J-50000D01*
G01*
X292586000Y-117362000D01*
G75*
G02*
X292536000Y-117412000I-50000J0D01*
G01*
X290936000Y-117412000D01*
G75*
G02*
X290886000Y-117362000I0J50000D01*
G01*
G37*
G36*
G01*
X296561000Y-117162000D02*
X296561000Y-115962000D01*
G75*
G02*
X296611000Y-115912000I50000J0D01*
G01*
X297811000Y-115912000D01*
G75*
G02*
X297861000Y-115962000I0J-50000D01*
G01*
X297861000Y-117162000D01*
G75*
G02*
X297811000Y-117212000I-50000J0D01*
G01*
X296611000Y-117212000D01*
G75*
G02*
X296561000Y-117162000I0J50000D01*
G01*
G37*
G36*
G01*
X293411000Y-117162000D02*
X293411000Y-115962000D01*
G75*
G02*
X293461000Y-115912000I50000J0D01*
G01*
X294661000Y-115912000D01*
G75*
G02*
X294711000Y-115962000I0J-50000D01*
G01*
X294711000Y-117162000D01*
G75*
G02*
X294661000Y-117212000I-50000J0D01*
G01*
X293461000Y-117212000D01*
G75*
G02*
X293411000Y-117162000I0J50000D01*
G01*
G37*
D11*
X238486000Y-126087000D03*
D14*
X233406000Y-126087000D03*
X243566000Y-126087000D03*
G36*
G01*
X274361000Y-117162000D02*
X274361000Y-115962000D01*
G75*
G02*
X274411000Y-115912000I50000J0D01*
G01*
X275611000Y-115912000D01*
G75*
G02*
X275661000Y-115962000I0J-50000D01*
G01*
X275661000Y-117162000D01*
G75*
G02*
X275611000Y-117212000I-50000J0D01*
G01*
X274411000Y-117212000D01*
G75*
G02*
X274361000Y-117162000I0J50000D01*
G01*
G37*
G36*
G01*
X277511000Y-117162000D02*
X277511000Y-115962000D01*
G75*
G02*
X277561000Y-115912000I50000J0D01*
G01*
X278761000Y-115912000D01*
G75*
G02*
X278811000Y-115962000I0J-50000D01*
G01*
X278811000Y-117162000D01*
G75*
G02*
X278761000Y-117212000I-50000J0D01*
G01*
X277561000Y-117212000D01*
G75*
G02*
X277511000Y-117162000I0J50000D01*
G01*
G37*
G36*
G01*
X271836000Y-117362000D02*
X271836000Y-115762000D01*
G75*
G02*
X271886000Y-115712000I50000J0D01*
G01*
X273486000Y-115712000D01*
G75*
G02*
X273536000Y-115762000I0J-50000D01*
G01*
X273536000Y-117362000D01*
G75*
G02*
X273486000Y-117412000I-50000J0D01*
G01*
X271886000Y-117412000D01*
G75*
G02*
X271836000Y-117362000I0J50000D01*
G01*
G37*
D15*
X280486000Y-116562000D03*
G36*
G01*
X188636000Y-98112000D02*
X188636000Y-96912000D01*
G75*
G02*
X188686000Y-96862000I50000J0D01*
G01*
X189886000Y-96862000D01*
G75*
G02*
X189936000Y-96912000I0J-50000D01*
G01*
X189936000Y-98112000D01*
G75*
G02*
X189886000Y-98162000I-50000J0D01*
G01*
X188686000Y-98162000D01*
G75*
G02*
X188636000Y-98112000I0J50000D01*
G01*
G37*
G36*
G01*
X191786000Y-98112000D02*
X191786000Y-96912000D01*
G75*
G02*
X191836000Y-96862000I50000J0D01*
G01*
X193036000Y-96862000D01*
G75*
G02*
X193086000Y-96912000I0J-50000D01*
G01*
X193086000Y-98112000D01*
G75*
G02*
X193036000Y-98162000I-50000J0D01*
G01*
X191836000Y-98162000D01*
G75*
G02*
X191786000Y-98112000I0J50000D01*
G01*
G37*
G36*
G01*
X186111000Y-98312000D02*
X186111000Y-96712000D01*
G75*
G02*
X186161000Y-96662000I50000J0D01*
G01*
X187761000Y-96662000D01*
G75*
G02*
X187811000Y-96712000I0J-50000D01*
G01*
X187811000Y-98312000D01*
G75*
G02*
X187761000Y-98362000I-50000J0D01*
G01*
X186161000Y-98362000D01*
G75*
G02*
X186111000Y-98312000I0J50000D01*
G01*
G37*
X194761000Y-97512000D03*
D14*
X81641200Y-126087000D03*
X71481200Y-126087000D03*
D11*
X76561200Y-126087000D03*
D15*
X256674000Y-154662000D03*
G36*
G01*
X248024000Y-155462000D02*
X248024000Y-153862000D01*
G75*
G02*
X248074000Y-153812000I50000J0D01*
G01*
X249674000Y-153812000D01*
G75*
G02*
X249724000Y-153862000I0J-50000D01*
G01*
X249724000Y-155462000D01*
G75*
G02*
X249674000Y-155512000I-50000J0D01*
G01*
X248074000Y-155512000D01*
G75*
G02*
X248024000Y-155462000I0J50000D01*
G01*
G37*
G36*
G01*
X253699000Y-155262000D02*
X253699000Y-154062000D01*
G75*
G02*
X253749000Y-154012000I50000J0D01*
G01*
X254949000Y-154012000D01*
G75*
G02*
X254999000Y-154062000I0J-50000D01*
G01*
X254999000Y-155262000D01*
G75*
G02*
X254949000Y-155312000I-50000J0D01*
G01*
X253749000Y-155312000D01*
G75*
G02*
X253699000Y-155262000I0J50000D01*
G01*
G37*
G36*
G01*
X250549000Y-155262000D02*
X250549000Y-154062000D01*
G75*
G02*
X250599000Y-154012000I50000J0D01*
G01*
X251799000Y-154012000D01*
G75*
G02*
X251849000Y-154062000I0J-50000D01*
G01*
X251849000Y-155262000D01*
G75*
G02*
X251799000Y-155312000I-50000J0D01*
G01*
X250599000Y-155312000D01*
G75*
G02*
X250549000Y-155262000I0J50000D01*
G01*
G37*
X168524000Y-173712000D03*
G36*
G01*
X159874000Y-174512000D02*
X159874000Y-172912000D01*
G75*
G02*
X159924000Y-172862000I50000J0D01*
G01*
X161524000Y-172862000D01*
G75*
G02*
X161574000Y-172912000I0J-50000D01*
G01*
X161574000Y-174512000D01*
G75*
G02*
X161524000Y-174562000I-50000J0D01*
G01*
X159924000Y-174562000D01*
G75*
G02*
X159874000Y-174512000I0J50000D01*
G01*
G37*
G36*
G01*
X165549000Y-174312000D02*
X165549000Y-173112000D01*
G75*
G02*
X165599000Y-173062000I50000J0D01*
G01*
X166799000Y-173062000D01*
G75*
G02*
X166849000Y-173112000I0J-50000D01*
G01*
X166849000Y-174312000D01*
G75*
G02*
X166799000Y-174362000I-50000J0D01*
G01*
X165599000Y-174362000D01*
G75*
G02*
X165549000Y-174312000I0J50000D01*
G01*
G37*
G36*
G01*
X162399000Y-174312000D02*
X162399000Y-173112000D01*
G75*
G02*
X162449000Y-173062000I50000J0D01*
G01*
X163649000Y-173062000D01*
G75*
G02*
X163699000Y-173112000I0J-50000D01*
G01*
X163699000Y-174312000D01*
G75*
G02*
X163649000Y-174362000I-50000J0D01*
G01*
X162449000Y-174362000D01*
G75*
G02*
X162399000Y-174312000I0J50000D01*
G01*
G37*
D11*
X76561200Y-107037000D03*
D14*
X71481200Y-107037000D03*
X81641200Y-107037000D03*
D15*
X311399000Y-173712000D03*
G36*
G01*
X302749000Y-174512000D02*
X302749000Y-172912000D01*
G75*
G02*
X302799000Y-172862000I50000J0D01*
G01*
X304399000Y-172862000D01*
G75*
G02*
X304449000Y-172912000I0J-50000D01*
G01*
X304449000Y-174512000D01*
G75*
G02*
X304399000Y-174562000I-50000J0D01*
G01*
X302799000Y-174562000D01*
G75*
G02*
X302749000Y-174512000I0J50000D01*
G01*
G37*
G36*
G01*
X308424000Y-174312000D02*
X308424000Y-173112000D01*
G75*
G02*
X308474000Y-173062000I50000J0D01*
G01*
X309674000Y-173062000D01*
G75*
G02*
X309724000Y-173112000I0J-50000D01*
G01*
X309724000Y-174312000D01*
G75*
G02*
X309674000Y-174362000I-50000J0D01*
G01*
X308474000Y-174362000D01*
G75*
G02*
X308424000Y-174312000I0J50000D01*
G01*
G37*
G36*
G01*
X305274000Y-174312000D02*
X305274000Y-173112000D01*
G75*
G02*
X305324000Y-173062000I50000J0D01*
G01*
X306524000Y-173062000D01*
G75*
G02*
X306574000Y-173112000I0J-50000D01*
G01*
X306574000Y-174312000D01*
G75*
G02*
X306524000Y-174362000I-50000J0D01*
G01*
X305324000Y-174362000D01*
G75*
G02*
X305274000Y-174312000I0J50000D01*
G01*
G37*
G36*
G01*
X298173000Y-136212000D02*
X298173000Y-135012000D01*
G75*
G02*
X298223000Y-134962000I50000J0D01*
G01*
X299423000Y-134962000D01*
G75*
G02*
X299473000Y-135012000I0J-50000D01*
G01*
X299473000Y-136212000D01*
G75*
G02*
X299423000Y-136262000I-50000J0D01*
G01*
X298223000Y-136262000D01*
G75*
G02*
X298173000Y-136212000I0J50000D01*
G01*
G37*
G36*
G01*
X301323000Y-136212000D02*
X301323000Y-135012000D01*
G75*
G02*
X301373000Y-134962000I50000J0D01*
G01*
X302573000Y-134962000D01*
G75*
G02*
X302623000Y-135012000I0J-50000D01*
G01*
X302623000Y-136212000D01*
G75*
G02*
X302573000Y-136262000I-50000J0D01*
G01*
X301373000Y-136262000D01*
G75*
G02*
X301323000Y-136212000I0J50000D01*
G01*
G37*
G36*
G01*
X295648000Y-136412000D02*
X295648000Y-134812000D01*
G75*
G02*
X295698000Y-134762000I50000J0D01*
G01*
X297298000Y-134762000D01*
G75*
G02*
X297348000Y-134812000I0J-50000D01*
G01*
X297348000Y-136412000D01*
G75*
G02*
X297298000Y-136462000I-50000J0D01*
G01*
X295698000Y-136462000D01*
G75*
G02*
X295648000Y-136412000I0J50000D01*
G01*
G37*
X304298000Y-135612000D03*
D14*
X100691200Y-107037000D03*
X90531200Y-107037000D03*
D11*
X95611200Y-107037000D03*
D14*
X62591200Y-107037000D03*
X52431200Y-107037000D03*
D11*
X57511200Y-107037000D03*
G36*
G01*
X45717500Y-174312000D02*
X45717500Y-173112000D01*
G75*
G02*
X45767500Y-173062000I50000J0D01*
G01*
X46967500Y-173062000D01*
G75*
G02*
X47017500Y-173112000I0J-50000D01*
G01*
X47017500Y-174312000D01*
G75*
G02*
X46967500Y-174362000I-50000J0D01*
G01*
X45767500Y-174362000D01*
G75*
G02*
X45717500Y-174312000I0J50000D01*
G01*
G37*
G36*
G01*
X48867500Y-174312000D02*
X48867500Y-173112000D01*
G75*
G02*
X48917500Y-173062000I50000J0D01*
G01*
X50117500Y-173062000D01*
G75*
G02*
X50167500Y-173112000I0J-50000D01*
G01*
X50167500Y-174312000D01*
G75*
G02*
X50117500Y-174362000I-50000J0D01*
G01*
X48917500Y-174362000D01*
G75*
G02*
X48867500Y-174312000I0J50000D01*
G01*
G37*
G36*
G01*
X43192500Y-174512000D02*
X43192500Y-172912000D01*
G75*
G02*
X43242500Y-172862000I50000J0D01*
G01*
X44842500Y-172862000D01*
G75*
G02*
X44892500Y-172912000I0J-50000D01*
G01*
X44892500Y-174512000D01*
G75*
G02*
X44842500Y-174562000I-50000J0D01*
G01*
X43242500Y-174562000D01*
G75*
G02*
X43192500Y-174512000I0J50000D01*
G01*
G37*
D15*
X51842500Y-173712000D03*
D11*
X152761000Y-107037000D03*
D14*
X147681000Y-107037000D03*
X157841000Y-107037000D03*
D11*
X119424000Y-126087000D03*
D14*
X114344000Y-126087000D03*
X124504000Y-126087000D03*
D15*
X239961000Y-173712000D03*
G36*
G01*
X231311000Y-174512000D02*
X231311000Y-172912000D01*
G75*
G02*
X231361000Y-172862000I50000J0D01*
G01*
X232961000Y-172862000D01*
G75*
G02*
X233011000Y-172912000I0J-50000D01*
G01*
X233011000Y-174512000D01*
G75*
G02*
X232961000Y-174562000I-50000J0D01*
G01*
X231361000Y-174562000D01*
G75*
G02*
X231311000Y-174512000I0J50000D01*
G01*
G37*
G36*
G01*
X236986000Y-174312000D02*
X236986000Y-173112000D01*
G75*
G02*
X237036000Y-173062000I50000J0D01*
G01*
X238236000Y-173062000D01*
G75*
G02*
X238286000Y-173112000I0J-50000D01*
G01*
X238286000Y-174312000D01*
G75*
G02*
X238236000Y-174362000I-50000J0D01*
G01*
X237036000Y-174362000D01*
G75*
G02*
X236986000Y-174312000I0J50000D01*
G01*
G37*
G36*
G01*
X233836000Y-174312000D02*
X233836000Y-173112000D01*
G75*
G02*
X233886000Y-173062000I50000J0D01*
G01*
X235086000Y-173062000D01*
G75*
G02*
X235136000Y-173112000I0J-50000D01*
G01*
X235136000Y-174312000D01*
G75*
G02*
X235086000Y-174362000I-50000J0D01*
G01*
X233886000Y-174362000D01*
G75*
G02*
X233836000Y-174312000I0J50000D01*
G01*
G37*
D14*
X295954000Y-164187000D03*
X285794000Y-164187000D03*
D11*
X290874000Y-164187000D03*
D15*
X175711000Y-97512000D03*
G36*
G01*
X167061000Y-98312000D02*
X167061000Y-96712000D01*
G75*
G02*
X167111000Y-96662000I50000J0D01*
G01*
X168711000Y-96662000D01*
G75*
G02*
X168761000Y-96712000I0J-50000D01*
G01*
X168761000Y-98312000D01*
G75*
G02*
X168711000Y-98362000I-50000J0D01*
G01*
X167111000Y-98362000D01*
G75*
G02*
X167061000Y-98312000I0J50000D01*
G01*
G37*
G36*
G01*
X172736000Y-98112000D02*
X172736000Y-96912000D01*
G75*
G02*
X172786000Y-96862000I50000J0D01*
G01*
X173986000Y-96862000D01*
G75*
G02*
X174036000Y-96912000I0J-50000D01*
G01*
X174036000Y-98112000D01*
G75*
G02*
X173986000Y-98162000I-50000J0D01*
G01*
X172786000Y-98162000D01*
G75*
G02*
X172736000Y-98112000I0J50000D01*
G01*
G37*
G36*
G01*
X169586000Y-98112000D02*
X169586000Y-96912000D01*
G75*
G02*
X169636000Y-96862000I50000J0D01*
G01*
X170836000Y-96862000D01*
G75*
G02*
X170886000Y-96912000I0J-50000D01*
G01*
X170886000Y-98112000D01*
G75*
G02*
X170836000Y-98162000I-50000J0D01*
G01*
X169636000Y-98162000D01*
G75*
G02*
X169586000Y-98112000I0J50000D01*
G01*
G37*
G36*
G01*
X217211000Y-117162000D02*
X217211000Y-115962000D01*
G75*
G02*
X217261000Y-115912000I50000J0D01*
G01*
X218461000Y-115912000D01*
G75*
G02*
X218511000Y-115962000I0J-50000D01*
G01*
X218511000Y-117162000D01*
G75*
G02*
X218461000Y-117212000I-50000J0D01*
G01*
X217261000Y-117212000D01*
G75*
G02*
X217211000Y-117162000I0J50000D01*
G01*
G37*
G36*
G01*
X220361000Y-117162000D02*
X220361000Y-115962000D01*
G75*
G02*
X220411000Y-115912000I50000J0D01*
G01*
X221611000Y-115912000D01*
G75*
G02*
X221661000Y-115962000I0J-50000D01*
G01*
X221661000Y-117162000D01*
G75*
G02*
X221611000Y-117212000I-50000J0D01*
G01*
X220411000Y-117212000D01*
G75*
G02*
X220361000Y-117162000I0J50000D01*
G01*
G37*
G36*
G01*
X214686000Y-117362000D02*
X214686000Y-115762000D01*
G75*
G02*
X214736000Y-115712000I50000J0D01*
G01*
X216336000Y-115712000D01*
G75*
G02*
X216386000Y-115762000I0J-50000D01*
G01*
X216386000Y-117362000D01*
G75*
G02*
X216336000Y-117412000I-50000J0D01*
G01*
X214736000Y-117412000D01*
G75*
G02*
X214686000Y-117362000I0J50000D01*
G01*
G37*
X223336000Y-116562000D03*
G36*
G01*
X264836000Y-98112000D02*
X264836000Y-96912000D01*
G75*
G02*
X264886000Y-96862000I50000J0D01*
G01*
X266086000Y-96862000D01*
G75*
G02*
X266136000Y-96912000I0J-50000D01*
G01*
X266136000Y-98112000D01*
G75*
G02*
X266086000Y-98162000I-50000J0D01*
G01*
X264886000Y-98162000D01*
G75*
G02*
X264836000Y-98112000I0J50000D01*
G01*
G37*
G36*
G01*
X267986000Y-98112000D02*
X267986000Y-96912000D01*
G75*
G02*
X268036000Y-96862000I50000J0D01*
G01*
X269236000Y-96862000D01*
G75*
G02*
X269286000Y-96912000I0J-50000D01*
G01*
X269286000Y-98112000D01*
G75*
G02*
X269236000Y-98162000I-50000J0D01*
G01*
X268036000Y-98162000D01*
G75*
G02*
X267986000Y-98112000I0J50000D01*
G01*
G37*
G36*
G01*
X262311000Y-98312000D02*
X262311000Y-96712000D01*
G75*
G02*
X262361000Y-96662000I50000J0D01*
G01*
X263961000Y-96662000D01*
G75*
G02*
X264011000Y-96712000I0J-50000D01*
G01*
X264011000Y-98312000D01*
G75*
G02*
X263961000Y-98362000I-50000J0D01*
G01*
X262361000Y-98362000D01*
G75*
G02*
X262311000Y-98312000I0J50000D01*
G01*
G37*
X270961000Y-97512000D03*
D11*
X267061000Y-107037000D03*
D14*
X261981000Y-107037000D03*
X272141000Y-107037000D03*
G36*
G01*
X288649000Y-155262000D02*
X288649000Y-154062000D01*
G75*
G02*
X288699000Y-154012000I50000J0D01*
G01*
X289899000Y-154012000D01*
G75*
G02*
X289949000Y-154062000I0J-50000D01*
G01*
X289949000Y-155262000D01*
G75*
G02*
X289899000Y-155312000I-50000J0D01*
G01*
X288699000Y-155312000D01*
G75*
G02*
X288649000Y-155262000I0J50000D01*
G01*
G37*
G36*
G01*
X291799000Y-155262000D02*
X291799000Y-154062000D01*
G75*
G02*
X291849000Y-154012000I50000J0D01*
G01*
X293049000Y-154012000D01*
G75*
G02*
X293099000Y-154062000I0J-50000D01*
G01*
X293099000Y-155262000D01*
G75*
G02*
X293049000Y-155312000I-50000J0D01*
G01*
X291849000Y-155312000D01*
G75*
G02*
X291799000Y-155262000I0J50000D01*
G01*
G37*
G36*
G01*
X286124000Y-155462000D02*
X286124000Y-153862000D01*
G75*
G02*
X286174000Y-153812000I50000J0D01*
G01*
X287774000Y-153812000D01*
G75*
G02*
X287824000Y-153862000I0J-50000D01*
G01*
X287824000Y-155462000D01*
G75*
G02*
X287774000Y-155512000I-50000J0D01*
G01*
X286174000Y-155512000D01*
G75*
G02*
X286124000Y-155462000I0J50000D01*
G01*
G37*
D15*
X294774000Y-154662000D03*
X137611000Y-97512000D03*
G36*
G01*
X128961000Y-98312000D02*
X128961000Y-96712000D01*
G75*
G02*
X129011000Y-96662000I50000J0D01*
G01*
X130611000Y-96662000D01*
G75*
G02*
X130661000Y-96712000I0J-50000D01*
G01*
X130661000Y-98312000D01*
G75*
G02*
X130611000Y-98362000I-50000J0D01*
G01*
X129011000Y-98362000D01*
G75*
G02*
X128961000Y-98312000I0J50000D01*
G01*
G37*
G36*
G01*
X134636000Y-98112000D02*
X134636000Y-96912000D01*
G75*
G02*
X134686000Y-96862000I50000J0D01*
G01*
X135886000Y-96862000D01*
G75*
G02*
X135936000Y-96912000I0J-50000D01*
G01*
X135936000Y-98112000D01*
G75*
G02*
X135886000Y-98162000I-50000J0D01*
G01*
X134686000Y-98162000D01*
G75*
G02*
X134636000Y-98112000I0J50000D01*
G01*
G37*
G36*
G01*
X131486000Y-98112000D02*
X131486000Y-96912000D01*
G75*
G02*
X131536000Y-96862000I50000J0D01*
G01*
X132736000Y-96862000D01*
G75*
G02*
X132786000Y-96912000I0J-50000D01*
G01*
X132786000Y-98112000D01*
G75*
G02*
X132736000Y-98162000I-50000J0D01*
G01*
X131536000Y-98162000D01*
G75*
G02*
X131486000Y-98112000I0J50000D01*
G01*
G37*
X209048000Y-135612000D03*
G36*
G01*
X200398000Y-136412000D02*
X200398000Y-134812000D01*
G75*
G02*
X200448000Y-134762000I50000J0D01*
G01*
X202048000Y-134762000D01*
G75*
G02*
X202098000Y-134812000I0J-50000D01*
G01*
X202098000Y-136412000D01*
G75*
G02*
X202048000Y-136462000I-50000J0D01*
G01*
X200448000Y-136462000D01*
G75*
G02*
X200398000Y-136412000I0J50000D01*
G01*
G37*
G36*
G01*
X206073000Y-136212000D02*
X206073000Y-135012000D01*
G75*
G02*
X206123000Y-134962000I50000J0D01*
G01*
X207323000Y-134962000D01*
G75*
G02*
X207373000Y-135012000I0J-50000D01*
G01*
X207373000Y-136212000D01*
G75*
G02*
X207323000Y-136262000I-50000J0D01*
G01*
X206123000Y-136262000D01*
G75*
G02*
X206073000Y-136212000I0J50000D01*
G01*
G37*
G36*
G01*
X202923000Y-136212000D02*
X202923000Y-135012000D01*
G75*
G02*
X202973000Y-134962000I50000J0D01*
G01*
X204173000Y-134962000D01*
G75*
G02*
X204223000Y-135012000I0J-50000D01*
G01*
X204223000Y-136212000D01*
G75*
G02*
X204173000Y-136262000I-50000J0D01*
G01*
X202973000Y-136262000D01*
G75*
G02*
X202923000Y-136212000I0J50000D01*
G01*
G37*
D11*
X295636000Y-126087000D03*
D14*
X290556000Y-126087000D03*
X300716000Y-126087000D03*
X229278000Y-145137000D03*
X219118000Y-145137000D03*
D11*
X224198000Y-145137000D03*
D15*
X247148000Y-135612000D03*
G36*
G01*
X238498000Y-136412000D02*
X238498000Y-134812000D01*
G75*
G02*
X238548000Y-134762000I50000J0D01*
G01*
X240148000Y-134762000D01*
G75*
G02*
X240198000Y-134812000I0J-50000D01*
G01*
X240198000Y-136412000D01*
G75*
G02*
X240148000Y-136462000I-50000J0D01*
G01*
X238548000Y-136462000D01*
G75*
G02*
X238498000Y-136412000I0J50000D01*
G01*
G37*
G36*
G01*
X244173000Y-136212000D02*
X244173000Y-135012000D01*
G75*
G02*
X244223000Y-134962000I50000J0D01*
G01*
X245423000Y-134962000D01*
G75*
G02*
X245473000Y-135012000I0J-50000D01*
G01*
X245473000Y-136212000D01*
G75*
G02*
X245423000Y-136262000I-50000J0D01*
G01*
X244223000Y-136262000D01*
G75*
G02*
X244173000Y-136212000I0J50000D01*
G01*
G37*
G36*
G01*
X241023000Y-136212000D02*
X241023000Y-135012000D01*
G75*
G02*
X241073000Y-134962000I50000J0D01*
G01*
X242273000Y-134962000D01*
G75*
G02*
X242323000Y-135012000I0J-50000D01*
G01*
X242323000Y-136212000D01*
G75*
G02*
X242273000Y-136262000I-50000J0D01*
G01*
X241073000Y-136262000D01*
G75*
G02*
X241023000Y-136212000I0J50000D01*
G01*
G37*
D14*
X360247000Y-183237000D03*
X350087000Y-183237000D03*
D11*
X355167000Y-183237000D03*
D14*
X338816000Y-126087000D03*
X328656000Y-126087000D03*
D11*
X333736000Y-126087000D03*
D14*
X348341000Y-107037000D03*
X338181000Y-107037000D03*
D11*
X343261000Y-107037000D03*
D14*
X267378000Y-145137000D03*
X257218000Y-145137000D03*
D11*
X262298000Y-145137000D03*
X314686000Y-126087000D03*
D14*
X309606000Y-126087000D03*
X319766000Y-126087000D03*
D11*
X371836000Y-107037000D03*
D14*
X366756000Y-107037000D03*
X376916000Y-107037000D03*
D12*
X359898000Y-100052000D03*
X383774000Y-100052000D03*
D11*
X359898000Y-115292000D03*
X383774000Y-115292000D03*
G36*
G01*
X336273000Y-136212000D02*
X336273000Y-135012000D01*
G75*
G02*
X336323000Y-134962000I50000J0D01*
G01*
X337523000Y-134962000D01*
G75*
G02*
X337573000Y-135012000I0J-50000D01*
G01*
X337573000Y-136212000D01*
G75*
G02*
X337523000Y-136262000I-50000J0D01*
G01*
X336323000Y-136262000D01*
G75*
G02*
X336273000Y-136212000I0J50000D01*
G01*
G37*
G36*
G01*
X339423000Y-136212000D02*
X339423000Y-135012000D01*
G75*
G02*
X339473000Y-134962000I50000J0D01*
G01*
X340673000Y-134962000D01*
G75*
G02*
X340723000Y-135012000I0J-50000D01*
G01*
X340723000Y-136212000D01*
G75*
G02*
X340673000Y-136262000I-50000J0D01*
G01*
X339473000Y-136262000D01*
G75*
G02*
X339423000Y-136212000I0J50000D01*
G01*
G37*
G36*
G01*
X333748000Y-136412000D02*
X333748000Y-134812000D01*
G75*
G02*
X333798000Y-134762000I50000J0D01*
G01*
X335398000Y-134762000D01*
G75*
G02*
X335448000Y-134812000I0J-50000D01*
G01*
X335448000Y-136412000D01*
G75*
G02*
X335398000Y-136462000I-50000J0D01*
G01*
X333798000Y-136462000D01*
G75*
G02*
X333748000Y-136412000I0J50000D01*
G01*
G37*
D15*
X342398000Y-135612000D03*
G36*
G01*
X226736000Y-98112000D02*
X226736000Y-96912000D01*
G75*
G02*
X226786000Y-96862000I50000J0D01*
G01*
X227986000Y-96862000D01*
G75*
G02*
X228036000Y-96912000I0J-50000D01*
G01*
X228036000Y-98112000D01*
G75*
G02*
X227986000Y-98162000I-50000J0D01*
G01*
X226786000Y-98162000D01*
G75*
G02*
X226736000Y-98112000I0J50000D01*
G01*
G37*
G36*
G01*
X229886000Y-98112000D02*
X229886000Y-96912000D01*
G75*
G02*
X229936000Y-96862000I50000J0D01*
G01*
X231136000Y-96862000D01*
G75*
G02*
X231186000Y-96912000I0J-50000D01*
G01*
X231186000Y-98112000D01*
G75*
G02*
X231136000Y-98162000I-50000J0D01*
G01*
X229936000Y-98162000D01*
G75*
G02*
X229886000Y-98112000I0J50000D01*
G01*
G37*
G36*
G01*
X224211000Y-98312000D02*
X224211000Y-96712000D01*
G75*
G02*
X224261000Y-96662000I50000J0D01*
G01*
X225861000Y-96662000D01*
G75*
G02*
X225911000Y-96712000I0J-50000D01*
G01*
X225911000Y-98312000D01*
G75*
G02*
X225861000Y-98362000I-50000J0D01*
G01*
X224261000Y-98362000D01*
G75*
G02*
X224211000Y-98312000I0J50000D01*
G01*
G37*
X232861000Y-97512000D03*
X237624000Y-154662000D03*
G36*
G01*
X228974000Y-155462000D02*
X228974000Y-153862000D01*
G75*
G02*
X229024000Y-153812000I50000J0D01*
G01*
X230624000Y-153812000D01*
G75*
G02*
X230674000Y-153862000I0J-50000D01*
G01*
X230674000Y-155462000D01*
G75*
G02*
X230624000Y-155512000I-50000J0D01*
G01*
X229024000Y-155512000D01*
G75*
G02*
X228974000Y-155462000I0J50000D01*
G01*
G37*
G36*
G01*
X234649000Y-155262000D02*
X234649000Y-154062000D01*
G75*
G02*
X234699000Y-154012000I50000J0D01*
G01*
X235899000Y-154012000D01*
G75*
G02*
X235949000Y-154062000I0J-50000D01*
G01*
X235949000Y-155262000D01*
G75*
G02*
X235899000Y-155312000I-50000J0D01*
G01*
X234699000Y-155312000D01*
G75*
G02*
X234649000Y-155262000I0J50000D01*
G01*
G37*
G36*
G01*
X231499000Y-155262000D02*
X231499000Y-154062000D01*
G75*
G02*
X231549000Y-154012000I50000J0D01*
G01*
X232749000Y-154012000D01*
G75*
G02*
X232799000Y-154062000I0J-50000D01*
G01*
X232799000Y-155262000D01*
G75*
G02*
X232749000Y-155312000I-50000J0D01*
G01*
X231549000Y-155312000D01*
G75*
G02*
X231499000Y-155262000I0J50000D01*
G01*
G37*
G36*
G01*
X236261000Y-117162000D02*
X236261000Y-115962000D01*
G75*
G02*
X236311000Y-115912000I50000J0D01*
G01*
X237511000Y-115912000D01*
G75*
G02*
X237561000Y-115962000I0J-50000D01*
G01*
X237561000Y-117162000D01*
G75*
G02*
X237511000Y-117212000I-50000J0D01*
G01*
X236311000Y-117212000D01*
G75*
G02*
X236261000Y-117162000I0J50000D01*
G01*
G37*
G36*
G01*
X239411000Y-117162000D02*
X239411000Y-115962000D01*
G75*
G02*
X239461000Y-115912000I50000J0D01*
G01*
X240661000Y-115912000D01*
G75*
G02*
X240711000Y-115962000I0J-50000D01*
G01*
X240711000Y-117162000D01*
G75*
G02*
X240661000Y-117212000I-50000J0D01*
G01*
X239461000Y-117212000D01*
G75*
G02*
X239411000Y-117162000I0J50000D01*
G01*
G37*
G36*
G01*
X233736000Y-117362000D02*
X233736000Y-115762000D01*
G75*
G02*
X233786000Y-115712000I50000J0D01*
G01*
X235386000Y-115712000D01*
G75*
G02*
X235436000Y-115762000I0J-50000D01*
G01*
X235436000Y-117362000D01*
G75*
G02*
X235386000Y-117412000I-50000J0D01*
G01*
X233786000Y-117412000D01*
G75*
G02*
X233736000Y-117362000I0J50000D01*
G01*
G37*
X242386000Y-116562000D03*
G36*
G01*
X74336200Y-155262000D02*
X74336200Y-154062000D01*
G75*
G02*
X74386200Y-154012000I50000J0D01*
G01*
X75586200Y-154012000D01*
G75*
G02*
X75636200Y-154062000I0J-50000D01*
G01*
X75636200Y-155262000D01*
G75*
G02*
X75586200Y-155312000I-50000J0D01*
G01*
X74386200Y-155312000D01*
G75*
G02*
X74336200Y-155262000I0J50000D01*
G01*
G37*
G36*
G01*
X77486200Y-155262000D02*
X77486200Y-154062000D01*
G75*
G02*
X77536200Y-154012000I50000J0D01*
G01*
X78736200Y-154012000D01*
G75*
G02*
X78786200Y-154062000I0J-50000D01*
G01*
X78786200Y-155262000D01*
G75*
G02*
X78736200Y-155312000I-50000J0D01*
G01*
X77536200Y-155312000D01*
G75*
G02*
X77486200Y-155262000I0J50000D01*
G01*
G37*
G36*
G01*
X71811200Y-155462000D02*
X71811200Y-153862000D01*
G75*
G02*
X71861200Y-153812000I50000J0D01*
G01*
X73461200Y-153812000D01*
G75*
G02*
X73511200Y-153862000I0J-50000D01*
G01*
X73511200Y-155462000D01*
G75*
G02*
X73461200Y-155512000I-50000J0D01*
G01*
X71861200Y-155512000D01*
G75*
G02*
X71811200Y-155462000I0J50000D01*
G01*
G37*
X80461200Y-154662000D03*
G36*
G01*
X124786000Y-109262000D02*
X123586000Y-109262000D01*
G75*
G02*
X123536000Y-109212000I0J50000D01*
G01*
X123536000Y-108012000D01*
G75*
G02*
X123586000Y-107962000I50000J0D01*
G01*
X124786000Y-107962000D01*
G75*
G02*
X124836000Y-108012000I0J-50000D01*
G01*
X124836000Y-109212000D01*
G75*
G02*
X124786000Y-109262000I-50000J0D01*
G01*
G37*
G36*
G01*
X124786000Y-106112000D02*
X123586000Y-106112000D01*
G75*
G02*
X123536000Y-106062000I0J50000D01*
G01*
X123536000Y-104862000D01*
G75*
G02*
X123586000Y-104812000I50000J0D01*
G01*
X124786000Y-104812000D01*
G75*
G02*
X124836000Y-104862000I0J-50000D01*
G01*
X124836000Y-106062000D01*
G75*
G02*
X124786000Y-106112000I-50000J0D01*
G01*
G37*
G36*
G01*
X124986000Y-111787000D02*
X123386000Y-111787000D01*
G75*
G02*
X123336000Y-111737000I0J50000D01*
G01*
X123336000Y-110137000D01*
G75*
G02*
X123386000Y-110087000I50000J0D01*
G01*
X124986000Y-110087000D01*
G75*
G02*
X125036000Y-110137000I0J-50000D01*
G01*
X125036000Y-111737000D01*
G75*
G02*
X124986000Y-111787000I-50000J0D01*
G01*
G37*
X124186000Y-103137000D03*
G36*
G01*
X183873000Y-136212000D02*
X183873000Y-135012000D01*
G75*
G02*
X183923000Y-134962000I50000J0D01*
G01*
X185123000Y-134962000D01*
G75*
G02*
X185173000Y-135012000I0J-50000D01*
G01*
X185173000Y-136212000D01*
G75*
G02*
X185123000Y-136262000I-50000J0D01*
G01*
X183923000Y-136262000D01*
G75*
G02*
X183873000Y-136212000I0J50000D01*
G01*
G37*
G36*
G01*
X187023000Y-136212000D02*
X187023000Y-135012000D01*
G75*
G02*
X187073000Y-134962000I50000J0D01*
G01*
X188273000Y-134962000D01*
G75*
G02*
X188323000Y-135012000I0J-50000D01*
G01*
X188323000Y-136212000D01*
G75*
G02*
X188273000Y-136262000I-50000J0D01*
G01*
X187073000Y-136262000D01*
G75*
G02*
X187023000Y-136212000I0J50000D01*
G01*
G37*
G36*
G01*
X181348000Y-136412000D02*
X181348000Y-134812000D01*
G75*
G02*
X181398000Y-134762000I50000J0D01*
G01*
X182998000Y-134762000D01*
G75*
G02*
X183048000Y-134812000I0J-50000D01*
G01*
X183048000Y-136412000D01*
G75*
G02*
X182998000Y-136462000I-50000J0D01*
G01*
X181398000Y-136462000D01*
G75*
G02*
X181348000Y-136412000I0J50000D01*
G01*
G37*
X189998000Y-135612000D03*
G36*
G01*
X144333000Y-174312000D02*
X144333000Y-173112000D01*
G75*
G02*
X144383000Y-173062000I50000J0D01*
G01*
X145583000Y-173062000D01*
G75*
G02*
X145633000Y-173112000I0J-50000D01*
G01*
X145633000Y-174312000D01*
G75*
G02*
X145583000Y-174362000I-50000J0D01*
G01*
X144383000Y-174362000D01*
G75*
G02*
X144333000Y-174312000I0J50000D01*
G01*
G37*
G36*
G01*
X147483000Y-174312000D02*
X147483000Y-173112000D01*
G75*
G02*
X147533000Y-173062000I50000J0D01*
G01*
X148733000Y-173062000D01*
G75*
G02*
X148783000Y-173112000I0J-50000D01*
G01*
X148783000Y-174312000D01*
G75*
G02*
X148733000Y-174362000I-50000J0D01*
G01*
X147533000Y-174362000D01*
G75*
G02*
X147483000Y-174312000I0J50000D01*
G01*
G37*
G36*
G01*
X141808000Y-174512000D02*
X141808000Y-172912000D01*
G75*
G02*
X141858000Y-172862000I50000J0D01*
G01*
X143458000Y-172862000D01*
G75*
G02*
X143508000Y-172912000I0J-50000D01*
G01*
X143508000Y-174512000D01*
G75*
G02*
X143458000Y-174562000I-50000J0D01*
G01*
X141858000Y-174562000D01*
G75*
G02*
X141808000Y-174512000I0J50000D01*
G01*
G37*
X150458000Y-173712000D03*
G36*
G01*
X312461000Y-117162000D02*
X312461000Y-115962000D01*
G75*
G02*
X312511000Y-115912000I50000J0D01*
G01*
X313711000Y-115912000D01*
G75*
G02*
X313761000Y-115962000I0J-50000D01*
G01*
X313761000Y-117162000D01*
G75*
G02*
X313711000Y-117212000I-50000J0D01*
G01*
X312511000Y-117212000D01*
G75*
G02*
X312461000Y-117162000I0J50000D01*
G01*
G37*
G36*
G01*
X315611000Y-117162000D02*
X315611000Y-115962000D01*
G75*
G02*
X315661000Y-115912000I50000J0D01*
G01*
X316861000Y-115912000D01*
G75*
G02*
X316911000Y-115962000I0J-50000D01*
G01*
X316911000Y-117162000D01*
G75*
G02*
X316861000Y-117212000I-50000J0D01*
G01*
X315661000Y-117212000D01*
G75*
G02*
X315611000Y-117162000I0J50000D01*
G01*
G37*
G36*
G01*
X309936000Y-117362000D02*
X309936000Y-115762000D01*
G75*
G02*
X309986000Y-115712000I50000J0D01*
G01*
X311586000Y-115712000D01*
G75*
G02*
X311636000Y-115762000I0J-50000D01*
G01*
X311636000Y-117362000D01*
G75*
G02*
X311586000Y-117412000I-50000J0D01*
G01*
X309986000Y-117412000D01*
G75*
G02*
X309936000Y-117362000I0J50000D01*
G01*
G37*
X318586000Y-116562000D03*
X261436000Y-116562000D03*
G36*
G01*
X252786000Y-117362000D02*
X252786000Y-115762000D01*
G75*
G02*
X252836000Y-115712000I50000J0D01*
G01*
X254436000Y-115712000D01*
G75*
G02*
X254486000Y-115762000I0J-50000D01*
G01*
X254486000Y-117362000D01*
G75*
G02*
X254436000Y-117412000I-50000J0D01*
G01*
X252836000Y-117412000D01*
G75*
G02*
X252786000Y-117362000I0J50000D01*
G01*
G37*
G36*
G01*
X258461000Y-117162000D02*
X258461000Y-115962000D01*
G75*
G02*
X258511000Y-115912000I50000J0D01*
G01*
X259711000Y-115912000D01*
G75*
G02*
X259761000Y-115962000I0J-50000D01*
G01*
X259761000Y-117162000D01*
G75*
G02*
X259711000Y-117212000I-50000J0D01*
G01*
X258511000Y-117212000D01*
G75*
G02*
X258461000Y-117162000I0J50000D01*
G01*
G37*
G36*
G01*
X255311000Y-117162000D02*
X255311000Y-115962000D01*
G75*
G02*
X255361000Y-115912000I50000J0D01*
G01*
X256561000Y-115912000D01*
G75*
G02*
X256611000Y-115962000I0J-50000D01*
G01*
X256611000Y-117162000D01*
G75*
G02*
X256561000Y-117212000I-50000J0D01*
G01*
X255361000Y-117212000D01*
G75*
G02*
X255311000Y-117162000I0J50000D01*
G01*
G37*
D11*
X38461200Y-126087000D03*
D14*
X33381200Y-126087000D03*
X43541200Y-126087000D03*
G36*
G01*
X348180000Y-117162000D02*
X348180000Y-115962000D01*
G75*
G02*
X348230000Y-115912000I50000J0D01*
G01*
X349430000Y-115912000D01*
G75*
G02*
X349480000Y-115962000I0J-50000D01*
G01*
X349480000Y-117162000D01*
G75*
G02*
X349430000Y-117212000I-50000J0D01*
G01*
X348230000Y-117212000D01*
G75*
G02*
X348180000Y-117162000I0J50000D01*
G01*
G37*
G36*
G01*
X351330000Y-117162000D02*
X351330000Y-115962000D01*
G75*
G02*
X351380000Y-115912000I50000J0D01*
G01*
X352580000Y-115912000D01*
G75*
G02*
X352630000Y-115962000I0J-50000D01*
G01*
X352630000Y-117162000D01*
G75*
G02*
X352580000Y-117212000I-50000J0D01*
G01*
X351380000Y-117212000D01*
G75*
G02*
X351330000Y-117162000I0J50000D01*
G01*
G37*
G36*
G01*
X345655000Y-117362000D02*
X345655000Y-115762000D01*
G75*
G02*
X345705000Y-115712000I50000J0D01*
G01*
X347305000Y-115712000D01*
G75*
G02*
X347355000Y-115762000I0J-50000D01*
G01*
X347355000Y-117362000D01*
G75*
G02*
X347305000Y-117412000I-50000J0D01*
G01*
X345705000Y-117412000D01*
G75*
G02*
X345655000Y-117362000I0J50000D01*
G01*
G37*
D15*
X354305000Y-116562000D03*
D14*
X148316000Y-126087000D03*
X138156000Y-126087000D03*
D11*
X143236000Y-126087000D03*
D15*
X147136000Y-116562000D03*
G36*
G01*
X138486000Y-117362000D02*
X138486000Y-115762000D01*
G75*
G02*
X138536000Y-115712000I50000J0D01*
G01*
X140136000Y-115712000D01*
G75*
G02*
X140186000Y-115762000I0J-50000D01*
G01*
X140186000Y-117362000D01*
G75*
G02*
X140136000Y-117412000I-50000J0D01*
G01*
X138536000Y-117412000D01*
G75*
G02*
X138486000Y-117362000I0J50000D01*
G01*
G37*
G36*
G01*
X144161000Y-117162000D02*
X144161000Y-115962000D01*
G75*
G02*
X144211000Y-115912000I50000J0D01*
G01*
X145411000Y-115912000D01*
G75*
G02*
X145461000Y-115962000I0J-50000D01*
G01*
X145461000Y-117162000D01*
G75*
G02*
X145411000Y-117212000I-50000J0D01*
G01*
X144211000Y-117212000D01*
G75*
G02*
X144161000Y-117162000I0J50000D01*
G01*
G37*
G36*
G01*
X141011000Y-117162000D02*
X141011000Y-115962000D01*
G75*
G02*
X141061000Y-115912000I50000J0D01*
G01*
X142261000Y-115912000D01*
G75*
G02*
X142311000Y-115962000I0J-50000D01*
G01*
X142311000Y-117162000D01*
G75*
G02*
X142261000Y-117212000I-50000J0D01*
G01*
X141061000Y-117212000D01*
G75*
G02*
X141011000Y-117162000I0J50000D01*
G01*
G37*
X161424000Y-154662000D03*
G36*
G01*
X152774000Y-155462000D02*
X152774000Y-153862000D01*
G75*
G02*
X152824000Y-153812000I50000J0D01*
G01*
X154424000Y-153812000D01*
G75*
G02*
X154474000Y-153862000I0J-50000D01*
G01*
X154474000Y-155462000D01*
G75*
G02*
X154424000Y-155512000I-50000J0D01*
G01*
X152824000Y-155512000D01*
G75*
G02*
X152774000Y-155462000I0J50000D01*
G01*
G37*
G36*
G01*
X158449000Y-155262000D02*
X158449000Y-154062000D01*
G75*
G02*
X158499000Y-154012000I50000J0D01*
G01*
X159699000Y-154012000D01*
G75*
G02*
X159749000Y-154062000I0J-50000D01*
G01*
X159749000Y-155262000D01*
G75*
G02*
X159699000Y-155312000I-50000J0D01*
G01*
X158499000Y-155312000D01*
G75*
G02*
X158449000Y-155262000I0J50000D01*
G01*
G37*
G36*
G01*
X155299000Y-155262000D02*
X155299000Y-154062000D01*
G75*
G02*
X155349000Y-154012000I50000J0D01*
G01*
X156549000Y-154012000D01*
G75*
G02*
X156599000Y-154062000I0J-50000D01*
G01*
X156599000Y-155262000D01*
G75*
G02*
X156549000Y-155312000I-50000J0D01*
G01*
X155349000Y-155312000D01*
G75*
G02*
X155299000Y-155262000I0J50000D01*
G01*
G37*
G36*
G01*
X145773000Y-136212000D02*
X145773000Y-135012000D01*
G75*
G02*
X145823000Y-134962000I50000J0D01*
G01*
X147023000Y-134962000D01*
G75*
G02*
X147073000Y-135012000I0J-50000D01*
G01*
X147073000Y-136212000D01*
G75*
G02*
X147023000Y-136262000I-50000J0D01*
G01*
X145823000Y-136262000D01*
G75*
G02*
X145773000Y-136212000I0J50000D01*
G01*
G37*
G36*
G01*
X148923000Y-136212000D02*
X148923000Y-135012000D01*
G75*
G02*
X148973000Y-134962000I50000J0D01*
G01*
X150173000Y-134962000D01*
G75*
G02*
X150223000Y-135012000I0J-50000D01*
G01*
X150223000Y-136212000D01*
G75*
G02*
X150173000Y-136262000I-50000J0D01*
G01*
X148973000Y-136262000D01*
G75*
G02*
X148923000Y-136212000I0J50000D01*
G01*
G37*
G36*
G01*
X143248000Y-136412000D02*
X143248000Y-134812000D01*
G75*
G02*
X143298000Y-134762000I50000J0D01*
G01*
X144898000Y-134762000D01*
G75*
G02*
X144948000Y-134812000I0J-50000D01*
G01*
X144948000Y-136412000D01*
G75*
G02*
X144898000Y-136462000I-50000J0D01*
G01*
X143298000Y-136462000D01*
G75*
G02*
X143248000Y-136412000I0J50000D01*
G01*
G37*
X151898000Y-135612000D03*
G36*
G01*
X36236200Y-98112000D02*
X36236200Y-96912000D01*
G75*
G02*
X36286200Y-96862000I50000J0D01*
G01*
X37486200Y-96862000D01*
G75*
G02*
X37536200Y-96912000I0J-50000D01*
G01*
X37536200Y-98112000D01*
G75*
G02*
X37486200Y-98162000I-50000J0D01*
G01*
X36286200Y-98162000D01*
G75*
G02*
X36236200Y-98112000I0J50000D01*
G01*
G37*
G36*
G01*
X39386200Y-98112000D02*
X39386200Y-96912000D01*
G75*
G02*
X39436200Y-96862000I50000J0D01*
G01*
X40636200Y-96862000D01*
G75*
G02*
X40686200Y-96912000I0J-50000D01*
G01*
X40686200Y-98112000D01*
G75*
G02*
X40636200Y-98162000I-50000J0D01*
G01*
X39436200Y-98162000D01*
G75*
G02*
X39386200Y-98112000I0J50000D01*
G01*
G37*
G36*
G01*
X33711200Y-98312000D02*
X33711200Y-96712000D01*
G75*
G02*
X33761200Y-96662000I50000J0D01*
G01*
X35361200Y-96662000D01*
G75*
G02*
X35411200Y-96712000I0J-50000D01*
G01*
X35411200Y-98312000D01*
G75*
G02*
X35361200Y-98362000I-50000J0D01*
G01*
X33761200Y-98362000D01*
G75*
G02*
X33711200Y-98312000I0J50000D01*
G01*
G37*
X42361200Y-97512000D03*
X204286000Y-116562000D03*
G36*
G01*
X195636000Y-117362000D02*
X195636000Y-115762000D01*
G75*
G02*
X195686000Y-115712000I50000J0D01*
G01*
X197286000Y-115712000D01*
G75*
G02*
X197336000Y-115762000I0J-50000D01*
G01*
X197336000Y-117362000D01*
G75*
G02*
X197286000Y-117412000I-50000J0D01*
G01*
X195686000Y-117412000D01*
G75*
G02*
X195636000Y-117362000I0J50000D01*
G01*
G37*
G36*
G01*
X201311000Y-117162000D02*
X201311000Y-115962000D01*
G75*
G02*
X201361000Y-115912000I50000J0D01*
G01*
X202561000Y-115912000D01*
G75*
G02*
X202611000Y-115962000I0J-50000D01*
G01*
X202611000Y-117162000D01*
G75*
G02*
X202561000Y-117212000I-50000J0D01*
G01*
X201361000Y-117212000D01*
G75*
G02*
X201311000Y-117162000I0J50000D01*
G01*
G37*
G36*
G01*
X198161000Y-117162000D02*
X198161000Y-115962000D01*
G75*
G02*
X198211000Y-115912000I50000J0D01*
G01*
X199411000Y-115912000D01*
G75*
G02*
X199461000Y-115962000I0J-50000D01*
G01*
X199461000Y-117162000D01*
G75*
G02*
X199411000Y-117212000I-50000J0D01*
G01*
X198211000Y-117212000D01*
G75*
G02*
X198161000Y-117162000I0J50000D01*
G01*
G37*
D11*
X38461200Y-107037000D03*
D14*
X33381200Y-107037000D03*
X43541200Y-107037000D03*
G36*
G01*
X389061000Y-184755800D02*
X387861000Y-184755800D01*
G75*
G02*
X387811000Y-184705800I0J50000D01*
G01*
X387811000Y-183505800D01*
G75*
G02*
X387861000Y-183455800I50000J0D01*
G01*
X389061000Y-183455800D01*
G75*
G02*
X389111000Y-183505800I0J-50000D01*
G01*
X389111000Y-184705800D01*
G75*
G02*
X389061000Y-184755800I-50000J0D01*
G01*
G37*
G36*
G01*
X389061000Y-181605800D02*
X387861000Y-181605800D01*
G75*
G02*
X387811000Y-181555800I0J50000D01*
G01*
X387811000Y-180355800D01*
G75*
G02*
X387861000Y-180305800I50000J0D01*
G01*
X389061000Y-180305800D01*
G75*
G02*
X389111000Y-180355800I0J-50000D01*
G01*
X389111000Y-181555800D01*
G75*
G02*
X389061000Y-181605800I-50000J0D01*
G01*
G37*
G36*
G01*
X389261000Y-187280800D02*
X387661000Y-187280800D01*
G75*
G02*
X387611000Y-187230800I0J50000D01*
G01*
X387611000Y-185630800D01*
G75*
G02*
X387661000Y-185580800I50000J0D01*
G01*
X389261000Y-185580800D01*
G75*
G02*
X389311000Y-185630800I0J-50000D01*
G01*
X389311000Y-187230800D01*
G75*
G02*
X389261000Y-187280800I-50000J0D01*
G01*
G37*
D15*
X388461000Y-178630800D03*
D14*
X362585000Y-145137000D03*
X352425000Y-145137000D03*
D11*
X357505000Y-145137000D03*
X116999000Y-164187000D03*
D14*
X111919000Y-164187000D03*
X122079000Y-164187000D03*
D11*
X328930000Y-164187000D03*
D14*
X323850000Y-164187000D03*
X334010000Y-164187000D03*
D11*
X364655000Y-164187000D03*
D14*
X359575000Y-164187000D03*
X369735000Y-164187000D03*
D12*
X352717000Y-157202000D03*
X376593000Y-157202000D03*
D11*
X352717000Y-172442000D03*
X376593000Y-172442000D03*
X47942500Y-183237000D03*
D14*
X42862500Y-183237000D03*
X53022500Y-183237000D03*
D12*
X36004500Y-176252000D03*
X59880500Y-176252000D03*
D11*
X36004500Y-191492000D03*
X59880500Y-191492000D03*
X76517500Y-183237000D03*
D14*
X71437500Y-183237000D03*
X81597500Y-183237000D03*
D11*
X164624000Y-183237000D03*
D14*
X159544000Y-183237000D03*
X169704000Y-183237000D03*
D11*
X236065000Y-183237000D03*
D14*
X230985000Y-183237000D03*
X241145000Y-183237000D03*
D12*
X186065100Y-176252000D03*
X286064900Y-176252000D03*
D11*
X186065100Y-191492000D03*
X286064900Y-191492000D03*
D14*
X384025000Y-183237000D03*
X373865000Y-183237000D03*
D11*
X378945000Y-183237000D03*
M02*
