%TF.GenerationSoftware,KiCad,Pcbnew,5.1.10-88a1d61d58~88~ubuntu21.04.1*%
%TF.CreationDate,2021-06-04T00:06:50+02:00*%
%TF.ProjectId,southpawcase,736f7574-6870-4617-9763-6173652e6b69,rev?*%
%TF.SameCoordinates,Original*%
%TF.FileFunction,Profile,NP*%
%FSLAX46Y46*%
G04 Gerber Fmt 4.6, Leading zero omitted, Abs format (unit mm)*
G04 Created by KiCad (PCBNEW 5.1.10-88a1d61d58~88~ubuntu21.04.1) date 2021-06-04 00:06:50*
%MOMM*%
%LPD*%
G01*
G04 APERTURE LIST*
%TA.AperFunction,Profile*%
%ADD10C,0.050000*%
%TD*%
G04 APERTURE END LIST*
D10*
X27687000Y-94428000D02*
G75*
G03*
X27687000Y-94428000I-950000J0D01*
G01*
X27687000Y-196078000D02*
G75*
G03*
X27687000Y-196078000I-950000J0D01*
G01*
X211987000Y-94428000D02*
G75*
G03*
X211987000Y-94428000I-950000J0D01*
G01*
X119837000Y-94428000D02*
G75*
G03*
X119837000Y-94428000I-950000J0D01*
G01*
X304137000Y-94428000D02*
G75*
G03*
X304137000Y-94428000I-950000J0D01*
G01*
X119837000Y-196078000D02*
G75*
G03*
X119837000Y-196078000I-950000J0D01*
G01*
X211987000Y-196078000D02*
G75*
G03*
X211987000Y-196078000I-950000J0D01*
G01*
X304137000Y-196078000D02*
G75*
G03*
X304137000Y-196078000I-950000J0D01*
G01*
X25318250Y-90628000D02*
X387268250Y-90628000D01*
X387268250Y-200165500D02*
X25318250Y-200165500D01*
X22937000Y-93009250D02*
G75*
G02*
X25318250Y-90628000I2381250J0D01*
G01*
X25318250Y-200165500D02*
G75*
G02*
X22937000Y-197784250I0J2381250D01*
G01*
X399174500Y-197784250D02*
G75*
G02*
X396793250Y-200165500I-2381250J0D01*
G01*
X396793250Y-90628000D02*
G75*
G02*
X399174500Y-93009250I0J-2381250D01*
G01*
X387268250Y-200165500D02*
X394412000Y-200165500D01*
X387268250Y-90628000D02*
X394412000Y-90628000D01*
X394412000Y-90628000D02*
X396793250Y-90628000D01*
X394412000Y-200165500D02*
X396793250Y-200165500D01*
X22937000Y-197784250D02*
X22937000Y-93009250D01*
X399174500Y-93009250D02*
X399174500Y-197784250D01*
X396287000Y-196078000D02*
G75*
G03*
X396287000Y-196078000I-950000J0D01*
G01*
X396287000Y-94428000D02*
G75*
G03*
X396287000Y-94428000I-950000J0D01*
G01*
M02*
